<svg width="729" height="509" viewBox="0 0 729 509" fill="none" xmlns="http://www.w3.org/2000/svg">
<path d="M78.0648 31.1924C86.6783 31.1924 93.6611 24.2097 93.6611 15.5962C93.6611 6.98265 86.6783 0 78.0648 0C69.4513 0 62.4688 6.98265 62.4688 15.5962C62.4688 24.2097 69.4513 31.1924 78.0648 31.1924Z" fill="black"/>
<path d="M109.341 31.1924C117.955 31.1924 124.937 24.2097 124.937 15.5962C124.937 6.98265 117.955 0 109.341 0C100.728 0 93.7451 6.98265 93.7451 15.5962C93.7451 24.2097 100.728 31.1924 109.341 31.1924Z" fill="black"/>
<path d="M140.534 31.1924C149.147 31.1924 156.13 24.2097 156.13 15.5962C156.13 6.98265 149.147 0 140.534 0C131.92 0 124.938 6.98265 124.938 15.5962C124.938 24.2097 131.92 31.1924 140.534 31.1924Z" fill="black"/>
<path d="M78.0648 62.4687C86.6783 62.4687 93.6611 55.486 93.6611 46.8725C93.6611 38.259 86.6783 31.2764 78.0648 31.2764C69.4513 31.2764 62.4688 38.259 62.4688 46.8725C62.4688 55.486 69.4513 62.4687 78.0648 62.4687Z" fill="black"/>
<path d="M109.341 62.4687C117.955 62.4687 124.937 55.486 124.937 46.8725C124.937 38.259 117.955 31.2764 109.341 31.2764C100.728 31.2764 93.7451 38.259 93.7451 46.8725C93.7451 55.486 100.728 62.4687 109.341 62.4687Z" fill="black"/>
<path d="M140.534 62.4687C149.147 62.4687 156.13 55.486 156.13 46.8725C156.13 38.259 149.147 31.2764 140.534 31.2764C131.92 31.2764 124.938 38.259 124.938 46.8725C124.938 55.486 131.92 62.4687 140.534 62.4687Z" fill="black"/>
<path d="M15.5963 93.745C24.2098 93.745 31.1924 86.7624 31.1924 78.1489C31.1924 69.5354 24.2098 62.5527 15.5963 62.5527C6.98278 62.5527 0 69.5354 0 78.1489C0 86.7624 6.98278 93.745 15.5963 93.745Z" fill="black"/>
<path d="M46.7887 93.745C55.4022 93.745 62.3847 86.7624 62.3847 78.1489C62.3847 69.5354 55.4022 62.5527 46.7887 62.5527C38.1752 62.5527 31.1924 69.5354 31.1924 78.1489C31.1924 86.7624 38.1752 93.745 46.7887 93.745Z" fill="black"/>
<path d="M78.0648 93.745C86.6783 93.745 93.6611 86.7624 93.6611 78.1489C93.6611 69.5354 86.6783 62.5527 78.0648 62.5527C69.4513 62.5527 62.4688 69.5354 62.4688 78.1489C62.4688 86.7624 69.4513 93.745 78.0648 93.745Z" fill="black"/>
<path d="M15.5963 124.937C24.2098 124.937 31.1924 117.955 31.1924 109.341C31.1924 100.728 24.2098 93.7451 15.5963 93.7451C6.98278 93.7451 0 100.728 0 109.341C0 117.955 6.98278 124.937 15.5963 124.937Z" fill="black"/>
<path d="M46.7887 124.937C55.4022 124.937 62.3847 117.955 62.3847 109.341C62.3847 100.728 55.4022 93.7451 46.7887 93.7451C38.1752 93.7451 31.1924 100.728 31.1924 109.341C31.1924 117.955 38.1752 124.937 46.7887 124.937Z" fill="black"/>
<path d="M78.0648 124.937C86.6783 124.937 93.6611 117.955 93.6611 109.341C93.6611 100.728 86.6783 93.7451 78.0648 93.7451C69.4513 93.7451 62.4688 100.728 62.4688 109.341C62.4688 117.955 69.4513 124.937 78.0648 124.937Z" fill="black"/>
<path d="M15.5963 156.213C24.2098 156.213 31.1924 149.23 31.1924 140.617C31.1924 132.003 24.2098 125.021 15.5963 125.021C6.98278 125.021 0 132.003 0 140.617C0 149.23 6.98278 156.213 15.5963 156.213Z" fill="black"/>
<path d="M46.7887 156.213C55.4022 156.213 62.3847 149.23 62.3847 140.617C62.3847 132.003 55.4022 125.021 46.7887 125.021C38.1752 125.021 31.1924 132.003 31.1924 140.617C31.1924 149.23 38.1752 156.213 46.7887 156.213Z" fill="black"/>
<path d="M78.0648 156.213C86.6783 156.213 93.6611 149.23 93.6611 140.617C93.6611 132.003 86.6783 125.021 78.0648 125.021C69.4513 125.021 62.4688 132.003 62.4688 140.617C62.4688 149.23 69.4513 156.213 78.0648 156.213Z" fill="black"/>
<path d="M15.5963 187.489C24.2098 187.489 31.1924 180.507 31.1924 171.893C31.1924 163.28 24.2098 156.297 15.5963 156.297C6.98278 156.297 0 163.28 0 171.893C0 180.507 6.98278 187.489 15.5963 187.489Z" fill="black"/>
<path d="M46.7887 187.489C55.4022 187.489 62.3847 180.507 62.3847 171.893C62.3847 163.28 55.4022 156.297 46.7887 156.297C38.1752 156.297 31.1924 163.28 31.1924 171.893C31.1924 180.507 38.1752 187.489 46.7887 187.489Z" fill="black"/>
<path d="M78.0648 187.489C86.6783 187.489 93.6611 180.507 93.6611 171.893C93.6611 163.28 86.6783 156.297 78.0648 156.297C69.4513 156.297 62.4688 163.28 62.4688 171.893C62.4688 180.507 69.4513 187.489 78.0648 187.489Z" fill="black"/>
<path d="M15.5963 218.682C24.2098 218.682 31.1924 211.699 31.1924 203.085C31.1924 194.472 24.2098 187.489 15.5963 187.489C6.98278 187.489 0 194.472 0 203.085C0 211.699 6.98278 218.682 15.5963 218.682Z" fill="black"/>
<path d="M46.7887 218.682C55.4022 218.682 62.3847 211.699 62.3847 203.085C62.3847 194.472 55.4022 187.489 46.7887 187.489C38.1752 187.489 31.1924 194.472 31.1924 203.085C31.1924 211.699 38.1752 218.682 46.7887 218.682Z" fill="black"/>
<path d="M78.0648 218.682C86.6783 218.682 93.6611 211.699 93.6611 203.085C93.6611 194.472 86.6783 187.489 78.0648 187.489C69.4513 187.489 62.4688 194.472 62.4688 203.085C62.4688 211.699 69.4513 218.682 78.0648 218.682Z" fill="black"/>
<path d="M15.5963 249.958C24.2098 249.958 31.1924 242.975 31.1924 234.362C31.1924 225.748 24.2098 218.766 15.5963 218.766C6.98278 218.766 0 225.748 0 234.362C0 242.975 6.98278 249.958 15.5963 249.958Z" fill="black"/>
<path d="M46.7887 249.958C55.4022 249.958 62.3847 242.975 62.3847 234.362C62.3847 225.748 55.4022 218.766 46.7887 218.766C38.1752 218.766 31.1924 225.748 31.1924 234.362C31.1924 242.975 38.1752 249.958 46.7887 249.958Z" fill="black"/>
<path d="M78.0648 249.958C86.6783 249.958 93.6611 242.975 93.6611 234.362C93.6611 225.748 86.6783 218.766 78.0648 218.766C69.4513 218.766 62.4688 225.748 62.4688 234.362C62.4688 242.975 69.4513 249.958 78.0648 249.958Z" fill="black"/>
<path d="M109.341 124.937C117.955 124.937 124.937 117.955 124.937 109.341C124.937 100.728 117.955 93.7451 109.341 93.7451C100.728 93.7451 93.7451 100.728 93.7451 109.341C93.7451 117.955 100.728 124.937 109.341 124.937Z" fill="black"/>
<path d="M109.341 93.9961C117.955 93.9961 124.937 87.0134 124.937 78.3999C124.937 69.7864 117.955 62.8037 109.341 62.8037C100.728 62.8037 93.7451 69.7864 93.7451 78.3999C93.7451 87.0134 100.728 93.9961 109.341 93.9961Z" fill="black"/>
<path d="M140.534 93.745C149.147 93.745 156.13 86.7624 156.13 78.1489C156.13 69.5354 149.147 62.5527 140.534 62.5527C131.92 62.5527 124.938 69.5354 124.938 78.1489C124.938 86.7624 131.92 93.745 140.534 93.745Z" fill="black"/>
<path d="M171.809 31.1924C180.423 31.1924 187.405 24.2097 187.405 15.5962C187.405 6.98265 180.423 0 171.809 0C163.196 0 156.213 6.98265 156.213 15.5962C156.213 24.2097 163.196 31.1924 171.809 31.1924Z" fill="black"/>
<path d="M203.085 31.1924C211.699 31.1924 218.682 24.2097 218.682 15.5962C218.682 6.98265 211.699 0 203.085 0C194.472 0 187.489 6.98265 187.489 15.5962C187.489 24.2097 194.472 31.1924 203.085 31.1924Z" fill="black"/>
<path d="M234.362 31.1924C242.975 31.1924 249.958 24.2097 249.958 15.5962C249.958 6.98265 242.975 0 234.362 0C225.748 0 218.766 6.98265 218.766 15.5962C218.766 24.2097 225.748 31.1924 234.362 31.1924Z" fill="black"/>
<path d="M171.809 62.4687C180.423 62.4687 187.405 55.486 187.405 46.8725C187.405 38.259 180.423 31.2764 171.809 31.2764C163.196 31.2764 156.213 38.259 156.213 46.8725C156.213 55.486 163.196 62.4687 171.809 62.4687Z" fill="black"/>
<path d="M203.085 62.4687C211.699 62.4687 218.682 55.486 218.682 46.8725C218.682 38.259 211.699 31.2764 203.085 31.2764C194.472 31.2764 187.489 38.259 187.489 46.8725C187.489 55.486 194.472 62.4687 203.085 62.4687Z" fill="black"/>
<path d="M234.362 62.4687C242.975 62.4687 249.958 55.486 249.958 46.8725C249.958 38.259 242.975 31.2764 234.362 31.2764C225.748 31.2764 218.766 38.259 218.766 46.8725C218.766 55.486 225.748 62.4687 234.362 62.4687Z" fill="black"/>
<path d="M171.809 93.745C180.423 93.745 187.405 86.7624 187.405 78.1489C187.405 69.5354 180.423 62.5527 171.809 62.5527C163.196 62.5527 156.213 69.5354 156.213 78.1489C156.213 86.7624 163.196 93.745 171.809 93.745Z" fill="black"/>
<path d="M203.085 93.745C211.699 93.745 218.682 86.7624 218.682 78.1489C218.682 69.5354 211.699 62.5527 203.085 62.5527C194.472 62.5527 187.489 69.5354 187.489 78.1489C187.489 86.7624 194.472 93.745 203.085 93.745Z" fill="black"/>
<path d="M234.362 93.745C242.975 93.745 249.958 86.7624 249.958 78.1489C249.958 69.5354 242.975 62.5527 234.362 62.5527C225.748 62.5527 218.766 69.5354 218.766 78.1489C218.766 86.7624 225.748 93.745 234.362 93.745Z" fill="black"/>
<path d="M265.554 31.1924C274.168 31.1924 281.15 24.2097 281.15 15.5962C281.15 6.98265 274.168 0 265.554 0C256.941 0 249.958 6.98265 249.958 15.5962C249.958 24.2097 256.941 31.1924 265.554 31.1924Z" fill="black"/>
<path d="M296.83 31.1924C305.444 31.1924 312.427 24.2097 312.427 15.5962C312.427 6.98265 305.444 0 296.83 0C288.217 0 281.234 6.98265 281.234 15.5962C281.234 24.2097 288.217 31.1924 296.83 31.1924Z" fill="black"/>
<path d="M265.554 62.4687C274.168 62.4687 281.15 55.486 281.15 46.8725C281.15 38.259 274.168 31.2764 265.554 31.2764C256.941 31.2764 249.958 38.259 249.958 46.8725C249.958 55.486 256.941 62.4687 265.554 62.4687Z" fill="black"/>
<path d="M296.83 62.4687C305.444 62.4687 312.427 55.486 312.427 46.8725C312.427 38.259 305.444 31.2764 296.83 31.2764C288.217 31.2764 281.234 38.259 281.234 46.8725C281.234 55.486 288.217 62.4687 296.83 62.4687Z" fill="black"/>
<path d="M328.107 62.4687C336.72 62.4687 343.703 55.486 343.703 46.8725C343.703 38.259 336.72 31.2764 328.107 31.2764C319.493 31.2764 312.511 38.259 312.511 46.8725C312.511 55.486 319.493 62.4687 328.107 62.4687Z" fill="black"/>
<path d="M265.554 93.745C274.168 93.745 281.15 86.7624 281.15 78.1489C281.15 69.5354 274.168 62.5527 265.554 62.5527C256.941 62.5527 249.958 69.5354 249.958 78.1489C249.958 86.7624 256.941 93.745 265.554 93.745Z" fill="black"/>
<path d="M296.83 93.745C305.444 93.745 312.427 86.7624 312.427 78.1489C312.427 69.5354 305.444 62.5527 296.83 62.5527C288.217 62.5527 281.234 69.5354 281.234 78.1489C281.234 86.7624 288.217 93.745 296.83 93.745Z" fill="black"/>
<path d="M328.107 93.745C336.72 93.745 343.703 86.7624 343.703 78.1489C343.703 69.5354 336.72 62.5527 328.107 62.5527C319.493 62.5527 312.511 69.5354 312.511 78.1489C312.511 86.7624 319.493 93.745 328.107 93.745Z" fill="black"/>
<path d="M296.83 124.937C305.444 124.937 312.427 117.955 312.427 109.341C312.427 100.728 305.444 93.7451 296.83 93.7451C288.217 93.7451 281.234 100.728 281.234 109.341C281.234 117.955 288.217 124.937 296.83 124.937Z" fill="black"/>
<path d="M328.107 124.937C336.72 124.937 343.703 117.955 343.703 109.341C343.703 100.728 336.72 93.7451 328.107 93.7451C319.493 93.7451 312.511 100.728 312.511 109.341C312.511 117.955 319.493 124.937 328.107 124.937Z" fill="black"/>
<path d="M359.299 124.937C367.913 124.937 374.895 117.955 374.895 109.341C374.895 100.728 367.913 93.7451 359.299 93.7451C350.686 93.7451 343.703 100.728 343.703 109.341C343.703 117.955 350.686 124.937 359.299 124.937Z" fill="black"/>
<path d="M296.83 156.213C305.444 156.213 312.427 149.23 312.427 140.617C312.427 132.003 305.444 125.021 296.83 125.021C288.217 125.021 281.234 132.003 281.234 140.617C281.234 149.23 288.217 156.213 296.83 156.213Z" fill="black"/>
<path d="M328.107 156.213C336.72 156.213 343.703 149.23 343.703 140.617C343.703 132.003 336.72 125.021 328.107 125.021C319.493 125.021 312.511 132.003 312.511 140.617C312.511 149.23 319.493 156.213 328.107 156.213Z" fill="black"/>
<path d="M359.299 156.213C367.913 156.213 374.895 149.23 374.895 140.617C374.895 132.003 367.913 125.021 359.299 125.021C350.686 125.021 343.703 132.003 343.703 140.617C343.703 149.23 350.686 156.213 359.299 156.213Z" fill="black"/>
<path d="M296.83 187.741C305.444 187.741 312.427 180.759 312.427 172.145C312.427 163.531 305.444 156.549 296.83 156.549C288.217 156.549 281.234 163.531 281.234 172.145C281.234 180.759 288.217 187.741 296.83 187.741Z" fill="black"/>
<path d="M328.107 187.741C336.72 187.741 343.703 180.759 343.703 172.145C343.703 163.531 336.72 156.549 328.107 156.549C319.493 156.549 312.511 163.531 312.511 172.145C312.511 180.759 319.493 187.741 328.107 187.741Z" fill="black"/>
<path d="M359.299 187.741C367.913 187.741 374.895 180.759 374.895 172.145C374.895 163.531 367.913 156.549 359.299 156.549C350.686 156.549 343.703 163.531 343.703 172.145C343.703 180.759 350.686 187.741 359.299 187.741Z" fill="black"/>
<path d="M78.0648 500C86.6783 500 93.6611 493.017 93.6611 484.404C93.6611 475.79 86.6783 468.808 78.0648 468.808C69.4513 468.808 62.4688 475.79 62.4688 484.404C62.4688 493.017 69.4513 500 78.0648 500Z" fill="black"/>
<path d="M109.341 500C117.955 500 124.937 493.017 124.937 484.404C124.937 475.79 117.955 468.808 109.341 468.808C100.728 468.808 93.7451 475.79 93.7451 484.404C93.7451 493.017 100.728 500 109.341 500Z" fill="black"/>
<path d="M140.534 500C149.147 500 156.13 493.017 156.13 484.404C156.13 475.79 149.147 468.808 140.534 468.808C131.92 468.808 124.938 475.79 124.938 484.404C124.938 493.017 131.92 500 140.534 500Z" fill="black"/>
<path d="M78.0648 468.724C86.6783 468.724 93.6611 461.741 93.6611 453.127C93.6611 444.514 86.6783 437.531 78.0648 437.531C69.4513 437.531 62.4688 444.514 62.4688 453.127C62.4688 461.741 69.4513 468.724 78.0648 468.724Z" fill="black"/>
<path d="M109.341 468.724C117.955 468.724 124.937 461.741 124.937 453.127C124.937 444.514 117.955 437.531 109.341 437.531C100.728 437.531 93.7451 444.514 93.7451 453.127C93.7451 461.741 100.728 468.724 109.341 468.724Z" fill="black"/>
<path d="M140.534 468.724C149.147 468.724 156.13 461.741 156.13 453.127C156.13 444.514 149.147 437.531 140.534 437.531C131.92 437.531 124.938 444.514 124.938 453.127C124.938 461.741 131.92 468.724 140.534 468.724Z" fill="black"/>
<path d="M15.5963 437.447C24.2098 437.447 31.1924 430.465 31.1924 421.851C31.1924 413.238 24.2098 406.255 15.5963 406.255C6.98278 406.255 0 413.238 0 421.851C0 430.465 6.98278 437.447 15.5963 437.447Z" fill="black"/>
<path d="M46.7887 437.447C55.4022 437.447 62.3847 430.465 62.3847 421.851C62.3847 413.238 55.4022 406.255 46.7887 406.255C38.1752 406.255 31.1924 413.238 31.1924 421.851C31.1924 430.465 38.1752 437.447 46.7887 437.447Z" fill="black"/>
<path d="M78.0648 437.447C86.6783 437.447 93.6611 430.465 93.6611 421.851C93.6611 413.238 86.6783 406.255 78.0648 406.255C69.4513 406.255 62.4688 413.238 62.4688 421.851C62.4688 430.465 69.4513 437.447 78.0648 437.447Z" fill="black"/>
<path d="M15.5963 406.171C24.2098 406.171 31.1924 399.188 31.1924 390.575C31.1924 381.961 24.2098 374.979 15.5963 374.979C6.98278 374.979 0 381.961 0 390.575C0 399.188 6.98278 406.171 15.5963 406.171Z" fill="black"/>
<path d="M46.7887 406.171C55.4022 406.171 62.3847 399.188 62.3847 390.575C62.3847 381.961 55.4022 374.979 46.7887 374.979C38.1752 374.979 31.1924 381.961 31.1924 390.575C31.1924 399.188 38.1752 406.171 46.7887 406.171Z" fill="black"/>
<path d="M78.0648 406.171C86.6783 406.171 93.6611 399.188 93.6611 390.575C93.6611 381.961 86.6783 374.979 78.0648 374.979C69.4513 374.979 62.4688 381.961 62.4688 390.575C62.4688 399.188 69.4513 406.171 78.0648 406.171Z" fill="black"/>
<path d="M15.5963 374.979C24.2098 374.979 31.1924 367.997 31.1924 359.383C31.1924 350.77 24.2098 343.787 15.5963 343.787C6.98278 343.787 0 350.77 0 359.383C0 367.997 6.98278 374.979 15.5963 374.979Z" fill="black"/>
<path d="M46.7887 374.979C55.4022 374.979 62.3847 367.997 62.3847 359.383C62.3847 350.77 55.4022 343.787 46.7887 343.787C38.1752 343.787 31.1924 350.77 31.1924 359.383C31.1924 367.997 38.1752 374.979 46.7887 374.979Z" fill="black"/>
<path d="M78.0648 374.979C86.6783 374.979 93.6611 367.997 93.6611 359.383C93.6611 350.77 86.6783 343.787 78.0648 343.787C69.4513 343.787 62.4688 350.77 62.4688 359.383C62.4688 367.997 69.4513 374.979 78.0648 374.979Z" fill="black"/>
<path d="M15.5963 343.703C24.2098 343.703 31.1924 336.72 31.1924 328.107C31.1924 319.493 24.2098 312.511 15.5963 312.511C6.98278 312.511 0 319.493 0 328.107C0 336.72 6.98278 343.703 15.5963 343.703Z" fill="black"/>
<path d="M46.7887 343.703C55.4022 343.703 62.3847 336.72 62.3847 328.107C62.3847 319.493 55.4022 312.511 46.7887 312.511C38.1752 312.511 31.1924 319.493 31.1924 328.107C31.1924 336.72 38.1752 343.703 46.7887 343.703Z" fill="black"/>
<path d="M78.0648 343.703C86.6783 343.703 93.6611 336.72 93.6611 328.107C93.6611 319.493 86.6783 312.511 78.0648 312.511C69.4513 312.511 62.4688 319.493 62.4688 328.107C62.4688 336.72 69.4513 343.703 78.0648 343.703Z" fill="black"/>
<path d="M15.5963 312.427C24.2098 312.427 31.1924 305.444 31.1924 296.831C31.1924 288.217 24.2098 281.234 15.5963 281.234C6.98278 281.234 0 288.217 0 296.831C0 305.444 6.98278 312.427 15.5963 312.427Z" fill="black"/>
<path d="M46.7887 312.427C55.4022 312.427 62.3847 305.444 62.3847 296.831C62.3847 288.217 55.4022 281.234 46.7887 281.234C38.1752 281.234 31.1924 288.217 31.1924 296.831C31.1924 305.444 38.1752 312.427 46.7887 312.427Z" fill="black"/>
<path d="M78.0648 312.427C86.6783 312.427 93.6611 305.444 93.6611 296.831C93.6611 288.217 86.6783 281.234 78.0648 281.234C69.4513 281.234 62.4688 288.217 62.4688 296.831C62.4688 305.444 69.4513 312.427 78.0648 312.427Z" fill="black"/>
<path d="M15.5963 281.234C24.2098 281.234 31.1924 274.252 31.1924 265.638C31.1924 257.025 24.2098 250.042 15.5963 250.042C6.98278 250.042 0 257.025 0 265.638C0 274.252 6.98278 281.234 15.5963 281.234Z" fill="black"/>
<path d="M46.7887 281.234C55.4022 281.234 62.3847 274.252 62.3847 265.638C62.3847 257.025 55.4022 250.042 46.7887 250.042C38.1752 250.042 31.1924 257.025 31.1924 265.638C31.1924 274.252 38.1752 281.234 46.7887 281.234Z" fill="black"/>
<path d="M78.0648 281.234C86.6783 281.234 93.6611 274.252 93.6611 265.638C93.6611 257.025 86.6783 250.042 78.0648 250.042C69.4513 250.042 62.4688 257.025 62.4688 265.638C62.4688 274.252 69.4513 281.234 78.0648 281.234Z" fill="black"/>
<path d="M109.341 406.171C117.955 406.171 124.937 399.188 124.937 390.575C124.937 381.961 117.955 374.979 109.341 374.979C100.728 374.979 93.7451 381.961 93.7451 390.575C93.7451 399.188 100.728 406.171 109.341 406.171Z" fill="black"/>
<path d="M109.341 437.112C117.955 437.112 124.937 430.13 124.937 421.516C124.937 412.903 117.955 405.92 109.341 405.92C100.728 405.92 93.7451 412.903 93.7451 421.516C93.7451 430.13 100.728 437.112 109.341 437.112Z" fill="black"/>
<path d="M140.534 437.447C149.147 437.447 156.13 430.465 156.13 421.851C156.13 413.238 149.147 406.255 140.534 406.255C131.92 406.255 124.938 413.238 124.938 421.851C124.938 430.465 131.92 437.447 140.534 437.447Z" fill="black"/>
<path d="M171.809 500C180.423 500 187.405 493.017 187.405 484.404C187.405 475.79 180.423 468.808 171.809 468.808C163.196 468.808 156.213 475.79 156.213 484.404C156.213 493.017 163.196 500 171.809 500Z" fill="black"/>
<path d="M203.085 500C211.699 500 218.682 493.017 218.682 484.404C218.682 475.79 211.699 468.808 203.085 468.808C194.472 468.808 187.489 475.79 187.489 484.404C187.489 493.017 194.472 500 203.085 500Z" fill="black"/>
<path d="M234.362 500C242.975 500 249.958 493.017 249.958 484.404C249.958 475.79 242.975 468.808 234.362 468.808C225.748 468.808 218.766 475.79 218.766 484.404C218.766 493.017 225.748 500 234.362 500Z" fill="black"/>
<path d="M171.809 468.724C180.423 468.724 187.405 461.741 187.405 453.127C187.405 444.514 180.423 437.531 171.809 437.531C163.196 437.531 156.213 444.514 156.213 453.127C156.213 461.741 163.196 468.724 171.809 468.724Z" fill="black"/>
<path d="M203.085 468.724C211.699 468.724 218.682 461.741 218.682 453.127C218.682 444.514 211.699 437.531 203.085 437.531C194.472 437.531 187.489 444.514 187.489 453.127C187.489 461.741 194.472 468.724 203.085 468.724Z" fill="black"/>
<path d="M234.362 468.724C242.975 468.724 249.958 461.741 249.958 453.127C249.958 444.514 242.975 437.531 234.362 437.531C225.748 437.531 218.766 444.514 218.766 453.127C218.766 461.741 225.748 468.724 234.362 468.724Z" fill="black"/>
<path d="M171.809 437.447C180.423 437.447 187.405 430.465 187.405 421.851C187.405 413.238 180.423 406.255 171.809 406.255C163.196 406.255 156.213 413.238 156.213 421.851C156.213 430.465 163.196 437.447 171.809 437.447Z" fill="black"/>
<path d="M203.085 437.447C211.699 437.447 218.682 430.465 218.682 421.851C218.682 413.238 211.699 406.255 203.085 406.255C194.472 406.255 187.489 413.238 187.489 421.851C187.489 430.465 194.472 437.447 203.085 437.447Z" fill="black"/>
<path d="M234.362 437.447C242.975 437.447 249.958 430.465 249.958 421.851C249.958 413.238 242.975 406.255 234.362 406.255C225.748 406.255 218.766 413.238 218.766 421.851C218.766 430.465 225.748 437.447 234.362 437.447Z" fill="black"/>
<path d="M265.554 500C274.168 500 281.15 493.017 281.15 484.404C281.15 475.79 274.168 468.808 265.554 468.808C256.941 468.808 249.958 475.79 249.958 484.404C249.958 493.017 256.941 500 265.554 500Z" fill="black"/>
<path d="M296.83 500C305.444 500 312.427 493.017 312.427 484.404C312.427 475.79 305.444 468.808 296.83 468.808C288.217 468.808 281.234 475.79 281.234 484.404C281.234 493.017 288.217 500 296.83 500Z" fill="black"/>
<path d="M265.554 468.724C274.168 468.724 281.15 461.741 281.15 453.127C281.15 444.514 274.168 437.531 265.554 437.531C256.941 437.531 249.958 444.514 249.958 453.127C249.958 461.741 256.941 468.724 265.554 468.724Z" fill="black"/>
<path d="M296.83 468.724C305.444 468.724 312.427 461.741 312.427 453.127C312.427 444.514 305.444 437.531 296.83 437.531C288.217 437.531 281.234 444.514 281.234 453.127C281.234 461.741 288.217 468.724 296.83 468.724Z" fill="black"/>
<path d="M328.107 468.724C336.72 468.724 343.703 461.741 343.703 453.127C343.703 444.514 336.72 437.531 328.107 437.531C319.493 437.531 312.511 444.514 312.511 453.127C312.511 461.741 319.493 468.724 328.107 468.724Z" fill="black"/>
<path d="M265.554 437.447C274.168 437.447 281.15 430.465 281.15 421.851C281.15 413.238 274.168 406.255 265.554 406.255C256.941 406.255 249.958 413.238 249.958 421.851C249.958 430.465 256.941 437.447 265.554 437.447Z" fill="black"/>
<path d="M296.83 437.447C305.444 437.447 312.427 430.465 312.427 421.851C312.427 413.238 305.444 406.255 296.83 406.255C288.217 406.255 281.234 413.238 281.234 421.851C281.234 430.465 288.217 437.447 296.83 437.447Z" fill="black"/>
<path d="M328.107 437.447C336.72 437.447 343.703 430.465 343.703 421.851C343.703 413.238 336.72 406.255 328.107 406.255C319.493 406.255 312.511 413.238 312.511 421.851C312.511 430.465 319.493 437.447 328.107 437.447Z" fill="black"/>
<path d="M296.83 406.171C305.444 406.171 312.427 399.188 312.427 390.575C312.427 381.961 305.444 374.979 296.83 374.979C288.217 374.979 281.234 381.961 281.234 390.575C281.234 399.188 288.217 406.171 296.83 406.171Z" fill="black"/>
<path d="M328.107 406.171C336.72 406.171 343.703 399.188 343.703 390.575C343.703 381.961 336.72 374.979 328.107 374.979C319.493 374.979 312.511 381.961 312.511 390.575C312.511 399.188 319.493 406.171 328.107 406.171Z" fill="black"/>
<path d="M359.299 406.171C367.913 406.171 374.895 399.188 374.895 390.575C374.895 381.961 367.913 374.979 359.299 374.979C350.686 374.979 343.703 381.961 343.703 390.575C343.703 399.188 350.686 406.171 359.299 406.171Z" fill="black"/>
<path d="M296.83 374.979C305.444 374.979 312.427 367.997 312.427 359.383C312.427 350.77 305.444 343.787 296.83 343.787C288.217 343.787 281.234 350.77 281.234 359.383C281.234 367.997 288.217 374.979 296.83 374.979Z" fill="black"/>
<path d="M328.107 374.979C336.72 374.979 343.703 367.997 343.703 359.383C343.703 350.77 336.72 343.787 328.107 343.787C319.493 343.787 312.511 350.77 312.511 359.383C312.511 367.997 319.493 374.979 328.107 374.979Z" fill="black"/>
<path d="M359.299 374.979C367.913 374.979 374.895 367.997 374.895 359.383C374.895 350.77 367.913 343.787 359.299 343.787C350.686 343.787 343.703 350.77 343.703 359.383C343.703 367.997 350.686 374.979 359.299 374.979Z" fill="black"/>
<path d="M296.83 343.367C305.444 343.367 312.427 336.385 312.427 327.771C312.427 319.157 305.444 312.175 296.83 312.175C288.217 312.175 281.234 319.157 281.234 327.771C281.234 336.385 288.217 343.367 296.83 343.367Z" fill="black"/>
<path d="M328.107 343.367C336.72 343.367 343.703 336.385 343.703 327.771C343.703 319.157 336.72 312.175 328.107 312.175C319.493 312.175 312.511 319.157 312.511 327.771C312.511 336.385 319.493 343.367 328.107 343.367Z" fill="black"/>
<path d="M359.299 343.367C367.913 343.367 374.895 336.385 374.895 327.771C374.895 319.157 367.913 312.175 359.299 312.175C350.686 312.175 343.703 319.157 343.703 327.771C343.703 336.385 350.686 343.367 359.299 343.367Z" fill="black"/>
<path d="M455.476 164.598C464.09 164.598 471.072 157.615 471.072 149.001C471.072 140.388 464.09 133.405 455.476 133.405C446.863 133.405 439.88 140.388 439.88 149.001C439.88 157.615 446.863 164.598 455.476 164.598Z" fill="black"/>
<path d="M580.413 164.598C589.026 164.598 596.009 157.615 596.009 149.001C596.009 140.388 589.026 133.405 580.413 133.405C571.799 133.405 564.816 140.388 564.816 149.001C564.816 157.615 571.799 164.598 580.413 164.598Z" fill="black"/>
<path d="M642.965 164.598C651.579 164.598 658.562 157.615 658.562 149.001C658.562 140.388 651.579 133.405 642.965 133.405C634.352 133.405 627.369 140.388 627.369 149.001C627.369 157.615 634.352 164.598 642.965 164.598Z" fill="black"/>
<path d="M517.944 164.598C526.557 164.598 533.54 157.615 533.54 149.001C533.54 140.388 526.557 133.405 517.944 133.405C509.33 133.405 502.348 140.388 502.348 149.001C502.348 157.615 509.33 164.598 517.944 164.598Z" fill="black"/>
<path d="M455.476 195.874C464.09 195.874 471.072 188.891 471.072 180.278C471.072 171.664 464.09 164.682 455.476 164.682C446.863 164.682 439.88 171.664 439.88 180.278C439.88 188.891 446.863 195.874 455.476 195.874Z" fill="black"/>
<path d="M486.669 164.598C495.282 164.598 502.265 157.615 502.265 149.001C502.265 140.388 495.282 133.405 486.669 133.405C478.055 133.405 471.072 140.388 471.072 149.001C471.072 157.615 478.055 164.598 486.669 164.598Z" fill="black"/>
<path d="M642.965 195.874C651.579 195.874 658.562 188.891 658.562 180.278C658.562 171.664 651.579 164.682 642.965 164.682C634.352 164.682 627.369 171.664 627.369 180.278C627.369 188.891 634.352 195.874 642.965 195.874Z" fill="black"/>
<path d="M517.944 195.874C526.557 195.874 533.54 188.891 533.54 180.278C533.54 171.664 526.557 164.682 517.944 164.682C509.33 164.682 502.348 171.664 502.348 180.278C502.348 188.891 509.33 195.874 517.944 195.874Z" fill="black"/>
<path d="M611.689 195.874C620.302 195.874 627.285 188.891 627.285 180.278C627.285 171.664 620.302 164.682 611.689 164.682C603.075 164.682 596.093 171.664 596.093 180.278C596.093 188.891 603.075 195.874 611.689 195.874Z" fill="black"/>
<path d="M611.689 164.598C620.302 164.598 627.285 157.615 627.285 149.001C627.285 140.388 620.302 133.405 611.689 133.405C603.075 133.405 596.093 140.388 596.093 149.001C596.093 157.615 603.075 164.598 611.689 164.598Z" fill="black"/>
<path d="M486.669 227.066C495.282 227.066 502.265 220.084 502.265 211.47C502.265 202.857 495.282 195.874 486.669 195.874C478.055 195.874 471.072 202.857 471.072 211.47C471.072 220.084 478.055 227.066 486.669 227.066Z" fill="black"/>
<path d="M486.669 195.874C495.282 195.874 502.265 188.891 502.265 180.278C502.265 171.664 495.282 164.682 486.669 164.682C478.055 164.682 471.072 171.664 471.072 180.278C471.072 188.891 478.055 195.874 486.669 195.874Z" fill="black"/>
<path d="M580.413 195.874C589.026 195.874 596.009 188.891 596.009 180.278C596.009 171.664 589.026 164.682 580.413 164.682C571.799 164.682 564.816 171.664 564.816 180.278C564.816 188.891 571.799 195.874 580.413 195.874Z" fill="black"/>
<path d="M611.689 258.343C620.302 258.343 627.285 251.36 627.285 242.747C627.285 234.133 620.302 227.15 611.689 227.15C603.075 227.15 596.093 234.133 596.093 242.747C596.093 251.36 603.075 258.343 611.689 258.343Z" fill="black"/>
<path d="M486.669 258.343C495.282 258.343 502.265 251.36 502.265 242.747C502.265 234.133 495.282 227.15 486.669 227.15C478.055 227.15 471.072 234.133 471.072 242.747C471.072 251.36 478.055 258.343 486.669 258.343Z" fill="black"/>
<path d="M611.689 227.066C620.302 227.066 627.285 220.084 627.285 211.47C627.285 202.857 620.302 195.874 611.689 195.874C603.075 195.874 596.093 202.857 596.093 211.47C596.093 220.084 603.075 227.066 611.689 227.066Z" fill="black"/>
<path d="M517.944 227.066C526.557 227.066 533.54 220.084 533.54 211.47C533.54 202.857 526.557 195.874 517.944 195.874C509.33 195.874 502.348 202.857 502.348 211.47C502.348 220.084 509.33 227.066 517.944 227.066Z" fill="black"/>
<path d="M549.22 227.066C557.834 227.066 564.816 220.084 564.816 211.47C564.816 202.857 557.834 195.874 549.22 195.874C540.607 195.874 533.624 202.857 533.624 211.47C533.624 220.084 540.607 227.066 549.22 227.066Z" fill="black"/>
<path d="M580.413 227.066C589.026 227.066 596.009 220.084 596.009 211.47C596.009 202.857 589.026 195.874 580.413 195.874C571.799 195.874 564.816 202.857 564.816 211.47C564.816 220.084 571.799 227.066 580.413 227.066Z" fill="black"/>
<path d="M517.944 258.343C526.557 258.343 533.54 251.36 533.54 242.747C533.54 234.133 526.557 227.15 517.944 227.15C509.33 227.15 502.348 234.133 502.348 242.747C502.348 251.36 509.33 258.343 517.944 258.343Z" fill="black"/>
<path d="M549.22 258.343C557.834 258.343 564.816 251.36 564.816 242.747C564.816 234.133 557.834 227.15 549.22 227.15C540.607 227.15 533.624 234.133 533.624 242.747C533.624 251.36 540.607 258.343 549.22 258.343Z" fill="black"/>
<path d="M580.413 258.343C589.026 258.343 596.009 251.36 596.009 242.747C596.009 234.133 589.026 227.15 580.413 227.15C571.799 227.15 564.816 234.133 564.816 242.747C564.816 251.36 571.799 258.343 580.413 258.343Z" fill="black"/>
<path d="M517.944 289.619C526.557 289.619 533.54 282.636 533.54 274.023C533.54 265.409 526.557 258.427 517.944 258.427C509.33 258.427 502.348 265.409 502.348 274.023C502.348 282.636 509.33 289.619 517.944 289.619Z" fill="black"/>
<path d="M549.22 289.619C557.834 289.619 564.816 282.636 564.816 274.023C564.816 265.409 557.834 258.427 549.22 258.427C540.607 258.427 533.624 265.409 533.624 274.023C533.624 282.636 540.607 289.619 549.22 289.619Z" fill="black"/>
<path d="M580.413 289.619C589.026 289.619 596.009 282.636 596.009 274.023C596.009 265.409 589.026 258.427 580.413 258.427C571.799 258.427 564.816 265.409 564.816 274.023C564.816 282.636 571.799 289.619 580.413 289.619Z" fill="black"/>
<path d="M517.944 320.811C526.557 320.811 533.54 313.829 533.54 305.215C533.54 296.602 526.557 289.619 517.944 289.619C509.33 289.619 502.348 296.602 502.348 305.215C502.348 313.829 509.33 320.811 517.944 320.811Z" fill="black"/>
<path d="M549.22 320.811C557.834 320.811 564.816 313.829 564.816 305.215C564.816 296.602 557.834 289.619 549.22 289.619C540.607 289.619 533.624 296.602 533.624 305.215C533.624 313.829 540.607 320.811 549.22 320.811Z" fill="black"/>
<path d="M580.413 320.811C589.026 320.811 596.009 313.829 596.009 305.215C596.009 296.602 589.026 289.619 580.413 289.619C571.799 289.619 564.816 296.602 564.816 305.215C564.816 313.829 571.799 320.811 580.413 320.811Z" fill="black"/>
<path d="M517.944 352.088C526.557 352.088 533.54 345.105 533.54 336.492C533.54 327.878 526.557 320.896 517.944 320.896C509.33 320.896 502.348 327.878 502.348 336.492C502.348 345.105 509.33 352.088 517.944 352.088Z" fill="black"/>
<path d="M549.22 352.088C557.834 352.088 564.816 345.105 564.816 336.492C564.816 327.878 557.834 320.896 549.22 320.896C540.607 320.896 533.624 327.878 533.624 336.492C533.624 345.105 540.607 352.088 549.22 352.088Z" fill="black"/>
<path d="M580.413 352.088C589.026 352.088 596.009 345.105 596.009 336.492C596.009 327.878 589.026 320.896 580.413 320.896C571.799 320.896 564.816 327.878 564.816 336.492C564.816 345.105 571.799 352.088 580.413 352.088Z" fill="black"/>
<path d="M517.944 383.364C526.557 383.364 533.54 376.382 533.54 367.768C533.54 359.155 526.557 352.172 517.944 352.172C509.33 352.172 502.348 359.155 502.348 367.768C502.348 376.382 509.33 383.364 517.944 383.364Z" fill="black"/>
<path d="M549.22 383.364C557.834 383.364 564.816 376.382 564.816 367.768C564.816 359.155 557.834 352.172 549.22 352.172C540.607 352.172 533.624 359.155 533.624 367.768C533.624 376.382 540.607 383.364 549.22 383.364Z" fill="black"/>
<path d="M580.413 383.364C589.026 383.364 596.009 376.382 596.009 367.768C596.009 359.155 589.026 352.172 580.413 352.172C571.799 352.172 564.816 359.155 564.816 367.768C564.816 376.382 571.799 383.364 580.413 383.364Z" fill="black"/>
<path d="M517.944 414.556C526.557 414.556 533.54 407.573 533.54 398.959C533.54 390.346 526.557 383.363 517.944 383.363C509.33 383.363 502.348 390.346 502.348 398.959C502.348 407.573 509.33 414.556 517.944 414.556Z" fill="black"/>
<path d="M549.22 414.556C557.834 414.556 564.816 407.573 564.816 398.959C564.816 390.346 557.834 383.363 549.22 383.363C540.607 383.363 533.624 390.346 533.624 398.959C533.624 407.573 540.607 414.556 549.22 414.556Z" fill="black"/>
<path d="M580.413 414.556C589.026 414.556 596.009 407.573 596.009 398.959C596.009 390.346 589.026 383.363 580.413 383.363C571.799 383.363 564.816 390.346 564.816 398.959C564.816 407.573 571.799 414.556 580.413 414.556Z" fill="black"/>
<path d="M517.944 445.832C526.557 445.832 533.54 438.849 533.54 430.236C533.54 421.622 526.557 414.64 517.944 414.64C509.33 414.64 502.348 421.622 502.348 430.236C502.348 438.849 509.33 445.832 517.944 445.832Z" fill="black"/>
<path d="M549.22 445.832C557.834 445.832 564.816 438.849 564.816 430.236C564.816 421.622 557.834 414.64 549.22 414.64C540.607 414.64 533.624 421.622 533.624 430.236C533.624 438.849 540.607 445.832 549.22 445.832Z" fill="black"/>
<path d="M580.413 445.832C589.026 445.832 596.009 438.849 596.009 430.236C596.009 421.622 589.026 414.64 580.413 414.64C571.799 414.64 564.816 421.622 564.816 430.236C564.816 438.849 571.799 445.832 580.413 445.832Z" fill="black"/>
<path d="M517.944 477.108C526.557 477.108 533.54 470.126 533.54 461.512C533.54 452.899 526.557 445.916 517.944 445.916C509.33 445.916 502.348 452.899 502.348 461.512C502.348 470.126 509.33 477.108 517.944 477.108Z" fill="black"/>
<path d="M549.22 477.108C557.834 477.108 564.816 470.126 564.816 461.512C564.816 452.899 557.834 445.916 549.22 445.916C540.607 445.916 533.624 452.899 533.624 461.512C533.624 470.126 540.607 477.108 549.22 477.108Z" fill="black"/>
<path d="M580.413 477.108C589.026 477.108 596.009 470.126 596.009 461.512C596.009 452.899 589.026 445.916 580.413 445.916C571.799 445.916 564.816 452.899 564.816 461.512C564.816 470.126 571.799 477.108 580.413 477.108Z" fill="black"/>
<path d="M517.944 508.385C526.557 508.385 533.54 501.402 533.54 492.789C533.54 484.175 526.557 477.192 517.944 477.192C509.33 477.192 502.348 484.175 502.348 492.789C502.348 501.402 509.33 508.385 517.944 508.385Z" fill="black"/>
<path d="M549.22 508.385C557.834 508.385 564.816 501.402 564.816 492.789C564.816 484.175 557.834 477.192 549.22 477.192C540.607 477.192 533.624 484.175 533.624 492.789C533.624 501.402 540.607 508.385 549.22 508.385Z" fill="black"/>
<path d="M580.413 508.385C589.026 508.385 596.009 501.402 596.009 492.789C596.009 484.175 589.026 477.192 580.413 477.192C571.799 477.192 564.816 484.175 564.816 492.789C564.816 501.402 571.799 508.385 580.413 508.385Z" fill="black"/>
<path d="M424.2 102.13C432.813 102.13 439.796 95.1472 439.796 86.5337C439.796 77.9201 432.813 70.9375 424.2 70.9375C415.586 70.9375 408.604 77.9201 408.604 86.5337C408.604 95.1472 415.586 102.13 424.2 102.13Z" fill="black"/>
<path d="M486.669 102.13C495.282 102.13 502.265 95.1472 502.265 86.5337C502.265 77.9201 495.282 70.9375 486.669 70.9375C478.055 70.9375 471.072 77.9201 471.072 86.5337C471.072 95.1472 478.055 102.13 486.669 102.13Z" fill="black"/>
<path d="M424.2 133.322C432.813 133.322 439.796 126.34 439.796 117.726C439.796 109.113 432.813 102.13 424.2 102.13C415.586 102.13 408.604 109.113 408.604 117.726C408.604 126.34 415.586 133.322 424.2 133.322Z" fill="black"/>
<path d="M455.476 102.13C464.09 102.13 471.072 95.1472 471.072 86.5337C471.072 77.9201 464.09 70.9375 455.476 70.9375C446.863 70.9375 439.88 77.9201 439.88 86.5337C439.88 95.1472 446.863 102.13 455.476 102.13Z" fill="black"/>
<path d="M486.669 133.322C495.282 133.322 502.265 126.34 502.265 117.726C502.265 109.113 495.282 102.13 486.669 102.13C478.055 102.13 471.072 109.113 471.072 117.726C471.072 126.34 478.055 133.322 486.669 133.322Z" fill="black"/>
<path d="M455.476 133.322C464.09 133.322 471.072 126.34 471.072 117.726C471.072 109.113 464.09 102.13 455.476 102.13C446.863 102.13 439.88 109.113 439.88 117.726C439.88 126.34 446.863 133.322 455.476 133.322Z" fill="black"/>
<path d="M611.689 102.13C620.302 102.13 627.285 95.1472 627.285 86.5337C627.285 77.9201 620.302 70.9375 611.689 70.9375C603.075 70.9375 596.093 77.9201 596.093 86.5337C596.093 95.1472 603.075 102.13 611.689 102.13Z" fill="black"/>
<path d="M674.158 102.13C682.771 102.13 689.754 95.1472 689.754 86.5337C689.754 77.9201 682.771 70.9375 674.158 70.9375C665.544 70.9375 658.562 77.9201 658.562 86.5337C658.562 95.1472 665.544 102.13 674.158 102.13Z" fill="black"/>
<path d="M611.689 133.322C620.302 133.322 627.285 126.34 627.285 117.726C627.285 109.113 620.302 102.13 611.689 102.13C603.075 102.13 596.093 109.113 596.093 117.726C596.093 126.34 603.075 133.322 611.689 133.322Z" fill="black"/>
<path d="M642.965 102.13C651.579 102.13 658.562 95.1472 658.562 86.5337C658.562 77.9201 651.579 70.9375 642.965 70.9375C634.352 70.9375 627.369 77.9201 627.369 86.5337C627.369 95.1472 634.352 102.13 642.965 102.13Z" fill="black"/>
<path d="M674.158 133.322C682.771 133.322 689.754 126.34 689.754 117.726C689.754 109.113 682.771 102.13 674.158 102.13C665.544 102.13 658.562 109.113 658.562 117.726C658.562 126.34 665.544 133.322 674.158 133.322Z" fill="black"/>
<path d="M642.965 133.322C651.579 133.322 658.562 126.34 658.562 117.726C658.562 109.113 651.579 102.13 642.965 102.13C634.352 102.13 627.369 109.113 627.369 117.726C627.369 126.34 634.352 133.322 642.965 133.322Z" fill="black"/>
<path d="M392.923 39.5771C401.537 39.5771 408.52 32.5945 408.52 23.9809C408.52 15.3674 401.537 8.38477 392.923 8.38477C384.31 8.38477 377.327 15.3674 377.327 23.9809C377.327 32.5945 384.31 39.5771 392.923 39.5771Z" fill="black"/>
<path d="M455.476 39.5771C464.09 39.5771 471.072 32.5945 471.072 23.9809C471.072 15.3674 464.09 8.38477 455.476 8.38477C446.863 8.38477 439.88 15.3674 439.88 23.9809C439.88 32.5945 446.863 39.5771 455.476 39.5771Z" fill="black"/>
<path d="M392.923 70.8534C401.537 70.8534 408.52 63.8708 408.52 55.2572C408.52 46.6437 401.537 39.6611 392.923 39.6611C384.31 39.6611 377.327 46.6437 377.327 55.2572C377.327 63.8708 384.31 70.8534 392.923 70.8534Z" fill="black"/>
<path d="M424.2 39.5771C432.813 39.5771 439.796 32.5945 439.796 23.9809C439.796 15.3674 432.813 8.38477 424.2 8.38477C415.586 8.38477 408.604 15.3674 408.604 23.9809C408.604 32.5945 415.586 39.5771 424.2 39.5771Z" fill="black"/>
<path d="M455.476 70.8534C464.09 70.8534 471.072 63.8708 471.072 55.2572C471.072 46.6437 464.09 39.6611 455.476 39.6611C446.863 39.6611 439.88 46.6437 439.88 55.2572C439.88 63.8708 446.863 70.8534 455.476 70.8534Z" fill="black"/>
<path d="M424.2 70.8534C432.813 70.8534 439.796 63.8708 439.796 55.2572C439.796 46.6437 432.813 39.6611 424.2 39.6611C415.586 39.6611 408.604 46.6437 408.604 55.2572C408.604 63.8708 415.586 70.8534 424.2 70.8534Z" fill="black"/>
<path d="M642.965 39.5771C651.579 39.5771 658.562 32.5945 658.562 23.9809C658.562 15.3674 651.579 8.38477 642.965 8.38477C634.352 8.38477 627.369 15.3674 627.369 23.9809C627.369 32.5945 634.352 39.5771 642.965 39.5771Z" fill="black"/>
<path d="M705.434 39.5771C714.048 39.5771 721.03 32.5945 721.03 23.9809C721.03 15.3674 714.048 8.38477 705.434 8.38477C696.821 8.38477 689.838 15.3674 689.838 23.9809C689.838 32.5945 696.821 39.5771 705.434 39.5771Z" fill="black"/>
<path d="M642.965 70.8534C651.579 70.8534 658.562 63.8708 658.562 55.2572C658.562 46.6437 651.579 39.6611 642.965 39.6611C634.352 39.6611 627.369 46.6437 627.369 55.2572C627.369 63.8708 634.352 70.8534 642.965 70.8534Z" fill="black"/>
<path d="M674.158 39.5771C682.771 39.5771 689.754 32.5945 689.754 23.9809C689.754 15.3674 682.771 8.38477 674.158 8.38477C665.544 8.38477 658.562 15.3674 658.562 23.9809C658.562 32.5945 665.544 39.5771 674.158 39.5771Z" fill="black"/>
<path d="M705.434 70.8534C714.048 70.8534 721.03 63.8708 721.03 55.2572C721.03 46.6437 714.048 39.6611 705.434 39.6611C696.821 39.6611 689.838 46.6437 689.838 55.2572C689.838 63.8708 696.821 70.8534 705.434 70.8534Z" fill="black"/>
<path d="M674.158 70.8534C682.771 70.8534 689.754 63.8708 689.754 55.2572C689.754 46.6437 682.771 39.6611 674.158 39.6611C665.544 39.6611 658.562 46.6437 658.562 55.2572C658.562 63.8708 665.544 70.8534 674.158 70.8534Z" fill="black"/>
</svg>
