<svg width="732" height="512" viewBox="0 0 732 512" fill="none" xmlns="http://www.w3.org/2000/svg">
<path d="M159.298 18.5962C159.298 27.2328 152.254 34.1924 143.618 34.1924C134.981 34.1924 128.021 41.2358 128.021 49.8723C128.021 58.5089 121.062 65.4685 112.425 65.4685C103.789 65.4685 96.7451 58.5089 96.7451 49.8723C96.7451 41.2358 103.789 34.1924 112.425 34.1924C121.062 34.1924 128.021 27.2328 128.021 18.5962C128.021 9.95959 134.981 3 143.618 3C152.254 3 159.298 9.95959 159.298 18.5962Z" stroke="black" stroke-width="5" stroke-miterlimit="10"/>
<path d="M65.5523 81.0649C65.5523 89.7015 58.5089 96.745 49.8723 96.745C41.2358 96.745 34.2762 103.705 34.2762 112.341C34.2762 120.978 27.3166 127.937 18.68 127.937C10.0434 127.937 3 120.978 3 112.341C3 103.705 10.0434 96.745 18.68 96.745C27.3166 96.745 34.2762 89.7015 34.2762 81.0649C34.2762 72.4283 41.2358 65.4688 49.8723 65.4688C58.5089 65.4688 65.5523 72.4283 65.5523 81.0649Z" stroke="black" stroke-width="5" stroke-miterlimit="10"/>
<path d="M128.021 81.0645V81.3999C128.021 89.5334 121.732 96.2415 113.766 96.9123H113.599C113.599 96.9123 112.844 96.7445 112.425 96.7445C112.006 96.7445 111.67 96.7446 111.251 96.9123H111.083C103.034 97.4992 96.7447 104.123 96.7447 112.341C96.7447 120.977 89.7851 127.937 81.1485 127.937C72.5119 127.937 65.5523 134.98 65.5523 143.617C65.5523 152.253 58.5089 159.213 49.8723 159.213C41.2358 159.213 34.2762 166.173 34.2762 174.809C34.2762 183.446 27.3166 190.489 18.68 190.489C10.0434 190.489 3 183.446 3 174.809C3 166.173 10.0434 159.213 18.68 159.213C27.3166 159.213 34.2762 152.253 34.2762 143.617C34.2762 134.98 41.2358 127.937 49.8723 127.937C58.5089 127.937 65.5523 120.977 65.5523 112.341C65.5523 103.704 72.5119 96.7445 81.1485 96.7445C89.7851 96.7445 96.577 89.8688 96.7447 81.3999V81.0645C96.9124 72.5956 103.872 65.8037 112.425 65.8037C120.978 65.8037 127.853 72.5956 128.021 81.0645Z" stroke="black" stroke-width="5" stroke-miterlimit="10"/>
<path d="M96.7447 174.809C96.7447 183.446 89.7851 190.489 81.1485 190.489C72.5119 190.489 65.5523 197.449 65.5523 206.085C65.5523 214.722 58.5089 221.681 49.8723 221.681C41.2358 221.681 34.2762 228.725 34.2762 237.362C34.2762 245.998 27.3166 252.958 18.68 252.958C10.0434 252.958 3 245.998 3 237.362C3 228.725 10.0434 221.681 18.68 221.681C27.3166 221.681 34.2762 214.722 34.2762 206.085C34.2762 197.449 41.2358 190.489 49.8723 190.489C58.5089 190.489 65.5523 183.446 65.5523 174.809C65.5523 166.172 72.5119 159.213 81.1485 159.213C89.7851 159.213 96.7447 166.172 96.7447 174.809Z" stroke="black" stroke-width="5" stroke-miterlimit="10"/>
<path d="M221.765 18.5962C221.765 27.2328 214.806 34.1924 206.169 34.1924C197.532 34.1924 190.489 41.2358 190.489 49.8723C190.489 58.5089 183.529 65.4685 174.893 65.4685C166.256 65.4685 159.297 72.4281 159.297 81.0647C159.297 89.7013 152.253 96.7448 143.617 96.7448C134.98 96.7448 128.188 89.869 128.021 81.4001V81.0647C128.021 72.4281 134.98 65.4685 143.617 65.4685C152.253 65.4685 159.297 58.5089 159.297 49.8723C159.297 41.2358 166.256 34.1924 174.893 34.1924C183.529 34.1924 190.489 27.2328 190.489 18.5962C190.489 9.95959 197.532 3 206.169 3C214.806 3 221.765 9.95959 221.765 18.5962Z" stroke="black" stroke-width="5" stroke-miterlimit="10"/>
<path d="M284.234 18.5962C284.234 27.2328 277.274 34.1924 268.638 34.1924C260.001 34.1924 253.042 41.2358 253.042 49.8723C253.042 58.5089 245.998 65.4685 237.362 65.4685C228.725 65.4685 221.765 72.4281 221.765 81.0647C221.765 89.7013 214.806 96.7448 206.169 96.7448C197.533 96.7448 190.489 89.7013 190.489 81.0647C190.489 72.4281 197.533 65.4685 206.169 65.4685C214.806 65.4685 221.765 58.5089 221.765 49.8723C221.765 41.2358 228.725 34.1924 237.362 34.1924C245.998 34.1924 253.042 27.2328 253.042 18.5962C253.042 9.95959 260.001 3 268.638 3C277.274 3 284.234 9.95959 284.234 18.5962Z" stroke="black" stroke-width="5" stroke-miterlimit="10"/>
<path d="M315.511 49.8724C315.511 58.509 308.551 65.4685 299.914 65.4685C291.278 65.4685 284.234 72.4281 284.234 81.0647C284.234 89.7013 277.275 96.7448 268.638 96.7448C260.002 96.7448 253.042 89.7013 253.042 81.0647C253.042 72.4281 260.002 65.4685 268.638 65.4685C277.275 65.4685 284.234 58.509 284.234 49.8724C284.234 41.2358 291.278 34.1924 299.914 34.1924C308.551 34.1924 315.511 41.2358 315.511 49.8724Z" stroke="black" stroke-width="5" stroke-miterlimit="10"/>
<path d="M346.787 81.0649C346.787 89.7015 339.743 96.745 331.107 96.745C322.47 96.745 315.511 103.705 315.511 112.341C315.511 120.978 308.551 127.937 299.914 127.937C291.278 127.937 284.234 120.978 284.234 112.341C284.234 103.705 291.278 96.745 299.914 96.745C308.551 96.745 315.511 89.7015 315.511 81.0649C315.511 72.4283 322.554 65.4688 331.107 65.4688C339.66 65.4688 346.787 72.4283 346.787 81.0649Z" stroke="black" stroke-width="5" stroke-miterlimit="10"/>
<path d="M377.979 112.341C377.979 120.978 371.02 127.937 362.383 127.937C353.747 127.937 346.787 134.981 346.787 143.617C346.787 152.254 339.744 159.214 331.107 159.214C322.47 159.214 315.511 152.254 315.511 143.617C315.511 134.981 322.554 127.937 331.107 127.937C339.66 127.937 346.787 120.978 346.787 112.341C346.787 103.705 353.747 96.7451 362.383 96.7451C371.02 96.7451 377.979 103.705 377.979 112.341Z" stroke="black" stroke-width="5" stroke-miterlimit="10"/>
<path d="M362.383 190.741C370.997 190.741 377.979 183.759 377.979 175.145C377.979 166.531 370.997 159.549 362.383 159.549C353.77 159.549 346.787 166.531 346.787 175.145C346.787 183.759 353.77 190.741 362.383 190.741Z" stroke="black" stroke-width="5" stroke-miterlimit="10"/>
<path d="M221.765 424.851C221.765 433.488 214.806 440.447 206.169 440.447C197.532 440.447 190.489 447.491 190.489 456.127C190.489 464.764 183.529 471.723 174.893 471.723C166.256 471.723 159.297 478.683 159.297 487.32C159.297 495.956 152.253 503 143.617 503C134.98 503 128.021 495.956 128.021 487.32C128.021 478.683 134.98 471.723 143.617 471.723C152.253 471.723 159.297 464.68 159.297 456.127C159.297 447.574 166.256 440.447 174.893 440.447C183.529 440.447 190.489 433.488 190.489 424.851C190.489 416.214 197.532 409.255 206.169 409.255C214.806 409.255 221.765 416.214 221.765 424.851Z" stroke="black" stroke-width="5" stroke-miterlimit="10"/>
<path d="M96.7447 362.299C96.7447 370.936 89.7851 377.979 81.1485 377.979C72.5119 377.979 65.5523 384.939 65.5523 393.575C65.5523 402.212 58.5089 409.256 49.8723 409.256C41.2358 409.256 34.2762 416.215 34.2762 424.852C34.2762 433.488 27.3166 440.448 18.68 440.448C10.0434 440.448 3 433.488 3 424.852C3 416.215 10.0434 409.256 18.68 409.256C27.3166 409.256 34.2762 402.212 34.2762 393.575C34.2762 384.939 41.2358 377.979 49.8723 377.979C58.5089 377.979 65.5523 370.936 65.5523 362.299C65.5523 353.663 72.5119 346.703 81.1485 346.703C89.7851 346.703 96.7447 353.747 96.7447 362.299Z" stroke="black" stroke-width="5" stroke-miterlimit="10"/>
<path d="M128.021 393.575C128.021 401.708 121.9 408.332 114.018 409.087C113.515 408.919 112.928 408.919 112.425 408.919C111.922 408.919 111.335 408.919 110.832 409.087C102.95 409.758 96.7451 416.382 96.7451 424.516V424.851C96.7451 433.488 89.7855 440.447 81.1489 440.447C72.5123 440.447 65.5527 433.488 65.5527 424.851C65.5527 416.214 72.5123 409.255 81.1489 409.255C89.7855 409.255 96.7451 402.211 96.7451 393.575C96.7451 384.938 103.789 377.979 112.425 377.979C121.062 377.979 128.021 384.938 128.021 393.575Z" stroke="black" stroke-width="5" stroke-miterlimit="10"/>
<path d="M96.7447 299.831C96.7447 308.467 89.7851 315.427 81.1485 315.427C72.5119 315.427 65.5523 322.47 65.5523 331.107C65.5523 339.743 58.5089 346.703 49.8723 346.703C41.2358 346.703 34.2762 353.746 34.2762 362.299C34.2762 370.852 27.3166 377.979 18.68 377.979C10.0434 377.979 3 370.936 3 362.299C3 353.662 10.0434 346.703 18.68 346.703C27.3166 346.703 34.2762 339.743 34.2762 331.107C34.2762 322.47 41.2358 315.427 49.8723 315.427C58.5089 315.427 65.5523 308.467 65.5523 299.831C65.5523 291.194 72.5119 284.234 81.1485 284.234C89.7851 284.234 96.7447 291.194 96.7447 299.831Z" stroke="black" stroke-width="5" stroke-miterlimit="10"/>
<path d="M96.7447 237.362C96.7447 245.998 89.7851 252.958 81.1485 252.958C72.5119 252.958 65.5523 260.001 65.5523 268.554C65.5523 277.107 58.5089 284.234 49.8723 284.234C41.2358 284.234 34.2762 291.194 34.2762 299.83C34.2762 308.467 27.3166 315.426 18.68 315.426C10.0434 315.426 3 308.467 3 299.83C3 291.194 10.0434 284.234 18.68 284.234C27.3166 284.234 34.2762 277.191 34.2762 268.554C34.2762 259.918 41.2358 252.958 49.8723 252.958C58.5089 252.958 65.5523 245.998 65.5523 237.362C65.5523 228.725 72.5119 221.682 81.1485 221.682C89.7851 221.682 96.7447 228.725 96.7447 237.362Z" stroke="black" stroke-width="5" stroke-miterlimit="10"/>
<path d="M284.234 424.851C284.234 433.488 277.274 440.447 268.638 440.447C260.001 440.447 253.042 447.491 253.042 456.127C253.042 464.764 245.998 471.723 237.362 471.723C228.725 471.723 221.765 478.683 221.765 487.32C221.765 495.956 214.806 503 206.169 503C197.533 503 190.489 495.956 190.489 487.32C190.489 478.683 197.533 471.723 206.169 471.723C214.806 471.723 221.765 464.68 221.765 456.127C221.765 447.574 228.725 440.447 237.362 440.447C245.998 440.447 253.042 433.488 253.042 424.851C253.042 416.214 260.001 409.255 268.638 409.255C277.274 409.255 284.234 416.214 284.234 424.851Z" stroke="black" stroke-width="5" stroke-miterlimit="10"/>
<path d="M346.787 424.851C346.787 433.488 339.743 440.447 331.107 440.447C322.47 440.447 315.511 447.491 315.511 456.127C315.511 464.764 308.551 471.723 299.914 471.723C291.278 471.723 284.234 478.683 284.234 487.32C284.234 495.956 277.275 503 268.638 503C260.002 503 253.042 495.956 253.042 487.32C253.042 478.683 260.002 471.723 268.638 471.723C277.275 471.723 284.234 464.68 284.234 456.127C284.234 447.574 291.278 440.447 299.914 440.447C308.551 440.447 315.511 433.488 315.511 424.851C315.511 416.214 322.554 409.255 331.107 409.255C339.66 409.255 346.787 416.214 346.787 424.851Z" stroke="black" stroke-width="5" stroke-miterlimit="10"/>
<path d="M377.979 362.299C377.979 370.936 371.02 377.979 362.383 377.979C353.747 377.979 346.787 384.939 346.787 393.575C346.787 402.212 339.744 409.256 331.107 409.256C322.47 409.256 315.511 402.212 315.511 393.575C315.511 384.939 322.554 377.979 331.107 377.979C339.66 377.979 346.787 370.936 346.787 362.299C346.787 353.663 353.747 346.703 362.383 346.703C371.02 346.703 377.979 353.747 377.979 362.299Z" stroke="black" stroke-width="5" stroke-miterlimit="10"/>
<path d="M299.831 346.367C308.444 346.367 315.427 339.385 315.427 330.771C315.427 322.157 308.444 315.175 299.831 315.175C291.217 315.175 284.234 322.157 284.234 330.771C284.234 339.385 291.217 346.367 299.831 346.367Z" stroke="black" stroke-width="5" stroke-miterlimit="10"/>
<path d="M159.214 424.851C159.214 433.488 152.254 440.447 143.617 440.447C134.981 440.447 127.937 447.491 127.937 456.127C127.937 464.764 120.978 471.723 112.341 471.723C103.705 471.723 96.7449 478.683 96.7449 487.32C96.7449 495.956 89.7015 503 81.0649 503C72.4283 503 65.4688 495.956 65.4688 487.32C65.4688 478.683 72.4283 471.723 81.0649 471.723C89.7015 471.723 96.7449 464.68 96.7449 456.127C96.7449 447.574 103.705 440.447 112.341 440.447C120.978 440.447 127.937 433.488 127.937 424.851C127.937 416.214 134.981 409.255 143.617 409.255C152.254 409.255 159.214 416.214 159.214 424.851Z" stroke="black" stroke-width="5" stroke-miterlimit="10"/>
<path d="M458.476 167.598C467.09 167.598 474.072 160.615 474.072 152.001C474.072 143.388 467.09 136.405 458.476 136.405C449.863 136.405 442.88 143.388 442.88 152.001C442.88 160.615 449.863 167.598 458.476 167.598Z" fill="black"/>
<path d="M583.413 167.598C592.026 167.598 599.009 160.615 599.009 152.001C599.009 143.388 592.026 136.405 583.413 136.405C574.799 136.405 567.816 143.388 567.816 152.001C567.816 160.615 574.799 167.598 583.413 167.598Z" fill="black"/>
<path d="M645.965 167.598C654.579 167.598 661.562 160.615 661.562 152.001C661.562 143.388 654.579 136.405 645.965 136.405C637.352 136.405 630.369 143.388 630.369 152.001C630.369 160.615 637.352 167.598 645.965 167.598Z" fill="black"/>
<path d="M520.944 167.598C529.557 167.598 536.54 160.615 536.54 152.001C536.54 143.388 529.557 136.405 520.944 136.405C512.33 136.405 505.348 143.388 505.348 152.001C505.348 160.615 512.33 167.598 520.944 167.598Z" fill="black"/>
<path d="M458.476 198.874C467.09 198.874 474.072 191.891 474.072 183.278C474.072 174.664 467.09 167.682 458.476 167.682C449.863 167.682 442.88 174.664 442.88 183.278C442.88 191.891 449.863 198.874 458.476 198.874Z" fill="black"/>
<path d="M489.669 167.598C498.282 167.598 505.265 160.615 505.265 152.001C505.265 143.388 498.282 136.405 489.669 136.405C481.055 136.405 474.072 143.388 474.072 152.001C474.072 160.615 481.055 167.598 489.669 167.598Z" fill="black"/>
<path d="M645.965 198.874C654.579 198.874 661.562 191.891 661.562 183.278C661.562 174.664 654.579 167.682 645.965 167.682C637.352 167.682 630.369 174.664 630.369 183.278C630.369 191.891 637.352 198.874 645.965 198.874Z" fill="black"/>
<path d="M520.944 198.874C529.557 198.874 536.54 191.891 536.54 183.278C536.54 174.664 529.557 167.682 520.944 167.682C512.33 167.682 505.348 174.664 505.348 183.278C505.348 191.891 512.33 198.874 520.944 198.874Z" fill="black"/>
<path d="M614.689 198.874C623.302 198.874 630.285 191.891 630.285 183.278C630.285 174.664 623.302 167.682 614.689 167.682C606.075 167.682 599.093 174.664 599.093 183.278C599.093 191.891 606.075 198.874 614.689 198.874Z" fill="black"/>
<path d="M614.689 167.598C623.302 167.598 630.285 160.615 630.285 152.001C630.285 143.388 623.302 136.405 614.689 136.405C606.075 136.405 599.093 143.388 599.093 152.001C599.093 160.615 606.075 167.598 614.689 167.598Z" fill="black"/>
<path d="M489.669 230.066C498.282 230.066 505.265 223.084 505.265 214.47C505.265 205.857 498.282 198.874 489.669 198.874C481.055 198.874 474.072 205.857 474.072 214.47C474.072 223.084 481.055 230.066 489.669 230.066Z" fill="black"/>
<path d="M489.669 198.874C498.282 198.874 505.265 191.891 505.265 183.278C505.265 174.664 498.282 167.682 489.669 167.682C481.055 167.682 474.072 174.664 474.072 183.278C474.072 191.891 481.055 198.874 489.669 198.874Z" fill="black"/>
<path d="M583.413 198.874C592.026 198.874 599.009 191.891 599.009 183.278C599.009 174.664 592.026 167.682 583.413 167.682C574.799 167.682 567.816 174.664 567.816 183.278C567.816 191.891 574.799 198.874 583.413 198.874Z" fill="black"/>
<path d="M614.689 261.343C623.302 261.343 630.285 254.36 630.285 245.747C630.285 237.133 623.302 230.15 614.689 230.15C606.075 230.15 599.093 237.133 599.093 245.747C599.093 254.36 606.075 261.343 614.689 261.343Z" fill="black"/>
<path d="M489.669 261.343C498.282 261.343 505.265 254.36 505.265 245.747C505.265 237.133 498.282 230.15 489.669 230.15C481.055 230.15 474.072 237.133 474.072 245.747C474.072 254.36 481.055 261.343 489.669 261.343Z" fill="black"/>
<path d="M614.689 230.066C623.302 230.066 630.285 223.084 630.285 214.47C630.285 205.857 623.302 198.874 614.689 198.874C606.075 198.874 599.093 205.857 599.093 214.47C599.093 223.084 606.075 230.066 614.689 230.066Z" fill="black"/>
<path d="M520.944 230.066C529.557 230.066 536.54 223.084 536.54 214.47C536.54 205.857 529.557 198.874 520.944 198.874C512.33 198.874 505.348 205.857 505.348 214.47C505.348 223.084 512.33 230.066 520.944 230.066Z" fill="black"/>
<path d="M552.22 230.066C560.834 230.066 567.816 223.084 567.816 214.47C567.816 205.857 560.834 198.874 552.22 198.874C543.607 198.874 536.624 205.857 536.624 214.47C536.624 223.084 543.607 230.066 552.22 230.066Z" fill="black"/>
<path d="M583.413 230.066C592.026 230.066 599.009 223.084 599.009 214.47C599.009 205.857 592.026 198.874 583.413 198.874C574.799 198.874 567.816 205.857 567.816 214.47C567.816 223.084 574.799 230.066 583.413 230.066Z" fill="black"/>
<path d="M520.944 261.343C529.557 261.343 536.54 254.36 536.54 245.747C536.54 237.133 529.557 230.15 520.944 230.15C512.33 230.15 505.348 237.133 505.348 245.747C505.348 254.36 512.33 261.343 520.944 261.343Z" fill="black"/>
<path d="M552.22 261.343C560.834 261.343 567.816 254.36 567.816 245.747C567.816 237.133 560.834 230.15 552.22 230.15C543.607 230.15 536.624 237.133 536.624 245.747C536.624 254.36 543.607 261.343 552.22 261.343Z" fill="black"/>
<path d="M583.413 261.343C592.026 261.343 599.009 254.36 599.009 245.747C599.009 237.133 592.026 230.15 583.413 230.15C574.799 230.15 567.816 237.133 567.816 245.747C567.816 254.36 574.799 261.343 583.413 261.343Z" fill="black"/>
<path d="M520.944 292.619C529.557 292.619 536.54 285.636 536.54 277.023C536.54 268.409 529.557 261.427 520.944 261.427C512.33 261.427 505.348 268.409 505.348 277.023C505.348 285.636 512.33 292.619 520.944 292.619Z" fill="black"/>
<path d="M552.22 292.619C560.834 292.619 567.816 285.636 567.816 277.023C567.816 268.409 560.834 261.427 552.22 261.427C543.607 261.427 536.624 268.409 536.624 277.023C536.624 285.636 543.607 292.619 552.22 292.619Z" fill="black"/>
<path d="M583.413 292.619C592.026 292.619 599.009 285.636 599.009 277.023C599.009 268.409 592.026 261.427 583.413 261.427C574.799 261.427 567.816 268.409 567.816 277.023C567.816 285.636 574.799 292.619 583.413 292.619Z" fill="black"/>
<path d="M520.944 323.811C529.557 323.811 536.54 316.829 536.54 308.215C536.54 299.602 529.557 292.619 520.944 292.619C512.33 292.619 505.348 299.602 505.348 308.215C505.348 316.829 512.33 323.811 520.944 323.811Z" fill="black"/>
<path d="M552.22 323.811C560.834 323.811 567.816 316.829 567.816 308.215C567.816 299.602 560.834 292.619 552.22 292.619C543.607 292.619 536.624 299.602 536.624 308.215C536.624 316.829 543.607 323.811 552.22 323.811Z" fill="black"/>
<path d="M583.413 323.811C592.026 323.811 599.009 316.829 599.009 308.215C599.009 299.602 592.026 292.619 583.413 292.619C574.799 292.619 567.816 299.602 567.816 308.215C567.816 316.829 574.799 323.811 583.413 323.811Z" fill="black"/>
<path d="M520.944 355.088C529.557 355.088 536.54 348.105 536.54 339.492C536.54 330.878 529.557 323.896 520.944 323.896C512.33 323.896 505.348 330.878 505.348 339.492C505.348 348.105 512.33 355.088 520.944 355.088Z" fill="black"/>
<path d="M552.22 355.088C560.834 355.088 567.816 348.105 567.816 339.492C567.816 330.878 560.834 323.896 552.22 323.896C543.607 323.896 536.624 330.878 536.624 339.492C536.624 348.105 543.607 355.088 552.22 355.088Z" fill="black"/>
<path d="M583.413 355.088C592.026 355.088 599.009 348.105 599.009 339.492C599.009 330.878 592.026 323.896 583.413 323.896C574.799 323.896 567.816 330.878 567.816 339.492C567.816 348.105 574.799 355.088 583.413 355.088Z" fill="black"/>
<path d="M520.944 386.364C529.557 386.364 536.54 379.382 536.54 370.768C536.54 362.155 529.557 355.172 520.944 355.172C512.33 355.172 505.348 362.155 505.348 370.768C505.348 379.382 512.33 386.364 520.944 386.364Z" fill="black"/>
<path d="M552.22 386.364C560.834 386.364 567.816 379.382 567.816 370.768C567.816 362.155 560.834 355.172 552.22 355.172C543.607 355.172 536.624 362.155 536.624 370.768C536.624 379.382 543.607 386.364 552.22 386.364Z" fill="black"/>
<path d="M583.413 386.364C592.026 386.364 599.009 379.382 599.009 370.768C599.009 362.155 592.026 355.172 583.413 355.172C574.799 355.172 567.816 362.155 567.816 370.768C567.816 379.382 574.799 386.364 583.413 386.364Z" fill="black"/>
<path d="M520.944 417.556C529.557 417.556 536.54 410.573 536.54 401.959C536.54 393.346 529.557 386.363 520.944 386.363C512.33 386.363 505.348 393.346 505.348 401.959C505.348 410.573 512.33 417.556 520.944 417.556Z" fill="black"/>
<path d="M552.22 417.556C560.834 417.556 567.816 410.573 567.816 401.959C567.816 393.346 560.834 386.363 552.22 386.363C543.607 386.363 536.624 393.346 536.624 401.959C536.624 410.573 543.607 417.556 552.22 417.556Z" fill="black"/>
<path d="M583.413 417.556C592.026 417.556 599.009 410.573 599.009 401.959C599.009 393.346 592.026 386.363 583.413 386.363C574.799 386.363 567.816 393.346 567.816 401.959C567.816 410.573 574.799 417.556 583.413 417.556Z" fill="black"/>
<path d="M520.944 448.832C529.557 448.832 536.54 441.849 536.54 433.236C536.54 424.622 529.557 417.64 520.944 417.64C512.33 417.64 505.348 424.622 505.348 433.236C505.348 441.849 512.33 448.832 520.944 448.832Z" fill="black"/>
<path d="M552.22 448.832C560.834 448.832 567.816 441.849 567.816 433.236C567.816 424.622 560.834 417.64 552.22 417.64C543.607 417.64 536.624 424.622 536.624 433.236C536.624 441.849 543.607 448.832 552.22 448.832Z" fill="black"/>
<path d="M583.413 448.832C592.026 448.832 599.009 441.849 599.009 433.236C599.009 424.622 592.026 417.64 583.413 417.64C574.799 417.64 567.816 424.622 567.816 433.236C567.816 441.849 574.799 448.832 583.413 448.832Z" fill="black"/>
<path d="M520.944 480.108C529.557 480.108 536.54 473.126 536.54 464.512C536.54 455.899 529.557 448.916 520.944 448.916C512.33 448.916 505.348 455.899 505.348 464.512C505.348 473.126 512.33 480.108 520.944 480.108Z" fill="black"/>
<path d="M552.22 480.108C560.834 480.108 567.816 473.126 567.816 464.512C567.816 455.899 560.834 448.916 552.22 448.916C543.607 448.916 536.624 455.899 536.624 464.512C536.624 473.126 543.607 480.108 552.22 480.108Z" fill="black"/>
<path d="M583.413 480.108C592.026 480.108 599.009 473.126 599.009 464.512C599.009 455.899 592.026 448.916 583.413 448.916C574.799 448.916 567.816 455.899 567.816 464.512C567.816 473.126 574.799 480.108 583.413 480.108Z" fill="black"/>
<path d="M520.944 511.385C529.557 511.385 536.54 504.402 536.54 495.789C536.54 487.175 529.557 480.192 520.944 480.192C512.33 480.192 505.348 487.175 505.348 495.789C505.348 504.402 512.33 511.385 520.944 511.385Z" fill="black"/>
<path d="M552.22 511.385C560.834 511.385 567.816 504.402 567.816 495.789C567.816 487.175 560.834 480.192 552.22 480.192C543.607 480.192 536.624 487.175 536.624 495.789C536.624 504.402 543.607 511.385 552.22 511.385Z" fill="black"/>
<path d="M583.413 511.385C592.026 511.385 599.009 504.402 599.009 495.789C599.009 487.175 592.026 480.192 583.413 480.192C574.799 480.192 567.816 487.175 567.816 495.789C567.816 504.402 574.799 511.385 583.413 511.385Z" fill="black"/>
<path d="M427.2 105.13C435.813 105.13 442.796 98.1472 442.796 89.5337C442.796 80.9201 435.813 73.9375 427.2 73.9375C418.586 73.9375 411.604 80.9201 411.604 89.5337C411.604 98.1472 418.586 105.13 427.2 105.13Z" fill="black"/>
<path d="M489.669 105.13C498.282 105.13 505.265 98.1472 505.265 89.5337C505.265 80.9201 498.282 73.9375 489.669 73.9375C481.055 73.9375 474.072 80.9201 474.072 89.5337C474.072 98.1472 481.055 105.13 489.669 105.13Z" fill="black"/>
<path d="M427.2 136.322C435.813 136.322 442.796 129.34 442.796 120.726C442.796 112.113 435.813 105.13 427.2 105.13C418.586 105.13 411.604 112.113 411.604 120.726C411.604 129.34 418.586 136.322 427.2 136.322Z" fill="black"/>
<path d="M458.476 105.13C467.09 105.13 474.072 98.1472 474.072 89.5337C474.072 80.9201 467.09 73.9375 458.476 73.9375C449.863 73.9375 442.88 80.9201 442.88 89.5337C442.88 98.1472 449.863 105.13 458.476 105.13Z" fill="black"/>
<path d="M489.669 136.322C498.282 136.322 505.265 129.34 505.265 120.726C505.265 112.113 498.282 105.13 489.669 105.13C481.055 105.13 474.072 112.113 474.072 120.726C474.072 129.34 481.055 136.322 489.669 136.322Z" fill="black"/>
<path d="M458.476 136.322C467.09 136.322 474.072 129.34 474.072 120.726C474.072 112.113 467.09 105.13 458.476 105.13C449.863 105.13 442.88 112.113 442.88 120.726C442.88 129.34 449.863 136.322 458.476 136.322Z" fill="black"/>
<path d="M614.689 105.13C623.302 105.13 630.285 98.1472 630.285 89.5337C630.285 80.9201 623.302 73.9375 614.689 73.9375C606.075 73.9375 599.093 80.9201 599.093 89.5337C599.093 98.1472 606.075 105.13 614.689 105.13Z" fill="black"/>
<path d="M677.158 105.13C685.771 105.13 692.754 98.1472 692.754 89.5337C692.754 80.9201 685.771 73.9375 677.158 73.9375C668.544 73.9375 661.562 80.9201 661.562 89.5337C661.562 98.1472 668.544 105.13 677.158 105.13Z" fill="black"/>
<path d="M614.689 136.322C623.302 136.322 630.285 129.34 630.285 120.726C630.285 112.113 623.302 105.13 614.689 105.13C606.075 105.13 599.093 112.113 599.093 120.726C599.093 129.34 606.075 136.322 614.689 136.322Z" fill="black"/>
<path d="M645.965 105.13C654.579 105.13 661.562 98.1472 661.562 89.5337C661.562 80.9201 654.579 73.9375 645.965 73.9375C637.352 73.9375 630.369 80.9201 630.369 89.5337C630.369 98.1472 637.352 105.13 645.965 105.13Z" fill="black"/>
<path d="M677.158 136.322C685.771 136.322 692.754 129.34 692.754 120.726C692.754 112.113 685.771 105.13 677.158 105.13C668.544 105.13 661.562 112.113 661.562 120.726C661.562 129.34 668.544 136.322 677.158 136.322Z" fill="black"/>
<path d="M645.965 136.322C654.579 136.322 661.562 129.34 661.562 120.726C661.562 112.113 654.579 105.13 645.965 105.13C637.352 105.13 630.369 112.113 630.369 120.726C630.369 129.34 637.352 136.322 645.965 136.322Z" fill="black"/>
<path d="M395.923 42.5771C404.537 42.5771 411.52 35.5945 411.52 26.9809C411.52 18.3674 404.537 11.3848 395.923 11.3848C387.31 11.3848 380.327 18.3674 380.327 26.9809C380.327 35.5945 387.31 42.5771 395.923 42.5771Z" fill="black"/>
<path d="M458.476 42.5771C467.09 42.5771 474.072 35.5945 474.072 26.9809C474.072 18.3674 467.09 11.3848 458.476 11.3848C449.863 11.3848 442.88 18.3674 442.88 26.9809C442.88 35.5945 449.863 42.5771 458.476 42.5771Z" fill="black"/>
<path d="M395.923 73.8534C404.537 73.8534 411.52 66.8708 411.52 58.2572C411.52 49.6437 404.537 42.6611 395.923 42.6611C387.31 42.6611 380.327 49.6437 380.327 58.2572C380.327 66.8708 387.31 73.8534 395.923 73.8534Z" fill="black"/>
<path d="M427.2 42.5771C435.813 42.5771 442.796 35.5945 442.796 26.9809C442.796 18.3674 435.813 11.3848 427.2 11.3848C418.586 11.3848 411.604 18.3674 411.604 26.9809C411.604 35.5945 418.586 42.5771 427.2 42.5771Z" fill="black"/>
<path d="M458.476 73.8534C467.09 73.8534 474.072 66.8708 474.072 58.2572C474.072 49.6437 467.09 42.6611 458.476 42.6611C449.863 42.6611 442.88 49.6437 442.88 58.2572C442.88 66.8708 449.863 73.8534 458.476 73.8534Z" fill="black"/>
<path d="M427.2 73.8534C435.813 73.8534 442.796 66.8708 442.796 58.2572C442.796 49.6437 435.813 42.6611 427.2 42.6611C418.586 42.6611 411.604 49.6437 411.604 58.2572C411.604 66.8708 418.586 73.8534 427.2 73.8534Z" fill="black"/>
<path d="M645.965 42.5771C654.579 42.5771 661.562 35.5945 661.562 26.9809C661.562 18.3674 654.579 11.3848 645.965 11.3848C637.352 11.3848 630.369 18.3674 630.369 26.9809C630.369 35.5945 637.352 42.5771 645.965 42.5771Z" fill="black"/>
<path d="M708.434 42.5771C717.048 42.5771 724.03 35.5945 724.03 26.9809C724.03 18.3674 717.048 11.3848 708.434 11.3848C699.821 11.3848 692.838 18.3674 692.838 26.9809C692.838 35.5945 699.821 42.5771 708.434 42.5771Z" fill="black"/>
<path d="M645.965 73.8534C654.579 73.8534 661.562 66.8708 661.562 58.2572C661.562 49.6437 654.579 42.6611 645.965 42.6611C637.352 42.6611 630.369 49.6437 630.369 58.2572C630.369 66.8708 637.352 73.8534 645.965 73.8534Z" fill="black"/>
<path d="M677.158 42.5771C685.771 42.5771 692.754 35.5945 692.754 26.9809C692.754 18.3674 685.771 11.3848 677.158 11.3848C668.544 11.3848 661.562 18.3674 661.562 26.9809C661.562 35.5945 668.544 42.5771 677.158 42.5771Z" fill="black"/>
<path d="M708.434 73.8534C717.048 73.8534 724.03 66.8708 724.03 58.2572C724.03 49.6437 717.048 42.6611 708.434 42.6611C699.821 42.6611 692.838 49.6437 692.838 58.2572C692.838 66.8708 699.821 73.8534 708.434 73.8534Z" fill="black"/>
<path d="M677.158 73.8534C685.771 73.8534 692.754 66.8708 692.754 58.2572C692.754 49.6437 685.771 42.6611 677.158 42.6611C668.544 42.6611 661.562 49.6437 661.562 58.2572C661.562 66.8708 668.544 73.8534 677.158 73.8534Z" fill="black"/>
</svg>
