<svg width="732" height="512" viewBox="0 0 732 512" fill="none" xmlns="http://www.w3.org/2000/svg">
<path d="M81.0651 34.1923C89.6786 34.1923 96.6611 27.2097 96.6611 18.5962C96.6611 9.98264 89.6786 3 81.0651 3C72.4515 3 65.4688 9.98264 65.4688 18.5962C65.4688 27.2097 72.4515 34.1923 81.0651 34.1923Z" stroke="black" stroke-width="5" stroke-miterlimit="10"/>
<path d="M143.618 34.1923C152.231 34.1923 159.214 27.2097 159.214 18.5962C159.214 9.98264 152.231 3 143.618 3C135.004 3 128.021 9.98264 128.021 18.5962C128.021 27.2097 135.004 34.1923 143.618 34.1923Z" stroke="black" stroke-width="5" stroke-miterlimit="10"/>
<path d="M81.0651 65.4687C89.6786 65.4687 96.6611 58.4861 96.6611 49.8725C96.6611 41.259 89.6786 34.2764 81.0651 34.2764C72.4515 34.2764 65.4688 41.259 65.4688 49.8725C65.4688 58.4861 72.4515 65.4687 81.0651 65.4687Z" stroke="black" stroke-width="5" stroke-miterlimit="10"/>
<path d="M143.618 65.4687C152.231 65.4687 159.214 58.4861 159.214 49.8725C159.214 41.259 152.231 34.2764 143.618 34.2764C135.004 34.2764 128.021 41.259 128.021 49.8725C128.021 58.4861 135.004 65.4687 143.618 65.4687Z" stroke="black" stroke-width="5" stroke-miterlimit="10"/>
<path d="M18.5962 96.7451C27.2097 96.7451 34.1925 89.7624 34.1925 81.1489C34.1925 72.5354 27.2097 65.5527 18.5962 65.5527C9.98265 65.5527 3 72.5354 3 81.1489C3 89.7624 9.98265 96.7451 18.5962 96.7451Z" stroke="black" stroke-width="5" stroke-miterlimit="10"/>
<path d="M81.0651 96.7451C89.6786 96.7451 96.6611 89.7624 96.6611 81.1489C96.6611 72.5354 89.6786 65.5527 81.0651 65.5527C72.4515 65.5527 65.4688 72.5354 65.4688 81.1489C65.4688 89.7624 72.4515 96.7451 81.0651 96.7451Z" stroke="black" stroke-width="5" stroke-miterlimit="10"/>
<path d="M18.5962 127.937C27.2097 127.937 34.1925 120.955 34.1925 112.341C34.1925 103.728 27.2097 96.7451 18.5962 96.7451C9.98265 96.7451 3 103.728 3 112.341C3 120.955 9.98265 127.937 18.5962 127.937Z" stroke="black" stroke-width="5" stroke-miterlimit="10"/>
<path d="M81.0651 127.937C89.6786 127.937 96.6611 120.955 96.6611 112.341C96.6611 103.728 89.6786 96.7451 81.0651 96.7451C72.4515 96.7451 65.4688 103.728 65.4688 112.341C65.4688 120.955 72.4515 127.937 81.0651 127.937Z" stroke="black" stroke-width="5" stroke-miterlimit="10"/>
<path d="M18.5962 159.213C27.2097 159.213 34.1925 152.23 34.1925 143.617C34.1925 135.003 27.2097 128.021 18.5962 128.021C9.98265 128.021 3 135.003 3 143.617C3 152.23 9.98265 159.213 18.5962 159.213Z" stroke="black" stroke-width="5" stroke-miterlimit="10"/>
<path d="M81.0651 159.213C89.6786 159.213 96.6611 152.23 96.6611 143.617C96.6611 135.003 89.6786 128.021 81.0651 128.021C72.4515 128.021 65.4688 135.003 65.4688 143.617C65.4688 152.23 72.4515 159.213 81.0651 159.213Z" stroke="black" stroke-width="5" stroke-miterlimit="10"/>
<path d="M18.5962 190.489C27.2097 190.489 34.1925 183.507 34.1925 174.893C34.1925 166.28 27.2097 159.297 18.5962 159.297C9.98265 159.297 3 166.28 3 174.893C3 183.507 9.98265 190.489 18.5962 190.489Z" stroke="black" stroke-width="5" stroke-miterlimit="10"/>
<path d="M81.0651 190.489C89.6786 190.489 96.6611 183.507 96.6611 174.893C96.6611 166.28 89.6786 159.297 81.0651 159.297C72.4515 159.297 65.4688 166.28 65.4688 174.893C65.4688 183.507 72.4515 190.489 81.0651 190.489Z" stroke="black" stroke-width="5" stroke-miterlimit="10"/>
<path d="M18.5962 221.682C27.2097 221.682 34.1925 214.699 34.1925 206.085C34.1925 197.472 27.2097 190.489 18.5962 190.489C9.98265 190.489 3 197.472 3 206.085C3 214.699 9.98265 221.682 18.5962 221.682Z" stroke="black" stroke-width="5" stroke-miterlimit="10"/>
<path d="M81.0651 221.682C89.6786 221.682 96.6611 214.699 96.6611 206.085C96.6611 197.472 89.6786 190.489 81.0651 190.489C72.4515 190.489 65.4688 197.472 65.4688 206.085C65.4688 214.699 72.4515 221.682 81.0651 221.682Z" stroke="black" stroke-width="5" stroke-miterlimit="10"/>
<path d="M18.5962 252.958C27.2097 252.958 34.1925 245.975 34.1925 237.362C34.1925 228.748 27.2097 221.766 18.5962 221.766C9.98265 221.766 3 228.748 3 237.362C3 245.975 9.98265 252.958 18.5962 252.958Z" stroke="black" stroke-width="5" stroke-miterlimit="10"/>
<path d="M81.0651 252.958C89.6786 252.958 96.6611 245.975 96.6611 237.362C96.6611 228.748 89.6786 221.766 81.0651 221.766C72.4515 221.766 65.4688 228.748 65.4688 237.362C65.4688 245.975 72.4515 252.958 81.0651 252.958Z" stroke="black" stroke-width="5" stroke-miterlimit="10"/>
<path d="M143.618 96.7451C152.231 96.7451 159.214 89.7624 159.214 81.1489C159.214 72.5354 152.231 65.5527 143.618 65.5527C135.004 65.5527 128.021 72.5354 128.021 81.1489C128.021 89.7624 135.004 96.7451 143.618 96.7451Z" stroke="black" stroke-width="5" stroke-miterlimit="10"/>
<path d="M206.086 34.1923C214.699 34.1923 221.682 27.2097 221.682 18.5962C221.682 9.98264 214.699 3 206.086 3C197.472 3 190.489 9.98264 190.489 18.5962C190.489 27.2097 197.472 34.1923 206.086 34.1923Z" stroke="black" stroke-width="5" stroke-miterlimit="10"/>
<path d="M206.086 65.4687C214.699 65.4687 221.682 58.4861 221.682 49.8725C221.682 41.259 214.699 34.2764 206.086 34.2764C197.472 34.2764 190.489 41.259 190.489 49.8725C190.489 58.4861 197.472 65.4687 206.086 65.4687Z" stroke="black" stroke-width="5" stroke-miterlimit="10"/>
<path d="M206.086 96.7451C214.699 96.7451 221.682 89.7624 221.682 81.1489C221.682 72.5354 214.699 65.5527 206.086 65.5527C197.472 65.5527 190.489 72.5354 190.489 81.1489C190.489 89.7624 197.472 96.7451 206.086 96.7451Z" stroke="black" stroke-width="5" stroke-miterlimit="10"/>
<path d="M268.554 34.1923C277.168 34.1923 284.15 27.2097 284.15 18.5962C284.15 9.98264 277.168 3 268.554 3C259.941 3 252.958 9.98264 252.958 18.5962C252.958 27.2097 259.941 34.1923 268.554 34.1923Z" stroke="black" stroke-width="5" stroke-miterlimit="10"/>
<path d="M268.554 65.4687C277.168 65.4687 284.15 58.4861 284.15 49.8725C284.15 41.259 277.168 34.2764 268.554 34.2764C259.941 34.2764 252.958 41.259 252.958 49.8725C252.958 58.4861 259.941 65.4687 268.554 65.4687Z" stroke="black" stroke-width="5" stroke-miterlimit="10"/>
<path d="M331.107 65.4687C339.72 65.4687 346.703 58.4861 346.703 49.8725C346.703 41.259 339.72 34.2764 331.107 34.2764C322.493 34.2764 315.511 41.259 315.511 49.8725C315.511 58.4861 322.493 65.4687 331.107 65.4687Z" stroke="black" stroke-width="5" stroke-miterlimit="10"/>
<path d="M268.554 96.7451C277.168 96.7451 284.15 89.7624 284.15 81.1489C284.15 72.5354 277.168 65.5527 268.554 65.5527C259.941 65.5527 252.958 72.5354 252.958 81.1489C252.958 89.7624 259.941 96.7451 268.554 96.7451Z" stroke="black" stroke-width="5" stroke-miterlimit="10"/>
<path d="M331.107 96.7451C339.72 96.7451 346.703 89.7624 346.703 81.1489C346.703 72.5354 339.72 65.5527 331.107 65.5527C322.493 65.5527 315.511 72.5354 315.511 81.1489C315.511 89.7624 322.493 96.7451 331.107 96.7451Z" stroke="black" stroke-width="5" stroke-miterlimit="10"/>
<path d="M331.107 127.937C339.72 127.937 346.703 120.955 346.703 112.341C346.703 103.728 339.72 96.7451 331.107 96.7451C322.493 96.7451 315.511 103.728 315.511 112.341C315.511 120.955 322.493 127.937 331.107 127.937Z" stroke="black" stroke-width="5" stroke-miterlimit="10"/>
<path d="M331.107 159.213C339.72 159.213 346.703 152.23 346.703 143.617C346.703 135.003 339.72 128.021 331.107 128.021C322.493 128.021 315.511 135.003 315.511 143.617C315.511 152.23 322.493 159.213 331.107 159.213Z" stroke="black" stroke-width="5" stroke-miterlimit="10"/>
<path d="M331.107 190.741C339.72 190.741 346.703 183.759 346.703 175.145C346.703 166.531 339.72 159.549 331.107 159.549C322.493 159.549 315.511 166.531 315.511 175.145C315.511 183.759 322.493 190.741 331.107 190.741Z" stroke="black" stroke-width="5" stroke-miterlimit="10"/>
<path d="M81.0651 503C89.6786 503 96.6611 496.017 96.6611 487.404C96.6611 478.79 89.6786 471.808 81.0651 471.808C72.4515 471.808 65.4688 478.79 65.4688 487.404C65.4688 496.017 72.4515 503 81.0651 503Z" stroke="black" stroke-width="5" stroke-miterlimit="10"/>
<path d="M143.618 503C152.231 503 159.214 496.017 159.214 487.404C159.214 478.79 152.231 471.808 143.618 471.808C135.004 471.808 128.021 478.79 128.021 487.404C128.021 496.017 135.004 503 143.618 503Z" stroke="black" stroke-width="5" stroke-miterlimit="10"/>
<path d="M81.0651 471.724C89.6786 471.724 96.6611 464.741 96.6611 456.127C96.6611 447.514 89.6786 440.531 81.0651 440.531C72.4515 440.531 65.4688 447.514 65.4688 456.127C65.4688 464.741 72.4515 471.724 81.0651 471.724Z" stroke="black" stroke-width="5" stroke-miterlimit="10"/>
<path d="M143.618 471.724C152.231 471.724 159.214 464.741 159.214 456.127C159.214 447.514 152.231 440.531 143.618 440.531C135.004 440.531 128.021 447.514 128.021 456.127C128.021 464.741 135.004 471.724 143.618 471.724Z" stroke="black" stroke-width="5" stroke-miterlimit="10"/>
<path d="M18.5962 440.447C27.2097 440.447 34.1925 433.465 34.1925 424.851C34.1925 416.238 27.2097 409.255 18.5962 409.255C9.98265 409.255 3 416.238 3 424.851C3 433.465 9.98265 440.447 18.5962 440.447Z" stroke="black" stroke-width="5" stroke-miterlimit="10"/>
<path d="M81.0651 440.447C89.6786 440.447 96.6611 433.465 96.6611 424.851C96.6611 416.238 89.6786 409.255 81.0651 409.255C72.4515 409.255 65.4688 416.238 65.4688 424.851C65.4688 433.465 72.4515 440.447 81.0651 440.447Z" stroke="black" stroke-width="5" stroke-miterlimit="10"/>
<path d="M18.5962 409.255C27.2097 409.255 34.1925 402.272 34.1925 393.659C34.1925 385.045 27.2097 378.062 18.5962 378.062C9.98265 378.062 3 385.045 3 393.659C3 402.272 9.98265 409.255 18.5962 409.255Z" stroke="black" stroke-width="5" stroke-miterlimit="10"/>
<path d="M81.0651 409.255C89.6786 409.255 96.6611 402.272 96.6611 393.659C96.6611 385.045 89.6786 378.062 81.0651 378.062C72.4515 378.062 65.4688 385.045 65.4688 393.659C65.4688 402.272 72.4515 409.255 81.0651 409.255Z" stroke="black" stroke-width="5" stroke-miterlimit="10"/>
<path d="M18.5962 377.979C27.2097 377.979 34.1925 370.997 34.1925 362.383C34.1925 353.77 27.2097 346.787 18.5962 346.787C9.98265 346.787 3 353.77 3 362.383C3 370.997 9.98265 377.979 18.5962 377.979Z" stroke="black" stroke-width="5" stroke-miterlimit="10"/>
<path d="M81.0651 377.979C89.6786 377.979 96.6611 370.997 96.6611 362.383C96.6611 353.77 89.6786 346.787 81.0651 346.787C72.4515 346.787 65.4688 353.77 65.4688 362.383C65.4688 370.997 72.4515 377.979 81.0651 377.979Z" stroke="black" stroke-width="5" stroke-miterlimit="10"/>
<path d="M18.5962 346.703C27.2097 346.703 34.1925 339.72 34.1925 331.107C34.1925 322.493 27.2097 315.511 18.5962 315.511C9.98265 315.511 3 322.493 3 331.107C3 339.72 9.98265 346.703 18.5962 346.703Z" stroke="black" stroke-width="5" stroke-miterlimit="10"/>
<path d="M81.0651 346.703C89.6786 346.703 96.6611 339.72 96.6611 331.107C96.6611 322.493 89.6786 315.511 81.0651 315.511C72.4515 315.511 65.4688 322.493 65.4688 331.107C65.4688 339.72 72.4515 346.703 81.0651 346.703Z" stroke="black" stroke-width="5" stroke-miterlimit="10"/>
<path d="M18.5962 315.427C27.2097 315.427 34.1925 308.444 34.1925 299.831C34.1925 291.217 27.2097 284.234 18.5962 284.234C9.98265 284.234 3 291.217 3 299.831C3 308.444 9.98265 315.427 18.5962 315.427Z" stroke="black" stroke-width="5" stroke-miterlimit="10"/>
<path d="M81.0651 315.427C89.6786 315.427 96.6611 308.444 96.6611 299.831C96.6611 291.217 89.6786 284.234 81.0651 284.234C72.4515 284.234 65.4688 291.217 65.4688 299.831C65.4688 308.444 72.4515 315.427 81.0651 315.427Z" stroke="black" stroke-width="5" stroke-miterlimit="10"/>
<path d="M18.5962 284.234C27.2097 284.234 34.1925 277.252 34.1925 268.638C34.1925 260.025 27.2097 253.042 18.5962 253.042C9.98265 253.042 3 260.025 3 268.638C3 277.252 9.98265 284.234 18.5962 284.234Z" stroke="black" stroke-width="5" stroke-miterlimit="10"/>
<path d="M81.0651 284.234C89.6786 284.234 96.6611 277.252 96.6611 268.638C96.6611 260.025 89.6786 253.042 81.0651 253.042C72.4515 253.042 65.4688 260.025 65.4688 268.638C65.4688 277.252 72.4515 284.234 81.0651 284.234Z" stroke="black" stroke-width="5" stroke-miterlimit="10"/>
<path d="M143.618 440.447C152.231 440.447 159.214 433.465 159.214 424.851C159.214 416.238 152.231 409.255 143.618 409.255C135.004 409.255 128.021 416.238 128.021 424.851C128.021 433.465 135.004 440.447 143.618 440.447Z" stroke="black" stroke-width="5" stroke-miterlimit="10"/>
<path d="M206.086 503C214.699 503 221.682 496.017 221.682 487.404C221.682 478.79 214.699 471.808 206.086 471.808C197.472 471.808 190.489 478.79 190.489 487.404C190.489 496.017 197.472 503 206.086 503Z" stroke="black" stroke-width="5" stroke-miterlimit="10"/>
<path d="M206.086 471.724C214.699 471.724 221.682 464.741 221.682 456.127C221.682 447.514 214.699 440.531 206.086 440.531C197.472 440.531 190.489 447.514 190.489 456.127C190.489 464.741 197.472 471.724 206.086 471.724Z" stroke="black" stroke-width="5" stroke-miterlimit="10"/>
<path d="M206.086 440.447C214.699 440.447 221.682 433.465 221.682 424.851C221.682 416.238 214.699 409.255 206.086 409.255C197.472 409.255 190.489 416.238 190.489 424.851C190.489 433.465 197.472 440.447 206.086 440.447Z" stroke="black" stroke-width="5" stroke-miterlimit="10"/>
<path d="M268.554 503C277.168 503 284.15 496.017 284.15 487.404C284.15 478.79 277.168 471.808 268.554 471.808C259.941 471.808 252.958 478.79 252.958 487.404C252.958 496.017 259.941 503 268.554 503Z" stroke="black" stroke-width="5" stroke-miterlimit="10"/>
<path d="M268.554 471.724C277.168 471.724 284.15 464.741 284.15 456.127C284.15 447.514 277.168 440.531 268.554 440.531C259.941 440.531 252.958 447.514 252.958 456.127C252.958 464.741 259.941 471.724 268.554 471.724Z" stroke="black" stroke-width="5" stroke-miterlimit="10"/>
<path d="M331.107 471.724C339.72 471.724 346.703 464.741 346.703 456.127C346.703 447.514 339.72 440.531 331.107 440.531C322.493 440.531 315.511 447.514 315.511 456.127C315.511 464.741 322.493 471.724 331.107 471.724Z" stroke="black" stroke-width="5" stroke-miterlimit="10"/>
<path d="M268.554 440.447C277.168 440.447 284.15 433.465 284.15 424.851C284.15 416.238 277.168 409.255 268.554 409.255C259.941 409.255 252.958 416.238 252.958 424.851C252.958 433.465 259.941 440.447 268.554 440.447Z" stroke="black" stroke-width="5" stroke-miterlimit="10"/>
<path d="M331.107 440.447C339.72 440.447 346.703 433.465 346.703 424.851C346.703 416.238 339.72 409.255 331.107 409.255C322.493 409.255 315.511 416.238 315.511 424.851C315.511 433.465 322.493 440.447 331.107 440.447Z" stroke="black" stroke-width="5" stroke-miterlimit="10"/>
<path d="M331.107 409.255C339.72 409.255 346.703 402.272 346.703 393.659C346.703 385.045 339.72 378.062 331.107 378.062C322.493 378.062 315.511 385.045 315.511 393.659C315.511 402.272 322.493 409.255 331.107 409.255Z" stroke="black" stroke-width="5" stroke-miterlimit="10"/>
<path d="M331.107 377.979C339.72 377.979 346.703 370.997 346.703 362.383C346.703 353.77 339.72 346.787 331.107 346.787C322.493 346.787 315.511 353.77 315.511 362.383C315.511 370.997 322.493 377.979 331.107 377.979Z" stroke="black" stroke-width="5" stroke-miterlimit="10"/>
<path d="M331.107 346.367C339.72 346.367 346.703 339.385 346.703 330.771C346.703 322.157 339.72 315.175 331.107 315.175C322.493 315.175 315.511 322.157 315.511 330.771C315.511 339.385 322.493 346.367 331.107 346.367Z" stroke="black" stroke-width="5" stroke-miterlimit="10"/>
<path d="M458.476 167.598C467.09 167.598 474.072 160.615 474.072 152.001C474.072 143.388 467.09 136.405 458.476 136.405C449.863 136.405 442.88 143.388 442.88 152.001C442.88 160.615 449.863 167.598 458.476 167.598Z" fill="black"/>
<path d="M520.944 167.598C529.557 167.598 536.54 160.615 536.54 152.001C536.54 143.388 529.557 136.405 520.944 136.405C512.33 136.405 505.348 143.388 505.348 152.001C505.348 160.615 512.33 167.598 520.944 167.598Z" fill="black"/>
<path d="M489.668 167.598C498.282 167.598 505.265 160.615 505.265 152.001C505.265 143.388 498.282 136.405 489.668 136.405C481.055 136.405 474.072 143.388 474.072 152.001C474.072 160.615 481.055 167.598 489.668 167.598Z" fill="black"/>
<path d="M520.944 198.79C529.557 198.79 536.54 191.807 536.54 183.194C536.54 174.58 529.557 167.598 520.944 167.598C512.33 167.598 505.348 174.58 505.348 183.194C505.348 191.807 512.33 198.79 520.944 198.79Z" fill="black"/>
<path d="M520.944 230.066C529.557 230.066 536.54 223.084 536.54 214.47C536.54 205.857 529.557 198.874 520.944 198.874C512.33 198.874 505.348 205.857 505.348 214.47C505.348 223.084 512.33 230.066 520.944 230.066Z" fill="black"/>
<path d="M520.944 323.812C529.557 323.812 536.54 316.829 536.54 308.215C536.54 299.602 529.557 292.619 520.944 292.619C512.33 292.619 505.348 299.602 505.348 308.215C505.348 316.829 512.33 323.812 520.944 323.812Z" fill="black"/>
<path d="M520.944 355.088C529.557 355.088 536.54 348.105 536.54 339.492C536.54 330.878 529.557 323.896 520.944 323.896C512.33 323.896 505.348 330.878 505.348 339.492C505.348 348.105 512.33 355.088 520.944 355.088Z" fill="black"/>
<path d="M520.944 386.28C529.557 386.28 536.54 379.298 536.54 370.684C536.54 362.071 529.557 355.088 520.944 355.088C512.33 355.088 505.348 362.071 505.348 370.684C505.348 379.298 512.33 386.28 520.944 386.28Z" fill="black"/>
<path d="M552.22 386.28C560.834 386.28 567.816 379.298 567.816 370.684C567.816 362.071 560.834 355.088 552.22 355.088C543.607 355.088 536.624 362.071 536.624 370.684C536.624 379.298 543.607 386.28 552.22 386.28Z" fill="black"/>
<path d="M520.944 417.556C529.557 417.556 536.54 410.574 536.54 401.96C536.54 393.347 529.557 386.364 520.944 386.364C512.33 386.364 505.348 393.347 505.348 401.96C505.348 410.574 512.33 417.556 520.944 417.556Z" fill="black"/>
<path d="M552.22 417.556C560.834 417.556 567.816 410.574 567.816 401.96C567.816 393.347 560.834 386.364 552.22 386.364C543.607 386.364 536.624 393.347 536.624 401.96C536.624 410.574 543.607 417.556 552.22 417.556Z" fill="black"/>
<path d="M520.944 448.832C529.557 448.832 536.54 441.849 536.54 433.236C536.54 424.622 529.557 417.64 520.944 417.64C512.33 417.64 505.348 424.622 505.348 433.236C505.348 441.849 512.33 448.832 520.944 448.832Z" fill="black"/>
<path d="M552.22 448.832C560.834 448.832 567.816 441.849 567.816 433.236C567.816 424.622 560.834 417.64 552.22 417.64C543.607 417.64 536.624 424.622 536.624 433.236C536.624 441.849 543.607 448.832 552.22 448.832Z" fill="black"/>
<path d="M583.413 448.832C592.026 448.832 599.009 441.849 599.009 433.236C599.009 424.622 592.026 417.64 583.413 417.64C574.799 417.64 567.816 424.622 567.816 433.236C567.816 441.849 574.799 448.832 583.413 448.832Z" fill="black"/>
<path d="M520.944 480.024C529.557 480.024 536.54 473.042 536.54 464.428C536.54 455.815 529.557 448.832 520.944 448.832C512.33 448.832 505.348 455.815 505.348 464.428C505.348 473.042 512.33 480.024 520.944 480.024Z" fill="black"/>
<path d="M552.22 480.024C560.834 480.024 567.816 473.042 567.816 464.428C567.816 455.815 560.834 448.832 552.22 448.832C543.607 448.832 536.624 455.815 536.624 464.428C536.624 473.042 543.607 480.024 552.22 480.024Z" fill="black"/>
<path d="M583.413 480.024C592.026 480.024 599.009 473.042 599.009 464.428C599.009 455.815 592.026 448.832 583.413 448.832C574.799 448.832 567.816 455.815 567.816 464.428C567.816 473.042 574.799 480.024 583.413 480.024Z" fill="black"/>
<path d="M520.944 511.301C529.557 511.301 536.54 504.318 536.54 495.705C536.54 487.091 529.557 480.108 520.944 480.108C512.33 480.108 505.348 487.091 505.348 495.705C505.348 504.318 512.33 511.301 520.944 511.301Z" fill="black"/>
<path d="M552.22 511.301C560.834 511.301 567.816 504.318 567.816 495.705C567.816 487.091 560.834 480.108 552.22 480.108C543.607 480.108 536.624 487.091 536.624 495.705C536.624 504.318 543.607 511.301 552.22 511.301Z" fill="black"/>
<path d="M583.413 511.301C592.026 511.301 599.009 504.318 599.009 495.705C599.009 487.091 592.026 480.108 583.413 480.108C574.799 480.108 567.816 487.091 567.816 495.705C567.816 504.318 574.799 511.301 583.413 511.301Z" fill="black"/>
<path d="M427.2 105.046C435.813 105.046 442.796 98.0632 442.796 89.4497C442.796 80.8362 435.813 73.8535 427.2 73.8535C418.586 73.8535 411.604 80.8362 411.604 89.4497C411.604 98.0632 418.586 105.046 427.2 105.046Z" fill="black"/>
<path d="M427.2 136.322C435.813 136.322 442.796 129.34 442.796 120.726C442.796 112.113 435.813 105.13 427.2 105.13C418.586 105.13 411.604 112.113 411.604 120.726C411.604 129.34 418.586 136.322 427.2 136.322Z" fill="black"/>
<path d="M395.923 42.5771C404.537 42.5771 411.52 35.5945 411.52 26.9809C411.52 18.3674 404.537 11.3848 395.923 11.3848C387.31 11.3848 380.327 18.3674 380.327 26.9809C380.327 35.5945 387.31 42.5771 395.923 42.5771Z" fill="black"/>
<path d="M395.923 73.8535C404.537 73.8535 411.52 66.8708 411.52 58.2573C411.52 49.6438 404.537 42.6611 395.923 42.6611C387.31 42.6611 380.327 49.6438 380.327 58.2573C380.327 66.8708 387.31 73.8535 395.923 73.8535Z" fill="black"/>
<path d="M427.2 42.5771C435.813 42.5771 442.796 35.5945 442.796 26.9809C442.796 18.3674 435.813 11.3848 427.2 11.3848C418.586 11.3848 411.604 18.3674 411.604 26.9809C411.604 35.5945 418.586 42.5771 427.2 42.5771Z" fill="black"/>
<path d="M427.2 73.8535C435.813 73.8535 442.796 66.8708 442.796 58.2573C442.796 49.6438 435.813 42.6611 427.2 42.6611C418.586 42.6611 411.604 49.6438 411.604 58.2573C411.604 66.8708 418.586 73.8535 427.2 73.8535Z" fill="black"/>
<path d="M708.434 42.5771C717.047 42.5771 724.03 35.5945 724.03 26.9809C724.03 18.3674 717.047 11.3848 708.434 11.3848C699.82 11.3848 692.838 18.3674 692.838 26.9809C692.838 35.5945 699.82 42.5771 708.434 42.5771Z" fill="black"/>
<path d="M677.158 42.5771C685.771 42.5771 692.754 35.5945 692.754 26.9809C692.754 18.3674 685.771 11.3848 677.158 11.3848C668.544 11.3848 661.562 18.3674 661.562 26.9809C661.562 35.5945 668.544 42.5771 677.158 42.5771Z" fill="black"/>
<path d="M439.023 16.667H415.461V37.1264H439.023V16.667Z" fill="black"/>
<path d="M407.663 16.667H384.101V37.1264H407.663V16.667Z" fill="black"/>
<path d="M470.131 16.667H446.569V37.1264H470.131V16.667Z" fill="black"/>
<path d="M439.023 48.1113H415.461V68.5708H439.023V48.1113Z" fill="black"/>
<path d="M407.663 48.1113H384.101V68.5708H407.663V48.1113Z" fill="black"/>
<path d="M470.131 48.1113H446.569V68.5708H470.131V48.1113Z" fill="black"/>
<path d="M439.023 79.2197H415.461V99.6792H439.023V79.2197Z" fill="black"/>
<path d="M470.131 79.2197H446.569V99.6792H470.131V79.2197Z" fill="black"/>
<path d="M439.023 110.664H415.461V131.124H439.023V110.664Z" fill="black"/>
<path d="M470.131 110.664H446.569V131.124H470.131V110.664Z" fill="black"/>
<path d="M470.131 141.688H446.569V162.148H470.131V141.688Z" fill="black"/>
<path d="M470.131 173.132H446.569V193.591H470.131V173.132Z" fill="black"/>
<path d="M501.407 79.2197H477.845V99.6792H501.407V79.2197Z" fill="black"/>
<path d="M501.407 110.664H477.845V131.124H501.407V110.664Z" fill="black"/>
<path d="M532.767 141.688H509.205V162.148H532.767V141.688Z" fill="black"/>
<path d="M501.407 141.688H477.845V162.148H501.407V141.688Z" fill="black"/>
<path d="M532.767 173.132H509.205V193.591H532.767V173.132Z" fill="black"/>
<path d="M501.407 173.132H477.845V193.591H501.407V173.132Z" fill="black"/>
<path d="M532.767 204.324H509.205V224.784H532.767V204.324Z" fill="black"/>
<path d="M501.407 204.324H477.845V224.784H501.407V204.324Z" fill="black"/>
<path d="M532.767 235.769H509.205V256.228H532.767V235.769Z" fill="black"/>
<path d="M501.407 235.769H477.845V256.228H501.407V235.769Z" fill="black"/>
<path d="M532.767 266.793H509.205V287.253H532.767V266.793Z" fill="black"/>
<path d="M532.767 266.793H509.205V287.253H532.767V266.793Z" fill="black"/>
<path d="M532.767 297.901H509.205V318.361H532.767V297.901Z" fill="black"/>
<path d="M532.767 329.346H509.205V349.805H532.767V329.346Z" fill="black"/>
<path d="M532.767 360.37H509.205V380.83H532.767V360.37Z" fill="black"/>
<path d="M563.875 360.37H540.313V380.83H563.875V360.37Z" fill="black"/>
<path d="M532.767 391.814H509.205V412.274H532.767V391.814Z" fill="black"/>
<path d="M563.875 391.814H540.313V412.274H563.875V391.814Z" fill="black"/>
<path d="M532.767 423.007H509.205V443.466H532.767V423.007Z" fill="black"/>
<path d="M563.875 423.007H540.313V443.466H563.875V423.007Z" fill="black"/>
<path d="M532.767 454.366H509.205V474.826H532.767V454.366Z" fill="black"/>
<path d="M563.875 454.366H540.313V474.826H563.875V454.366Z" fill="black"/>
<path d="M532.767 485.559H509.205V506.018H532.767V485.559Z" fill="black"/>
<path d="M563.875 485.559H540.313V506.018H563.875V485.559Z" fill="black"/>
<path d="M595.152 360.37H571.59V380.83H595.152V360.37Z" fill="black"/>
<path d="M595.152 391.814H571.59V412.274H595.152V391.814Z" fill="black"/>
<path d="M595.152 423.007H571.59V443.466H595.152V423.007Z" fill="black"/>
<path d="M595.152 454.366H571.59V474.826H595.152V454.366Z" fill="black"/>
<path d="M595.152 485.559H571.59V506.018H595.152V485.559Z" fill="black"/>
<path d="M720.256 16.667H696.694V37.1264H720.256V16.667Z" fill="black"/>
<path d="M688.897 16.667H665.335V37.1264H688.897V16.667Z" fill="black"/>
<path d="M720.256 48.1113H696.694V68.5708H720.256V48.1113Z" fill="black"/>
<path d="M688.897 48.1113H665.335V68.5708H688.897V48.1113Z" fill="black"/>
<path d="M688.897 79.2197H665.335V99.6792H688.897V79.2197Z" fill="black"/>
<path d="M688.897 110.664H665.335V131.124H688.897V110.664Z" fill="black"/>
<path d="M563.876 204.324H540.314V224.784H563.876V204.324Z" fill="black"/>
<path d="M563.876 235.769H540.314V256.228H563.876V235.769Z" fill="black"/>
<path d="M563.876 266.794H540.314V287.253H563.876V266.794Z" fill="black"/>
<path d="M563.876 297.902H540.314V318.362H563.876V297.902Z" fill="black"/>
<path d="M563.876 329.346H540.314V349.805H563.876V329.346Z" fill="black"/>
<path d="M657.619 16.667H634.057V37.1264H657.619V16.667Z" fill="black"/>
<path d="M657.619 48.1113H634.057V68.5708H657.619V48.1113Z" fill="black"/>
<path d="M626.51 79.2197H602.948V99.6792H626.51V79.2197Z" fill="black"/>
<path d="M657.619 79.2197H634.057V99.6792H657.619V79.2197Z" fill="black"/>
<path d="M626.51 110.663H602.948V131.123H626.51V110.663Z" fill="black"/>
<path d="M657.619 110.663H634.057V131.123H657.619V110.663Z" fill="black"/>
<path d="M626.51 141.688H602.948V162.148H626.51V141.688Z" fill="black"/>
<path d="M595.157 141.688H571.595V162.148H595.157V141.688Z" fill="black"/>
<path d="M657.619 141.688H634.057V162.148H657.619V141.688Z" fill="black"/>
<path d="M626.51 173.133H602.948V193.592H626.51V173.133Z" fill="black"/>
<path d="M595.157 173.133H571.595V193.592H595.157V173.133Z" fill="black"/>
<path d="M657.619 173.133H634.057V193.592H657.619V173.133Z" fill="black"/>
<path d="M626.51 204.324H602.948V224.784H626.51V204.324Z" fill="black"/>
<path d="M595.157 204.324H571.595V224.784H595.157V204.324Z" fill="black"/>
<path d="M626.51 235.769H602.948V256.228H626.51V235.769Z" fill="black"/>
<path d="M595.157 235.769H571.595V256.228H595.157V235.769Z" fill="black"/>
<path d="M595.157 266.794H571.595V287.253H595.157V266.794Z" fill="black"/>
<path d="M595.157 297.902H571.595V318.362H595.157V297.902Z" fill="black"/>
<path d="M595.157 329.346H571.595V349.805H595.157V329.346Z" fill="black"/>
<path d="M583.416 167.599C592.029 167.599 599.012 160.616 599.012 152.002C599.012 143.389 592.029 136.406 583.416 136.406C574.802 136.406 567.819 143.389 567.819 152.002C567.819 160.616 574.802 167.599 583.416 167.599Z" fill="black"/>
<path d="M645.968 167.599C654.582 167.599 661.564 160.616 661.564 152.002C661.564 143.389 654.582 136.406 645.968 136.406C637.355 136.406 630.372 143.389 630.372 152.002C630.372 160.616 637.355 167.599 645.968 167.599Z" fill="black"/>
<path d="M645.968 198.79C654.582 198.79 661.564 191.807 661.564 183.194C661.564 174.58 654.582 167.598 645.968 167.598C637.355 167.598 630.372 174.58 630.372 183.194C630.372 191.807 637.355 198.79 645.968 198.79Z" fill="black"/>
<path d="M614.688 198.79C623.302 198.79 630.284 191.807 630.284 183.194C630.284 174.58 623.302 167.598 614.688 167.598C606.074 167.598 599.092 174.58 599.092 183.194C599.092 191.807 606.074 198.79 614.688 198.79Z" fill="black"/>
<path d="M614.688 167.599C623.302 167.599 630.284 160.616 630.284 152.002C630.284 143.389 623.302 136.406 614.688 136.406C606.074 136.406 599.092 143.389 599.092 152.002C599.092 160.616 606.074 167.599 614.688 167.599Z" fill="black"/>
<path d="M583.416 198.79C592.029 198.79 599.012 191.807 599.012 183.194C599.012 174.58 592.029 167.598 583.416 167.598C574.802 167.598 567.819 174.58 567.819 183.194C567.819 191.807 574.802 198.79 583.416 198.79Z" fill="black"/>
<path d="M614.688 261.343C623.302 261.343 630.284 254.36 630.284 245.747C630.284 237.133 623.302 230.15 614.688 230.15C606.074 230.15 599.092 237.133 599.092 245.747C599.092 254.36 606.074 261.343 614.688 261.343Z" fill="black"/>
<path d="M614.688 230.066C623.302 230.066 630.284 223.084 630.284 214.47C630.284 205.857 623.302 198.874 614.688 198.874C606.074 198.874 599.092 205.857 599.092 214.47C599.092 223.084 606.074 230.066 614.688 230.066Z" fill="black"/>
<path d="M552.226 230.066C560.84 230.066 567.822 223.084 567.822 214.47C567.822 205.857 560.84 198.874 552.226 198.874C543.613 198.874 536.63 205.857 536.63 214.47C536.63 223.084 543.613 230.066 552.226 230.066Z" fill="black"/>
<path d="M583.416 230.066C592.029 230.066 599.012 223.084 599.012 214.47C599.012 205.857 592.029 198.874 583.416 198.874C574.802 198.874 567.819 205.857 567.819 214.47C567.819 223.084 574.802 230.066 583.416 230.066Z" fill="black"/>
<path d="M552.226 261.343C560.84 261.343 567.822 254.36 567.822 245.747C567.822 237.133 560.84 230.15 552.226 230.15C543.613 230.15 536.63 237.133 536.63 245.747C536.63 254.36 543.613 261.343 552.226 261.343Z" fill="black"/>
<path d="M583.416 261.343C592.029 261.343 599.012 254.36 599.012 245.747C599.012 237.133 592.029 230.15 583.416 230.15C574.802 230.15 567.819 237.133 567.819 245.747C567.819 254.36 574.802 261.343 583.416 261.343Z" fill="black"/>
<path d="M552.226 292.536C560.84 292.536 567.822 285.553 567.822 276.94C567.822 268.326 560.84 261.344 552.226 261.344C543.613 261.344 536.63 268.326 536.63 276.94C536.63 285.553 543.613 292.536 552.226 292.536Z" fill="black"/>
<path d="M552.226 323.811C560.84 323.811 567.822 316.829 567.822 308.215C567.822 299.602 560.84 292.619 552.226 292.619C543.613 292.619 536.63 299.602 536.63 308.215C536.63 316.829 543.613 323.811 552.226 323.811Z" fill="black"/>
<path d="M552.226 355.088C560.84 355.088 567.822 348.105 567.822 339.492C567.822 330.878 560.84 323.896 552.226 323.896C543.613 323.896 536.63 330.878 536.63 339.492C536.63 348.105 543.613 355.088 552.226 355.088Z" fill="black"/>
<path d="M645.968 105.046C654.582 105.046 661.564 98.0632 661.564 89.4497C661.564 80.8362 654.582 73.8535 645.968 73.8535C637.355 73.8535 630.372 80.8362 630.372 89.4497C630.372 98.0632 637.355 105.046 645.968 105.046Z" fill="black"/>
<path d="M645.968 136.322C654.582 136.322 661.564 129.34 661.564 120.726C661.564 112.113 654.582 105.13 645.968 105.13C637.355 105.13 630.372 112.113 630.372 120.726C630.372 129.34 637.355 136.322 645.968 136.322Z" fill="black"/>
<path d="M645.968 42.5771C654.582 42.5771 661.564 35.5945 661.564 26.9809C661.564 18.3674 654.582 11.3848 645.968 11.3848C637.355 11.3848 630.372 18.3674 630.372 26.9809C630.372 35.5945 637.355 42.5771 645.968 42.5771Z" fill="black"/>
<path d="M645.968 73.8535C654.582 73.8535 661.564 66.8708 661.564 58.2573C661.564 49.6438 654.582 42.6611 645.968 42.6611C637.355 42.6611 630.372 49.6438 630.372 58.2573C630.372 66.8708 637.355 73.8535 645.968 73.8535Z" fill="black"/>
</svg>
