<svg width="729" height="509" viewBox="0 0 729 509" fill="none" xmlns="http://www.w3.org/2000/svg">
<path d="M86.1147 0H62.5527V20.4595H86.1147V0Z" fill="black"/>
<path d="M86.1147 31.4443H62.5527V51.9039H86.1147V31.4443Z" fill="black"/>
<path d="M55.0063 62.6367H31.4443V83.0962H55.0063V62.6367Z" fill="black"/>
<path d="M23.5619 62.6367H0V83.0962H23.5619V62.6367Z" fill="black"/>
<path d="M86.1147 62.6367H62.5527V83.0962H86.1147V62.6367Z" fill="black"/>
<path d="M55.0063 93.9961H31.4443V114.455H55.0063V93.9961Z" fill="black"/>
<path d="M23.5619 93.9961H0V114.455H23.5619V93.9961Z" fill="black"/>
<path d="M86.1147 93.9961H62.5527V114.455H86.1147V93.9961Z" fill="black"/>
<path d="M55.0063 125.021H31.4443V145.48H55.0063V125.021Z" fill="black"/>
<path d="M23.5619 125.021H0V145.48H23.5619V125.021Z" fill="black"/>
<path d="M86.1147 125.021H62.5527V145.48H86.1147V125.021Z" fill="black"/>
<path d="M55.0063 156.465H31.4443V176.924H55.0063V156.465Z" fill="black"/>
<path d="M23.5619 156.465H0V176.924H23.5619V156.465Z" fill="black"/>
<path d="M86.1147 156.465H62.5527V176.924H86.1147V156.465Z" fill="black"/>
<path d="M55.0063 187.657H31.4443V208.117H55.0063V187.657Z" fill="black"/>
<path d="M23.5619 187.657H0V208.117H23.5619V187.657Z" fill="black"/>
<path d="M86.1147 187.657H62.5527V208.117H86.1147V187.657Z" fill="black"/>
<path d="M55.0063 219.102H31.4443V239.561H55.0063V219.102Z" fill="black"/>
<path d="M23.5619 219.102H0V239.561H23.5619V219.102Z" fill="black"/>
<path d="M86.1147 219.102H62.5527V239.561H86.1147V219.102Z" fill="black"/>
<path d="M55.0063 250.126H31.4443V270.586H55.0063V250.126Z" fill="black"/>
<path d="M55.0063 250.126H31.4443V270.586H55.0063V250.126Z" fill="black"/>
<path d="M23.5619 250.126H0V270.586H23.5619V250.126Z" fill="black"/>
<path d="M86.1147 250.126H62.5527V270.586H86.1147V250.126Z" fill="black"/>
<path d="M55.0063 281.234H31.4443V301.694H55.0063V281.234Z" fill="black"/>
<path d="M23.5619 281.234H0V301.694H23.5619V281.234Z" fill="black"/>
<path d="M86.1147 281.234H62.5527V301.694H86.1147V281.234Z" fill="black"/>
<path d="M55.0063 312.678H31.4443V333.137H55.0063V312.678Z" fill="black"/>
<path d="M23.5619 312.678H0V333.137H23.5619V312.678Z" fill="black"/>
<path d="M86.1147 312.678H62.5527V333.137H86.1147V312.678Z" fill="black"/>
<path d="M55.0063 343.703H31.4443V364.163H55.0063V343.703Z" fill="black"/>
<path d="M23.5619 343.703H0V364.163H23.5619V343.703Z" fill="black"/>
<path d="M86.1147 343.703H62.5527V364.163H86.1147V343.703Z" fill="black"/>
<path d="M55.0063 375.146H31.4443V395.606H55.0063V375.146Z" fill="black"/>
<path d="M23.5619 375.146H0V395.606H23.5619V375.146Z" fill="black"/>
<path d="M86.1147 375.146H62.5527V395.606H86.1147V375.146Z" fill="black"/>
<path d="M55.0063 406.339H31.4443V426.798H55.0063V406.339Z" fill="black"/>
<path d="M23.5619 406.339H0V426.798H23.5619V406.339Z" fill="black"/>
<path d="M86.1147 406.339H62.5527V426.798H86.1147V406.339Z" fill="black"/>
<path d="M86.1147 437.783H62.5527V458.243H86.1147V437.783Z" fill="black"/>
<path d="M86.1147 468.892H62.5527V489.351H86.1147V468.892Z" fill="black"/>
<path d="M148.751 0H125.188V20.4595H148.751V0Z" fill="black"/>
<path d="M117.307 0H93.7451V20.4595H117.307V0Z" fill="black"/>
<path d="M179.859 0H156.297V20.4595H179.859V0Z" fill="black"/>
<path d="M148.751 31.4443H125.188V51.9039H148.751V31.4443Z" fill="black"/>
<path d="M117.307 31.4443H93.7451V51.9039H117.307V31.4443Z" fill="black"/>
<path d="M179.859 31.4443H156.297V51.9039H179.859V31.4443Z" fill="black"/>
<path d="M148.751 62.6367H125.188V83.0962H148.751V62.6367Z" fill="black"/>
<path d="M117.307 62.6367H93.7451V83.0962H117.307V62.6367Z" fill="black"/>
<path d="M179.859 62.6367H156.297V83.0962H179.859V62.6367Z" fill="black"/>
<path d="M117.307 93.9961H93.7451V114.455H117.307V93.9961Z" fill="black"/>
<path d="M117.307 375.146H93.7451V395.606H117.307V375.146Z" fill="black"/>
<path d="M148.751 406.339H125.188V426.798H148.751V406.339Z" fill="black"/>
<path d="M117.307 406.339H93.7451V426.798H117.307V406.339Z" fill="black"/>
<path d="M179.859 406.339H156.297V426.798H179.859V406.339Z" fill="black"/>
<path d="M148.751 437.783H125.188V458.243H148.751V437.783Z" fill="black"/>
<path d="M117.307 437.783H93.7451V458.243H117.307V437.783Z" fill="black"/>
<path d="M179.859 437.783H156.297V458.243H179.859V437.783Z" fill="black"/>
<path d="M148.751 468.892H125.188V489.351H148.751V468.892Z" fill="black"/>
<path d="M117.307 468.892H93.7451V489.351H117.307V468.892Z" fill="black"/>
<path d="M179.859 468.892H156.297V489.351H179.859V468.892Z" fill="black"/>
<path d="M242.496 0H218.934V20.4595H242.496V0Z" fill="black"/>
<path d="M211.135 0H187.573V20.4595H211.135V0Z" fill="black"/>
<path d="M273.604 0H250.042V20.4595H273.604V0Z" fill="black"/>
<path d="M242.496 31.4443H218.934V51.9039H242.496V31.4443Z" fill="black"/>
<path d="M211.135 31.4443H187.573V51.9039H211.135V31.4443Z" fill="black"/>
<path d="M273.604 31.4443H250.042V51.9039H273.604V31.4443Z" fill="black"/>
<path d="M242.496 62.6367H218.934V83.0962H242.496V62.6367Z" fill="black"/>
<path d="M211.135 62.6367H187.573V83.0962H211.135V62.6367Z" fill="black"/>
<path d="M273.604 62.6367H250.042V83.0962H273.604V62.6367Z" fill="black"/>
<path d="M242.496 406.339H218.934V426.798H242.496V406.339Z" fill="black"/>
<path d="M211.135 406.339H187.573V426.798H211.135V406.339Z" fill="black"/>
<path d="M273.604 406.339H250.042V426.798H273.604V406.339Z" fill="black"/>
<path d="M242.496 437.783H218.934V458.243H242.496V437.783Z" fill="black"/>
<path d="M211.135 437.783H187.573V458.243H211.135V437.783Z" fill="black"/>
<path d="M273.604 437.783H250.042V458.243H273.604V437.783Z" fill="black"/>
<path d="M242.496 468.892H218.934V489.351H242.496V468.892Z" fill="black"/>
<path d="M211.135 468.892H187.573V489.351H211.135V468.892Z" fill="black"/>
<path d="M273.604 468.892H250.042V489.351H273.604V468.892Z" fill="black"/>
<path d="M304.88 0H281.318V20.4595H304.88V0Z" fill="black"/>
<path d="M336.24 31.4443H312.678V51.9039H336.24V31.4443Z" fill="black"/>
<path d="M304.88 31.4443H281.318V51.9039H304.88V31.4443Z" fill="black"/>
<path d="M336.24 62.6367H312.678V83.0962H336.24V62.6367Z" fill="black"/>
<path d="M304.88 62.6367H281.318V83.0962H304.88V62.6367Z" fill="black"/>
<path d="M336.24 93.9961H312.678V114.455H336.24V93.9961Z" fill="black"/>
<path d="M304.88 93.9961H281.318V114.455H304.88V93.9961Z" fill="black"/>
<path d="M367.349 93.9961H343.787V114.455H367.349V93.9961Z" fill="black"/>
<path d="M336.24 125.021H312.678V145.48H336.24V125.021Z" fill="black"/>
<path d="M304.88 125.021H281.318V145.48H304.88V125.021Z" fill="black"/>
<path d="M367.349 125.021H343.787V145.48H367.349V125.021Z" fill="black"/>
<path d="M336.24 156.465H312.678V176.924H336.24V156.465Z" fill="black"/>
<path d="M304.88 156.465H281.318V176.924H304.88V156.465Z" fill="black"/>
<path d="M367.349 156.465H343.787V176.924H367.349V156.465Z" fill="black"/>
<path d="M336.24 312.678H312.678V333.137H336.24V312.678Z" fill="black"/>
<path d="M304.88 312.678H281.318V333.137H304.88V312.678Z" fill="black"/>
<path d="M367.349 312.678H343.787V333.137H367.349V312.678Z" fill="black"/>
<path d="M336.24 343.703H312.678V364.163H336.24V343.703Z" fill="black"/>
<path d="M304.88 343.703H281.318V364.163H304.88V343.703Z" fill="black"/>
<path d="M367.349 343.703H343.787V364.163H367.349V343.703Z" fill="black"/>
<path d="M336.24 375.146H312.678V395.606H336.24V375.146Z" fill="black"/>
<path d="M304.88 375.146H281.318V395.606H304.88V375.146Z" fill="black"/>
<path d="M367.349 375.146H343.787V395.606H367.349V375.146Z" fill="black"/>
<path d="M336.24 406.339H312.678V426.798H336.24V406.339Z" fill="black"/>
<path d="M304.88 406.339H281.318V426.798H304.88V406.339Z" fill="black"/>
<path d="M336.24 437.783H312.678V458.243H336.24V437.783Z" fill="black"/>
<path d="M304.88 437.783H281.318V458.243H304.88V437.783Z" fill="black"/>
<path d="M304.88 468.892H281.318V489.351H304.88V468.892Z" fill="black"/>
<path d="M455.476 164.598C464.09 164.598 471.072 157.615 471.072 149.001C471.072 140.388 464.09 133.405 455.476 133.405C446.863 133.405 439.88 140.388 439.88 149.001C439.88 157.615 446.863 164.598 455.476 164.598Z" fill="black"/>
<path d="M580.413 164.598C589.026 164.598 596.009 157.615 596.009 149.001C596.009 140.388 589.026 133.405 580.413 133.405C571.799 133.405 564.816 140.388 564.816 149.001C564.816 157.615 571.799 164.598 580.413 164.598Z" fill="black"/>
<path d="M642.965 164.598C651.579 164.598 658.562 157.615 658.562 149.001C658.562 140.388 651.579 133.405 642.965 133.405C634.352 133.405 627.369 140.388 627.369 149.001C627.369 157.615 634.352 164.598 642.965 164.598Z" fill="black"/>
<path d="M517.944 164.598C526.557 164.598 533.54 157.615 533.54 149.001C533.54 140.388 526.557 133.405 517.944 133.405C509.33 133.405 502.348 140.388 502.348 149.001C502.348 157.615 509.33 164.598 517.944 164.598Z" fill="black"/>
<path d="M455.476 195.874C464.09 195.874 471.072 188.891 471.072 180.278C471.072 171.664 464.09 164.682 455.476 164.682C446.863 164.682 439.88 171.664 439.88 180.278C439.88 188.891 446.863 195.874 455.476 195.874Z" fill="black"/>
<path d="M486.669 164.598C495.282 164.598 502.265 157.615 502.265 149.001C502.265 140.388 495.282 133.405 486.669 133.405C478.055 133.405 471.072 140.388 471.072 149.001C471.072 157.615 478.055 164.598 486.669 164.598Z" fill="black"/>
<path d="M642.965 195.874C651.579 195.874 658.562 188.891 658.562 180.278C658.562 171.664 651.579 164.682 642.965 164.682C634.352 164.682 627.369 171.664 627.369 180.278C627.369 188.891 634.352 195.874 642.965 195.874Z" fill="black"/>
<path d="M517.944 195.874C526.557 195.874 533.54 188.891 533.54 180.278C533.54 171.664 526.557 164.682 517.944 164.682C509.33 164.682 502.348 171.664 502.348 180.278C502.348 188.891 509.33 195.874 517.944 195.874Z" fill="black"/>
<path d="M611.689 195.874C620.302 195.874 627.285 188.891 627.285 180.278C627.285 171.664 620.302 164.682 611.689 164.682C603.075 164.682 596.093 171.664 596.093 180.278C596.093 188.891 603.075 195.874 611.689 195.874Z" fill="black"/>
<path d="M611.689 164.598C620.302 164.598 627.285 157.615 627.285 149.001C627.285 140.388 620.302 133.405 611.689 133.405C603.075 133.405 596.093 140.388 596.093 149.001C596.093 157.615 603.075 164.598 611.689 164.598Z" fill="black"/>
<path d="M486.669 227.066C495.282 227.066 502.265 220.084 502.265 211.47C502.265 202.857 495.282 195.874 486.669 195.874C478.055 195.874 471.072 202.857 471.072 211.47C471.072 220.084 478.055 227.066 486.669 227.066Z" fill="black"/>
<path d="M486.669 195.874C495.282 195.874 502.265 188.891 502.265 180.278C502.265 171.664 495.282 164.682 486.669 164.682C478.055 164.682 471.072 171.664 471.072 180.278C471.072 188.891 478.055 195.874 486.669 195.874Z" fill="black"/>
<path d="M580.413 195.874C589.026 195.874 596.009 188.891 596.009 180.278C596.009 171.664 589.026 164.682 580.413 164.682C571.799 164.682 564.816 171.664 564.816 180.278C564.816 188.891 571.799 195.874 580.413 195.874Z" fill="black"/>
<path d="M611.689 258.343C620.302 258.343 627.285 251.36 627.285 242.747C627.285 234.133 620.302 227.15 611.689 227.15C603.075 227.15 596.093 234.133 596.093 242.747C596.093 251.36 603.075 258.343 611.689 258.343Z" fill="black"/>
<path d="M486.669 258.343C495.282 258.343 502.265 251.36 502.265 242.747C502.265 234.133 495.282 227.15 486.669 227.15C478.055 227.15 471.072 234.133 471.072 242.747C471.072 251.36 478.055 258.343 486.669 258.343Z" fill="black"/>
<path d="M611.689 227.066C620.302 227.066 627.285 220.084 627.285 211.47C627.285 202.857 620.302 195.874 611.689 195.874C603.075 195.874 596.093 202.857 596.093 211.47C596.093 220.084 603.075 227.066 611.689 227.066Z" fill="black"/>
<path d="M517.944 227.066C526.557 227.066 533.54 220.084 533.54 211.47C533.54 202.857 526.557 195.874 517.944 195.874C509.33 195.874 502.348 202.857 502.348 211.47C502.348 220.084 509.33 227.066 517.944 227.066Z" fill="black"/>
<path d="M549.22 227.066C557.834 227.066 564.816 220.084 564.816 211.47C564.816 202.857 557.834 195.874 549.22 195.874C540.607 195.874 533.624 202.857 533.624 211.47C533.624 220.084 540.607 227.066 549.22 227.066Z" fill="black"/>
<path d="M580.413 227.066C589.026 227.066 596.009 220.084 596.009 211.47C596.009 202.857 589.026 195.874 580.413 195.874C571.799 195.874 564.816 202.857 564.816 211.47C564.816 220.084 571.799 227.066 580.413 227.066Z" fill="black"/>
<path d="M517.944 258.343C526.557 258.343 533.54 251.36 533.54 242.747C533.54 234.133 526.557 227.15 517.944 227.15C509.33 227.15 502.348 234.133 502.348 242.747C502.348 251.36 509.33 258.343 517.944 258.343Z" fill="black"/>
<path d="M549.22 258.343C557.834 258.343 564.816 251.36 564.816 242.747C564.816 234.133 557.834 227.15 549.22 227.15C540.607 227.15 533.624 234.133 533.624 242.747C533.624 251.36 540.607 258.343 549.22 258.343Z" fill="black"/>
<path d="M580.413 258.343C589.026 258.343 596.009 251.36 596.009 242.747C596.009 234.133 589.026 227.15 580.413 227.15C571.799 227.15 564.816 234.133 564.816 242.747C564.816 251.36 571.799 258.343 580.413 258.343Z" fill="black"/>
<path d="M517.944 289.619C526.557 289.619 533.54 282.636 533.54 274.023C533.54 265.409 526.557 258.427 517.944 258.427C509.33 258.427 502.348 265.409 502.348 274.023C502.348 282.636 509.33 289.619 517.944 289.619Z" fill="black"/>
<path d="M549.22 289.619C557.834 289.619 564.816 282.636 564.816 274.023C564.816 265.409 557.834 258.427 549.22 258.427C540.607 258.427 533.624 265.409 533.624 274.023C533.624 282.636 540.607 289.619 549.22 289.619Z" fill="black"/>
<path d="M580.413 289.619C589.026 289.619 596.009 282.636 596.009 274.023C596.009 265.409 589.026 258.427 580.413 258.427C571.799 258.427 564.816 265.409 564.816 274.023C564.816 282.636 571.799 289.619 580.413 289.619Z" fill="black"/>
<path d="M517.944 320.811C526.557 320.811 533.54 313.829 533.54 305.215C533.54 296.602 526.557 289.619 517.944 289.619C509.33 289.619 502.348 296.602 502.348 305.215C502.348 313.829 509.33 320.811 517.944 320.811Z" fill="black"/>
<path d="M549.22 320.811C557.834 320.811 564.816 313.829 564.816 305.215C564.816 296.602 557.834 289.619 549.22 289.619C540.607 289.619 533.624 296.602 533.624 305.215C533.624 313.829 540.607 320.811 549.22 320.811Z" fill="black"/>
<path d="M580.413 320.811C589.026 320.811 596.009 313.829 596.009 305.215C596.009 296.602 589.026 289.619 580.413 289.619C571.799 289.619 564.816 296.602 564.816 305.215C564.816 313.829 571.799 320.811 580.413 320.811Z" fill="black"/>
<path d="M517.944 352.088C526.557 352.088 533.54 345.105 533.54 336.492C533.54 327.878 526.557 320.896 517.944 320.896C509.33 320.896 502.348 327.878 502.348 336.492C502.348 345.105 509.33 352.088 517.944 352.088Z" fill="black"/>
<path d="M549.22 352.088C557.834 352.088 564.816 345.105 564.816 336.492C564.816 327.878 557.834 320.896 549.22 320.896C540.607 320.896 533.624 327.878 533.624 336.492C533.624 345.105 540.607 352.088 549.22 352.088Z" fill="black"/>
<path d="M580.413 352.088C589.026 352.088 596.009 345.105 596.009 336.492C596.009 327.878 589.026 320.896 580.413 320.896C571.799 320.896 564.816 327.878 564.816 336.492C564.816 345.105 571.799 352.088 580.413 352.088Z" fill="black"/>
<path d="M517.944 383.364C526.557 383.364 533.54 376.382 533.54 367.768C533.54 359.155 526.557 352.172 517.944 352.172C509.33 352.172 502.348 359.155 502.348 367.768C502.348 376.382 509.33 383.364 517.944 383.364Z" fill="black"/>
<path d="M549.22 383.364C557.834 383.364 564.816 376.382 564.816 367.768C564.816 359.155 557.834 352.172 549.22 352.172C540.607 352.172 533.624 359.155 533.624 367.768C533.624 376.382 540.607 383.364 549.22 383.364Z" fill="black"/>
<path d="M580.413 383.364C589.026 383.364 596.009 376.382 596.009 367.768C596.009 359.155 589.026 352.172 580.413 352.172C571.799 352.172 564.816 359.155 564.816 367.768C564.816 376.382 571.799 383.364 580.413 383.364Z" fill="black"/>
<path d="M517.944 414.556C526.557 414.556 533.54 407.573 533.54 398.959C533.54 390.346 526.557 383.363 517.944 383.363C509.33 383.363 502.348 390.346 502.348 398.959C502.348 407.573 509.33 414.556 517.944 414.556Z" fill="black"/>
<path d="M549.22 414.556C557.834 414.556 564.816 407.573 564.816 398.959C564.816 390.346 557.834 383.363 549.22 383.363C540.607 383.363 533.624 390.346 533.624 398.959C533.624 407.573 540.607 414.556 549.22 414.556Z" fill="black"/>
<path d="M580.413 414.556C589.026 414.556 596.009 407.573 596.009 398.959C596.009 390.346 589.026 383.363 580.413 383.363C571.799 383.363 564.816 390.346 564.816 398.959C564.816 407.573 571.799 414.556 580.413 414.556Z" fill="black"/>
<path d="M517.944 445.832C526.557 445.832 533.54 438.849 533.54 430.236C533.54 421.622 526.557 414.64 517.944 414.64C509.33 414.64 502.348 421.622 502.348 430.236C502.348 438.849 509.33 445.832 517.944 445.832Z" fill="black"/>
<path d="M549.22 445.832C557.834 445.832 564.816 438.849 564.816 430.236C564.816 421.622 557.834 414.64 549.22 414.64C540.607 414.64 533.624 421.622 533.624 430.236C533.624 438.849 540.607 445.832 549.22 445.832Z" fill="black"/>
<path d="M580.413 445.832C589.026 445.832 596.009 438.849 596.009 430.236C596.009 421.622 589.026 414.64 580.413 414.64C571.799 414.64 564.816 421.622 564.816 430.236C564.816 438.849 571.799 445.832 580.413 445.832Z" fill="black"/>
<path d="M517.944 477.108C526.557 477.108 533.54 470.126 533.54 461.512C533.54 452.899 526.557 445.916 517.944 445.916C509.33 445.916 502.348 452.899 502.348 461.512C502.348 470.126 509.33 477.108 517.944 477.108Z" fill="black"/>
<path d="M549.22 477.108C557.834 477.108 564.816 470.126 564.816 461.512C564.816 452.899 557.834 445.916 549.22 445.916C540.607 445.916 533.624 452.899 533.624 461.512C533.624 470.126 540.607 477.108 549.22 477.108Z" fill="black"/>
<path d="M580.413 477.108C589.026 477.108 596.009 470.126 596.009 461.512C596.009 452.899 589.026 445.916 580.413 445.916C571.799 445.916 564.816 452.899 564.816 461.512C564.816 470.126 571.799 477.108 580.413 477.108Z" fill="black"/>
<path d="M517.944 508.385C526.557 508.385 533.54 501.402 533.54 492.789C533.54 484.175 526.557 477.192 517.944 477.192C509.33 477.192 502.348 484.175 502.348 492.789C502.348 501.402 509.33 508.385 517.944 508.385Z" fill="black"/>
<path d="M549.22 508.385C557.834 508.385 564.816 501.402 564.816 492.789C564.816 484.175 557.834 477.192 549.22 477.192C540.607 477.192 533.624 484.175 533.624 492.789C533.624 501.402 540.607 508.385 549.22 508.385Z" fill="black"/>
<path d="M580.413 508.385C589.026 508.385 596.009 501.402 596.009 492.789C596.009 484.175 589.026 477.192 580.413 477.192C571.799 477.192 564.816 484.175 564.816 492.789C564.816 501.402 571.799 508.385 580.413 508.385Z" fill="black"/>
<path d="M424.2 102.13C432.813 102.13 439.796 95.1472 439.796 86.5337C439.796 77.9201 432.813 70.9375 424.2 70.9375C415.586 70.9375 408.604 77.9201 408.604 86.5337C408.604 95.1472 415.586 102.13 424.2 102.13Z" fill="black"/>
<path d="M486.669 102.13C495.282 102.13 502.265 95.1472 502.265 86.5337C502.265 77.9201 495.282 70.9375 486.669 70.9375C478.055 70.9375 471.072 77.9201 471.072 86.5337C471.072 95.1472 478.055 102.13 486.669 102.13Z" fill="black"/>
<path d="M424.2 133.322C432.813 133.322 439.796 126.34 439.796 117.726C439.796 109.113 432.813 102.13 424.2 102.13C415.586 102.13 408.604 109.113 408.604 117.726C408.604 126.34 415.586 133.322 424.2 133.322Z" fill="black"/>
<path d="M455.476 102.13C464.09 102.13 471.072 95.1472 471.072 86.5337C471.072 77.9201 464.09 70.9375 455.476 70.9375C446.863 70.9375 439.88 77.9201 439.88 86.5337C439.88 95.1472 446.863 102.13 455.476 102.13Z" fill="black"/>
<path d="M486.669 133.322C495.282 133.322 502.265 126.34 502.265 117.726C502.265 109.113 495.282 102.13 486.669 102.13C478.055 102.13 471.072 109.113 471.072 117.726C471.072 126.34 478.055 133.322 486.669 133.322Z" fill="black"/>
<path d="M455.476 133.322C464.09 133.322 471.072 126.34 471.072 117.726C471.072 109.113 464.09 102.13 455.476 102.13C446.863 102.13 439.88 109.113 439.88 117.726C439.88 126.34 446.863 133.322 455.476 133.322Z" fill="black"/>
<path d="M611.689 102.13C620.302 102.13 627.285 95.1472 627.285 86.5337C627.285 77.9201 620.302 70.9375 611.689 70.9375C603.075 70.9375 596.093 77.9201 596.093 86.5337C596.093 95.1472 603.075 102.13 611.689 102.13Z" fill="black"/>
<path d="M674.158 102.13C682.771 102.13 689.754 95.1472 689.754 86.5337C689.754 77.9201 682.771 70.9375 674.158 70.9375C665.544 70.9375 658.562 77.9201 658.562 86.5337C658.562 95.1472 665.544 102.13 674.158 102.13Z" fill="black"/>
<path d="M611.689 133.322C620.302 133.322 627.285 126.34 627.285 117.726C627.285 109.113 620.302 102.13 611.689 102.13C603.075 102.13 596.093 109.113 596.093 117.726C596.093 126.34 603.075 133.322 611.689 133.322Z" fill="black"/>
<path d="M642.965 102.13C651.579 102.13 658.562 95.1472 658.562 86.5337C658.562 77.9201 651.579 70.9375 642.965 70.9375C634.352 70.9375 627.369 77.9201 627.369 86.5337C627.369 95.1472 634.352 102.13 642.965 102.13Z" fill="black"/>
<path d="M674.158 133.322C682.771 133.322 689.754 126.34 689.754 117.726C689.754 109.113 682.771 102.13 674.158 102.13C665.544 102.13 658.562 109.113 658.562 117.726C658.562 126.34 665.544 133.322 674.158 133.322Z" fill="black"/>
<path d="M642.965 133.322C651.579 133.322 658.562 126.34 658.562 117.726C658.562 109.113 651.579 102.13 642.965 102.13C634.352 102.13 627.369 109.113 627.369 117.726C627.369 126.34 634.352 133.322 642.965 133.322Z" fill="black"/>
<path d="M392.923 39.5771C401.537 39.5771 408.52 32.5945 408.52 23.9809C408.52 15.3674 401.537 8.38477 392.923 8.38477C384.31 8.38477 377.327 15.3674 377.327 23.9809C377.327 32.5945 384.31 39.5771 392.923 39.5771Z" fill="black"/>
<path d="M455.476 39.5771C464.09 39.5771 471.072 32.5945 471.072 23.9809C471.072 15.3674 464.09 8.38477 455.476 8.38477C446.863 8.38477 439.88 15.3674 439.88 23.9809C439.88 32.5945 446.863 39.5771 455.476 39.5771Z" fill="black"/>
<path d="M392.923 70.8534C401.537 70.8534 408.52 63.8708 408.52 55.2572C408.52 46.6437 401.537 39.6611 392.923 39.6611C384.31 39.6611 377.327 46.6437 377.327 55.2572C377.327 63.8708 384.31 70.8534 392.923 70.8534Z" fill="black"/>
<path d="M424.2 39.5771C432.813 39.5771 439.796 32.5945 439.796 23.9809C439.796 15.3674 432.813 8.38477 424.2 8.38477C415.586 8.38477 408.604 15.3674 408.604 23.9809C408.604 32.5945 415.586 39.5771 424.2 39.5771Z" fill="black"/>
<path d="M455.476 70.8534C464.09 70.8534 471.072 63.8708 471.072 55.2572C471.072 46.6437 464.09 39.6611 455.476 39.6611C446.863 39.6611 439.88 46.6437 439.88 55.2572C439.88 63.8708 446.863 70.8534 455.476 70.8534Z" fill="black"/>
<path d="M424.2 70.8534C432.813 70.8534 439.796 63.8708 439.796 55.2572C439.796 46.6437 432.813 39.6611 424.2 39.6611C415.586 39.6611 408.604 46.6437 408.604 55.2572C408.604 63.8708 415.586 70.8534 424.2 70.8534Z" fill="black"/>
<path d="M642.965 39.5771C651.579 39.5771 658.562 32.5945 658.562 23.9809C658.562 15.3674 651.579 8.38477 642.965 8.38477C634.352 8.38477 627.369 15.3674 627.369 23.9809C627.369 32.5945 634.352 39.5771 642.965 39.5771Z" fill="black"/>
<path d="M705.434 39.5771C714.048 39.5771 721.03 32.5945 721.03 23.9809C721.03 15.3674 714.048 8.38477 705.434 8.38477C696.821 8.38477 689.838 15.3674 689.838 23.9809C689.838 32.5945 696.821 39.5771 705.434 39.5771Z" fill="black"/>
<path d="M642.965 70.8534C651.579 70.8534 658.562 63.8708 658.562 55.2572C658.562 46.6437 651.579 39.6611 642.965 39.6611C634.352 39.6611 627.369 46.6437 627.369 55.2572C627.369 63.8708 634.352 70.8534 642.965 70.8534Z" fill="black"/>
<path d="M674.158 39.5771C682.771 39.5771 689.754 32.5945 689.754 23.9809C689.754 15.3674 682.771 8.38477 674.158 8.38477C665.544 8.38477 658.562 15.3674 658.562 23.9809C658.562 32.5945 665.544 39.5771 674.158 39.5771Z" fill="black"/>
<path d="M705.434 70.8534C714.048 70.8534 721.03 63.8708 721.03 55.2572C721.03 46.6437 714.048 39.6611 705.434 39.6611C696.821 39.6611 689.838 46.6437 689.838 55.2572C689.838 63.8708 696.821 70.8534 705.434 70.8534Z" fill="black"/>
<path d="M674.158 70.8534C682.771 70.8534 689.754 63.8708 689.754 55.2572C689.754 46.6437 682.771 39.6611 674.158 39.6611C665.544 39.6611 658.562 46.6437 658.562 55.2572C658.562 63.8708 665.544 70.8534 674.158 70.8534Z" fill="black"/>
</svg>
