<svg width="732" height="506" viewBox="0 0 732 506" fill="none" xmlns="http://www.w3.org/2000/svg">
<path d="M81.0649 34.1924C89.6785 34.1924 96.6611 27.2097 96.6611 18.5962C96.6611 9.98265 89.6785 3 81.0649 3C72.4514 3 65.4688 9.98265 65.4688 18.5962C65.4688 27.2097 72.4514 34.1924 81.0649 34.1924Z" stroke="black" stroke-width="5" stroke-miterlimit="10"/>
<path d="M112.341 34.1924C120.955 34.1924 127.937 27.2097 127.937 18.5962C127.937 9.98265 120.955 3 112.341 3C103.728 3 96.7451 9.98265 96.7451 18.5962C96.7451 27.2097 103.728 34.1924 112.341 34.1924Z" stroke="black" stroke-width="5" stroke-miterlimit="10"/>
<path d="M143.534 34.1924C152.147 34.1924 159.13 27.2097 159.13 18.5962C159.13 9.98265 152.147 3 143.534 3C134.92 3 127.938 9.98265 127.938 18.5962C127.938 27.2097 134.92 34.1924 143.534 34.1924Z" stroke="black" stroke-width="5" stroke-miterlimit="10"/>
<path d="M81.0649 65.4687C89.6785 65.4687 96.6611 58.486 96.6611 49.8725C96.6611 41.259 89.6785 34.2764 81.0649 34.2764C72.4514 34.2764 65.4688 41.259 65.4688 49.8725C65.4688 58.486 72.4514 65.4687 81.0649 65.4687Z" stroke="black" stroke-width="5" stroke-miterlimit="10"/>
<path d="M112.341 65.4687C120.955 65.4687 127.937 58.486 127.937 49.8725C127.937 41.259 120.955 34.2764 112.341 34.2764C103.728 34.2764 96.7451 41.259 96.7451 49.8725C96.7451 58.486 103.728 65.4687 112.341 65.4687Z" stroke="black" stroke-width="5" stroke-miterlimit="10"/>
<path d="M143.534 65.4687C152.147 65.4687 159.13 58.486 159.13 49.8725C159.13 41.259 152.147 34.2764 143.534 34.2764C134.92 34.2764 127.938 41.259 127.938 49.8725C127.938 58.486 134.92 65.4687 143.534 65.4687Z" stroke="black" stroke-width="5" stroke-miterlimit="10"/>
<path d="M18.5962 96.745C27.2097 96.745 34.1924 89.7624 34.1924 81.1489C34.1924 72.5354 27.2097 65.5527 18.5962 65.5527C9.98265 65.5527 3 72.5354 3 81.1489C3 89.7624 9.98265 96.745 18.5962 96.745Z" stroke="black" stroke-width="5" stroke-miterlimit="10"/>
<path d="M49.7884 96.745C58.402 96.745 65.3846 89.7624 65.3846 81.1489C65.3846 72.5354 58.402 65.5527 49.7884 65.5527C41.1749 65.5527 34.1924 72.5354 34.1924 81.1489C34.1924 89.7624 41.1749 96.745 49.7884 96.745Z" stroke="black" stroke-width="5" stroke-miterlimit="10"/>
<path d="M81.0649 96.745C89.6785 96.745 96.6611 89.7624 96.6611 81.1489C96.6611 72.5354 89.6785 65.5527 81.0649 65.5527C72.4514 65.5527 65.4688 72.5354 65.4688 81.1489C65.4688 89.7624 72.4514 96.745 81.0649 96.745Z" stroke="black" stroke-width="5" stroke-miterlimit="10"/>
<path d="M18.5962 127.937C27.2097 127.937 34.1924 120.955 34.1924 112.341C34.1924 103.728 27.2097 96.7451 18.5962 96.7451C9.98265 96.7451 3 103.728 3 112.341C3 120.955 9.98265 127.937 18.5962 127.937Z" stroke="black" stroke-width="5" stroke-miterlimit="10"/>
<path d="M49.7884 127.937C58.402 127.937 65.3846 120.955 65.3846 112.341C65.3846 103.728 58.402 96.7451 49.7884 96.7451C41.1749 96.7451 34.1924 103.728 34.1924 112.341C34.1924 120.955 41.1749 127.937 49.7884 127.937Z" stroke="black" stroke-width="5" stroke-miterlimit="10"/>
<path d="M81.0649 127.937C89.6785 127.937 96.6611 120.955 96.6611 112.341C96.6611 103.728 89.6785 96.7451 81.0649 96.7451C72.4514 96.7451 65.4688 103.728 65.4688 112.341C65.4688 120.955 72.4514 127.937 81.0649 127.937Z" stroke="black" stroke-width="5" stroke-miterlimit="10"/>
<path d="M18.5962 159.213C27.2097 159.213 34.1924 152.23 34.1924 143.617C34.1924 135.003 27.2097 128.021 18.5962 128.021C9.98265 128.021 3 135.003 3 143.617C3 152.23 9.98265 159.213 18.5962 159.213Z" stroke="black" stroke-width="5" stroke-miterlimit="10"/>
<path d="M49.7884 159.213C58.402 159.213 65.3846 152.23 65.3846 143.617C65.3846 135.003 58.402 128.021 49.7884 128.021C41.1749 128.021 34.1924 135.003 34.1924 143.617C34.1924 152.23 41.1749 159.213 49.7884 159.213Z" stroke="black" stroke-width="5" stroke-miterlimit="10"/>
<path d="M81.0649 159.213C89.6785 159.213 96.6611 152.23 96.6611 143.617C96.6611 135.003 89.6785 128.021 81.0649 128.021C72.4514 128.021 65.4688 135.003 65.4688 143.617C65.4688 152.23 72.4514 159.213 81.0649 159.213Z" stroke="black" stroke-width="5" stroke-miterlimit="10"/>
<path d="M18.5962 190.489C27.2097 190.489 34.1924 183.507 34.1924 174.893C34.1924 166.28 27.2097 159.297 18.5962 159.297C9.98265 159.297 3 166.28 3 174.893C3 183.507 9.98265 190.489 18.5962 190.489Z" stroke="black" stroke-width="5" stroke-miterlimit="10"/>
<path d="M49.7884 190.489C58.402 190.489 65.3846 183.507 65.3846 174.893C65.3846 166.28 58.402 159.297 49.7884 159.297C41.1749 159.297 34.1924 166.28 34.1924 174.893C34.1924 183.507 41.1749 190.489 49.7884 190.489Z" stroke="black" stroke-width="5" stroke-miterlimit="10"/>
<path d="M81.0649 190.489C89.6785 190.489 96.6611 183.507 96.6611 174.893C96.6611 166.28 89.6785 159.297 81.0649 159.297C72.4514 159.297 65.4688 166.28 65.4688 174.893C65.4688 183.507 72.4514 190.489 81.0649 190.489Z" stroke="black" stroke-width="5" stroke-miterlimit="10"/>
<path d="M18.5962 221.682C27.2097 221.682 34.1924 214.699 34.1924 206.085C34.1924 197.472 27.2097 190.489 18.5962 190.489C9.98265 190.489 3 197.472 3 206.085C3 214.699 9.98265 221.682 18.5962 221.682Z" stroke="black" stroke-width="5" stroke-miterlimit="10"/>
<path d="M49.7884 221.682C58.402 221.682 65.3846 214.699 65.3846 206.085C65.3846 197.472 58.402 190.489 49.7884 190.489C41.1749 190.489 34.1924 197.472 34.1924 206.085C34.1924 214.699 41.1749 221.682 49.7884 221.682Z" stroke="black" stroke-width="5" stroke-miterlimit="10"/>
<path d="M81.0649 221.682C89.6785 221.682 96.6611 214.699 96.6611 206.085C96.6611 197.472 89.6785 190.489 81.0649 190.489C72.4514 190.489 65.4688 197.472 65.4688 206.085C65.4688 214.699 72.4514 221.682 81.0649 221.682Z" stroke="black" stroke-width="5" stroke-miterlimit="10"/>
<path d="M18.5962 252.958C27.2097 252.958 34.1924 245.975 34.1924 237.362C34.1924 228.748 27.2097 221.766 18.5962 221.766C9.98265 221.766 3 228.748 3 237.362C3 245.975 9.98265 252.958 18.5962 252.958Z" stroke="black" stroke-width="5" stroke-miterlimit="10"/>
<path d="M49.7884 252.958C58.402 252.958 65.3846 245.975 65.3846 237.362C65.3846 228.748 58.402 221.766 49.7884 221.766C41.1749 221.766 34.1924 228.748 34.1924 237.362C34.1924 245.975 41.1749 252.958 49.7884 252.958Z" stroke="black" stroke-width="5" stroke-miterlimit="10"/>
<path d="M81.0649 252.958C89.6785 252.958 96.6611 245.975 96.6611 237.362C96.6611 228.748 89.6785 221.766 81.0649 221.766C72.4514 221.766 65.4688 228.748 65.4688 237.362C65.4688 245.975 72.4514 252.958 81.0649 252.958Z" stroke="black" stroke-width="5" stroke-miterlimit="10"/>
<path d="M112.341 127.937C120.955 127.937 127.937 120.955 127.937 112.341C127.937 103.728 120.955 96.7451 112.341 96.7451C103.728 96.7451 96.7451 103.728 96.7451 112.341C96.7451 120.955 103.728 127.937 112.341 127.937Z" stroke="black" stroke-width="5" stroke-miterlimit="10"/>
<path d="M112.341 96.9961C120.955 96.9961 127.937 90.0134 127.937 81.3999C127.937 72.7864 120.955 65.8037 112.341 65.8037C103.728 65.8037 96.7451 72.7864 96.7451 81.3999C96.7451 90.0134 103.728 96.9961 112.341 96.9961Z" stroke="black" stroke-width="5" stroke-miterlimit="10"/>
<path d="M143.534 96.745C152.147 96.745 159.13 89.7624 159.13 81.1489C159.13 72.5354 152.147 65.5527 143.534 65.5527C134.92 65.5527 127.938 72.5354 127.938 81.1489C127.938 89.7624 134.92 96.745 143.534 96.745Z" stroke="black" stroke-width="5" stroke-miterlimit="10"/>
<path d="M174.809 34.1924C183.423 34.1924 190.405 27.2097 190.405 18.5962C190.405 9.98265 183.423 3 174.809 3C166.196 3 159.213 9.98265 159.213 18.5962C159.213 27.2097 166.196 34.1924 174.809 34.1924Z" stroke="black" stroke-width="5" stroke-miterlimit="10"/>
<path d="M206.085 34.1924C214.699 34.1924 221.681 27.2097 221.681 18.5962C221.681 9.98265 214.699 3 206.085 3C197.472 3 190.489 9.98265 190.489 18.5962C190.489 27.2097 197.472 34.1924 206.085 34.1924Z" stroke="black" stroke-width="5" stroke-miterlimit="10"/>
<path d="M237.278 34.1924C245.891 34.1924 252.874 27.2097 252.874 18.5962C252.874 9.98265 245.891 3 237.278 3C228.664 3 221.682 9.98265 221.682 18.5962C221.682 27.2097 228.664 34.1924 237.278 34.1924Z" stroke="black" stroke-width="5" stroke-miterlimit="10"/>
<path d="M174.809 65.4687C183.423 65.4687 190.405 58.486 190.405 49.8725C190.405 41.259 183.423 34.2764 174.809 34.2764C166.196 34.2764 159.213 41.259 159.213 49.8725C159.213 58.486 166.196 65.4687 174.809 65.4687Z" stroke="black" stroke-width="5" stroke-miterlimit="10"/>
<path d="M206.085 65.4687C214.699 65.4687 221.681 58.486 221.681 49.8725C221.681 41.259 214.699 34.2764 206.085 34.2764C197.472 34.2764 190.489 41.259 190.489 49.8725C190.489 58.486 197.472 65.4687 206.085 65.4687Z" stroke="black" stroke-width="5" stroke-miterlimit="10"/>
<path d="M237.278 65.4687C245.891 65.4687 252.874 58.486 252.874 49.8725C252.874 41.259 245.891 34.2764 237.278 34.2764C228.664 34.2764 221.682 41.259 221.682 49.8725C221.682 58.486 228.664 65.4687 237.278 65.4687Z" stroke="black" stroke-width="5" stroke-miterlimit="10"/>
<path d="M174.809 96.745C183.423 96.745 190.405 89.7624 190.405 81.1489C190.405 72.5354 183.423 65.5527 174.809 65.5527C166.196 65.5527 159.213 72.5354 159.213 81.1489C159.213 89.7624 166.196 96.745 174.809 96.745Z" stroke="black" stroke-width="5" stroke-miterlimit="10"/>
<path d="M206.085 96.745C214.699 96.745 221.681 89.7624 221.681 81.1489C221.681 72.5354 214.699 65.5527 206.085 65.5527C197.472 65.5527 190.489 72.5354 190.489 81.1489C190.489 89.7624 197.472 96.745 206.085 96.745Z" stroke="black" stroke-width="5" stroke-miterlimit="10"/>
<path d="M237.278 96.745C245.891 96.745 252.874 89.7624 252.874 81.1489C252.874 72.5354 245.891 65.5527 237.278 65.5527C228.664 65.5527 221.682 72.5354 221.682 81.1489C221.682 89.7624 228.664 96.745 237.278 96.745Z" stroke="black" stroke-width="5" stroke-miterlimit="10"/>
<path d="M268.554 34.1924C277.168 34.1924 284.15 27.2097 284.15 18.5962C284.15 9.98265 277.168 3 268.554 3C259.941 3 252.958 9.98265 252.958 18.5962C252.958 27.2097 259.941 34.1924 268.554 34.1924Z" stroke="black" stroke-width="5" stroke-miterlimit="10"/>
<path d="M299.831 34.1924C308.444 34.1924 315.427 27.2097 315.427 18.5962C315.427 9.98265 308.444 3 299.831 3C291.217 3 284.234 9.98265 284.234 18.5962C284.234 27.2097 291.217 34.1924 299.831 34.1924Z" stroke="black" stroke-width="5" stroke-miterlimit="10"/>
<path d="M268.554 65.4687C277.168 65.4687 284.15 58.486 284.15 49.8725C284.15 41.259 277.168 34.2764 268.554 34.2764C259.941 34.2764 252.958 41.259 252.958 49.8725C252.958 58.486 259.941 65.4687 268.554 65.4687Z" stroke="black" stroke-width="5" stroke-miterlimit="10"/>
<path d="M299.831 65.4687C308.444 65.4687 315.427 58.486 315.427 49.8725C315.427 41.259 308.444 34.2764 299.831 34.2764C291.217 34.2764 284.234 41.259 284.234 49.8725C284.234 58.486 291.217 65.4687 299.831 65.4687Z" stroke="black" stroke-width="5" stroke-miterlimit="10"/>
<path d="M331.107 65.4687C339.72 65.4687 346.703 58.486 346.703 49.8725C346.703 41.259 339.72 34.2764 331.107 34.2764C322.493 34.2764 315.511 41.259 315.511 49.8725C315.511 58.486 322.493 65.4687 331.107 65.4687Z" stroke="black" stroke-width="5" stroke-miterlimit="10"/>
<path d="M268.554 96.745C277.168 96.745 284.15 89.7624 284.15 81.1489C284.15 72.5354 277.168 65.5527 268.554 65.5527C259.941 65.5527 252.958 72.5354 252.958 81.1489C252.958 89.7624 259.941 96.745 268.554 96.745Z" stroke="black" stroke-width="5" stroke-miterlimit="10"/>
<path d="M299.831 96.745C308.444 96.745 315.427 89.7624 315.427 81.1489C315.427 72.5354 308.444 65.5527 299.831 65.5527C291.217 65.5527 284.234 72.5354 284.234 81.1489C284.234 89.7624 291.217 96.745 299.831 96.745Z" stroke="black" stroke-width="5" stroke-miterlimit="10"/>
<path d="M331.107 96.745C339.72 96.745 346.703 89.7624 346.703 81.1489C346.703 72.5354 339.72 65.5527 331.107 65.5527C322.493 65.5527 315.511 72.5354 315.511 81.1489C315.511 89.7624 322.493 96.745 331.107 96.745Z" stroke="black" stroke-width="5" stroke-miterlimit="10"/>
<path d="M299.831 127.937C308.444 127.937 315.427 120.955 315.427 112.341C315.427 103.728 308.444 96.7451 299.831 96.7451C291.217 96.7451 284.234 103.728 284.234 112.341C284.234 120.955 291.217 127.937 299.831 127.937Z" stroke="black" stroke-width="5" stroke-miterlimit="10"/>
<path d="M331.107 127.937C339.72 127.937 346.703 120.955 346.703 112.341C346.703 103.728 339.72 96.7451 331.107 96.7451C322.493 96.7451 315.511 103.728 315.511 112.341C315.511 120.955 322.493 127.937 331.107 127.937Z" stroke="black" stroke-width="5" stroke-miterlimit="10"/>
<path d="M362.299 127.937C370.913 127.937 377.895 120.955 377.895 112.341C377.895 103.728 370.913 96.7451 362.299 96.7451C353.686 96.7451 346.703 103.728 346.703 112.341C346.703 120.955 353.686 127.937 362.299 127.937Z" stroke="black" stroke-width="5" stroke-miterlimit="10"/>
<path d="M299.831 159.213C308.444 159.213 315.427 152.23 315.427 143.617C315.427 135.003 308.444 128.021 299.831 128.021C291.217 128.021 284.234 135.003 284.234 143.617C284.234 152.23 291.217 159.213 299.831 159.213Z" stroke="black" stroke-width="5" stroke-miterlimit="10"/>
<path d="M331.107 159.213C339.72 159.213 346.703 152.23 346.703 143.617C346.703 135.003 339.72 128.021 331.107 128.021C322.493 128.021 315.511 135.003 315.511 143.617C315.511 152.23 322.493 159.213 331.107 159.213Z" stroke="black" stroke-width="5" stroke-miterlimit="10"/>
<path d="M362.299 159.213C370.913 159.213 377.895 152.23 377.895 143.617C377.895 135.003 370.913 128.021 362.299 128.021C353.686 128.021 346.703 135.003 346.703 143.617C346.703 152.23 353.686 159.213 362.299 159.213Z" stroke="black" stroke-width="5" stroke-miterlimit="10"/>
<path d="M299.831 190.741C308.444 190.741 315.427 183.759 315.427 175.145C315.427 166.531 308.444 159.549 299.831 159.549C291.217 159.549 284.234 166.531 284.234 175.145C284.234 183.759 291.217 190.741 299.831 190.741Z" stroke="black" stroke-width="5" stroke-miterlimit="10"/>
<path d="M331.107 190.741C339.72 190.741 346.703 183.759 346.703 175.145C346.703 166.531 339.72 159.549 331.107 159.549C322.493 159.549 315.511 166.531 315.511 175.145C315.511 183.759 322.493 190.741 331.107 190.741Z" stroke="black" stroke-width="5" stroke-miterlimit="10"/>
<path d="M362.299 190.741C370.913 190.741 377.895 183.759 377.895 175.145C377.895 166.531 370.913 159.549 362.299 159.549C353.686 159.549 346.703 166.531 346.703 175.145C346.703 183.759 353.686 190.741 362.299 190.741Z" stroke="black" stroke-width="5" stroke-miterlimit="10"/>
<path d="M81.0649 503C89.6785 503 96.6611 496.017 96.6611 487.404C96.6611 478.79 89.6785 471.808 81.0649 471.808C72.4514 471.808 65.4688 478.79 65.4688 487.404C65.4688 496.017 72.4514 503 81.0649 503Z" stroke="black" stroke-width="5" stroke-miterlimit="10"/>
<path d="M112.341 503C120.955 503 127.937 496.017 127.937 487.404C127.937 478.79 120.955 471.808 112.341 471.808C103.728 471.808 96.7451 478.79 96.7451 487.404C96.7451 496.017 103.728 503 112.341 503Z" stroke="black" stroke-width="5" stroke-miterlimit="10"/>
<path d="M143.534 503C152.147 503 159.13 496.017 159.13 487.404C159.13 478.79 152.147 471.808 143.534 471.808C134.92 471.808 127.938 478.79 127.938 487.404C127.938 496.017 134.92 503 143.534 503Z" stroke="black" stroke-width="5" stroke-miterlimit="10"/>
<path d="M81.0649 471.724C89.6785 471.724 96.6611 464.741 96.6611 456.127C96.6611 447.514 89.6785 440.531 81.0649 440.531C72.4514 440.531 65.4688 447.514 65.4688 456.127C65.4688 464.741 72.4514 471.724 81.0649 471.724Z" stroke="black" stroke-width="5" stroke-miterlimit="10"/>
<path d="M112.341 471.724C120.955 471.724 127.937 464.741 127.937 456.127C127.937 447.514 120.955 440.531 112.341 440.531C103.728 440.531 96.7451 447.514 96.7451 456.127C96.7451 464.741 103.728 471.724 112.341 471.724Z" stroke="black" stroke-width="5" stroke-miterlimit="10"/>
<path d="M143.534 471.724C152.147 471.724 159.13 464.741 159.13 456.127C159.13 447.514 152.147 440.531 143.534 440.531C134.92 440.531 127.938 447.514 127.938 456.127C127.938 464.741 134.92 471.724 143.534 471.724Z" stroke="black" stroke-width="5" stroke-miterlimit="10"/>
<path d="M18.5962 440.447C27.2097 440.447 34.1924 433.465 34.1924 424.851C34.1924 416.238 27.2097 409.255 18.5962 409.255C9.98265 409.255 3 416.238 3 424.851C3 433.465 9.98265 440.447 18.5962 440.447Z" stroke="black" stroke-width="5" stroke-miterlimit="10"/>
<path d="M49.7884 440.447C58.402 440.447 65.3846 433.465 65.3846 424.851C65.3846 416.238 58.402 409.255 49.7884 409.255C41.1749 409.255 34.1924 416.238 34.1924 424.851C34.1924 433.465 41.1749 440.447 49.7884 440.447Z" stroke="black" stroke-width="5" stroke-miterlimit="10"/>
<path d="M81.0649 440.447C89.6785 440.447 96.6611 433.465 96.6611 424.851C96.6611 416.238 89.6785 409.255 81.0649 409.255C72.4514 409.255 65.4688 416.238 65.4688 424.851C65.4688 433.465 72.4514 440.447 81.0649 440.447Z" stroke="black" stroke-width="5" stroke-miterlimit="10"/>
<path d="M18.5962 409.171C27.2097 409.171 34.1924 402.188 34.1924 393.575C34.1924 384.961 27.2097 377.979 18.5962 377.979C9.98265 377.979 3 384.961 3 393.575C3 402.188 9.98265 409.171 18.5962 409.171Z" stroke="black" stroke-width="5" stroke-miterlimit="10"/>
<path d="M49.7884 409.171C58.402 409.171 65.3846 402.188 65.3846 393.575C65.3846 384.961 58.402 377.979 49.7884 377.979C41.1749 377.979 34.1924 384.961 34.1924 393.575C34.1924 402.188 41.1749 409.171 49.7884 409.171Z" stroke="black" stroke-width="5" stroke-miterlimit="10"/>
<path d="M81.0649 409.171C89.6785 409.171 96.6611 402.188 96.6611 393.575C96.6611 384.961 89.6785 377.979 81.0649 377.979C72.4514 377.979 65.4688 384.961 65.4688 393.575C65.4688 402.188 72.4514 409.171 81.0649 409.171Z" stroke="black" stroke-width="5" stroke-miterlimit="10"/>
<path d="M18.5962 377.979C27.2097 377.979 34.1924 370.997 34.1924 362.383C34.1924 353.77 27.2097 346.787 18.5962 346.787C9.98265 346.787 3 353.77 3 362.383C3 370.997 9.98265 377.979 18.5962 377.979Z" stroke="black" stroke-width="5" stroke-miterlimit="10"/>
<path d="M49.7884 377.979C58.402 377.979 65.3846 370.997 65.3846 362.383C65.3846 353.77 58.402 346.787 49.7884 346.787C41.1749 346.787 34.1924 353.77 34.1924 362.383C34.1924 370.997 41.1749 377.979 49.7884 377.979Z" stroke="black" stroke-width="5" stroke-miterlimit="10"/>
<path d="M81.0649 377.979C89.6785 377.979 96.6611 370.997 96.6611 362.383C96.6611 353.77 89.6785 346.787 81.0649 346.787C72.4514 346.787 65.4688 353.77 65.4688 362.383C65.4688 370.997 72.4514 377.979 81.0649 377.979Z" stroke="black" stroke-width="5" stroke-miterlimit="10"/>
<path d="M18.5962 346.703C27.2097 346.703 34.1924 339.72 34.1924 331.107C34.1924 322.493 27.2097 315.511 18.5962 315.511C9.98265 315.511 3 322.493 3 331.107C3 339.72 9.98265 346.703 18.5962 346.703Z" stroke="black" stroke-width="5" stroke-miterlimit="10"/>
<path d="M49.7884 346.703C58.402 346.703 65.3846 339.72 65.3846 331.107C65.3846 322.493 58.402 315.511 49.7884 315.511C41.1749 315.511 34.1924 322.493 34.1924 331.107C34.1924 339.72 41.1749 346.703 49.7884 346.703Z" stroke="black" stroke-width="5" stroke-miterlimit="10"/>
<path d="M81.0649 346.703C89.6785 346.703 96.6611 339.72 96.6611 331.107C96.6611 322.493 89.6785 315.511 81.0649 315.511C72.4514 315.511 65.4688 322.493 65.4688 331.107C65.4688 339.72 72.4514 346.703 81.0649 346.703Z" stroke="black" stroke-width="5" stroke-miterlimit="10"/>
<path d="M18.5962 315.427C27.2097 315.427 34.1924 308.444 34.1924 299.831C34.1924 291.217 27.2097 284.234 18.5962 284.234C9.98265 284.234 3 291.217 3 299.831C3 308.444 9.98265 315.427 18.5962 315.427Z" stroke="black" stroke-width="5" stroke-miterlimit="10"/>
<path d="M49.7884 315.427C58.402 315.427 65.3846 308.444 65.3846 299.831C65.3846 291.217 58.402 284.234 49.7884 284.234C41.1749 284.234 34.1924 291.217 34.1924 299.831C34.1924 308.444 41.1749 315.427 49.7884 315.427Z" stroke="black" stroke-width="5" stroke-miterlimit="10"/>
<path d="M81.0649 315.427C89.6785 315.427 96.6611 308.444 96.6611 299.831C96.6611 291.217 89.6785 284.234 81.0649 284.234C72.4514 284.234 65.4688 291.217 65.4688 299.831C65.4688 308.444 72.4514 315.427 81.0649 315.427Z" stroke="black" stroke-width="5" stroke-miterlimit="10"/>
<path d="M18.5962 284.234C27.2097 284.234 34.1924 277.252 34.1924 268.638C34.1924 260.025 27.2097 253.042 18.5962 253.042C9.98265 253.042 3 260.025 3 268.638C3 277.252 9.98265 284.234 18.5962 284.234Z" stroke="black" stroke-width="5" stroke-miterlimit="10"/>
<path d="M49.7884 284.234C58.402 284.234 65.3846 277.252 65.3846 268.638C65.3846 260.025 58.402 253.042 49.7884 253.042C41.1749 253.042 34.1924 260.025 34.1924 268.638C34.1924 277.252 41.1749 284.234 49.7884 284.234Z" stroke="black" stroke-width="5" stroke-miterlimit="10"/>
<path d="M81.0649 284.234C89.6785 284.234 96.6611 277.252 96.6611 268.638C96.6611 260.025 89.6785 253.042 81.0649 253.042C72.4514 253.042 65.4688 260.025 65.4688 268.638C65.4688 277.252 72.4514 284.234 81.0649 284.234Z" stroke="black" stroke-width="5" stroke-miterlimit="10"/>
<path d="M112.341 409.171C120.955 409.171 127.937 402.188 127.937 393.575C127.937 384.961 120.955 377.979 112.341 377.979C103.728 377.979 96.7451 384.961 96.7451 393.575C96.7451 402.188 103.728 409.171 112.341 409.171Z" stroke="black" stroke-width="5" stroke-miterlimit="10"/>
<path d="M112.341 440.112C120.955 440.112 127.937 433.13 127.937 424.516C127.937 415.903 120.955 408.92 112.341 408.92C103.728 408.92 96.7451 415.903 96.7451 424.516C96.7451 433.13 103.728 440.112 112.341 440.112Z" stroke="black" stroke-width="5" stroke-miterlimit="10"/>
<path d="M143.534 440.447C152.147 440.447 159.13 433.465 159.13 424.851C159.13 416.238 152.147 409.255 143.534 409.255C134.92 409.255 127.938 416.238 127.938 424.851C127.938 433.465 134.92 440.447 143.534 440.447Z" stroke="black" stroke-width="5" stroke-miterlimit="10"/>
<path d="M174.809 503C183.423 503 190.405 496.017 190.405 487.404C190.405 478.79 183.423 471.808 174.809 471.808C166.196 471.808 159.213 478.79 159.213 487.404C159.213 496.017 166.196 503 174.809 503Z" stroke="black" stroke-width="5" stroke-miterlimit="10"/>
<path d="M206.085 503C214.699 503 221.681 496.017 221.681 487.404C221.681 478.79 214.699 471.808 206.085 471.808C197.472 471.808 190.489 478.79 190.489 487.404C190.489 496.017 197.472 503 206.085 503Z" stroke="black" stroke-width="5" stroke-miterlimit="10"/>
<path d="M237.278 503C245.891 503 252.874 496.017 252.874 487.404C252.874 478.79 245.891 471.808 237.278 471.808C228.664 471.808 221.682 478.79 221.682 487.404C221.682 496.017 228.664 503 237.278 503Z" stroke="black" stroke-width="5" stroke-miterlimit="10"/>
<path d="M174.809 471.724C183.423 471.724 190.405 464.741 190.405 456.127C190.405 447.514 183.423 440.531 174.809 440.531C166.196 440.531 159.213 447.514 159.213 456.127C159.213 464.741 166.196 471.724 174.809 471.724Z" stroke="black" stroke-width="5" stroke-miterlimit="10"/>
<path d="M206.085 471.724C214.699 471.724 221.681 464.741 221.681 456.127C221.681 447.514 214.699 440.531 206.085 440.531C197.472 440.531 190.489 447.514 190.489 456.127C190.489 464.741 197.472 471.724 206.085 471.724Z" stroke="black" stroke-width="5" stroke-miterlimit="10"/>
<path d="M237.278 471.724C245.891 471.724 252.874 464.741 252.874 456.127C252.874 447.514 245.891 440.531 237.278 440.531C228.664 440.531 221.682 447.514 221.682 456.127C221.682 464.741 228.664 471.724 237.278 471.724Z" stroke="black" stroke-width="5" stroke-miterlimit="10"/>
<path d="M174.809 440.447C183.423 440.447 190.405 433.465 190.405 424.851C190.405 416.238 183.423 409.255 174.809 409.255C166.196 409.255 159.213 416.238 159.213 424.851C159.213 433.465 166.196 440.447 174.809 440.447Z" stroke="black" stroke-width="5" stroke-miterlimit="10"/>
<path d="M206.085 440.447C214.699 440.447 221.681 433.465 221.681 424.851C221.681 416.238 214.699 409.255 206.085 409.255C197.472 409.255 190.489 416.238 190.489 424.851C190.489 433.465 197.472 440.447 206.085 440.447Z" stroke="black" stroke-width="5" stroke-miterlimit="10"/>
<path d="M237.278 440.447C245.891 440.447 252.874 433.465 252.874 424.851C252.874 416.238 245.891 409.255 237.278 409.255C228.664 409.255 221.682 416.238 221.682 424.851C221.682 433.465 228.664 440.447 237.278 440.447Z" stroke="black" stroke-width="5" stroke-miterlimit="10"/>
<path d="M268.554 503C277.168 503 284.15 496.017 284.15 487.404C284.15 478.79 277.168 471.808 268.554 471.808C259.941 471.808 252.958 478.79 252.958 487.404C252.958 496.017 259.941 503 268.554 503Z" stroke="black" stroke-width="5" stroke-miterlimit="10"/>
<path d="M299.831 503C308.444 503 315.427 496.017 315.427 487.404C315.427 478.79 308.444 471.808 299.831 471.808C291.217 471.808 284.234 478.79 284.234 487.404C284.234 496.017 291.217 503 299.831 503Z" stroke="black" stroke-width="5" stroke-miterlimit="10"/>
<path d="M268.554 471.724C277.168 471.724 284.15 464.741 284.15 456.127C284.15 447.514 277.168 440.531 268.554 440.531C259.941 440.531 252.958 447.514 252.958 456.127C252.958 464.741 259.941 471.724 268.554 471.724Z" stroke="black" stroke-width="5" stroke-miterlimit="10"/>
<path d="M299.831 471.724C308.444 471.724 315.427 464.741 315.427 456.127C315.427 447.514 308.444 440.531 299.831 440.531C291.217 440.531 284.234 447.514 284.234 456.127C284.234 464.741 291.217 471.724 299.831 471.724Z" stroke="black" stroke-width="5" stroke-miterlimit="10"/>
<path d="M331.107 471.724C339.72 471.724 346.703 464.741 346.703 456.127C346.703 447.514 339.72 440.531 331.107 440.531C322.493 440.531 315.511 447.514 315.511 456.127C315.511 464.741 322.493 471.724 331.107 471.724Z" stroke="black" stroke-width="5" stroke-miterlimit="10"/>
<path d="M268.554 440.447C277.168 440.447 284.15 433.465 284.15 424.851C284.15 416.238 277.168 409.255 268.554 409.255C259.941 409.255 252.958 416.238 252.958 424.851C252.958 433.465 259.941 440.447 268.554 440.447Z" stroke="black" stroke-width="5" stroke-miterlimit="10"/>
<path d="M299.831 440.447C308.444 440.447 315.427 433.465 315.427 424.851C315.427 416.238 308.444 409.255 299.831 409.255C291.217 409.255 284.234 416.238 284.234 424.851C284.234 433.465 291.217 440.447 299.831 440.447Z" stroke="black" stroke-width="5" stroke-miterlimit="10"/>
<path d="M331.107 440.447C339.72 440.447 346.703 433.465 346.703 424.851C346.703 416.238 339.72 409.255 331.107 409.255C322.493 409.255 315.511 416.238 315.511 424.851C315.511 433.465 322.493 440.447 331.107 440.447Z" stroke="black" stroke-width="5" stroke-miterlimit="10"/>
<path d="M299.831 409.171C308.444 409.171 315.427 402.188 315.427 393.575C315.427 384.961 308.444 377.979 299.831 377.979C291.217 377.979 284.234 384.961 284.234 393.575C284.234 402.188 291.217 409.171 299.831 409.171Z" stroke="black" stroke-width="5" stroke-miterlimit="10"/>
<path d="M331.107 409.171C339.72 409.171 346.703 402.188 346.703 393.575C346.703 384.961 339.72 377.979 331.107 377.979C322.493 377.979 315.511 384.961 315.511 393.575C315.511 402.188 322.493 409.171 331.107 409.171Z" stroke="black" stroke-width="5" stroke-miterlimit="10"/>
<path d="M362.299 409.171C370.913 409.171 377.895 402.188 377.895 393.575C377.895 384.961 370.913 377.979 362.299 377.979C353.686 377.979 346.703 384.961 346.703 393.575C346.703 402.188 353.686 409.171 362.299 409.171Z" stroke="black" stroke-width="5" stroke-miterlimit="10"/>
<path d="M299.831 377.979C308.444 377.979 315.427 370.997 315.427 362.383C315.427 353.77 308.444 346.787 299.831 346.787C291.217 346.787 284.234 353.77 284.234 362.383C284.234 370.997 291.217 377.979 299.831 377.979Z" stroke="black" stroke-width="5" stroke-miterlimit="10"/>
<path d="M331.107 377.979C339.72 377.979 346.703 370.997 346.703 362.383C346.703 353.77 339.72 346.787 331.107 346.787C322.493 346.787 315.511 353.77 315.511 362.383C315.511 370.997 322.493 377.979 331.107 377.979Z" stroke="black" stroke-width="5" stroke-miterlimit="10"/>
<path d="M362.299 377.979C370.913 377.979 377.895 370.997 377.895 362.383C377.895 353.77 370.913 346.787 362.299 346.787C353.686 346.787 346.703 353.77 346.703 362.383C346.703 370.997 353.686 377.979 362.299 377.979Z" stroke="black" stroke-width="5" stroke-miterlimit="10"/>
<path d="M299.831 346.367C308.444 346.367 315.427 339.385 315.427 330.771C315.427 322.157 308.444 315.175 299.831 315.175C291.217 315.175 284.234 322.157 284.234 330.771C284.234 339.385 291.217 346.367 299.831 346.367Z" stroke="black" stroke-width="5" stroke-miterlimit="10"/>
<path d="M331.107 346.367C339.72 346.367 346.703 339.385 346.703 330.771C346.703 322.157 339.72 315.175 331.107 315.175C322.493 315.175 315.511 322.157 315.511 330.771C315.511 339.385 322.493 346.367 331.107 346.367Z" stroke="black" stroke-width="5" stroke-miterlimit="10"/>
<path d="M362.299 346.367C370.913 346.367 377.895 339.385 377.895 330.771C377.895 322.157 370.913 315.175 362.299 315.175C353.686 315.175 346.703 322.157 346.703 330.771C346.703 339.385 353.686 346.367 362.299 346.367Z" stroke="black" stroke-width="5" stroke-miterlimit="10"/>
<path d="M435.333 11.3848H411.771V31.8443H435.333V11.3848Z" fill="black"/>
<path d="M403.889 11.3848H380.327V31.8443H403.889V11.3848Z" fill="black"/>
<path d="M466.358 11.3848H442.796V31.8443H466.358V11.3848Z" fill="black"/>
<path d="M435.333 42.8291H411.771V63.2886H435.333V42.8291Z" fill="black"/>
<path d="M403.889 42.8291H380.327V63.2886H403.889V42.8291Z" fill="black"/>
<path d="M466.358 42.8291H442.796V63.2886H466.358V42.8291Z" fill="black"/>
<path d="M435.333 74.0215H411.771V94.4809H435.333V74.0215Z" fill="black"/>
<path d="M466.358 74.0215H442.796V94.4809H466.358V74.0215Z" fill="black"/>
<path d="M435.333 105.465H411.771V125.924H435.333V105.465Z" fill="black"/>
<path d="M466.358 105.465H442.796V125.924H466.358V105.465Z" fill="black"/>
<path d="M466.358 136.405H442.796V156.865H466.358V136.405Z" fill="black"/>
<path d="M466.358 167.85H442.796V188.309H466.358V167.85Z" fill="black"/>
<path d="M497.634 74.0215H474.072V94.4809H497.634V74.0215Z" fill="black"/>
<path d="M497.634 105.465H474.072V125.924H497.634V105.465Z" fill="black"/>
<path d="M529.078 136.405H505.516V156.865H529.078V136.405Z" fill="black"/>
<path d="M497.634 136.405H474.072V156.865H497.634V136.405Z" fill="black"/>
<path d="M529.078 167.85H505.516V188.309H529.078V167.85Z" fill="black"/>
<path d="M497.634 167.85H474.072V188.309H497.634V167.85Z" fill="black"/>
<path d="M529.078 199.042H505.516V219.502H529.078V199.042Z" fill="black"/>
<path d="M497.634 199.042H474.072V219.502H497.634V199.042Z" fill="black"/>
<path d="M560.102 199.042H536.54V219.502H560.102V199.042Z" fill="black"/>
<path d="M529.078 230.486H505.516V250.946H529.078V230.486Z" fill="black"/>
<path d="M497.634 230.486H474.072V250.946H497.634V230.486Z" fill="black"/>
<path d="M560.102 230.486H536.54V250.946H560.102V230.486Z" fill="black"/>
<path d="M529.078 261.511H505.516V281.97H529.078V261.511Z" fill="black"/>
<path d="M529.078 261.511H505.516V281.97H529.078V261.511Z" fill="black"/>
<path d="M560.102 261.511H536.54V281.97H560.102V261.511Z" fill="black"/>
<path d="M529.078 292.703H505.516V313.163H529.078V292.703Z" fill="black"/>
<path d="M560.102 292.703H536.54V313.163H560.102V292.703Z" fill="black"/>
<path d="M529.078 324.062H505.516V344.522H529.078V324.062Z" fill="black"/>
<path d="M560.102 324.062H536.54V344.522H560.102V324.062Z" fill="black"/>
<path d="M529.078 355.088H505.516V375.547H529.078V355.088Z" fill="black"/>
<path d="M560.102 355.088H536.54V375.547H560.102V355.088Z" fill="black"/>
<path d="M529.078 386.531H505.516V406.991H529.078V386.531Z" fill="black"/>
<path d="M560.102 386.531H536.54V406.991H560.102V386.531Z" fill="black"/>
<path d="M529.078 417.724H505.516V438.183H529.078V417.724Z" fill="black"/>
<path d="M560.102 417.724H536.54V438.183H560.102V417.724Z" fill="black"/>
<path d="M529.078 449.168H505.516V469.628H529.078V449.168Z" fill="black"/>
<path d="M560.102 449.168H536.54V469.628H560.102V449.168Z" fill="black"/>
<path d="M529.078 480.36H505.516V500.82H529.078V480.36Z" fill="black"/>
<path d="M560.102 480.36H536.54V500.82H560.102V480.36Z" fill="black"/>
<path d="M653.847 11.3848H630.285V31.8443H653.847V11.3848Z" fill="black"/>
<path d="M653.847 42.8291H630.285V63.2886H653.847V42.8291Z" fill="black"/>
<path d="M622.823 74.0215H599.261V94.4809H622.823V74.0215Z" fill="black"/>
<path d="M653.847 74.0215H630.285V94.4809H653.847V74.0215Z" fill="black"/>
<path d="M622.823 105.465H599.261V125.924H622.823V105.465Z" fill="black"/>
<path d="M653.847 105.465H630.285V125.924H653.847V105.465Z" fill="black"/>
<path d="M622.823 136.405H599.261V156.865H622.823V136.405Z" fill="black"/>
<path d="M591.378 136.405H567.816V156.865H591.378V136.405Z" fill="black"/>
<path d="M653.847 136.405H630.285V156.865H653.847V136.405Z" fill="black"/>
<path d="M622.823 167.85H599.261V188.309H622.823V167.85Z" fill="black"/>
<path d="M591.378 167.85H567.816V188.309H591.378V167.85Z" fill="black"/>
<path d="M653.847 167.85H630.285V188.309H653.847V167.85Z" fill="black"/>
<path d="M622.823 199.042H599.261V219.502H622.823V199.042Z" fill="black"/>
<path d="M591.378 199.042H567.816V219.502H591.378V199.042Z" fill="black"/>
<path d="M622.823 230.486H599.261V250.946H622.823V230.486Z" fill="black"/>
<path d="M591.378 230.486H567.816V250.946H591.378V230.486Z" fill="black"/>
<path d="M591.378 261.511H567.816V281.97H591.378V261.511Z" fill="black"/>
<path d="M591.378 292.703H567.816V313.163H591.378V292.703Z" fill="black"/>
<path d="M591.378 324.062H567.816V344.522H591.378V324.062Z" fill="black"/>
<path d="M591.378 355.088H567.816V375.547H591.378V355.088Z" fill="black"/>
<path d="M591.378 386.531H567.816V406.991H591.378V386.531Z" fill="black"/>
<path d="M591.378 417.724H567.816V438.183H591.378V417.724Z" fill="black"/>
<path d="M591.378 449.168H567.816V469.628H591.378V449.168Z" fill="black"/>
<path d="M591.378 480.36H567.816V500.82H591.378V480.36Z" fill="black"/>
<path d="M716.567 11.3848H693.005V31.8443H716.567V11.3848Z" fill="black"/>
<path d="M685.123 11.3848H661.562V31.8443H685.123V11.3848Z" fill="black"/>
<path d="M716.567 42.8291H693.005V63.2886H716.567V42.8291Z" fill="black"/>
<path d="M685.123 42.8291H661.562V63.2886H685.123V42.8291Z" fill="black"/>
<path d="M685.123 74.0215H661.562V94.4809H685.123V74.0215Z" fill="black"/>
<path d="M685.123 105.465H661.562V125.924H685.123V105.465Z" fill="black"/>
</svg>
