<svg width="721" height="512" viewBox="0 0 721 512" fill="none" xmlns="http://www.w3.org/2000/svg">
<path d="M156.591 18.5962C156.591 27.2328 149.669 34.1924 141.182 34.1924C132.695 34.1924 125.856 41.2358 125.856 49.8723C125.856 58.5089 119.017 65.4685 110.53 65.4685C102.043 65.4685 95.1216 58.5089 95.1216 49.8723C95.1216 41.2358 102.043 34.1924 110.53 34.1924C119.017 34.1924 125.856 27.2328 125.856 18.5962C125.856 9.95959 132.695 3 141.182 3C149.669 3 156.591 9.95959 156.591 18.5962Z" stroke="black" stroke-width="5" stroke-miterlimit="10"/>
<path d="M64.4692 81.0649C64.4692 89.7015 57.5478 96.745 49.0607 96.745C40.5737 96.745 33.7346 103.705 33.7346 112.341C33.7346 120.978 26.8955 127.937 18.4085 127.937C9.92144 127.937 3 120.978 3 112.341C3 103.705 9.92144 96.745 18.4085 96.745C26.8955 96.745 33.7346 89.7015 33.7346 81.0649C33.7346 72.4283 40.5737 65.4688 49.0607 65.4688C57.5478 65.4688 64.4692 72.4283 64.4692 81.0649Z" stroke="black" stroke-width="5" stroke-miterlimit="10"/>
<path d="M125.856 81.0645V81.3999C125.856 89.5334 119.676 96.2415 111.848 96.9123H111.684C111.684 96.9123 110.942 96.7445 110.53 96.7445C110.118 96.7445 109.789 96.7446 109.377 96.9123H109.212C101.301 97.4992 95.1215 104.123 95.1215 112.341C95.1215 120.977 88.2824 127.937 79.7954 127.937C71.3083 127.937 64.4692 134.98 64.4692 143.617C64.4692 152.253 57.5478 159.213 49.0607 159.213C40.5737 159.213 33.7346 166.173 33.7346 174.809C33.7346 183.446 26.8955 190.489 18.4085 190.489C9.92144 190.489 3 183.446 3 174.809C3 166.173 9.92144 159.213 18.4085 159.213C26.8955 159.213 33.7346 152.253 33.7346 143.617C33.7346 134.98 40.5737 127.937 49.0607 127.937C57.5478 127.937 64.4692 120.977 64.4692 112.341C64.4692 103.704 71.3083 96.7445 79.7954 96.7445C88.2824 96.7445 94.9567 89.8688 95.1215 81.3999V81.0645C95.2863 72.5956 102.125 65.8037 110.53 65.8037C118.935 65.8037 125.691 72.5956 125.856 81.0645Z" stroke="black" stroke-width="5" stroke-miterlimit="10"/>
<path d="M95.1215 174.81C95.1215 183.446 88.2824 190.49 79.7954 190.49C71.3083 190.49 64.4692 197.449 64.4692 206.086C64.4692 214.722 57.5478 221.682 49.0607 221.682C40.5737 221.682 33.7346 228.725 33.7346 237.362C33.7346 245.999 26.8955 252.958 18.4085 252.958C9.92144 252.958 3 245.999 3 237.362C3 228.725 9.92144 221.682 18.4085 221.682C26.8955 221.682 33.7346 214.722 33.7346 206.086C33.7346 197.449 40.5737 190.49 49.0607 190.49C57.5478 190.49 64.4692 183.446 64.4692 174.81C64.4692 166.173 71.3083 159.213 79.7954 159.213C88.2824 159.213 95.1215 166.173 95.1215 174.81Z" stroke="black" stroke-width="5" stroke-miterlimit="10"/>
<path d="M217.978 18.5962C217.978 27.2328 211.139 34.1924 202.652 34.1924C194.165 34.1924 187.243 41.2358 187.243 49.8723C187.243 58.5089 180.404 65.4685 171.917 65.4685C163.43 65.4685 156.591 72.4281 156.591 81.0647C156.591 89.7013 149.669 96.7448 141.182 96.7448C132.695 96.7448 126.021 89.869 125.856 81.4001V81.0647C125.856 72.4281 132.695 65.4685 141.182 65.4685C149.669 65.4685 156.591 58.5089 156.591 49.8723C156.591 41.2358 163.43 34.1924 171.917 34.1924C180.404 34.1924 187.243 27.2328 187.243 18.5962C187.243 9.95959 194.165 3 202.652 3C211.139 3 217.978 9.95959 217.978 18.5962Z" stroke="black" stroke-width="5" stroke-miterlimit="10"/>
<path d="M279.365 18.5962C279.365 27.2328 272.526 34.1924 264.039 34.1924C255.551 34.1924 248.712 41.2358 248.712 49.8723C248.712 58.5089 241.791 65.4685 233.304 65.4685C224.817 65.4685 217.978 72.4281 217.978 81.0647C217.978 89.7013 211.139 96.7448 202.652 96.7448C194.165 96.7448 187.243 89.7013 187.243 81.0647C187.243 72.4281 194.165 65.4685 202.652 65.4685C211.139 65.4685 217.978 58.5089 217.978 49.8723C217.978 41.2358 224.817 34.1924 233.304 34.1924C241.791 34.1924 248.712 27.2328 248.712 18.5962C248.712 9.95959 255.551 3 264.039 3C272.526 3 279.365 9.95959 279.365 18.5962Z" stroke="black" stroke-width="5" stroke-miterlimit="10"/>
<path d="M310.099 49.8724C310.099 58.509 303.26 65.4686 294.773 65.4686C286.286 65.4686 279.365 72.4281 279.365 81.0647C279.365 89.7013 272.526 96.7448 264.039 96.7448C255.551 96.7448 248.712 89.7013 248.712 81.0647C248.712 72.4281 255.551 65.4686 264.039 65.4686C272.526 65.4686 279.365 58.509 279.365 49.8724C279.365 41.2358 286.286 34.1924 294.773 34.1924C303.26 34.1924 310.099 41.2358 310.099 49.8724Z" stroke="black" stroke-width="5" stroke-miterlimit="10"/>
<path d="M340.834 81.0649C340.834 89.7015 333.912 96.745 325.425 96.745C316.938 96.745 310.099 103.705 310.099 112.341C310.099 120.978 303.26 127.937 294.773 127.937C286.286 127.937 279.365 120.978 279.365 112.341C279.365 103.705 286.286 96.745 294.773 96.745C303.26 96.745 310.099 89.7015 310.099 81.0649C310.099 72.4283 317.021 65.4688 325.425 65.4688C333.83 65.4688 340.834 72.4283 340.834 81.0649Z" stroke="black" stroke-width="5" stroke-miterlimit="10"/>
<path d="M371.486 112.341C371.486 120.977 364.647 127.937 356.16 127.937C347.673 127.937 340.834 134.98 340.834 143.617C340.834 152.254 333.913 159.213 325.425 159.213C316.938 159.213 310.099 152.254 310.099 143.617C310.099 134.98 317.021 127.937 325.425 127.937C333.83 127.937 340.834 120.977 340.834 112.341C340.834 103.704 347.673 96.7446 356.16 96.7446C364.647 96.7446 371.486 103.704 371.486 112.341Z" stroke="black" stroke-width="5" stroke-miterlimit="10"/>
<path d="M356.16 190.741C364.624 190.741 371.486 183.759 371.486 175.145C371.486 166.531 364.624 159.549 356.16 159.549C347.696 159.549 340.834 166.531 340.834 175.145C340.834 183.759 347.696 190.741 356.16 190.741Z" stroke="black" stroke-width="5" stroke-miterlimit="10"/>
<path d="M217.978 424.852C217.978 433.488 211.139 440.448 202.652 440.448C194.165 440.448 187.243 447.491 187.243 456.128C187.243 464.764 180.404 471.724 171.917 471.724C163.43 471.724 156.591 478.683 156.591 487.32C156.591 495.957 149.669 503 141.182 503C132.695 503 125.856 495.957 125.856 487.32C125.856 478.683 132.695 471.724 141.182 471.724C149.669 471.724 156.591 464.68 156.591 456.128C156.591 447.575 163.43 440.448 171.917 440.448C180.404 440.448 187.243 433.488 187.243 424.852C187.243 416.215 194.165 409.255 202.652 409.255C211.139 409.255 217.978 416.215 217.978 424.852Z" stroke="black" stroke-width="5" stroke-miterlimit="10"/>
<path d="M95.1215 362.299C95.1215 370.935 88.2824 377.979 79.7954 377.979C71.3083 377.979 64.4692 384.938 64.4692 393.575C64.4692 402.212 57.5478 409.255 49.0607 409.255C40.5737 409.255 33.7346 416.215 33.7346 424.851C33.7346 433.488 26.8955 440.447 18.4085 440.447C9.92144 440.447 3 433.488 3 424.851C3 416.215 9.92144 409.255 18.4085 409.255C26.8955 409.255 33.7346 402.212 33.7346 393.575C33.7346 384.938 40.5737 377.979 49.0607 377.979C57.5478 377.979 64.4692 370.935 64.4692 362.299C64.4692 353.662 71.3083 346.703 79.7954 346.703C88.2824 346.703 95.1215 353.746 95.1215 362.299Z" stroke="black" stroke-width="5" stroke-miterlimit="10"/>
<path d="M125.856 393.575C125.856 401.709 119.841 408.333 112.096 409.088C111.601 408.92 111.024 408.92 110.53 408.92C110.036 408.92 109.459 408.92 108.965 409.088C101.219 409.758 95.1215 416.383 95.1215 424.516V424.851C95.1215 433.488 88.2824 440.448 79.7954 440.448C71.3083 440.448 64.4692 433.488 64.4692 424.851C64.4692 416.215 71.3083 409.255 79.7954 409.255C88.2824 409.255 95.1215 402.212 95.1215 393.575C95.1215 384.939 102.043 377.979 110.53 377.979C119.017 377.979 125.856 384.939 125.856 393.575Z" stroke="black" stroke-width="5" stroke-miterlimit="10"/>
<path d="M95.1215 299.831C95.1215 308.467 88.2824 315.427 79.7954 315.427C71.3083 315.427 64.4692 322.47 64.4692 331.107C64.4692 339.743 57.5478 346.703 49.0607 346.703C40.5737 346.703 33.7346 353.746 33.7346 362.299C33.7346 370.852 26.8955 377.979 18.4085 377.979C9.92144 377.979 3 370.936 3 362.299C3 353.662 9.92144 346.703 18.4085 346.703C26.8955 346.703 33.7346 339.743 33.7346 331.107C33.7346 322.47 40.5737 315.427 49.0607 315.427C57.5478 315.427 64.4692 308.467 64.4692 299.831C64.4692 291.194 71.3083 284.234 79.7954 284.234C88.2824 284.234 95.1215 291.194 95.1215 299.831Z" stroke="black" stroke-width="5" stroke-miterlimit="10"/>
<path d="M95.1215 237.362C95.1215 245.998 88.2824 252.958 79.7954 252.958C71.3083 252.958 64.4692 260.001 64.4692 268.554C64.4692 277.107 57.5478 284.234 49.0607 284.234C40.5737 284.234 33.7346 291.194 33.7346 299.83C33.7346 308.467 26.8955 315.426 18.4085 315.426C9.92144 315.426 3 308.467 3 299.83C3 291.194 9.92144 284.234 18.4085 284.234C26.8955 284.234 33.7346 277.191 33.7346 268.554C33.7346 259.918 40.5737 252.958 49.0607 252.958C57.5478 252.958 64.4692 245.998 64.4692 237.362C64.4692 228.725 71.3083 221.682 79.7954 221.682C88.2824 221.682 95.1215 228.725 95.1215 237.362Z" stroke="black" stroke-width="5" stroke-miterlimit="10"/>
<path d="M279.365 424.852C279.365 433.488 272.526 440.448 264.039 440.448C255.551 440.448 248.712 447.491 248.712 456.128C248.712 464.764 241.791 471.724 233.304 471.724C224.817 471.724 217.978 478.683 217.978 487.32C217.978 495.957 211.139 503 202.652 503C194.165 503 187.243 495.957 187.243 487.32C187.243 478.683 194.165 471.724 202.652 471.724C211.139 471.724 217.978 464.68 217.978 456.128C217.978 447.575 224.817 440.448 233.304 440.448C241.791 440.448 248.712 433.488 248.712 424.852C248.712 416.215 255.551 409.255 264.039 409.255C272.526 409.255 279.365 416.215 279.365 424.852Z" stroke="black" stroke-width="5" stroke-miterlimit="10"/>
<path d="M340.834 424.852C340.834 433.488 333.913 440.448 325.426 440.448C316.938 440.448 310.099 447.491 310.099 456.128C310.099 464.764 303.26 471.724 294.773 471.724C286.286 471.724 279.365 478.683 279.365 487.32C279.365 495.957 272.526 503 264.039 503C255.551 503 248.712 495.957 248.712 487.32C248.712 478.683 255.551 471.724 264.039 471.724C272.526 471.724 279.365 464.68 279.365 456.128C279.365 447.575 286.286 440.448 294.773 440.448C303.26 440.448 310.099 433.488 310.099 424.852C310.099 416.215 317.021 409.255 325.426 409.255C333.83 409.255 340.834 416.215 340.834 424.852Z" stroke="black" stroke-width="5" stroke-miterlimit="10"/>
<path d="M371.486 362.299C371.486 370.935 364.647 377.979 356.16 377.979C347.673 377.979 340.834 384.938 340.834 393.575C340.834 402.212 333.913 409.255 325.425 409.255C316.938 409.255 310.099 402.212 310.099 393.575C310.099 384.938 317.021 377.979 325.425 377.979C333.83 377.979 340.834 370.935 340.834 362.299C340.834 353.662 347.673 346.703 356.16 346.703C364.647 346.703 371.486 353.746 371.486 362.299Z" stroke="black" stroke-width="5" stroke-miterlimit="10"/>
<path d="M294.691 346.368C303.155 346.368 310.017 339.385 310.017 330.771C310.017 322.158 303.155 315.175 294.691 315.175C286.226 315.175 279.365 322.158 279.365 330.771C279.365 339.385 286.226 346.368 294.691 346.368Z" stroke="black" stroke-width="5" stroke-miterlimit="10"/>
<path d="M156.509 424.852C156.509 433.488 149.669 440.448 141.182 440.448C132.695 440.448 125.774 447.491 125.774 456.128C125.774 464.764 118.935 471.724 110.448 471.724C101.961 471.724 95.1216 478.683 95.1216 487.32C95.1216 495.957 88.2001 503 79.7131 503C71.226 503 64.387 495.957 64.387 487.32C64.387 478.683 71.226 471.724 79.7131 471.724C88.2001 471.724 95.1216 464.68 95.1216 456.128C95.1216 447.575 101.961 440.448 110.448 440.448C118.935 440.448 125.774 433.488 125.774 424.852C125.774 416.215 132.695 409.255 141.182 409.255C149.669 409.255 156.509 416.215 156.509 424.852Z" stroke="black" stroke-width="5" stroke-miterlimit="10"/>
<path d="M459.618 167.598C468.083 167.598 474.944 160.615 474.944 152.002C474.944 143.388 468.083 136.406 459.618 136.406C451.154 136.406 444.292 143.388 444.292 152.002C444.292 160.615 451.154 167.598 459.618 167.598Z" fill="black"/>
<path d="M521.005 167.598C529.47 167.598 536.331 160.615 536.331 152.002C536.331 143.388 529.47 136.406 521.005 136.406C512.541 136.406 505.679 143.388 505.679 152.002C505.679 160.615 512.541 167.598 521.005 167.598Z" fill="black"/>
<path d="M490.27 167.598C498.735 167.598 505.597 160.615 505.597 152.002C505.597 143.388 498.735 136.406 490.27 136.406C481.806 136.406 474.944 143.388 474.944 152.002C474.944 160.615 481.806 167.598 490.27 167.598Z" fill="black"/>
<path d="M521.005 198.791C529.47 198.791 536.331 191.808 536.331 183.194C536.331 174.581 529.47 167.598 521.005 167.598C512.541 167.598 505.679 174.581 505.679 183.194C505.679 191.808 512.541 198.791 521.005 198.791Z" fill="black"/>
<path d="M521.005 230.067C529.47 230.067 536.331 223.084 536.331 214.471C536.331 205.857 529.47 198.875 521.005 198.875C512.541 198.875 505.679 205.857 505.679 214.471C505.679 223.084 512.541 230.067 521.005 230.067Z" fill="black"/>
<path d="M521.005 323.811C529.47 323.811 536.331 316.829 536.331 308.215C536.331 299.602 529.47 292.619 521.005 292.619C512.541 292.619 505.679 299.602 505.679 308.215C505.679 316.829 512.541 323.811 521.005 323.811Z" fill="black"/>
<path d="M521.005 355.087C529.47 355.087 536.331 348.105 536.331 339.491C536.331 330.878 529.47 323.895 521.005 323.895C512.541 323.895 505.679 330.878 505.679 339.491C505.679 348.105 512.541 355.087 521.005 355.087Z" fill="black"/>
<path d="M521.005 386.28C529.47 386.28 536.331 379.297 536.331 370.684C536.331 362.07 529.47 355.087 521.005 355.087C512.541 355.087 505.679 362.07 505.679 370.684C505.679 379.297 512.541 386.28 521.005 386.28Z" fill="black"/>
<path d="M551.74 386.28C560.204 386.28 567.066 379.297 567.066 370.684C567.066 362.07 560.204 355.087 551.74 355.087C543.275 355.087 536.414 362.07 536.414 370.684C536.414 379.297 543.275 386.28 551.74 386.28Z" fill="black"/>
<path d="M521.005 417.556C529.47 417.556 536.331 410.573 536.331 401.96C536.331 393.346 529.47 386.364 521.005 386.364C512.541 386.364 505.679 393.346 505.679 401.96C505.679 410.573 512.541 417.556 521.005 417.556Z" fill="black"/>
<path d="M551.74 417.556C560.204 417.556 567.066 410.573 567.066 401.96C567.066 393.346 560.204 386.364 551.74 386.364C543.275 386.364 536.414 393.346 536.414 401.96C536.414 410.573 543.275 417.556 551.74 417.556Z" fill="black"/>
<path d="M521.005 448.832C529.47 448.832 536.331 441.85 536.331 433.236C536.331 424.623 529.47 417.64 521.005 417.64C512.541 417.64 505.679 424.623 505.679 433.236C505.679 441.85 512.541 448.832 521.005 448.832Z" fill="black"/>
<path d="M551.74 448.832C560.204 448.832 567.066 441.85 567.066 433.236C567.066 424.623 560.204 417.64 551.74 417.64C543.275 417.64 536.414 424.623 536.414 433.236C536.414 441.85 543.275 448.832 551.74 448.832Z" fill="black"/>
<path d="M582.392 448.832C590.856 448.832 597.718 441.85 597.718 433.236C597.718 424.623 590.856 417.64 582.392 417.64C573.928 417.64 567.066 424.623 567.066 433.236C567.066 441.85 573.928 448.832 582.392 448.832Z" fill="black"/>
<path d="M521.005 480.025C529.47 480.025 536.331 473.042 536.331 464.429C536.331 455.815 529.47 448.833 521.005 448.833C512.541 448.833 505.679 455.815 505.679 464.429C505.679 473.042 512.541 480.025 521.005 480.025Z" fill="black"/>
<path d="M551.74 480.025C560.204 480.025 567.066 473.042 567.066 464.429C567.066 455.815 560.204 448.833 551.74 448.833C543.275 448.833 536.414 455.815 536.414 464.429C536.414 473.042 543.275 480.025 551.74 480.025Z" fill="black"/>
<path d="M582.392 480.025C590.856 480.025 597.718 473.042 597.718 464.429C597.718 455.815 590.856 448.833 582.392 448.833C573.928 448.833 567.066 455.815 567.066 464.429C567.066 473.042 573.928 480.025 582.392 480.025Z" fill="black"/>
<path d="M521.005 511.301C529.47 511.301 536.331 504.318 536.331 495.705C536.331 487.091 529.47 480.108 521.005 480.108C512.541 480.108 505.679 487.091 505.679 495.705C505.679 504.318 512.541 511.301 521.005 511.301Z" fill="black"/>
<path d="M551.74 511.301C560.204 511.301 567.066 504.318 567.066 495.705C567.066 487.091 560.204 480.108 551.74 480.108C543.275 480.108 536.414 487.091 536.414 495.705C536.414 504.318 543.275 511.301 551.74 511.301Z" fill="black"/>
<path d="M582.392 511.301C590.856 511.301 597.718 504.318 597.718 495.705C597.718 487.091 590.856 480.108 582.392 480.108C573.928 480.108 567.066 487.091 567.066 495.705C567.066 504.318 573.928 511.301 582.392 511.301Z" fill="black"/>
<path d="M428.883 105.046C437.348 105.046 444.209 98.0632 444.209 89.4497C444.209 80.8362 437.348 73.8535 428.883 73.8535C420.419 73.8535 413.557 80.8362 413.557 89.4497C413.557 98.0632 420.419 105.046 428.883 105.046Z" fill="black"/>
<path d="M428.883 136.322C437.348 136.322 444.209 129.339 444.209 120.726C444.209 112.112 437.348 105.129 428.883 105.129C420.419 105.129 413.557 112.112 413.557 120.726C413.557 129.339 420.419 136.322 428.883 136.322Z" fill="black"/>
<path d="M398.149 42.5771C406.613 42.5771 413.475 35.5945 413.475 26.9809C413.475 18.3674 406.613 11.3848 398.149 11.3848C389.684 11.3848 382.823 18.3674 382.823 26.9809C382.823 35.5945 389.684 42.5771 398.149 42.5771Z" fill="black"/>
<path d="M398.149 73.8535C406.613 73.8535 413.475 66.8708 413.475 58.2573C413.475 49.6438 406.613 42.6611 398.149 42.6611C389.684 42.6611 382.823 49.6438 382.823 58.2573C382.823 66.8708 389.684 73.8535 398.149 73.8535Z" fill="black"/>
<path d="M428.883 42.5771C437.348 42.5771 444.209 35.5945 444.209 26.9809C444.209 18.3674 437.348 11.3848 428.883 11.3848C420.419 11.3848 413.557 18.3674 413.557 26.9809C413.557 35.5945 420.419 42.5771 428.883 42.5771Z" fill="black"/>
<path d="M428.883 73.8535C437.348 73.8535 444.209 66.8708 444.209 58.2573C444.209 49.6438 437.348 42.6611 428.883 42.6611C420.419 42.6611 413.557 49.6438 413.557 58.2573C413.557 66.8708 420.419 73.8535 428.883 73.8535Z" fill="black"/>
<path d="M705.248 42.5771C713.712 42.5771 720.574 35.5945 720.574 26.9809C720.574 18.3674 713.712 11.3848 705.248 11.3848C696.783 11.3848 689.922 18.3674 689.922 26.9809C689.922 35.5945 696.783 42.5771 705.248 42.5771Z" fill="black"/>
<path d="M674.514 42.5771C682.978 42.5771 689.84 35.5945 689.84 26.9809C689.84 18.3674 682.978 11.3848 674.514 11.3848C666.049 11.3848 659.188 18.3674 659.188 26.9809C659.188 35.5945 666.049 42.5771 674.514 42.5771Z" fill="black"/>
<path d="M440.502 16.6675H417.348V37.1269H440.502V16.6675Z" fill="black"/>
<path d="M409.685 16.6675H386.531V37.1269H409.685V16.6675Z" fill="black"/>
<path d="M471.071 16.6675H447.917V37.1269H471.071V16.6675Z" fill="black"/>
<path d="M440.502 48.1113H417.348V68.5708H440.502V48.1113Z" fill="black"/>
<path d="M409.685 48.1113H386.531V68.5708H409.685V48.1113Z" fill="black"/>
<path d="M471.071 48.1113H447.917V68.5708H471.071V48.1113Z" fill="black"/>
<path d="M440.502 79.2197H417.348V99.6792H440.502V79.2197Z" fill="black"/>
<path d="M471.071 79.2197H447.917V99.6792H471.071V79.2197Z" fill="black"/>
<path d="M440.502 110.664H417.348V131.123H440.502V110.664Z" fill="black"/>
<path d="M471.071 110.664H447.917V131.123H471.071V110.664Z" fill="black"/>
<path d="M471.071 141.688H447.917V162.148H471.071V141.688Z" fill="black"/>
<path d="M471.071 173.132H447.917V193.592H471.071V173.132Z" fill="black"/>
<path d="M501.806 79.2197H478.652V99.6792H501.806V79.2197Z" fill="black"/>
<path d="M501.806 110.664H478.652V131.123H501.806V110.664Z" fill="black"/>
<path d="M532.623 141.688H509.469V162.148H532.623V141.688Z" fill="black"/>
<path d="M501.806 141.688H478.652V162.148H501.806V141.688Z" fill="black"/>
<path d="M532.623 173.132H509.469V193.592H532.623V173.132Z" fill="black"/>
<path d="M501.806 173.132H478.652V193.592H501.806V173.132Z" fill="black"/>
<path d="M532.623 204.325H509.469V224.784H532.623V204.325Z" fill="black"/>
<path d="M501.806 204.325H478.652V224.784H501.806V204.325Z" fill="black"/>
<path d="M532.623 235.769H509.469V256.228H532.623V235.769Z" fill="black"/>
<path d="M501.806 235.769H478.652V256.228H501.806V235.769Z" fill="black"/>
<path d="M532.623 266.793H509.469V287.252H532.623V266.793Z" fill="black"/>
<path d="M532.623 266.793H509.469V287.252H532.623V266.793Z" fill="black"/>
<path d="M532.623 297.902H509.469V318.361H532.623V297.902Z" fill="black"/>
<path d="M532.623 329.346H509.469V349.805H532.623V329.346Z" fill="black"/>
<path d="M532.623 360.37H509.469V380.83H532.623V360.37Z" fill="black"/>
<path d="M563.193 360.37H540.039V380.83H563.193V360.37Z" fill="black"/>
<path d="M532.623 391.814H509.469V412.273H532.623V391.814Z" fill="black"/>
<path d="M563.193 391.814H540.039V412.273H563.193V391.814Z" fill="black"/>
<path d="M532.623 423.006H509.469V443.466H532.623V423.006Z" fill="black"/>
<path d="M563.193 423.006H540.039V443.466H563.193V423.006Z" fill="black"/>
<path d="M532.623 454.366H509.469V474.826H532.623V454.366Z" fill="black"/>
<path d="M563.193 454.366H540.039V474.826H563.193V454.366Z" fill="black"/>
<path d="M532.623 485.559H509.469V506.018H532.623V485.559Z" fill="black"/>
<path d="M563.193 485.559H540.039V506.018H563.193V485.559Z" fill="black"/>
<path d="M593.928 360.37H570.774V380.83H593.928V360.37Z" fill="black"/>
<path d="M593.928 391.814H570.774V412.273H593.928V391.814Z" fill="black"/>
<path d="M593.928 423.006H570.774V443.466H593.928V423.006Z" fill="black"/>
<path d="M593.928 454.366H570.774V474.826H593.928V454.366Z" fill="black"/>
<path d="M593.928 485.559H570.774V506.018H593.928V485.559Z" fill="black"/>
<path d="M716.866 16.6675H693.712V37.1269H716.866V16.6675Z" fill="black"/>
<path d="M686.049 16.6675H662.895V37.1269H686.049V16.6675Z" fill="black"/>
<path d="M716.866 48.1113H693.712V68.5708H716.866V48.1113Z" fill="black"/>
<path d="M686.049 48.1113H662.895V68.5708H686.049V48.1113Z" fill="black"/>
<path d="M686.049 79.2197H662.895V99.6792H686.049V79.2197Z" fill="black"/>
<path d="M686.049 110.664H662.895V131.123H686.049V110.664Z" fill="black"/>
<path d="M563.194 204.325H540.04V224.784H563.194V204.325Z" fill="black"/>
<path d="M563.194 235.769H540.04V256.228H563.194V235.769Z" fill="black"/>
<path d="M563.194 266.794H540.04V287.253H563.194V266.794Z" fill="black"/>
<path d="M563.194 297.902H540.04V318.361H563.194V297.902Z" fill="black"/>
<path d="M563.194 329.346H540.04V349.805H563.194V329.346Z" fill="black"/>
<path d="M655.313 16.6675H632.159V37.1269H655.313V16.6675Z" fill="black"/>
<path d="M655.313 48.1113H632.159V68.5708H655.313V48.1113Z" fill="black"/>
<path d="M624.743 79.2192H601.589V99.6788H624.743V79.2192Z" fill="black"/>
<path d="M655.313 79.2192H632.159V99.6788H655.313V79.2192Z" fill="black"/>
<path d="M624.743 110.664H601.589V131.123H624.743V110.664Z" fill="black"/>
<path d="M655.313 110.664H632.159V131.123H655.313V110.664Z" fill="black"/>
<path d="M624.743 141.688H601.589V162.148H624.743V141.688Z" fill="black"/>
<path d="M593.932 141.688H570.778V162.148H593.932V141.688Z" fill="black"/>
<path d="M655.313 141.688H632.159V162.148H655.313V141.688Z" fill="black"/>
<path d="M624.743 173.132H601.589V193.592H624.743V173.132Z" fill="black"/>
<path d="M593.932 173.132H570.778V193.592H593.932V173.132Z" fill="black"/>
<path d="M655.313 173.132H632.159V193.592H655.313V173.132Z" fill="black"/>
<path d="M624.743 204.325H601.589V224.784H624.743V204.325Z" fill="black"/>
<path d="M593.932 204.325H570.778V224.784H593.932V204.325Z" fill="black"/>
<path d="M624.743 235.769H601.589V256.228H624.743V235.769Z" fill="black"/>
<path d="M593.932 235.769H570.778V256.228H593.932V235.769Z" fill="black"/>
<path d="M593.932 266.794H570.778V287.253H593.932V266.794Z" fill="black"/>
<path d="M593.932 297.902H570.778V318.361H593.932V297.902Z" fill="black"/>
<path d="M593.932 329.346H570.778V349.805H593.932V329.346Z" fill="black"/>
<path d="M582.395 167.599C590.859 167.599 597.721 160.616 597.721 152.002C597.721 143.389 590.859 136.406 582.395 136.406C573.931 136.406 567.069 143.389 567.069 152.002C567.069 160.616 573.931 167.599 582.395 167.599Z" fill="black"/>
<path d="M643.864 167.599C652.328 167.599 659.19 160.616 659.19 152.002C659.19 143.389 652.328 136.406 643.864 136.406C635.399 136.406 628.538 143.389 628.538 152.002C628.538 160.616 635.399 167.599 643.864 167.599Z" fill="black"/>
<path d="M643.864 198.791C652.328 198.791 659.19 191.808 659.19 183.194C659.19 174.581 652.328 167.598 643.864 167.598C635.399 167.598 628.538 174.581 628.538 183.194C628.538 191.808 635.399 198.791 643.864 198.791Z" fill="black"/>
<path d="M613.125 198.791C621.59 198.791 628.452 191.808 628.452 183.194C628.452 174.581 621.59 167.598 613.125 167.598C604.661 167.598 597.799 174.581 597.799 183.194C597.799 191.808 604.661 198.791 613.125 198.791Z" fill="black"/>
<path d="M613.125 167.599C621.59 167.599 628.452 160.616 628.452 152.002C628.452 143.389 621.59 136.406 613.125 136.406C604.661 136.406 597.799 143.389 597.799 152.002C597.799 160.616 604.661 167.599 613.125 167.599Z" fill="black"/>
<path d="M582.395 198.791C590.859 198.791 597.721 191.808 597.721 183.194C597.721 174.581 590.859 167.598 582.395 167.598C573.931 167.598 567.069 174.581 567.069 183.194C567.069 191.808 573.931 198.791 582.395 198.791Z" fill="black"/>
<path d="M613.125 261.343C621.59 261.343 628.452 254.36 628.452 245.747C628.452 237.133 621.59 230.15 613.125 230.15C604.661 230.15 597.799 237.133 597.799 245.747C597.799 254.36 604.661 261.343 613.125 261.343Z" fill="black"/>
<path d="M613.125 230.066C621.59 230.066 628.452 223.084 628.452 214.47C628.452 205.857 621.59 198.874 613.125 198.874C604.661 198.874 597.799 205.857 597.799 214.47C597.799 223.084 604.661 230.066 613.125 230.066Z" fill="black"/>
<path d="M551.745 230.066C560.209 230.066 567.071 223.084 567.071 214.47C567.071 205.857 560.209 198.874 551.745 198.874C543.281 198.874 536.419 205.857 536.419 214.47C536.419 223.084 543.281 230.066 551.745 230.066Z" fill="black"/>
<path d="M582.395 230.066C590.859 230.066 597.721 223.084 597.721 214.47C597.721 205.857 590.859 198.874 582.395 198.874C573.931 198.874 567.069 205.857 567.069 214.47C567.069 223.084 573.931 230.066 582.395 230.066Z" fill="black"/>
<path d="M551.745 261.343C560.209 261.343 567.071 254.36 567.071 245.747C567.071 237.133 560.209 230.15 551.745 230.15C543.281 230.15 536.419 237.133 536.419 245.747C536.419 254.36 543.281 261.343 551.745 261.343Z" fill="black"/>
<path d="M582.395 261.343C590.859 261.343 597.721 254.36 597.721 245.747C597.721 237.133 590.859 230.15 582.395 230.15C573.931 230.15 567.069 237.133 567.069 245.747C567.069 254.36 573.931 261.343 582.395 261.343Z" fill="black"/>
<path d="M551.745 292.536C560.209 292.536 567.071 285.553 567.071 276.939C567.071 268.326 560.209 261.343 551.745 261.343C543.281 261.343 536.419 268.326 536.419 276.939C536.419 285.553 543.281 292.536 551.745 292.536Z" fill="black"/>
<path d="M551.745 323.812C560.209 323.812 567.071 316.829 567.071 308.215C567.071 299.602 560.209 292.619 551.745 292.619C543.281 292.619 536.419 299.602 536.419 308.215C536.419 316.829 543.281 323.812 551.745 323.812Z" fill="black"/>
<path d="M551.745 355.088C560.209 355.088 567.071 348.105 567.071 339.492C567.071 330.878 560.209 323.896 551.745 323.896C543.281 323.896 536.419 330.878 536.419 339.492C536.419 348.105 543.281 355.088 551.745 355.088Z" fill="black"/>
<path d="M643.864 105.046C652.328 105.046 659.19 98.0637 659.19 89.4502C659.19 80.8367 652.328 73.854 643.864 73.854C635.399 73.854 628.538 80.8367 628.538 89.4502C628.538 98.0637 635.399 105.046 643.864 105.046Z" fill="black"/>
<path d="M643.864 136.322C652.328 136.322 659.19 129.34 659.19 120.726C659.19 112.113 652.328 105.13 643.864 105.13C635.399 105.13 628.538 112.113 628.538 120.726C628.538 129.34 635.399 136.322 643.864 136.322Z" fill="black"/>
<path d="M643.864 42.5771C652.328 42.5771 659.19 35.5945 659.19 26.9809C659.19 18.3674 652.328 11.3848 643.864 11.3848C635.399 11.3848 628.538 18.3674 628.538 26.9809C628.538 35.5945 635.399 42.5771 643.864 42.5771Z" fill="black"/>
<path d="M643.864 73.853C652.328 73.853 659.19 66.8704 659.19 58.2568C659.19 49.6433 652.328 42.6606 643.864 42.6606C635.399 42.6606 628.538 49.6433 628.538 58.2568C628.538 66.8704 635.399 73.853 643.864 73.853Z" fill="black"/>
</svg>
