<svg width="715" height="500" viewBox="0 0 715 500" fill="none" xmlns="http://www.w3.org/2000/svg">
<path d="M15.5962 31.1924C24.2097 31.1924 31.1924 24.2097 31.1924 15.5962C31.1924 6.98265 24.2097 0 15.5962 0C6.98265 0 0 6.98265 0 15.5962C0 24.2097 6.98265 31.1924 15.5962 31.1924Z" fill="black"/>
<path d="M46.8725 31.1924C55.4861 31.1924 62.4687 24.2097 62.4687 15.5962C62.4687 6.98265 55.4861 0 46.8725 0C38.259 0 31.2764 6.98265 31.2764 15.5962C31.2764 24.2097 38.259 31.1924 46.8725 31.1924Z" fill="black"/>
<path d="M15.5962 62.4688C24.2097 62.4688 31.1924 55.4861 31.1924 46.8726C31.1924 38.259 24.2097 31.2764 15.5962 31.2764C6.98265 31.2764 0 38.259 0 46.8726C0 55.4861 6.98265 62.4688 15.5962 62.4688Z" fill="black"/>
<path d="M46.8725 62.4688C55.4861 62.4688 62.4687 55.4861 62.4687 46.8726C62.4687 38.259 55.4861 31.2764 46.8725 31.2764C38.259 31.2764 31.2764 38.259 31.2764 46.8726C31.2764 55.4861 38.259 62.4688 46.8725 62.4688Z" fill="black"/>
<path d="M78.0649 62.4688C86.6785 62.4688 93.6611 55.4861 93.6611 46.8726C93.6611 38.259 86.6785 31.2764 78.0649 31.2764C69.4514 31.2764 62.4688 38.259 62.4688 46.8726C62.4688 55.4861 69.4514 62.4688 78.0649 62.4688Z" fill="black"/>
<path d="M15.5962 93.661C24.2097 93.661 31.1924 86.6784 31.1924 78.0649C31.1924 69.4513 24.2097 62.4688 15.5962 62.4688C6.98265 62.4688 0 69.4513 0 78.0649C0 86.6784 6.98265 93.661 15.5962 93.661Z" fill="black"/>
<path d="M46.8725 93.661C55.4861 93.661 62.4687 86.6784 62.4687 78.0649C62.4687 69.4513 55.4861 62.4688 46.8725 62.4688C38.259 62.4688 31.2764 69.4513 31.2764 78.0649C31.2764 86.6784 38.259 93.661 46.8725 93.661Z" fill="black"/>
<path d="M78.0649 93.661C86.6785 93.661 93.6611 86.6784 93.6611 78.0649C93.6611 69.4513 86.6785 62.4688 78.0649 62.4688C69.4514 62.4688 62.4688 69.4513 62.4688 78.0649C62.4688 86.6784 69.4514 93.661 78.0649 93.661Z" fill="black"/>
<path d="M15.5962 249.958C24.2097 249.958 31.1924 242.975 31.1924 234.362C31.1924 225.748 24.2097 218.766 15.5962 218.766C6.98265 218.766 0 225.748 0 234.362C0 242.975 6.98265 249.958 15.5962 249.958Z" fill="black"/>
<path d="M15.5962 281.234C24.2097 281.234 31.1924 274.252 31.1924 265.638C31.1924 257.025 24.2097 250.042 15.5962 250.042C6.98265 250.042 0 257.025 0 265.638C0 274.252 6.98265 281.234 15.5962 281.234Z" fill="black"/>
<path d="M46.8725 281.234C55.4861 281.234 62.4687 274.252 62.4687 265.638C62.4687 257.025 55.4861 250.042 46.8725 250.042C38.259 250.042 31.2764 257.025 31.2764 265.638C31.2764 274.252 38.259 281.234 46.8725 281.234Z" fill="black"/>
<path d="M15.5962 312.427C24.2097 312.427 31.1924 305.444 31.1924 296.831C31.1924 288.217 24.2097 281.234 15.5962 281.234C6.98265 281.234 0 288.217 0 296.831C0 305.444 6.98265 312.427 15.5962 312.427Z" fill="black"/>
<path d="M46.8725 312.427C55.4861 312.427 62.4687 305.444 62.4687 296.831C62.4687 288.217 55.4861 281.234 46.8725 281.234C38.259 281.234 31.2764 288.217 31.2764 296.831C31.2764 305.444 38.259 312.427 46.8725 312.427Z" fill="black"/>
<path d="M78.0649 312.427C86.6785 312.427 93.6611 305.444 93.6611 296.831C93.6611 288.217 86.6785 281.234 78.0649 281.234C69.4514 281.234 62.4688 288.217 62.4688 296.831C62.4688 305.444 69.4514 312.427 78.0649 312.427Z" fill="black"/>
<path d="M15.5962 343.703C24.2097 343.703 31.1924 336.72 31.1924 328.107C31.1924 319.493 24.2097 312.511 15.5962 312.511C6.98265 312.511 0 319.493 0 328.107C0 336.72 6.98265 343.703 15.5962 343.703Z" fill="black"/>
<path d="M46.8725 343.703C55.4861 343.703 62.4687 336.72 62.4687 328.107C62.4687 319.493 55.4861 312.511 46.8725 312.511C38.259 312.511 31.2764 319.493 31.2764 328.107C31.2764 336.72 38.259 343.703 46.8725 343.703Z" fill="black"/>
<path d="M78.0649 343.703C86.6785 343.703 93.6611 336.72 93.6611 328.107C93.6611 319.493 86.6785 312.511 78.0649 312.511C69.4514 312.511 62.4688 319.493 62.4688 328.107C62.4688 336.72 69.4514 343.703 78.0649 343.703Z" fill="black"/>
<path d="M15.5962 499.916C24.2097 499.916 31.1924 492.933 31.1924 484.32C31.1924 475.706 24.2097 468.724 15.5962 468.724C6.98265 468.724 0 475.706 0 484.32C0 492.933 6.98265 499.916 15.5962 499.916Z" fill="black"/>
<path d="M46.8725 499.916C55.4861 499.916 62.4687 492.933 62.4687 484.32C62.4687 475.706 55.4861 468.724 46.8725 468.724C38.259 468.724 31.2764 475.706 31.2764 484.32C31.2764 492.933 38.259 499.916 46.8725 499.916Z" fill="black"/>
<path d="M78.0649 499.916C86.6785 499.916 93.6611 492.933 93.6611 484.32C93.6611 475.706 86.6785 468.724 78.0649 468.724C69.4514 468.724 62.4688 475.706 62.4688 484.32C62.4688 492.933 69.4514 499.916 78.0649 499.916Z" fill="black"/>
<path d="M109.341 93.661C117.955 93.661 124.937 86.6784 124.937 78.0649C124.937 69.4513 117.955 62.4688 109.341 62.4688C100.728 62.4688 93.7451 69.4513 93.7451 78.0649C93.7451 86.6784 100.728 93.661 109.341 93.661Z" fill="black"/>
<path d="M203.085 31.1924C211.699 31.1924 218.682 24.2097 218.682 15.5962C218.682 6.98265 211.699 0 203.085 0C194.472 0 187.489 6.98265 187.489 15.5962C187.489 24.2097 194.472 31.1924 203.085 31.1924Z" fill="black"/>
<path d="M234.362 31.1924C242.975 31.1924 249.958 24.2097 249.958 15.5962C249.958 6.98265 242.975 0 234.362 0C225.748 0 218.766 6.98265 218.766 15.5962C218.766 24.2097 225.748 31.1924 234.362 31.1924Z" fill="black"/>
<path d="M265.554 31.1924C274.168 31.1924 281.15 24.2097 281.15 15.5962C281.15 6.98265 274.168 0 265.554 0C256.941 0 249.958 6.98265 249.958 15.5962C249.958 24.2097 256.941 31.1924 265.554 31.1924Z" fill="black"/>
<path d="M203.085 62.4688C211.699 62.4688 218.682 55.4861 218.682 46.8726C218.682 38.259 211.699 31.2764 203.085 31.2764C194.472 31.2764 187.489 38.259 187.489 46.8726C187.489 55.4861 194.472 62.4688 203.085 62.4688Z" fill="black"/>
<path d="M234.362 62.4688C242.975 62.4688 249.958 55.4861 249.958 46.8726C249.958 38.259 242.975 31.2764 234.362 31.2764C225.748 31.2764 218.766 38.259 218.766 46.8726C218.766 55.4861 225.748 62.4688 234.362 62.4688Z" fill="black"/>
<path d="M265.554 62.4688C274.168 62.4688 281.15 55.4861 281.15 46.8726C281.15 38.259 274.168 31.2764 265.554 31.2764C256.941 31.2764 249.958 38.259 249.958 46.8726C249.958 55.4861 256.941 62.4688 265.554 62.4688Z" fill="black"/>
<path d="M203.085 93.661C211.699 93.661 218.682 86.6784 218.682 78.0649C218.682 69.4513 211.699 62.4688 203.085 62.4688C194.472 62.4688 187.489 69.4513 187.489 78.0649C187.489 86.6784 194.472 93.661 203.085 93.661Z" fill="black"/>
<path d="M234.362 93.661C242.975 93.661 249.958 86.6784 249.958 78.0649C249.958 69.4513 242.975 62.4688 234.362 62.4688C225.748 62.4688 218.766 69.4513 218.766 78.0649C218.766 86.6784 225.748 93.661 234.362 93.661Z" fill="black"/>
<path d="M265.554 93.661C274.168 93.661 281.15 86.6784 281.15 78.0649C281.15 69.4513 274.168 62.4688 265.554 62.4688C256.941 62.4688 249.958 69.4513 249.958 78.0649C249.958 86.6784 256.941 93.661 265.554 93.661Z" fill="black"/>
<path d="M296.831 62.4688C305.444 62.4688 312.427 55.4861 312.427 46.8726C312.427 38.259 305.444 31.2764 296.831 31.2764C288.217 31.2764 281.234 38.259 281.234 46.8726C281.234 55.4861 288.217 62.4688 296.831 62.4688Z" fill="black"/>
<path d="M296.831 93.661C305.444 93.661 312.427 86.6784 312.427 78.0649C312.427 69.4513 305.444 62.4688 296.831 62.4688C288.217 62.4688 281.234 69.4513 281.234 78.0649C281.234 86.6784 288.217 93.661 296.831 93.661Z" fill="black"/>
<path d="M328.107 93.661C336.72 93.661 343.703 86.6784 343.703 78.0649C343.703 69.4513 336.72 62.4688 328.107 62.4688C319.493 62.4688 312.511 69.4513 312.511 78.0649C312.511 86.6784 319.493 93.661 328.107 93.661Z" fill="black"/>
<path d="M296.831 124.937C305.444 124.937 312.427 117.955 312.427 109.341C312.427 100.728 305.444 93.7451 296.831 93.7451C288.217 93.7451 281.234 100.728 281.234 109.341C281.234 117.955 288.217 124.937 296.831 124.937Z" fill="black"/>
<path d="M328.107 124.937C336.72 124.937 343.703 117.955 343.703 109.341C343.703 100.728 336.72 93.7451 328.107 93.7451C319.493 93.7451 312.511 100.728 312.511 109.341C312.511 117.955 319.493 124.937 328.107 124.937Z" fill="black"/>
<path d="M359.383 124.937C367.997 124.937 374.979 117.955 374.979 109.341C374.979 100.728 367.997 93.7451 359.383 93.7451C350.77 93.7451 343.787 100.728 343.787 109.341C343.787 117.955 350.77 124.937 359.383 124.937Z" fill="black"/>
<path d="M265.554 124.937C274.168 124.937 281.15 117.955 281.15 109.341C281.15 100.728 274.168 93.7451 265.554 93.7451C256.941 93.7451 249.958 100.728 249.958 109.341C249.958 117.955 256.941 124.937 265.554 124.937Z" fill="black"/>
<path d="M296.831 156.214C305.444 156.214 312.427 149.231 312.427 140.618C312.427 132.004 305.444 125.021 296.831 125.021C288.217 125.021 281.234 132.004 281.234 140.618C281.234 149.231 288.217 156.214 296.831 156.214Z" fill="black"/>
<path d="M328.107 156.214C336.72 156.214 343.703 149.231 343.703 140.618C343.703 132.004 336.72 125.021 328.107 125.021C319.493 125.021 312.511 132.004 312.511 140.618C312.511 149.231 319.493 156.214 328.107 156.214Z" fill="black"/>
<path d="M359.383 156.214C367.997 156.214 374.979 149.231 374.979 140.618C374.979 132.004 367.997 125.021 359.383 125.021C350.77 125.021 343.787 132.004 343.787 140.618C343.787 149.231 350.77 156.214 359.383 156.214Z" fill="black"/>
<path d="M359.383 187.405C367.997 187.405 374.979 180.423 374.979 171.809C374.979 163.196 367.997 156.213 359.383 156.213C350.77 156.213 343.787 163.196 343.787 171.809C343.787 180.423 350.77 187.405 359.383 187.405Z" fill="black"/>
<path d="M296.831 156.214C305.444 156.214 312.427 149.231 312.427 140.618C312.427 132.004 305.444 125.021 296.831 125.021C288.217 125.021 281.234 132.004 281.234 140.618C281.234 149.231 288.217 156.214 296.831 156.214Z" fill="black"/>
<path d="M328.107 156.214C336.72 156.214 343.703 149.231 343.703 140.618C343.703 132.004 336.72 125.021 328.107 125.021C319.493 125.021 312.511 132.004 312.511 140.618C312.511 149.231 319.493 156.214 328.107 156.214Z" fill="black"/>
<path d="M359.383 156.214C367.997 156.214 374.979 149.231 374.979 140.618C374.979 132.004 367.997 125.021 359.383 125.021C350.77 125.021 343.787 132.004 343.787 140.618C343.787 149.231 350.77 156.214 359.383 156.214Z" fill="black"/>
<path d="M359.383 187.405C367.997 187.405 374.979 180.423 374.979 171.809C374.979 163.196 367.997 156.213 359.383 156.213C350.77 156.213 343.787 163.196 343.787 171.809C343.787 180.423 350.77 187.405 359.383 187.405Z" fill="black"/>
<path d="M359.383 281.234C367.997 281.234 374.979 274.252 374.979 265.638C374.979 257.025 367.997 250.042 359.383 250.042C350.77 250.042 343.787 257.025 343.787 265.638C343.787 274.252 350.77 281.234 359.383 281.234Z" fill="black"/>
<path d="M328.107 312.427C336.72 312.427 343.703 305.444 343.703 296.831C343.703 288.217 336.72 281.234 328.107 281.234C319.493 281.234 312.511 288.217 312.511 296.831C312.511 305.444 319.493 312.427 328.107 312.427Z" fill="black"/>
<path d="M359.383 312.427C367.997 312.427 374.979 305.444 374.979 296.831C374.979 288.217 367.997 281.234 359.383 281.234C350.77 281.234 343.787 288.217 343.787 296.831C343.787 305.444 350.77 312.427 359.383 312.427Z" fill="black"/>
<path d="M359.383 281.234C367.997 281.234 374.979 274.252 374.979 265.638C374.979 257.025 367.997 250.042 359.383 250.042C350.77 250.042 343.787 257.025 343.787 265.638C343.787 274.252 350.77 281.234 359.383 281.234Z" fill="black"/>
<path d="M328.107 312.427C336.72 312.427 343.703 305.444 343.703 296.831C343.703 288.217 336.72 281.234 328.107 281.234C319.493 281.234 312.511 288.217 312.511 296.831C312.511 305.444 319.493 312.427 328.107 312.427Z" fill="black"/>
<path d="M359.383 312.427C367.997 312.427 374.979 305.444 374.979 296.831C374.979 288.217 367.997 281.234 359.383 281.234C350.77 281.234 343.787 288.217 343.787 296.831C343.787 305.444 350.77 312.427 359.383 312.427Z" fill="black"/>
<path d="M296.831 343.703C305.444 343.703 312.427 336.72 312.427 328.107C312.427 319.493 305.444 312.511 296.831 312.511C288.217 312.511 281.234 319.493 281.234 328.107C281.234 336.72 288.217 343.703 296.831 343.703Z" fill="black"/>
<path d="M328.107 343.703C336.72 343.703 343.703 336.72 343.703 328.107C343.703 319.493 336.72 312.511 328.107 312.511C319.493 312.511 312.511 319.493 312.511 328.107C312.511 336.72 319.493 343.703 328.107 343.703Z" fill="black"/>
<path d="M359.383 343.703C367.997 343.703 374.979 336.72 374.979 328.107C374.979 319.493 367.997 312.511 359.383 312.511C350.77 312.511 343.787 319.493 343.787 328.107C343.787 336.72 350.77 343.703 359.383 343.703Z" fill="black"/>
<path d="M328.107 374.979C336.72 374.979 343.703 367.997 343.703 359.383C343.703 350.77 336.72 343.787 328.107 343.787C319.493 343.787 312.511 350.77 312.511 359.383C312.511 367.997 319.493 374.979 328.107 374.979Z" fill="black"/>
<path d="M359.383 374.979C367.997 374.979 374.979 367.997 374.979 359.383C374.979 350.77 367.997 343.787 359.383 343.787C350.77 343.787 343.787 350.77 343.787 359.383C343.787 367.997 350.77 374.979 359.383 374.979Z" fill="black"/>
<path d="M296.831 374.979C305.444 374.979 312.427 367.997 312.427 359.383C312.427 350.77 305.444 343.787 296.831 343.787C288.217 343.787 281.234 350.77 281.234 359.383C281.234 367.997 288.217 374.979 296.831 374.979Z" fill="black"/>
<path d="M296.831 343.703C305.444 343.703 312.427 336.72 312.427 328.107C312.427 319.493 305.444 312.511 296.831 312.511C288.217 312.511 281.234 319.493 281.234 328.107C281.234 336.72 288.217 343.703 296.831 343.703Z" fill="black"/>
<path d="M328.107 343.703C336.72 343.703 343.703 336.72 343.703 328.107C343.703 319.493 336.72 312.511 328.107 312.511C319.493 312.511 312.511 319.493 312.511 328.107C312.511 336.72 319.493 343.703 328.107 343.703Z" fill="black"/>
<path d="M359.383 343.703C367.997 343.703 374.979 336.72 374.979 328.107C374.979 319.493 367.997 312.511 359.383 312.511C350.77 312.511 343.787 319.493 343.787 328.107C343.787 336.72 350.77 343.703 359.383 343.703Z" fill="black"/>
<path d="M328.107 374.979C336.72 374.979 343.703 367.997 343.703 359.383C343.703 350.77 336.72 343.787 328.107 343.787C319.493 343.787 312.511 350.77 312.511 359.383C312.511 367.997 319.493 374.979 328.107 374.979Z" fill="black"/>
<path d="M359.383 374.979C367.997 374.979 374.979 367.997 374.979 359.383C374.979 350.77 367.997 343.787 359.383 343.787C350.77 343.787 343.787 350.77 343.787 359.383C343.787 367.997 350.77 374.979 359.383 374.979Z" fill="black"/>
<path d="M296.831 374.979C305.444 374.979 312.427 367.997 312.427 359.383C312.427 350.77 305.444 343.787 296.831 343.787C288.217 343.787 281.234 350.77 281.234 359.383C281.234 367.997 288.217 374.979 296.831 374.979Z" fill="black"/>
<path d="M109.341 499.916C117.955 499.916 124.937 492.933 124.937 484.32C124.937 475.706 117.955 468.724 109.341 468.724C100.728 468.724 93.7451 475.706 93.7451 484.32C93.7451 492.933 100.728 499.916 109.341 499.916Z" fill="black"/>
<path d="M140.618 499.916C149.231 499.916 156.214 492.933 156.214 484.32C156.214 475.706 149.231 468.724 140.618 468.724C132.004 468.724 125.021 475.706 125.021 484.32C125.021 492.933 132.004 499.916 140.618 499.916Z" fill="black"/>
<path d="M171.809 499.916C180.423 499.916 187.405 492.933 187.405 484.32C187.405 475.706 180.423 468.724 171.809 468.724C163.196 468.724 156.213 475.706 156.213 484.32C156.213 492.933 163.196 499.916 171.809 499.916Z" fill="black"/>
<path d="M109.341 468.724C117.955 468.724 124.937 461.741 124.937 453.127C124.937 444.514 117.955 437.531 109.341 437.531C100.728 437.531 93.7451 444.514 93.7451 453.127C93.7451 461.741 100.728 468.724 109.341 468.724Z" fill="black"/>
<path d="M140.618 468.724C149.231 468.724 156.214 461.741 156.214 453.127C156.214 444.514 149.231 437.531 140.618 437.531C132.004 437.531 125.021 444.514 125.021 453.127C125.021 461.741 132.004 468.724 140.618 468.724Z" fill="black"/>
<path d="M203.085 499.916C211.699 499.916 218.682 492.933 218.682 484.32C218.682 475.706 211.699 468.724 203.085 468.724C194.472 468.724 187.489 475.706 187.489 484.32C187.489 492.933 194.472 499.916 203.085 499.916Z" fill="black"/>
<path d="M234.362 499.916C242.975 499.916 249.958 492.933 249.958 484.32C249.958 475.706 242.975 468.724 234.362 468.724C225.748 468.724 218.766 475.706 218.766 484.32C218.766 492.933 225.748 499.916 234.362 499.916Z" fill="black"/>
<path d="M265.554 499.916C274.168 499.916 281.15 492.933 281.15 484.32C281.15 475.706 274.168 468.724 265.554 468.724C256.941 468.724 249.958 475.706 249.958 484.32C249.958 492.933 256.941 499.916 265.554 499.916Z" fill="black"/>
<path d="M296.831 468.724C305.444 468.724 312.427 461.741 312.427 453.127C312.427 444.514 305.444 437.531 296.831 437.531C288.217 437.531 281.234 444.514 281.234 453.127C281.234 461.741 288.217 468.724 296.831 468.724Z" fill="black"/>
<path d="M296.831 437.447C305.444 437.447 312.427 430.465 312.427 421.851C312.427 413.237 305.444 406.255 296.831 406.255C288.217 406.255 281.234 413.237 281.234 421.851C281.234 430.465 288.217 437.447 296.831 437.447Z" fill="black"/>
<path d="M328.107 437.447C336.72 437.447 343.703 430.465 343.703 421.851C343.703 413.237 336.72 406.255 328.107 406.255C319.493 406.255 312.511 413.237 312.511 421.851C312.511 430.465 319.493 437.447 328.107 437.447Z" fill="black"/>
<path d="M296.831 406.172C305.444 406.172 312.427 399.189 312.427 390.576C312.427 381.962 305.444 374.979 296.831 374.979C288.217 374.979 281.234 381.962 281.234 390.576C281.234 399.189 288.217 406.172 296.831 406.172Z" fill="black"/>
<path d="M328.107 406.172C336.72 406.172 343.703 399.189 343.703 390.576C343.703 381.962 336.72 374.979 328.107 374.979C319.493 374.979 312.511 381.962 312.511 390.576C312.511 399.189 319.493 406.172 328.107 406.172Z" fill="black"/>
<path d="M359.383 406.172C367.997 406.172 374.979 399.189 374.979 390.576C374.979 381.962 367.997 374.979 359.383 374.979C350.77 374.979 343.787 381.962 343.787 390.576C343.787 399.189 350.77 406.172 359.383 406.172Z" fill="black"/>
<path d="M58.7787 5.19922H35.2168V25.6587H58.7787V5.19922Z" fill="black"/>
<path d="M27.3354 5.19922H3.77344V25.6587H27.3354V5.19922Z" fill="black"/>
<path d="M89.8881 5.19922H66.3262V25.6587H89.8881V5.19922Z" fill="black"/>
<path d="M58.7787 36.6426H35.2168V57.102H58.7787V36.6426Z" fill="black"/>
<path d="M27.3354 36.6426H3.77344V57.102H27.3354V36.6426Z" fill="black"/>
<path d="M89.8881 36.6426H66.3262V57.102H89.8881V36.6426Z" fill="black"/>
<path d="M58.7787 67.835H35.2168V88.2944H58.7787V67.835Z" fill="black"/>
<path d="M27.3354 67.835H3.77344V88.2944H27.3354V67.835Z" fill="black"/>
<path d="M89.8881 67.835H66.3262V88.2944H89.8881V67.835Z" fill="black"/>
<path d="M58.7787 99.2793H35.2168V119.739H58.7787V99.2793Z" fill="black"/>
<path d="M27.3354 99.2793H3.77344V119.739H27.3354V99.2793Z" fill="black"/>
<path d="M89.8881 99.2793H66.3262V119.739H89.8881V99.2793Z" fill="black"/>
<path d="M58.7787 130.304H35.2168V150.763H58.7787V130.304Z" fill="black"/>
<path d="M27.3354 130.304H3.77344V150.763H27.3354V130.304Z" fill="black"/>
<path d="M89.8881 130.304H66.3262V150.763H89.8881V130.304Z" fill="black"/>
<path d="M58.7787 161.747H35.2168V182.207H58.7787V161.747Z" fill="black"/>
<path d="M27.3354 161.747H3.77344V182.207H27.3354V161.747Z" fill="black"/>
<path d="M89.8881 161.747H66.3262V182.207H89.8881V161.747Z" fill="black"/>
<path d="M58.7787 192.855H35.2168V213.315H58.7787V192.855Z" fill="black"/>
<path d="M27.3354 192.855H3.77344V213.315H27.3354V192.855Z" fill="black"/>
<path d="M89.8881 192.855H66.3262V213.315H89.8881V192.855Z" fill="black"/>
<path d="M58.7787 224.3H35.2168V244.759H58.7787V224.3Z" fill="black"/>
<path d="M27.3354 224.3H3.77344V244.759H27.3354V224.3Z" fill="black"/>
<path d="M89.8881 224.3H66.3262V244.759H89.8881V224.3Z" fill="black"/>
<path d="M58.7787 255.324H35.2168V275.784H58.7787V255.324Z" fill="black"/>
<path d="M58.7787 255.324H35.2168V275.784H58.7787V255.324Z" fill="black"/>
<path d="M27.3354 255.324H3.77344V275.784H27.3354V255.324Z" fill="black"/>
<path d="M89.8881 255.324H66.3262V275.784H89.8881V255.324Z" fill="black"/>
<path d="M58.7787 286.517H35.2168V306.976H58.7787V286.517Z" fill="black"/>
<path d="M27.3354 286.517H3.77344V306.976H27.3354V286.517Z" fill="black"/>
<path d="M89.8881 286.517H66.3262V306.976H89.8881V286.517Z" fill="black"/>
<path d="M58.7787 317.961H35.2168V338.42H58.7787V317.961Z" fill="black"/>
<path d="M27.3354 317.961H3.77344V338.42H27.3354V317.961Z" fill="black"/>
<path d="M89.8881 317.961H66.3262V338.42H89.8881V317.961Z" fill="black"/>
<path d="M58.7787 348.985H35.2168V369.445H58.7787V348.985Z" fill="black"/>
<path d="M27.3354 348.985H3.77344V369.445H27.3354V348.985Z" fill="black"/>
<path d="M89.8881 348.985H66.3262V369.445H89.8881V348.985Z" fill="black"/>
<path d="M58.7787 380.43H35.2168V400.889H58.7787V380.43Z" fill="black"/>
<path d="M27.3354 380.43H3.77344V400.889H27.3354V380.43Z" fill="black"/>
<path d="M89.8881 380.43H66.3262V400.889H89.8881V380.43Z" fill="black"/>
<path d="M58.7787 411.538H35.2168V431.998H58.7787V411.538Z" fill="black"/>
<path d="M27.3354 411.538H3.77344V431.998H27.3354V411.538Z" fill="black"/>
<path d="M89.8881 411.538H66.3262V431.998H89.8881V411.538Z" fill="black"/>
<path d="M58.7787 442.981H35.2168V463.441H58.7787V442.981Z" fill="black"/>
<path d="M27.3354 442.981H3.77344V463.441H27.3354V442.981Z" fill="black"/>
<path d="M89.8881 442.981H66.3262V463.441H89.8881V442.981Z" fill="black"/>
<path d="M58.7787 474.174H35.2168V494.633H58.7787V474.174Z" fill="black"/>
<path d="M27.3354 474.174H3.77344V494.633H27.3354V474.174Z" fill="black"/>
<path d="M89.8881 474.174H66.3262V494.633H89.8881V474.174Z" fill="black"/>
<path d="M152.524 5.19922H128.962V25.6587H152.524V5.19922Z" fill="black"/>
<path d="M121.08 5.19922H97.5186V25.6587H121.08V5.19922Z" fill="black"/>
<path d="M183.632 5.19922H160.07V25.6587H183.632V5.19922Z" fill="black"/>
<path d="M152.524 36.6426H128.962V57.102H152.524V36.6426Z" fill="black"/>
<path d="M121.08 36.6426H97.5186V57.102H121.08V36.6426Z" fill="black"/>
<path d="M183.632 36.6426H160.07V57.102H183.632V36.6426Z" fill="black"/>
<path d="M152.524 67.835H128.962V88.2944H152.524V67.835Z" fill="black"/>
<path d="M121.08 67.835H97.5186V88.2944H121.08V67.835Z" fill="black"/>
<path d="M183.632 67.835H160.07V88.2944H183.632V67.835Z" fill="black"/>
<path d="M246.269 5.19922H222.707V25.6587H246.269V5.19922Z" fill="black"/>
<path d="M214.825 5.19922H191.263V25.6587H214.825V5.19922Z" fill="black"/>
<path d="M277.377 5.19922H253.815V25.6587H277.377V5.19922Z" fill="black"/>
<path d="M246.269 36.6426H222.707V57.102H246.269V36.6426Z" fill="black"/>
<path d="M214.825 36.6426H191.263V57.102H214.825V36.6426Z" fill="black"/>
<path d="M277.377 36.6426H253.815V57.102H277.377V36.6426Z" fill="black"/>
<path d="M246.269 67.835H222.707V88.2944H246.269V67.835Z" fill="black"/>
<path d="M214.825 67.835H191.263V88.2944H214.825V67.835Z" fill="black"/>
<path d="M277.377 67.835H253.815V88.2944H277.377V67.835Z" fill="black"/>
<path d="M308.654 36.6426H285.092V57.102H308.654V36.6426Z" fill="black"/>
<path d="M308.654 67.835H285.092V88.2944H308.654V67.835Z" fill="black"/>
<path d="M308.654 99.2793H285.092V119.739H308.654V99.2793Z" fill="black"/>
<path d="M308.654 130.304H285.092V150.763H308.654V130.304Z" fill="black"/>
<path d="M308.654 161.747H285.092V182.207H308.654V161.747Z" fill="black"/>
<path d="M308.654 192.855H285.092V213.315H308.654V192.855Z" fill="black"/>
<path d="M308.654 224.3H285.092V244.759H308.654V224.3Z" fill="black"/>
<path d="M308.654 255.324H285.092V275.784H308.654V255.324Z" fill="black"/>
<path d="M308.654 286.517H285.092V306.976H308.654V286.517Z" fill="black"/>
<path d="M308.654 317.961H285.092V338.42H308.654V317.961Z" fill="black"/>
<path d="M308.654 348.985H285.092V369.445H308.654V348.985Z" fill="black"/>
<path d="M308.654 380.43H285.092V400.889H308.654V380.43Z" fill="black"/>
<path d="M308.654 411.538H285.092V431.998H308.654V411.538Z" fill="black"/>
<path d="M277.377 99.2793H253.815V119.739H277.377V99.2793Z" fill="black"/>
<path d="M339.846 67.835H316.284V88.2944H339.846V67.835Z" fill="black"/>
<path d="M339.846 99.2793H316.284V119.739H339.846V99.2793Z" fill="black"/>
<path d="M339.846 130.304H316.284V150.763H339.846V130.304Z" fill="black"/>
<path d="M339.846 161.747H316.284V182.207H339.846V161.747Z" fill="black"/>
<path d="M339.846 192.855H316.284V213.315H339.846V192.855Z" fill="black"/>
<path d="M339.846 224.3H316.284V244.759H339.846V224.3Z" fill="black"/>
<path d="M339.846 255.324H316.284V275.784H339.846V255.324Z" fill="black"/>
<path d="M339.846 286.517H316.284V306.976H339.846V286.517Z" fill="black"/>
<path d="M339.846 317.961H316.284V338.42H339.846V317.961Z" fill="black"/>
<path d="M339.846 348.985H316.284V369.445H339.846V348.985Z" fill="black"/>
<path d="M339.846 380.43H316.284V400.889H339.846V380.43Z" fill="black"/>
<path d="M339.846 411.538H316.284V431.998H339.846V411.538Z" fill="black"/>
<path d="M371.122 99.2793H347.56V119.739H371.122V99.2793Z" fill="black"/>
<path d="M371.122 130.304H347.56V150.763H371.122V130.304Z" fill="black"/>
<path d="M371.122 161.747H347.56V182.207H371.122V161.747Z" fill="black"/>
<path d="M371.122 192.855H347.56V213.315H371.122V192.855Z" fill="black"/>
<path d="M371.122 224.3H347.56V244.759H371.122V224.3Z" fill="black"/>
<path d="M371.122 255.324H347.56V275.784H371.122V255.324Z" fill="black"/>
<path d="M371.122 286.517H347.56V306.976H371.122V286.517Z" fill="black"/>
<path d="M371.122 317.961H347.56V338.42H371.122V317.961Z" fill="black"/>
<path d="M371.122 348.985H347.56V369.445H371.122V348.985Z" fill="black"/>
<path d="M371.122 380.43H347.56V400.889H371.122V380.43Z" fill="black"/>
<path d="M277.377 380.43H253.815V400.889H277.377V380.43Z" fill="black"/>
<path d="M277.377 411.538H253.815V431.998H277.377V411.538Z" fill="black"/>
<path d="M277.377 442.981H253.815V463.441H277.377V442.981Z" fill="black"/>
<path d="M277.377 474.174H253.815V494.633H277.377V474.174Z" fill="black"/>
<path d="M152.524 411.538H128.962V431.998H152.524V411.538Z" fill="black"/>
<path d="M121.08 411.538H97.5186V431.998H121.08V411.538Z" fill="black"/>
<path d="M183.632 411.538H160.07V431.998H183.632V411.538Z" fill="black"/>
<path d="M152.524 442.981H128.962V463.441H152.524V442.981Z" fill="black"/>
<path d="M121.08 442.981H97.5186V463.441H121.08V442.981Z" fill="black"/>
<path d="M183.632 442.981H160.07V463.441H183.632V442.981Z" fill="black"/>
<path d="M152.524 474.174H128.962V494.633H152.524V474.174Z" fill="black"/>
<path d="M121.08 474.174H97.5186V494.633H121.08V474.174Z" fill="black"/>
<path d="M183.632 474.174H160.07V494.633H183.632V474.174Z" fill="black"/>
<path d="M246.269 411.538H222.707V431.998H246.269V411.538Z" fill="black"/>
<path d="M214.825 411.538H191.263V431.998H214.825V411.538Z" fill="black"/>
<path d="M246.269 442.981H222.707V463.441H246.269V442.981Z" fill="black"/>
<path d="M214.825 442.981H191.263V463.441H214.825V442.981Z" fill="black"/>
<path d="M246.269 474.174H222.707V494.633H246.269V474.174Z" fill="black"/>
<path d="M214.825 474.174H191.263V494.633H214.825V474.174Z" fill="black"/>
<path d="M308.654 442.981H285.092V463.441H308.654V442.981Z" fill="black"/>
<path d="M418.079 31.1924C426.692 31.1924 433.675 24.2097 433.675 15.5962C433.675 6.98265 426.692 0 418.079 0C409.465 0 402.482 6.98265 402.482 15.5962C402.482 24.2097 409.465 31.1924 418.079 31.1924Z" fill="black"/>
<path d="M449.355 31.1924C457.969 31.1924 464.951 24.2097 464.951 15.5962C464.951 6.98265 457.969 0 449.355 0C440.741 0 433.759 6.98265 433.759 15.5962C433.759 24.2097 440.741 31.1924 449.355 31.1924Z" fill="black"/>
<path d="M480.631 31.1924C489.245 31.1924 496.228 24.2097 496.228 15.5962C496.228 6.98265 489.245 0 480.631 0C472.018 0 465.035 6.98265 465.035 15.5962C465.035 24.2097 472.018 31.1924 480.631 31.1924Z" fill="black"/>
<path d="M449.355 62.4687C457.969 62.4687 464.951 55.4861 464.951 46.8725C464.951 38.259 457.969 31.2764 449.355 31.2764C440.741 31.2764 433.759 38.259 433.759 46.8725C433.759 55.4861 440.741 62.4687 449.355 62.4687Z" fill="black"/>
<path d="M480.631 62.4687C489.245 62.4687 496.228 55.4861 496.228 46.8725C496.228 38.259 489.245 31.2764 480.631 31.2764C472.018 31.2764 465.035 38.259 465.035 46.8725C465.035 55.4861 472.018 62.4687 480.631 62.4687Z" fill="black"/>
<path d="M480.631 93.7451C489.245 93.7451 496.228 86.7624 496.228 78.1489C496.228 69.5354 489.245 62.5527 480.631 62.5527C472.018 62.5527 465.035 69.5354 465.035 78.1489C465.035 86.7624 472.018 93.7451 480.631 93.7451Z" fill="black"/>
<path d="M418.079 218.682C426.692 218.682 433.675 211.699 433.675 203.085C433.675 194.472 426.692 187.489 418.079 187.489C409.465 187.489 402.482 194.472 402.482 203.085C402.482 211.699 409.465 218.682 418.079 218.682Z" fill="black"/>
<path d="M449.355 218.682C457.969 218.682 464.951 211.699 464.951 203.085C464.951 194.472 457.969 187.489 449.355 187.489C440.741 187.489 433.759 194.472 433.759 203.085C433.759 211.699 440.741 218.682 449.355 218.682Z" fill="black"/>
<path d="M480.631 218.682C489.245 218.682 496.228 211.699 496.228 203.085C496.228 194.472 489.245 187.489 480.631 187.489C472.018 187.489 465.035 194.472 465.035 203.085C465.035 211.699 472.018 218.682 480.631 218.682Z" fill="black"/>
<path d="M418.079 249.958C426.692 249.958 433.675 242.975 433.675 234.362C433.675 225.748 426.692 218.766 418.079 218.766C409.465 218.766 402.482 225.748 402.482 234.362C402.482 242.975 409.465 249.958 418.079 249.958Z" fill="black"/>
<path d="M449.355 249.958C457.969 249.958 464.951 242.975 464.951 234.362C464.951 225.748 457.969 218.766 449.355 218.766C440.741 218.766 433.759 225.748 433.759 234.362C433.759 242.975 440.741 249.958 449.355 249.958Z" fill="black"/>
<path d="M480.631 249.958C489.245 249.958 496.228 242.975 496.228 234.362C496.228 225.748 489.245 218.766 480.631 218.766C472.018 218.766 465.035 225.748 465.035 234.362C465.035 242.975 472.018 249.958 480.631 249.958Z" fill="black"/>
<path d="M418.079 281.234C426.692 281.234 433.675 274.252 433.675 265.638C433.675 257.025 426.692 250.042 418.079 250.042C409.465 250.042 402.482 257.025 402.482 265.638C402.482 274.252 409.465 281.234 418.079 281.234Z" fill="black"/>
<path d="M449.355 281.234C457.969 281.234 464.951 274.252 464.951 265.638C464.951 257.025 457.969 250.042 449.355 250.042C440.741 250.042 433.759 257.025 433.759 265.638C433.759 274.252 440.741 281.234 449.355 281.234Z" fill="black"/>
<path d="M418.079 312.427C426.692 312.427 433.675 305.444 433.675 296.831C433.675 288.217 426.692 281.234 418.079 281.234C409.465 281.234 402.482 288.217 402.482 296.831C402.482 305.444 409.465 312.427 418.079 312.427Z" fill="black"/>
<path d="M449.355 312.427C457.969 312.427 464.951 305.444 464.951 296.831C464.951 288.217 457.969 281.234 449.355 281.234C440.741 281.234 433.759 288.217 433.759 296.831C433.759 305.444 440.741 312.427 449.355 312.427Z" fill="black"/>
<path d="M418.079 343.703C426.692 343.703 433.675 336.72 433.675 328.107C433.675 319.493 426.692 312.511 418.079 312.511C409.465 312.511 402.482 319.493 402.482 328.107C402.482 336.72 409.465 343.703 418.079 343.703Z" fill="black"/>
<path d="M449.355 343.703C457.969 343.703 464.951 336.72 464.951 328.107C464.951 319.493 457.969 312.511 449.355 312.511C440.741 312.511 433.759 319.493 433.759 328.107C433.759 336.72 440.741 343.703 449.355 343.703Z" fill="black"/>
<path d="M418.079 468.724C426.692 468.724 433.675 461.741 433.675 453.127C433.675 444.514 426.692 437.531 418.079 437.531C409.465 437.531 402.482 444.514 402.482 453.127C402.482 461.741 409.465 468.724 418.079 468.724Z" fill="black"/>
<path d="M449.355 468.724C457.969 468.724 464.951 461.741 464.951 453.127C464.951 444.514 457.969 437.531 449.355 437.531C440.741 437.531 433.759 444.514 433.759 453.127C433.759 461.741 440.741 468.724 449.355 468.724Z" fill="black"/>
<path d="M418.079 500C426.692 500 433.675 493.017 433.675 484.404C433.675 475.79 426.692 468.808 418.079 468.808C409.465 468.808 402.482 475.79 402.482 484.404C402.482 493.017 409.465 500 418.079 500Z" fill="black"/>
<path d="M449.355 500C457.969 500 464.951 493.017 464.951 484.404C464.951 475.79 457.969 468.808 449.355 468.808C440.741 468.808 433.759 475.79 433.759 484.404C433.759 493.017 440.741 500 449.355 500Z" fill="black"/>
<path d="M574.375 93.7451C582.989 93.7451 589.972 86.7624 589.972 78.1489C589.972 69.5354 582.989 62.5527 574.375 62.5527C565.762 62.5527 558.779 69.5354 558.779 78.1489C558.779 86.7624 565.762 93.7451 574.375 93.7451Z" fill="black"/>
<path d="M543.1 31.1924C551.714 31.1924 558.696 24.2097 558.696 15.5962C558.696 6.98265 551.714 0 543.1 0C534.487 0 527.504 6.98265 527.504 15.5962C527.504 24.2097 534.487 31.1924 543.1 31.1924Z" fill="black"/>
<path d="M543.1 62.4687C551.714 62.4687 558.696 55.4861 558.696 46.8725C558.696 38.259 551.714 31.2764 543.1 31.2764C534.487 31.2764 527.504 38.259 527.504 46.8725C527.504 55.4861 534.487 62.4687 543.1 62.4687Z" fill="black"/>
<path d="M543.1 93.7451C551.714 93.7451 558.696 86.7624 558.696 78.1489C558.696 69.5354 551.714 62.5527 543.1 62.5527C534.487 62.5527 527.504 69.5354 527.504 78.1489C527.504 86.7624 534.487 93.7451 543.1 93.7451Z" fill="black"/>
<path d="M511.824 31.1924C520.437 31.1924 527.42 24.2097 527.42 15.5962C527.42 6.98265 520.437 0 511.824 0C503.21 0 496.228 6.98265 496.228 15.5962C496.228 24.2097 503.21 31.1924 511.824 31.1924Z" fill="black"/>
<path d="M511.824 62.4687C520.437 62.4687 527.42 55.4861 527.42 46.8725C527.42 38.259 520.437 31.2764 511.824 31.2764C503.21 31.2764 496.228 38.259 496.228 46.8725C496.228 55.4861 503.21 62.4687 511.824 62.4687Z" fill="black"/>
<path d="M511.824 93.7451C520.437 93.7451 527.42 86.7624 527.42 78.1489C527.42 69.5354 520.437 62.5527 511.824 62.5527C503.21 62.5527 496.228 69.5354 496.228 78.1489C496.228 86.7624 503.21 93.7451 511.824 93.7451Z" fill="black"/>
<path d="M699.397 31.1924C708.01 31.1924 714.993 24.2097 714.993 15.5962C714.993 6.98265 708.01 0 699.397 0C690.783 0 683.801 6.98265 683.801 15.5962C683.801 24.2097 690.783 31.1924 699.397 31.1924Z" fill="black"/>
<path d="M699.397 62.4687C708.01 62.4687 714.993 55.4861 714.993 46.8725C714.993 38.259 708.01 31.2764 699.397 31.2764C690.783 31.2764 683.801 38.259 683.801 46.8725C683.801 55.4861 690.783 62.4687 699.397 62.4687Z" fill="black"/>
<path d="M699.397 93.7451C708.01 93.7451 714.993 86.7624 714.993 78.1489C714.993 69.5354 708.01 62.5527 699.397 62.5527C690.783 62.5527 683.801 69.5354 683.801 78.1489C683.801 86.7624 690.783 93.7451 699.397 93.7451Z" fill="black"/>
<path d="M668.121 93.7451C676.734 93.7451 683.717 86.7624 683.717 78.1489C683.717 69.5354 676.734 62.5527 668.121 62.5527C659.507 62.5527 652.524 69.5354 652.524 78.1489C652.524 86.7624 659.507 93.7451 668.121 93.7451Z" fill="black"/>
<path d="M605.568 247.945C614.181 247.945 621.164 240.963 621.164 232.349C621.164 223.736 614.181 216.753 605.568 216.753C596.954 216.753 589.972 223.736 589.972 232.349C589.972 240.963 596.954 247.945 605.568 247.945Z" fill="black"/>
<path d="M605.568 279.222C614.181 279.222 621.164 272.239 621.164 263.625C621.164 255.012 614.181 248.029 605.568 248.029C596.954 248.029 589.972 255.012 589.972 263.625C589.972 272.239 596.954 279.222 605.568 279.222Z" fill="black"/>
<path d="M574.375 247.945C582.989 247.945 589.972 240.963 589.972 232.349C589.972 223.736 582.989 216.753 574.375 216.753C565.762 216.753 558.779 223.736 558.779 232.349C558.779 240.963 565.762 247.945 574.375 247.945Z" fill="black"/>
<path d="M543.1 247.945C551.714 247.945 558.696 240.963 558.696 232.349C558.696 223.736 551.714 216.753 543.1 216.753C534.487 216.753 527.504 223.736 527.504 232.349C527.504 240.963 534.487 247.945 543.1 247.945Z" fill="black"/>
<path d="M511.824 216.753C520.437 216.753 527.42 209.77 527.42 201.157C527.42 192.543 520.437 185.561 511.824 185.561C503.21 185.561 496.228 192.543 496.228 201.157C496.228 209.77 503.21 216.753 511.824 216.753Z" fill="black"/>
<path d="M511.824 247.945C520.437 247.945 527.42 240.963 527.42 232.349C527.42 223.736 520.437 216.753 511.824 216.753C503.21 216.753 496.228 223.736 496.228 232.349C496.228 240.963 503.21 247.945 511.824 247.945Z" fill="black"/>
<path d="M699.397 216.753C708.01 216.753 714.993 209.77 714.993 201.157C714.993 192.543 708.01 185.561 699.397 185.561C690.783 185.561 683.801 192.543 683.801 201.157C683.801 209.77 690.783 216.753 699.397 216.753Z" fill="black"/>
<path d="M668.121 216.753C676.734 216.753 683.717 209.77 683.717 201.157C683.717 192.543 676.734 185.561 668.121 185.561C659.507 185.561 652.524 192.543 652.524 201.157C652.524 209.77 659.507 216.753 668.121 216.753Z" fill="black"/>
<path d="M668.121 247.945C676.734 247.945 683.717 240.963 683.717 232.349C683.717 223.736 676.734 216.753 668.121 216.753C659.507 216.753 652.524 223.736 652.524 232.349C652.524 240.963 659.507 247.945 668.121 247.945Z" fill="black"/>
<path d="M668.121 279.222C676.734 279.222 683.717 272.239 683.717 263.625C683.717 255.012 676.734 248.029 668.121 248.029C659.507 248.029 652.524 255.012 652.524 263.625C652.524 272.239 659.507 279.222 668.121 279.222Z" fill="black"/>
<path d="M636.844 247.945C645.458 247.945 652.44 240.963 652.44 232.349C652.44 223.736 645.458 216.753 636.844 216.753C628.231 216.753 621.248 223.736 621.248 232.349C621.248 240.963 628.231 247.945 636.844 247.945Z" fill="black"/>
<path d="M636.844 279.222C645.458 279.222 652.44 272.239 652.44 263.625C652.44 255.012 645.458 248.029 636.844 248.029C628.231 248.029 621.248 255.012 621.248 263.625C621.248 272.239 628.231 279.222 636.844 279.222Z" fill="black"/>
<path d="M605.568 437.447C614.181 437.447 621.164 430.465 621.164 421.851C621.164 413.238 614.181 406.255 605.568 406.255C596.954 406.255 589.972 413.238 589.972 421.851C589.972 430.465 596.954 437.447 605.568 437.447Z" fill="black"/>
<path d="M574.375 437.447C582.989 437.447 589.972 430.465 589.972 421.851C589.972 413.238 582.989 406.255 574.375 406.255C565.762 406.255 558.779 413.238 558.779 421.851C558.779 430.465 565.762 437.447 574.375 437.447Z" fill="black"/>
<path d="M543.1 437.447C551.714 437.447 558.696 430.465 558.696 421.851C558.696 413.238 551.714 406.255 543.1 406.255C534.487 406.255 527.504 413.238 527.504 421.851C527.504 430.465 534.487 437.447 543.1 437.447Z" fill="black"/>
<path d="M511.824 437.447C520.437 437.447 527.42 430.465 527.42 421.851C527.42 413.238 520.437 406.255 511.824 406.255C503.21 406.255 496.228 413.238 496.228 421.851C496.228 430.465 503.21 437.447 511.824 437.447Z" fill="black"/>
<path d="M699.397 437.447C708.01 437.447 714.993 430.465 714.993 421.851C714.993 413.238 708.01 406.255 699.397 406.255C690.783 406.255 683.801 413.238 683.801 421.851C683.801 430.465 690.783 437.447 699.397 437.447Z" fill="black"/>
<path d="M668.121 437.447C676.734 437.447 683.717 430.465 683.717 421.851C683.717 413.238 676.734 406.255 668.121 406.255C659.507 406.255 652.524 413.238 652.524 421.851C652.524 430.465 659.507 437.447 668.121 437.447Z" fill="black"/>
<path d="M636.844 437.447C645.458 437.447 652.44 430.465 652.44 421.851C652.44 413.238 645.458 406.255 636.844 406.255C628.231 406.255 621.248 413.238 621.248 421.851C621.248 430.465 628.231 437.447 636.844 437.447Z" fill="black"/>
<path d="M461.261 5.19824H437.699V25.6577H461.261V5.19824Z" fill="black"/>
<path d="M429.902 5.19824H406.34V25.6577H429.902V5.19824Z" fill="black"/>
<path d="M492.371 5.19824H468.809V25.6577H492.371V5.19824Z" fill="black"/>
<path d="M461.261 36.6426H437.699V57.1021H461.261V36.6426Z" fill="black"/>
<path d="M429.902 36.6426H406.34V57.1021H429.902V36.6426Z" fill="black"/>
<path d="M492.371 36.6426H468.809V57.1021H492.371V36.6426Z" fill="black"/>
<path d="M461.261 67.835H437.699V88.2945H461.261V67.835Z" fill="black"/>
<path d="M429.902 67.835H406.34V88.2945H429.902V67.835Z" fill="black"/>
<path d="M492.371 67.835H468.809V88.2945H492.371V67.835Z" fill="black"/>
<path d="M461.261 99.2793H437.699V119.739H461.261V99.2793Z" fill="black"/>
<path d="M429.902 99.2793H406.34V119.739H429.902V99.2793Z" fill="black"/>
<path d="M492.371 99.2793H468.809V119.739H492.371V99.2793Z" fill="black"/>
<path d="M461.261 130.304H437.699V150.763H461.261V130.304Z" fill="black"/>
<path d="M429.902 130.304H406.34V150.763H429.902V130.304Z" fill="black"/>
<path d="M492.371 130.304H468.809V150.763H492.371V130.304Z" fill="black"/>
<path d="M461.261 161.747H437.699V182.207H461.261V161.747Z" fill="black"/>
<path d="M429.902 161.747H406.34V182.207H429.902V161.747Z" fill="black"/>
<path d="M492.371 161.747H468.809V182.207H492.371V161.747Z" fill="black"/>
<path d="M461.261 192.855H437.699V213.315H461.261V192.855Z" fill="black"/>
<path d="M429.902 192.855H406.34V213.315H429.902V192.855Z" fill="black"/>
<path d="M492.371 192.855H468.809V213.315H492.371V192.855Z" fill="black"/>
<path d="M461.261 224.3H437.699V244.759H461.261V224.3Z" fill="black"/>
<path d="M429.902 224.3H406.34V244.759H429.902V224.3Z" fill="black"/>
<path d="M492.371 224.3H468.809V244.759H492.371V224.3Z" fill="black"/>
<path d="M461.261 255.324H437.699V275.784H461.261V255.324Z" fill="black"/>
<path d="M461.261 255.324H437.699V275.784H461.261V255.324Z" fill="black"/>
<path d="M429.902 255.324H406.34V275.784H429.902V255.324Z" fill="black"/>
<path d="M492.371 255.324H468.809V275.784H492.371V255.324Z" fill="black"/>
<path d="M461.261 286.517H437.699V306.976H461.261V286.517Z" fill="black"/>
<path d="M429.902 286.517H406.34V306.976H429.902V286.517Z" fill="black"/>
<path d="M492.371 286.517H468.809V306.976H492.371V286.517Z" fill="black"/>
<path d="M461.261 317.961H437.699V338.42H461.261V317.961Z" fill="black"/>
<path d="M429.902 317.961H406.34V338.42H429.902V317.961Z" fill="black"/>
<path d="M492.371 317.961H468.809V338.42H492.371V317.961Z" fill="black"/>
<path d="M461.261 348.985H437.699V369.445H461.261V348.985Z" fill="black"/>
<path d="M429.902 348.985H406.34V369.445H429.902V348.985Z" fill="black"/>
<path d="M492.371 348.985H468.809V369.445H492.371V348.985Z" fill="black"/>
<path d="M461.261 380.43H437.699V400.889H461.261V380.43Z" fill="black"/>
<path d="M429.902 380.43H406.34V400.889H429.902V380.43Z" fill="black"/>
<path d="M492.371 380.43H468.809V400.889H492.371V380.43Z" fill="black"/>
<path d="M461.261 411.538H437.699V431.998H461.261V411.538Z" fill="black"/>
<path d="M429.902 411.538H406.34V431.998H429.902V411.538Z" fill="black"/>
<path d="M492.371 411.538H468.809V431.998H492.371V411.538Z" fill="black"/>
<path d="M461.261 442.981H437.699V463.441H461.261V442.981Z" fill="black"/>
<path d="M429.902 442.981H406.34V463.441H429.902V442.981Z" fill="black"/>
<path d="M492.371 442.981H468.809V463.441H492.371V442.981Z" fill="black"/>
<path d="M461.261 474.174H437.699V494.633H461.261V474.174Z" fill="black"/>
<path d="M429.902 474.174H406.34V494.633H429.902V474.174Z" fill="black"/>
<path d="M492.371 474.174H468.809V494.633H492.371V474.174Z" fill="black"/>
<path d="M554.838 5.19824H531.276V25.6577H554.838V5.19824Z" fill="black"/>
<path d="M523.479 5.19824H499.917V25.6577H523.479V5.19824Z" fill="black"/>
<path d="M585.947 5.19824H562.385V25.6577H585.947V5.19824Z" fill="black"/>
<path d="M554.838 36.6426H531.276V57.1021H554.838V36.6426Z" fill="black"/>
<path d="M523.479 36.6426H499.917V57.1021H523.479V36.6426Z" fill="black"/>
<path d="M585.947 36.6426H562.385V57.1021H585.947V36.6426Z" fill="black"/>
<path d="M554.838 67.835H531.276V88.2945H554.838V67.835Z" fill="black"/>
<path d="M523.479 67.835H499.917V88.2945H523.479V67.835Z" fill="black"/>
<path d="M585.947 67.835H562.385V88.2945H585.947V67.835Z" fill="black"/>
<path d="M680.028 5.4502H656.466V25.9097H680.028V5.4502Z" fill="black"/>
<path d="M648.667 5.4502H625.105V25.9097H648.667V5.4502Z" fill="black"/>
<path d="M711.136 5.4502H687.574V25.9097H711.136V5.4502Z" fill="black"/>
<path d="M680.028 36.4746H656.466V56.9341H680.028V36.4746Z" fill="black"/>
<path d="M648.667 36.4746H625.105V56.9341H648.667V36.4746Z" fill="black"/>
<path d="M711.136 36.4746H687.574V56.9341H711.136V36.4746Z" fill="black"/>
<path d="M680.028 67.9189H656.466V88.3784H680.028V67.9189Z" fill="black"/>
<path d="M648.667 67.9189H625.105V88.3784H648.667V67.9189Z" fill="black"/>
<path d="M711.136 67.9189H687.574V88.3784H711.136V67.9189Z" fill="black"/>
<path d="M617.307 5.19824H593.745V25.6577H617.307V5.19824Z" fill="black"/>
<path d="M617.307 36.6426H593.745V57.1021H617.307V36.6426Z" fill="black"/>
<path d="M617.307 67.835H593.745V88.2945H617.307V67.835Z" fill="black"/>
<path d="M554.838 190.928H531.276V211.387H554.838V190.928Z" fill="black"/>
<path d="M523.479 190.928H499.917V211.387H523.479V190.928Z" fill="black"/>
<path d="M585.947 190.928H562.385V211.387H585.947V190.928Z" fill="black"/>
<path d="M554.838 222.371H531.276V242.831H554.838V222.371Z" fill="black"/>
<path d="M523.479 222.371H499.917V242.831H523.479V222.371Z" fill="black"/>
<path d="M585.947 222.371H562.385V242.831H585.947V222.371Z" fill="black"/>
<path d="M554.838 253.479H531.276V273.939H554.838V253.479Z" fill="black"/>
<path d="M523.479 253.479H499.917V273.939H523.479V253.479Z" fill="black"/>
<path d="M585.947 253.479H562.385V273.939H585.947V253.479Z" fill="black"/>
<path d="M680.028 191.179H656.466V211.638H680.028V191.179Z" fill="black"/>
<path d="M648.667 191.179H625.105V211.638H648.667V191.179Z" fill="black"/>
<path d="M711.136 191.179H687.574V211.638H711.136V191.179Z" fill="black"/>
<path d="M680.028 222.12H656.466V242.58H680.028V222.12Z" fill="black"/>
<path d="M648.667 222.12H625.105V242.58H648.667V222.12Z" fill="black"/>
<path d="M711.136 222.12H687.574V242.58H711.136V222.12Z" fill="black"/>
<path d="M680.028 253.563H656.466V274.023H680.028V253.563Z" fill="black"/>
<path d="M648.667 253.563H625.105V274.023H648.667V253.563Z" fill="black"/>
<path d="M711.136 253.563H687.574V274.023H711.136V253.563Z" fill="black"/>
<path d="M617.307 190.928H593.745V211.387H617.307V190.928Z" fill="black"/>
<path d="M617.307 222.371H593.745V242.831H617.307V222.371Z" fill="black"/>
<path d="M617.307 253.479H593.745V273.939H617.307V253.479Z" fill="black"/>
<path d="M554.838 411.622H531.276V432.082H554.838V411.622Z" fill="black"/>
<path d="M523.479 411.622H499.917V432.082H523.479V411.622Z" fill="black"/>
<path d="M585.947 411.622H562.385V432.082H585.947V411.622Z" fill="black"/>
<path d="M554.838 443.065H531.276V463.525H554.838V443.065Z" fill="black"/>
<path d="M523.479 443.065H499.917V463.525H523.479V443.065Z" fill="black"/>
<path d="M585.947 443.065H562.385V463.525H585.947V443.065Z" fill="black"/>
<path d="M554.838 474.258H531.276V494.717H554.838V474.258Z" fill="black"/>
<path d="M523.479 474.258H499.917V494.717H523.479V474.258Z" fill="black"/>
<path d="M585.947 474.258H562.385V494.717H585.947V474.258Z" fill="black"/>
<path d="M680.028 411.873H656.466V432.333H680.028V411.873Z" fill="black"/>
<path d="M648.667 411.873H625.105V432.333H648.667V411.873Z" fill="black"/>
<path d="M711.136 411.873H687.574V432.333H711.136V411.873Z" fill="black"/>
<path d="M680.028 442.897H656.466V463.357H680.028V442.897Z" fill="black"/>
<path d="M648.667 442.897H625.105V463.357H648.667V442.897Z" fill="black"/>
<path d="M711.136 442.897H687.574V463.357H711.136V442.897Z" fill="black"/>
<path d="M680.028 474.342H656.466V494.801H680.028V474.342Z" fill="black"/>
<path d="M648.667 474.342H625.105V494.801H648.667V474.342Z" fill="black"/>
<path d="M711.136 474.342H687.574V494.801H711.136V474.342Z" fill="black"/>
<path d="M617.307 411.622H593.745V432.082H617.307V411.622Z" fill="black"/>
<path d="M617.307 443.065H593.745V463.525H617.307V443.065Z" fill="black"/>
<path d="M617.307 474.258H593.745V494.717H617.307V474.258Z" fill="black"/>
</svg>
