<svg width="680" height="506" viewBox="0 0 680 506" fill="none" xmlns="http://www.w3.org/2000/svg">
<path d="M18.5686 34.1924C27.1669 34.1924 34.1372 27.2097 34.1372 18.5962C34.1372 9.98265 27.1669 3 18.5686 3C9.9703 3 3 9.98265 3 18.5962C3 27.2097 9.9703 34.1924 18.5686 34.1924Z" stroke="black" stroke-width="5" stroke-miterlimit="10"/>
<path d="M81.0105 34.1924C89.6088 34.1924 96.5791 27.2097 96.5791 18.5962C96.5791 9.98265 89.6088 3 81.0105 3C72.4122 3 65.4419 9.98265 65.4419 18.5962C65.4419 27.2097 72.4122 34.1924 81.0105 34.1924Z" stroke="black" stroke-width="5" stroke-miterlimit="10"/>
<path d="M18.5686 65.4687C27.1669 65.4687 34.1372 58.486 34.1372 49.8725C34.1372 41.259 27.1669 34.2764 18.5686 34.2764C9.9703 34.2764 3 41.259 3 49.8725C3 58.486 9.9703 65.4687 18.5686 65.4687Z" stroke="black" stroke-width="5" stroke-miterlimit="10"/>
<path d="M81.0105 65.4687C89.6088 65.4687 96.5791 58.486 96.5791 49.8725C96.5791 41.259 89.6088 34.2764 81.0105 34.2764C72.4122 34.2764 65.4419 41.259 65.4419 49.8725C65.4419 58.486 72.4122 65.4687 81.0105 65.4687Z" stroke="black" stroke-width="5" stroke-miterlimit="10"/>
<path d="M18.5686 96.7446C27.1669 96.7446 34.1372 89.762 34.1372 81.1484C34.1372 72.5349 27.1669 65.5522 18.5686 65.5522C9.9703 65.5522 3 72.5349 3 81.1484C3 89.762 9.9703 96.7446 18.5686 96.7446Z" stroke="black" stroke-width="5" stroke-miterlimit="10"/>
<path d="M81.0105 96.7446C89.6088 96.7446 96.5791 89.762 96.5791 81.1484C96.5791 72.5349 89.6088 65.5522 81.0105 65.5522C72.4122 65.5522 65.4419 72.5349 65.4419 81.1484C65.4419 89.762 72.4122 96.7446 81.0105 96.7446Z" stroke="black" stroke-width="5" stroke-miterlimit="10"/>
<path d="M18.5686 127.937C27.1669 127.937 34.1372 120.954 34.1372 112.341C34.1372 103.727 27.1669 96.7446 18.5686 96.7446C9.9703 96.7446 3 103.727 3 112.341C3 120.954 9.9703 127.937 18.5686 127.937Z" stroke="black" stroke-width="5" stroke-miterlimit="10"/>
<path d="M81.0105 127.937C89.6088 127.937 96.5791 120.954 96.5791 112.341C96.5791 103.727 89.6088 96.7446 81.0105 96.7446C72.4122 96.7446 65.4419 103.727 65.4419 112.341C65.4419 120.954 72.4122 127.937 81.0105 127.937Z" stroke="black" stroke-width="5" stroke-miterlimit="10"/>
<path d="M18.5686 159.213C27.1669 159.213 34.1372 152.231 34.1372 143.617C34.1372 135.004 27.1669 128.021 18.5686 128.021C9.9703 128.021 3 135.004 3 143.617C3 152.231 9.9703 159.213 18.5686 159.213Z" stroke="black" stroke-width="5" stroke-miterlimit="10"/>
<path d="M81.0105 159.213C89.6088 159.213 96.5791 152.231 96.5791 143.617C96.5791 135.004 89.6088 128.021 81.0105 128.021C72.4122 128.021 65.4419 135.004 65.4419 143.617C65.4419 152.231 72.4122 159.213 81.0105 159.213Z" stroke="black" stroke-width="5" stroke-miterlimit="10"/>
<path d="M18.5686 190.49C27.1669 190.49 34.1372 183.507 34.1372 174.894C34.1372 166.28 27.1669 159.297 18.5686 159.297C9.9703 159.297 3 166.28 3 174.894C3 183.507 9.9703 190.49 18.5686 190.49Z" stroke="black" stroke-width="5" stroke-miterlimit="10"/>
<path d="M81.0105 190.49C89.6088 190.49 96.5791 183.507 96.5791 174.894C96.5791 166.28 89.6088 159.297 81.0105 159.297C72.4122 159.297 65.4419 166.28 65.4419 174.894C65.4419 183.507 72.4122 190.49 81.0105 190.49Z" stroke="black" stroke-width="5" stroke-miterlimit="10"/>
<path d="M18.5686 221.682C27.1669 221.682 34.1372 214.699 34.1372 206.086C34.1372 197.472 27.1669 190.49 18.5686 190.49C9.9703 190.49 3 197.472 3 206.086C3 214.699 9.9703 221.682 18.5686 221.682Z" stroke="black" stroke-width="5" stroke-miterlimit="10"/>
<path d="M81.0105 221.682C89.6088 221.682 96.5791 214.699 96.5791 206.086C96.5791 197.472 89.6088 190.49 81.0105 190.49C72.4122 190.49 65.4419 197.472 65.4419 206.086C65.4419 214.699 72.4122 221.682 81.0105 221.682Z" stroke="black" stroke-width="5" stroke-miterlimit="10"/>
<path d="M18.5686 252.958C27.1669 252.958 34.1372 245.975 34.1372 237.362C34.1372 228.748 27.1669 221.766 18.5686 221.766C9.9703 221.766 3 228.748 3 237.362C3 245.975 9.9703 252.958 18.5686 252.958Z" stroke="black" stroke-width="5" stroke-miterlimit="10"/>
<path d="M81.0105 252.958C89.6088 252.958 96.5791 245.975 96.5791 237.362C96.5791 228.748 89.6088 221.766 81.0105 221.766C72.4122 221.766 65.4419 228.748 65.4419 237.362C65.4419 245.975 72.4122 252.958 81.0105 252.958Z" stroke="black" stroke-width="5" stroke-miterlimit="10"/>
<path d="M18.5686 284.234C27.1669 284.234 34.1372 277.252 34.1372 268.638C34.1372 260.025 27.1669 253.042 18.5686 253.042C9.9703 253.042 3 260.025 3 268.638C3 277.252 9.9703 284.234 18.5686 284.234Z" stroke="black" stroke-width="5" stroke-miterlimit="10"/>
<path d="M81.0105 284.234C89.6088 284.234 96.5791 277.252 96.5791 268.638C96.5791 260.025 89.6088 253.042 81.0105 253.042C72.4122 253.042 65.4419 260.025 65.4419 268.638C65.4419 277.252 72.4122 284.234 81.0105 284.234Z" stroke="black" stroke-width="5" stroke-miterlimit="10"/>
<path d="M18.5686 315.427C27.1669 315.427 34.1372 308.444 34.1372 299.831C34.1372 291.217 27.1669 284.234 18.5686 284.234C9.9703 284.234 3 291.217 3 299.831C3 308.444 9.9703 315.427 18.5686 315.427Z" stroke="black" stroke-width="5" stroke-miterlimit="10"/>
<path d="M81.0105 315.427C89.6088 315.427 96.5791 308.444 96.5791 299.831C96.5791 291.217 89.6088 284.234 81.0105 284.234C72.4122 284.234 65.4419 291.217 65.4419 299.831C65.4419 308.444 72.4122 315.427 81.0105 315.427Z" stroke="black" stroke-width="5" stroke-miterlimit="10"/>
<path d="M18.5686 346.703C27.1669 346.703 34.1372 339.72 34.1372 331.106C34.1372 322.493 27.1669 315.51 18.5686 315.51C9.9703 315.51 3 322.493 3 331.106C3 339.72 9.9703 346.703 18.5686 346.703Z" stroke="black" stroke-width="5" stroke-miterlimit="10"/>
<path d="M81.0105 346.703C89.6088 346.703 96.5791 339.72 96.5791 331.106C96.5791 322.493 89.6088 315.51 81.0105 315.51C72.4122 315.51 65.4419 322.493 65.4419 331.106C65.4419 339.72 72.4122 346.703 81.0105 346.703Z" stroke="black" stroke-width="5" stroke-miterlimit="10"/>
<path d="M18.5686 377.979C27.1669 377.979 34.1372 370.996 34.1372 362.383C34.1372 353.769 27.1669 346.787 18.5686 346.787C9.9703 346.787 3 353.769 3 362.383C3 370.996 9.9703 377.979 18.5686 377.979Z" stroke="black" stroke-width="5" stroke-miterlimit="10"/>
<path d="M81.0105 377.979C89.6088 377.979 96.5791 370.996 96.5791 362.383C96.5791 353.769 89.6088 346.787 81.0105 346.787C72.4122 346.787 65.4419 353.769 65.4419 362.383C65.4419 370.996 72.4122 377.979 81.0105 377.979Z" stroke="black" stroke-width="5" stroke-miterlimit="10"/>
<path d="M18.5686 409.171C27.1669 409.171 34.1372 402.189 34.1372 393.575C34.1372 384.962 27.1669 377.979 18.5686 377.979C9.9703 377.979 3 384.962 3 393.575C3 402.189 9.9703 409.171 18.5686 409.171Z" stroke="black" stroke-width="5" stroke-miterlimit="10"/>
<path d="M81.0105 409.171C89.6088 409.171 96.5791 402.189 96.5791 393.575C96.5791 384.962 89.6088 377.979 81.0105 377.979C72.4122 377.979 65.4419 384.962 65.4419 393.575C65.4419 402.189 72.4122 409.171 81.0105 409.171Z" stroke="black" stroke-width="5" stroke-miterlimit="10"/>
<path d="M18.5686 440.448C27.1669 440.448 34.1372 433.465 34.1372 424.852C34.1372 416.238 27.1669 409.255 18.5686 409.255C9.9703 409.255 3 416.238 3 424.852C3 433.465 9.9703 440.448 18.5686 440.448Z" stroke="black" stroke-width="5" stroke-miterlimit="10"/>
<path d="M81.0105 440.448C89.6088 440.448 96.5791 433.465 96.5791 424.852C96.5791 416.238 89.6088 409.255 81.0105 409.255C72.4122 409.255 65.4419 416.238 65.4419 424.852C65.4419 433.465 72.4122 440.448 81.0105 440.448Z" stroke="black" stroke-width="5" stroke-miterlimit="10"/>
<path d="M18.5686 471.724C27.1669 471.724 34.1372 464.741 34.1372 456.127C34.1372 447.514 27.1669 440.531 18.5686 440.531C9.9703 440.531 3 447.514 3 456.127C3 464.741 9.9703 471.724 18.5686 471.724Z" stroke="black" stroke-width="5" stroke-miterlimit="10"/>
<path d="M81.0105 471.724C89.6088 471.724 96.5791 464.741 96.5791 456.127C96.5791 447.514 89.6088 440.531 81.0105 440.531C72.4122 440.531 65.4419 447.514 65.4419 456.127C65.4419 464.741 72.4122 471.724 81.0105 471.724Z" stroke="black" stroke-width="5" stroke-miterlimit="10"/>
<path d="M18.5686 502.916C27.1669 502.916 34.1372 495.933 34.1372 487.32C34.1372 478.706 27.1669 471.724 18.5686 471.724C9.9703 471.724 3 478.706 3 487.32C3 495.933 9.9703 502.916 18.5686 502.916Z" stroke="black" stroke-width="5" stroke-miterlimit="10"/>
<path d="M81.0105 502.916C89.6088 502.916 96.5791 495.933 96.5791 487.32C96.5791 478.706 89.6088 471.724 81.0105 471.724C72.4122 471.724 65.4419 478.706 65.4419 487.32C65.4419 495.933 72.4122 502.916 81.0105 502.916Z" stroke="black" stroke-width="5" stroke-miterlimit="10"/>
<path d="M143.368 34.1924C151.967 34.1924 158.937 27.2097 158.937 18.5962C158.937 9.98265 151.967 3 143.368 3C134.77 3 127.8 9.98265 127.8 18.5962C127.8 27.2097 134.77 34.1924 143.368 34.1924Z" stroke="black" stroke-width="5" stroke-miterlimit="10"/>
<path d="M143.368 65.4687C151.967 65.4687 158.937 58.486 158.937 49.8725C158.937 41.259 151.967 34.2764 143.368 34.2764C134.77 34.2764 127.8 41.259 127.8 49.8725C127.8 58.486 134.77 65.4687 143.368 65.4687Z" stroke="black" stroke-width="5" stroke-miterlimit="10"/>
<path d="M143.368 96.7446C151.967 96.7446 158.937 89.762 158.937 81.1484C158.937 72.5349 151.967 65.5522 143.368 65.5522C134.77 65.5522 127.8 72.5349 127.8 81.1484C127.8 89.762 134.77 96.7446 143.368 96.7446Z" stroke="black" stroke-width="5" stroke-miterlimit="10"/>
<path d="M205.727 34.1924C214.325 34.1924 221.295 27.2097 221.295 18.5962C221.295 9.98265 214.325 3 205.727 3C197.128 3 190.158 9.98265 190.158 18.5962C190.158 27.2097 197.128 34.1924 205.727 34.1924Z" stroke="black" stroke-width="5" stroke-miterlimit="10"/>
<path d="M268.169 34.1924C276.767 34.1924 283.737 27.2097 283.737 18.5962C283.737 9.98265 276.767 3 268.169 3C259.57 3 252.6 9.98265 252.6 18.5962C252.6 27.2097 259.57 34.1924 268.169 34.1924Z" stroke="black" stroke-width="5" stroke-miterlimit="10"/>
<path d="M205.727 65.4687C214.325 65.4687 221.295 58.486 221.295 49.8725C221.295 41.259 214.325 34.2764 205.727 34.2764C197.128 34.2764 190.158 41.259 190.158 49.8725C190.158 58.486 197.128 65.4687 205.727 65.4687Z" stroke="black" stroke-width="5" stroke-miterlimit="10"/>
<path d="M268.169 65.4687C276.767 65.4687 283.737 58.486 283.737 49.8725C283.737 41.259 276.767 34.2764 268.169 34.2764C259.57 34.2764 252.6 41.259 252.6 49.8725C252.6 58.486 259.57 65.4687 268.169 65.4687Z" stroke="black" stroke-width="5" stroke-miterlimit="10"/>
<path d="M205.727 96.7446C214.325 96.7446 221.295 89.762 221.295 81.1484C221.295 72.5349 214.325 65.5522 205.727 65.5522C197.128 65.5522 190.158 72.5349 190.158 81.1484C190.158 89.762 197.128 96.7446 205.727 96.7446Z" stroke="black" stroke-width="5" stroke-miterlimit="10"/>
<path d="M268.169 96.7446C276.767 96.7446 283.737 89.762 283.737 81.1484C283.737 72.5349 276.767 65.5522 268.169 65.5522C259.57 65.5522 252.6 72.5349 252.6 81.1484C252.6 89.762 259.57 96.7446 268.169 96.7446Z" stroke="black" stroke-width="5" stroke-miterlimit="10"/>
<path d="M330.527 96.7446C339.125 96.7446 346.095 89.762 346.095 81.1484C346.095 72.5349 339.125 65.5522 330.527 65.5522C321.928 65.5522 314.958 72.5349 314.958 81.1484C314.958 89.762 321.928 96.7446 330.527 96.7446Z" stroke="black" stroke-width="5" stroke-miterlimit="10"/>
<path d="M330.527 127.937C339.125 127.937 346.095 120.954 346.095 112.341C346.095 103.727 339.125 96.7446 330.527 96.7446C321.928 96.7446 314.958 103.727 314.958 112.341C314.958 120.954 321.928 127.937 330.527 127.937Z" stroke="black" stroke-width="5" stroke-miterlimit="10"/>
<path d="M268.169 127.937C276.767 127.937 283.737 120.954 283.737 112.341C283.737 103.727 276.767 96.7446 268.169 96.7446C259.57 96.7446 252.6 103.727 252.6 112.341C252.6 120.954 259.57 127.937 268.169 127.937Z" stroke="black" stroke-width="5" stroke-miterlimit="10"/>
<path d="M330.527 159.213C339.125 159.213 346.095 152.231 346.095 143.617C346.095 135.004 339.125 128.021 330.527 128.021C321.928 128.021 314.958 135.004 314.958 143.617C314.958 152.231 321.928 159.213 330.527 159.213Z" stroke="black" stroke-width="5" stroke-miterlimit="10"/>
<path d="M330.527 190.49C339.125 190.49 346.095 183.507 346.095 174.894C346.095 166.28 339.125 159.297 330.527 159.297C321.928 159.297 314.958 166.28 314.958 174.894C314.958 183.507 321.928 190.49 330.527 190.49Z" stroke="black" stroke-width="5" stroke-miterlimit="10"/>
<path d="M330.527 159.213C339.125 159.213 346.095 152.231 346.095 143.617C346.095 135.004 339.125 128.021 330.527 128.021C321.928 128.021 314.958 135.004 314.958 143.617C314.958 152.231 321.928 159.213 330.527 159.213Z" stroke="black" stroke-width="5" stroke-miterlimit="10"/>
<path d="M330.527 190.49C339.125 190.49 346.095 183.507 346.095 174.894C346.095 166.28 339.125 159.297 330.527 159.297C321.928 159.297 314.958 166.28 314.958 174.894C314.958 183.507 321.928 190.49 330.527 190.49Z" stroke="black" stroke-width="5" stroke-miterlimit="10"/>
<path d="M330.527 221.682C339.125 221.682 346.095 214.699 346.095 206.086C346.095 197.472 339.125 190.49 330.527 190.49C321.928 190.49 314.958 197.472 314.958 206.086C314.958 214.699 321.928 221.682 330.527 221.682Z" stroke="black" stroke-width="5" stroke-miterlimit="10"/>
<path d="M330.527 252.958C339.125 252.958 346.095 245.975 346.095 237.362C346.095 228.748 339.125 221.766 330.527 221.766C321.928 221.766 314.958 228.748 314.958 237.362C314.958 245.975 321.928 252.958 330.527 252.958Z" stroke="black" stroke-width="5" stroke-miterlimit="10"/>
<path d="M330.527 221.682C339.125 221.682 346.095 214.699 346.095 206.086C346.095 197.472 339.125 190.49 330.527 190.49C321.928 190.49 314.958 197.472 314.958 206.086C314.958 214.699 321.928 221.682 330.527 221.682Z" stroke="black" stroke-width="5" stroke-miterlimit="10"/>
<path d="M330.527 252.958C339.125 252.958 346.095 245.975 346.095 237.362C346.095 228.748 339.125 221.766 330.527 221.766C321.928 221.766 314.958 228.748 314.958 237.362C314.958 245.975 321.928 252.958 330.527 252.958Z" stroke="black" stroke-width="5" stroke-miterlimit="10"/>
<path d="M330.527 284.234C339.125 284.234 346.095 277.252 346.095 268.638C346.095 260.025 339.125 253.042 330.527 253.042C321.928 253.042 314.958 260.025 314.958 268.638C314.958 277.252 321.928 284.234 330.527 284.234Z" stroke="black" stroke-width="5" stroke-miterlimit="10"/>
<path d="M330.527 315.427C339.125 315.427 346.095 308.444 346.095 299.831C346.095 291.217 339.125 284.234 330.527 284.234C321.928 284.234 314.958 291.217 314.958 299.831C314.958 308.444 321.928 315.427 330.527 315.427Z" stroke="black" stroke-width="5" stroke-miterlimit="10"/>
<path d="M330.527 284.234C339.125 284.234 346.095 277.252 346.095 268.638C346.095 260.025 339.125 253.042 330.527 253.042C321.928 253.042 314.958 260.025 314.958 268.638C314.958 277.252 321.928 284.234 330.527 284.234Z" stroke="black" stroke-width="5" stroke-miterlimit="10"/>
<path d="M330.527 315.427C339.125 315.427 346.095 308.444 346.095 299.831C346.095 291.217 339.125 284.234 330.527 284.234C321.928 284.234 314.958 291.217 314.958 299.831C314.958 308.444 321.928 315.427 330.527 315.427Z" stroke="black" stroke-width="5" stroke-miterlimit="10"/>
<path d="M330.527 346.703C339.125 346.703 346.095 339.72 346.095 331.106C346.095 322.493 339.125 315.51 330.527 315.51C321.928 315.51 314.958 322.493 314.958 331.106C314.958 339.72 321.928 346.703 330.527 346.703Z" stroke="black" stroke-width="5" stroke-miterlimit="10"/>
<path d="M330.527 377.979C339.125 377.979 346.095 370.996 346.095 362.383C346.095 353.769 339.125 346.787 330.527 346.787C321.928 346.787 314.958 353.769 314.958 362.383C314.958 370.996 321.928 377.979 330.527 377.979Z" stroke="black" stroke-width="5" stroke-miterlimit="10"/>
<path d="M330.527 346.703C339.125 346.703 346.095 339.72 346.095 331.106C346.095 322.493 339.125 315.51 330.527 315.51C321.928 315.51 314.958 322.493 314.958 331.106C314.958 339.72 321.928 346.703 330.527 346.703Z" stroke="black" stroke-width="5" stroke-miterlimit="10"/>
<path d="M330.527 377.979C339.125 377.979 346.095 370.996 346.095 362.383C346.095 353.769 339.125 346.787 330.527 346.787C321.928 346.787 314.958 353.769 314.958 362.383C314.958 370.996 321.928 377.979 330.527 377.979Z" stroke="black" stroke-width="5" stroke-miterlimit="10"/>
<path d="M143.368 502.916C151.967 502.916 158.937 495.933 158.937 487.32C158.937 478.706 151.967 471.724 143.368 471.724C134.77 471.724 127.8 478.706 127.8 487.32C127.8 495.933 134.77 502.916 143.368 502.916Z" stroke="black" stroke-width="5" stroke-miterlimit="10"/>
<path d="M143.368 471.724C151.967 471.724 158.937 464.741 158.937 456.127C158.937 447.514 151.967 440.531 143.368 440.531C134.77 440.531 127.8 447.514 127.8 456.127C127.8 464.741 134.77 471.724 143.368 471.724Z" stroke="black" stroke-width="5" stroke-miterlimit="10"/>
<path d="M143.368 440.448C151.967 440.448 158.937 433.465 158.937 424.852C158.937 416.238 151.967 409.255 143.368 409.255C134.77 409.255 127.8 416.238 127.8 424.852C127.8 433.465 134.77 440.448 143.368 440.448Z" stroke="black" stroke-width="5" stroke-miterlimit="10"/>
<path d="M205.727 502.916C214.325 502.916 221.295 495.933 221.295 487.32C221.295 478.706 214.325 471.724 205.727 471.724C197.128 471.724 190.158 478.706 190.158 487.32C190.158 495.933 197.128 502.916 205.727 502.916Z" stroke="black" stroke-width="5" stroke-miterlimit="10"/>
<path d="M268.169 502.916C276.767 502.916 283.737 495.933 283.737 487.32C283.737 478.706 276.767 471.724 268.169 471.724C259.57 471.724 252.6 478.706 252.6 487.32C252.6 495.933 259.57 502.916 268.169 502.916Z" stroke="black" stroke-width="5" stroke-miterlimit="10"/>
<path d="M205.727 471.724C214.325 471.724 221.295 464.741 221.295 456.127C221.295 447.514 214.325 440.531 205.727 440.531C197.128 440.531 190.158 447.514 190.158 456.127C190.158 464.741 197.128 471.724 205.727 471.724Z" stroke="black" stroke-width="5" stroke-miterlimit="10"/>
<path d="M268.169 471.724C276.767 471.724 283.737 464.741 283.737 456.127C283.737 447.514 276.767 440.531 268.169 440.531C259.57 440.531 252.6 447.514 252.6 456.127C252.6 464.741 259.57 471.724 268.169 471.724Z" stroke="black" stroke-width="5" stroke-miterlimit="10"/>
<path d="M205.727 440.448C214.325 440.448 221.295 433.465 221.295 424.852C221.295 416.238 214.325 409.255 205.727 409.255C197.128 409.255 190.158 416.238 190.158 424.852C190.158 433.465 197.128 440.448 205.727 440.448Z" stroke="black" stroke-width="5" stroke-miterlimit="10"/>
<path d="M268.169 440.448C276.767 440.448 283.737 433.465 283.737 424.852C283.737 416.238 276.767 409.255 268.169 409.255C259.57 409.255 252.6 416.238 252.6 424.852C252.6 433.465 259.57 440.448 268.169 440.448Z" stroke="black" stroke-width="5" stroke-miterlimit="10"/>
<path d="M330.527 440.448C339.125 440.448 346.095 433.465 346.095 424.852C346.095 416.238 339.125 409.255 330.527 409.255C321.928 409.255 314.958 416.238 314.958 424.852C314.958 433.465 321.928 440.448 330.527 440.448Z" stroke="black" stroke-width="5" stroke-miterlimit="10"/>
<path d="M330.527 409.171C339.125 409.171 346.095 402.189 346.095 393.575C346.095 384.962 339.125 377.979 330.527 377.979C321.928 377.979 314.958 384.962 314.958 393.575C314.958 402.189 321.928 409.171 330.527 409.171Z" stroke="black" stroke-width="5" stroke-miterlimit="10"/>
<path d="M268.169 409.171C276.767 409.171 283.737 402.189 283.737 393.575C283.737 384.962 276.767 377.979 268.169 377.979C259.57 377.979 252.6 384.962 252.6 393.575C252.6 402.189 259.57 409.171 268.169 409.171Z" stroke="black" stroke-width="5" stroke-miterlimit="10"/>
<path d="M420.339 34.1924C428.937 34.1924 435.908 27.2097 435.908 18.5962C435.908 9.98265 428.937 3 420.339 3C411.741 3 404.771 9.98265 404.771 18.5962C404.771 27.2097 411.741 34.1924 420.339 34.1924Z" fill="black"/>
<path d="M451.56 34.1924C460.158 34.1924 467.128 27.2097 467.128 18.5962C467.128 9.98265 460.158 3 451.56 3C442.962 3 435.991 9.98265 435.991 18.5962C435.991 27.2097 442.962 34.1924 451.56 34.1924Z" fill="black"/>
<path d="M482.781 34.1924C491.379 34.1924 498.35 27.2097 498.35 18.5962C498.35 9.98265 491.379 3 482.781 3C474.183 3 467.212 9.98265 467.212 18.5962C467.212 27.2097 474.183 34.1924 482.781 34.1924Z" fill="black"/>
<path d="M451.56 65.4687C460.158 65.4687 467.128 58.4861 467.128 49.8725C467.128 41.259 460.158 34.2764 451.56 34.2764C442.962 34.2764 435.991 41.259 435.991 49.8725C435.991 58.4861 442.962 65.4687 451.56 65.4687Z" fill="black"/>
<path d="M482.781 65.4687C491.379 65.4687 498.35 58.4861 498.35 49.8725C498.35 41.259 491.379 34.2764 482.781 34.2764C474.183 34.2764 467.212 41.259 467.212 49.8725C467.212 58.4861 474.183 65.4687 482.781 65.4687Z" fill="black"/>
<path d="M482.781 96.7446C491.379 96.7446 498.35 89.762 498.35 81.1484C498.35 72.5349 491.379 65.5522 482.781 65.5522C474.183 65.5522 467.212 72.5349 467.212 81.1484C467.212 89.762 474.183 96.7446 482.781 96.7446Z" fill="black"/>
<path d="M420.339 221.682C428.937 221.682 435.908 214.699 435.908 206.086C435.908 197.472 428.937 190.49 420.339 190.49C411.741 190.49 404.771 197.472 404.771 206.086C404.771 214.699 411.741 221.682 420.339 221.682Z" fill="black"/>
<path d="M451.56 221.682C460.158 221.682 467.128 214.699 467.128 206.086C467.128 197.472 460.158 190.49 451.56 190.49C442.962 190.49 435.991 197.472 435.991 206.086C435.991 214.699 442.962 221.682 451.56 221.682Z" fill="black"/>
<path d="M482.781 221.682C491.379 221.682 498.35 214.699 498.35 206.086C498.35 197.472 491.379 190.49 482.781 190.49C474.183 190.49 467.212 197.472 467.212 206.086C467.212 214.699 474.183 221.682 482.781 221.682Z" fill="black"/>
<path d="M420.339 252.958C428.937 252.958 435.908 245.975 435.908 237.362C435.908 228.748 428.937 221.766 420.339 221.766C411.741 221.766 404.771 228.748 404.771 237.362C404.771 245.975 411.741 252.958 420.339 252.958Z" fill="black"/>
<path d="M451.56 252.958C460.158 252.958 467.128 245.975 467.128 237.362C467.128 228.748 460.158 221.766 451.56 221.766C442.962 221.766 435.991 228.748 435.991 237.362C435.991 245.975 442.962 252.958 451.56 252.958Z" fill="black"/>
<path d="M482.781 252.958C491.379 252.958 498.35 245.975 498.35 237.362C498.35 228.748 491.379 221.766 482.781 221.766C474.183 221.766 467.212 228.748 467.212 237.362C467.212 245.975 474.183 252.958 482.781 252.958Z" fill="black"/>
<path d="M420.339 284.234C428.937 284.234 435.908 277.252 435.908 268.638C435.908 260.025 428.937 253.042 420.339 253.042C411.741 253.042 404.771 260.025 404.771 268.638C404.771 277.252 411.741 284.234 420.339 284.234Z" fill="black"/>
<path d="M451.56 284.234C460.158 284.234 467.128 277.252 467.128 268.638C467.128 260.025 460.158 253.042 451.56 253.042C442.962 253.042 435.991 260.025 435.991 268.638C435.991 277.252 442.962 284.234 451.56 284.234Z" fill="black"/>
<path d="M420.339 315.427C428.937 315.427 435.908 308.444 435.908 299.831C435.908 291.217 428.937 284.234 420.339 284.234C411.741 284.234 404.771 291.217 404.771 299.831C404.771 308.444 411.741 315.427 420.339 315.427Z" fill="black"/>
<path d="M451.56 315.427C460.158 315.427 467.128 308.444 467.128 299.831C467.128 291.217 460.158 284.234 451.56 284.234C442.962 284.234 435.991 291.217 435.991 299.831C435.991 308.444 442.962 315.427 451.56 315.427Z" fill="black"/>
<path d="M420.339 346.703C428.937 346.703 435.908 339.72 435.908 331.107C435.908 322.493 428.937 315.511 420.339 315.511C411.741 315.511 404.771 322.493 404.771 331.107C404.771 339.72 411.741 346.703 420.339 346.703Z" fill="black"/>
<path d="M451.56 346.703C460.158 346.703 467.128 339.72 467.128 331.107C467.128 322.493 460.158 315.511 451.56 315.511C442.962 315.511 435.991 322.493 435.991 331.107C435.991 339.72 442.962 346.703 451.56 346.703Z" fill="black"/>
<path d="M420.339 471.724C428.937 471.724 435.908 464.741 435.908 456.127C435.908 447.514 428.937 440.531 420.339 440.531C411.741 440.531 404.771 447.514 404.771 456.127C404.771 464.741 411.741 471.724 420.339 471.724Z" fill="black"/>
<path d="M451.56 471.724C460.158 471.724 467.128 464.741 467.128 456.127C467.128 447.514 460.158 440.531 451.56 440.531C442.962 440.531 435.991 447.514 435.991 456.127C435.991 464.741 442.962 471.724 451.56 471.724Z" fill="black"/>
<path d="M420.339 503C428.937 503 435.908 496.017 435.908 487.404C435.908 478.79 428.937 471.808 420.339 471.808C411.741 471.808 404.771 478.79 404.771 487.404C404.771 496.017 411.741 503 420.339 503Z" fill="black"/>
<path d="M451.56 503C460.158 503 467.128 496.017 467.128 487.404C467.128 478.79 460.158 471.808 451.56 471.808C442.962 471.808 435.991 478.79 435.991 487.404C435.991 496.017 442.962 503 451.56 503Z" fill="black"/>
<path d="M576.36 96.7446C584.958 96.7446 591.929 89.762 591.929 81.1484C591.929 72.5349 584.958 65.5522 576.36 65.5522C567.762 65.5522 560.792 72.5349 560.792 81.1484C560.792 89.762 567.762 96.7446 576.36 96.7446Z" fill="black"/>
<path d="M545.139 34.1924C553.737 34.1924 560.708 27.2097 560.708 18.5962C560.708 9.98265 553.737 3 545.139 3C536.541 3 529.57 9.98265 529.57 18.5962C529.57 27.2097 536.541 34.1924 545.139 34.1924Z" fill="black"/>
<path d="M545.139 65.4687C553.737 65.4687 560.708 58.4861 560.708 49.8725C560.708 41.259 553.737 34.2764 545.139 34.2764C536.541 34.2764 529.57 41.259 529.57 49.8725C529.57 58.4861 536.541 65.4687 545.139 65.4687Z" fill="black"/>
<path d="M545.139 96.7446C553.737 96.7446 560.708 89.762 560.708 81.1484C560.708 72.5349 553.737 65.5522 545.139 65.5522C536.541 65.5522 529.57 72.5349 529.57 81.1484C529.57 89.762 536.541 96.7446 545.139 96.7446Z" fill="black"/>
<path d="M513.918 34.1924C522.517 34.1924 529.487 27.2097 529.487 18.5962C529.487 9.98265 522.517 3 513.918 3C505.32 3 498.35 9.98265 498.35 18.5962C498.35 27.2097 505.32 34.1924 513.918 34.1924Z" fill="black"/>
<path d="M513.918 65.4687C522.517 65.4687 529.487 58.4861 529.487 49.8725C529.487 41.259 522.517 34.2764 513.918 34.2764C505.32 34.2764 498.35 41.259 498.35 49.8725C498.35 58.4861 505.32 65.4687 513.918 65.4687Z" fill="black"/>
<path d="M513.918 96.7446C522.517 96.7446 529.487 89.762 529.487 81.1484C529.487 72.5349 522.517 65.5522 513.918 65.5522C505.32 65.5522 498.35 72.5349 498.35 81.1484C498.35 89.762 505.32 96.7446 513.918 96.7446Z" fill="black"/>
<path d="M669.939 96.7446C678.538 96.7446 685.508 89.762 685.508 81.1484C685.508 72.5349 678.538 65.5522 669.939 65.5522C661.341 65.5522 654.371 72.5349 654.371 81.1484C654.371 89.762 661.341 96.7446 669.939 96.7446Z" fill="black"/>
<path d="M607.497 250.946C616.096 250.946 623.066 243.963 623.066 235.35C623.066 226.736 616.096 219.753 607.497 219.753C598.899 219.753 591.929 226.736 591.929 235.35C591.929 243.963 598.899 250.946 607.497 250.946Z" fill="black"/>
<path d="M607.497 282.222C616.096 282.222 623.066 275.239 623.066 266.625C623.066 258.012 616.096 251.029 607.497 251.029C598.899 251.029 591.929 258.012 591.929 266.625C591.929 275.239 598.899 282.222 607.497 282.222Z" fill="black"/>
<path d="M576.36 250.946C584.958 250.946 591.929 243.963 591.929 235.35C591.929 226.736 584.958 219.753 576.36 219.753C567.762 219.753 560.792 226.736 560.792 235.35C560.792 243.963 567.762 250.946 576.36 250.946Z" fill="black"/>
<path d="M545.139 250.946C553.737 250.946 560.708 243.963 560.708 235.35C560.708 226.736 553.737 219.753 545.139 219.753C536.541 219.753 529.57 226.736 529.57 235.35C529.57 243.963 536.541 250.946 545.139 250.946Z" fill="black"/>
<path d="M513.918 219.753C522.517 219.753 529.487 212.771 529.487 204.157C529.487 195.544 522.517 188.561 513.918 188.561C505.32 188.561 498.35 195.544 498.35 204.157C498.35 212.771 505.32 219.753 513.918 219.753Z" fill="black"/>
<path d="M513.918 250.946C522.517 250.946 529.487 243.963 529.487 235.35C529.487 226.736 522.517 219.753 513.918 219.753C505.32 219.753 498.35 226.736 498.35 235.35C498.35 243.963 505.32 250.946 513.918 250.946Z" fill="black"/>
<path d="M669.939 219.753C678.538 219.753 685.508 212.771 685.508 204.157C685.508 195.544 678.538 188.561 669.939 188.561C661.341 188.561 654.371 195.544 654.371 204.157C654.371 212.771 661.341 219.753 669.939 219.753Z" fill="black"/>
<path d="M669.939 250.946C678.538 250.946 685.508 243.963 685.508 235.35C685.508 226.736 678.538 219.753 669.939 219.753C661.341 219.753 654.371 226.736 654.371 235.35C654.371 243.963 661.341 250.946 669.939 250.946Z" fill="black"/>
<path d="M669.939 282.222C678.538 282.222 685.508 275.239 685.508 266.625C685.508 258.012 678.538 251.029 669.939 251.029C661.341 251.029 654.371 258.012 654.371 266.625C654.371 275.239 661.341 282.222 669.939 282.222Z" fill="black"/>
<path d="M638.718 250.946C647.316 250.946 654.287 243.963 654.287 235.35C654.287 226.736 647.316 219.753 638.718 219.753C630.12 219.753 623.149 226.736 623.149 235.35C623.149 243.963 630.12 250.946 638.718 250.946Z" fill="black"/>
<path d="M638.718 282.222C647.316 282.222 654.287 275.239 654.287 266.625C654.287 258.012 647.316 251.029 638.718 251.029C630.12 251.029 623.149 258.012 623.149 266.625C623.149 275.239 630.12 282.222 638.718 282.222Z" fill="black"/>
<path d="M607.497 440.448C616.096 440.448 623.066 433.465 623.066 424.852C623.066 416.238 616.096 409.255 607.497 409.255C598.899 409.255 591.929 416.238 591.929 424.852C591.929 433.465 598.899 440.448 607.497 440.448Z" fill="black"/>
<path d="M576.36 440.448C584.958 440.448 591.929 433.465 591.929 424.852C591.929 416.238 584.958 409.255 576.36 409.255C567.762 409.255 560.792 416.238 560.792 424.852C560.792 433.465 567.762 440.448 576.36 440.448Z" fill="black"/>
<path d="M545.139 440.448C553.737 440.448 560.708 433.465 560.708 424.852C560.708 416.238 553.737 409.255 545.139 409.255C536.541 409.255 529.57 416.238 529.57 424.852C529.57 433.465 536.541 440.448 545.139 440.448Z" fill="black"/>
<path d="M513.918 440.448C522.517 440.448 529.487 433.465 529.487 424.852C529.487 416.238 522.517 409.255 513.918 409.255C505.32 409.255 498.35 416.238 498.35 424.852C498.35 433.465 505.32 440.448 513.918 440.448Z" fill="black"/>
<path d="M669.939 440.448C678.538 440.448 685.508 433.465 685.508 424.852C685.508 416.238 678.538 409.255 669.939 409.255C661.341 409.255 654.371 416.238 654.371 424.852C654.371 433.465 661.341 440.448 669.939 440.448Z" fill="black"/>
<path d="M638.718 440.448C647.316 440.448 654.287 433.465 654.287 424.852C654.287 416.238 647.316 409.255 638.718 409.255C630.12 409.255 623.149 416.238 623.149 424.852C623.149 433.465 630.12 440.448 638.718 440.448Z" fill="black"/>
<path d="M463.446 8.19873H439.925V28.6582H463.446V8.19873Z" fill="black"/>
<path d="M432.141 8.19873H408.621V28.6582H432.141V8.19873Z" fill="black"/>
<path d="M494.499 8.19873H470.979V28.6582H494.499V8.19873Z" fill="black"/>
<path d="M463.446 39.6426H439.925V60.1021H463.446V39.6426Z" fill="black"/>
<path d="M432.141 39.6426H408.621V60.1021H432.141V39.6426Z" fill="black"/>
<path d="M494.499 39.6426H470.979V60.1021H494.499V39.6426Z" fill="black"/>
<path d="M463.446 70.835H439.925V91.2945H463.446V70.835Z" fill="black"/>
<path d="M432.141 70.835H408.621V91.2945H432.141V70.835Z" fill="black"/>
<path d="M494.499 70.835H470.979V91.2945H494.499V70.835Z" fill="black"/>
<path d="M463.446 102.279H439.925V122.738H463.446V102.279Z" fill="black"/>
<path d="M432.141 102.279H408.621V122.738H432.141V102.279Z" fill="black"/>
<path d="M494.499 102.279H470.979V122.738H494.499V102.279Z" fill="black"/>
<path d="M463.446 133.304H439.925V153.763H463.446V133.304Z" fill="black"/>
<path d="M432.141 133.304H408.621V153.763H432.141V133.304Z" fill="black"/>
<path d="M494.499 133.304H470.979V153.763H494.499V133.304Z" fill="black"/>
<path d="M463.446 164.748H439.925V185.207H463.446V164.748Z" fill="black"/>
<path d="M432.141 164.748H408.621V185.207H432.141V164.748Z" fill="black"/>
<path d="M494.499 164.748H470.979V185.207H494.499V164.748Z" fill="black"/>
<path d="M463.446 195.856H439.925V216.315H463.446V195.856Z" fill="black"/>
<path d="M432.141 195.856H408.621V216.315H432.141V195.856Z" fill="black"/>
<path d="M494.499 195.856H470.979V216.315H494.499V195.856Z" fill="black"/>
<path d="M463.446 227.3H439.925V247.759H463.446V227.3Z" fill="black"/>
<path d="M432.141 227.3H408.621V247.759H432.141V227.3Z" fill="black"/>
<path d="M494.499 227.3H470.979V247.759H494.499V227.3Z" fill="black"/>
<path d="M463.446 258.325H439.925V278.784H463.446V258.325Z" fill="black"/>
<path d="M463.446 258.325H439.925V278.784H463.446V258.325Z" fill="black"/>
<path d="M432.141 258.325H408.621V278.784H432.141V258.325Z" fill="black"/>
<path d="M494.499 258.325H470.979V278.784H494.499V258.325Z" fill="black"/>
<path d="M463.446 289.517H439.925V309.976H463.446V289.517Z" fill="black"/>
<path d="M432.141 289.517H408.621V309.976H432.141V289.517Z" fill="black"/>
<path d="M494.499 289.517H470.979V309.976H494.499V289.517Z" fill="black"/>
<path d="M463.446 320.961H439.925V341.42H463.446V320.961Z" fill="black"/>
<path d="M432.141 320.961H408.621V341.42H432.141V320.961Z" fill="black"/>
<path d="M494.499 320.961H470.979V341.42H494.499V320.961Z" fill="black"/>
<path d="M463.446 351.985H439.925V372.445H463.446V351.985Z" fill="black"/>
<path d="M432.141 351.985H408.621V372.445H432.141V351.985Z" fill="black"/>
<path d="M494.499 351.985H470.979V372.445H494.499V351.985Z" fill="black"/>
<path d="M463.446 383.429H439.925V403.889H463.446V383.429Z" fill="black"/>
<path d="M432.141 383.429H408.621V403.889H432.141V383.429Z" fill="black"/>
<path d="M494.499 383.429H470.979V403.889H494.499V383.429Z" fill="black"/>
<path d="M463.446 414.538H439.925V434.998H463.446V414.538Z" fill="black"/>
<path d="M432.141 414.538H408.621V434.998H432.141V414.538Z" fill="black"/>
<path d="M494.499 414.538H470.979V434.998H494.499V414.538Z" fill="black"/>
<path d="M463.446 445.982H439.925V466.441H463.446V445.982Z" fill="black"/>
<path d="M432.141 445.982H408.621V466.441H432.141V445.982Z" fill="black"/>
<path d="M494.499 445.982H470.979V466.441H494.499V445.982Z" fill="black"/>
<path d="M463.446 477.174H439.925V497.633H463.446V477.174Z" fill="black"/>
<path d="M432.141 477.174H408.621V497.633H432.141V477.174Z" fill="black"/>
<path d="M494.499 477.174H470.979V497.633H494.499V477.174Z" fill="black"/>
<path d="M556.857 8.19873H533.337V28.6582H556.857V8.19873Z" fill="black"/>
<path d="M525.553 8.19873H502.032V28.6582H525.553V8.19873Z" fill="black"/>
<path d="M587.911 8.19873H564.391V28.6582H587.911V8.19873Z" fill="black"/>
<path d="M556.857 39.6426H533.337V60.1021H556.857V39.6426Z" fill="black"/>
<path d="M525.553 39.6426H502.032V60.1021H525.553V39.6426Z" fill="black"/>
<path d="M587.911 39.6426H564.391V60.1021H587.911V39.6426Z" fill="black"/>
<path d="M556.857 70.835H533.337V91.2945H556.857V70.835Z" fill="black"/>
<path d="M525.553 70.835H502.032V91.2945H525.553V70.835Z" fill="black"/>
<path d="M587.911 70.835H564.391V91.2945H587.911V70.835Z" fill="black"/>
<path d="M681.825 8.4502H658.305V28.9097H681.825V8.4502Z" fill="black"/>
<path d="M650.52 8.4502H627V28.9097H650.52V8.4502Z" fill="black"/>
<path d="M681.825 39.4751H658.305V59.9346H681.825V39.4751Z" fill="black"/>
<path d="M650.52 39.4751H627V59.9346H650.52V39.4751Z" fill="black"/>
<path d="M681.825 70.9189H658.305V91.3784H681.825V70.9189Z" fill="black"/>
<path d="M650.52 70.9189H627V91.3784H650.52V70.9189Z" fill="black"/>
<path d="M619.216 8.19873H595.695V28.6582H619.216V8.19873Z" fill="black"/>
<path d="M619.216 39.6426H595.695V60.1021H619.216V39.6426Z" fill="black"/>
<path d="M619.216 70.835H595.695V91.2945H619.216V70.835Z" fill="black"/>
<path d="M556.857 193.927H533.337V214.387H556.857V193.927Z" fill="black"/>
<path d="M525.553 193.927H502.032V214.387H525.553V193.927Z" fill="black"/>
<path d="M587.911 193.927H564.391V214.387H587.911V193.927Z" fill="black"/>
<path d="M556.857 225.371H533.337V245.831H556.857V225.371Z" fill="black"/>
<path d="M525.553 225.371H502.032V245.831H525.553V225.371Z" fill="black"/>
<path d="M587.911 225.371H564.391V245.831H587.911V225.371Z" fill="black"/>
<path d="M556.857 256.48H533.337V276.939H556.857V256.48Z" fill="black"/>
<path d="M525.553 256.48H502.032V276.939H525.553V256.48Z" fill="black"/>
<path d="M587.911 256.48H564.391V276.939H587.911V256.48Z" fill="black"/>
<path d="M681.825 194.179H658.305V214.638H681.825V194.179Z" fill="black"/>
<path d="M650.52 194.179H627V214.638H650.52V194.179Z" fill="black"/>
<path d="M681.825 225.12H658.305V245.579H681.825V225.12Z" fill="black"/>
<path d="M650.52 225.12H627V245.579H650.52V225.12Z" fill="black"/>
<path d="M681.825 256.563H658.305V277.023H681.825V256.563Z" fill="black"/>
<path d="M650.52 256.563H627V277.023H650.52V256.563Z" fill="black"/>
<path d="M619.216 193.927H595.695V214.387H619.216V193.927Z" fill="black"/>
<path d="M619.216 225.371H595.695V245.831H619.216V225.371Z" fill="black"/>
<path d="M619.216 256.48H595.695V276.939H619.216V256.48Z" fill="black"/>
<path d="M556.857 414.622H533.337V435.081H556.857V414.622Z" fill="black"/>
<path d="M525.553 414.622H502.032V435.081H525.553V414.622Z" fill="black"/>
<path d="M587.911 414.622H564.391V435.081H587.911V414.622Z" fill="black"/>
<path d="M556.857 446.065H533.337V466.525H556.857V446.065Z" fill="black"/>
<path d="M525.553 446.065H502.032V466.525H525.553V446.065Z" fill="black"/>
<path d="M587.911 446.065H564.391V466.525H587.911V446.065Z" fill="black"/>
<path d="M556.857 477.258H533.337V497.717H556.857V477.258Z" fill="black"/>
<path d="M525.553 477.258H502.032V497.717H525.553V477.258Z" fill="black"/>
<path d="M587.911 477.258H564.391V497.717H587.911V477.258Z" fill="black"/>
<path d="M681.825 414.873H658.305V435.333H681.825V414.873Z" fill="black"/>
<path d="M650.52 414.873H627V435.333H650.52V414.873Z" fill="black"/>
<path d="M681.825 445.898H658.305V466.357H681.825V445.898Z" fill="black"/>
<path d="M650.52 445.898H627V466.357H650.52V445.898Z" fill="black"/>
<path d="M681.825 477.342H658.305V497.801H681.825V477.342Z" fill="black"/>
<path d="M650.52 477.342H627V497.801H650.52V477.342Z" fill="black"/>
<path d="M619.216 414.622H595.695V435.081H619.216V414.622Z" fill="black"/>
<path d="M619.216 446.065H595.695V466.525H619.216V446.065Z" fill="black"/>
<path d="M619.216 477.258H595.695V497.717H619.216V477.258Z" fill="black"/>
</svg>
