<svg width="715" height="500" viewBox="0 0 715 500" fill="none" xmlns="http://www.w3.org/2000/svg">
<path d="M15.5962 31.1924C24.2097 31.1924 31.1924 24.2097 31.1924 15.5962C31.1924 6.98265 24.2097 0 15.5962 0C6.98265 0 0 6.98265 0 15.5962C0 24.2097 6.98265 31.1924 15.5962 31.1924Z" fill="black"/>
<path d="M78.0649 31.1924C86.6785 31.1924 93.6611 24.2097 93.6611 15.5962C93.6611 6.98265 86.6785 0 78.0649 0C69.4514 0 62.4688 6.98265 62.4688 15.5962C62.4688 24.2097 69.4514 31.1924 78.0649 31.1924Z" fill="black"/>
<path d="M15.5962 62.4687C24.2097 62.4687 31.1924 55.486 31.1924 46.8725C31.1924 38.259 24.2097 31.2764 15.5962 31.2764C6.98265 31.2764 0 38.259 0 46.8725C0 55.486 6.98265 62.4687 15.5962 62.4687Z" fill="black"/>
<path d="M78.0649 62.4687C86.6785 62.4687 93.6611 55.486 93.6611 46.8725C93.6611 38.259 86.6785 31.2764 78.0649 31.2764C69.4514 31.2764 62.4688 38.259 62.4688 46.8725C62.4688 55.486 69.4514 62.4687 78.0649 62.4687Z" fill="black"/>
<path d="M15.5962 93.7451C24.2097 93.7451 31.1924 86.7624 31.1924 78.1489C31.1924 69.5354 24.2097 62.5527 15.5962 62.5527C6.98265 62.5527 0 69.5354 0 78.1489C0 86.7624 6.98265 93.7451 15.5962 93.7451Z" fill="black"/>
<path d="M78.0649 93.7451C86.6785 93.7451 93.6611 86.7624 93.6611 78.1489C93.6611 69.5354 86.6785 62.5527 78.0649 62.5527C69.4514 62.5527 62.4688 69.5354 62.4688 78.1489C62.4688 86.7624 69.4514 93.7451 78.0649 93.7451Z" fill="black"/>
<path d="M15.5962 124.937C24.2097 124.937 31.1924 117.955 31.1924 109.341C31.1924 100.728 24.2097 93.7451 15.5962 93.7451C6.98265 93.7451 0 100.728 0 109.341C0 117.955 6.98265 124.937 15.5962 124.937Z" fill="black"/>
<path d="M78.0649 124.937C86.6785 124.937 93.6611 117.955 93.6611 109.341C93.6611 100.728 86.6785 93.7451 78.0649 93.7451C69.4514 93.7451 62.4688 100.728 62.4688 109.341C62.4688 117.955 69.4514 124.937 78.0649 124.937Z" fill="black"/>
<path d="M15.5962 156.214C24.2097 156.214 31.1924 149.231 31.1924 140.618C31.1924 132.004 24.2097 125.021 15.5962 125.021C6.98265 125.021 0 132.004 0 140.618C0 149.231 6.98265 156.214 15.5962 156.214Z" fill="black"/>
<path d="M78.0649 156.214C86.6785 156.214 93.6611 149.231 93.6611 140.618C93.6611 132.004 86.6785 125.021 78.0649 125.021C69.4514 125.021 62.4688 132.004 62.4688 140.618C62.4688 149.231 69.4514 156.214 78.0649 156.214Z" fill="black"/>
<path d="M15.5962 187.489C24.2097 187.489 31.1924 180.507 31.1924 171.893C31.1924 163.28 24.2097 156.297 15.5962 156.297C6.98265 156.297 0 163.28 0 171.893C0 180.507 6.98265 187.489 15.5962 187.489Z" fill="black"/>
<path d="M78.0649 187.489C86.6785 187.489 93.6611 180.507 93.6611 171.893C93.6611 163.28 86.6785 156.297 78.0649 156.297C69.4514 156.297 62.4688 163.28 62.4688 171.893C62.4688 180.507 69.4514 187.489 78.0649 187.489Z" fill="black"/>
<path d="M15.5962 218.682C24.2097 218.682 31.1924 211.699 31.1924 203.085C31.1924 194.472 24.2097 187.489 15.5962 187.489C6.98265 187.489 0 194.472 0 203.085C0 211.699 6.98265 218.682 15.5962 218.682Z" fill="black"/>
<path d="M78.0649 218.682C86.6785 218.682 93.6611 211.699 93.6611 203.085C93.6611 194.472 86.6785 187.489 78.0649 187.489C69.4514 187.489 62.4688 194.472 62.4688 203.085C62.4688 211.699 69.4514 218.682 78.0649 218.682Z" fill="black"/>
<path d="M15.5962 249.958C24.2097 249.958 31.1924 242.975 31.1924 234.362C31.1924 225.748 24.2097 218.766 15.5962 218.766C6.98265 218.766 0 225.748 0 234.362C0 242.975 6.98265 249.958 15.5962 249.958Z" fill="black"/>
<path d="M78.0649 249.958C86.6785 249.958 93.6611 242.975 93.6611 234.362C93.6611 225.748 86.6785 218.766 78.0649 218.766C69.4514 218.766 62.4688 225.748 62.4688 234.362C62.4688 242.975 69.4514 249.958 78.0649 249.958Z" fill="black"/>
<path d="M15.5962 281.234C24.2097 281.234 31.1924 274.252 31.1924 265.638C31.1924 257.025 24.2097 250.042 15.5962 250.042C6.98265 250.042 0 257.025 0 265.638C0 274.252 6.98265 281.234 15.5962 281.234Z" fill="black"/>
<path d="M78.0649 281.234C86.6785 281.234 93.6611 274.252 93.6611 265.638C93.6611 257.025 86.6785 250.042 78.0649 250.042C69.4514 250.042 62.4688 257.025 62.4688 265.638C62.4688 274.252 69.4514 281.234 78.0649 281.234Z" fill="black"/>
<path d="M15.5962 312.427C24.2097 312.427 31.1924 305.444 31.1924 296.831C31.1924 288.217 24.2097 281.234 15.5962 281.234C6.98265 281.234 0 288.217 0 296.831C0 305.444 6.98265 312.427 15.5962 312.427Z" fill="black"/>
<path d="M78.0649 312.427C86.6785 312.427 93.6611 305.444 93.6611 296.831C93.6611 288.217 86.6785 281.234 78.0649 281.234C69.4514 281.234 62.4688 288.217 62.4688 296.831C62.4688 305.444 69.4514 312.427 78.0649 312.427Z" fill="black"/>
<path d="M15.5962 343.703C24.2097 343.703 31.1924 336.72 31.1924 328.107C31.1924 319.493 24.2097 312.511 15.5962 312.511C6.98265 312.511 0 319.493 0 328.107C0 336.72 6.98265 343.703 15.5962 343.703Z" fill="black"/>
<path d="M78.0649 343.703C86.6785 343.703 93.6611 336.72 93.6611 328.107C93.6611 319.493 86.6785 312.511 78.0649 312.511C69.4514 312.511 62.4688 319.493 62.4688 328.107C62.4688 336.72 69.4514 343.703 78.0649 343.703Z" fill="black"/>
<path d="M15.5962 374.979C24.2097 374.979 31.1924 367.997 31.1924 359.383C31.1924 350.77 24.2097 343.787 15.5962 343.787C6.98265 343.787 0 350.77 0 359.383C0 367.997 6.98265 374.979 15.5962 374.979Z" fill="black"/>
<path d="M78.0649 374.979C86.6785 374.979 93.6611 367.997 93.6611 359.383C93.6611 350.77 86.6785 343.787 78.0649 343.787C69.4514 343.787 62.4688 350.77 62.4688 359.383C62.4688 367.997 69.4514 374.979 78.0649 374.979Z" fill="black"/>
<path d="M15.5962 406.255C24.2097 406.255 31.1924 399.272 31.1924 390.659C31.1924 382.045 24.2097 375.062 15.5962 375.062C6.98265 375.062 0 382.045 0 390.659C0 399.272 6.98265 406.255 15.5962 406.255Z" fill="black"/>
<path d="M78.0649 406.255C86.6785 406.255 93.6611 399.272 93.6611 390.659C93.6611 382.045 86.6785 375.062 78.0649 375.062C69.4514 375.062 62.4688 382.045 62.4688 390.659C62.4688 399.272 69.4514 406.255 78.0649 406.255Z" fill="black"/>
<path d="M15.5962 437.447C24.2097 437.447 31.1924 430.465 31.1924 421.851C31.1924 413.238 24.2097 406.255 15.5962 406.255C6.98265 406.255 0 413.238 0 421.851C0 430.465 6.98265 437.447 15.5962 437.447Z" fill="black"/>
<path d="M78.0649 437.447C86.6785 437.447 93.6611 430.465 93.6611 421.851C93.6611 413.238 86.6785 406.255 78.0649 406.255C69.4514 406.255 62.4688 413.238 62.4688 421.851C62.4688 430.465 69.4514 437.447 78.0649 437.447Z" fill="black"/>
<path d="M15.5962 468.724C24.2097 468.724 31.1924 461.741 31.1924 453.127C31.1924 444.514 24.2097 437.531 15.5962 437.531C6.98265 437.531 0 444.514 0 453.127C0 461.741 6.98265 468.724 15.5962 468.724Z" fill="black"/>
<path d="M78.0649 468.724C86.6785 468.724 93.6611 461.741 93.6611 453.127C93.6611 444.514 86.6785 437.531 78.0649 437.531C69.4514 437.531 62.4688 444.514 62.4688 453.127C62.4688 461.741 69.4514 468.724 78.0649 468.724Z" fill="black"/>
<path d="M15.5962 500C24.2097 500 31.1924 493.017 31.1924 484.404C31.1924 475.79 24.2097 468.808 15.5962 468.808C6.98265 468.808 0 475.79 0 484.404C0 493.017 6.98265 500 15.5962 500Z" fill="black"/>
<path d="M78.0649 500C86.6785 500 93.6611 493.017 93.6611 484.404C93.6611 475.79 86.6785 468.808 78.0649 468.808C69.4514 468.808 62.4688 475.79 62.4688 484.404C62.4688 493.017 69.4514 500 78.0649 500Z" fill="black"/>
<path d="M140.534 31.1924C149.147 31.1924 156.13 24.2097 156.13 15.5962C156.13 6.98265 149.147 0 140.534 0C131.92 0 124.938 6.98265 124.938 15.5962C124.938 24.2097 131.92 31.1924 140.534 31.1924Z" fill="black"/>
<path d="M140.534 62.4687C149.147 62.4687 156.13 55.486 156.13 46.8725C156.13 38.259 149.147 31.2764 140.534 31.2764C131.92 31.2764 124.938 38.259 124.938 46.8725C124.938 55.486 131.92 62.4687 140.534 62.4687Z" fill="black"/>
<path d="M140.534 93.7451C149.147 93.7451 156.13 86.7624 156.13 78.1489C156.13 69.5354 149.147 62.5527 140.534 62.5527C131.92 62.5527 124.938 69.5354 124.938 78.1489C124.938 86.7624 131.92 93.7451 140.534 93.7451Z" fill="black"/>
<path d="M203.085 31.1924C211.699 31.1924 218.682 24.2097 218.682 15.5962C218.682 6.98265 211.699 0 203.085 0C194.472 0 187.489 6.98265 187.489 15.5962C187.489 24.2097 194.472 31.1924 203.085 31.1924Z" fill="black"/>
<path d="M265.554 31.1924C274.168 31.1924 281.15 24.2097 281.15 15.5962C281.15 6.98265 274.168 0 265.554 0C256.941 0 249.958 6.98265 249.958 15.5962C249.958 24.2097 256.941 31.1924 265.554 31.1924Z" fill="black"/>
<path d="M203.085 62.4687C211.699 62.4687 218.682 55.486 218.682 46.8725C218.682 38.259 211.699 31.2764 203.085 31.2764C194.472 31.2764 187.489 38.259 187.489 46.8725C187.489 55.486 194.472 62.4687 203.085 62.4687Z" fill="black"/>
<path d="M265.554 62.4687C274.168 62.4687 281.15 55.486 281.15 46.8725C281.15 38.259 274.168 31.2764 265.554 31.2764C256.941 31.2764 249.958 38.259 249.958 46.8725C249.958 55.486 256.941 62.4687 265.554 62.4687Z" fill="black"/>
<path d="M203.085 93.7451C211.699 93.7451 218.682 86.7624 218.682 78.1489C218.682 69.5354 211.699 62.5527 203.085 62.5527C194.472 62.5527 187.489 69.5354 187.489 78.1489C187.489 86.7624 194.472 93.7451 203.085 93.7451Z" fill="black"/>
<path d="M265.554 93.7451C274.168 93.7451 281.15 86.7624 281.15 78.1489C281.15 69.5354 274.168 62.5527 265.554 62.5527C256.941 62.5527 249.958 69.5354 249.958 78.1489C249.958 86.7624 256.941 93.7451 265.554 93.7451Z" fill="black"/>
<path d="M328.107 93.7451C336.72 93.7451 343.703 86.7624 343.703 78.1489C343.703 69.5354 336.72 62.5527 328.107 62.5527C319.493 62.5527 312.511 69.5354 312.511 78.1489C312.511 86.7624 319.493 93.7451 328.107 93.7451Z" fill="black"/>
<path d="M328.107 124.937C336.72 124.937 343.703 117.955 343.703 109.341C343.703 100.728 336.72 93.7451 328.107 93.7451C319.493 93.7451 312.511 100.728 312.511 109.341C312.511 117.955 319.493 124.937 328.107 124.937Z" fill="black"/>
<path d="M265.554 124.937C274.168 124.937 281.15 117.955 281.15 109.341C281.15 100.728 274.168 93.7451 265.554 93.7451C256.941 93.7451 249.958 100.728 249.958 109.341C249.958 117.955 256.941 124.937 265.554 124.937Z" fill="black"/>
<path d="M328.107 156.214C336.72 156.214 343.703 149.231 343.703 140.618C343.703 132.004 336.72 125.021 328.107 125.021C319.493 125.021 312.511 132.004 312.511 140.618C312.511 149.231 319.493 156.214 328.107 156.214Z" fill="black"/>
<path d="M328.107 187.489C336.72 187.489 343.703 180.507 343.703 171.893C343.703 163.28 336.72 156.297 328.107 156.297C319.493 156.297 312.511 163.28 312.511 171.893C312.511 180.507 319.493 187.489 328.107 187.489Z" fill="black"/>
<path d="M328.107 156.214C336.72 156.214 343.703 149.231 343.703 140.618C343.703 132.004 336.72 125.021 328.107 125.021C319.493 125.021 312.511 132.004 312.511 140.618C312.511 149.231 319.493 156.214 328.107 156.214Z" fill="black"/>
<path d="M328.107 187.489C336.72 187.489 343.703 180.507 343.703 171.893C343.703 163.28 336.72 156.297 328.107 156.297C319.493 156.297 312.511 163.28 312.511 171.893C312.511 180.507 319.493 187.489 328.107 187.489Z" fill="black"/>
<path d="M328.107 218.682C336.72 218.682 343.703 211.699 343.703 203.085C343.703 194.472 336.72 187.489 328.107 187.489C319.493 187.489 312.511 194.472 312.511 203.085C312.511 211.699 319.493 218.682 328.107 218.682Z" fill="black"/>
<path d="M328.107 249.958C336.72 249.958 343.703 242.975 343.703 234.362C343.703 225.748 336.72 218.766 328.107 218.766C319.493 218.766 312.511 225.748 312.511 234.362C312.511 242.975 319.493 249.958 328.107 249.958Z" fill="black"/>
<path d="M328.107 218.682C336.72 218.682 343.703 211.699 343.703 203.085C343.703 194.472 336.72 187.489 328.107 187.489C319.493 187.489 312.511 194.472 312.511 203.085C312.511 211.699 319.493 218.682 328.107 218.682Z" fill="black"/>
<path d="M328.107 249.958C336.72 249.958 343.703 242.975 343.703 234.362C343.703 225.748 336.72 218.766 328.107 218.766C319.493 218.766 312.511 225.748 312.511 234.362C312.511 242.975 319.493 249.958 328.107 249.958Z" fill="black"/>
<path d="M328.107 281.234C336.72 281.234 343.703 274.252 343.703 265.638C343.703 257.025 336.72 250.042 328.107 250.042C319.493 250.042 312.511 257.025 312.511 265.638C312.511 274.252 319.493 281.234 328.107 281.234Z" fill="black"/>
<path d="M328.107 312.427C336.72 312.427 343.703 305.444 343.703 296.831C343.703 288.217 336.72 281.234 328.107 281.234C319.493 281.234 312.511 288.217 312.511 296.831C312.511 305.444 319.493 312.427 328.107 312.427Z" fill="black"/>
<path d="M328.107 281.234C336.72 281.234 343.703 274.252 343.703 265.638C343.703 257.025 336.72 250.042 328.107 250.042C319.493 250.042 312.511 257.025 312.511 265.638C312.511 274.252 319.493 281.234 328.107 281.234Z" fill="black"/>
<path d="M328.107 312.427C336.72 312.427 343.703 305.444 343.703 296.831C343.703 288.217 336.72 281.234 328.107 281.234C319.493 281.234 312.511 288.217 312.511 296.831C312.511 305.444 319.493 312.427 328.107 312.427Z" fill="black"/>
<path d="M328.107 343.703C336.72 343.703 343.703 336.72 343.703 328.107C343.703 319.493 336.72 312.511 328.107 312.511C319.493 312.511 312.511 319.493 312.511 328.107C312.511 336.72 319.493 343.703 328.107 343.703Z" fill="black"/>
<path d="M328.107 374.979C336.72 374.979 343.703 367.997 343.703 359.383C343.703 350.77 336.72 343.787 328.107 343.787C319.493 343.787 312.511 350.77 312.511 359.383C312.511 367.997 319.493 374.979 328.107 374.979Z" fill="black"/>
<path d="M328.107 343.703C336.72 343.703 343.703 336.72 343.703 328.107C343.703 319.493 336.72 312.511 328.107 312.511C319.493 312.511 312.511 319.493 312.511 328.107C312.511 336.72 319.493 343.703 328.107 343.703Z" fill="black"/>
<path d="M328.107 374.979C336.72 374.979 343.703 367.997 343.703 359.383C343.703 350.77 336.72 343.787 328.107 343.787C319.493 343.787 312.511 350.77 312.511 359.383C312.511 367.997 319.493 374.979 328.107 374.979Z" fill="black"/>
<path d="M140.534 500C149.147 500 156.13 493.017 156.13 484.404C156.13 475.79 149.147 468.808 140.534 468.808C131.92 468.808 124.938 475.79 124.938 484.404C124.938 493.017 131.92 500 140.534 500Z" fill="black"/>
<path d="M140.534 468.724C149.147 468.724 156.13 461.741 156.13 453.127C156.13 444.514 149.147 437.531 140.534 437.531C131.92 437.531 124.938 444.514 124.938 453.127C124.938 461.741 131.92 468.724 140.534 468.724Z" fill="black"/>
<path d="M140.534 437.447C149.147 437.447 156.13 430.465 156.13 421.851C156.13 413.238 149.147 406.255 140.534 406.255C131.92 406.255 124.938 413.238 124.938 421.851C124.938 430.465 131.92 437.447 140.534 437.447Z" fill="black"/>
<path d="M203.085 500C211.699 500 218.682 493.017 218.682 484.404C218.682 475.79 211.699 468.808 203.085 468.808C194.472 468.808 187.489 475.79 187.489 484.404C187.489 493.017 194.472 500 203.085 500Z" fill="black"/>
<path d="M265.554 500C274.168 500 281.15 493.017 281.15 484.404C281.15 475.79 274.168 468.808 265.554 468.808C256.941 468.808 249.958 475.79 249.958 484.404C249.958 493.017 256.941 500 265.554 500Z" fill="black"/>
<path d="M203.085 468.724C211.699 468.724 218.682 461.741 218.682 453.127C218.682 444.514 211.699 437.531 203.085 437.531C194.472 437.531 187.489 444.514 187.489 453.127C187.489 461.741 194.472 468.724 203.085 468.724Z" fill="black"/>
<path d="M265.554 468.724C274.168 468.724 281.15 461.741 281.15 453.127C281.15 444.514 274.168 437.531 265.554 437.531C256.941 437.531 249.958 444.514 249.958 453.127C249.958 461.741 256.941 468.724 265.554 468.724Z" fill="black"/>
<path d="M203.085 437.447C211.699 437.447 218.682 430.465 218.682 421.851C218.682 413.238 211.699 406.255 203.085 406.255C194.472 406.255 187.489 413.238 187.489 421.851C187.489 430.465 194.472 437.447 203.085 437.447Z" fill="black"/>
<path d="M265.554 437.447C274.168 437.447 281.15 430.465 281.15 421.851C281.15 413.238 274.168 406.255 265.554 406.255C256.941 406.255 249.958 413.238 249.958 421.851C249.958 430.465 256.941 437.447 265.554 437.447Z" fill="black"/>
<path d="M328.107 437.447C336.72 437.447 343.703 430.465 343.703 421.851C343.703 413.238 336.72 406.255 328.107 406.255C319.493 406.255 312.511 413.238 312.511 421.851C312.511 430.465 319.493 437.447 328.107 437.447Z" fill="black"/>
<path d="M328.107 406.255C336.72 406.255 343.703 399.272 343.703 390.659C343.703 382.045 336.72 375.062 328.107 375.062C319.493 375.062 312.511 382.045 312.511 390.659C312.511 399.272 319.493 406.255 328.107 406.255Z" fill="black"/>
<path d="M265.554 406.255C274.168 406.255 281.15 399.272 281.15 390.659C281.15 382.045 274.168 375.062 265.554 375.062C256.941 375.062 249.958 382.045 249.958 390.659C249.958 399.272 256.941 406.255 265.554 406.255Z" fill="black"/>
<path d="M418.079 31.1924C426.692 31.1924 433.675 24.2097 433.675 15.5962C433.675 6.98265 426.692 0 418.079 0C409.465 0 402.482 6.98265 402.482 15.5962C402.482 24.2097 409.465 31.1924 418.079 31.1924Z" fill="black"/>
<path d="M449.355 31.1924C457.969 31.1924 464.951 24.2097 464.951 15.5962C464.951 6.98265 457.969 0 449.355 0C440.741 0 433.759 6.98265 433.759 15.5962C433.759 24.2097 440.741 31.1924 449.355 31.1924Z" fill="black"/>
<path d="M480.631 31.1924C489.245 31.1924 496.228 24.2097 496.228 15.5962C496.228 6.98265 489.245 0 480.631 0C472.018 0 465.035 6.98265 465.035 15.5962C465.035 24.2097 472.018 31.1924 480.631 31.1924Z" fill="black"/>
<path d="M418.079 62.4687C426.692 62.4687 433.675 55.4861 433.675 46.8725C433.675 38.259 426.692 31.2764 418.079 31.2764C409.465 31.2764 402.482 38.259 402.482 46.8725C402.482 55.4861 409.465 62.4687 418.079 62.4687Z" fill="black"/>
<path d="M449.355 62.4687C457.969 62.4687 464.951 55.4861 464.951 46.8725C464.951 38.259 457.969 31.2764 449.355 31.2764C440.741 31.2764 433.759 38.259 433.759 46.8725C433.759 55.4861 440.741 62.4687 449.355 62.4687Z" fill="black"/>
<path d="M480.631 62.4687C489.245 62.4687 496.228 55.4861 496.228 46.8725C496.228 38.259 489.245 31.2764 480.631 31.2764C472.018 31.2764 465.035 38.259 465.035 46.8725C465.035 55.4861 472.018 62.4687 480.631 62.4687Z" fill="black"/>
<path d="M418.079 93.7451C426.692 93.7451 433.675 86.7624 433.675 78.1489C433.675 69.5354 426.692 62.5527 418.079 62.5527C409.465 62.5527 402.482 69.5354 402.482 78.1489C402.482 86.7624 409.465 93.7451 418.079 93.7451Z" fill="black"/>
<path d="M449.355 93.7451C457.969 93.7451 464.951 86.7624 464.951 78.1489C464.951 69.5354 457.969 62.5527 449.355 62.5527C440.741 62.5527 433.759 69.5354 433.759 78.1489C433.759 86.7624 440.741 93.7451 449.355 93.7451Z" fill="black"/>
<path d="M480.631 93.7451C489.245 93.7451 496.228 86.7624 496.228 78.1489C496.228 69.5354 489.245 62.5527 480.631 62.5527C472.018 62.5527 465.035 69.5354 465.035 78.1489C465.035 86.7624 472.018 93.7451 480.631 93.7451Z" fill="black"/>
<path d="M418.079 124.937C426.692 124.937 433.675 117.955 433.675 109.341C433.675 100.728 426.692 93.7451 418.079 93.7451C409.465 93.7451 402.482 100.728 402.482 109.341C402.482 117.955 409.465 124.937 418.079 124.937Z" fill="black"/>
<path d="M449.355 124.937C457.969 124.937 464.951 117.955 464.951 109.341C464.951 100.728 457.969 93.7451 449.355 93.7451C440.741 93.7451 433.759 100.728 433.759 109.341C433.759 117.955 440.741 124.937 449.355 124.937Z" fill="black"/>
<path d="M480.631 124.937C489.245 124.937 496.228 117.955 496.228 109.341C496.228 100.728 489.245 93.7451 480.631 93.7451C472.018 93.7451 465.035 100.728 465.035 109.341C465.035 117.955 472.018 124.937 480.631 124.937Z" fill="black"/>
<path d="M418.079 156.213C426.692 156.213 433.675 149.23 433.675 140.617C433.675 132.003 426.692 125.021 418.079 125.021C409.465 125.021 402.482 132.003 402.482 140.617C402.482 149.23 409.465 156.213 418.079 156.213Z" fill="black"/>
<path d="M449.355 156.213C457.969 156.213 464.951 149.23 464.951 140.617C464.951 132.003 457.969 125.021 449.355 125.021C440.741 125.021 433.759 132.003 433.759 140.617C433.759 149.23 440.741 156.213 449.355 156.213Z" fill="black"/>
<path d="M480.631 156.213C489.245 156.213 496.228 149.23 496.228 140.617C496.228 132.003 489.245 125.021 480.631 125.021C472.018 125.021 465.035 132.003 465.035 140.617C465.035 149.23 472.018 156.213 480.631 156.213Z" fill="black"/>
<path d="M418.079 187.489C426.692 187.489 433.675 180.507 433.675 171.893C433.675 163.28 426.692 156.297 418.079 156.297C409.465 156.297 402.482 163.28 402.482 171.893C402.482 180.507 409.465 187.489 418.079 187.489Z" fill="black"/>
<path d="M449.355 187.489C457.969 187.489 464.951 180.507 464.951 171.893C464.951 163.28 457.969 156.297 449.355 156.297C440.741 156.297 433.759 163.28 433.759 171.893C433.759 180.507 440.741 187.489 449.355 187.489Z" fill="black"/>
<path d="M480.631 187.489C489.245 187.489 496.228 180.507 496.228 171.893C496.228 163.28 489.245 156.297 480.631 156.297C472.018 156.297 465.035 163.28 465.035 171.893C465.035 180.507 472.018 187.489 480.631 187.489Z" fill="black"/>
<path d="M418.079 218.682C426.692 218.682 433.675 211.699 433.675 203.085C433.675 194.472 426.692 187.489 418.079 187.489C409.465 187.489 402.482 194.472 402.482 203.085C402.482 211.699 409.465 218.682 418.079 218.682Z" fill="black"/>
<path d="M449.355 218.682C457.969 218.682 464.951 211.699 464.951 203.085C464.951 194.472 457.969 187.489 449.355 187.489C440.741 187.489 433.759 194.472 433.759 203.085C433.759 211.699 440.741 218.682 449.355 218.682Z" fill="black"/>
<path d="M480.631 218.682C489.245 218.682 496.228 211.699 496.228 203.085C496.228 194.472 489.245 187.489 480.631 187.489C472.018 187.489 465.035 194.472 465.035 203.085C465.035 211.699 472.018 218.682 480.631 218.682Z" fill="black"/>
<path d="M418.079 249.958C426.692 249.958 433.675 242.975 433.675 234.362C433.675 225.748 426.692 218.766 418.079 218.766C409.465 218.766 402.482 225.748 402.482 234.362C402.482 242.975 409.465 249.958 418.079 249.958Z" fill="black"/>
<path d="M449.355 249.958C457.969 249.958 464.951 242.975 464.951 234.362C464.951 225.748 457.969 218.766 449.355 218.766C440.741 218.766 433.759 225.748 433.759 234.362C433.759 242.975 440.741 249.958 449.355 249.958Z" fill="black"/>
<path d="M480.631 249.958C489.245 249.958 496.228 242.975 496.228 234.362C496.228 225.748 489.245 218.766 480.631 218.766C472.018 218.766 465.035 225.748 465.035 234.362C465.035 242.975 472.018 249.958 480.631 249.958Z" fill="black"/>
<path d="M418.079 281.234C426.692 281.234 433.675 274.252 433.675 265.638C433.675 257.025 426.692 250.042 418.079 250.042C409.465 250.042 402.482 257.025 402.482 265.638C402.482 274.252 409.465 281.234 418.079 281.234Z" fill="black"/>
<path d="M449.355 281.234C457.969 281.234 464.951 274.252 464.951 265.638C464.951 257.025 457.969 250.042 449.355 250.042C440.741 250.042 433.759 257.025 433.759 265.638C433.759 274.252 440.741 281.234 449.355 281.234Z" fill="black"/>
<path d="M480.631 281.234C489.245 281.234 496.228 274.252 496.228 265.638C496.228 257.025 489.245 250.042 480.631 250.042C472.018 250.042 465.035 257.025 465.035 265.638C465.035 274.252 472.018 281.234 480.631 281.234Z" fill="black"/>
<path d="M418.079 312.427C426.692 312.427 433.675 305.444 433.675 296.831C433.675 288.217 426.692 281.234 418.079 281.234C409.465 281.234 402.482 288.217 402.482 296.831C402.482 305.444 409.465 312.427 418.079 312.427Z" fill="black"/>
<path d="M449.355 312.427C457.969 312.427 464.951 305.444 464.951 296.831C464.951 288.217 457.969 281.234 449.355 281.234C440.741 281.234 433.759 288.217 433.759 296.831C433.759 305.444 440.741 312.427 449.355 312.427Z" fill="black"/>
<path d="M480.631 312.427C489.245 312.427 496.228 305.444 496.228 296.831C496.228 288.217 489.245 281.234 480.631 281.234C472.018 281.234 465.035 288.217 465.035 296.831C465.035 305.444 472.018 312.427 480.631 312.427Z" fill="black"/>
<path d="M418.079 343.703C426.692 343.703 433.675 336.72 433.675 328.107C433.675 319.493 426.692 312.511 418.079 312.511C409.465 312.511 402.482 319.493 402.482 328.107C402.482 336.72 409.465 343.703 418.079 343.703Z" fill="black"/>
<path d="M449.355 343.703C457.969 343.703 464.951 336.72 464.951 328.107C464.951 319.493 457.969 312.511 449.355 312.511C440.741 312.511 433.759 319.493 433.759 328.107C433.759 336.72 440.741 343.703 449.355 343.703Z" fill="black"/>
<path d="M480.631 343.703C489.245 343.703 496.228 336.72 496.228 328.107C496.228 319.493 489.245 312.511 480.631 312.511C472.018 312.511 465.035 319.493 465.035 328.107C465.035 336.72 472.018 343.703 480.631 343.703Z" fill="black"/>
<path d="M418.079 374.979C426.692 374.979 433.675 367.997 433.675 359.383C433.675 350.77 426.692 343.787 418.079 343.787C409.465 343.787 402.482 350.77 402.482 359.383C402.482 367.997 409.465 374.979 418.079 374.979Z" fill="black"/>
<path d="M449.355 374.979C457.969 374.979 464.951 367.997 464.951 359.383C464.951 350.77 457.969 343.787 449.355 343.787C440.741 343.787 433.759 350.77 433.759 359.383C433.759 367.997 440.741 374.979 449.355 374.979Z" fill="black"/>
<path d="M480.631 374.979C489.245 374.979 496.228 367.997 496.228 359.383C496.228 350.77 489.245 343.787 480.631 343.787C472.018 343.787 465.035 350.77 465.035 359.383C465.035 367.997 472.018 374.979 480.631 374.979Z" fill="black"/>
<path d="M418.079 406.255C426.692 406.255 433.675 399.272 433.675 390.659C433.675 382.045 426.692 375.062 418.079 375.062C409.465 375.062 402.482 382.045 402.482 390.659C402.482 399.272 409.465 406.255 418.079 406.255Z" fill="black"/>
<path d="M449.355 406.255C457.969 406.255 464.951 399.272 464.951 390.659C464.951 382.045 457.969 375.062 449.355 375.062C440.741 375.062 433.759 382.045 433.759 390.659C433.759 399.272 440.741 406.255 449.355 406.255Z" fill="black"/>
<path d="M480.631 406.255C489.245 406.255 496.228 399.272 496.228 390.659C496.228 382.045 489.245 375.062 480.631 375.062C472.018 375.062 465.035 382.045 465.035 390.659C465.035 399.272 472.018 406.255 480.631 406.255Z" fill="black"/>
<path d="M418.079 437.447C426.692 437.447 433.675 430.465 433.675 421.851C433.675 413.238 426.692 406.255 418.079 406.255C409.465 406.255 402.482 413.238 402.482 421.851C402.482 430.465 409.465 437.447 418.079 437.447Z" fill="black"/>
<path d="M449.355 437.447C457.969 437.447 464.951 430.465 464.951 421.851C464.951 413.238 457.969 406.255 449.355 406.255C440.741 406.255 433.759 413.238 433.759 421.851C433.759 430.465 440.741 437.447 449.355 437.447Z" fill="black"/>
<path d="M480.631 437.447C489.245 437.447 496.228 430.465 496.228 421.851C496.228 413.238 489.245 406.255 480.631 406.255C472.018 406.255 465.035 413.238 465.035 421.851C465.035 430.465 472.018 437.447 480.631 437.447Z" fill="black"/>
<path d="M418.079 468.724C426.692 468.724 433.675 461.741 433.675 453.127C433.675 444.514 426.692 437.531 418.079 437.531C409.465 437.531 402.482 444.514 402.482 453.127C402.482 461.741 409.465 468.724 418.079 468.724Z" fill="black"/>
<path d="M449.355 468.724C457.969 468.724 464.951 461.741 464.951 453.127C464.951 444.514 457.969 437.531 449.355 437.531C440.741 437.531 433.759 444.514 433.759 453.127C433.759 461.741 440.741 468.724 449.355 468.724Z" fill="black"/>
<path d="M480.631 468.724C489.245 468.724 496.228 461.741 496.228 453.127C496.228 444.514 489.245 437.531 480.631 437.531C472.018 437.531 465.035 444.514 465.035 453.127C465.035 461.741 472.018 468.724 480.631 468.724Z" fill="black"/>
<path d="M418.079 500C426.692 500 433.675 493.017 433.675 484.404C433.675 475.79 426.692 468.808 418.079 468.808C409.465 468.808 402.482 475.79 402.482 484.404C402.482 493.017 409.465 500 418.079 500Z" fill="black"/>
<path d="M449.355 500C457.969 500 464.951 493.017 464.951 484.404C464.951 475.79 457.969 468.808 449.355 468.808C440.741 468.808 433.759 475.79 433.759 484.404C433.759 493.017 440.741 500 449.355 500Z" fill="black"/>
<path d="M480.631 500C489.245 500 496.228 493.017 496.228 484.404C496.228 475.79 489.245 468.808 480.631 468.808C472.018 468.808 465.035 475.79 465.035 484.404C465.035 493.017 472.018 500 480.631 500Z" fill="black"/>
<path d="M605.568 31.1924C614.182 31.1924 621.164 24.2097 621.164 15.5962C621.164 6.98265 614.182 0 605.568 0C596.954 0 589.972 6.98265 589.972 15.5962C589.972 24.2097 596.954 31.1924 605.568 31.1924Z" fill="black"/>
<path d="M605.568 62.4687C614.182 62.4687 621.164 55.4861 621.164 46.8725C621.164 38.259 614.182 31.2764 605.568 31.2764C596.954 31.2764 589.972 38.259 589.972 46.8725C589.972 55.4861 596.954 62.4687 605.568 62.4687Z" fill="black"/>
<path d="M605.568 93.7451C614.182 93.7451 621.164 86.7624 621.164 78.1489C621.164 69.5354 614.182 62.5527 605.568 62.5527C596.954 62.5527 589.972 69.5354 589.972 78.1489C589.972 86.7624 596.954 93.7451 605.568 93.7451Z" fill="black"/>
<path d="M574.376 31.1924C582.989 31.1924 589.972 24.2097 589.972 15.5962C589.972 6.98265 582.989 0 574.376 0C565.762 0 558.779 6.98265 558.779 15.5962C558.779 24.2097 565.762 31.1924 574.376 31.1924Z" fill="black"/>
<path d="M574.376 62.4687C582.989 62.4687 589.972 55.4861 589.972 46.8725C589.972 38.259 582.989 31.2764 574.376 31.2764C565.762 31.2764 558.779 38.259 558.779 46.8725C558.779 55.4861 565.762 62.4687 574.376 62.4687Z" fill="black"/>
<path d="M574.376 93.7451C582.989 93.7451 589.972 86.7624 589.972 78.1489C589.972 69.5354 582.989 62.5527 574.376 62.5527C565.762 62.5527 558.779 69.5354 558.779 78.1489C558.779 86.7624 565.762 93.7451 574.376 93.7451Z" fill="black"/>
<path d="M543.1 31.1924C551.713 31.1924 558.696 24.2097 558.696 15.5962C558.696 6.98265 551.713 0 543.1 0C534.486 0 527.504 6.98265 527.504 15.5962C527.504 24.2097 534.486 31.1924 543.1 31.1924Z" fill="black"/>
<path d="M543.1 62.4687C551.713 62.4687 558.696 55.4861 558.696 46.8725C558.696 38.259 551.713 31.2764 543.1 31.2764C534.486 31.2764 527.504 38.259 527.504 46.8725C527.504 55.4861 534.486 62.4687 543.1 62.4687Z" fill="black"/>
<path d="M543.1 93.7451C551.713 93.7451 558.696 86.7624 558.696 78.1489C558.696 69.5354 551.713 62.5527 543.1 62.5527C534.486 62.5527 527.504 69.5354 527.504 78.1489C527.504 86.7624 534.486 93.7451 543.1 93.7451Z" fill="black"/>
<path d="M511.824 31.1924C520.437 31.1924 527.42 24.2097 527.42 15.5962C527.42 6.98265 520.437 0 511.824 0C503.21 0 496.228 6.98265 496.228 15.5962C496.228 24.2097 503.21 31.1924 511.824 31.1924Z" fill="black"/>
<path d="M511.824 62.4687C520.437 62.4687 527.42 55.4861 527.42 46.8725C527.42 38.259 520.437 31.2764 511.824 31.2764C503.21 31.2764 496.228 38.259 496.228 46.8725C496.228 55.4861 503.21 62.4687 511.824 62.4687Z" fill="black"/>
<path d="M511.824 93.7451C520.437 93.7451 527.42 86.7624 527.42 78.1489C527.42 69.5354 520.437 62.5527 511.824 62.5527C503.21 62.5527 496.228 69.5354 496.228 78.1489C496.228 86.7624 503.21 93.7451 511.824 93.7451Z" fill="black"/>
<path d="M699.313 31.1924C707.926 31.1924 714.909 24.2097 714.909 15.5962C714.909 6.98265 707.926 0 699.313 0C690.699 0 683.717 6.98265 683.717 15.5962C683.717 24.2097 690.699 31.1924 699.313 31.1924Z" fill="black"/>
<path d="M699.313 62.4687C707.926 62.4687 714.909 55.4861 714.909 46.8725C714.909 38.259 707.926 31.2764 699.313 31.2764C690.699 31.2764 683.717 38.259 683.717 46.8725C683.717 55.4861 690.699 62.4687 699.313 62.4687Z" fill="black"/>
<path d="M699.313 93.7451C707.926 93.7451 714.909 86.7624 714.909 78.1489C714.909 69.5354 707.926 62.5527 699.313 62.5527C690.699 62.5527 683.717 69.5354 683.717 78.1489C683.717 86.7624 690.699 93.7451 699.313 93.7451Z" fill="black"/>
<path d="M668.12 31.1924C676.734 31.1924 683.717 24.2097 683.717 15.5962C683.717 6.98265 676.734 0 668.12 0C659.507 0 652.524 6.98265 652.524 15.5962C652.524 24.2097 659.507 31.1924 668.12 31.1924Z" fill="black"/>
<path d="M668.12 62.4687C676.734 62.4687 683.717 55.4861 683.717 46.8725C683.717 38.259 676.734 31.2764 668.12 31.2764C659.507 31.2764 652.524 38.259 652.524 46.8725C652.524 55.4861 659.507 62.4687 668.12 62.4687Z" fill="black"/>
<path d="M668.12 93.7451C676.734 93.7451 683.717 86.7624 683.717 78.1489C683.717 69.5354 676.734 62.5527 668.12 62.5527C659.507 62.5527 652.524 69.5354 652.524 78.1489C652.524 86.7624 659.507 93.7451 668.12 93.7451Z" fill="black"/>
<path d="M636.844 31.1924C645.458 31.1924 652.44 24.2097 652.44 15.5962C652.44 6.98265 645.458 0 636.844 0C628.231 0 621.248 6.98265 621.248 15.5962C621.248 24.2097 628.231 31.1924 636.844 31.1924Z" fill="black"/>
<path d="M636.844 62.4687C645.458 62.4687 652.44 55.4861 652.44 46.8725C652.44 38.259 645.458 31.2764 636.844 31.2764C628.231 31.2764 621.248 38.259 621.248 46.8725C621.248 55.4861 628.231 62.4687 636.844 62.4687Z" fill="black"/>
<path d="M636.844 93.7451C645.458 93.7451 652.44 86.7624 652.44 78.1489C652.44 69.5354 645.458 62.5527 636.844 62.5527C628.231 62.5527 621.248 69.5354 621.248 78.1489C621.248 86.7624 628.231 93.7451 636.844 93.7451Z" fill="black"/>
<path d="M605.568 216.753C614.182 216.753 621.164 209.77 621.164 201.157C621.164 192.543 614.182 185.561 605.568 185.561C596.954 185.561 589.972 192.543 589.972 201.157C589.972 209.77 596.954 216.753 605.568 216.753Z" fill="black"/>
<path d="M605.568 247.945C614.182 247.945 621.164 240.963 621.164 232.349C621.164 223.736 614.182 216.753 605.568 216.753C596.954 216.753 589.972 223.736 589.972 232.349C589.972 240.963 596.954 247.945 605.568 247.945Z" fill="black"/>
<path d="M605.568 279.222C614.182 279.222 621.164 272.239 621.164 263.625C621.164 255.012 614.182 248.029 605.568 248.029C596.954 248.029 589.972 255.012 589.972 263.625C589.972 272.239 596.954 279.222 605.568 279.222Z" fill="black"/>
<path d="M574.376 216.753C582.989 216.753 589.972 209.77 589.972 201.157C589.972 192.543 582.989 185.561 574.376 185.561C565.762 185.561 558.779 192.543 558.779 201.157C558.779 209.77 565.762 216.753 574.376 216.753Z" fill="black"/>
<path d="M574.376 247.945C582.989 247.945 589.972 240.963 589.972 232.349C589.972 223.736 582.989 216.753 574.376 216.753C565.762 216.753 558.779 223.736 558.779 232.349C558.779 240.963 565.762 247.945 574.376 247.945Z" fill="black"/>
<path d="M574.376 279.222C582.989 279.222 589.972 272.239 589.972 263.625C589.972 255.012 582.989 248.029 574.376 248.029C565.762 248.029 558.779 255.012 558.779 263.625C558.779 272.239 565.762 279.222 574.376 279.222Z" fill="black"/>
<path d="M543.1 216.753C551.713 216.753 558.696 209.77 558.696 201.157C558.696 192.543 551.713 185.561 543.1 185.561C534.486 185.561 527.504 192.543 527.504 201.157C527.504 209.77 534.486 216.753 543.1 216.753Z" fill="black"/>
<path d="M543.1 247.945C551.713 247.945 558.696 240.963 558.696 232.349C558.696 223.736 551.713 216.753 543.1 216.753C534.486 216.753 527.504 223.736 527.504 232.349C527.504 240.963 534.486 247.945 543.1 247.945Z" fill="black"/>
<path d="M543.1 279.222C551.713 279.222 558.696 272.239 558.696 263.625C558.696 255.012 551.713 248.029 543.1 248.029C534.486 248.029 527.504 255.012 527.504 263.625C527.504 272.239 534.486 279.222 543.1 279.222Z" fill="black"/>
<path d="M511.824 216.753C520.437 216.753 527.42 209.77 527.42 201.157C527.42 192.543 520.437 185.561 511.824 185.561C503.21 185.561 496.228 192.543 496.228 201.157C496.228 209.77 503.21 216.753 511.824 216.753Z" fill="black"/>
<path d="M511.824 247.945C520.437 247.945 527.42 240.963 527.42 232.349C527.42 223.736 520.437 216.753 511.824 216.753C503.21 216.753 496.228 223.736 496.228 232.349C496.228 240.963 503.21 247.945 511.824 247.945Z" fill="black"/>
<path d="M511.824 279.222C520.437 279.222 527.42 272.239 527.42 263.625C527.42 255.012 520.437 248.029 511.824 248.029C503.21 248.029 496.228 255.012 496.228 263.625C496.228 272.239 503.21 279.222 511.824 279.222Z" fill="black"/>
<path d="M699.313 216.753C707.926 216.753 714.909 209.77 714.909 201.157C714.909 192.543 707.926 185.561 699.313 185.561C690.699 185.561 683.717 192.543 683.717 201.157C683.717 209.77 690.699 216.753 699.313 216.753Z" fill="black"/>
<path d="M699.313 247.945C707.926 247.945 714.909 240.963 714.909 232.349C714.909 223.736 707.926 216.753 699.313 216.753C690.699 216.753 683.717 223.736 683.717 232.349C683.717 240.963 690.699 247.945 699.313 247.945Z" fill="black"/>
<path d="M699.313 279.222C707.926 279.222 714.909 272.239 714.909 263.625C714.909 255.012 707.926 248.029 699.313 248.029C690.699 248.029 683.717 255.012 683.717 263.625C683.717 272.239 690.699 279.222 699.313 279.222Z" fill="black"/>
<path d="M668.12 216.753C676.734 216.753 683.717 209.77 683.717 201.157C683.717 192.543 676.734 185.561 668.12 185.561C659.507 185.561 652.524 192.543 652.524 201.157C652.524 209.77 659.507 216.753 668.12 216.753Z" fill="black"/>
<path d="M668.12 247.945C676.734 247.945 683.717 240.963 683.717 232.349C683.717 223.736 676.734 216.753 668.12 216.753C659.507 216.753 652.524 223.736 652.524 232.349C652.524 240.963 659.507 247.945 668.12 247.945Z" fill="black"/>
<path d="M668.12 279.222C676.734 279.222 683.717 272.239 683.717 263.625C683.717 255.012 676.734 248.029 668.12 248.029C659.507 248.029 652.524 255.012 652.524 263.625C652.524 272.239 659.507 279.222 668.12 279.222Z" fill="black"/>
<path d="M636.844 216.753C645.458 216.753 652.44 209.77 652.44 201.157C652.44 192.543 645.458 185.561 636.844 185.561C628.231 185.561 621.248 192.543 621.248 201.157C621.248 209.77 628.231 216.753 636.844 216.753Z" fill="black"/>
<path d="M636.844 247.945C645.458 247.945 652.44 240.963 652.44 232.349C652.44 223.736 645.458 216.753 636.844 216.753C628.231 216.753 621.248 223.736 621.248 232.349C621.248 240.963 628.231 247.945 636.844 247.945Z" fill="black"/>
<path d="M636.844 279.222C645.458 279.222 652.44 272.239 652.44 263.625C652.44 255.012 645.458 248.029 636.844 248.029C628.231 248.029 621.248 255.012 621.248 263.625C621.248 272.239 628.231 279.222 636.844 279.222Z" fill="black"/>
<path d="M605.568 437.447C614.182 437.447 621.164 430.465 621.164 421.851C621.164 413.238 614.182 406.255 605.568 406.255C596.954 406.255 589.972 413.238 589.972 421.851C589.972 430.465 596.954 437.447 605.568 437.447Z" fill="black"/>
<path d="M605.568 468.724C614.182 468.724 621.164 461.741 621.164 453.127C621.164 444.514 614.182 437.531 605.568 437.531C596.954 437.531 589.972 444.514 589.972 453.127C589.972 461.741 596.954 468.724 605.568 468.724Z" fill="black"/>
<path d="M605.568 500C614.182 500 621.164 493.017 621.164 484.404C621.164 475.79 614.182 468.808 605.568 468.808C596.954 468.808 589.972 475.79 589.972 484.404C589.972 493.017 596.954 500 605.568 500Z" fill="black"/>
<path d="M574.376 437.447C582.989 437.447 589.972 430.465 589.972 421.851C589.972 413.238 582.989 406.255 574.376 406.255C565.762 406.255 558.779 413.238 558.779 421.851C558.779 430.465 565.762 437.447 574.376 437.447Z" fill="black"/>
<path d="M574.376 468.724C582.989 468.724 589.972 461.741 589.972 453.127C589.972 444.514 582.989 437.531 574.376 437.531C565.762 437.531 558.779 444.514 558.779 453.127C558.779 461.741 565.762 468.724 574.376 468.724Z" fill="black"/>
<path d="M574.376 500C582.989 500 589.972 493.017 589.972 484.404C589.972 475.79 582.989 468.808 574.376 468.808C565.762 468.808 558.779 475.79 558.779 484.404C558.779 493.017 565.762 500 574.376 500Z" fill="black"/>
<path d="M543.1 437.447C551.713 437.447 558.696 430.465 558.696 421.851C558.696 413.238 551.713 406.255 543.1 406.255C534.486 406.255 527.504 413.238 527.504 421.851C527.504 430.465 534.486 437.447 543.1 437.447Z" fill="black"/>
<path d="M543.1 468.724C551.713 468.724 558.696 461.741 558.696 453.127C558.696 444.514 551.713 437.531 543.1 437.531C534.486 437.531 527.504 444.514 527.504 453.127C527.504 461.741 534.486 468.724 543.1 468.724Z" fill="black"/>
<path d="M543.1 500C551.713 500 558.696 493.017 558.696 484.404C558.696 475.79 551.713 468.808 543.1 468.808C534.486 468.808 527.504 475.79 527.504 484.404C527.504 493.017 534.486 500 543.1 500Z" fill="black"/>
<path d="M511.824 437.447C520.437 437.447 527.42 430.465 527.42 421.851C527.42 413.238 520.437 406.255 511.824 406.255C503.21 406.255 496.228 413.238 496.228 421.851C496.228 430.465 503.21 437.447 511.824 437.447Z" fill="black"/>
<path d="M511.824 468.724C520.437 468.724 527.42 461.741 527.42 453.127C527.42 444.514 520.437 437.531 511.824 437.531C503.21 437.531 496.228 444.514 496.228 453.127C496.228 461.741 503.21 468.724 511.824 468.724Z" fill="black"/>
<path d="M511.824 500C520.437 500 527.42 493.017 527.42 484.404C527.42 475.79 520.437 468.808 511.824 468.808C503.21 468.808 496.228 475.79 496.228 484.404C496.228 493.017 503.21 500 511.824 500Z" fill="black"/>
<path d="M699.313 437.447C707.926 437.447 714.909 430.465 714.909 421.851C714.909 413.238 707.926 406.255 699.313 406.255C690.699 406.255 683.717 413.238 683.717 421.851C683.717 430.465 690.699 437.447 699.313 437.447Z" fill="black"/>
<path d="M699.313 468.724C707.926 468.724 714.909 461.741 714.909 453.127C714.909 444.514 707.926 437.531 699.313 437.531C690.699 437.531 683.717 444.514 683.717 453.127C683.717 461.741 690.699 468.724 699.313 468.724Z" fill="black"/>
<path d="M699.313 500C707.926 500 714.909 493.017 714.909 484.404C714.909 475.79 707.926 468.808 699.313 468.808C690.699 468.808 683.717 475.79 683.717 484.404C683.717 493.017 690.699 500 699.313 500Z" fill="black"/>
<path d="M668.12 437.447C676.734 437.447 683.717 430.465 683.717 421.851C683.717 413.238 676.734 406.255 668.12 406.255C659.507 406.255 652.524 413.238 652.524 421.851C652.524 430.465 659.507 437.447 668.12 437.447Z" fill="black"/>
<path d="M668.12 468.724C676.734 468.724 683.717 461.741 683.717 453.127C683.717 444.514 676.734 437.531 668.12 437.531C659.507 437.531 652.524 444.514 652.524 453.127C652.524 461.741 659.507 468.724 668.12 468.724Z" fill="black"/>
<path d="M668.12 500C676.734 500 683.717 493.017 683.717 484.404C683.717 475.79 676.734 468.808 668.12 468.808C659.507 468.808 652.524 475.79 652.524 484.404C652.524 493.017 659.507 500 668.12 500Z" fill="black"/>
<path d="M636.844 437.447C645.458 437.447 652.44 430.465 652.44 421.851C652.44 413.238 645.458 406.255 636.844 406.255C628.231 406.255 621.248 413.238 621.248 421.851C621.248 430.465 628.231 437.447 636.844 437.447Z" fill="black"/>
<path d="M636.844 468.724C645.458 468.724 652.44 461.741 652.44 453.127C652.44 444.514 645.458 437.531 636.844 437.531C628.231 437.531 621.248 444.514 621.248 453.127C621.248 461.741 628.231 468.724 636.844 468.724Z" fill="black"/>
<path d="M636.844 500C645.458 500 652.44 493.017 652.44 484.404C652.44 475.79 645.458 468.808 636.844 468.808C628.231 468.808 621.248 475.79 621.248 484.404C621.248 493.017 628.231 500 636.844 500Z" fill="black"/>
</svg>
