<svg width="715" height="500" viewBox="0 0 715 500" fill="none" xmlns="http://www.w3.org/2000/svg">
<path d="M15.5962 31.1924C24.2097 31.1924 31.1924 24.2097 31.1924 15.5962C31.1924 6.98265 24.2097 0 15.5962 0C6.98265 0 0 6.98265 0 15.5962C0 24.2097 6.98265 31.1924 15.5962 31.1924Z" fill="black"/>
<path d="M46.8725 31.1924C55.4861 31.1924 62.4687 24.2097 62.4687 15.5962C62.4687 6.98265 55.4861 0 46.8725 0C38.259 0 31.2764 6.98265 31.2764 15.5962C31.2764 24.2097 38.259 31.1924 46.8725 31.1924Z" fill="black"/>
<path d="M15.5962 62.4688C24.2097 62.4688 31.1924 55.4861 31.1924 46.8726C31.1924 38.259 24.2097 31.2764 15.5962 31.2764C6.98265 31.2764 0 38.259 0 46.8726C0 55.4861 6.98265 62.4688 15.5962 62.4688Z" fill="black"/>
<path d="M46.8725 62.4688C55.4861 62.4688 62.4687 55.4861 62.4687 46.8726C62.4687 38.259 55.4861 31.2764 46.8725 31.2764C38.259 31.2764 31.2764 38.259 31.2764 46.8726C31.2764 55.4861 38.259 62.4688 46.8725 62.4688Z" fill="black"/>
<path d="M78.0649 62.4688C86.6785 62.4688 93.6611 55.4861 93.6611 46.8726C93.6611 38.259 86.6785 31.2764 78.0649 31.2764C69.4514 31.2764 62.4688 38.259 62.4688 46.8726C62.4688 55.4861 69.4514 62.4688 78.0649 62.4688Z" fill="black"/>
<path d="M15.5962 93.661C24.2097 93.661 31.1924 86.6784 31.1924 78.0649C31.1924 69.4513 24.2097 62.4688 15.5962 62.4688C6.98265 62.4688 0 69.4513 0 78.0649C0 86.6784 6.98265 93.661 15.5962 93.661Z" fill="black"/>
<path d="M46.8725 93.661C55.4861 93.661 62.4687 86.6784 62.4687 78.0649C62.4687 69.4513 55.4861 62.4688 46.8725 62.4688C38.259 62.4688 31.2764 69.4513 31.2764 78.0649C31.2764 86.6784 38.259 93.661 46.8725 93.661Z" fill="black"/>
<path d="M78.0649 93.661C86.6785 93.661 93.6611 86.6784 93.6611 78.0649C93.6611 69.4513 86.6785 62.4688 78.0649 62.4688C69.4514 62.4688 62.4688 69.4513 62.4688 78.0649C62.4688 86.6784 69.4514 93.661 78.0649 93.661Z" fill="black"/>
<path d="M15.5962 249.958C24.2097 249.958 31.1924 242.975 31.1924 234.362C31.1924 225.748 24.2097 218.766 15.5962 218.766C6.98265 218.766 0 225.748 0 234.362C0 242.975 6.98265 249.958 15.5962 249.958Z" fill="black"/>
<path d="M15.5962 281.234C24.2097 281.234 31.1924 274.252 31.1924 265.638C31.1924 257.025 24.2097 250.042 15.5962 250.042C6.98265 250.042 0 257.025 0 265.638C0 274.252 6.98265 281.234 15.5962 281.234Z" fill="black"/>
<path d="M46.8725 281.234C55.4861 281.234 62.4687 274.252 62.4687 265.638C62.4687 257.025 55.4861 250.042 46.8725 250.042C38.259 250.042 31.2764 257.025 31.2764 265.638C31.2764 274.252 38.259 281.234 46.8725 281.234Z" fill="black"/>
<path d="M15.5962 312.427C24.2097 312.427 31.1924 305.444 31.1924 296.831C31.1924 288.217 24.2097 281.234 15.5962 281.234C6.98265 281.234 0 288.217 0 296.831C0 305.444 6.98265 312.427 15.5962 312.427Z" fill="black"/>
<path d="M46.8725 312.427C55.4861 312.427 62.4687 305.444 62.4687 296.831C62.4687 288.217 55.4861 281.234 46.8725 281.234C38.259 281.234 31.2764 288.217 31.2764 296.831C31.2764 305.444 38.259 312.427 46.8725 312.427Z" fill="black"/>
<path d="M78.0649 312.427C86.6785 312.427 93.6611 305.444 93.6611 296.831C93.6611 288.217 86.6785 281.234 78.0649 281.234C69.4514 281.234 62.4688 288.217 62.4688 296.831C62.4688 305.444 69.4514 312.427 78.0649 312.427Z" fill="black"/>
<path d="M15.5962 343.703C24.2097 343.703 31.1924 336.72 31.1924 328.107C31.1924 319.493 24.2097 312.511 15.5962 312.511C6.98265 312.511 0 319.493 0 328.107C0 336.72 6.98265 343.703 15.5962 343.703Z" fill="black"/>
<path d="M46.8725 343.703C55.4861 343.703 62.4687 336.72 62.4687 328.107C62.4687 319.493 55.4861 312.511 46.8725 312.511C38.259 312.511 31.2764 319.493 31.2764 328.107C31.2764 336.72 38.259 343.703 46.8725 343.703Z" fill="black"/>
<path d="M78.0649 343.703C86.6785 343.703 93.6611 336.72 93.6611 328.107C93.6611 319.493 86.6785 312.511 78.0649 312.511C69.4514 312.511 62.4688 319.493 62.4688 328.107C62.4688 336.72 69.4514 343.703 78.0649 343.703Z" fill="black"/>
<path d="M15.5962 499.916C24.2097 499.916 31.1924 492.933 31.1924 484.32C31.1924 475.706 24.2097 468.724 15.5962 468.724C6.98265 468.724 0 475.706 0 484.32C0 492.933 6.98265 499.916 15.5962 499.916Z" fill="black"/>
<path d="M46.8725 499.916C55.4861 499.916 62.4687 492.933 62.4687 484.32C62.4687 475.706 55.4861 468.724 46.8725 468.724C38.259 468.724 31.2764 475.706 31.2764 484.32C31.2764 492.933 38.259 499.916 46.8725 499.916Z" fill="black"/>
<path d="M78.0649 499.916C86.6785 499.916 93.6611 492.933 93.6611 484.32C93.6611 475.706 86.6785 468.724 78.0649 468.724C69.4514 468.724 62.4688 475.706 62.4688 484.32C62.4688 492.933 69.4514 499.916 78.0649 499.916Z" fill="black"/>
<path d="M109.341 93.661C117.955 93.661 124.937 86.6784 124.937 78.0649C124.937 69.4513 117.955 62.4688 109.341 62.4688C100.728 62.4688 93.7451 69.4513 93.7451 78.0649C93.7451 86.6784 100.728 93.661 109.341 93.661Z" fill="black"/>
<path d="M203.085 31.1924C211.699 31.1924 218.682 24.2097 218.682 15.5962C218.682 6.98265 211.699 0 203.085 0C194.472 0 187.489 6.98265 187.489 15.5962C187.489 24.2097 194.472 31.1924 203.085 31.1924Z" fill="black"/>
<path d="M234.362 31.1924C242.975 31.1924 249.958 24.2097 249.958 15.5962C249.958 6.98265 242.975 0 234.362 0C225.748 0 218.766 6.98265 218.766 15.5962C218.766 24.2097 225.748 31.1924 234.362 31.1924Z" fill="black"/>
<path d="M265.554 31.1924C274.168 31.1924 281.15 24.2097 281.15 15.5962C281.15 6.98265 274.168 0 265.554 0C256.941 0 249.958 6.98265 249.958 15.5962C249.958 24.2097 256.941 31.1924 265.554 31.1924Z" fill="black"/>
<path d="M203.085 62.4688C211.699 62.4688 218.682 55.4861 218.682 46.8726C218.682 38.259 211.699 31.2764 203.085 31.2764C194.472 31.2764 187.489 38.259 187.489 46.8726C187.489 55.4861 194.472 62.4688 203.085 62.4688Z" fill="black"/>
<path d="M234.362 62.4688C242.975 62.4688 249.958 55.4861 249.958 46.8726C249.958 38.259 242.975 31.2764 234.362 31.2764C225.748 31.2764 218.766 38.259 218.766 46.8726C218.766 55.4861 225.748 62.4688 234.362 62.4688Z" fill="black"/>
<path d="M265.554 62.4688C274.168 62.4688 281.15 55.4861 281.15 46.8726C281.15 38.259 274.168 31.2764 265.554 31.2764C256.941 31.2764 249.958 38.259 249.958 46.8726C249.958 55.4861 256.941 62.4688 265.554 62.4688Z" fill="black"/>
<path d="M203.085 93.661C211.699 93.661 218.682 86.6784 218.682 78.0649C218.682 69.4513 211.699 62.4688 203.085 62.4688C194.472 62.4688 187.489 69.4513 187.489 78.0649C187.489 86.6784 194.472 93.661 203.085 93.661Z" fill="black"/>
<path d="M234.362 93.661C242.975 93.661 249.958 86.6784 249.958 78.0649C249.958 69.4513 242.975 62.4688 234.362 62.4688C225.748 62.4688 218.766 69.4513 218.766 78.0649C218.766 86.6784 225.748 93.661 234.362 93.661Z" fill="black"/>
<path d="M265.554 93.661C274.168 93.661 281.15 86.6784 281.15 78.0649C281.15 69.4513 274.168 62.4688 265.554 62.4688C256.941 62.4688 249.958 69.4513 249.958 78.0649C249.958 86.6784 256.941 93.661 265.554 93.661Z" fill="black"/>
<path d="M296.831 62.4688C305.444 62.4688 312.427 55.4861 312.427 46.8726C312.427 38.259 305.444 31.2764 296.831 31.2764C288.217 31.2764 281.234 38.259 281.234 46.8726C281.234 55.4861 288.217 62.4688 296.831 62.4688Z" fill="black"/>
<path d="M296.831 93.661C305.444 93.661 312.427 86.6784 312.427 78.0649C312.427 69.4513 305.444 62.4688 296.831 62.4688C288.217 62.4688 281.234 69.4513 281.234 78.0649C281.234 86.6784 288.217 93.661 296.831 93.661Z" fill="black"/>
<path d="M328.107 93.661C336.72 93.661 343.703 86.6784 343.703 78.0649C343.703 69.4513 336.72 62.4688 328.107 62.4688C319.493 62.4688 312.511 69.4513 312.511 78.0649C312.511 86.6784 319.493 93.661 328.107 93.661Z" fill="black"/>
<path d="M296.831 124.937C305.444 124.937 312.427 117.955 312.427 109.341C312.427 100.728 305.444 93.7451 296.831 93.7451C288.217 93.7451 281.234 100.728 281.234 109.341C281.234 117.955 288.217 124.937 296.831 124.937Z" fill="black"/>
<path d="M328.107 124.937C336.72 124.937 343.703 117.955 343.703 109.341C343.703 100.728 336.72 93.7451 328.107 93.7451C319.493 93.7451 312.511 100.728 312.511 109.341C312.511 117.955 319.493 124.937 328.107 124.937Z" fill="black"/>
<path d="M359.383 124.937C367.997 124.937 374.979 117.955 374.979 109.341C374.979 100.728 367.997 93.7451 359.383 93.7451C350.77 93.7451 343.787 100.728 343.787 109.341C343.787 117.955 350.77 124.937 359.383 124.937Z" fill="black"/>
<path d="M265.554 124.937C274.168 124.937 281.15 117.955 281.15 109.341C281.15 100.728 274.168 93.7451 265.554 93.7451C256.941 93.7451 249.958 100.728 249.958 109.341C249.958 117.955 256.941 124.937 265.554 124.937Z" fill="black"/>
<path d="M296.831 156.214C305.444 156.214 312.427 149.231 312.427 140.618C312.427 132.004 305.444 125.021 296.831 125.021C288.217 125.021 281.234 132.004 281.234 140.618C281.234 149.231 288.217 156.214 296.831 156.214Z" fill="black"/>
<path d="M328.107 156.214C336.72 156.214 343.703 149.231 343.703 140.618C343.703 132.004 336.72 125.021 328.107 125.021C319.493 125.021 312.511 132.004 312.511 140.618C312.511 149.231 319.493 156.214 328.107 156.214Z" fill="black"/>
<path d="M359.383 156.214C367.997 156.214 374.979 149.231 374.979 140.618C374.979 132.004 367.997 125.021 359.383 125.021C350.77 125.021 343.787 132.004 343.787 140.618C343.787 149.231 350.77 156.214 359.383 156.214Z" fill="black"/>
<path d="M359.383 187.405C367.997 187.405 374.979 180.423 374.979 171.809C374.979 163.196 367.997 156.213 359.383 156.213C350.77 156.213 343.787 163.196 343.787 171.809C343.787 180.423 350.77 187.405 359.383 187.405Z" fill="black"/>
<path d="M296.831 156.214C305.444 156.214 312.427 149.231 312.427 140.618C312.427 132.004 305.444 125.021 296.831 125.021C288.217 125.021 281.234 132.004 281.234 140.618C281.234 149.231 288.217 156.214 296.831 156.214Z" fill="black"/>
<path d="M328.107 156.214C336.72 156.214 343.703 149.231 343.703 140.618C343.703 132.004 336.72 125.021 328.107 125.021C319.493 125.021 312.511 132.004 312.511 140.618C312.511 149.231 319.493 156.214 328.107 156.214Z" fill="black"/>
<path d="M359.383 156.214C367.997 156.214 374.979 149.231 374.979 140.618C374.979 132.004 367.997 125.021 359.383 125.021C350.77 125.021 343.787 132.004 343.787 140.618C343.787 149.231 350.77 156.214 359.383 156.214Z" fill="black"/>
<path d="M359.383 187.405C367.997 187.405 374.979 180.423 374.979 171.809C374.979 163.196 367.997 156.213 359.383 156.213C350.77 156.213 343.787 163.196 343.787 171.809C343.787 180.423 350.77 187.405 359.383 187.405Z" fill="black"/>
<path d="M359.383 281.234C367.997 281.234 374.979 274.252 374.979 265.638C374.979 257.025 367.997 250.042 359.383 250.042C350.77 250.042 343.787 257.025 343.787 265.638C343.787 274.252 350.77 281.234 359.383 281.234Z" fill="black"/>
<path d="M328.107 312.427C336.72 312.427 343.703 305.444 343.703 296.831C343.703 288.217 336.72 281.234 328.107 281.234C319.493 281.234 312.511 288.217 312.511 296.831C312.511 305.444 319.493 312.427 328.107 312.427Z" fill="black"/>
<path d="M359.383 312.427C367.997 312.427 374.979 305.444 374.979 296.831C374.979 288.217 367.997 281.234 359.383 281.234C350.77 281.234 343.787 288.217 343.787 296.831C343.787 305.444 350.77 312.427 359.383 312.427Z" fill="black"/>
<path d="M359.383 281.234C367.997 281.234 374.979 274.252 374.979 265.638C374.979 257.025 367.997 250.042 359.383 250.042C350.77 250.042 343.787 257.025 343.787 265.638C343.787 274.252 350.77 281.234 359.383 281.234Z" fill="black"/>
<path d="M328.107 312.427C336.72 312.427 343.703 305.444 343.703 296.831C343.703 288.217 336.72 281.234 328.107 281.234C319.493 281.234 312.511 288.217 312.511 296.831C312.511 305.444 319.493 312.427 328.107 312.427Z" fill="black"/>
<path d="M359.383 312.427C367.997 312.427 374.979 305.444 374.979 296.831C374.979 288.217 367.997 281.234 359.383 281.234C350.77 281.234 343.787 288.217 343.787 296.831C343.787 305.444 350.77 312.427 359.383 312.427Z" fill="black"/>
<path d="M296.831 343.703C305.444 343.703 312.427 336.72 312.427 328.107C312.427 319.493 305.444 312.511 296.831 312.511C288.217 312.511 281.234 319.493 281.234 328.107C281.234 336.72 288.217 343.703 296.831 343.703Z" fill="black"/>
<path d="M328.107 343.703C336.72 343.703 343.703 336.72 343.703 328.107C343.703 319.493 336.72 312.511 328.107 312.511C319.493 312.511 312.511 319.493 312.511 328.107C312.511 336.72 319.493 343.703 328.107 343.703Z" fill="black"/>
<path d="M359.383 343.703C367.997 343.703 374.979 336.72 374.979 328.107C374.979 319.493 367.997 312.511 359.383 312.511C350.77 312.511 343.787 319.493 343.787 328.107C343.787 336.72 350.77 343.703 359.383 343.703Z" fill="black"/>
<path d="M328.107 374.979C336.72 374.979 343.703 367.997 343.703 359.383C343.703 350.77 336.72 343.787 328.107 343.787C319.493 343.787 312.511 350.77 312.511 359.383C312.511 367.997 319.493 374.979 328.107 374.979Z" fill="black"/>
<path d="M359.383 374.979C367.997 374.979 374.979 367.997 374.979 359.383C374.979 350.77 367.997 343.787 359.383 343.787C350.77 343.787 343.787 350.77 343.787 359.383C343.787 367.997 350.77 374.979 359.383 374.979Z" fill="black"/>
<path d="M296.831 374.979C305.444 374.979 312.427 367.997 312.427 359.383C312.427 350.77 305.444 343.787 296.831 343.787C288.217 343.787 281.234 350.77 281.234 359.383C281.234 367.997 288.217 374.979 296.831 374.979Z" fill="black"/>
<path d="M296.831 343.703C305.444 343.703 312.427 336.72 312.427 328.107C312.427 319.493 305.444 312.511 296.831 312.511C288.217 312.511 281.234 319.493 281.234 328.107C281.234 336.72 288.217 343.703 296.831 343.703Z" fill="black"/>
<path d="M328.107 343.703C336.72 343.703 343.703 336.72 343.703 328.107C343.703 319.493 336.72 312.511 328.107 312.511C319.493 312.511 312.511 319.493 312.511 328.107C312.511 336.72 319.493 343.703 328.107 343.703Z" fill="black"/>
<path d="M359.383 343.703C367.997 343.703 374.979 336.72 374.979 328.107C374.979 319.493 367.997 312.511 359.383 312.511C350.77 312.511 343.787 319.493 343.787 328.107C343.787 336.72 350.77 343.703 359.383 343.703Z" fill="black"/>
<path d="M328.107 374.979C336.72 374.979 343.703 367.997 343.703 359.383C343.703 350.77 336.72 343.787 328.107 343.787C319.493 343.787 312.511 350.77 312.511 359.383C312.511 367.997 319.493 374.979 328.107 374.979Z" fill="black"/>
<path d="M359.383 374.979C367.997 374.979 374.979 367.997 374.979 359.383C374.979 350.77 367.997 343.787 359.383 343.787C350.77 343.787 343.787 350.77 343.787 359.383C343.787 367.997 350.77 374.979 359.383 374.979Z" fill="black"/>
<path d="M296.831 374.979C305.444 374.979 312.427 367.997 312.427 359.383C312.427 350.77 305.444 343.787 296.831 343.787C288.217 343.787 281.234 350.77 281.234 359.383C281.234 367.997 288.217 374.979 296.831 374.979Z" fill="black"/>
<path d="M109.341 499.916C117.955 499.916 124.937 492.933 124.937 484.32C124.937 475.706 117.955 468.724 109.341 468.724C100.728 468.724 93.7451 475.706 93.7451 484.32C93.7451 492.933 100.728 499.916 109.341 499.916Z" fill="black"/>
<path d="M140.618 499.916C149.231 499.916 156.214 492.933 156.214 484.32C156.214 475.706 149.231 468.724 140.618 468.724C132.004 468.724 125.021 475.706 125.021 484.32C125.021 492.933 132.004 499.916 140.618 499.916Z" fill="black"/>
<path d="M171.809 499.916C180.423 499.916 187.405 492.933 187.405 484.32C187.405 475.706 180.423 468.724 171.809 468.724C163.196 468.724 156.213 475.706 156.213 484.32C156.213 492.933 163.196 499.916 171.809 499.916Z" fill="black"/>
<path d="M109.341 468.724C117.955 468.724 124.937 461.741 124.937 453.127C124.937 444.514 117.955 437.531 109.341 437.531C100.728 437.531 93.7451 444.514 93.7451 453.127C93.7451 461.741 100.728 468.724 109.341 468.724Z" fill="black"/>
<path d="M140.618 468.724C149.231 468.724 156.214 461.741 156.214 453.127C156.214 444.514 149.231 437.531 140.618 437.531C132.004 437.531 125.021 444.514 125.021 453.127C125.021 461.741 132.004 468.724 140.618 468.724Z" fill="black"/>
<path d="M203.085 499.916C211.699 499.916 218.682 492.933 218.682 484.32C218.682 475.706 211.699 468.724 203.085 468.724C194.472 468.724 187.489 475.706 187.489 484.32C187.489 492.933 194.472 499.916 203.085 499.916Z" fill="black"/>
<path d="M234.362 499.916C242.975 499.916 249.958 492.933 249.958 484.32C249.958 475.706 242.975 468.724 234.362 468.724C225.748 468.724 218.766 475.706 218.766 484.32C218.766 492.933 225.748 499.916 234.362 499.916Z" fill="black"/>
<path d="M265.554 499.916C274.168 499.916 281.15 492.933 281.15 484.32C281.15 475.706 274.168 468.724 265.554 468.724C256.941 468.724 249.958 475.706 249.958 484.32C249.958 492.933 256.941 499.916 265.554 499.916Z" fill="black"/>
<path d="M296.831 468.724C305.444 468.724 312.427 461.741 312.427 453.127C312.427 444.514 305.444 437.531 296.831 437.531C288.217 437.531 281.234 444.514 281.234 453.127C281.234 461.741 288.217 468.724 296.831 468.724Z" fill="black"/>
<path d="M296.831 437.447C305.444 437.447 312.427 430.465 312.427 421.851C312.427 413.237 305.444 406.255 296.831 406.255C288.217 406.255 281.234 413.237 281.234 421.851C281.234 430.465 288.217 437.447 296.831 437.447Z" fill="black"/>
<path d="M328.107 437.447C336.72 437.447 343.703 430.465 343.703 421.851C343.703 413.237 336.72 406.255 328.107 406.255C319.493 406.255 312.511 413.237 312.511 421.851C312.511 430.465 319.493 437.447 328.107 437.447Z" fill="black"/>
<path d="M296.831 406.172C305.444 406.172 312.427 399.189 312.427 390.576C312.427 381.962 305.444 374.979 296.831 374.979C288.217 374.979 281.234 381.962 281.234 390.576C281.234 399.189 288.217 406.172 296.831 406.172Z" fill="black"/>
<path d="M328.107 406.172C336.72 406.172 343.703 399.189 343.703 390.576C343.703 381.962 336.72 374.979 328.107 374.979C319.493 374.979 312.511 381.962 312.511 390.576C312.511 399.189 319.493 406.172 328.107 406.172Z" fill="black"/>
<path d="M359.383 406.172C367.997 406.172 374.979 399.189 374.979 390.576C374.979 381.962 367.997 374.979 359.383 374.979C350.77 374.979 343.787 381.962 343.787 390.576C343.787 399.189 350.77 406.172 359.383 406.172Z" fill="black"/>
<path d="M58.7787 5.19922H35.2168V25.6587H58.7787V5.19922Z" fill="black"/>
<path d="M27.3354 5.19922H3.77344V25.6587H27.3354V5.19922Z" fill="black"/>
<path d="M89.8881 5.19922H66.3262V25.6587H89.8881V5.19922Z" fill="black"/>
<path d="M58.7787 36.6426H35.2168V57.102H58.7787V36.6426Z" fill="black"/>
<path d="M27.3354 36.6426H3.77344V57.102H27.3354V36.6426Z" fill="black"/>
<path d="M89.8881 36.6426H66.3262V57.102H89.8881V36.6426Z" fill="black"/>
<path d="M58.7787 67.835H35.2168V88.2944H58.7787V67.835Z" fill="black"/>
<path d="M27.3354 67.835H3.77344V88.2944H27.3354V67.835Z" fill="black"/>
<path d="M89.8881 67.835H66.3262V88.2944H89.8881V67.835Z" fill="black"/>
<path d="M58.7787 99.2793H35.2168V119.739H58.7787V99.2793Z" fill="black"/>
<path d="M27.3354 99.2793H3.77344V119.739H27.3354V99.2793Z" fill="black"/>
<path d="M89.8881 99.2793H66.3262V119.739H89.8881V99.2793Z" fill="black"/>
<path d="M58.7787 130.304H35.2168V150.763H58.7787V130.304Z" fill="black"/>
<path d="M27.3354 130.304H3.77344V150.763H27.3354V130.304Z" fill="black"/>
<path d="M89.8881 130.304H66.3262V150.763H89.8881V130.304Z" fill="black"/>
<path d="M58.7787 161.747H35.2168V182.207H58.7787V161.747Z" fill="black"/>
<path d="M27.3354 161.747H3.77344V182.207H27.3354V161.747Z" fill="black"/>
<path d="M89.8881 161.747H66.3262V182.207H89.8881V161.747Z" fill="black"/>
<path d="M58.7787 192.855H35.2168V213.315H58.7787V192.855Z" fill="black"/>
<path d="M27.3354 192.855H3.77344V213.315H27.3354V192.855Z" fill="black"/>
<path d="M89.8881 192.855H66.3262V213.315H89.8881V192.855Z" fill="black"/>
<path d="M58.7787 224.3H35.2168V244.759H58.7787V224.3Z" fill="black"/>
<path d="M27.3354 224.3H3.77344V244.759H27.3354V224.3Z" fill="black"/>
<path d="M89.8881 224.3H66.3262V244.759H89.8881V224.3Z" fill="black"/>
<path d="M58.7787 255.324H35.2168V275.784H58.7787V255.324Z" fill="black"/>
<path d="M58.7787 255.324H35.2168V275.784H58.7787V255.324Z" fill="black"/>
<path d="M27.3354 255.324H3.77344V275.784H27.3354V255.324Z" fill="black"/>
<path d="M89.8881 255.324H66.3262V275.784H89.8881V255.324Z" fill="black"/>
<path d="M58.7787 286.517H35.2168V306.976H58.7787V286.517Z" fill="black"/>
<path d="M27.3354 286.517H3.77344V306.976H27.3354V286.517Z" fill="black"/>
<path d="M89.8881 286.517H66.3262V306.976H89.8881V286.517Z" fill="black"/>
<path d="M58.7787 317.961H35.2168V338.42H58.7787V317.961Z" fill="black"/>
<path d="M27.3354 317.961H3.77344V338.42H27.3354V317.961Z" fill="black"/>
<path d="M89.8881 317.961H66.3262V338.42H89.8881V317.961Z" fill="black"/>
<path d="M58.7787 348.985H35.2168V369.445H58.7787V348.985Z" fill="black"/>
<path d="M27.3354 348.985H3.77344V369.445H27.3354V348.985Z" fill="black"/>
<path d="M89.8881 348.985H66.3262V369.445H89.8881V348.985Z" fill="black"/>
<path d="M58.7787 380.43H35.2168V400.889H58.7787V380.43Z" fill="black"/>
<path d="M27.3354 380.43H3.77344V400.889H27.3354V380.43Z" fill="black"/>
<path d="M89.8881 380.43H66.3262V400.889H89.8881V380.43Z" fill="black"/>
<path d="M58.7787 411.538H35.2168V431.998H58.7787V411.538Z" fill="black"/>
<path d="M27.3354 411.538H3.77344V431.998H27.3354V411.538Z" fill="black"/>
<path d="M89.8881 411.538H66.3262V431.998H89.8881V411.538Z" fill="black"/>
<path d="M58.7787 442.981H35.2168V463.441H58.7787V442.981Z" fill="black"/>
<path d="M27.3354 442.981H3.77344V463.441H27.3354V442.981Z" fill="black"/>
<path d="M89.8881 442.981H66.3262V463.441H89.8881V442.981Z" fill="black"/>
<path d="M58.7787 474.174H35.2168V494.633H58.7787V474.174Z" fill="black"/>
<path d="M27.3354 474.174H3.77344V494.633H27.3354V474.174Z" fill="black"/>
<path d="M89.8881 474.174H66.3262V494.633H89.8881V474.174Z" fill="black"/>
<path d="M152.524 5.19922H128.962V25.6587H152.524V5.19922Z" fill="black"/>
<path d="M121.08 5.19922H97.5186V25.6587H121.08V5.19922Z" fill="black"/>
<path d="M183.632 5.19922H160.07V25.6587H183.632V5.19922Z" fill="black"/>
<path d="M152.524 36.6426H128.962V57.102H152.524V36.6426Z" fill="black"/>
<path d="M121.08 36.6426H97.5186V57.102H121.08V36.6426Z" fill="black"/>
<path d="M183.632 36.6426H160.07V57.102H183.632V36.6426Z" fill="black"/>
<path d="M152.524 67.835H128.962V88.2944H152.524V67.835Z" fill="black"/>
<path d="M121.08 67.835H97.5186V88.2944H121.08V67.835Z" fill="black"/>
<path d="M183.632 67.835H160.07V88.2944H183.632V67.835Z" fill="black"/>
<path d="M246.269 5.19922H222.707V25.6587H246.269V5.19922Z" fill="black"/>
<path d="M214.825 5.19922H191.263V25.6587H214.825V5.19922Z" fill="black"/>
<path d="M277.377 5.19922H253.815V25.6587H277.377V5.19922Z" fill="black"/>
<path d="M246.269 36.6426H222.707V57.102H246.269V36.6426Z" fill="black"/>
<path d="M214.825 36.6426H191.263V57.102H214.825V36.6426Z" fill="black"/>
<path d="M277.377 36.6426H253.815V57.102H277.377V36.6426Z" fill="black"/>
<path d="M246.269 67.835H222.707V88.2944H246.269V67.835Z" fill="black"/>
<path d="M214.825 67.835H191.263V88.2944H214.825V67.835Z" fill="black"/>
<path d="M277.377 67.835H253.815V88.2944H277.377V67.835Z" fill="black"/>
<path d="M308.654 36.6426H285.092V57.102H308.654V36.6426Z" fill="black"/>
<path d="M308.654 67.835H285.092V88.2944H308.654V67.835Z" fill="black"/>
<path d="M308.654 99.2793H285.092V119.739H308.654V99.2793Z" fill="black"/>
<path d="M308.654 130.304H285.092V150.763H308.654V130.304Z" fill="black"/>
<path d="M308.654 161.747H285.092V182.207H308.654V161.747Z" fill="black"/>
<path d="M308.654 192.855H285.092V213.315H308.654V192.855Z" fill="black"/>
<path d="M308.654 224.3H285.092V244.759H308.654V224.3Z" fill="black"/>
<path d="M308.654 255.324H285.092V275.784H308.654V255.324Z" fill="black"/>
<path d="M308.654 286.517H285.092V306.976H308.654V286.517Z" fill="black"/>
<path d="M308.654 317.961H285.092V338.42H308.654V317.961Z" fill="black"/>
<path d="M308.654 348.985H285.092V369.445H308.654V348.985Z" fill="black"/>
<path d="M308.654 380.43H285.092V400.889H308.654V380.43Z" fill="black"/>
<path d="M308.654 411.538H285.092V431.998H308.654V411.538Z" fill="black"/>
<path d="M277.377 99.2793H253.815V119.739H277.377V99.2793Z" fill="black"/>
<path d="M339.846 67.835H316.284V88.2944H339.846V67.835Z" fill="black"/>
<path d="M339.846 99.2793H316.284V119.739H339.846V99.2793Z" fill="black"/>
<path d="M339.846 130.304H316.284V150.763H339.846V130.304Z" fill="black"/>
<path d="M339.846 161.747H316.284V182.207H339.846V161.747Z" fill="black"/>
<path d="M339.846 192.855H316.284V213.315H339.846V192.855Z" fill="black"/>
<path d="M339.846 224.3H316.284V244.759H339.846V224.3Z" fill="black"/>
<path d="M339.846 255.324H316.284V275.784H339.846V255.324Z" fill="black"/>
<path d="M339.846 286.517H316.284V306.976H339.846V286.517Z" fill="black"/>
<path d="M339.846 317.961H316.284V338.42H339.846V317.961Z" fill="black"/>
<path d="M339.846 348.985H316.284V369.445H339.846V348.985Z" fill="black"/>
<path d="M339.846 380.43H316.284V400.889H339.846V380.43Z" fill="black"/>
<path d="M339.846 411.538H316.284V431.998H339.846V411.538Z" fill="black"/>
<path d="M371.122 99.2793H347.56V119.739H371.122V99.2793Z" fill="black"/>
<path d="M371.122 130.304H347.56V150.763H371.122V130.304Z" fill="black"/>
<path d="M371.122 161.747H347.56V182.207H371.122V161.747Z" fill="black"/>
<path d="M371.122 192.855H347.56V213.315H371.122V192.855Z" fill="black"/>
<path d="M371.122 224.3H347.56V244.759H371.122V224.3Z" fill="black"/>
<path d="M371.122 255.324H347.56V275.784H371.122V255.324Z" fill="black"/>
<path d="M371.122 286.517H347.56V306.976H371.122V286.517Z" fill="black"/>
<path d="M371.122 317.961H347.56V338.42H371.122V317.961Z" fill="black"/>
<path d="M371.122 348.985H347.56V369.445H371.122V348.985Z" fill="black"/>
<path d="M371.122 380.43H347.56V400.889H371.122V380.43Z" fill="black"/>
<path d="M277.377 380.43H253.815V400.889H277.377V380.43Z" fill="black"/>
<path d="M277.377 411.538H253.815V431.998H277.377V411.538Z" fill="black"/>
<path d="M277.377 442.981H253.815V463.441H277.377V442.981Z" fill="black"/>
<path d="M277.377 474.174H253.815V494.633H277.377V474.174Z" fill="black"/>
<path d="M152.524 411.538H128.962V431.998H152.524V411.538Z" fill="black"/>
<path d="M121.08 411.538H97.5186V431.998H121.08V411.538Z" fill="black"/>
<path d="M183.632 411.538H160.07V431.998H183.632V411.538Z" fill="black"/>
<path d="M152.524 442.981H128.962V463.441H152.524V442.981Z" fill="black"/>
<path d="M121.08 442.981H97.5186V463.441H121.08V442.981Z" fill="black"/>
<path d="M183.632 442.981H160.07V463.441H183.632V442.981Z" fill="black"/>
<path d="M152.524 474.174H128.962V494.633H152.524V474.174Z" fill="black"/>
<path d="M121.08 474.174H97.5186V494.633H121.08V474.174Z" fill="black"/>
<path d="M183.632 474.174H160.07V494.633H183.632V474.174Z" fill="black"/>
<path d="M246.269 411.538H222.707V431.998H246.269V411.538Z" fill="black"/>
<path d="M214.825 411.538H191.263V431.998H214.825V411.538Z" fill="black"/>
<path d="M246.269 442.981H222.707V463.441H246.269V442.981Z" fill="black"/>
<path d="M214.825 442.981H191.263V463.441H214.825V442.981Z" fill="black"/>
<path d="M246.269 474.174H222.707V494.633H246.269V474.174Z" fill="black"/>
<path d="M214.825 474.174H191.263V494.633H214.825V474.174Z" fill="black"/>
<path d="M308.654 442.981H285.092V463.441H308.654V442.981Z" fill="black"/>
<path d="M464.951 15.5962C464.951 24.2328 457.991 31.2762 449.355 31.2762C440.718 31.2762 433.759 38.2358 433.759 46.8724C433.759 55.509 426.715 62.4686 418.079 62.4686C409.442 62.4686 402.482 55.509 402.482 46.8724C402.482 38.2358 409.526 31.2762 418.079 31.2762C426.631 31.2762 433.759 24.2328 433.759 15.5962C433.759 6.95959 440.718 0 449.355 0C457.991 0 464.951 6.95959 464.951 15.5962Z" fill="black"/>
<path d="M527.503 15.5962C527.503 24.2328 520.46 31.2762 511.907 31.2762C503.354 31.2762 496.227 38.2358 496.227 46.8724C496.227 55.509 489.268 62.4686 480.631 62.4686C471.994 62.4686 464.951 69.512 464.951 78.1486C464.951 86.7852 457.991 93.7448 449.355 93.7448C440.718 93.7448 433.759 100.788 433.759 109.341C433.759 117.894 426.715 125.021 418.079 125.021C409.442 125.021 402.482 117.978 402.482 109.341C402.482 100.704 409.526 93.7448 418.079 93.7448C426.631 93.7448 433.759 86.7852 433.759 78.1486C433.759 69.512 440.718 62.4686 449.355 62.4686C457.991 62.4686 464.951 55.509 464.951 46.8724C464.951 38.2358 471.994 31.2762 480.631 31.2762C489.268 31.2762 496.227 24.2328 496.227 15.5962C496.227 6.95958 503.271 0 511.907 0C520.544 0 527.503 6.95958 527.503 15.5962Z" fill="black"/>
<path d="M496.227 109.341C496.227 117.978 489.268 125.021 480.631 125.021C471.994 125.021 464.951 131.981 464.951 140.617C464.951 149.254 457.991 156.214 449.355 156.214C440.718 156.214 433.759 163.257 433.759 171.894C433.759 180.53 426.715 187.49 418.079 187.49C409.442 187.49 402.482 180.53 402.482 171.894C402.482 163.257 409.526 156.214 418.079 156.214C426.631 156.214 433.759 149.254 433.759 140.617C433.759 131.981 440.718 125.021 449.355 125.021C457.991 125.021 464.951 117.978 464.951 109.341C464.951 100.705 471.994 93.7451 480.631 93.7451C489.268 93.7451 496.227 100.789 496.227 109.341Z" fill="black"/>
<path d="M496.227 171.893C496.227 180.53 489.268 187.489 480.631 187.489C471.994 187.489 464.951 194.533 464.951 203.085C464.951 211.638 457.991 218.765 449.355 218.765C440.718 218.765 433.759 225.725 433.759 234.361C433.759 242.998 426.715 249.958 418.079 249.958C409.442 249.958 402.482 242.998 402.482 234.361C402.482 225.725 409.526 218.765 418.079 218.765C426.631 218.765 433.759 211.722 433.759 203.085C433.759 194.449 440.718 187.489 449.355 187.489C457.991 187.489 464.951 180.53 464.951 171.893C464.951 163.256 471.994 156.213 480.631 156.213C489.268 156.213 496.227 163.256 496.227 171.893Z" fill="black"/>
<path d="M496.227 234.362C496.227 242.998 489.268 249.958 480.631 249.958C471.994 249.958 464.951 257.001 464.951 265.638C464.951 274.275 457.991 281.234 449.355 281.234C440.718 281.234 433.759 288.278 433.759 296.914C433.759 305.551 426.715 312.51 418.079 312.51C409.442 312.51 402.482 305.467 402.482 296.914C402.482 288.361 409.526 281.234 418.079 281.234C426.631 281.234 433.759 274.275 433.759 265.638C433.759 257.001 440.718 249.958 449.355 249.958C457.991 249.958 464.951 242.998 464.951 234.362C464.951 225.725 471.994 218.766 480.631 218.766C489.268 218.766 496.227 225.725 496.227 234.362Z" fill="black"/>
<path d="M496.227 296.914C496.227 305.467 489.268 312.511 480.631 312.511C471.994 312.511 464.951 319.47 464.951 328.107C464.951 336.743 457.991 343.787 449.355 343.787C440.718 343.787 433.759 350.746 433.759 359.383C433.759 368.02 426.715 374.979 418.079 374.979C409.442 374.979 402.482 368.02 402.482 359.383C402.482 350.746 409.526 343.787 418.079 343.787C426.631 343.787 433.759 336.743 433.759 328.107C433.759 319.47 440.718 312.511 449.355 312.511C457.991 312.511 464.951 305.467 464.951 296.914C464.951 288.362 471.994 281.234 480.631 281.234C489.268 281.234 496.227 288.278 496.227 296.914Z" fill="black"/>
<path d="M496.227 359.383C496.227 368.02 489.268 374.979 480.631 374.979C471.994 374.979 464.951 382.023 464.951 390.659C464.951 399.296 457.991 406.256 449.355 406.256C440.718 406.256 433.759 413.215 433.759 421.852C433.759 430.488 426.715 437.532 418.079 437.532C409.442 437.532 402.482 430.488 402.482 421.852C402.482 413.215 409.526 406.256 418.079 406.256C426.631 406.256 433.759 399.212 433.759 390.659C433.759 382.107 440.718 374.979 449.355 374.979C457.991 374.979 464.951 368.02 464.951 359.383C464.951 350.747 471.994 343.787 480.631 343.787C489.268 343.787 496.227 350.747 496.227 359.383Z" fill="black"/>
<path d="M496.227 421.851C496.227 430.488 489.268 437.531 480.631 437.531C471.994 437.531 464.951 444.491 464.951 453.127C464.951 461.764 457.991 468.723 449.355 468.723C440.718 468.723 433.759 475.767 433.759 484.403C433.759 493.04 426.715 500 418.079 500C409.442 500 402.482 493.04 402.482 484.403C402.482 475.767 409.526 468.723 418.079 468.723C426.631 468.723 433.759 461.764 433.759 453.127C433.759 444.491 440.718 437.531 449.355 437.531C457.991 437.531 464.951 430.488 464.951 421.851C464.951 413.214 471.994 406.255 480.631 406.255C489.268 406.255 496.227 413.214 496.227 421.851Z" fill="black"/>
<path d="M558.78 421.851C558.78 430.488 551.736 437.531 543.1 437.531C534.463 437.531 527.504 444.491 527.504 453.127C527.504 461.764 520.46 468.723 511.907 468.723C503.355 468.723 496.227 475.767 496.227 484.403C496.227 493.04 489.268 500 480.631 500C471.995 500 464.951 493.04 464.951 484.403C464.951 475.767 471.995 468.723 480.631 468.723C489.268 468.723 496.227 461.764 496.227 453.127C496.227 444.491 503.271 437.531 511.907 437.531C520.544 437.531 527.504 430.488 527.504 421.851C527.504 413.214 534.463 406.255 543.1 406.255C551.736 406.255 558.78 413.214 558.78 421.851Z" fill="black"/>
<path d="M652.524 15.5962C652.524 24.2328 645.481 31.2762 636.844 31.2762C628.207 31.2762 621.248 38.2358 621.248 46.8724C621.248 55.509 614.204 62.4686 605.652 62.4686C597.099 62.4686 589.972 69.512 589.972 78.1486C589.972 86.7852 583.012 93.7448 574.375 93.7448C565.739 93.7448 558.779 86.7852 558.779 78.1486C558.779 69.512 565.739 62.4686 574.375 62.4686C583.012 62.4686 589.972 55.509 589.972 46.8724C589.972 38.2358 597.015 31.2762 605.652 31.2762C614.288 31.2762 621.248 24.2328 621.248 15.5962C621.248 6.95958 628.207 0 636.844 0C645.481 0 652.524 6.95958 652.524 15.5962Z" fill="black"/>
<path d="M589.972 15.5962C589.972 24.2328 583.013 31.2762 574.376 31.2762C565.739 31.2762 558.78 38.2358 558.78 46.8724C558.78 55.509 551.736 62.4686 543.1 62.4686C534.463 62.4686 527.504 69.512 527.504 78.1486C527.504 86.7852 520.46 93.7448 511.908 93.7448C503.355 93.7448 496.228 86.7852 496.228 78.1486C496.228 69.512 503.271 62.4686 511.908 62.4686C520.544 62.4686 527.504 55.509 527.504 46.8724C527.504 38.2358 534.463 31.2762 543.1 31.2762C551.736 31.2762 558.78 24.2328 558.78 15.5962C558.78 6.95958 565.739 0 574.376 0C583.013 0 589.972 6.95958 589.972 15.5962Z" fill="black"/>
<path d="M699.313 93.6611C707.927 93.6611 714.909 86.6785 714.909 78.0649C714.909 69.4514 707.927 62.4688 699.313 62.4688C690.699 62.4688 683.717 69.4514 683.717 78.0649C683.717 86.6785 690.699 93.6611 699.313 93.6611Z" fill="black"/>
<path d="M714.993 15.5962C714.993 24.2328 708.033 31.2762 699.397 31.2762C690.76 31.2762 683.717 38.2358 683.717 46.8724C683.717 55.509 676.757 62.4686 668.12 62.4686C659.484 62.4686 652.524 69.512 652.524 78.1486C652.524 86.7852 645.481 93.7448 636.844 93.7448C628.208 93.7448 621.248 86.7852 621.248 78.1486C621.248 69.512 628.208 62.4686 636.844 62.4686C645.481 62.4686 652.524 55.509 652.524 46.8724C652.524 38.2358 659.484 31.2762 668.12 31.2762C676.757 31.2762 683.717 24.2328 683.717 15.5962C683.717 6.95958 690.76 0 699.397 0C708.033 0 714.993 6.95958 714.993 15.5962Z" fill="black"/>
<path d="M652.524 201.158C652.524 209.794 645.481 216.754 636.844 216.754C628.207 216.754 621.248 223.713 621.248 232.35C621.248 240.987 614.204 248.03 605.652 248.03C597.099 248.03 589.972 254.99 589.972 263.626C589.972 272.263 583.012 279.222 574.375 279.222C565.739 279.222 558.779 272.263 558.779 263.626C558.779 254.99 565.739 248.03 574.375 248.03C583.012 248.03 589.972 240.987 589.972 232.35C589.972 223.713 597.015 216.754 605.652 216.754C614.288 216.754 621.248 209.794 621.248 201.158C621.248 192.521 628.207 185.478 636.844 185.478C645.481 185.478 652.524 192.521 652.524 201.158Z" fill="black"/>
<path d="M589.972 201.158C589.972 209.794 583.013 216.754 574.376 216.754C565.739 216.754 558.78 223.713 558.78 232.35C558.78 240.987 551.736 248.03 543.1 248.03C534.463 248.03 527.504 254.99 527.504 263.626C527.504 272.263 520.46 279.222 511.908 279.222C503.355 279.222 496.228 272.263 496.228 263.626C496.228 254.99 503.271 248.03 511.908 248.03C520.544 248.03 527.504 240.987 527.504 232.35C527.504 223.713 534.463 216.754 543.1 216.754C551.736 216.754 558.78 209.794 558.78 201.158C558.78 192.521 565.739 185.478 574.376 185.478C583.013 185.478 589.972 192.521 589.972 201.158Z" fill="black"/>
<path d="M699.313 279.222C707.927 279.222 714.909 272.239 714.909 263.625C714.909 255.012 707.927 248.029 699.313 248.029C690.699 248.029 683.717 255.012 683.717 263.625C683.717 272.239 690.699 279.222 699.313 279.222Z" fill="black"/>
<path d="M714.993 201.158C714.993 209.794 708.033 216.754 699.397 216.754C690.76 216.754 683.717 223.713 683.717 232.35C683.717 240.987 676.757 248.03 668.12 248.03C659.484 248.03 652.524 254.99 652.524 263.626C652.524 272.263 645.481 279.222 636.844 279.222C628.208 279.222 621.248 272.263 621.248 263.626C621.248 254.99 628.208 248.03 636.844 248.03C645.481 248.03 652.524 240.987 652.524 232.35C652.524 223.713 659.484 216.754 668.12 216.754C676.757 216.754 683.717 209.794 683.717 201.158C683.717 192.521 690.76 185.478 699.397 185.478C708.033 185.478 714.993 192.521 714.993 201.158Z" fill="black"/>
<path d="M683.716 421.851C683.716 430.488 676.757 437.531 668.12 437.531C659.484 437.531 652.524 444.491 652.524 453.127C652.524 461.764 645.481 468.723 636.844 468.723C628.208 468.723 621.248 475.767 621.248 484.403C621.248 493.04 614.205 500 605.652 500C597.099 500 589.972 493.04 589.972 484.403C589.972 475.767 597.015 468.723 605.652 468.723C614.288 468.723 621.248 461.764 621.248 453.127C621.248 444.491 628.208 437.531 636.844 437.531C645.481 437.531 652.524 430.488 652.524 421.851C652.524 413.214 659.484 406.255 668.12 406.255C676.757 406.255 683.716 413.214 683.716 421.851Z" fill="black"/>
<path d="M621.248 421.851C621.248 430.488 614.204 437.531 605.652 437.531C597.099 437.531 589.971 444.491 589.971 453.127C589.971 461.764 583.012 468.723 574.375 468.723C565.739 468.723 558.779 475.767 558.779 484.403C558.779 493.04 551.736 500 543.099 500C534.463 500 527.503 493.04 527.503 484.403C527.503 475.767 534.463 468.723 543.099 468.723C551.736 468.723 558.779 461.764 558.779 453.127C558.779 444.491 565.739 437.531 574.375 437.531C583.012 437.531 589.971 430.488 589.971 421.851C589.971 413.214 597.015 406.255 605.652 406.255C614.288 406.255 621.248 413.214 621.248 421.851Z" fill="black"/>
<path d="M714.993 453.127C714.993 461.764 708.033 468.724 699.397 468.724C690.76 468.724 683.717 475.767 683.717 484.404C683.717 493.04 676.757 500 668.121 500C659.484 500 652.524 493.04 652.524 484.404C652.524 475.767 659.484 468.724 668.121 468.724C676.757 468.724 683.717 461.764 683.717 453.127C683.717 444.491 690.76 437.531 699.397 437.531C708.033 437.531 714.993 444.491 714.993 453.127Z" fill="black"/>
</svg>
