<svg width="713" height="506" viewBox="0 0 713 506" fill="none" xmlns="http://www.w3.org/2000/svg">
<path d="M18.5962 34.1924C27.2097 34.1924 34.1924 27.2097 34.1924 18.5962C34.1924 9.98265 27.2097 3 18.5962 3C9.98264 3 3 9.98265 3 18.5962C3 27.2097 9.98264 34.1924 18.5962 34.1924Z" stroke="black" stroke-width="5" stroke-miterlimit="10"/>
<path d="M81.1489 34.1924C89.7624 34.1924 96.7451 27.2097 96.7451 18.5962C96.7451 9.98265 89.7624 3 81.1489 3C72.5354 3 65.5527 9.98265 65.5527 18.5962C65.5527 27.2097 72.5354 34.1924 81.1489 34.1924Z" stroke="black" stroke-width="5" stroke-miterlimit="10"/>
<path d="M18.5962 65.4687C27.2097 65.4687 34.1924 58.486 34.1924 49.8725C34.1924 41.259 27.2097 34.2764 18.5962 34.2764C9.98264 34.2764 3 41.259 3 49.8725C3 58.486 9.98264 65.4687 18.5962 65.4687Z" stroke="black" stroke-width="5" stroke-miterlimit="10"/>
<path d="M81.1489 65.4687C89.7624 65.4687 96.7451 58.486 96.7451 49.8725C96.7451 41.259 89.7624 34.2764 81.1489 34.2764C72.5354 34.2764 65.5527 41.259 65.5527 49.8725C65.5527 58.486 72.5354 65.4687 81.1489 65.4687Z" stroke="black" stroke-width="5" stroke-miterlimit="10"/>
<path d="M18.5962 96.7451C27.2097 96.7451 34.1924 89.7624 34.1924 81.1489C34.1924 72.5354 27.2097 65.5527 18.5962 65.5527C9.98264 65.5527 3 72.5354 3 81.1489C3 89.7624 9.98264 96.7451 18.5962 96.7451Z" stroke="black" stroke-width="5" stroke-miterlimit="10"/>
<path d="M81.1489 96.7451C89.7624 96.7451 96.7451 89.7624 96.7451 81.1489C96.7451 72.5354 89.7624 65.5527 81.1489 65.5527C72.5354 65.5527 65.5527 72.5354 65.5527 81.1489C65.5527 89.7624 72.5354 96.7451 81.1489 96.7451Z" stroke="black" stroke-width="5" stroke-miterlimit="10"/>
<path d="M18.5962 127.937C27.2097 127.937 34.1924 120.955 34.1924 112.341C34.1924 103.728 27.2097 96.7451 18.5962 96.7451C9.98264 96.7451 3 103.728 3 112.341C3 120.955 9.98264 127.937 18.5962 127.937Z" stroke="black" stroke-width="5" stroke-miterlimit="10"/>
<path d="M81.1489 127.937C89.7624 127.937 96.7451 120.955 96.7451 112.341C96.7451 103.728 89.7624 96.7451 81.1489 96.7451C72.5354 96.7451 65.5527 103.728 65.5527 112.341C65.5527 120.955 72.5354 127.937 81.1489 127.937Z" stroke="black" stroke-width="5" stroke-miterlimit="10"/>
<path d="M18.5962 159.214C27.2097 159.214 34.1924 152.231 34.1924 143.618C34.1924 135.004 27.2097 128.021 18.5962 128.021C9.98264 128.021 3 135.004 3 143.618C3 152.231 9.98264 159.214 18.5962 159.214Z" stroke="black" stroke-width="5" stroke-miterlimit="10"/>
<path d="M81.1489 159.214C89.7624 159.214 96.7451 152.231 96.7451 143.618C96.7451 135.004 89.7624 128.021 81.1489 128.021C72.5354 128.021 65.5527 135.004 65.5527 143.618C65.5527 152.231 72.5354 159.214 81.1489 159.214Z" stroke="black" stroke-width="5" stroke-miterlimit="10"/>
<path d="M18.5962 190.489C27.2097 190.489 34.1924 183.507 34.1924 174.893C34.1924 166.28 27.2097 159.297 18.5962 159.297C9.98264 159.297 3 166.28 3 174.893C3 183.507 9.98264 190.489 18.5962 190.489Z" stroke="black" stroke-width="5" stroke-miterlimit="10"/>
<path d="M81.1489 190.489C89.7624 190.489 96.7451 183.507 96.7451 174.893C96.7451 166.28 89.7624 159.297 81.1489 159.297C72.5354 159.297 65.5527 166.28 65.5527 174.893C65.5527 183.507 72.5354 190.489 81.1489 190.489Z" stroke="black" stroke-width="5" stroke-miterlimit="10"/>
<path d="M18.5962 221.682C27.2097 221.682 34.1924 214.699 34.1924 206.085C34.1924 197.472 27.2097 190.489 18.5962 190.489C9.98264 190.489 3 197.472 3 206.085C3 214.699 9.98264 221.682 18.5962 221.682Z" stroke="black" stroke-width="5" stroke-miterlimit="10"/>
<path d="M81.1489 221.682C89.7624 221.682 96.7451 214.699 96.7451 206.085C96.7451 197.472 89.7624 190.489 81.1489 190.489C72.5354 190.489 65.5527 197.472 65.5527 206.085C65.5527 214.699 72.5354 221.682 81.1489 221.682Z" stroke="black" stroke-width="5" stroke-miterlimit="10"/>
<path d="M18.5962 252.958C27.2097 252.958 34.1924 245.975 34.1924 237.362C34.1924 228.748 27.2097 221.766 18.5962 221.766C9.98264 221.766 3 228.748 3 237.362C3 245.975 9.98264 252.958 18.5962 252.958Z" stroke="black" stroke-width="5" stroke-miterlimit="10"/>
<path d="M81.1489 252.958C89.7624 252.958 96.7451 245.975 96.7451 237.362C96.7451 228.748 89.7624 221.766 81.1489 221.766C72.5354 221.766 65.5527 228.748 65.5527 237.362C65.5527 245.975 72.5354 252.958 81.1489 252.958Z" stroke="black" stroke-width="5" stroke-miterlimit="10"/>
<path d="M18.5962 284.234C27.2097 284.234 34.1924 277.252 34.1924 268.638C34.1924 260.025 27.2097 253.042 18.5962 253.042C9.98264 253.042 3 260.025 3 268.638C3 277.252 9.98264 284.234 18.5962 284.234Z" stroke="black" stroke-width="5" stroke-miterlimit="10"/>
<path d="M81.1489 284.234C89.7624 284.234 96.7451 277.252 96.7451 268.638C96.7451 260.025 89.7624 253.042 81.1489 253.042C72.5354 253.042 65.5527 260.025 65.5527 268.638C65.5527 277.252 72.5354 284.234 81.1489 284.234Z" stroke="black" stroke-width="5" stroke-miterlimit="10"/>
<path d="M18.5962 315.427C27.2097 315.427 34.1924 308.444 34.1924 299.831C34.1924 291.217 27.2097 284.234 18.5962 284.234C9.98264 284.234 3 291.217 3 299.831C3 308.444 9.98264 315.427 18.5962 315.427Z" stroke="black" stroke-width="5" stroke-miterlimit="10"/>
<path d="M81.1489 315.427C89.7624 315.427 96.7451 308.444 96.7451 299.831C96.7451 291.217 89.7624 284.234 81.1489 284.234C72.5354 284.234 65.5527 291.217 65.5527 299.831C65.5527 308.444 72.5354 315.427 81.1489 315.427Z" stroke="black" stroke-width="5" stroke-miterlimit="10"/>
<path d="M18.5962 346.703C27.2097 346.703 34.1924 339.72 34.1924 331.107C34.1924 322.493 27.2097 315.511 18.5962 315.511C9.98264 315.511 3 322.493 3 331.107C3 339.72 9.98264 346.703 18.5962 346.703Z" stroke="black" stroke-width="5" stroke-miterlimit="10"/>
<path d="M81.1489 346.703C89.7624 346.703 96.7451 339.72 96.7451 331.107C96.7451 322.493 89.7624 315.511 81.1489 315.511C72.5354 315.511 65.5527 322.493 65.5527 331.107C65.5527 339.72 72.5354 346.703 81.1489 346.703Z" stroke="black" stroke-width="5" stroke-miterlimit="10"/>
<path d="M18.5962 377.979C27.2097 377.979 34.1924 370.997 34.1924 362.383C34.1924 353.77 27.2097 346.787 18.5962 346.787C9.98264 346.787 3 353.77 3 362.383C3 370.997 9.98264 377.979 18.5962 377.979Z" stroke="black" stroke-width="5" stroke-miterlimit="10"/>
<path d="M81.1489 377.979C89.7624 377.979 96.7451 370.997 96.7451 362.383C96.7451 353.77 89.7624 346.787 81.1489 346.787C72.5354 346.787 65.5527 353.77 65.5527 362.383C65.5527 370.997 72.5354 377.979 81.1489 377.979Z" stroke="black" stroke-width="5" stroke-miterlimit="10"/>
<path d="M18.5962 409.172C27.2097 409.172 34.1924 402.189 34.1924 393.576C34.1924 384.962 27.2097 377.979 18.5962 377.979C9.98264 377.979 3 384.962 3 393.576C3 402.189 9.98264 409.172 18.5962 409.172Z" stroke="black" stroke-width="5" stroke-miterlimit="10"/>
<path d="M81.1489 409.172C89.7624 409.172 96.7451 402.189 96.7451 393.576C96.7451 384.962 89.7624 377.979 81.1489 377.979C72.5354 377.979 65.5527 384.962 65.5527 393.576C65.5527 402.189 72.5354 409.172 81.1489 409.172Z" stroke="black" stroke-width="5" stroke-miterlimit="10"/>
<path d="M18.5962 440.447C27.2097 440.447 34.1924 433.465 34.1924 424.851C34.1924 416.238 27.2097 409.255 18.5962 409.255C9.98264 409.255 3 416.238 3 424.851C3 433.465 9.98264 440.447 18.5962 440.447Z" stroke="black" stroke-width="5" stroke-miterlimit="10"/>
<path d="M81.1489 440.447C89.7624 440.447 96.7451 433.465 96.7451 424.851C96.7451 416.238 89.7624 409.255 81.1489 409.255C72.5354 409.255 65.5527 416.238 65.5527 424.851C65.5527 433.465 72.5354 440.447 81.1489 440.447Z" stroke="black" stroke-width="5" stroke-miterlimit="10"/>
<path d="M18.5962 471.724C27.2097 471.724 34.1924 464.741 34.1924 456.127C34.1924 447.514 27.2097 440.531 18.5962 440.531C9.98264 440.531 3 447.514 3 456.127C3 464.741 9.98264 471.724 18.5962 471.724Z" stroke="black" stroke-width="5" stroke-miterlimit="10"/>
<path d="M81.1489 471.724C89.7624 471.724 96.7451 464.741 96.7451 456.127C96.7451 447.514 89.7624 440.531 81.1489 440.531C72.5354 440.531 65.5527 447.514 65.5527 456.127C65.5527 464.741 72.5354 471.724 81.1489 471.724Z" stroke="black" stroke-width="5" stroke-miterlimit="10"/>
<path d="M18.5962 502.916C27.2097 502.916 34.1924 495.933 34.1924 487.32C34.1924 478.706 27.2097 471.724 18.5962 471.724C9.98264 471.724 3 478.706 3 487.32C3 495.933 9.98264 502.916 18.5962 502.916Z" stroke="black" stroke-width="5" stroke-miterlimit="10"/>
<path d="M81.1489 502.916C89.7624 502.916 96.7451 495.933 96.7451 487.32C96.7451 478.706 89.7624 471.724 81.1489 471.724C72.5354 471.724 65.5527 478.706 65.5527 487.32C65.5527 495.933 72.5354 502.916 81.1489 502.916Z" stroke="black" stroke-width="5" stroke-miterlimit="10"/>
<path d="M143.617 34.1924C152.23 34.1924 159.213 27.2097 159.213 18.5962C159.213 9.98265 152.23 3 143.617 3C135.003 3 128.021 9.98265 128.021 18.5962C128.021 27.2097 135.003 34.1924 143.617 34.1924Z" stroke="black" stroke-width="5" stroke-miterlimit="10"/>
<path d="M143.617 65.4687C152.23 65.4687 159.213 58.486 159.213 49.8725C159.213 41.259 152.23 34.2764 143.617 34.2764C135.003 34.2764 128.021 41.259 128.021 49.8725C128.021 58.486 135.003 65.4687 143.617 65.4687Z" stroke="black" stroke-width="5" stroke-miterlimit="10"/>
<path d="M143.617 96.7451C152.23 96.7451 159.213 89.7624 159.213 81.1489C159.213 72.5354 152.23 65.5527 143.617 65.5527C135.003 65.5527 128.021 72.5354 128.021 81.1489C128.021 89.7624 135.003 96.7451 143.617 96.7451Z" stroke="black" stroke-width="5" stroke-miterlimit="10"/>
<path d="M206.085 34.1924C214.699 34.1924 221.682 27.2097 221.682 18.5962C221.682 9.98265 214.699 3 206.085 3C197.472 3 190.489 9.98265 190.489 18.5962C190.489 27.2097 197.472 34.1924 206.085 34.1924Z" stroke="black" stroke-width="5" stroke-miterlimit="10"/>
<path d="M268.638 34.1924C277.252 34.1924 284.234 27.2097 284.234 18.5962C284.234 9.98265 277.252 3 268.638 3C260.025 3 253.042 9.98265 253.042 18.5962C253.042 27.2097 260.025 34.1924 268.638 34.1924Z" stroke="black" stroke-width="5" stroke-miterlimit="10"/>
<path d="M206.085 65.4687C214.699 65.4687 221.682 58.486 221.682 49.8725C221.682 41.259 214.699 34.2764 206.085 34.2764C197.472 34.2764 190.489 41.259 190.489 49.8725C190.489 58.486 197.472 65.4687 206.085 65.4687Z" stroke="black" stroke-width="5" stroke-miterlimit="10"/>
<path d="M268.638 65.4687C277.252 65.4687 284.234 58.486 284.234 49.8725C284.234 41.259 277.252 34.2764 268.638 34.2764C260.025 34.2764 253.042 41.259 253.042 49.8725C253.042 58.486 260.025 65.4687 268.638 65.4687Z" stroke="black" stroke-width="5" stroke-miterlimit="10"/>
<path d="M206.085 96.7451C214.699 96.7451 221.682 89.7624 221.682 81.1489C221.682 72.5354 214.699 65.5527 206.085 65.5527C197.472 65.5527 190.489 72.5354 190.489 81.1489C190.489 89.7624 197.472 96.7451 206.085 96.7451Z" stroke="black" stroke-width="5" stroke-miterlimit="10"/>
<path d="M268.638 96.7451C277.252 96.7451 284.234 89.7624 284.234 81.1489C284.234 72.5354 277.252 65.5527 268.638 65.5527C260.025 65.5527 253.042 72.5354 253.042 81.1489C253.042 89.7624 260.025 96.7451 268.638 96.7451Z" stroke="black" stroke-width="5" stroke-miterlimit="10"/>
<path d="M331.107 96.7451C339.72 96.7451 346.703 89.7624 346.703 81.1489C346.703 72.5354 339.72 65.5527 331.107 65.5527C322.493 65.5527 315.511 72.5354 315.511 81.1489C315.511 89.7624 322.493 96.7451 331.107 96.7451Z" stroke="black" stroke-width="5" stroke-miterlimit="10"/>
<path d="M331.107 127.937C339.72 127.937 346.703 120.955 346.703 112.341C346.703 103.728 339.72 96.7451 331.107 96.7451C322.493 96.7451 315.511 103.728 315.511 112.341C315.511 120.955 322.493 127.937 331.107 127.937Z" stroke="black" stroke-width="5" stroke-miterlimit="10"/>
<path d="M268.638 127.937C277.252 127.937 284.234 120.955 284.234 112.341C284.234 103.728 277.252 96.7451 268.638 96.7451C260.025 96.7451 253.042 103.728 253.042 112.341C253.042 120.955 260.025 127.937 268.638 127.937Z" stroke="black" stroke-width="5" stroke-miterlimit="10"/>
<path d="M331.107 159.214C339.72 159.214 346.703 152.231 346.703 143.618C346.703 135.004 339.72 128.021 331.107 128.021C322.493 128.021 315.511 135.004 315.511 143.618C315.511 152.231 322.493 159.214 331.107 159.214Z" stroke="black" stroke-width="5" stroke-miterlimit="10"/>
<path d="M331.107 190.489C339.72 190.489 346.703 183.507 346.703 174.893C346.703 166.28 339.72 159.297 331.107 159.297C322.493 159.297 315.511 166.28 315.511 174.893C315.511 183.507 322.493 190.489 331.107 190.489Z" stroke="black" stroke-width="5" stroke-miterlimit="10"/>
<path d="M331.107 159.214C339.72 159.214 346.703 152.231 346.703 143.618C346.703 135.004 339.72 128.021 331.107 128.021C322.493 128.021 315.511 135.004 315.511 143.618C315.511 152.231 322.493 159.214 331.107 159.214Z" stroke="black" stroke-width="5" stroke-miterlimit="10"/>
<path d="M331.107 190.489C339.72 190.489 346.703 183.507 346.703 174.893C346.703 166.28 339.72 159.297 331.107 159.297C322.493 159.297 315.511 166.28 315.511 174.893C315.511 183.507 322.493 190.489 331.107 190.489Z" stroke="black" stroke-width="5" stroke-miterlimit="10"/>
<path d="M331.107 221.682C339.72 221.682 346.703 214.699 346.703 206.085C346.703 197.472 339.72 190.489 331.107 190.489C322.493 190.489 315.511 197.472 315.511 206.085C315.511 214.699 322.493 221.682 331.107 221.682Z" stroke="black" stroke-width="5" stroke-miterlimit="10"/>
<path d="M331.107 252.958C339.72 252.958 346.703 245.975 346.703 237.362C346.703 228.748 339.72 221.766 331.107 221.766C322.493 221.766 315.511 228.748 315.511 237.362C315.511 245.975 322.493 252.958 331.107 252.958Z" stroke="black" stroke-width="5" stroke-miterlimit="10"/>
<path d="M331.107 221.682C339.72 221.682 346.703 214.699 346.703 206.085C346.703 197.472 339.72 190.489 331.107 190.489C322.493 190.489 315.511 197.472 315.511 206.085C315.511 214.699 322.493 221.682 331.107 221.682Z" stroke="black" stroke-width="5" stroke-miterlimit="10"/>
<path d="M331.107 252.958C339.72 252.958 346.703 245.975 346.703 237.362C346.703 228.748 339.72 221.766 331.107 221.766C322.493 221.766 315.511 228.748 315.511 237.362C315.511 245.975 322.493 252.958 331.107 252.958Z" stroke="black" stroke-width="5" stroke-miterlimit="10"/>
<path d="M331.107 284.234C339.72 284.234 346.703 277.252 346.703 268.638C346.703 260.025 339.72 253.042 331.107 253.042C322.493 253.042 315.511 260.025 315.511 268.638C315.511 277.252 322.493 284.234 331.107 284.234Z" stroke="black" stroke-width="5" stroke-miterlimit="10"/>
<path d="M331.107 315.427C339.72 315.427 346.703 308.444 346.703 299.831C346.703 291.217 339.72 284.234 331.107 284.234C322.493 284.234 315.511 291.217 315.511 299.831C315.511 308.444 322.493 315.427 331.107 315.427Z" stroke="black" stroke-width="5" stroke-miterlimit="10"/>
<path d="M331.107 284.234C339.72 284.234 346.703 277.252 346.703 268.638C346.703 260.025 339.72 253.042 331.107 253.042C322.493 253.042 315.511 260.025 315.511 268.638C315.511 277.252 322.493 284.234 331.107 284.234Z" stroke="black" stroke-width="5" stroke-miterlimit="10"/>
<path d="M331.107 315.427C339.72 315.427 346.703 308.444 346.703 299.831C346.703 291.217 339.72 284.234 331.107 284.234C322.493 284.234 315.511 291.217 315.511 299.831C315.511 308.444 322.493 315.427 331.107 315.427Z" stroke="black" stroke-width="5" stroke-miterlimit="10"/>
<path d="M331.107 346.703C339.72 346.703 346.703 339.72 346.703 331.107C346.703 322.493 339.72 315.511 331.107 315.511C322.493 315.511 315.511 322.493 315.511 331.107C315.511 339.72 322.493 346.703 331.107 346.703Z" stroke="black" stroke-width="5" stroke-miterlimit="10"/>
<path d="M331.107 377.979C339.72 377.979 346.703 370.997 346.703 362.383C346.703 353.77 339.72 346.787 331.107 346.787C322.493 346.787 315.511 353.77 315.511 362.383C315.511 370.997 322.493 377.979 331.107 377.979Z" stroke="black" stroke-width="5" stroke-miterlimit="10"/>
<path d="M331.107 346.703C339.72 346.703 346.703 339.72 346.703 331.107C346.703 322.493 339.72 315.511 331.107 315.511C322.493 315.511 315.511 322.493 315.511 331.107C315.511 339.72 322.493 346.703 331.107 346.703Z" stroke="black" stroke-width="5" stroke-miterlimit="10"/>
<path d="M331.107 377.979C339.72 377.979 346.703 370.997 346.703 362.383C346.703 353.77 339.72 346.787 331.107 346.787C322.493 346.787 315.511 353.77 315.511 362.383C315.511 370.997 322.493 377.979 331.107 377.979Z" stroke="black" stroke-width="5" stroke-miterlimit="10"/>
<path d="M143.617 502.916C152.23 502.916 159.213 495.933 159.213 487.32C159.213 478.706 152.23 471.724 143.617 471.724C135.003 471.724 128.021 478.706 128.021 487.32C128.021 495.933 135.003 502.916 143.617 502.916Z" stroke="black" stroke-width="5" stroke-miterlimit="10"/>
<path d="M143.617 471.724C152.23 471.724 159.213 464.741 159.213 456.127C159.213 447.514 152.23 440.531 143.617 440.531C135.003 440.531 128.021 447.514 128.021 456.127C128.021 464.741 135.003 471.724 143.617 471.724Z" stroke="black" stroke-width="5" stroke-miterlimit="10"/>
<path d="M143.617 440.447C152.23 440.447 159.213 433.465 159.213 424.851C159.213 416.238 152.23 409.255 143.617 409.255C135.003 409.255 128.021 416.238 128.021 424.851C128.021 433.465 135.003 440.447 143.617 440.447Z" stroke="black" stroke-width="5" stroke-miterlimit="10"/>
<path d="M206.085 502.916C214.699 502.916 221.682 495.933 221.682 487.32C221.682 478.706 214.699 471.724 206.085 471.724C197.472 471.724 190.489 478.706 190.489 487.32C190.489 495.933 197.472 502.916 206.085 502.916Z" stroke="black" stroke-width="5" stroke-miterlimit="10"/>
<path d="M268.638 502.916C277.252 502.916 284.234 495.933 284.234 487.32C284.234 478.706 277.252 471.724 268.638 471.724C260.025 471.724 253.042 478.706 253.042 487.32C253.042 495.933 260.025 502.916 268.638 502.916Z" stroke="black" stroke-width="5" stroke-miterlimit="10"/>
<path d="M206.085 471.724C214.699 471.724 221.682 464.741 221.682 456.127C221.682 447.514 214.699 440.531 206.085 440.531C197.472 440.531 190.489 447.514 190.489 456.127C190.489 464.741 197.472 471.724 206.085 471.724Z" stroke="black" stroke-width="5" stroke-miterlimit="10"/>
<path d="M268.638 471.724C277.252 471.724 284.234 464.741 284.234 456.127C284.234 447.514 277.252 440.531 268.638 440.531C260.025 440.531 253.042 447.514 253.042 456.127C253.042 464.741 260.025 471.724 268.638 471.724Z" stroke="black" stroke-width="5" stroke-miterlimit="10"/>
<path d="M206.085 440.447C214.699 440.447 221.682 433.465 221.682 424.851C221.682 416.238 214.699 409.255 206.085 409.255C197.472 409.255 190.489 416.238 190.489 424.851C190.489 433.465 197.472 440.447 206.085 440.447Z" stroke="black" stroke-width="5" stroke-miterlimit="10"/>
<path d="M268.638 440.447C277.252 440.447 284.234 433.465 284.234 424.851C284.234 416.238 277.252 409.255 268.638 409.255C260.025 409.255 253.042 416.238 253.042 424.851C253.042 433.465 260.025 440.447 268.638 440.447Z" stroke="black" stroke-width="5" stroke-miterlimit="10"/>
<path d="M331.107 440.447C339.72 440.447 346.703 433.465 346.703 424.851C346.703 416.238 339.72 409.255 331.107 409.255C322.493 409.255 315.511 416.238 315.511 424.851C315.511 433.465 322.493 440.447 331.107 440.447Z" stroke="black" stroke-width="5" stroke-miterlimit="10"/>
<path d="M331.107 409.172C339.72 409.172 346.703 402.189 346.703 393.576C346.703 384.962 339.72 377.979 331.107 377.979C322.493 377.979 315.511 384.962 315.511 393.576C315.511 402.189 322.493 409.172 331.107 409.172Z" stroke="black" stroke-width="5" stroke-miterlimit="10"/>
<path d="M268.638 409.172C277.252 409.172 284.234 402.189 284.234 393.576C284.234 384.962 277.252 377.979 268.638 377.979C260.025 377.979 253.042 384.962 253.042 393.576C253.042 402.189 260.025 409.172 268.638 409.172Z" stroke="black" stroke-width="5" stroke-miterlimit="10"/>
<path d="M421.079 34.1924C429.692 34.1924 436.675 27.2097 436.675 18.5962C436.675 9.98264 429.692 3 421.079 3C412.465 3 405.482 9.98264 405.482 18.5962C405.482 27.2097 412.465 34.1924 421.079 34.1924Z" stroke="black" stroke-width="5" stroke-miterlimit="10"/>
<path d="M483.547 34.1924C492.161 34.1924 499.144 27.2097 499.144 18.5962C499.144 9.98264 492.161 3 483.547 3C474.934 3 467.951 9.98264 467.951 18.5962C467.951 27.2097 474.934 34.1924 483.547 34.1924Z" stroke="black" stroke-width="5" stroke-miterlimit="10"/>
<path d="M421.079 65.4687C429.692 65.4687 436.675 58.4861 436.675 49.8725C436.675 41.259 429.692 34.2764 421.079 34.2764C412.465 34.2764 405.482 41.259 405.482 49.8725C405.482 58.4861 412.465 65.4687 421.079 65.4687Z" stroke="black" stroke-width="5" stroke-miterlimit="10"/>
<path d="M483.547 65.4687C492.161 65.4687 499.144 58.4861 499.144 49.8725C499.144 41.259 492.161 34.2764 483.547 34.2764C474.934 34.2764 467.951 41.259 467.951 49.8725C467.951 58.4861 474.934 65.4687 483.547 65.4687Z" stroke="black" stroke-width="5" stroke-miterlimit="10"/>
<path d="M421.079 96.7451C429.692 96.7451 436.675 89.7624 436.675 81.1489C436.675 72.5354 429.692 65.5527 421.079 65.5527C412.465 65.5527 405.482 72.5354 405.482 81.1489C405.482 89.7624 412.465 96.7451 421.079 96.7451Z" stroke="black" stroke-width="5" stroke-miterlimit="10"/>
<path d="M483.547 96.7451C492.161 96.7451 499.144 89.7624 499.144 81.1489C499.144 72.5354 492.161 65.5527 483.547 65.5527C474.934 65.5527 467.951 72.5354 467.951 81.1489C467.951 89.7624 474.934 96.7451 483.547 96.7451Z" stroke="black" stroke-width="5" stroke-miterlimit="10"/>
<path d="M421.079 127.937C429.692 127.937 436.675 120.955 436.675 112.341C436.675 103.728 429.692 96.7451 421.079 96.7451C412.465 96.7451 405.482 103.728 405.482 112.341C405.482 120.955 412.465 127.937 421.079 127.937Z" stroke="black" stroke-width="5" stroke-miterlimit="10"/>
<path d="M483.547 127.937C492.161 127.937 499.144 120.955 499.144 112.341C499.144 103.728 492.161 96.7451 483.547 96.7451C474.934 96.7451 467.951 103.728 467.951 112.341C467.951 120.955 474.934 127.937 483.547 127.937Z" stroke="black" stroke-width="5" stroke-miterlimit="10"/>
<path d="M421.079 159.213C429.692 159.213 436.675 152.23 436.675 143.617C436.675 135.003 429.692 128.021 421.079 128.021C412.465 128.021 405.482 135.003 405.482 143.617C405.482 152.23 412.465 159.213 421.079 159.213Z" stroke="black" stroke-width="5" stroke-miterlimit="10"/>
<path d="M483.547 159.213C492.161 159.213 499.144 152.23 499.144 143.617C499.144 135.003 492.161 128.021 483.547 128.021C474.934 128.021 467.951 135.003 467.951 143.617C467.951 152.23 474.934 159.213 483.547 159.213Z" stroke="black" stroke-width="5" stroke-miterlimit="10"/>
<path d="M421.079 190.489C429.692 190.489 436.675 183.507 436.675 174.893C436.675 166.28 429.692 159.297 421.079 159.297C412.465 159.297 405.482 166.28 405.482 174.893C405.482 183.507 412.465 190.489 421.079 190.489Z" stroke="black" stroke-width="5" stroke-miterlimit="10"/>
<path d="M483.547 190.489C492.161 190.489 499.144 183.507 499.144 174.893C499.144 166.28 492.161 159.297 483.547 159.297C474.934 159.297 467.951 166.28 467.951 174.893C467.951 183.507 474.934 190.489 483.547 190.489Z" stroke="black" stroke-width="5" stroke-miterlimit="10"/>
<path d="M421.079 221.682C429.692 221.682 436.675 214.699 436.675 206.085C436.675 197.472 429.692 190.489 421.079 190.489C412.465 190.489 405.482 197.472 405.482 206.085C405.482 214.699 412.465 221.682 421.079 221.682Z" stroke="black" stroke-width="5" stroke-miterlimit="10"/>
<path d="M483.547 221.682C492.161 221.682 499.144 214.699 499.144 206.085C499.144 197.472 492.161 190.489 483.547 190.489C474.934 190.489 467.951 197.472 467.951 206.085C467.951 214.699 474.934 221.682 483.547 221.682Z" stroke="black" stroke-width="5" stroke-miterlimit="10"/>
<path d="M421.079 252.958C429.692 252.958 436.675 245.975 436.675 237.362C436.675 228.748 429.692 221.766 421.079 221.766C412.465 221.766 405.482 228.748 405.482 237.362C405.482 245.975 412.465 252.958 421.079 252.958Z" stroke="black" stroke-width="5" stroke-miterlimit="10"/>
<path d="M483.547 252.958C492.161 252.958 499.144 245.975 499.144 237.362C499.144 228.748 492.161 221.766 483.547 221.766C474.934 221.766 467.951 228.748 467.951 237.362C467.951 245.975 474.934 252.958 483.547 252.958Z" stroke="black" stroke-width="5" stroke-miterlimit="10"/>
<path d="M421.079 284.234C429.692 284.234 436.675 277.252 436.675 268.638C436.675 260.025 429.692 253.042 421.079 253.042C412.465 253.042 405.482 260.025 405.482 268.638C405.482 277.252 412.465 284.234 421.079 284.234Z" stroke="black" stroke-width="5" stroke-miterlimit="10"/>
<path d="M483.547 284.234C492.161 284.234 499.144 277.252 499.144 268.638C499.144 260.025 492.161 253.042 483.547 253.042C474.934 253.042 467.951 260.025 467.951 268.638C467.951 277.252 474.934 284.234 483.547 284.234Z" stroke="black" stroke-width="5" stroke-miterlimit="10"/>
<path d="M421.079 315.427C429.692 315.427 436.675 308.444 436.675 299.831C436.675 291.217 429.692 284.234 421.079 284.234C412.465 284.234 405.482 291.217 405.482 299.831C405.482 308.444 412.465 315.427 421.079 315.427Z" stroke="black" stroke-width="5" stroke-miterlimit="10"/>
<path d="M483.547 315.427C492.161 315.427 499.144 308.444 499.144 299.831C499.144 291.217 492.161 284.234 483.547 284.234C474.934 284.234 467.951 291.217 467.951 299.831C467.951 308.444 474.934 315.427 483.547 315.427Z" stroke="black" stroke-width="5" stroke-miterlimit="10"/>
<path d="M421.079 346.703C429.692 346.703 436.675 339.72 436.675 331.107C436.675 322.493 429.692 315.511 421.079 315.511C412.465 315.511 405.482 322.493 405.482 331.107C405.482 339.72 412.465 346.703 421.079 346.703Z" stroke="black" stroke-width="5" stroke-miterlimit="10"/>
<path d="M483.547 346.703C492.161 346.703 499.144 339.72 499.144 331.107C499.144 322.493 492.161 315.511 483.547 315.511C474.934 315.511 467.951 322.493 467.951 331.107C467.951 339.72 474.934 346.703 483.547 346.703Z" stroke="black" stroke-width="5" stroke-miterlimit="10"/>
<path d="M421.079 377.979C429.692 377.979 436.675 370.997 436.675 362.383C436.675 353.77 429.692 346.787 421.079 346.787C412.465 346.787 405.482 353.77 405.482 362.383C405.482 370.997 412.465 377.979 421.079 377.979Z" stroke="black" stroke-width="5" stroke-miterlimit="10"/>
<path d="M483.547 377.979C492.161 377.979 499.144 370.997 499.144 362.383C499.144 353.77 492.161 346.787 483.547 346.787C474.934 346.787 467.951 353.77 467.951 362.383C467.951 370.997 474.934 377.979 483.547 377.979Z" stroke="black" stroke-width="5" stroke-miterlimit="10"/>
<path d="M421.079 409.255C429.692 409.255 436.675 402.272 436.675 393.659C436.675 385.045 429.692 378.062 421.079 378.062C412.465 378.062 405.482 385.045 405.482 393.659C405.482 402.272 412.465 409.255 421.079 409.255Z" stroke="black" stroke-width="5" stroke-miterlimit="10"/>
<path d="M483.547 409.255C492.161 409.255 499.144 402.272 499.144 393.659C499.144 385.045 492.161 378.062 483.547 378.062C474.934 378.062 467.951 385.045 467.951 393.659C467.951 402.272 474.934 409.255 483.547 409.255Z" stroke="black" stroke-width="5" stroke-miterlimit="10"/>
<path d="M421.079 440.447C429.692 440.447 436.675 433.465 436.675 424.851C436.675 416.238 429.692 409.255 421.079 409.255C412.465 409.255 405.482 416.238 405.482 424.851C405.482 433.465 412.465 440.447 421.079 440.447Z" stroke="black" stroke-width="5" stroke-miterlimit="10"/>
<path d="M483.547 440.447C492.161 440.447 499.144 433.465 499.144 424.851C499.144 416.238 492.161 409.255 483.547 409.255C474.934 409.255 467.951 416.238 467.951 424.851C467.951 433.465 474.934 440.447 483.547 440.447Z" stroke="black" stroke-width="5" stroke-miterlimit="10"/>
<path d="M421.079 471.724C429.692 471.724 436.675 464.741 436.675 456.127C436.675 447.514 429.692 440.531 421.079 440.531C412.465 440.531 405.482 447.514 405.482 456.127C405.482 464.741 412.465 471.724 421.079 471.724Z" stroke="black" stroke-width="5" stroke-miterlimit="10"/>
<path d="M483.547 471.724C492.161 471.724 499.144 464.741 499.144 456.127C499.144 447.514 492.161 440.531 483.547 440.531C474.934 440.531 467.951 447.514 467.951 456.127C467.951 464.741 474.934 471.724 483.547 471.724Z" stroke="black" stroke-width="5" stroke-miterlimit="10"/>
<path d="M421.079 503C429.692 503 436.675 496.017 436.675 487.404C436.675 478.79 429.692 471.808 421.079 471.808C412.465 471.808 405.482 478.79 405.482 487.404C405.482 496.017 412.465 503 421.079 503Z" stroke="black" stroke-width="5" stroke-miterlimit="10"/>
<path d="M483.547 503C492.161 503 499.144 496.017 499.144 487.404C499.144 478.79 492.161 471.808 483.547 471.808C474.934 471.808 467.951 478.79 467.951 487.404C467.951 496.017 474.934 503 483.547 503Z" stroke="black" stroke-width="5" stroke-miterlimit="10"/>
<path d="M608.568 34.1924C617.181 34.1924 624.164 27.2097 624.164 18.5962C624.164 9.98264 617.181 3 608.568 3C599.954 3 592.972 9.98264 592.972 18.5962C592.972 27.2097 599.954 34.1924 608.568 34.1924Z" stroke="black" stroke-width="5" stroke-miterlimit="10"/>
<path d="M608.568 65.4687C617.181 65.4687 624.164 58.4861 624.164 49.8725C624.164 41.259 617.181 34.2764 608.568 34.2764C599.954 34.2764 592.972 41.259 592.972 49.8725C592.972 58.4861 599.954 65.4687 608.568 65.4687Z" stroke="black" stroke-width="5" stroke-miterlimit="10"/>
<path d="M608.568 96.7451C617.181 96.7451 624.164 89.7624 624.164 81.1489C624.164 72.5354 617.181 65.5527 608.568 65.5527C599.954 65.5527 592.972 72.5354 592.972 81.1489C592.972 89.7624 599.954 96.7451 608.568 96.7451Z" stroke="black" stroke-width="5" stroke-miterlimit="10"/>
<path d="M546.099 34.1924C554.713 34.1924 561.695 27.2097 561.695 18.5962C561.695 9.98264 554.713 3 546.099 3C537.486 3 530.503 9.98264 530.503 18.5962C530.503 27.2097 537.486 34.1924 546.099 34.1924Z" stroke="black" stroke-width="5" stroke-miterlimit="10"/>
<path d="M546.099 65.4687C554.713 65.4687 561.695 58.4861 561.695 49.8725C561.695 41.259 554.713 34.2764 546.099 34.2764C537.486 34.2764 530.503 41.259 530.503 49.8725C530.503 58.4861 537.486 65.4687 546.099 65.4687Z" stroke="black" stroke-width="5" stroke-miterlimit="10"/>
<path d="M546.099 96.7451C554.713 96.7451 561.695 89.7624 561.695 81.1489C561.695 72.5354 554.713 65.5527 546.099 65.5527C537.486 65.5527 530.503 72.5354 530.503 81.1489C530.503 89.7624 537.486 96.7451 546.099 96.7451Z" stroke="black" stroke-width="5" stroke-miterlimit="10"/>
<path d="M671.037 34.1924C679.65 34.1924 686.633 27.2097 686.633 18.5962C686.633 9.98264 679.65 3 671.037 3C662.423 3 655.44 9.98264 655.44 18.5962C655.44 27.2097 662.423 34.1924 671.037 34.1924Z" stroke="black" stroke-width="5" stroke-miterlimit="10"/>
<path d="M671.037 65.4687C679.65 65.4687 686.633 58.4861 686.633 49.8725C686.633 41.259 679.65 34.2764 671.037 34.2764C662.423 34.2764 655.44 41.259 655.44 49.8725C655.44 58.4861 662.423 65.4687 671.037 65.4687Z" stroke="black" stroke-width="5" stroke-miterlimit="10"/>
<path d="M671.037 96.7451C679.65 96.7451 686.633 89.7624 686.633 81.1489C686.633 72.5354 679.65 65.5527 671.037 65.5527C662.423 65.5527 655.44 72.5354 655.44 81.1489C655.44 89.7624 662.423 96.7451 671.037 96.7451Z" stroke="black" stroke-width="5" stroke-miterlimit="10"/>
<path d="M608.568 219.753C617.181 219.753 624.164 212.77 624.164 204.157C624.164 195.543 617.181 188.561 608.568 188.561C599.954 188.561 592.972 195.543 592.972 204.157C592.972 212.77 599.954 219.753 608.568 219.753Z" stroke="black" stroke-width="5" stroke-miterlimit="10"/>
<path d="M608.568 250.945C617.181 250.945 624.164 243.963 624.164 235.349C624.164 226.736 617.181 219.753 608.568 219.753C599.954 219.753 592.972 226.736 592.972 235.349C592.972 243.963 599.954 250.945 608.568 250.945Z" stroke="black" stroke-width="5" stroke-miterlimit="10"/>
<path d="M608.568 282.222C617.181 282.222 624.164 275.239 624.164 266.625C624.164 258.012 617.181 251.029 608.568 251.029C599.954 251.029 592.972 258.012 592.972 266.625C592.972 275.239 599.954 282.222 608.568 282.222Z" stroke="black" stroke-width="5" stroke-miterlimit="10"/>
<path d="M546.099 219.753C554.713 219.753 561.695 212.77 561.695 204.157C561.695 195.543 554.713 188.561 546.099 188.561C537.486 188.561 530.503 195.543 530.503 204.157C530.503 212.77 537.486 219.753 546.099 219.753Z" stroke="black" stroke-width="5" stroke-miterlimit="10"/>
<path d="M546.099 250.945C554.713 250.945 561.695 243.963 561.695 235.349C561.695 226.736 554.713 219.753 546.099 219.753C537.486 219.753 530.503 226.736 530.503 235.349C530.503 243.963 537.486 250.945 546.099 250.945Z" stroke="black" stroke-width="5" stroke-miterlimit="10"/>
<path d="M546.099 282.222C554.713 282.222 561.695 275.239 561.695 266.625C561.695 258.012 554.713 251.029 546.099 251.029C537.486 251.029 530.503 258.012 530.503 266.625C530.503 275.239 537.486 282.222 546.099 282.222Z" stroke="black" stroke-width="5" stroke-miterlimit="10"/>
<path d="M671.037 219.753C679.65 219.753 686.633 212.77 686.633 204.157C686.633 195.543 679.65 188.561 671.037 188.561C662.423 188.561 655.44 195.543 655.44 204.157C655.44 212.77 662.423 219.753 671.037 219.753Z" stroke="black" stroke-width="5" stroke-miterlimit="10"/>
<path d="M671.037 250.945C679.65 250.945 686.633 243.963 686.633 235.349C686.633 226.736 679.65 219.753 671.037 219.753C662.423 219.753 655.44 226.736 655.44 235.349C655.44 243.963 662.423 250.945 671.037 250.945Z" stroke="black" stroke-width="5" stroke-miterlimit="10"/>
<path d="M671.037 282.222C679.65 282.222 686.633 275.239 686.633 266.625C686.633 258.012 679.65 251.029 671.037 251.029C662.423 251.029 655.44 258.012 655.44 266.625C655.44 275.239 662.423 282.222 671.037 282.222Z" stroke="black" stroke-width="5" stroke-miterlimit="10"/>
<path d="M608.568 440.447C617.181 440.447 624.164 433.465 624.164 424.851C624.164 416.238 617.181 409.255 608.568 409.255C599.954 409.255 592.972 416.238 592.972 424.851C592.972 433.465 599.954 440.447 608.568 440.447Z" stroke="black" stroke-width="5" stroke-miterlimit="10"/>
<path d="M608.568 471.724C617.181 471.724 624.164 464.741 624.164 456.127C624.164 447.514 617.181 440.531 608.568 440.531C599.954 440.531 592.972 447.514 592.972 456.127C592.972 464.741 599.954 471.724 608.568 471.724Z" stroke="black" stroke-width="5" stroke-miterlimit="10"/>
<path d="M608.568 503C617.181 503 624.164 496.017 624.164 487.404C624.164 478.79 617.181 471.808 608.568 471.808C599.954 471.808 592.972 478.79 592.972 487.404C592.972 496.017 599.954 503 608.568 503Z" stroke="black" stroke-width="5" stroke-miterlimit="10"/>
<path d="M546.099 440.447C554.713 440.447 561.695 433.465 561.695 424.851C561.695 416.238 554.713 409.255 546.099 409.255C537.486 409.255 530.503 416.238 530.503 424.851C530.503 433.465 537.486 440.447 546.099 440.447Z" stroke="black" stroke-width="5" stroke-miterlimit="10"/>
<path d="M546.099 471.724C554.713 471.724 561.695 464.741 561.695 456.127C561.695 447.514 554.713 440.531 546.099 440.531C537.486 440.531 530.503 447.514 530.503 456.127C530.503 464.741 537.486 471.724 546.099 471.724Z" stroke="black" stroke-width="5" stroke-miterlimit="10"/>
<path d="M546.099 503C554.713 503 561.695 496.017 561.695 487.404C561.695 478.79 554.713 471.808 546.099 471.808C537.486 471.808 530.503 478.79 530.503 487.404C530.503 496.017 537.486 503 546.099 503Z" stroke="black" stroke-width="5" stroke-miterlimit="10"/>
<path d="M671.037 440.447C679.65 440.447 686.633 433.465 686.633 424.851C686.633 416.238 679.65 409.255 671.037 409.255C662.423 409.255 655.44 416.238 655.44 424.851C655.44 433.465 662.423 440.447 671.037 440.447Z" stroke="black" stroke-width="5" stroke-miterlimit="10"/>
<path d="M671.037 471.724C679.65 471.724 686.633 464.741 686.633 456.127C686.633 447.514 679.65 440.531 671.037 440.531C662.423 440.531 655.44 447.514 655.44 456.127C655.44 464.741 662.423 471.724 671.037 471.724Z" stroke="black" stroke-width="5" stroke-miterlimit="10"/>
<path d="M671.037 503C679.65 503 686.633 496.017 686.633 487.404C686.633 478.79 679.65 471.808 671.037 471.808C662.423 471.808 655.44 478.79 655.44 487.404C655.44 496.017 662.423 503 671.037 503Z" stroke="black" stroke-width="5" stroke-miterlimit="10"/>
</svg>
