<svg width="544" height="500" viewBox="0 0 544 500" fill="none" xmlns="http://www.w3.org/2000/svg">
<path d="M150.889 31.1924C159.559 31.1924 166.586 24.2097 166.586 15.5962C166.586 6.98265 159.559 0 150.889 0C142.22 0 135.192 6.98265 135.192 15.5962C135.192 24.2097 142.22 31.1924 150.889 31.1924Z" fill="black"/>
<path d="M182.368 31.1924C191.037 31.1924 198.065 24.2097 198.065 15.5962C198.065 6.98265 191.037 0 182.368 0C173.698 0 166.671 6.98265 166.671 15.5962C166.671 24.2097 173.698 31.1924 182.368 31.1924Z" fill="black"/>
<path d="M213.846 31.1924C222.515 31.1924 229.543 24.2097 229.543 15.5962C229.543 6.98265 222.515 0 213.846 0C205.177 0 198.149 6.98265 198.149 15.5962C198.149 24.2097 205.177 31.1924 213.846 31.1924Z" fill="black"/>
<path d="M245.24 31.1924C253.909 31.1924 260.937 24.2097 260.937 15.5962C260.937 6.98265 253.909 0 245.24 0C236.571 0 229.543 6.98265 229.543 15.5962C229.543 24.2097 236.571 31.1924 245.24 31.1924Z" fill="black"/>
<path d="M150.889 62.4687C159.559 62.4687 166.586 55.4861 166.586 46.8725C166.586 38.259 159.559 31.2764 150.889 31.2764C142.22 31.2764 135.192 38.259 135.192 46.8725C135.192 55.4861 142.22 62.4687 150.889 62.4687Z" fill="black"/>
<path d="M182.368 62.4687C191.037 62.4687 198.065 55.4861 198.065 46.8725C198.065 38.259 191.037 31.2764 182.368 31.2764C173.698 31.2764 166.671 38.259 166.671 46.8725C166.671 55.4861 173.698 62.4687 182.368 62.4687Z" fill="black"/>
<path d="M213.846 62.4687C222.515 62.4687 229.543 55.4861 229.543 46.8725C229.543 38.259 222.515 31.2764 213.846 31.2764C205.177 31.2764 198.149 38.259 198.149 46.8725C198.149 55.4861 205.177 62.4687 213.846 62.4687Z" fill="black"/>
<path d="M150.889 93.7446C159.559 93.7446 166.586 86.7619 166.586 78.1484C166.586 69.5349 159.559 62.5522 150.889 62.5522C142.22 62.5522 135.192 69.5349 135.192 78.1484C135.192 86.7619 142.22 93.7446 150.889 93.7446Z" fill="black"/>
<path d="M182.368 93.7446C191.037 93.7446 198.065 86.7619 198.065 78.1484C198.065 69.5349 191.037 62.5522 182.368 62.5522C173.698 62.5522 166.671 69.5349 166.671 78.1484C166.671 86.7619 173.698 93.7446 182.368 93.7446Z" fill="black"/>
<path d="M213.846 93.7446C222.515 93.7446 229.543 86.7619 229.543 78.1484C229.543 69.5349 222.515 62.5522 213.846 62.5522C205.177 62.5522 198.149 69.5349 198.149 78.1484C198.149 86.7619 205.177 93.7446 213.846 93.7446Z" fill="black"/>
<path d="M182.368 124.937C191.037 124.937 198.065 117.954 198.065 109.341C198.065 100.727 191.037 93.7446 182.368 93.7446C173.698 93.7446 166.671 100.727 166.671 109.341C166.671 117.954 173.698 124.937 182.368 124.937Z" fill="black"/>
<path d="M213.846 124.937C222.515 124.937 229.543 117.954 229.543 109.341C229.543 100.727 222.515 93.7446 213.846 93.7446C205.177 93.7446 198.149 100.727 198.149 109.341C198.149 117.954 205.177 124.937 213.846 124.937Z" fill="black"/>
<path d="M182.368 156.213C191.037 156.213 198.065 149.231 198.065 140.617C198.065 132.004 191.037 125.021 182.368 125.021C173.698 125.021 166.671 132.004 166.671 140.617C166.671 149.231 173.698 156.213 182.368 156.213Z" fill="black"/>
<path d="M213.846 156.213C222.515 156.213 229.543 149.231 229.543 140.617C229.543 132.004 222.515 125.021 213.846 125.021C205.177 125.021 198.149 132.004 198.149 140.617C198.149 149.231 205.177 156.213 213.846 156.213Z" fill="black"/>
<path d="M182.368 187.49C191.037 187.49 198.065 180.507 198.065 171.894C198.065 163.28 191.037 156.297 182.368 156.297C173.698 156.297 166.671 163.28 166.671 171.894C166.671 180.507 173.698 187.49 182.368 187.49Z" fill="black"/>
<path d="M213.846 187.49C222.515 187.49 229.543 180.507 229.543 171.894C229.543 163.28 222.515 156.297 213.846 156.297C205.177 156.297 198.149 163.28 198.149 171.894C198.149 180.507 205.177 187.49 213.846 187.49Z" fill="black"/>
<path d="M182.368 218.682C191.037 218.682 198.065 211.699 198.065 203.086C198.065 194.472 191.037 187.49 182.368 187.49C173.698 187.49 166.671 194.472 166.671 203.086C166.671 211.699 173.698 218.682 182.368 218.682Z" fill="black"/>
<path d="M213.846 218.682C222.515 218.682 229.543 211.699 229.543 203.086C229.543 194.472 222.515 187.49 213.846 187.49C205.177 187.49 198.149 194.472 198.149 203.086C198.149 211.699 205.177 218.682 213.846 218.682Z" fill="black"/>
<path d="M150.889 249.958C159.559 249.958 166.586 242.975 166.586 234.362C166.586 225.748 159.559 218.766 150.889 218.766C142.22 218.766 135.192 225.748 135.192 234.362C135.192 242.975 142.22 249.958 150.889 249.958Z" fill="black"/>
<path d="M150.889 281.234C159.559 281.234 166.586 274.252 166.586 265.638C166.586 257.025 159.559 250.042 150.889 250.042C142.22 250.042 135.192 257.025 135.192 265.638C135.192 274.252 142.22 281.234 150.889 281.234Z" fill="black"/>
<path d="M150.889 312.427C159.559 312.427 166.586 305.444 166.586 296.831C166.586 288.217 159.559 281.234 150.889 281.234C142.22 281.234 135.192 288.217 135.192 296.831C135.192 305.444 142.22 312.427 150.889 312.427Z" fill="black"/>
<path d="M150.889 343.703C159.559 343.703 166.586 336.72 166.586 328.106C166.586 319.493 159.559 312.51 150.889 312.51C142.22 312.51 135.192 319.493 135.192 328.106C135.192 336.72 142.22 343.703 150.889 343.703Z" fill="black"/>
<path d="M150.889 406.255C159.559 406.255 166.586 399.273 166.586 390.659C166.586 382.046 159.559 375.063 150.889 375.063C142.22 375.063 135.192 382.046 135.192 390.659C135.192 399.273 142.22 406.255 150.889 406.255Z" fill="black"/>
<path d="M150.889 437.448C159.559 437.448 166.586 430.465 166.586 421.852C166.586 413.238 159.559 406.255 150.889 406.255C142.22 406.255 135.192 413.238 135.192 421.852C135.192 430.465 142.22 437.448 150.889 437.448Z" fill="black"/>
<path d="M182.368 437.448C191.037 437.448 198.065 430.465 198.065 421.852C198.065 413.238 191.037 406.255 182.368 406.255C173.698 406.255 166.671 413.238 166.671 421.852C166.671 430.465 173.698 437.448 182.368 437.448Z" fill="black"/>
<path d="M150.889 468.724C159.559 468.724 166.586 461.741 166.586 453.127C166.586 444.514 159.559 437.531 150.889 437.531C142.22 437.531 135.192 444.514 135.192 453.127C135.192 461.741 142.22 468.724 150.889 468.724Z" fill="black"/>
<path d="M182.368 468.724C191.037 468.724 198.065 461.741 198.065 453.127C198.065 444.514 191.037 437.531 182.368 437.531C173.698 437.531 166.671 444.514 166.671 453.127C166.671 461.741 173.698 468.724 182.368 468.724Z" fill="black"/>
<path d="M213.846 468.724C222.515 468.724 229.543 461.741 229.543 453.127C229.543 444.514 222.515 437.531 213.846 437.531C205.177 437.531 198.149 444.514 198.149 453.127C198.149 461.741 205.177 468.724 213.846 468.724Z" fill="black"/>
<path d="M150.889 500C159.559 500 166.586 493.017 166.586 484.404C166.586 475.79 159.559 468.808 150.889 468.808C142.22 468.808 135.192 475.79 135.192 484.404C135.192 493.017 142.22 500 150.889 500Z" fill="black"/>
<path d="M182.368 500C191.037 500 198.065 493.017 198.065 484.404C198.065 475.79 191.037 468.808 182.368 468.808C173.698 468.808 166.671 475.79 166.671 484.404C166.671 493.017 173.698 500 182.368 500Z" fill="black"/>
<path d="M213.846 500C222.515 500 229.543 493.017 229.543 484.404C229.543 475.79 222.515 468.808 213.846 468.808C205.177 468.808 198.149 475.79 198.149 484.404C198.149 493.017 205.177 500 213.846 500Z" fill="black"/>
<path d="M465.419 31.1924C474.088 31.1924 481.116 24.2097 481.116 15.5962C481.116 6.98265 474.088 0 465.419 0C456.75 0 449.722 6.98265 449.722 15.5962C449.722 24.2097 456.75 31.1924 465.419 31.1924Z" fill="black"/>
<path d="M496.898 31.1924C505.567 31.1924 512.595 24.2097 512.595 15.5962C512.595 6.98265 505.567 0 496.898 0C488.228 0 481.201 6.98265 481.201 15.5962C481.201 24.2097 488.228 31.1924 496.898 31.1924Z" fill="black"/>
<path d="M528.291 31.1924C536.96 31.1924 543.988 24.2097 543.988 15.5962C543.988 6.98265 536.96 0 528.291 0C519.622 0 512.594 6.98265 512.594 15.5962C512.594 24.2097 519.622 31.1924 528.291 31.1924Z" fill="black"/>
<path d="M496.898 62.4687C505.567 62.4687 512.595 55.4861 512.595 46.8725C512.595 38.259 505.567 31.2764 496.898 31.2764C488.228 31.2764 481.201 38.259 481.201 46.8725C481.201 55.4861 488.228 62.4687 496.898 62.4687Z" fill="black"/>
<path d="M528.291 62.4687C536.96 62.4687 543.988 55.4861 543.988 46.8725C543.988 38.259 536.96 31.2764 528.291 31.2764C519.622 31.2764 512.594 38.259 512.594 46.8725C512.594 55.4861 519.622 62.4687 528.291 62.4687Z" fill="black"/>
<path d="M528.291 93.7446C536.96 93.7446 543.988 86.7619 543.988 78.1484C543.988 69.5349 536.96 62.5522 528.291 62.5522C519.622 62.5522 512.594 69.5349 512.594 78.1484C512.594 86.7619 519.622 93.7446 528.291 93.7446Z" fill="black"/>
<path d="M496.898 156.213C505.567 156.213 512.595 149.231 512.595 140.617C512.595 132.004 505.567 125.021 496.898 125.021C488.228 125.021 481.201 132.004 481.201 140.617C481.201 149.231 488.228 156.213 496.898 156.213Z" fill="black"/>
<path d="M465.419 187.49C474.088 187.49 481.116 180.507 481.116 171.894C481.116 163.28 474.088 156.297 465.419 156.297C456.75 156.297 449.722 163.28 449.722 171.894C449.722 180.507 456.75 187.49 465.419 187.49Z" fill="black"/>
<path d="M496.898 187.49C505.567 187.49 512.595 180.507 512.595 171.894C512.595 163.28 505.567 156.297 496.898 156.297C488.228 156.297 481.201 163.28 481.201 171.894C481.201 180.507 488.228 187.49 496.898 187.49Z" fill="black"/>
<path d="M496.898 218.682C505.567 218.682 512.595 211.699 512.595 203.086C512.595 194.472 505.567 187.49 496.898 187.49C488.228 187.49 481.201 194.472 481.201 203.086C481.201 211.699 488.228 218.682 496.898 218.682Z" fill="black"/>
<path d="M496.898 249.958C505.567 249.958 512.595 242.975 512.595 234.362C512.595 225.748 505.567 218.766 496.898 218.766C488.228 218.766 481.201 225.748 481.201 234.362C481.201 242.975 488.228 249.958 496.898 249.958Z" fill="black"/>
<path d="M528.291 249.958C536.96 249.958 543.988 242.975 543.988 234.362C543.988 225.748 536.96 218.766 528.291 218.766C519.622 218.766 512.594 225.748 512.594 234.362C512.594 242.975 519.622 249.958 528.291 249.958Z" fill="black"/>
<path d="M528.291 343.703C536.96 343.703 543.988 336.72 543.988 328.106C543.988 319.493 536.96 312.51 528.291 312.51C519.622 312.51 512.594 319.493 512.594 328.106C512.594 336.72 519.622 343.703 528.291 343.703Z" fill="black"/>
<path d="M528.291 374.979C536.96 374.979 543.988 367.996 543.988 359.383C543.988 350.769 536.96 343.787 528.291 343.787C519.622 343.787 512.594 350.769 512.594 359.383C512.594 367.996 519.622 374.979 528.291 374.979Z" fill="black"/>
<path d="M528.291 406.255C536.96 406.255 543.988 399.273 543.988 390.659C543.988 382.046 536.96 375.063 528.291 375.063C519.622 375.063 512.594 382.046 512.594 390.659C512.594 399.273 519.622 406.255 528.291 406.255Z" fill="black"/>
<path d="M496.898 437.448C505.567 437.448 512.595 430.465 512.595 421.852C512.595 413.238 505.567 406.255 496.898 406.255C488.228 406.255 481.201 413.238 481.201 421.852C481.201 430.465 488.228 437.448 496.898 437.448Z" fill="black"/>
<path d="M528.291 437.448C536.96 437.448 543.988 430.465 543.988 421.852C543.988 413.238 536.96 406.255 528.291 406.255C519.622 406.255 512.594 413.238 512.594 421.852C512.594 430.465 519.622 437.448 528.291 437.448Z" fill="black"/>
<path d="M465.419 468.724C474.088 468.724 481.116 461.741 481.116 453.127C481.116 444.514 474.088 437.531 465.419 437.531C456.75 437.531 449.722 444.514 449.722 453.127C449.722 461.741 456.75 468.724 465.419 468.724Z" fill="black"/>
<path d="M496.898 468.724C505.567 468.724 512.595 461.741 512.595 453.127C512.595 444.514 505.567 437.531 496.898 437.531C488.228 437.531 481.201 444.514 481.201 453.127C481.201 461.741 488.228 468.724 496.898 468.724Z" fill="black"/>
<path d="M528.291 468.724C536.96 468.724 543.988 461.741 543.988 453.127C543.988 444.514 536.96 437.531 528.291 437.531C519.622 437.531 512.594 444.514 512.594 453.127C512.594 461.741 519.622 468.724 528.291 468.724Z" fill="black"/>
<path d="M465.419 500C474.088 500 481.116 493.017 481.116 484.404C481.116 475.79 474.088 468.808 465.419 468.808C456.75 468.808 449.722 475.79 449.722 484.404C449.722 493.017 456.75 500 465.419 500Z" fill="black"/>
<path d="M496.898 500C505.567 500 512.595 493.017 512.595 484.404C512.595 475.79 505.567 468.808 496.898 468.808C488.228 468.808 481.201 475.79 481.201 484.404C481.201 493.017 488.228 500 496.898 500Z" fill="black"/>
<path d="M528.291 500C536.96 500 543.988 493.017 543.988 484.404C543.988 475.79 536.96 468.808 528.291 468.808C519.622 468.808 512.594 475.79 512.594 484.404C512.594 493.017 519.622 500 528.291 500Z" fill="black"/>
<path d="M245.24 62.4687C253.909 62.4687 260.937 55.4861 260.937 46.8725C260.937 38.259 253.909 31.2764 245.24 31.2764C236.571 31.2764 229.543 38.259 229.543 46.8725C229.543 55.4861 236.571 62.4687 245.24 62.4687Z" fill="black"/>
<path d="M308.196 93.7446C316.866 93.7446 323.893 86.7619 323.893 78.1484C323.893 69.5349 316.866 62.5522 308.196 62.5522C299.527 62.5522 292.5 69.5349 292.5 78.1484C292.5 86.7619 299.527 93.7446 308.196 93.7446Z" fill="black"/>
<path d="M308.196 124.937C316.866 124.937 323.893 117.954 323.893 109.341C323.893 100.727 316.866 93.7446 308.196 93.7446C299.527 93.7446 292.5 100.727 292.5 109.341C292.5 117.954 299.527 124.937 308.196 124.937Z" fill="black"/>
<path d="M339.59 124.937C348.259 124.937 355.287 117.954 355.287 109.341C355.287 100.727 348.259 93.7446 339.59 93.7446C330.921 93.7446 323.893 100.727 323.893 109.341C323.893 117.954 330.921 124.937 339.59 124.937Z" fill="black"/>
<path d="M276.718 156.213C285.387 156.213 292.415 149.231 292.415 140.617C292.415 132.004 285.387 125.021 276.718 125.021C268.049 125.021 261.021 132.004 261.021 140.617C261.021 149.231 268.049 156.213 276.718 156.213Z" fill="black"/>
<path d="M308.196 156.213C316.866 156.213 323.893 149.231 323.893 140.617C323.893 132.004 316.866 125.021 308.196 125.021C299.527 125.021 292.5 132.004 292.5 140.617C292.5 149.231 299.527 156.213 308.196 156.213Z" fill="black"/>
<path d="M308.196 187.49C316.866 187.49 323.893 180.507 323.893 171.894C323.893 163.28 316.866 156.297 308.196 156.297C299.527 156.297 292.5 163.28 292.5 171.894C292.5 180.507 299.527 187.49 308.196 187.49Z" fill="black"/>
<path d="M308.196 218.682C316.866 218.682 323.893 211.699 323.893 203.086C323.893 194.472 316.866 187.49 308.196 187.49C299.527 187.49 292.5 194.472 292.5 203.086C292.5 211.699 299.527 218.682 308.196 218.682Z" fill="black"/>
<path d="M308.196 249.958C316.866 249.958 323.893 242.975 323.893 234.362C323.893 225.748 316.866 218.766 308.196 218.766C299.527 218.766 292.5 225.748 292.5 234.362C292.5 242.975 299.527 249.958 308.196 249.958Z" fill="black"/>
<path d="M339.59 312.427C348.259 312.427 355.287 305.444 355.287 296.831C355.287 288.217 348.259 281.234 339.59 281.234C330.921 281.234 323.893 288.217 323.893 296.831C323.893 305.444 330.921 312.427 339.59 312.427Z" fill="black"/>
<path d="M371.069 311.756C379.738 311.756 386.765 304.773 386.765 296.16C386.765 287.546 379.738 280.563 371.069 280.563C362.399 280.563 355.372 287.546 355.372 296.16C355.372 304.773 362.399 311.756 371.069 311.756Z" fill="black"/>
<path d="M402.547 311.756C411.216 311.756 418.244 304.773 418.244 296.16C418.244 287.546 411.216 280.563 402.547 280.563C393.878 280.563 386.85 287.546 386.85 296.16C386.85 304.773 393.878 311.756 402.547 311.756Z" fill="black"/>
<path d="M371.069 343.032C379.738 343.032 386.765 336.05 386.765 327.436C386.765 318.822 379.738 311.84 371.069 311.84C362.399 311.84 355.372 318.822 355.372 327.436C355.372 336.05 362.399 343.032 371.069 343.032Z" fill="black"/>
<path d="M402.547 343.032C411.216 343.032 418.244 336.05 418.244 327.436C418.244 318.822 411.216 311.84 402.547 311.84C393.878 311.84 386.85 318.822 386.85 327.436C386.85 336.05 393.878 343.032 402.547 343.032Z" fill="black"/>
<path d="M402.547 374.225C411.216 374.225 418.244 367.242 418.244 358.628C418.244 350.015 411.216 343.032 402.547 343.032C393.878 343.032 386.85 350.015 386.85 358.628C386.85 367.242 393.878 374.225 402.547 374.225Z" fill="black"/>
<path d="M402.547 405.5C411.216 405.5 418.244 398.518 418.244 389.904C418.244 381.291 411.216 374.308 402.547 374.308C393.878 374.308 386.85 381.291 386.85 389.904C386.85 398.518 393.878 405.5 402.547 405.5Z" fill="black"/>
<path d="M433.941 468.724C442.61 468.724 449.638 461.741 449.638 453.127C449.638 444.514 442.61 437.531 433.941 437.531C425.271 437.531 418.244 444.514 418.244 453.127C418.244 461.741 425.271 468.724 433.941 468.724Z" fill="black"/>
<path d="M433.941 500C442.61 500 449.638 493.017 449.638 484.404C449.638 475.79 442.61 468.808 433.941 468.808C425.271 468.808 418.244 475.79 418.244 484.404C418.244 493.017 425.271 500 433.941 500Z" fill="black"/>
<path d="M339.59 93.7446C348.259 93.7446 355.287 86.7619 355.287 78.1484C355.287 69.5349 348.259 62.5522 339.59 62.5522C330.921 62.5522 323.893 69.5349 323.893 78.1484C323.893 86.7619 330.921 93.7446 339.59 93.7446Z" fill="black"/>
<path d="M194.182 5.28271H170.468V25.7422H194.182V5.28271Z" fill="black"/>
<path d="M162.535 5.28271H138.821V25.7422H162.535V5.28271Z" fill="black"/>
<path d="M225.408 5.28271H201.693V25.7422H225.408V5.28271Z" fill="black"/>
<path d="M194.182 36.7266H170.468V57.1861H194.182V36.7266Z" fill="black"/>
<path d="M162.535 36.7266H138.821V57.1861H162.535V36.7266Z" fill="black"/>
<path d="M225.408 36.7266H201.693V57.1861H225.408V36.7266Z" fill="black"/>
<path d="M194.182 67.9189H170.468V88.3784H194.182V67.9189Z" fill="black"/>
<path d="M162.535 67.9189H138.821V88.3784H162.535V67.9189Z" fill="black"/>
<path d="M225.408 67.9189H201.693V88.3784H225.408V67.9189Z" fill="black"/>
<path d="M194.182 99.3628H170.468V119.822H194.182V99.3628Z" fill="black"/>
<path d="M162.535 99.3628H138.821V119.822H162.535V99.3628Z" fill="black"/>
<path d="M225.408 99.3628H201.693V119.822H225.408V99.3628Z" fill="black"/>
<path d="M194.182 130.387H170.468V150.847H194.182V130.387Z" fill="black"/>
<path d="M162.535 130.387H138.821V150.847H162.535V130.387Z" fill="black"/>
<path d="M225.408 130.387H201.693V150.847H225.408V130.387Z" fill="black"/>
<path d="M194.182 161.831H170.468V182.291H194.182V161.831Z" fill="black"/>
<path d="M162.535 161.831H138.821V182.291H162.535V161.831Z" fill="black"/>
<path d="M225.408 161.831H201.693V182.291H225.408V161.831Z" fill="black"/>
<path d="M194.182 192.94H170.468V213.399H194.182V192.94Z" fill="black"/>
<path d="M162.535 192.94H138.821V213.399H162.535V192.94Z" fill="black"/>
<path d="M225.408 192.94H201.693V213.399H225.408V192.94Z" fill="black"/>
<path d="M194.182 224.384H170.468V244.843H194.182V224.384Z" fill="black"/>
<path d="M162.535 224.384H138.821V244.843H162.535V224.384Z" fill="black"/>
<path d="M225.408 224.384H201.693V244.843H225.408V224.384Z" fill="black"/>
<path d="M194.182 255.408H170.468V275.868H194.182V255.408Z" fill="black"/>
<path d="M194.182 255.408H170.468V275.868H194.182V255.408Z" fill="black"/>
<path d="M162.535 255.408H138.821V275.868H162.535V255.408Z" fill="black"/>
<path d="M225.408 255.408H201.693V275.868H225.408V255.408Z" fill="black"/>
<path d="M194.182 286.601H170.468V307.06H194.182V286.601Z" fill="black"/>
<path d="M162.535 286.601H138.821V307.06H162.535V286.601Z" fill="black"/>
<path d="M225.408 286.601H201.693V307.06H225.408V286.601Z" fill="black"/>
<path d="M194.182 318.044H170.468V338.504H194.182V318.044Z" fill="black"/>
<path d="M162.535 318.044H138.821V338.504H162.535V318.044Z" fill="black"/>
<path d="M225.408 318.044H201.693V338.504H225.408V318.044Z" fill="black"/>
<path d="M194.182 349.069H170.468V369.529H194.182V349.069Z" fill="black"/>
<path d="M162.535 349.069H138.821V369.529H162.535V349.069Z" fill="black"/>
<path d="M225.408 349.069H201.693V369.529H225.408V349.069Z" fill="black"/>
<path d="M194.182 380.429H170.468V400.889H194.182V380.429Z" fill="black"/>
<path d="M162.535 380.429H138.821V400.889H162.535V380.429Z" fill="black"/>
<path d="M225.408 380.429H201.693V400.889H225.408V380.429Z" fill="black"/>
<path d="M194.182 411.622H170.468V432.081H194.182V411.622Z" fill="black"/>
<path d="M162.535 411.622H138.821V432.081H162.535V411.622Z" fill="black"/>
<path d="M225.408 411.622H201.693V432.081H225.408V411.622Z" fill="black"/>
<path d="M194.182 443.065H170.468V463.525H194.182V443.065Z" fill="black"/>
<path d="M162.535 443.065H138.821V463.525H162.535V443.065Z" fill="black"/>
<path d="M225.408 443.065H201.693V463.525H225.408V443.065Z" fill="black"/>
<path d="M194.182 474.258H170.468V494.717H194.182V474.258Z" fill="black"/>
<path d="M162.535 474.258H138.821V494.717H162.535V474.258Z" fill="black"/>
<path d="M225.408 474.258H201.693V494.717H225.408V474.258Z" fill="black"/>
<path d="M256.886 5.28271H233.172V25.7422H256.886V5.28271Z" fill="black"/>
<path d="M256.886 36.7266H233.172V57.1861H256.886V36.7266Z" fill="black"/>
<path d="M256.886 67.9189H233.172V88.3784H256.886V67.9189Z" fill="black"/>
<path d="M288.364 5.28271H264.65V25.7422H288.364V5.28271Z" fill="black"/>
<path d="M288.364 36.7266H264.65V57.1861H288.364V36.7266Z" fill="black"/>
<path d="M288.364 67.9189H264.65V88.3784H288.364V67.9189Z" fill="black"/>
<path d="M288.364 99.3628H264.65V119.822H288.364V99.3628Z" fill="black"/>
<path d="M288.364 130.387H264.65V150.847H288.364V130.387Z" fill="black"/>
<path d="M319.42 36.7266H295.706V57.1861H319.42V36.7266Z" fill="black"/>
<path d="M319.42 67.9189H295.706V88.3784H319.42V67.9189Z" fill="black"/>
<path d="M319.42 99.3628H295.706V119.822H319.42V99.3628Z" fill="black"/>
<path d="M319.42 130.387H295.706V150.847H319.42V130.387Z" fill="black"/>
<path d="M319.42 161.831H295.706V182.291H319.42V161.831Z" fill="black"/>
<path d="M319.42 192.94H295.706V213.399H319.42V192.94Z" fill="black"/>
<path d="M319.42 224.384H295.706V244.843H319.42V224.384Z" fill="black"/>
<path d="M351.236 67.9189H327.522V88.3784H351.236V67.9189Z" fill="black"/>
<path d="M351.236 99.3628H327.522V119.822H351.236V99.3628Z" fill="black"/>
<path d="M351.236 130.387H327.522V150.847H351.236V130.387Z" fill="black"/>
<path d="M351.236 161.831H327.522V182.291H351.236V161.831Z" fill="black"/>
<path d="M351.236 192.94H327.522V213.399H351.236V192.94Z" fill="black"/>
<path d="M351.236 224.384H327.522V244.843H351.236V224.384Z" fill="black"/>
<path d="M351.236 255.408H327.522V275.868H351.236V255.408Z" fill="black"/>
<path d="M351.236 286.601H327.522V307.06H351.236V286.601Z" fill="black"/>
<path d="M351.236 318.044H327.522V338.504H351.236V318.044Z" fill="black"/>
<path d="M382.715 161.831H359V182.291H382.715V161.831Z" fill="black"/>
<path d="M382.715 192.94H359V213.399H382.715V192.94Z" fill="black"/>
<path d="M382.715 224.384H359V244.843H382.715V224.384Z" fill="black"/>
<path d="M382.715 255.408H359V275.868H382.715V255.408Z" fill="black"/>
<path d="M382.715 286.601H359V307.06H382.715V286.601Z" fill="black"/>
<path d="M382.715 318.044H359V338.504H382.715V318.044Z" fill="black"/>
<path d="M382.715 349.069H359V369.529H382.715V349.069Z" fill="black"/>
<path d="M382.715 380.429H359V400.889H382.715V380.429Z" fill="black"/>
<path d="M382.715 411.622H359V432.081H382.715V411.622Z" fill="black"/>
<path d="M414.109 286.601H390.395V307.06H414.109V286.601Z" fill="black"/>
<path d="M414.109 318.044H390.395V338.504H414.109V318.044Z" fill="black"/>
<path d="M414.109 349.069H390.395V369.529H414.109V349.069Z" fill="black"/>
<path d="M414.109 380.429H390.395V400.889H414.109V380.429Z" fill="black"/>
<path d="M414.109 411.622H390.395V432.081H414.109V411.622Z" fill="black"/>
<path d="M414.109 443.065H390.395V463.525H414.109V443.065Z" fill="black"/>
<path d="M445.587 380.429H421.873V400.889H445.587V380.429Z" fill="black"/>
<path d="M445.587 411.622H421.873V432.081H445.587V411.622Z" fill="black"/>
<path d="M445.587 443.065H421.873V463.525H445.587V443.065Z" fill="black"/>
<path d="M445.587 474.258H421.873V494.717H445.587V474.258Z" fill="black"/>
<path d="M509.134 5.28271H485.42V25.7422H509.134V5.28271Z" fill="black"/>
<path d="M477.487 5.28271H453.773V25.7422H477.487V5.28271Z" fill="black"/>
<path d="M540.359 5.28271H516.645V25.7422H540.359V5.28271Z" fill="black"/>
<path d="M509.134 36.7266H485.42V57.1861H509.134V36.7266Z" fill="black"/>
<path d="M477.487 36.7266H453.773V57.1861H477.487V36.7266Z" fill="black"/>
<path d="M540.359 36.7266H516.645V57.1861H540.359V36.7266Z" fill="black"/>
<path d="M509.134 67.9189H485.42V88.3784H509.134V67.9189Z" fill="black"/>
<path d="M477.487 67.9189H453.773V88.3784H477.487V67.9189Z" fill="black"/>
<path d="M540.359 67.9189H516.645V88.3784H540.359V67.9189Z" fill="black"/>
<path d="M509.134 99.3628H485.42V119.822H509.134V99.3628Z" fill="black"/>
<path d="M477.487 99.3628H453.773V119.822H477.487V99.3628Z" fill="black"/>
<path d="M540.359 99.3628H516.645V119.822H540.359V99.3628Z" fill="black"/>
<path d="M509.134 130.387H485.42V150.847H509.134V130.387Z" fill="black"/>
<path d="M477.487 130.387H453.773V150.847H477.487V130.387Z" fill="black"/>
<path d="M540.359 130.387H516.645V150.847H540.359V130.387Z" fill="black"/>
<path d="M509.134 161.831H485.42V182.291H509.134V161.831Z" fill="black"/>
<path d="M477.487 161.831H453.773V182.291H477.487V161.831Z" fill="black"/>
<path d="M540.359 161.831H516.645V182.291H540.359V161.831Z" fill="black"/>
<path d="M509.134 192.94H485.42V213.399H509.134V192.94Z" fill="black"/>
<path d="M477.487 192.94H453.773V213.399H477.487V192.94Z" fill="black"/>
<path d="M540.359 192.94H516.645V213.399H540.359V192.94Z" fill="black"/>
<path d="M509.134 224.384H485.42V244.843H509.134V224.384Z" fill="black"/>
<path d="M477.487 224.384H453.773V244.843H477.487V224.384Z" fill="black"/>
<path d="M540.359 224.384H516.645V244.843H540.359V224.384Z" fill="black"/>
<path d="M509.134 255.408H485.42V275.868H509.134V255.408Z" fill="black"/>
<path d="M509.134 255.408H485.42V275.868H509.134V255.408Z" fill="black"/>
<path d="M477.487 255.408H453.773V275.868H477.487V255.408Z" fill="black"/>
<path d="M540.359 255.408H516.645V275.868H540.359V255.408Z" fill="black"/>
<path d="M509.134 286.601H485.42V307.06H509.134V286.601Z" fill="black"/>
<path d="M477.487 286.601H453.773V307.06H477.487V286.601Z" fill="black"/>
<path d="M540.359 286.601H516.645V307.06H540.359V286.601Z" fill="black"/>
<path d="M509.134 318.044H485.42V338.504H509.134V318.044Z" fill="black"/>
<path d="M477.487 318.044H453.773V338.504H477.487V318.044Z" fill="black"/>
<path d="M540.359 318.044H516.645V338.504H540.359V318.044Z" fill="black"/>
<path d="M509.134 349.069H485.42V369.529H509.134V349.069Z" fill="black"/>
<path d="M477.487 349.069H453.773V369.529H477.487V349.069Z" fill="black"/>
<path d="M540.359 349.069H516.645V369.529H540.359V349.069Z" fill="black"/>
<path d="M509.134 380.429H485.42V400.889H509.134V380.429Z" fill="black"/>
<path d="M477.487 380.429H453.773V400.889H477.487V380.429Z" fill="black"/>
<path d="M540.359 380.429H516.645V400.889H540.359V380.429Z" fill="black"/>
<path d="M509.134 411.622H485.42V432.081H509.134V411.622Z" fill="black"/>
<path d="M477.487 411.622H453.773V432.081H477.487V411.622Z" fill="black"/>
<path d="M540.359 411.622H516.645V432.081H540.359V411.622Z" fill="black"/>
<path d="M509.134 443.065H485.42V463.525H509.134V443.065Z" fill="black"/>
<path d="M477.487 443.065H453.773V463.525H477.487V443.065Z" fill="black"/>
<path d="M540.359 443.065H516.645V463.525H540.359V443.065Z" fill="black"/>
<path d="M509.134 474.258H485.42V494.717H509.134V474.258Z" fill="black"/>
<path d="M477.487 474.258H453.773V494.717H477.487V474.258Z" fill="black"/>
<path d="M540.359 474.258H516.645V494.717H540.359V474.258Z" fill="black"/>
<path d="M62.872 15.5962C62.872 24.2328 55.8676 31.1924 47.1752 31.1924C38.4828 31.1924 31.4781 38.2358 31.4781 46.8724C31.4781 55.509 24.3892 62.4686 15.6968 62.4686C7.00443 62.4686 0 55.509 0 46.8724C0 38.2358 7.00443 31.1924 15.6968 31.1924C24.3892 31.1924 31.4781 24.2328 31.4781 15.5962C31.4781 6.95958 38.4828 0 47.1752 0C55.8676 0 62.872 6.95958 62.872 15.5962Z" fill="black"/>
<path d="M94.3504 46.8724C94.3504 55.509 87.2614 62.4686 78.6533 62.4686C70.0453 62.4686 62.872 69.512 62.872 78.0648C62.872 86.6175 55.8676 93.7448 47.1752 93.7448C38.4828 93.7448 31.4781 100.704 31.4781 109.341C31.4781 117.978 24.3892 124.937 15.6968 124.937C7.00443 124.937 0 117.978 0 109.341C0 100.704 7.00443 93.7448 15.6968 93.7448C24.3892 93.7448 31.4781 86.7014 31.4781 78.0648C31.4781 69.4282 38.4828 62.4686 47.1752 62.4686C55.8676 62.4686 62.872 55.509 62.872 46.8724C62.872 38.2358 69.9609 31.1924 78.6533 31.1924C87.3457 31.1924 94.3504 38.2358 94.3504 46.8724Z" fill="black"/>
<path d="M94.3504 109.341C94.3504 117.977 87.2614 124.937 78.6533 124.937C70.0453 124.937 62.872 131.98 62.872 140.617C62.872 149.254 55.8676 156.213 47.1752 156.213C38.4828 156.213 31.4781 163.257 31.4781 171.893C31.4781 180.53 24.3892 187.489 15.6968 187.489C7.00443 187.489 0 180.446 0 171.893C0 163.34 7.00443 156.213 15.6968 156.213C24.3892 156.213 31.4781 149.254 31.4781 140.617C31.4781 131.98 38.4828 124.937 47.1752 124.937C55.8676 124.937 62.872 117.977 62.872 109.341C62.872 100.704 69.9609 93.7446 78.6533 93.7446C87.3457 93.7446 94.3504 100.704 94.3504 109.341Z" fill="black"/>
<path d="M94.3504 171.893C94.3504 180.446 87.2614 187.49 78.6533 187.49C70.0453 187.49 62.872 194.449 62.872 203.086C62.872 211.722 55.8676 218.766 47.1752 218.766C38.4828 218.766 31.4781 225.725 31.4781 234.362C31.4781 242.999 24.3892 249.958 15.6968 249.958C7.00443 249.958 0 242.999 0 234.362C0 225.725 7.00443 218.766 15.6968 218.766C24.3892 218.766 31.4781 211.722 31.4781 203.086C31.4781 194.449 38.4828 187.49 47.1752 187.49C55.8676 187.49 62.872 180.446 62.872 171.893C62.872 163.341 69.9609 156.213 78.6533 156.213C87.3457 156.213 94.3504 163.257 94.3504 171.893Z" fill="black"/>
<path d="M94.3504 234.362C94.3504 242.998 87.2614 249.958 78.6533 249.958C70.0453 249.958 62.872 257.001 62.872 265.638C62.872 274.275 55.8676 281.234 47.1752 281.234C38.4828 281.234 31.4781 288.194 31.4781 296.83C31.4781 305.467 24.3892 312.51 15.6968 312.51C7.00443 312.51 0 305.467 0 296.83C0 288.194 7.00443 281.234 15.6968 281.234C24.3892 281.234 31.4781 274.191 31.4781 265.638C31.4781 257.085 38.4828 249.958 47.1752 249.958C55.8676 249.958 62.872 242.998 62.872 234.362C62.872 225.725 69.9609 218.766 78.6533 218.766C87.3457 218.766 94.3504 225.725 94.3504 234.362Z" fill="black"/>
<path d="M94.3504 296.831C94.3504 305.467 87.2614 312.511 78.6533 312.511C70.0453 312.511 62.872 319.47 62.872 328.107C62.872 336.743 55.8676 343.703 47.1752 343.703C38.4828 343.703 31.4781 350.746 31.4781 359.383C31.4781 368.02 24.3892 374.979 15.6968 374.979C7.00443 374.979 0 368.02 0 359.383C0 350.746 7.00443 343.703 15.6968 343.703C24.3892 343.703 31.4781 336.743 31.4781 328.107C31.4781 319.47 38.4828 312.511 47.1752 312.511C55.8676 312.511 62.872 305.467 62.872 296.831C62.872 288.194 69.9609 281.234 78.6533 281.234C87.3457 281.234 94.3504 288.194 94.3504 296.831Z" fill="black"/>
<path d="M94.3504 359.383C94.3504 368.019 87.2614 374.979 78.6533 374.979C70.0453 374.979 62.872 381.938 62.872 390.575C62.872 399.212 55.8676 406.255 47.1752 406.255C38.4828 406.255 31.4781 413.215 31.4781 421.851C31.4781 430.488 24.3892 437.447 15.6968 437.447C7.00443 437.447 0 430.488 0 421.851C0 413.215 7.00443 406.255 15.6968 406.255C24.3892 406.255 31.4781 399.212 31.4781 390.575C31.4781 381.938 38.4828 374.979 47.1752 374.979C55.8676 374.979 62.872 368.019 62.872 359.383C62.872 350.746 69.9609 343.703 78.6533 343.703C87.3457 343.703 94.3504 350.746 94.3504 359.383Z" fill="black"/>
<path d="M94.3504 421.852C94.3504 430.488 87.2614 437.448 78.6533 437.448C70.0453 437.448 62.872 444.491 62.872 453.128C62.872 461.764 55.8676 468.724 47.1752 468.724C38.4828 468.724 31.4781 475.683 31.4781 484.32C31.4781 492.957 24.3892 500 15.6968 500C7.00443 500 0 492.957 0 484.32C0 475.683 7.00443 468.724 15.6968 468.724C24.3892 468.724 31.4781 461.764 31.4781 453.128C31.4781 444.491 38.4828 437.448 47.1752 437.448C55.8676 437.448 62.872 430.488 62.872 421.852C62.872 413.215 69.9609 406.255 78.6533 406.255C87.3457 406.255 94.3504 413.215 94.3504 421.852Z" fill="black"/>
<path d="M78.5692 499.916C87.2383 499.916 94.266 492.933 94.266 484.32C94.266 475.706 87.2383 468.724 78.5692 468.724C69.9 468.724 62.8721 475.706 62.8721 484.32C62.8721 492.933 69.9 499.916 78.5692 499.916Z" fill="black"/>
</svg>
