<svg width="547" height="506" viewBox="0 0 547 506" fill="none" xmlns="http://www.w3.org/2000/svg">
<path d="M152.92 34.1924C161.534 34.1924 168.517 27.2097 168.517 18.5962C168.517 9.98265 161.534 3 152.92 3C144.307 3 137.324 9.98265 137.324 18.5962C137.324 27.2097 144.307 34.1924 152.92 34.1924Z" stroke="black" stroke-width="5" stroke-miterlimit="10"/>
<path d="M184.197 34.1924C192.81 34.1924 199.793 27.2097 199.793 18.5962C199.793 9.98265 192.81 3 184.197 3C175.583 3 168.601 9.98265 168.601 18.5962C168.601 27.2097 175.583 34.1924 184.197 34.1924Z" stroke="black" stroke-width="5" stroke-miterlimit="10"/>
<path d="M215.473 34.1924C224.087 34.1924 231.069 27.2097 231.069 18.5962C231.069 9.98265 224.087 3 215.473 3C206.86 3 199.877 9.98265 199.877 18.5962C199.877 27.2097 206.86 34.1924 215.473 34.1924Z" stroke="black" stroke-width="5" stroke-miterlimit="10"/>
<path d="M246.666 34.1924C255.279 34.1924 262.262 27.2097 262.262 18.5962C262.262 9.98265 255.279 3 246.666 3C238.052 3 231.069 9.98265 231.069 18.5962C231.069 27.2097 238.052 34.1924 246.666 34.1924Z" stroke="black" stroke-width="5" stroke-miterlimit="10"/>
<path d="M277.941 34.1924C286.554 34.1924 293.537 27.2097 293.537 18.5962C293.537 9.98265 286.554 3 277.941 3C269.327 3 262.345 9.98265 262.345 18.5962C262.345 27.2097 269.327 34.1924 277.941 34.1924Z" stroke="black" stroke-width="5" stroke-miterlimit="10"/>
<path d="M152.92 65.4687C161.534 65.4687 168.517 58.486 168.517 49.8725C168.517 41.259 161.534 34.2764 152.92 34.2764C144.307 34.2764 137.324 41.259 137.324 49.8725C137.324 58.486 144.307 65.4687 152.92 65.4687Z" stroke="black" stroke-width="5" stroke-miterlimit="10"/>
<path d="M184.197 65.4687C192.81 65.4687 199.793 58.486 199.793 49.8725C199.793 41.259 192.81 34.2764 184.197 34.2764C175.583 34.2764 168.601 41.259 168.601 49.8725C168.601 58.486 175.583 65.4687 184.197 65.4687Z" stroke="black" stroke-width="5" stroke-miterlimit="10"/>
<path d="M215.473 65.4687C224.087 65.4687 231.069 58.486 231.069 49.8725C231.069 41.259 224.087 34.2764 215.473 34.2764C206.86 34.2764 199.877 41.259 199.877 49.8725C199.877 58.486 206.86 65.4687 215.473 65.4687Z" stroke="black" stroke-width="5" stroke-miterlimit="10"/>
<path d="M152.92 96.745C161.534 96.745 168.517 89.7624 168.517 81.1489C168.517 72.5354 161.534 65.5527 152.92 65.5527C144.307 65.5527 137.324 72.5354 137.324 81.1489C137.324 89.7624 144.307 96.745 152.92 96.745Z" stroke="black" stroke-width="5" stroke-miterlimit="10"/>
<path d="M184.197 96.745C192.81 96.745 199.793 89.7624 199.793 81.1489C199.793 72.5354 192.81 65.5527 184.197 65.5527C175.583 65.5527 168.601 72.5354 168.601 81.1489C168.601 89.7624 175.583 96.745 184.197 96.745Z" stroke="black" stroke-width="5" stroke-miterlimit="10"/>
<path d="M215.473 96.745C224.087 96.745 231.069 89.7624 231.069 81.1489C231.069 72.5354 224.087 65.5527 215.473 65.5527C206.86 65.5527 199.877 72.5354 199.877 81.1489C199.877 89.7624 206.86 96.745 215.473 96.745Z" stroke="black" stroke-width="5" stroke-miterlimit="10"/>
<path d="M152.92 127.937C161.534 127.937 168.517 120.955 168.517 112.341C168.517 103.728 161.534 96.7451 152.92 96.7451C144.307 96.7451 137.324 103.728 137.324 112.341C137.324 120.955 144.307 127.937 152.92 127.937Z" stroke="black" stroke-width="5" stroke-miterlimit="10"/>
<path d="M184.197 127.937C192.81 127.937 199.793 120.955 199.793 112.341C199.793 103.728 192.81 96.7451 184.197 96.7451C175.583 96.7451 168.601 103.728 168.601 112.341C168.601 120.955 175.583 127.937 184.197 127.937Z" stroke="black" stroke-width="5" stroke-miterlimit="10"/>
<path d="M215.473 127.937C224.087 127.937 231.069 120.955 231.069 112.341C231.069 103.728 224.087 96.7451 215.473 96.7451C206.86 96.7451 199.877 103.728 199.877 112.341C199.877 120.955 206.86 127.937 215.473 127.937Z" stroke="black" stroke-width="5" stroke-miterlimit="10"/>
<path d="M152.92 159.213C161.534 159.213 168.517 152.23 168.517 143.617C168.517 135.003 161.534 128.021 152.92 128.021C144.307 128.021 137.324 135.003 137.324 143.617C137.324 152.23 144.307 159.213 152.92 159.213Z" stroke="black" stroke-width="5" stroke-miterlimit="10"/>
<path d="M184.197 159.213C192.81 159.213 199.793 152.23 199.793 143.617C199.793 135.003 192.81 128.021 184.197 128.021C175.583 128.021 168.601 135.003 168.601 143.617C168.601 152.23 175.583 159.213 184.197 159.213Z" stroke="black" stroke-width="5" stroke-miterlimit="10"/>
<path d="M215.473 159.213C224.087 159.213 231.069 152.23 231.069 143.617C231.069 135.003 224.087 128.021 215.473 128.021C206.86 128.021 199.877 135.003 199.877 143.617C199.877 152.23 206.86 159.213 215.473 159.213Z" stroke="black" stroke-width="5" stroke-miterlimit="10"/>
<path d="M152.92 190.489C161.534 190.489 168.517 183.507 168.517 174.893C168.517 166.28 161.534 159.297 152.92 159.297C144.307 159.297 137.324 166.28 137.324 174.893C137.324 183.507 144.307 190.489 152.92 190.489Z" stroke="black" stroke-width="5" stroke-miterlimit="10"/>
<path d="M184.197 190.489C192.81 190.489 199.793 183.507 199.793 174.893C199.793 166.28 192.81 159.297 184.197 159.297C175.583 159.297 168.601 166.28 168.601 174.893C168.601 183.507 175.583 190.489 184.197 190.489Z" stroke="black" stroke-width="5" stroke-miterlimit="10"/>
<path d="M215.473 190.489C224.087 190.489 231.069 183.507 231.069 174.893C231.069 166.28 224.087 159.297 215.473 159.297C206.86 159.297 199.877 166.28 199.877 174.893C199.877 183.507 206.86 190.489 215.473 190.489Z" stroke="black" stroke-width="5" stroke-miterlimit="10"/>
<path d="M152.92 221.682C161.534 221.682 168.517 214.699 168.517 206.085C168.517 197.472 161.534 190.489 152.92 190.489C144.307 190.489 137.324 197.472 137.324 206.085C137.324 214.699 144.307 221.682 152.92 221.682Z" stroke="black" stroke-width="5" stroke-miterlimit="10"/>
<path d="M184.197 221.682C192.81 221.682 199.793 214.699 199.793 206.085C199.793 197.472 192.81 190.489 184.197 190.489C175.583 190.489 168.601 197.472 168.601 206.085C168.601 214.699 175.583 221.682 184.197 221.682Z" stroke="black" stroke-width="5" stroke-miterlimit="10"/>
<path d="M215.473 221.682C224.087 221.682 231.069 214.699 231.069 206.085C231.069 197.472 224.087 190.489 215.473 190.489C206.86 190.489 199.877 197.472 199.877 206.085C199.877 214.699 206.86 221.682 215.473 221.682Z" stroke="black" stroke-width="5" stroke-miterlimit="10"/>
<path d="M152.92 252.958C161.534 252.958 168.517 245.975 168.517 237.362C168.517 228.748 161.534 221.766 152.92 221.766C144.307 221.766 137.324 228.748 137.324 237.362C137.324 245.975 144.307 252.958 152.92 252.958Z" stroke="black" stroke-width="5" stroke-miterlimit="10"/>
<path d="M184.197 252.958C192.81 252.958 199.793 245.975 199.793 237.362C199.793 228.748 192.81 221.766 184.197 221.766C175.583 221.766 168.601 228.748 168.601 237.362C168.601 245.975 175.583 252.958 184.197 252.958Z" stroke="black" stroke-width="5" stroke-miterlimit="10"/>
<path d="M215.473 252.958C224.087 252.958 231.069 245.975 231.069 237.362C231.069 228.748 224.087 221.766 215.473 221.766C206.86 221.766 199.877 228.748 199.877 237.362C199.877 245.975 206.86 252.958 215.473 252.958Z" stroke="black" stroke-width="5" stroke-miterlimit="10"/>
<path d="M152.92 284.234C161.534 284.234 168.517 277.252 168.517 268.638C168.517 260.025 161.534 253.042 152.92 253.042C144.307 253.042 137.324 260.025 137.324 268.638C137.324 277.252 144.307 284.234 152.92 284.234Z" stroke="black" stroke-width="5" stroke-miterlimit="10"/>
<path d="M184.197 284.234C192.81 284.234 199.793 277.252 199.793 268.638C199.793 260.025 192.81 253.042 184.197 253.042C175.583 253.042 168.601 260.025 168.601 268.638C168.601 277.252 175.583 284.234 184.197 284.234Z" stroke="black" stroke-width="5" stroke-miterlimit="10"/>
<path d="M215.473 284.234C224.087 284.234 231.069 277.252 231.069 268.638C231.069 260.025 224.087 253.042 215.473 253.042C206.86 253.042 199.877 260.025 199.877 268.638C199.877 277.252 206.86 284.234 215.473 284.234Z" stroke="black" stroke-width="5" stroke-miterlimit="10"/>
<path d="M152.92 315.427C161.534 315.427 168.517 308.444 168.517 299.831C168.517 291.217 161.534 284.234 152.92 284.234C144.307 284.234 137.324 291.217 137.324 299.831C137.324 308.444 144.307 315.427 152.92 315.427Z" stroke="black" stroke-width="5" stroke-miterlimit="10"/>
<path d="M184.197 315.427C192.81 315.427 199.793 308.444 199.793 299.831C199.793 291.217 192.81 284.234 184.197 284.234C175.583 284.234 168.601 291.217 168.601 299.831C168.601 308.444 175.583 315.427 184.197 315.427Z" stroke="black" stroke-width="5" stroke-miterlimit="10"/>
<path d="M215.473 315.427C224.087 315.427 231.069 308.444 231.069 299.831C231.069 291.217 224.087 284.234 215.473 284.234C206.86 284.234 199.877 291.217 199.877 299.831C199.877 308.444 206.86 315.427 215.473 315.427Z" stroke="black" stroke-width="5" stroke-miterlimit="10"/>
<path d="M152.92 346.703C161.534 346.703 168.517 339.72 168.517 331.107C168.517 322.493 161.534 315.511 152.92 315.511C144.307 315.511 137.324 322.493 137.324 331.107C137.324 339.72 144.307 346.703 152.92 346.703Z" stroke="black" stroke-width="5" stroke-miterlimit="10"/>
<path d="M184.197 346.703C192.81 346.703 199.793 339.72 199.793 331.107C199.793 322.493 192.81 315.511 184.197 315.511C175.583 315.511 168.601 322.493 168.601 331.107C168.601 339.72 175.583 346.703 184.197 346.703Z" stroke="black" stroke-width="5" stroke-miterlimit="10"/>
<path d="M215.473 346.703C224.087 346.703 231.069 339.72 231.069 331.107C231.069 322.493 224.087 315.511 215.473 315.511C206.86 315.511 199.877 322.493 199.877 331.107C199.877 339.72 206.86 346.703 215.473 346.703Z" stroke="black" stroke-width="5" stroke-miterlimit="10"/>
<path d="M152.92 377.979C161.534 377.979 168.517 370.997 168.517 362.383C168.517 353.77 161.534 346.787 152.92 346.787C144.307 346.787 137.324 353.77 137.324 362.383C137.324 370.997 144.307 377.979 152.92 377.979Z" stroke="black" stroke-width="5" stroke-miterlimit="10"/>
<path d="M184.197 377.979C192.81 377.979 199.793 370.997 199.793 362.383C199.793 353.77 192.81 346.787 184.197 346.787C175.583 346.787 168.601 353.77 168.601 362.383C168.601 370.997 175.583 377.979 184.197 377.979Z" stroke="black" stroke-width="5" stroke-miterlimit="10"/>
<path d="M215.473 377.979C224.087 377.979 231.069 370.997 231.069 362.383C231.069 353.77 224.087 346.787 215.473 346.787C206.86 346.787 199.877 353.77 199.877 362.383C199.877 370.997 206.86 377.979 215.473 377.979Z" stroke="black" stroke-width="5" stroke-miterlimit="10"/>
<path d="M152.92 409.172C161.534 409.172 168.517 402.189 168.517 393.576C168.517 384.962 161.534 377.979 152.92 377.979C144.307 377.979 137.324 384.962 137.324 393.576C137.324 402.189 144.307 409.172 152.92 409.172Z" stroke="black" stroke-width="5" stroke-miterlimit="10"/>
<path d="M184.197 409.172C192.81 409.172 199.793 402.189 199.793 393.576C199.793 384.962 192.81 377.979 184.197 377.979C175.583 377.979 168.601 384.962 168.601 393.576C168.601 402.189 175.583 409.172 184.197 409.172Z" stroke="black" stroke-width="5" stroke-miterlimit="10"/>
<path d="M215.473 409.172C224.087 409.172 231.069 402.189 231.069 393.576C231.069 384.962 224.087 377.979 215.473 377.979C206.86 377.979 199.877 384.962 199.877 393.576C199.877 402.189 206.86 409.172 215.473 409.172Z" stroke="black" stroke-width="5" stroke-miterlimit="10"/>
<path d="M152.92 440.447C161.534 440.447 168.517 433.465 168.517 424.851C168.517 416.238 161.534 409.255 152.92 409.255C144.307 409.255 137.324 416.238 137.324 424.851C137.324 433.465 144.307 440.447 152.92 440.447Z" stroke="black" stroke-width="5" stroke-miterlimit="10"/>
<path d="M184.197 440.447C192.81 440.447 199.793 433.465 199.793 424.851C199.793 416.238 192.81 409.255 184.197 409.255C175.583 409.255 168.601 416.238 168.601 424.851C168.601 433.465 175.583 440.447 184.197 440.447Z" stroke="black" stroke-width="5" stroke-miterlimit="10"/>
<path d="M215.473 440.447C224.087 440.447 231.069 433.465 231.069 424.851C231.069 416.238 224.087 409.255 215.473 409.255C206.86 409.255 199.877 416.238 199.877 424.851C199.877 433.465 206.86 440.447 215.473 440.447Z" stroke="black" stroke-width="5" stroke-miterlimit="10"/>
<path d="M152.92 471.724C161.534 471.724 168.517 464.741 168.517 456.127C168.517 447.514 161.534 440.531 152.92 440.531C144.307 440.531 137.324 447.514 137.324 456.127C137.324 464.741 144.307 471.724 152.92 471.724Z" stroke="black" stroke-width="5" stroke-miterlimit="10"/>
<path d="M184.197 471.724C192.81 471.724 199.793 464.741 199.793 456.127C199.793 447.514 192.81 440.531 184.197 440.531C175.583 440.531 168.601 447.514 168.601 456.127C168.601 464.741 175.583 471.724 184.197 471.724Z" stroke="black" stroke-width="5" stroke-miterlimit="10"/>
<path d="M215.473 471.724C224.087 471.724 231.069 464.741 231.069 456.127C231.069 447.514 224.087 440.531 215.473 440.531C206.86 440.531 199.877 447.514 199.877 456.127C199.877 464.741 206.86 471.724 215.473 471.724Z" stroke="black" stroke-width="5" stroke-miterlimit="10"/>
<path d="M152.92 503C161.534 503 168.517 496.017 168.517 487.404C168.517 478.79 161.534 471.808 152.92 471.808C144.307 471.808 137.324 478.79 137.324 487.404C137.324 496.017 144.307 503 152.92 503Z" stroke="black" stroke-width="5" stroke-miterlimit="10"/>
<path d="M184.197 503C192.81 503 199.793 496.017 199.793 487.404C199.793 478.79 192.81 471.808 184.197 471.808C175.583 471.808 168.601 478.79 168.601 487.404C168.601 496.017 175.583 503 184.197 503Z" stroke="black" stroke-width="5" stroke-miterlimit="10"/>
<path d="M215.473 503C224.087 503 231.069 496.017 231.069 487.404C231.069 478.79 224.087 471.808 215.473 471.808C206.86 471.808 199.877 478.79 199.877 487.404C199.877 496.017 206.86 503 215.473 503Z" stroke="black" stroke-width="5" stroke-miterlimit="10"/>
<path d="M465.431 34.1924C474.045 34.1924 481.027 27.2097 481.027 18.5962C481.027 9.98265 474.045 3 465.431 3C456.818 3 449.835 9.98265 449.835 18.5962C449.835 27.2097 456.818 34.1924 465.431 34.1924Z" stroke="black" stroke-width="5" stroke-miterlimit="10"/>
<path d="M496.708 34.1924C505.321 34.1924 512.304 27.2097 512.304 18.5962C512.304 9.98265 505.321 3 496.708 3C488.094 3 481.111 9.98265 481.111 18.5962C481.111 27.2097 488.094 34.1924 496.708 34.1924Z" stroke="black" stroke-width="5" stroke-miterlimit="10"/>
<path d="M527.984 34.1924C536.597 34.1924 543.58 27.2097 543.58 18.5962C543.58 9.98265 536.597 3 527.984 3C519.37 3 512.388 9.98265 512.388 18.5962C512.388 27.2097 519.37 34.1924 527.984 34.1924Z" stroke="black" stroke-width="5" stroke-miterlimit="10"/>
<path d="M465.431 65.4687C474.045 65.4687 481.027 58.486 481.027 49.8725C481.027 41.259 474.045 34.2764 465.431 34.2764C456.818 34.2764 449.835 41.259 449.835 49.8725C449.835 58.486 456.818 65.4687 465.431 65.4687Z" stroke="black" stroke-width="5" stroke-miterlimit="10"/>
<path d="M496.708 65.4687C505.321 65.4687 512.304 58.486 512.304 49.8725C512.304 41.259 505.321 34.2764 496.708 34.2764C488.094 34.2764 481.111 41.259 481.111 49.8725C481.111 58.486 488.094 65.4687 496.708 65.4687Z" stroke="black" stroke-width="5" stroke-miterlimit="10"/>
<path d="M527.984 65.4687C536.597 65.4687 543.58 58.486 543.58 49.8725C543.58 41.259 536.597 34.2764 527.984 34.2764C519.37 34.2764 512.388 41.259 512.388 49.8725C512.388 58.486 519.37 65.4687 527.984 65.4687Z" stroke="black" stroke-width="5" stroke-miterlimit="10"/>
<path d="M465.431 96.745C474.045 96.745 481.027 89.7624 481.027 81.1489C481.027 72.5354 474.045 65.5527 465.431 65.5527C456.818 65.5527 449.835 72.5354 449.835 81.1489C449.835 89.7624 456.818 96.745 465.431 96.745Z" stroke="black" stroke-width="5" stroke-miterlimit="10"/>
<path d="M496.708 96.745C505.321 96.745 512.304 89.7624 512.304 81.1489C512.304 72.5354 505.321 65.5527 496.708 65.5527C488.094 65.5527 481.111 72.5354 481.111 81.1489C481.111 89.7624 488.094 96.745 496.708 96.745Z" stroke="black" stroke-width="5" stroke-miterlimit="10"/>
<path d="M527.984 96.745C536.597 96.745 543.58 89.7624 543.58 81.1489C543.58 72.5354 536.597 65.5527 527.984 65.5527C519.37 65.5527 512.388 72.5354 512.388 81.1489C512.388 89.7624 519.37 96.745 527.984 96.745Z" stroke="black" stroke-width="5" stroke-miterlimit="10"/>
<path d="M465.431 127.937C474.045 127.937 481.027 120.955 481.027 112.341C481.027 103.728 474.045 96.7451 465.431 96.7451C456.818 96.7451 449.835 103.728 449.835 112.341C449.835 120.955 456.818 127.937 465.431 127.937Z" stroke="black" stroke-width="5" stroke-miterlimit="10"/>
<path d="M496.708 127.937C505.321 127.937 512.304 120.955 512.304 112.341C512.304 103.728 505.321 96.7451 496.708 96.7451C488.094 96.7451 481.111 103.728 481.111 112.341C481.111 120.955 488.094 127.937 496.708 127.937Z" stroke="black" stroke-width="5" stroke-miterlimit="10"/>
<path d="M527.984 127.937C536.597 127.937 543.58 120.955 543.58 112.341C543.58 103.728 536.597 96.7451 527.984 96.7451C519.37 96.7451 512.388 103.728 512.388 112.341C512.388 120.955 519.37 127.937 527.984 127.937Z" stroke="black" stroke-width="5" stroke-miterlimit="10"/>
<path d="M465.431 159.213C474.045 159.213 481.027 152.23 481.027 143.617C481.027 135.003 474.045 128.021 465.431 128.021C456.818 128.021 449.835 135.003 449.835 143.617C449.835 152.23 456.818 159.213 465.431 159.213Z" stroke="black" stroke-width="5" stroke-miterlimit="10"/>
<path d="M496.708 159.213C505.321 159.213 512.304 152.23 512.304 143.617C512.304 135.003 505.321 128.021 496.708 128.021C488.094 128.021 481.111 135.003 481.111 143.617C481.111 152.23 488.094 159.213 496.708 159.213Z" stroke="black" stroke-width="5" stroke-miterlimit="10"/>
<path d="M527.984 159.213C536.597 159.213 543.58 152.23 543.58 143.617C543.58 135.003 536.597 128.021 527.984 128.021C519.37 128.021 512.388 135.003 512.388 143.617C512.388 152.23 519.37 159.213 527.984 159.213Z" stroke="black" stroke-width="5" stroke-miterlimit="10"/>
<path d="M465.431 190.489C474.045 190.489 481.027 183.507 481.027 174.893C481.027 166.28 474.045 159.297 465.431 159.297C456.818 159.297 449.835 166.28 449.835 174.893C449.835 183.507 456.818 190.489 465.431 190.489Z" stroke="black" stroke-width="5" stroke-miterlimit="10"/>
<path d="M496.708 190.489C505.321 190.489 512.304 183.507 512.304 174.893C512.304 166.28 505.321 159.297 496.708 159.297C488.094 159.297 481.111 166.28 481.111 174.893C481.111 183.507 488.094 190.489 496.708 190.489Z" stroke="black" stroke-width="5" stroke-miterlimit="10"/>
<path d="M527.984 190.489C536.597 190.489 543.58 183.507 543.58 174.893C543.58 166.28 536.597 159.297 527.984 159.297C519.37 159.297 512.388 166.28 512.388 174.893C512.388 183.507 519.37 190.489 527.984 190.489Z" stroke="black" stroke-width="5" stroke-miterlimit="10"/>
<path d="M465.431 221.682C474.045 221.682 481.027 214.699 481.027 206.085C481.027 197.472 474.045 190.489 465.431 190.489C456.818 190.489 449.835 197.472 449.835 206.085C449.835 214.699 456.818 221.682 465.431 221.682Z" stroke="black" stroke-width="5" stroke-miterlimit="10"/>
<path d="M496.708 221.682C505.321 221.682 512.304 214.699 512.304 206.085C512.304 197.472 505.321 190.489 496.708 190.489C488.094 190.489 481.111 197.472 481.111 206.085C481.111 214.699 488.094 221.682 496.708 221.682Z" stroke="black" stroke-width="5" stroke-miterlimit="10"/>
<path d="M527.984 221.682C536.597 221.682 543.58 214.699 543.58 206.085C543.58 197.472 536.597 190.489 527.984 190.489C519.37 190.489 512.388 197.472 512.388 206.085C512.388 214.699 519.37 221.682 527.984 221.682Z" stroke="black" stroke-width="5" stroke-miterlimit="10"/>
<path d="M465.431 252.958C474.045 252.958 481.027 245.975 481.027 237.362C481.027 228.748 474.045 221.766 465.431 221.766C456.818 221.766 449.835 228.748 449.835 237.362C449.835 245.975 456.818 252.958 465.431 252.958Z" stroke="black" stroke-width="5" stroke-miterlimit="10"/>
<path d="M496.708 252.958C505.321 252.958 512.304 245.975 512.304 237.362C512.304 228.748 505.321 221.766 496.708 221.766C488.094 221.766 481.111 228.748 481.111 237.362C481.111 245.975 488.094 252.958 496.708 252.958Z" stroke="black" stroke-width="5" stroke-miterlimit="10"/>
<path d="M527.984 252.958C536.597 252.958 543.58 245.975 543.58 237.362C543.58 228.748 536.597 221.766 527.984 221.766C519.37 221.766 512.388 228.748 512.388 237.362C512.388 245.975 519.37 252.958 527.984 252.958Z" stroke="black" stroke-width="5" stroke-miterlimit="10"/>
<path d="M465.431 284.234C474.045 284.234 481.027 277.252 481.027 268.638C481.027 260.025 474.045 253.042 465.431 253.042C456.818 253.042 449.835 260.025 449.835 268.638C449.835 277.252 456.818 284.234 465.431 284.234Z" stroke="black" stroke-width="5" stroke-miterlimit="10"/>
<path d="M496.708 284.234C505.321 284.234 512.304 277.252 512.304 268.638C512.304 260.025 505.321 253.042 496.708 253.042C488.094 253.042 481.111 260.025 481.111 268.638C481.111 277.252 488.094 284.234 496.708 284.234Z" stroke="black" stroke-width="5" stroke-miterlimit="10"/>
<path d="M527.984 284.234C536.597 284.234 543.58 277.252 543.58 268.638C543.58 260.025 536.597 253.042 527.984 253.042C519.37 253.042 512.388 260.025 512.388 268.638C512.388 277.252 519.37 284.234 527.984 284.234Z" stroke="black" stroke-width="5" stroke-miterlimit="10"/>
<path d="M465.431 315.427C474.045 315.427 481.027 308.444 481.027 299.831C481.027 291.217 474.045 284.234 465.431 284.234C456.818 284.234 449.835 291.217 449.835 299.831C449.835 308.444 456.818 315.427 465.431 315.427Z" stroke="black" stroke-width="5" stroke-miterlimit="10"/>
<path d="M496.708 315.427C505.321 315.427 512.304 308.444 512.304 299.831C512.304 291.217 505.321 284.234 496.708 284.234C488.094 284.234 481.111 291.217 481.111 299.831C481.111 308.444 488.094 315.427 496.708 315.427Z" stroke="black" stroke-width="5" stroke-miterlimit="10"/>
<path d="M527.984 315.427C536.597 315.427 543.58 308.444 543.58 299.831C543.58 291.217 536.597 284.234 527.984 284.234C519.37 284.234 512.388 291.217 512.388 299.831C512.388 308.444 519.37 315.427 527.984 315.427Z" stroke="black" stroke-width="5" stroke-miterlimit="10"/>
<path d="M465.431 346.703C474.045 346.703 481.027 339.72 481.027 331.107C481.027 322.493 474.045 315.511 465.431 315.511C456.818 315.511 449.835 322.493 449.835 331.107C449.835 339.72 456.818 346.703 465.431 346.703Z" stroke="black" stroke-width="5" stroke-miterlimit="10"/>
<path d="M496.708 346.703C505.321 346.703 512.304 339.72 512.304 331.107C512.304 322.493 505.321 315.511 496.708 315.511C488.094 315.511 481.111 322.493 481.111 331.107C481.111 339.72 488.094 346.703 496.708 346.703Z" stroke="black" stroke-width="5" stroke-miterlimit="10"/>
<path d="M527.984 346.703C536.597 346.703 543.58 339.72 543.58 331.107C543.58 322.493 536.597 315.511 527.984 315.511C519.37 315.511 512.388 322.493 512.388 331.107C512.388 339.72 519.37 346.703 527.984 346.703Z" stroke="black" stroke-width="5" stroke-miterlimit="10"/>
<path d="M465.431 377.979C474.045 377.979 481.027 370.997 481.027 362.383C481.027 353.77 474.045 346.787 465.431 346.787C456.818 346.787 449.835 353.77 449.835 362.383C449.835 370.997 456.818 377.979 465.431 377.979Z" stroke="black" stroke-width="5" stroke-miterlimit="10"/>
<path d="M496.708 377.979C505.321 377.979 512.304 370.997 512.304 362.383C512.304 353.77 505.321 346.787 496.708 346.787C488.094 346.787 481.111 353.77 481.111 362.383C481.111 370.997 488.094 377.979 496.708 377.979Z" stroke="black" stroke-width="5" stroke-miterlimit="10"/>
<path d="M527.984 377.979C536.597 377.979 543.58 370.997 543.58 362.383C543.58 353.77 536.597 346.787 527.984 346.787C519.37 346.787 512.388 353.77 512.388 362.383C512.388 370.997 519.37 377.979 527.984 377.979Z" stroke="black" stroke-width="5" stroke-miterlimit="10"/>
<path d="M465.431 409.172C474.045 409.172 481.027 402.189 481.027 393.576C481.027 384.962 474.045 377.979 465.431 377.979C456.818 377.979 449.835 384.962 449.835 393.576C449.835 402.189 456.818 409.172 465.431 409.172Z" stroke="black" stroke-width="5" stroke-miterlimit="10"/>
<path d="M496.708 409.172C505.321 409.172 512.304 402.189 512.304 393.576C512.304 384.962 505.321 377.979 496.708 377.979C488.094 377.979 481.111 384.962 481.111 393.576C481.111 402.189 488.094 409.172 496.708 409.172Z" stroke="black" stroke-width="5" stroke-miterlimit="10"/>
<path d="M527.984 409.172C536.597 409.172 543.58 402.189 543.58 393.576C543.58 384.962 536.597 377.979 527.984 377.979C519.37 377.979 512.388 384.962 512.388 393.576C512.388 402.189 519.37 409.172 527.984 409.172Z" stroke="black" stroke-width="5" stroke-miterlimit="10"/>
<path d="M465.431 440.447C474.045 440.447 481.027 433.465 481.027 424.851C481.027 416.238 474.045 409.255 465.431 409.255C456.818 409.255 449.835 416.238 449.835 424.851C449.835 433.465 456.818 440.447 465.431 440.447Z" stroke="black" stroke-width="5" stroke-miterlimit="10"/>
<path d="M496.708 440.447C505.321 440.447 512.304 433.465 512.304 424.851C512.304 416.238 505.321 409.255 496.708 409.255C488.094 409.255 481.111 416.238 481.111 424.851C481.111 433.465 488.094 440.447 496.708 440.447Z" stroke="black" stroke-width="5" stroke-miterlimit="10"/>
<path d="M527.984 440.447C536.597 440.447 543.58 433.465 543.58 424.851C543.58 416.238 536.597 409.255 527.984 409.255C519.37 409.255 512.388 416.238 512.388 424.851C512.388 433.465 519.37 440.447 527.984 440.447Z" stroke="black" stroke-width="5" stroke-miterlimit="10"/>
<path d="M465.431 471.724C474.045 471.724 481.027 464.741 481.027 456.127C481.027 447.514 474.045 440.531 465.431 440.531C456.818 440.531 449.835 447.514 449.835 456.127C449.835 464.741 456.818 471.724 465.431 471.724Z" stroke="black" stroke-width="5" stroke-miterlimit="10"/>
<path d="M496.708 471.724C505.321 471.724 512.304 464.741 512.304 456.127C512.304 447.514 505.321 440.531 496.708 440.531C488.094 440.531 481.111 447.514 481.111 456.127C481.111 464.741 488.094 471.724 496.708 471.724Z" stroke="black" stroke-width="5" stroke-miterlimit="10"/>
<path d="M527.984 471.724C536.597 471.724 543.58 464.741 543.58 456.127C543.58 447.514 536.597 440.531 527.984 440.531C519.37 440.531 512.388 447.514 512.388 456.127C512.388 464.741 519.37 471.724 527.984 471.724Z" stroke="black" stroke-width="5" stroke-miterlimit="10"/>
<path d="M465.431 503C474.045 503 481.027 496.017 481.027 487.404C481.027 478.79 474.045 471.808 465.431 471.808C456.818 471.808 449.835 478.79 449.835 487.404C449.835 496.017 456.818 503 465.431 503Z" stroke="black" stroke-width="5" stroke-miterlimit="10"/>
<path d="M496.708 503C505.321 503 512.304 496.017 512.304 487.404C512.304 478.79 505.321 471.808 496.708 471.808C488.094 471.808 481.111 478.79 481.111 487.404C481.111 496.017 488.094 503 496.708 503Z" stroke="black" stroke-width="5" stroke-miterlimit="10"/>
<path d="M527.984 503C536.597 503 543.58 496.017 543.58 487.404C543.58 478.79 536.597 471.808 527.984 471.808C519.37 471.808 512.388 478.79 512.388 487.404C512.388 496.017 519.37 503 527.984 503Z" stroke="black" stroke-width="5" stroke-miterlimit="10"/>
<path d="M246.666 65.4687C255.279 65.4687 262.262 58.486 262.262 49.8725C262.262 41.259 255.279 34.2764 246.666 34.2764C238.052 34.2764 231.069 41.259 231.069 49.8725C231.069 58.486 238.052 65.4687 246.666 65.4687Z" stroke="black" stroke-width="5" stroke-miterlimit="10"/>
<path d="M277.941 65.4687C286.554 65.4687 293.537 58.486 293.537 49.8725C293.537 41.259 286.554 34.2764 277.941 34.2764C269.327 34.2764 262.345 41.259 262.345 49.8725C262.345 58.486 269.327 65.4687 277.941 65.4687Z" stroke="black" stroke-width="5" stroke-miterlimit="10"/>
<path d="M309.217 65.4687C317.831 65.4687 324.813 58.486 324.813 49.8725C324.813 41.259 317.831 34.2764 309.217 34.2764C300.604 34.2764 293.621 41.259 293.621 49.8725C293.621 58.486 300.604 65.4687 309.217 65.4687Z" stroke="black" stroke-width="5" stroke-miterlimit="10"/>
<path d="M246.666 96.745C255.279 96.745 262.262 89.7624 262.262 81.1489C262.262 72.5354 255.279 65.5527 246.666 65.5527C238.052 65.5527 231.069 72.5354 231.069 81.1489C231.069 89.7624 238.052 96.745 246.666 96.745Z" stroke="black" stroke-width="5" stroke-miterlimit="10"/>
<path d="M277.941 96.745C286.554 96.745 293.537 89.7624 293.537 81.1489C293.537 72.5354 286.554 65.5527 277.941 65.5527C269.327 65.5527 262.345 72.5354 262.345 81.1489C262.345 89.7624 269.327 96.745 277.941 96.745Z" stroke="black" stroke-width="5" stroke-miterlimit="10"/>
<path d="M309.217 96.745C317.831 96.745 324.813 89.7624 324.813 81.1489C324.813 72.5354 317.831 65.5527 309.217 65.5527C300.604 65.5527 293.621 72.5354 293.621 81.1489C293.621 89.7624 300.604 96.745 309.217 96.745Z" stroke="black" stroke-width="5" stroke-miterlimit="10"/>
<path d="M277.941 127.937C286.554 127.937 293.537 120.955 293.537 112.341C293.537 103.728 286.554 96.7451 277.941 96.7451C269.327 96.7451 262.345 103.728 262.345 112.341C262.345 120.955 269.327 127.937 277.941 127.937Z" stroke="black" stroke-width="5" stroke-miterlimit="10"/>
<path d="M309.217 127.937C317.831 127.937 324.813 120.955 324.813 112.341C324.813 103.728 317.831 96.7451 309.217 96.7451C300.604 96.7451 293.621 103.728 293.621 112.341C293.621 120.955 300.604 127.937 309.217 127.937Z" stroke="black" stroke-width="5" stroke-miterlimit="10"/>
<path d="M340.41 127.937C349.023 127.937 356.006 120.955 356.006 112.341C356.006 103.728 349.023 96.7451 340.41 96.7451C331.796 96.7451 324.813 103.728 324.813 112.341C324.813 120.955 331.796 127.937 340.41 127.937Z" stroke="black" stroke-width="5" stroke-miterlimit="10"/>
<path d="M277.941 159.213C286.554 159.213 293.537 152.23 293.537 143.617C293.537 135.003 286.554 128.021 277.941 128.021C269.327 128.021 262.345 135.003 262.345 143.617C262.345 152.23 269.327 159.213 277.941 159.213Z" stroke="black" stroke-width="5" stroke-miterlimit="10"/>
<path d="M309.217 159.213C317.831 159.213 324.813 152.23 324.813 143.617C324.813 135.003 317.831 128.021 309.217 128.021C300.604 128.021 293.621 135.003 293.621 143.617C293.621 152.23 300.604 159.213 309.217 159.213Z" stroke="black" stroke-width="5" stroke-miterlimit="10"/>
<path d="M340.41 159.213C349.023 159.213 356.006 152.23 356.006 143.617C356.006 135.003 349.023 128.021 340.41 128.021C331.796 128.021 324.813 135.003 324.813 143.617C324.813 152.23 331.796 159.213 340.41 159.213Z" stroke="black" stroke-width="5" stroke-miterlimit="10"/>
<path d="M309.217 190.489C317.831 190.489 324.813 183.507 324.813 174.893C324.813 166.28 317.831 159.297 309.217 159.297C300.604 159.297 293.621 166.28 293.621 174.893C293.621 183.507 300.604 190.489 309.217 190.489Z" stroke="black" stroke-width="5" stroke-miterlimit="10"/>
<path d="M340.41 190.489C349.023 190.489 356.006 183.507 356.006 174.893C356.006 166.28 349.023 159.297 340.41 159.297C331.796 159.297 324.813 166.28 324.813 174.893C324.813 183.507 331.796 190.489 340.41 190.489Z" stroke="black" stroke-width="5" stroke-miterlimit="10"/>
<path d="M371.686 189.735C380.3 189.735 387.282 182.753 387.282 174.139C387.282 165.526 380.3 158.543 371.686 158.543C363.072 158.543 356.09 165.526 356.09 174.139C356.09 182.753 363.072 189.735 371.686 189.735Z" stroke="black" stroke-width="5" stroke-miterlimit="10"/>
<path d="M309.217 221.682C317.831 221.682 324.813 214.699 324.813 206.085C324.813 197.472 317.831 190.489 309.217 190.489C300.604 190.489 293.621 197.472 293.621 206.085C293.621 214.699 300.604 221.682 309.217 221.682Z" stroke="black" stroke-width="5" stroke-miterlimit="10"/>
<path d="M340.41 221.682C349.023 221.682 356.006 214.699 356.006 206.085C356.006 197.472 349.023 190.489 340.41 190.489C331.796 190.489 324.813 197.472 324.813 206.085C324.813 214.699 331.796 221.682 340.41 221.682Z" stroke="black" stroke-width="5" stroke-miterlimit="10"/>
<path d="M371.686 221.011C380.3 221.011 387.282 214.028 387.282 205.415C387.282 196.801 380.3 189.818 371.686 189.818C363.072 189.818 356.09 196.801 356.09 205.415C356.09 214.028 363.072 221.011 371.686 221.011Z" stroke="black" stroke-width="5" stroke-miterlimit="10"/>
<path d="M309.217 252.958C317.831 252.958 324.813 245.975 324.813 237.362C324.813 228.748 317.831 221.766 309.217 221.766C300.604 221.766 293.621 228.748 293.621 237.362C293.621 245.975 300.604 252.958 309.217 252.958Z" stroke="black" stroke-width="5" stroke-miterlimit="10"/>
<path d="M340.41 252.958C349.023 252.958 356.006 245.975 356.006 237.362C356.006 228.748 349.023 221.766 340.41 221.766C331.796 221.766 324.813 228.748 324.813 237.362C324.813 245.975 331.796 252.958 340.41 252.958Z" stroke="black" stroke-width="5" stroke-miterlimit="10"/>
<path d="M371.686 252.287C380.3 252.287 387.282 245.304 387.282 236.691C387.282 228.077 380.3 221.095 371.686 221.095C363.072 221.095 356.09 228.077 356.09 236.691C356.09 245.304 363.072 252.287 371.686 252.287Z" stroke="black" stroke-width="5" stroke-miterlimit="10"/>
<path d="M340.41 284.234C349.023 284.234 356.006 277.252 356.006 268.638C356.006 260.025 349.023 253.042 340.41 253.042C331.796 253.042 324.813 260.025 324.813 268.638C324.813 277.252 331.796 284.234 340.41 284.234Z" stroke="black" stroke-width="5" stroke-miterlimit="10"/>
<path d="M371.686 283.479C380.3 283.479 387.282 276.497 387.282 267.883C387.282 259.27 380.3 252.287 371.686 252.287C363.072 252.287 356.09 259.27 356.09 267.883C356.09 276.497 363.072 283.479 371.686 283.479Z" stroke="black" stroke-width="5" stroke-miterlimit="10"/>
<path d="M340.41 315.427C349.023 315.427 356.006 308.444 356.006 299.831C356.006 291.217 349.023 284.234 340.41 284.234C331.796 284.234 324.813 291.217 324.813 299.831C324.813 308.444 331.796 315.427 340.41 315.427Z" stroke="black" stroke-width="5" stroke-miterlimit="10"/>
<path d="M371.686 314.756C380.3 314.756 387.282 307.773 387.282 299.16C387.282 290.546 380.3 283.563 371.686 283.563C363.072 283.563 356.09 290.546 356.09 299.16C356.09 307.773 363.072 314.756 371.686 314.756Z" stroke="black" stroke-width="5" stroke-miterlimit="10"/>
<path d="M402.962 314.756C411.576 314.756 418.559 307.773 418.559 299.16C418.559 290.546 411.576 283.563 402.962 283.563C394.349 283.563 387.366 290.546 387.366 299.16C387.366 307.773 394.349 314.756 402.962 314.756Z" stroke="black" stroke-width="5" stroke-miterlimit="10"/>
<path d="M340.41 346.703C349.023 346.703 356.006 339.72 356.006 331.107C356.006 322.493 349.023 315.511 340.41 315.511C331.796 315.511 324.813 322.493 324.813 331.107C324.813 339.72 331.796 346.703 340.41 346.703Z" stroke="black" stroke-width="5" stroke-miterlimit="10"/>
<path d="M371.686 346.032C380.3 346.032 387.282 339.05 387.282 330.436C387.282 321.822 380.3 314.84 371.686 314.84C363.072 314.84 356.09 321.822 356.09 330.436C356.09 339.05 363.072 346.032 371.686 346.032Z" stroke="black" stroke-width="5" stroke-miterlimit="10"/>
<path d="M402.962 346.032C411.576 346.032 418.559 339.05 418.559 330.436C418.559 321.822 411.576 314.84 402.962 314.84C394.349 314.84 387.366 321.822 387.366 330.436C387.366 339.05 394.349 346.032 402.962 346.032Z" stroke="black" stroke-width="5" stroke-miterlimit="10"/>
<path d="M371.686 377.225C380.3 377.225 387.282 370.242 387.282 361.628C387.282 353.015 380.3 346.032 371.686 346.032C363.072 346.032 356.09 353.015 356.09 361.628C356.09 370.242 363.072 377.225 371.686 377.225Z" stroke="black" stroke-width="5" stroke-miterlimit="10"/>
<path d="M402.962 377.225C411.576 377.225 418.559 370.242 418.559 361.628C418.559 353.015 411.576 346.032 402.962 346.032C394.349 346.032 387.366 353.015 387.366 361.628C387.366 370.242 394.349 377.225 402.962 377.225Z" stroke="black" stroke-width="5" stroke-miterlimit="10"/>
<path d="M371.686 408.501C380.3 408.501 387.282 401.518 387.282 392.905C387.282 384.291 380.3 377.309 371.686 377.309C363.072 377.309 356.09 384.291 356.09 392.905C356.09 401.518 363.072 408.501 371.686 408.501Z" stroke="black" stroke-width="5" stroke-miterlimit="10"/>
<path d="M402.962 408.501C411.576 408.501 418.559 401.518 418.559 392.905C418.559 384.291 411.576 377.309 402.962 377.309C394.349 377.309 387.366 384.291 387.366 392.905C387.366 401.518 394.349 408.501 402.962 408.501Z" stroke="black" stroke-width="5" stroke-miterlimit="10"/>
<path d="M402.962 439.776C411.576 439.776 418.559 432.794 418.559 424.18C418.559 415.567 411.576 408.584 402.962 408.584C394.349 408.584 387.366 415.567 387.366 424.18C387.366 432.794 394.349 439.776 402.962 439.776Z" stroke="black" stroke-width="5" stroke-miterlimit="10"/>
<path d="M434.155 440.447C442.768 440.447 449.751 433.465 449.751 424.851C449.751 416.238 442.768 409.255 434.155 409.255C425.541 409.255 418.559 416.238 418.559 424.851C418.559 433.465 425.541 440.447 434.155 440.447Z" stroke="black" stroke-width="5" stroke-miterlimit="10"/>
<path d="M434.155 471.724C442.768 471.724 449.751 464.741 449.751 456.127C449.751 447.514 442.768 440.531 434.155 440.531C425.541 440.531 418.559 447.514 418.559 456.127C418.559 464.741 425.541 471.724 434.155 471.724Z" stroke="black" stroke-width="5" stroke-miterlimit="10"/>
<path d="M434.155 503C442.768 503 449.751 496.017 449.751 487.404C449.751 478.79 442.768 471.808 434.155 471.808C425.541 471.808 418.559 478.79 418.559 487.404C418.559 496.017 425.541 503 434.155 503Z" stroke="black" stroke-width="5" stroke-miterlimit="10"/>
<path d="M434.155 409.172C442.768 409.172 449.751 402.189 449.751 393.576C449.751 384.962 442.768 377.979 434.155 377.979C425.541 377.979 418.559 384.962 418.559 393.576C418.559 402.189 425.541 409.172 434.155 409.172Z" stroke="black" stroke-width="5" stroke-miterlimit="10"/>
<path d="M309.217 65.4687C317.831 65.4687 324.813 58.486 324.813 49.8725C324.813 41.259 317.831 34.2764 309.217 34.2764C300.604 34.2764 293.621 41.259 293.621 49.8725C293.621 58.486 300.604 65.4687 309.217 65.4687Z" stroke="black" stroke-width="5" stroke-miterlimit="10"/>
<path d="M402.962 470.969C411.576 470.969 418.559 463.986 418.559 455.373C418.559 446.759 411.576 439.776 402.962 439.776C394.349 439.776 387.366 446.759 387.366 455.373C387.366 463.986 394.349 470.969 402.962 470.969Z" stroke="black" stroke-width="5" stroke-miterlimit="10"/>
<path d="M340.41 96.745C349.023 96.745 356.006 89.7624 356.006 81.1489C356.006 72.5354 349.023 65.5527 340.41 65.5527C331.796 65.5527 324.813 72.5354 324.813 81.1489C324.813 89.7624 331.796 96.745 340.41 96.745Z" stroke="black" stroke-width="5" stroke-miterlimit="10"/>
<path d="M371.686 439.776C380.3 439.776 387.282 432.794 387.282 424.18C387.282 415.567 380.3 408.584 371.686 408.584C363.072 408.584 356.09 415.567 356.09 424.18C356.09 432.794 363.072 439.776 371.686 439.776Z" stroke="black" stroke-width="5" stroke-miterlimit="10"/>
<path d="M18.5961 34.1923C27.2096 34.1923 34.1924 27.2097 34.1924 18.5962C34.1924 9.98265 27.2096 3 18.5961 3C9.98252 3 3 9.98265 3 18.5962C3 27.2097 9.98252 34.1923 18.5961 34.1923Z" stroke="black" stroke-width="5" stroke-miterlimit="10"/>
<path d="M49.7884 34.1923C58.402 34.1923 65.3847 27.2097 65.3847 18.5962C65.3847 9.98265 58.402 3 49.7884 3C41.1749 3 34.1924 9.98265 34.1924 18.5962C34.1924 27.2097 41.1749 34.1923 49.7884 34.1923Z" stroke="black" stroke-width="5" stroke-miterlimit="10"/>
<path d="M81.0651 34.1923C89.6786 34.1923 96.6611 27.2097 96.6611 18.5962C96.6611 9.98265 89.6786 3 81.0651 3C72.4515 3 65.4688 9.98265 65.4688 18.5962C65.4688 27.2097 72.4515 34.1923 81.0651 34.1923Z" stroke="black" stroke-width="5" stroke-miterlimit="10"/>
<path d="M18.5961 65.3847C27.2096 65.3847 34.1924 58.4021 34.1924 49.7886C34.1924 41.175 27.2096 34.1924 18.5961 34.1924C9.98252 34.1924 3 41.175 3 49.7886C3 58.4021 9.98252 65.3847 18.5961 65.3847Z" stroke="black" stroke-width="5" stroke-miterlimit="10"/>
<path d="M49.7884 65.3847C58.402 65.3847 65.3847 58.4021 65.3847 49.7886C65.3847 41.175 58.402 34.1924 49.7884 34.1924C41.1749 34.1924 34.1924 41.175 34.1924 49.7886C34.1924 58.4021 41.1749 65.3847 49.7884 65.3847Z" stroke="black" stroke-width="5" stroke-miterlimit="10"/>
<path d="M81.0651 65.3847C89.6786 65.3847 96.6611 58.4021 96.6611 49.7886C96.6611 41.175 89.6786 34.1924 81.0651 34.1924C72.4515 34.1924 65.4688 41.175 65.4688 49.7886C65.4688 58.4021 72.4515 65.3847 81.0651 65.3847Z" stroke="black" stroke-width="5" stroke-miterlimit="10"/>
<path d="M18.5961 96.6611C27.2096 96.6611 34.1924 89.6785 34.1924 81.0649C34.1924 72.4514 27.2096 65.4688 18.5961 65.4688C9.98252 65.4688 3 72.4514 3 81.0649C3 89.6785 9.98252 96.6611 18.5961 96.6611Z" stroke="black" stroke-width="5" stroke-miterlimit="10"/>
<path d="M49.7884 96.6611C58.402 96.6611 65.3847 89.6785 65.3847 81.0649C65.3847 72.4514 58.402 65.4688 49.7884 65.4688C41.1749 65.4688 34.1924 72.4514 34.1924 81.0649C34.1924 89.6785 41.1749 96.6611 49.7884 96.6611Z" stroke="black" stroke-width="5" stroke-miterlimit="10"/>
<path d="M81.0651 96.6611C89.6786 96.6611 96.6611 89.6785 96.6611 81.0649C96.6611 72.4514 89.6786 65.4688 81.0651 65.4688C72.4515 65.4688 65.4688 72.4514 65.4688 81.0649C65.4688 89.6785 72.4515 96.6611 81.0651 96.6611Z" stroke="black" stroke-width="5" stroke-miterlimit="10"/>
<path d="M18.5961 127.937C27.2096 127.937 34.1924 120.955 34.1924 112.341C34.1924 103.728 27.2096 96.7451 18.5961 96.7451C9.98252 96.7451 3 103.728 3 112.341C3 120.955 9.98252 127.937 18.5961 127.937Z" stroke="black" stroke-width="5" stroke-miterlimit="10"/>
<path d="M49.7884 127.937C58.402 127.937 65.3847 120.955 65.3847 112.341C65.3847 103.728 58.402 96.7451 49.7884 96.7451C41.1749 96.7451 34.1924 103.728 34.1924 112.341C34.1924 120.955 41.1749 127.937 49.7884 127.937Z" stroke="black" stroke-width="5" stroke-miterlimit="10"/>
<path d="M81.0651 127.937C89.6786 127.937 96.6611 120.955 96.6611 112.341C96.6611 103.728 89.6786 96.7451 81.0651 96.7451C72.4515 96.7451 65.4688 103.728 65.4688 112.341C65.4688 120.955 72.4515 127.937 81.0651 127.937Z" stroke="black" stroke-width="5" stroke-miterlimit="10"/>
<path d="M18.5961 159.13C27.2096 159.13 34.1924 152.147 34.1924 143.534C34.1924 134.92 27.2096 127.938 18.5961 127.938C9.98252 127.938 3 134.92 3 143.534C3 152.147 9.98252 159.13 18.5961 159.13Z" stroke="black" stroke-width="5" stroke-miterlimit="10"/>
<path d="M49.7884 159.13C58.402 159.13 65.3847 152.147 65.3847 143.534C65.3847 134.92 58.402 127.938 49.7884 127.938C41.1749 127.938 34.1924 134.92 34.1924 143.534C34.1924 152.147 41.1749 159.13 49.7884 159.13Z" stroke="black" stroke-width="5" stroke-miterlimit="10"/>
<path d="M81.0651 159.13C89.6786 159.13 96.6611 152.147 96.6611 143.534C96.6611 134.92 89.6786 127.938 81.0651 127.938C72.4515 127.938 65.4688 134.92 65.4688 143.534C65.4688 152.147 72.4515 159.13 81.0651 159.13Z" stroke="black" stroke-width="5" stroke-miterlimit="10"/>
<path d="M18.5961 190.405C27.2096 190.405 34.1924 183.423 34.1924 174.809C34.1924 166.196 27.2096 159.213 18.5961 159.213C9.98252 159.213 3 166.196 3 174.809C3 183.423 9.98252 190.405 18.5961 190.405Z" stroke="black" stroke-width="5" stroke-miterlimit="10"/>
<path d="M49.7884 190.405C58.402 190.405 65.3847 183.423 65.3847 174.809C65.3847 166.196 58.402 159.213 49.7884 159.213C41.1749 159.213 34.1924 166.196 34.1924 174.809C34.1924 183.423 41.1749 190.405 49.7884 190.405Z" stroke="black" stroke-width="5" stroke-miterlimit="10"/>
<path d="M81.0651 190.405C89.6786 190.405 96.6611 183.423 96.6611 174.809C96.6611 166.196 89.6786 159.213 81.0651 159.213C72.4515 159.213 65.4688 166.196 65.4688 174.809C65.4688 183.423 72.4515 190.405 81.0651 190.405Z" stroke="black" stroke-width="5" stroke-miterlimit="10"/>
<path d="M18.5961 221.682C27.2096 221.682 34.1924 214.699 34.1924 206.085C34.1924 197.472 27.2096 190.489 18.5961 190.489C9.98252 190.489 3 197.472 3 206.085C3 214.699 9.98252 221.682 18.5961 221.682Z" stroke="black" stroke-width="5" stroke-miterlimit="10"/>
<path d="M49.7884 221.682C58.402 221.682 65.3847 214.699 65.3847 206.085C65.3847 197.472 58.402 190.489 49.7884 190.489C41.1749 190.489 34.1924 197.472 34.1924 206.085C34.1924 214.699 41.1749 221.682 49.7884 221.682Z" stroke="black" stroke-width="5" stroke-miterlimit="10"/>
<path d="M81.0651 221.682C89.6786 221.682 96.6611 214.699 96.6611 206.085C96.6611 197.472 89.6786 190.489 81.0651 190.489C72.4515 190.489 65.4688 197.472 65.4688 206.085C65.4688 214.699 72.4515 221.682 81.0651 221.682Z" stroke="black" stroke-width="5" stroke-miterlimit="10"/>
<path d="M18.5961 252.874C27.2096 252.874 34.1924 245.891 34.1924 237.278C34.1924 228.664 27.2096 221.682 18.5961 221.682C9.98252 221.682 3 228.664 3 237.278C3 245.891 9.98252 252.874 18.5961 252.874Z" stroke="black" stroke-width="5" stroke-miterlimit="10"/>
<path d="M49.7884 252.874C58.402 252.874 65.3847 245.891 65.3847 237.278C65.3847 228.664 58.402 221.682 49.7884 221.682C41.1749 221.682 34.1924 228.664 34.1924 237.278C34.1924 245.891 41.1749 252.874 49.7884 252.874Z" stroke="black" stroke-width="5" stroke-miterlimit="10"/>
<path d="M81.0651 252.874C89.6786 252.874 96.6611 245.891 96.6611 237.278C96.6611 228.664 89.6786 221.682 81.0651 221.682C72.4515 221.682 65.4688 228.664 65.4688 237.278C65.4688 245.891 72.4515 252.874 81.0651 252.874Z" stroke="black" stroke-width="5" stroke-miterlimit="10"/>
<path d="M18.5961 284.15C27.2096 284.15 34.1924 277.168 34.1924 268.554C34.1924 259.941 27.2096 252.958 18.5961 252.958C9.98252 252.958 3 259.941 3 268.554C3 277.168 9.98252 284.15 18.5961 284.15Z" stroke="black" stroke-width="5" stroke-miterlimit="10"/>
<path d="M49.7884 284.15C58.402 284.15 65.3847 277.168 65.3847 268.554C65.3847 259.941 58.402 252.958 49.7884 252.958C41.1749 252.958 34.1924 259.941 34.1924 268.554C34.1924 277.168 41.1749 284.15 49.7884 284.15Z" stroke="black" stroke-width="5" stroke-miterlimit="10"/>
<path d="M81.0651 284.15C89.6786 284.15 96.6611 277.168 96.6611 268.554C96.6611 259.941 89.6786 252.958 81.0651 252.958C72.4515 252.958 65.4688 259.941 65.4688 268.554C65.4688 277.168 72.4515 284.15 81.0651 284.15Z" stroke="black" stroke-width="5" stroke-miterlimit="10"/>
<path d="M18.5961 315.427C27.2096 315.427 34.1924 308.444 34.1924 299.831C34.1924 291.217 27.2096 284.234 18.5961 284.234C9.98252 284.234 3 291.217 3 299.831C3 308.444 9.98252 315.427 18.5961 315.427Z" stroke="black" stroke-width="5" stroke-miterlimit="10"/>
<path d="M49.7884 315.427C58.402 315.427 65.3847 308.444 65.3847 299.831C65.3847 291.217 58.402 284.234 49.7884 284.234C41.1749 284.234 34.1924 291.217 34.1924 299.831C34.1924 308.444 41.1749 315.427 49.7884 315.427Z" stroke="black" stroke-width="5" stroke-miterlimit="10"/>
<path d="M81.0651 315.427C89.6786 315.427 96.6611 308.444 96.6611 299.831C96.6611 291.217 89.6786 284.234 81.0651 284.234C72.4515 284.234 65.4688 291.217 65.4688 299.831C65.4688 308.444 72.4515 315.427 81.0651 315.427Z" stroke="black" stroke-width="5" stroke-miterlimit="10"/>
<path d="M18.5961 346.703C27.2096 346.703 34.1924 339.72 34.1924 331.107C34.1924 322.493 27.2096 315.511 18.5961 315.511C9.98252 315.511 3 322.493 3 331.107C3 339.72 9.98252 346.703 18.5961 346.703Z" stroke="black" stroke-width="5" stroke-miterlimit="10"/>
<path d="M49.7884 346.703C58.402 346.703 65.3847 339.72 65.3847 331.107C65.3847 322.493 58.402 315.511 49.7884 315.511C41.1749 315.511 34.1924 322.493 34.1924 331.107C34.1924 339.72 41.1749 346.703 49.7884 346.703Z" stroke="black" stroke-width="5" stroke-miterlimit="10"/>
<path d="M81.0651 346.703C89.6786 346.703 96.6611 339.72 96.6611 331.107C96.6611 322.493 89.6786 315.511 81.0651 315.511C72.4515 315.511 65.4688 322.493 65.4688 331.107C65.4688 339.72 72.4515 346.703 81.0651 346.703Z" stroke="black" stroke-width="5" stroke-miterlimit="10"/>
<path d="M18.5961 377.895C27.2096 377.895 34.1924 370.913 34.1924 362.299C34.1924 353.686 27.2096 346.703 18.5961 346.703C9.98252 346.703 3 353.686 3 362.299C3 370.913 9.98252 377.895 18.5961 377.895Z" stroke="black" stroke-width="5" stroke-miterlimit="10"/>
<path d="M49.7884 377.895C58.402 377.895 65.3847 370.913 65.3847 362.299C65.3847 353.686 58.402 346.703 49.7884 346.703C41.1749 346.703 34.1924 353.686 34.1924 362.299C34.1924 370.913 41.1749 377.895 49.7884 377.895Z" stroke="black" stroke-width="5" stroke-miterlimit="10"/>
<path d="M81.0651 377.895C89.6786 377.895 96.6611 370.913 96.6611 362.299C96.6611 353.686 89.6786 346.703 81.0651 346.703C72.4515 346.703 65.4688 353.686 65.4688 362.299C65.4688 370.913 72.4515 377.895 81.0651 377.895Z" stroke="black" stroke-width="5" stroke-miterlimit="10"/>
<path d="M18.5961 409.171C27.2096 409.171 34.1924 402.188 34.1924 393.575C34.1924 384.961 27.2096 377.979 18.5961 377.979C9.98252 377.979 3 384.961 3 393.575C3 402.188 9.98252 409.171 18.5961 409.171Z" stroke="black" stroke-width="5" stroke-miterlimit="10"/>
<path d="M49.7884 409.171C58.402 409.171 65.3847 402.188 65.3847 393.575C65.3847 384.961 58.402 377.979 49.7884 377.979C41.1749 377.979 34.1924 384.961 34.1924 393.575C34.1924 402.188 41.1749 409.171 49.7884 409.171Z" stroke="black" stroke-width="5" stroke-miterlimit="10"/>
<path d="M81.0651 409.171C89.6786 409.171 96.6611 402.188 96.6611 393.575C96.6611 384.961 89.6786 377.979 81.0651 377.979C72.4515 377.979 65.4688 384.961 65.4688 393.575C65.4688 402.188 72.4515 409.171 81.0651 409.171Z" stroke="black" stroke-width="5" stroke-miterlimit="10"/>
<path d="M18.5961 440.447C27.2096 440.447 34.1924 433.465 34.1924 424.851C34.1924 416.238 27.2096 409.255 18.5961 409.255C9.98252 409.255 3 416.238 3 424.851C3 433.465 9.98252 440.447 18.5961 440.447Z" stroke="black" stroke-width="5" stroke-miterlimit="10"/>
<path d="M49.7884 440.447C58.402 440.447 65.3847 433.465 65.3847 424.851C65.3847 416.238 58.402 409.255 49.7884 409.255C41.1749 409.255 34.1924 416.238 34.1924 424.851C34.1924 433.465 41.1749 440.447 49.7884 440.447Z" stroke="black" stroke-width="5" stroke-miterlimit="10"/>
<path d="M81.0651 440.447C89.6786 440.447 96.6611 433.465 96.6611 424.851C96.6611 416.238 89.6786 409.255 81.0651 409.255C72.4515 409.255 65.4688 416.238 65.4688 424.851C65.4688 433.465 72.4515 440.447 81.0651 440.447Z" stroke="black" stroke-width="5" stroke-miterlimit="10"/>
<path d="M18.5961 471.64C27.2096 471.64 34.1924 464.657 34.1924 456.043C34.1924 447.43 27.2096 440.447 18.5961 440.447C9.98252 440.447 3 447.43 3 456.043C3 464.657 9.98252 471.64 18.5961 471.64Z" stroke="black" stroke-width="5" stroke-miterlimit="10"/>
<path d="M49.7884 471.64C58.402 471.64 65.3847 464.657 65.3847 456.043C65.3847 447.43 58.402 440.447 49.7884 440.447C41.1749 440.447 34.1924 447.43 34.1924 456.043C34.1924 464.657 41.1749 471.64 49.7884 471.64Z" stroke="black" stroke-width="5" stroke-miterlimit="10"/>
<path d="M81.0651 471.64C89.6786 471.64 96.6611 464.657 96.6611 456.043C96.6611 447.43 89.6786 440.447 81.0651 440.447C72.4515 440.447 65.4688 447.43 65.4688 456.043C65.4688 464.657 72.4515 471.64 81.0651 471.64Z" stroke="black" stroke-width="5" stroke-miterlimit="10"/>
<path d="M18.5961 502.916C27.2096 502.916 34.1924 495.933 34.1924 487.32C34.1924 478.706 27.2096 471.724 18.5961 471.724C9.98252 471.724 3 478.706 3 487.32C3 495.933 9.98252 502.916 18.5961 502.916Z" stroke="black" stroke-width="5" stroke-miterlimit="10"/>
<path d="M49.7884 502.916C58.402 502.916 65.3847 495.933 65.3847 487.32C65.3847 478.706 58.402 471.724 49.7884 471.724C41.1749 471.724 34.1924 478.706 34.1924 487.32C34.1924 495.933 41.1749 502.916 49.7884 502.916Z" stroke="black" stroke-width="5" stroke-miterlimit="10"/>
<path d="M81.0651 502.916C89.6786 502.916 96.6611 495.933 96.6611 487.32C96.6611 478.706 89.6786 471.724 81.0651 471.724C72.4515 471.724 65.4688 478.706 65.4688 487.32C65.4688 495.933 72.4515 502.916 81.0651 502.916Z" stroke="black" stroke-width="5" stroke-miterlimit="10"/>
</svg>
