<svg width="541" height="500" viewBox="0 0 541 500" fill="none" xmlns="http://www.w3.org/2000/svg">
<path d="M149.92 31.1924C158.534 31.1924 165.517 24.2097 165.517 15.5962C165.517 6.98265 158.534 0 149.92 0C141.307 0 134.324 6.98265 134.324 15.5962C134.324 24.2097 141.307 31.1924 149.92 31.1924Z" fill="black"/>
<path d="M181.197 31.1924C189.81 31.1924 196.793 24.2097 196.793 15.5962C196.793 6.98265 189.81 0 181.197 0C172.583 0 165.601 6.98265 165.601 15.5962C165.601 24.2097 172.583 31.1924 181.197 31.1924Z" fill="black"/>
<path d="M212.389 31.1924C221.003 31.1924 227.985 24.2097 227.985 15.5962C227.985 6.98265 221.003 0 212.389 0C203.776 0 196.793 6.98265 196.793 15.5962C196.793 24.2097 203.776 31.1924 212.389 31.1924Z" fill="black"/>
<path d="M243.666 31.1924C252.279 31.1924 259.262 24.2097 259.262 15.5962C259.262 6.98265 252.279 0 243.666 0C235.052 0 228.069 6.98265 228.069 15.5962C228.069 24.2097 235.052 31.1924 243.666 31.1924Z" fill="black"/>
<path d="M274.941 31.1924C283.554 31.1924 290.537 24.2097 290.537 15.5962C290.537 6.98265 283.554 0 274.941 0C266.327 0 259.345 6.98265 259.345 15.5962C259.345 24.2097 266.327 31.1924 274.941 31.1924Z" fill="black"/>
<path d="M149.92 62.4687C158.534 62.4687 165.517 55.486 165.517 46.8725C165.517 38.259 158.534 31.2764 149.92 31.2764C141.307 31.2764 134.324 38.259 134.324 46.8725C134.324 55.486 141.307 62.4687 149.92 62.4687Z" fill="black"/>
<path d="M181.197 62.4687C189.81 62.4687 196.793 55.486 196.793 46.8725C196.793 38.259 189.81 31.2764 181.197 31.2764C172.583 31.2764 165.601 38.259 165.601 46.8725C165.601 55.486 172.583 62.4687 181.197 62.4687Z" fill="black"/>
<path d="M212.389 62.4687C221.003 62.4687 227.985 55.486 227.985 46.8725C227.985 38.259 221.003 31.2764 212.389 31.2764C203.776 31.2764 196.793 38.259 196.793 46.8725C196.793 55.486 203.776 62.4687 212.389 62.4687Z" fill="black"/>
<path d="M149.92 93.745C158.534 93.745 165.517 86.7624 165.517 78.1489C165.517 69.5354 158.534 62.5527 149.92 62.5527C141.307 62.5527 134.324 69.5354 134.324 78.1489C134.324 86.7624 141.307 93.745 149.92 93.745Z" fill="black"/>
<path d="M181.197 93.745C189.81 93.745 196.793 86.7624 196.793 78.1489C196.793 69.5354 189.81 62.5527 181.197 62.5527C172.583 62.5527 165.601 69.5354 165.601 78.1489C165.601 86.7624 172.583 93.745 181.197 93.745Z" fill="black"/>
<path d="M212.389 93.745C221.003 93.745 227.985 86.7624 227.985 78.1489C227.985 69.5354 221.003 62.5527 212.389 62.5527C203.776 62.5527 196.793 69.5354 196.793 78.1489C196.793 86.7624 203.776 93.745 212.389 93.745Z" fill="black"/>
<path d="M149.92 124.937C158.534 124.937 165.517 117.955 165.517 109.341C165.517 100.728 158.534 93.7451 149.92 93.7451C141.307 93.7451 134.324 100.728 134.324 109.341C134.324 117.955 141.307 124.937 149.92 124.937Z" fill="black"/>
<path d="M181.197 124.937C189.81 124.937 196.793 117.955 196.793 109.341C196.793 100.728 189.81 93.7451 181.197 93.7451C172.583 93.7451 165.601 100.728 165.601 109.341C165.601 117.955 172.583 124.937 181.197 124.937Z" fill="black"/>
<path d="M212.389 124.937C221.003 124.937 227.985 117.955 227.985 109.341C227.985 100.728 221.003 93.7451 212.389 93.7451C203.776 93.7451 196.793 100.728 196.793 109.341C196.793 117.955 203.776 124.937 212.389 124.937Z" fill="black"/>
<path d="M149.92 156.213C158.534 156.213 165.517 149.23 165.517 140.617C165.517 132.003 158.534 125.021 149.92 125.021C141.307 125.021 134.324 132.003 134.324 140.617C134.324 149.23 141.307 156.213 149.92 156.213Z" fill="black"/>
<path d="M181.197 156.213C189.81 156.213 196.793 149.23 196.793 140.617C196.793 132.003 189.81 125.021 181.197 125.021C172.583 125.021 165.601 132.003 165.601 140.617C165.601 149.23 172.583 156.213 181.197 156.213Z" fill="black"/>
<path d="M212.389 156.213C221.003 156.213 227.985 149.23 227.985 140.617C227.985 132.003 221.003 125.021 212.389 125.021C203.776 125.021 196.793 132.003 196.793 140.617C196.793 149.23 203.776 156.213 212.389 156.213Z" fill="black"/>
<path d="M149.92 187.489C158.534 187.489 165.517 180.507 165.517 171.893C165.517 163.28 158.534 156.297 149.92 156.297C141.307 156.297 134.324 163.28 134.324 171.893C134.324 180.507 141.307 187.489 149.92 187.489Z" fill="black"/>
<path d="M181.197 187.489C189.81 187.489 196.793 180.507 196.793 171.893C196.793 163.28 189.81 156.297 181.197 156.297C172.583 156.297 165.601 163.28 165.601 171.893C165.601 180.507 172.583 187.489 181.197 187.489Z" fill="black"/>
<path d="M212.389 187.489C221.003 187.489 227.985 180.507 227.985 171.893C227.985 163.28 221.003 156.297 212.389 156.297C203.776 156.297 196.793 163.28 196.793 171.893C196.793 180.507 203.776 187.489 212.389 187.489Z" fill="black"/>
<path d="M149.92 218.682C158.534 218.682 165.517 211.699 165.517 203.085C165.517 194.472 158.534 187.489 149.92 187.489C141.307 187.489 134.324 194.472 134.324 203.085C134.324 211.699 141.307 218.682 149.92 218.682Z" fill="black"/>
<path d="M181.197 218.682C189.81 218.682 196.793 211.699 196.793 203.085C196.793 194.472 189.81 187.489 181.197 187.489C172.583 187.489 165.601 194.472 165.601 203.085C165.601 211.699 172.583 218.682 181.197 218.682Z" fill="black"/>
<path d="M212.389 218.682C221.003 218.682 227.985 211.699 227.985 203.085C227.985 194.472 221.003 187.489 212.389 187.489C203.776 187.489 196.793 194.472 196.793 203.085C196.793 211.699 203.776 218.682 212.389 218.682Z" fill="black"/>
<path d="M149.92 249.958C158.534 249.958 165.517 242.975 165.517 234.362C165.517 225.748 158.534 218.766 149.92 218.766C141.307 218.766 134.324 225.748 134.324 234.362C134.324 242.975 141.307 249.958 149.92 249.958Z" fill="black"/>
<path d="M181.197 249.958C189.81 249.958 196.793 242.975 196.793 234.362C196.793 225.748 189.81 218.766 181.197 218.766C172.583 218.766 165.601 225.748 165.601 234.362C165.601 242.975 172.583 249.958 181.197 249.958Z" fill="black"/>
<path d="M212.389 249.958C221.003 249.958 227.985 242.975 227.985 234.362C227.985 225.748 221.003 218.766 212.389 218.766C203.776 218.766 196.793 225.748 196.793 234.362C196.793 242.975 203.776 249.958 212.389 249.958Z" fill="black"/>
<path d="M149.92 281.234C158.534 281.234 165.517 274.252 165.517 265.638C165.517 257.025 158.534 250.042 149.92 250.042C141.307 250.042 134.324 257.025 134.324 265.638C134.324 274.252 141.307 281.234 149.92 281.234Z" fill="black"/>
<path d="M181.197 281.234C189.81 281.234 196.793 274.252 196.793 265.638C196.793 257.025 189.81 250.042 181.197 250.042C172.583 250.042 165.601 257.025 165.601 265.638C165.601 274.252 172.583 281.234 181.197 281.234Z" fill="black"/>
<path d="M212.389 281.234C221.003 281.234 227.985 274.252 227.985 265.638C227.985 257.025 221.003 250.042 212.389 250.042C203.776 250.042 196.793 257.025 196.793 265.638C196.793 274.252 203.776 281.234 212.389 281.234Z" fill="black"/>
<path d="M149.92 312.427C158.534 312.427 165.517 305.444 165.517 296.831C165.517 288.217 158.534 281.234 149.92 281.234C141.307 281.234 134.324 288.217 134.324 296.831C134.324 305.444 141.307 312.427 149.92 312.427Z" fill="black"/>
<path d="M181.197 312.427C189.81 312.427 196.793 305.444 196.793 296.831C196.793 288.217 189.81 281.234 181.197 281.234C172.583 281.234 165.601 288.217 165.601 296.831C165.601 305.444 172.583 312.427 181.197 312.427Z" fill="black"/>
<path d="M212.389 312.427C221.003 312.427 227.985 305.444 227.985 296.831C227.985 288.217 221.003 281.234 212.389 281.234C203.776 281.234 196.793 288.217 196.793 296.831C196.793 305.444 203.776 312.427 212.389 312.427Z" fill="black"/>
<path d="M149.92 343.703C158.534 343.703 165.517 336.72 165.517 328.107C165.517 319.493 158.534 312.511 149.92 312.511C141.307 312.511 134.324 319.493 134.324 328.107C134.324 336.72 141.307 343.703 149.92 343.703Z" fill="black"/>
<path d="M181.197 343.703C189.81 343.703 196.793 336.72 196.793 328.107C196.793 319.493 189.81 312.511 181.197 312.511C172.583 312.511 165.601 319.493 165.601 328.107C165.601 336.72 172.583 343.703 181.197 343.703Z" fill="black"/>
<path d="M212.389 343.703C221.003 343.703 227.985 336.72 227.985 328.107C227.985 319.493 221.003 312.511 212.389 312.511C203.776 312.511 196.793 319.493 196.793 328.107C196.793 336.72 203.776 343.703 212.389 343.703Z" fill="black"/>
<path d="M149.92 374.979C158.534 374.979 165.517 367.997 165.517 359.383C165.517 350.77 158.534 343.787 149.92 343.787C141.307 343.787 134.324 350.77 134.324 359.383C134.324 367.997 141.307 374.979 149.92 374.979Z" fill="black"/>
<path d="M181.197 374.979C189.81 374.979 196.793 367.997 196.793 359.383C196.793 350.77 189.81 343.787 181.197 343.787C172.583 343.787 165.601 350.77 165.601 359.383C165.601 367.997 172.583 374.979 181.197 374.979Z" fill="black"/>
<path d="M212.389 374.979C221.003 374.979 227.985 367.997 227.985 359.383C227.985 350.77 221.003 343.787 212.389 343.787C203.776 343.787 196.793 350.77 196.793 359.383C196.793 367.997 203.776 374.979 212.389 374.979Z" fill="black"/>
<path d="M149.92 406.172C158.534 406.172 165.517 399.189 165.517 390.576C165.517 381.962 158.534 374.979 149.92 374.979C141.307 374.979 134.324 381.962 134.324 390.576C134.324 399.189 141.307 406.172 149.92 406.172Z" fill="black"/>
<path d="M181.197 406.172C189.81 406.172 196.793 399.189 196.793 390.576C196.793 381.962 189.81 374.979 181.197 374.979C172.583 374.979 165.601 381.962 165.601 390.576C165.601 399.189 172.583 406.172 181.197 406.172Z" fill="black"/>
<path d="M212.389 406.172C221.003 406.172 227.985 399.189 227.985 390.576C227.985 381.962 221.003 374.979 212.389 374.979C203.776 374.979 196.793 381.962 196.793 390.576C196.793 399.189 203.776 406.172 212.389 406.172Z" fill="black"/>
<path d="M149.92 437.447C158.534 437.447 165.517 430.465 165.517 421.851C165.517 413.238 158.534 406.255 149.92 406.255C141.307 406.255 134.324 413.238 134.324 421.851C134.324 430.465 141.307 437.447 149.92 437.447Z" fill="black"/>
<path d="M181.197 437.447C189.81 437.447 196.793 430.465 196.793 421.851C196.793 413.238 189.81 406.255 181.197 406.255C172.583 406.255 165.601 413.238 165.601 421.851C165.601 430.465 172.583 437.447 181.197 437.447Z" fill="black"/>
<path d="M212.389 437.447C221.003 437.447 227.985 430.465 227.985 421.851C227.985 413.238 221.003 406.255 212.389 406.255C203.776 406.255 196.793 413.238 196.793 421.851C196.793 430.465 203.776 437.447 212.389 437.447Z" fill="black"/>
<path d="M149.92 468.724C158.534 468.724 165.517 461.741 165.517 453.127C165.517 444.514 158.534 437.531 149.92 437.531C141.307 437.531 134.324 444.514 134.324 453.127C134.324 461.741 141.307 468.724 149.92 468.724Z" fill="black"/>
<path d="M181.197 468.724C189.81 468.724 196.793 461.741 196.793 453.127C196.793 444.514 189.81 437.531 181.197 437.531C172.583 437.531 165.601 444.514 165.601 453.127C165.601 461.741 172.583 468.724 181.197 468.724Z" fill="black"/>
<path d="M212.389 468.724C221.003 468.724 227.985 461.741 227.985 453.127C227.985 444.514 221.003 437.531 212.389 437.531C203.776 437.531 196.793 444.514 196.793 453.127C196.793 461.741 203.776 468.724 212.389 468.724Z" fill="black"/>
<path d="M149.92 500C158.534 500 165.517 493.017 165.517 484.404C165.517 475.79 158.534 468.808 149.92 468.808C141.307 468.808 134.324 475.79 134.324 484.404C134.324 493.017 141.307 500 149.92 500Z" fill="black"/>
<path d="M181.197 500C189.81 500 196.793 493.017 196.793 484.404C196.793 475.79 189.81 468.808 181.197 468.808C172.583 468.808 165.601 475.79 165.601 484.404C165.601 493.017 172.583 500 181.197 500Z" fill="black"/>
<path d="M212.389 500C221.003 500 227.985 493.017 227.985 484.404C227.985 475.79 221.003 468.808 212.389 468.808C203.776 468.808 196.793 475.79 196.793 484.404C196.793 493.017 203.776 500 212.389 500Z" fill="black"/>
<path d="M462.431 31.1924C471.045 31.1924 478.027 24.2097 478.027 15.5962C478.027 6.98265 471.045 0 462.431 0C453.818 0 446.835 6.98265 446.835 15.5962C446.835 24.2097 453.818 31.1924 462.431 31.1924Z" fill="black"/>
<path d="M493.624 31.1924C502.237 31.1924 509.22 24.2097 509.22 15.5962C509.22 6.98265 502.237 0 493.624 0C485.01 0 478.027 6.98265 478.027 15.5962C478.027 24.2097 485.01 31.1924 493.624 31.1924Z" fill="black"/>
<path d="M524.9 31.1924C533.513 31.1924 540.496 24.2097 540.496 15.5962C540.496 6.98265 533.513 0 524.9 0C516.286 0 509.304 6.98265 509.304 15.5962C509.304 24.2097 516.286 31.1924 524.9 31.1924Z" fill="black"/>
<path d="M462.431 62.4687C471.045 62.4687 478.027 55.486 478.027 46.8725C478.027 38.259 471.045 31.2764 462.431 31.2764C453.818 31.2764 446.835 38.259 446.835 46.8725C446.835 55.486 453.818 62.4687 462.431 62.4687Z" fill="black"/>
<path d="M493.624 62.4687C502.237 62.4687 509.22 55.486 509.22 46.8725C509.22 38.259 502.237 31.2764 493.624 31.2764C485.01 31.2764 478.027 38.259 478.027 46.8725C478.027 55.486 485.01 62.4687 493.624 62.4687Z" fill="black"/>
<path d="M524.9 62.4687C533.513 62.4687 540.496 55.486 540.496 46.8725C540.496 38.259 533.513 31.2764 524.9 31.2764C516.286 31.2764 509.304 38.259 509.304 46.8725C509.304 55.486 516.286 62.4687 524.9 62.4687Z" fill="black"/>
<path d="M462.431 93.745C471.045 93.745 478.027 86.7624 478.027 78.1489C478.027 69.5354 471.045 62.5527 462.431 62.5527C453.818 62.5527 446.835 69.5354 446.835 78.1489C446.835 86.7624 453.818 93.745 462.431 93.745Z" fill="black"/>
<path d="M493.624 93.745C502.237 93.745 509.22 86.7624 509.22 78.1489C509.22 69.5354 502.237 62.5527 493.624 62.5527C485.01 62.5527 478.027 69.5354 478.027 78.1489C478.027 86.7624 485.01 93.745 493.624 93.745Z" fill="black"/>
<path d="M524.9 93.745C533.513 93.745 540.496 86.7624 540.496 78.1489C540.496 69.5354 533.513 62.5527 524.9 62.5527C516.286 62.5527 509.304 69.5354 509.304 78.1489C509.304 86.7624 516.286 93.745 524.9 93.745Z" fill="black"/>
<path d="M462.431 124.937C471.045 124.937 478.027 117.955 478.027 109.341C478.027 100.728 471.045 93.7451 462.431 93.7451C453.818 93.7451 446.835 100.728 446.835 109.341C446.835 117.955 453.818 124.937 462.431 124.937Z" fill="black"/>
<path d="M493.624 124.937C502.237 124.937 509.22 117.955 509.22 109.341C509.22 100.728 502.237 93.7451 493.624 93.7451C485.01 93.7451 478.027 100.728 478.027 109.341C478.027 117.955 485.01 124.937 493.624 124.937Z" fill="black"/>
<path d="M524.9 124.937C533.513 124.937 540.496 117.955 540.496 109.341C540.496 100.728 533.513 93.7451 524.9 93.7451C516.286 93.7451 509.304 100.728 509.304 109.341C509.304 117.955 516.286 124.937 524.9 124.937Z" fill="black"/>
<path d="M462.431 156.213C471.045 156.213 478.027 149.23 478.027 140.617C478.027 132.003 471.045 125.021 462.431 125.021C453.818 125.021 446.835 132.003 446.835 140.617C446.835 149.23 453.818 156.213 462.431 156.213Z" fill="black"/>
<path d="M493.624 156.213C502.237 156.213 509.22 149.23 509.22 140.617C509.22 132.003 502.237 125.021 493.624 125.021C485.01 125.021 478.027 132.003 478.027 140.617C478.027 149.23 485.01 156.213 493.624 156.213Z" fill="black"/>
<path d="M524.9 156.213C533.513 156.213 540.496 149.23 540.496 140.617C540.496 132.003 533.513 125.021 524.9 125.021C516.286 125.021 509.304 132.003 509.304 140.617C509.304 149.23 516.286 156.213 524.9 156.213Z" fill="black"/>
<path d="M462.431 187.489C471.045 187.489 478.027 180.507 478.027 171.893C478.027 163.28 471.045 156.297 462.431 156.297C453.818 156.297 446.835 163.28 446.835 171.893C446.835 180.507 453.818 187.489 462.431 187.489Z" fill="black"/>
<path d="M493.624 187.489C502.237 187.489 509.22 180.507 509.22 171.893C509.22 163.28 502.237 156.297 493.624 156.297C485.01 156.297 478.027 163.28 478.027 171.893C478.027 180.507 485.01 187.489 493.624 187.489Z" fill="black"/>
<path d="M524.9 187.489C533.513 187.489 540.496 180.507 540.496 171.893C540.496 163.28 533.513 156.297 524.9 156.297C516.286 156.297 509.304 163.28 509.304 171.893C509.304 180.507 516.286 187.489 524.9 187.489Z" fill="black"/>
<path d="M462.431 218.682C471.045 218.682 478.027 211.699 478.027 203.085C478.027 194.472 471.045 187.489 462.431 187.489C453.818 187.489 446.835 194.472 446.835 203.085C446.835 211.699 453.818 218.682 462.431 218.682Z" fill="black"/>
<path d="M493.624 218.682C502.237 218.682 509.22 211.699 509.22 203.085C509.22 194.472 502.237 187.489 493.624 187.489C485.01 187.489 478.027 194.472 478.027 203.085C478.027 211.699 485.01 218.682 493.624 218.682Z" fill="black"/>
<path d="M524.9 218.682C533.513 218.682 540.496 211.699 540.496 203.085C540.496 194.472 533.513 187.489 524.9 187.489C516.286 187.489 509.304 194.472 509.304 203.085C509.304 211.699 516.286 218.682 524.9 218.682Z" fill="black"/>
<path d="M462.431 249.958C471.045 249.958 478.027 242.975 478.027 234.362C478.027 225.748 471.045 218.766 462.431 218.766C453.818 218.766 446.835 225.748 446.835 234.362C446.835 242.975 453.818 249.958 462.431 249.958Z" fill="black"/>
<path d="M493.624 249.958C502.237 249.958 509.22 242.975 509.22 234.362C509.22 225.748 502.237 218.766 493.624 218.766C485.01 218.766 478.027 225.748 478.027 234.362C478.027 242.975 485.01 249.958 493.624 249.958Z" fill="black"/>
<path d="M524.9 249.958C533.513 249.958 540.496 242.975 540.496 234.362C540.496 225.748 533.513 218.766 524.9 218.766C516.286 218.766 509.304 225.748 509.304 234.362C509.304 242.975 516.286 249.958 524.9 249.958Z" fill="black"/>
<path d="M462.431 281.234C471.045 281.234 478.027 274.252 478.027 265.638C478.027 257.025 471.045 250.042 462.431 250.042C453.818 250.042 446.835 257.025 446.835 265.638C446.835 274.252 453.818 281.234 462.431 281.234Z" fill="black"/>
<path d="M493.624 281.234C502.237 281.234 509.22 274.252 509.22 265.638C509.22 257.025 502.237 250.042 493.624 250.042C485.01 250.042 478.027 257.025 478.027 265.638C478.027 274.252 485.01 281.234 493.624 281.234Z" fill="black"/>
<path d="M524.9 281.234C533.513 281.234 540.496 274.252 540.496 265.638C540.496 257.025 533.513 250.042 524.9 250.042C516.286 250.042 509.304 257.025 509.304 265.638C509.304 274.252 516.286 281.234 524.9 281.234Z" fill="black"/>
<path d="M462.431 312.427C471.045 312.427 478.027 305.444 478.027 296.831C478.027 288.217 471.045 281.234 462.431 281.234C453.818 281.234 446.835 288.217 446.835 296.831C446.835 305.444 453.818 312.427 462.431 312.427Z" fill="black"/>
<path d="M493.624 312.427C502.237 312.427 509.22 305.444 509.22 296.831C509.22 288.217 502.237 281.234 493.624 281.234C485.01 281.234 478.027 288.217 478.027 296.831C478.027 305.444 485.01 312.427 493.624 312.427Z" fill="black"/>
<path d="M524.9 312.427C533.513 312.427 540.496 305.444 540.496 296.831C540.496 288.217 533.513 281.234 524.9 281.234C516.286 281.234 509.304 288.217 509.304 296.831C509.304 305.444 516.286 312.427 524.9 312.427Z" fill="black"/>
<path d="M462.431 343.703C471.045 343.703 478.027 336.72 478.027 328.107C478.027 319.493 471.045 312.511 462.431 312.511C453.818 312.511 446.835 319.493 446.835 328.107C446.835 336.72 453.818 343.703 462.431 343.703Z" fill="black"/>
<path d="M493.624 343.703C502.237 343.703 509.22 336.72 509.22 328.107C509.22 319.493 502.237 312.511 493.624 312.511C485.01 312.511 478.027 319.493 478.027 328.107C478.027 336.72 485.01 343.703 493.624 343.703Z" fill="black"/>
<path d="M524.9 343.703C533.513 343.703 540.496 336.72 540.496 328.107C540.496 319.493 533.513 312.511 524.9 312.511C516.286 312.511 509.304 319.493 509.304 328.107C509.304 336.72 516.286 343.703 524.9 343.703Z" fill="black"/>
<path d="M462.431 374.979C471.045 374.979 478.027 367.997 478.027 359.383C478.027 350.77 471.045 343.787 462.431 343.787C453.818 343.787 446.835 350.77 446.835 359.383C446.835 367.997 453.818 374.979 462.431 374.979Z" fill="black"/>
<path d="M493.624 374.979C502.237 374.979 509.22 367.997 509.22 359.383C509.22 350.77 502.237 343.787 493.624 343.787C485.01 343.787 478.027 350.77 478.027 359.383C478.027 367.997 485.01 374.979 493.624 374.979Z" fill="black"/>
<path d="M524.9 374.979C533.513 374.979 540.496 367.997 540.496 359.383C540.496 350.77 533.513 343.787 524.9 343.787C516.286 343.787 509.304 350.77 509.304 359.383C509.304 367.997 516.286 374.979 524.9 374.979Z" fill="black"/>
<path d="M462.431 406.172C471.045 406.172 478.027 399.189 478.027 390.576C478.027 381.962 471.045 374.979 462.431 374.979C453.818 374.979 446.835 381.962 446.835 390.576C446.835 399.189 453.818 406.172 462.431 406.172Z" fill="black"/>
<path d="M493.624 406.172C502.237 406.172 509.22 399.189 509.22 390.576C509.22 381.962 502.237 374.979 493.624 374.979C485.01 374.979 478.027 381.962 478.027 390.576C478.027 399.189 485.01 406.172 493.624 406.172Z" fill="black"/>
<path d="M524.9 406.172C533.513 406.172 540.496 399.189 540.496 390.576C540.496 381.962 533.513 374.979 524.9 374.979C516.286 374.979 509.304 381.962 509.304 390.576C509.304 399.189 516.286 406.172 524.9 406.172Z" fill="black"/>
<path d="M462.431 437.447C471.045 437.447 478.027 430.465 478.027 421.851C478.027 413.238 471.045 406.255 462.431 406.255C453.818 406.255 446.835 413.238 446.835 421.851C446.835 430.465 453.818 437.447 462.431 437.447Z" fill="black"/>
<path d="M493.624 437.447C502.237 437.447 509.22 430.465 509.22 421.851C509.22 413.238 502.237 406.255 493.624 406.255C485.01 406.255 478.027 413.238 478.027 421.851C478.027 430.465 485.01 437.447 493.624 437.447Z" fill="black"/>
<path d="M524.9 437.447C533.513 437.447 540.496 430.465 540.496 421.851C540.496 413.238 533.513 406.255 524.9 406.255C516.286 406.255 509.304 413.238 509.304 421.851C509.304 430.465 516.286 437.447 524.9 437.447Z" fill="black"/>
<path d="M462.431 468.724C471.045 468.724 478.027 461.741 478.027 453.127C478.027 444.514 471.045 437.531 462.431 437.531C453.818 437.531 446.835 444.514 446.835 453.127C446.835 461.741 453.818 468.724 462.431 468.724Z" fill="black"/>
<path d="M493.624 468.724C502.237 468.724 509.22 461.741 509.22 453.127C509.22 444.514 502.237 437.531 493.624 437.531C485.01 437.531 478.027 444.514 478.027 453.127C478.027 461.741 485.01 468.724 493.624 468.724Z" fill="black"/>
<path d="M524.9 468.724C533.513 468.724 540.496 461.741 540.496 453.127C540.496 444.514 533.513 437.531 524.9 437.531C516.286 437.531 509.304 444.514 509.304 453.127C509.304 461.741 516.286 468.724 524.9 468.724Z" fill="black"/>
<path d="M462.431 500C471.045 500 478.027 493.017 478.027 484.404C478.027 475.79 471.045 468.808 462.431 468.808C453.818 468.808 446.835 475.79 446.835 484.404C446.835 493.017 453.818 500 462.431 500Z" fill="black"/>
<path d="M493.624 500C502.237 500 509.22 493.017 509.22 484.404C509.22 475.79 502.237 468.808 493.624 468.808C485.01 468.808 478.027 475.79 478.027 484.404C478.027 493.017 485.01 500 493.624 500Z" fill="black"/>
<path d="M524.9 500C533.513 500 540.496 493.017 540.496 484.404C540.496 475.79 533.513 468.808 524.9 468.808C516.286 468.808 509.304 475.79 509.304 484.404C509.304 493.017 516.286 500 524.9 500Z" fill="black"/>
<path d="M243.666 62.4687C252.279 62.4687 259.262 55.486 259.262 46.8725C259.262 38.259 252.279 31.2764 243.666 31.2764C235.052 31.2764 228.069 38.259 228.069 46.8725C228.069 55.486 235.052 62.4687 243.666 62.4687Z" fill="black"/>
<path d="M274.941 62.4687C283.554 62.4687 290.537 55.486 290.537 46.8725C290.537 38.259 283.554 31.2764 274.941 31.2764C266.327 31.2764 259.345 38.259 259.345 46.8725C259.345 55.486 266.327 62.4687 274.941 62.4687Z" fill="black"/>
<path d="M306.133 62.4687C314.747 62.4687 321.729 55.486 321.729 46.8725C321.729 38.259 314.747 31.2764 306.133 31.2764C297.52 31.2764 290.537 38.259 290.537 46.8725C290.537 55.486 297.52 62.4687 306.133 62.4687Z" fill="black"/>
<path d="M243.666 93.745C252.279 93.745 259.262 86.7624 259.262 78.1489C259.262 69.5354 252.279 62.5527 243.666 62.5527C235.052 62.5527 228.069 69.5354 228.069 78.1489C228.069 86.7624 235.052 93.745 243.666 93.745Z" fill="black"/>
<path d="M274.941 93.745C283.554 93.745 290.537 86.7624 290.537 78.1489C290.537 69.5354 283.554 62.5527 274.941 62.5527C266.327 62.5527 259.345 69.5354 259.345 78.1489C259.345 86.7624 266.327 93.745 274.941 93.745Z" fill="black"/>
<path d="M306.133 93.745C314.747 93.745 321.729 86.7624 321.729 78.1489C321.729 69.5354 314.747 62.5527 306.133 62.5527C297.52 62.5527 290.537 69.5354 290.537 78.1489C290.537 86.7624 297.52 93.745 306.133 93.745Z" fill="black"/>
<path d="M274.941 124.937C283.554 124.937 290.537 117.955 290.537 109.341C290.537 100.728 283.554 93.7451 274.941 93.7451C266.327 93.7451 259.345 100.728 259.345 109.341C259.345 117.955 266.327 124.937 274.941 124.937Z" fill="black"/>
<path d="M306.133 124.937C314.747 124.937 321.729 117.955 321.729 109.341C321.729 100.728 314.747 93.7451 306.133 93.7451C297.52 93.7451 290.537 100.728 290.537 109.341C290.537 117.955 297.52 124.937 306.133 124.937Z" fill="black"/>
<path d="M337.41 124.937C346.023 124.937 353.006 117.955 353.006 109.341C353.006 100.728 346.023 93.7451 337.41 93.7451C328.796 93.7451 321.813 100.728 321.813 109.341C321.813 117.955 328.796 124.937 337.41 124.937Z" fill="black"/>
<path d="M274.941 156.213C283.554 156.213 290.537 149.23 290.537 140.617C290.537 132.003 283.554 125.021 274.941 125.021C266.327 125.021 259.345 132.003 259.345 140.617C259.345 149.23 266.327 156.213 274.941 156.213Z" fill="black"/>
<path d="M306.133 156.213C314.747 156.213 321.729 149.23 321.729 140.617C321.729 132.003 314.747 125.021 306.133 125.021C297.52 125.021 290.537 132.003 290.537 140.617C290.537 149.23 297.52 156.213 306.133 156.213Z" fill="black"/>
<path d="M337.41 156.213C346.023 156.213 353.006 149.23 353.006 140.617C353.006 132.003 346.023 125.021 337.41 125.021C328.796 125.021 321.813 132.003 321.813 140.617C321.813 149.23 328.796 156.213 337.41 156.213Z" fill="black"/>
<path d="M306.133 187.489C314.747 187.489 321.729 180.507 321.729 171.893C321.729 163.28 314.747 156.297 306.133 156.297C297.52 156.297 290.537 163.28 290.537 171.893C290.537 180.507 297.52 187.489 306.133 187.489Z" fill="black"/>
<path d="M337.41 187.489C346.023 187.489 353.006 180.507 353.006 171.893C353.006 163.28 346.023 156.297 337.41 156.297C328.796 156.297 321.813 163.28 321.813 171.893C321.813 180.507 328.796 187.489 337.41 187.489Z" fill="black"/>
<path d="M368.686 186.735C377.3 186.735 384.282 179.753 384.282 171.139C384.282 162.526 377.3 155.543 368.686 155.543C360.072 155.543 353.09 162.526 353.09 171.139C353.09 179.753 360.072 186.735 368.686 186.735Z" fill="black"/>
<path d="M306.133 218.682C314.747 218.682 321.729 211.699 321.729 203.085C321.729 194.472 314.747 187.489 306.133 187.489C297.52 187.489 290.537 194.472 290.537 203.085C290.537 211.699 297.52 218.682 306.133 218.682Z" fill="black"/>
<path d="M337.41 218.682C346.023 218.682 353.006 211.699 353.006 203.085C353.006 194.472 346.023 187.489 337.41 187.489C328.796 187.489 321.813 194.472 321.813 203.085C321.813 211.699 328.796 218.682 337.41 218.682Z" fill="black"/>
<path d="M368.686 218.011C377.3 218.011 384.282 211.028 384.282 202.415C384.282 193.801 377.3 186.818 368.686 186.818C360.072 186.818 353.09 193.801 353.09 202.415C353.09 211.028 360.072 218.011 368.686 218.011Z" fill="black"/>
<path d="M306.133 249.958C314.747 249.958 321.729 242.975 321.729 234.362C321.729 225.748 314.747 218.766 306.133 218.766C297.52 218.766 290.537 225.748 290.537 234.362C290.537 242.975 297.52 249.958 306.133 249.958Z" fill="black"/>
<path d="M337.41 249.958C346.023 249.958 353.006 242.975 353.006 234.362C353.006 225.748 346.023 218.766 337.41 218.766C328.796 218.766 321.813 225.748 321.813 234.362C321.813 242.975 328.796 249.958 337.41 249.958Z" fill="black"/>
<path d="M368.686 249.287C377.3 249.287 384.282 242.304 384.282 233.691C384.282 225.077 377.3 218.095 368.686 218.095C360.072 218.095 353.09 225.077 353.09 233.691C353.09 242.304 360.072 249.287 368.686 249.287Z" fill="black"/>
<path d="M337.41 281.234C346.023 281.234 353.006 274.252 353.006 265.638C353.006 257.025 346.023 250.042 337.41 250.042C328.796 250.042 321.813 257.025 321.813 265.638C321.813 274.252 328.796 281.234 337.41 281.234Z" fill="black"/>
<path d="M368.686 280.479C377.3 280.479 384.282 273.497 384.282 264.883C384.282 256.27 377.3 249.287 368.686 249.287C360.072 249.287 353.09 256.27 353.09 264.883C353.09 273.497 360.072 280.479 368.686 280.479Z" fill="black"/>
<path d="M337.41 312.427C346.023 312.427 353.006 305.444 353.006 296.831C353.006 288.217 346.023 281.234 337.41 281.234C328.796 281.234 321.813 288.217 321.813 296.831C321.813 305.444 328.796 312.427 337.41 312.427Z" fill="black"/>
<path d="M368.686 311.756C377.3 311.756 384.282 304.773 384.282 296.16C384.282 287.546 377.3 280.563 368.686 280.563C360.072 280.563 353.09 287.546 353.09 296.16C353.09 304.773 360.072 311.756 368.686 311.756Z" fill="black"/>
<path d="M399.878 311.756C408.492 311.756 415.475 304.773 415.475 296.16C415.475 287.546 408.492 280.563 399.878 280.563C391.265 280.563 384.282 287.546 384.282 296.16C384.282 304.773 391.265 311.756 399.878 311.756Z" fill="black"/>
<path d="M337.41 343.703C346.023 343.703 353.006 336.72 353.006 328.107C353.006 319.493 346.023 312.511 337.41 312.511C328.796 312.511 321.813 319.493 321.813 328.107C321.813 336.72 328.796 343.703 337.41 343.703Z" fill="black"/>
<path d="M368.686 343.032C377.3 343.032 384.282 336.05 384.282 327.436C384.282 318.822 377.3 311.84 368.686 311.84C360.072 311.84 353.09 318.822 353.09 327.436C353.09 336.05 360.072 343.032 368.686 343.032Z" fill="black"/>
<path d="M399.878 343.032C408.492 343.032 415.475 336.05 415.475 327.436C415.475 318.822 408.492 311.84 399.878 311.84C391.265 311.84 384.282 318.822 384.282 327.436C384.282 336.05 391.265 343.032 399.878 343.032Z" fill="black"/>
<path d="M368.686 374.225C377.3 374.225 384.282 367.242 384.282 358.628C384.282 350.015 377.3 343.032 368.686 343.032C360.072 343.032 353.09 350.015 353.09 358.628C353.09 367.242 360.072 374.225 368.686 374.225Z" fill="black"/>
<path d="M399.878 374.225C408.492 374.225 415.475 367.242 415.475 358.628C415.475 350.015 408.492 343.032 399.878 343.032C391.265 343.032 384.282 350.015 384.282 358.628C384.282 367.242 391.265 374.225 399.878 374.225Z" fill="black"/>
<path d="M368.686 405.501C377.3 405.501 384.282 398.518 384.282 389.905C384.282 381.291 377.3 374.309 368.686 374.309C360.072 374.309 353.09 381.291 353.09 389.905C353.09 398.518 360.072 405.501 368.686 405.501Z" fill="black"/>
<path d="M399.878 405.501C408.492 405.501 415.475 398.518 415.475 389.905C415.475 381.291 408.492 374.309 399.878 374.309C391.265 374.309 384.282 381.291 384.282 389.905C384.282 398.518 391.265 405.501 399.878 405.501Z" fill="black"/>
<path d="M399.878 436.776C408.492 436.776 415.475 429.794 415.475 421.18C415.475 412.567 408.492 405.584 399.878 405.584C391.265 405.584 384.282 412.567 384.282 421.18C384.282 429.794 391.265 436.776 399.878 436.776Z" fill="black"/>
<path d="M431.155 437.447C439.768 437.447 446.751 430.465 446.751 421.851C446.751 413.238 439.768 406.255 431.155 406.255C422.541 406.255 415.559 413.238 415.559 421.851C415.559 430.465 422.541 437.447 431.155 437.447Z" fill="black"/>
<path d="M431.155 468.724C439.768 468.724 446.751 461.741 446.751 453.127C446.751 444.514 439.768 437.531 431.155 437.531C422.541 437.531 415.559 444.514 415.559 453.127C415.559 461.741 422.541 468.724 431.155 468.724Z" fill="black"/>
<path d="M431.155 500C439.768 500 446.751 493.017 446.751 484.404C446.751 475.79 439.768 468.808 431.155 468.808C422.541 468.808 415.559 475.79 415.559 484.404C415.559 493.017 422.541 500 431.155 500Z" fill="black"/>
<path d="M431.155 406.172C439.768 406.172 446.751 399.189 446.751 390.576C446.751 381.962 439.768 374.979 431.155 374.979C422.541 374.979 415.559 381.962 415.559 390.576C415.559 399.189 422.541 406.172 431.155 406.172Z" fill="black"/>
<path d="M306.133 62.4687C314.747 62.4687 321.729 55.486 321.729 46.8725C321.729 38.259 314.747 31.2764 306.133 31.2764C297.52 31.2764 290.537 38.259 290.537 46.8725C290.537 55.486 297.52 62.4687 306.133 62.4687Z" fill="black"/>
<path d="M399.878 467.969C408.492 467.969 415.475 460.986 415.475 452.373C415.475 443.759 408.492 436.776 399.878 436.776C391.265 436.776 384.282 443.759 384.282 452.373C384.282 460.986 391.265 467.969 399.878 467.969Z" fill="black"/>
<path d="M337.41 93.745C346.023 93.745 353.006 86.7624 353.006 78.1489C353.006 69.5354 346.023 62.5527 337.41 62.5527C328.796 62.5527 321.813 69.5354 321.813 78.1489C321.813 86.7624 328.796 93.745 337.41 93.745Z" fill="black"/>
<path d="M368.686 436.776C377.3 436.776 384.282 429.794 384.282 421.18C384.282 412.567 377.3 405.584 368.686 405.584C360.072 405.584 353.09 412.567 353.09 421.18C353.09 429.794 360.072 436.776 368.686 436.776Z" fill="black"/>
<path d="M15.5963 31.1923C24.2098 31.1923 31.1924 24.2097 31.1924 15.5962C31.1924 6.98265 24.2098 0 15.5963 0C6.98278 0 0 6.98265 0 15.5962C0 24.2097 6.98278 31.1923 15.5963 31.1923Z" fill="black"/>
<path d="M46.7887 31.1923C55.4022 31.1923 62.3847 24.2097 62.3847 15.5962C62.3847 6.98265 55.4022 0 46.7887 0C38.1752 0 31.1924 6.98265 31.1924 15.5962C31.1924 24.2097 38.1752 31.1923 46.7887 31.1923Z" fill="black"/>
<path d="M78.0648 31.1923C86.6783 31.1923 93.6611 24.2097 93.6611 15.5962C93.6611 6.98265 86.6783 0 78.0648 0C69.4513 0 62.4688 6.98265 62.4688 15.5962C62.4688 24.2097 69.4513 31.1923 78.0648 31.1923Z" fill="black"/>
<path d="M15.5963 62.4687C24.2098 62.4687 31.1924 55.4861 31.1924 46.8725C31.1924 38.259 24.2098 31.2764 15.5963 31.2764C6.98278 31.2764 0 38.259 0 46.8725C0 55.4861 6.98278 62.4687 15.5963 62.4687Z" fill="black"/>
<path d="M46.7887 62.4687C55.4022 62.4687 62.3847 55.4861 62.3847 46.8725C62.3847 38.259 55.4022 31.2764 46.7887 31.2764C38.1752 31.2764 31.1924 38.259 31.1924 46.8725C31.1924 55.4861 38.1752 62.4687 46.7887 62.4687Z" fill="black"/>
<path d="M78.0648 62.4687C86.6783 62.4687 93.6611 55.4861 93.6611 46.8725C93.6611 38.259 86.6783 31.2764 78.0648 31.2764C69.4513 31.2764 62.4688 38.259 62.4688 46.8725C62.4688 55.4861 69.4513 62.4687 78.0648 62.4687Z" fill="black"/>
<path d="M15.5963 93.7451C24.2098 93.7451 31.1924 86.7624 31.1924 78.1489C31.1924 69.5354 24.2098 62.5527 15.5963 62.5527C6.98278 62.5527 0 69.5354 0 78.1489C0 86.7624 6.98278 93.7451 15.5963 93.7451Z" fill="black"/>
<path d="M46.7887 93.7451C55.4022 93.7451 62.3847 86.7624 62.3847 78.1489C62.3847 69.5354 55.4022 62.5527 46.7887 62.5527C38.1752 62.5527 31.1924 69.5354 31.1924 78.1489C31.1924 86.7624 38.1752 93.7451 46.7887 93.7451Z" fill="black"/>
<path d="M78.0648 93.7451C86.6783 93.7451 93.6611 86.7624 93.6611 78.1489C93.6611 69.5354 86.6783 62.5527 78.0648 62.5527C69.4513 62.5527 62.4688 69.5354 62.4688 78.1489C62.4688 86.7624 69.4513 93.7451 78.0648 93.7451Z" fill="black"/>
<path d="M15.5963 124.937C24.2098 124.937 31.1924 117.955 31.1924 109.341C31.1924 100.728 24.2098 93.7451 15.5963 93.7451C6.98278 93.7451 0 100.728 0 109.341C0 117.955 6.98278 124.937 15.5963 124.937Z" fill="black"/>
<path d="M46.7887 124.937C55.4022 124.937 62.3847 117.955 62.3847 109.341C62.3847 100.728 55.4022 93.7451 46.7887 93.7451C38.1752 93.7451 31.1924 100.728 31.1924 109.341C31.1924 117.955 38.1752 124.937 46.7887 124.937Z" fill="black"/>
<path d="M78.0648 124.937C86.6783 124.937 93.6611 117.955 93.6611 109.341C93.6611 100.728 86.6783 93.7451 78.0648 93.7451C69.4513 93.7451 62.4688 100.728 62.4688 109.341C62.4688 117.955 69.4513 124.937 78.0648 124.937Z" fill="black"/>
<path d="M15.5963 156.213C24.2098 156.213 31.1924 149.23 31.1924 140.617C31.1924 132.003 24.2098 125.021 15.5963 125.021C6.98278 125.021 0 132.003 0 140.617C0 149.23 6.98278 156.213 15.5963 156.213Z" fill="black"/>
<path d="M46.7887 156.213C55.4022 156.213 62.3847 149.23 62.3847 140.617C62.3847 132.003 55.4022 125.021 46.7887 125.021C38.1752 125.021 31.1924 132.003 31.1924 140.617C31.1924 149.23 38.1752 156.213 46.7887 156.213Z" fill="black"/>
<path d="M78.0648 156.213C86.6783 156.213 93.6611 149.23 93.6611 140.617C93.6611 132.003 86.6783 125.021 78.0648 125.021C69.4513 125.021 62.4688 132.003 62.4688 140.617C62.4688 149.23 69.4513 156.213 78.0648 156.213Z" fill="black"/>
<path d="M15.5963 187.489C24.2098 187.489 31.1924 180.507 31.1924 171.893C31.1924 163.28 24.2098 156.297 15.5963 156.297C6.98278 156.297 0 163.28 0 171.893C0 180.507 6.98278 187.489 15.5963 187.489Z" fill="black"/>
<path d="M46.7887 187.489C55.4022 187.489 62.3847 180.507 62.3847 171.893C62.3847 163.28 55.4022 156.297 46.7887 156.297C38.1752 156.297 31.1924 163.28 31.1924 171.893C31.1924 180.507 38.1752 187.489 46.7887 187.489Z" fill="black"/>
<path d="M78.0648 187.489C86.6783 187.489 93.6611 180.507 93.6611 171.893C93.6611 163.28 86.6783 156.297 78.0648 156.297C69.4513 156.297 62.4688 163.28 62.4688 171.893C62.4688 180.507 69.4513 187.489 78.0648 187.489Z" fill="black"/>
<path d="M15.5963 218.766C24.2098 218.766 31.1924 211.783 31.1924 203.169C31.1924 194.556 24.2098 187.573 15.5963 187.573C6.98278 187.573 0 194.556 0 203.169C0 211.783 6.98278 218.766 15.5963 218.766Z" fill="black"/>
<path d="M46.7887 218.766C55.4022 218.766 62.3847 211.783 62.3847 203.169C62.3847 194.556 55.4022 187.573 46.7887 187.573C38.1752 187.573 31.1924 194.556 31.1924 203.169C31.1924 211.783 38.1752 218.766 46.7887 218.766Z" fill="black"/>
<path d="M78.0648 218.766C86.6783 218.766 93.6611 211.783 93.6611 203.169C93.6611 194.556 86.6783 187.573 78.0648 187.573C69.4513 187.573 62.4688 194.556 62.4688 203.169C62.4688 211.783 69.4513 218.766 78.0648 218.766Z" fill="black"/>
<path d="M15.5963 249.958C24.2098 249.958 31.1924 242.975 31.1924 234.362C31.1924 225.748 24.2098 218.766 15.5963 218.766C6.98278 218.766 0 225.748 0 234.362C0 242.975 6.98278 249.958 15.5963 249.958Z" fill="black"/>
<path d="M46.7887 249.958C55.4022 249.958 62.3847 242.975 62.3847 234.362C62.3847 225.748 55.4022 218.766 46.7887 218.766C38.1752 218.766 31.1924 225.748 31.1924 234.362C31.1924 242.975 38.1752 249.958 46.7887 249.958Z" fill="black"/>
<path d="M78.0648 249.958C86.6783 249.958 93.6611 242.975 93.6611 234.362C93.6611 225.748 86.6783 218.766 78.0648 218.766C69.4513 218.766 62.4688 225.748 62.4688 234.362C62.4688 242.975 69.4513 249.958 78.0648 249.958Z" fill="black"/>
<path d="M15.5963 281.234C24.2098 281.234 31.1924 274.252 31.1924 265.638C31.1924 257.025 24.2098 250.042 15.5963 250.042C6.98278 250.042 0 257.025 0 265.638C0 274.252 6.98278 281.234 15.5963 281.234Z" fill="black"/>
<path d="M46.7887 281.234C55.4022 281.234 62.3847 274.252 62.3847 265.638C62.3847 257.025 55.4022 250.042 46.7887 250.042C38.1752 250.042 31.1924 257.025 31.1924 265.638C31.1924 274.252 38.1752 281.234 46.7887 281.234Z" fill="black"/>
<path d="M78.0648 281.234C86.6783 281.234 93.6611 274.252 93.6611 265.638C93.6611 257.025 86.6783 250.042 78.0648 250.042C69.4513 250.042 62.4688 257.025 62.4688 265.638C62.4688 274.252 69.4513 281.234 78.0648 281.234Z" fill="black"/>
<path d="M15.5963 312.511C24.2098 312.511 31.1924 305.528 31.1924 296.915C31.1924 288.301 24.2098 281.318 15.5963 281.318C6.98278 281.318 0 288.301 0 296.915C0 305.528 6.98278 312.511 15.5963 312.511Z" fill="black"/>
<path d="M46.7887 312.511C55.4022 312.511 62.3847 305.528 62.3847 296.915C62.3847 288.301 55.4022 281.318 46.7887 281.318C38.1752 281.318 31.1924 288.301 31.1924 296.915C31.1924 305.528 38.1752 312.511 46.7887 312.511Z" fill="black"/>
<path d="M78.0648 312.511C86.6783 312.511 93.6611 305.528 93.6611 296.915C93.6611 288.301 86.6783 281.318 78.0648 281.318C69.4513 281.318 62.4688 288.301 62.4688 296.915C62.4688 305.528 69.4513 312.511 78.0648 312.511Z" fill="black"/>
<path d="M15.5963 343.703C24.2098 343.703 31.1924 336.72 31.1924 328.107C31.1924 319.493 24.2098 312.511 15.5963 312.511C6.98278 312.511 0 319.493 0 328.107C0 336.72 6.98278 343.703 15.5963 343.703Z" fill="black"/>
<path d="M46.7887 343.703C55.4022 343.703 62.3847 336.72 62.3847 328.107C62.3847 319.493 55.4022 312.511 46.7887 312.511C38.1752 312.511 31.1924 319.493 31.1924 328.107C31.1924 336.72 38.1752 343.703 46.7887 343.703Z" fill="black"/>
<path d="M78.0648 343.703C86.6783 343.703 93.6611 336.72 93.6611 328.107C93.6611 319.493 86.6783 312.511 78.0648 312.511C69.4513 312.511 62.4688 319.493 62.4688 328.107C62.4688 336.72 69.4513 343.703 78.0648 343.703Z" fill="black"/>
<path d="M15.5963 374.979C24.2098 374.979 31.1924 367.997 31.1924 359.383C31.1924 350.77 24.2098 343.787 15.5963 343.787C6.98278 343.787 0 350.77 0 359.383C0 367.997 6.98278 374.979 15.5963 374.979Z" fill="black"/>
<path d="M46.7887 374.979C55.4022 374.979 62.3847 367.997 62.3847 359.383C62.3847 350.77 55.4022 343.787 46.7887 343.787C38.1752 343.787 31.1924 350.77 31.1924 359.383C31.1924 367.997 38.1752 374.979 46.7887 374.979Z" fill="black"/>
<path d="M78.0648 374.979C86.6783 374.979 93.6611 367.997 93.6611 359.383C93.6611 350.77 86.6783 343.787 78.0648 343.787C69.4513 343.787 62.4688 350.77 62.4688 359.383C62.4688 367.997 69.4513 374.979 78.0648 374.979Z" fill="black"/>
<path d="M15.5963 406.255C24.2098 406.255 31.1924 399.272 31.1924 390.659C31.1924 382.045 24.2098 375.062 15.5963 375.062C6.98278 375.062 0 382.045 0 390.659C0 399.272 6.98278 406.255 15.5963 406.255Z" fill="black"/>
<path d="M46.7887 406.255C55.4022 406.255 62.3847 399.272 62.3847 390.659C62.3847 382.045 55.4022 375.062 46.7887 375.062C38.1752 375.062 31.1924 382.045 31.1924 390.659C31.1924 399.272 38.1752 406.255 46.7887 406.255Z" fill="black"/>
<path d="M78.0648 406.255C86.6783 406.255 93.6611 399.272 93.6611 390.659C93.6611 382.045 86.6783 375.062 78.0648 375.062C69.4513 375.062 62.4688 382.045 62.4688 390.659C62.4688 399.272 69.4513 406.255 78.0648 406.255Z" fill="black"/>
<path d="M15.5963 437.447C24.2098 437.447 31.1924 430.465 31.1924 421.851C31.1924 413.238 24.2098 406.255 15.5963 406.255C6.98278 406.255 0 413.238 0 421.851C0 430.465 6.98278 437.447 15.5963 437.447Z" fill="black"/>
<path d="M46.7887 437.447C55.4022 437.447 62.3847 430.465 62.3847 421.851C62.3847 413.238 55.4022 406.255 46.7887 406.255C38.1752 406.255 31.1924 413.238 31.1924 421.851C31.1924 430.465 38.1752 437.447 46.7887 437.447Z" fill="black"/>
<path d="M78.0648 437.447C86.6783 437.447 93.6611 430.465 93.6611 421.851C93.6611 413.238 86.6783 406.255 78.0648 406.255C69.4513 406.255 62.4688 413.238 62.4688 421.851C62.4688 430.465 69.4513 437.447 78.0648 437.447Z" fill="black"/>
<path d="M15.5963 468.724C24.2098 468.724 31.1924 461.741 31.1924 453.127C31.1924 444.514 24.2098 437.531 15.5963 437.531C6.98278 437.531 0 444.514 0 453.127C0 461.741 6.98278 468.724 15.5963 468.724Z" fill="black"/>
<path d="M46.7887 468.724C55.4022 468.724 62.3847 461.741 62.3847 453.127C62.3847 444.514 55.4022 437.531 46.7887 437.531C38.1752 437.531 31.1924 444.514 31.1924 453.127C31.1924 461.741 38.1752 468.724 46.7887 468.724Z" fill="black"/>
<path d="M78.0648 468.724C86.6783 468.724 93.6611 461.741 93.6611 453.127C93.6611 444.514 86.6783 437.531 78.0648 437.531C69.4513 437.531 62.4688 444.514 62.4688 453.127C62.4688 461.741 69.4513 468.724 78.0648 468.724Z" fill="black"/>
<path d="M15.5963 500C24.2098 500 31.1924 493.017 31.1924 484.404C31.1924 475.79 24.2098 468.808 15.5963 468.808C6.98278 468.808 0 475.79 0 484.404C0 493.017 6.98278 500 15.5963 500Z" fill="black"/>
<path d="M46.7887 500C55.4022 500 62.3847 493.017 62.3847 484.404C62.3847 475.79 55.4022 468.808 46.7887 468.808C38.1752 468.808 31.1924 475.79 31.1924 484.404C31.1924 493.017 38.1752 500 46.7887 500Z" fill="black"/>
<path d="M78.0648 500C86.6783 500 93.6611 493.017 93.6611 484.404C93.6611 475.79 86.6783 468.808 78.0648 468.808C69.4513 468.808 62.4688 475.79 62.4688 484.404C62.4688 493.017 69.4513 500 78.0648 500Z" fill="black"/>
</svg>
