<svg width="541" height="506" viewBox="0 0 541 506" fill="none" xmlns="http://www.w3.org/2000/svg">
<path d="M196.793 18.5962C196.793 27.2328 189.833 34.1924 181.197 34.1924C172.56 34.1924 165.517 41.2358 165.517 49.8723C165.517 58.5089 158.557 65.4685 149.92 65.4685C141.284 65.4685 134.324 58.5089 134.324 49.8723C134.324 41.2358 141.284 34.1924 149.92 34.1924C158.557 34.1924 165.517 27.2328 165.517 18.5962C165.517 9.95959 172.56 3 181.197 3C189.833 3 196.793 9.95959 196.793 18.5962Z" stroke="black" stroke-width="5" stroke-miterlimit="10"/>
<path d="M259.261 18.5962C259.261 27.2328 252.302 34.1924 243.665 34.1924C235.029 34.1924 228.069 41.2358 228.069 49.8723C228.069 58.5089 221.026 65.4685 212.389 65.4685C203.752 65.4685 196.793 72.512 196.793 81.0647C196.793 89.6175 189.833 96.7448 181.197 96.7448C172.56 96.7448 165.517 103.704 165.517 112.341C165.517 120.978 158.557 127.937 149.92 127.937C141.284 127.937 134.324 120.978 134.324 112.341C134.324 103.704 141.284 96.7448 149.92 96.7448C158.557 96.7448 165.517 89.7013 165.517 81.0647C165.517 72.4281 172.56 65.4685 181.197 65.4685C189.833 65.4685 196.793 58.5089 196.793 49.8723C196.793 41.2358 203.752 34.1924 212.389 34.1924C221.026 34.1924 228.069 27.2328 228.069 18.5962C228.069 9.95959 235.029 3 243.665 3C252.302 3 259.261 9.95959 259.261 18.5962Z" stroke="black" stroke-width="5" stroke-miterlimit="10"/>
<path d="M228.069 112.341C228.069 120.978 221.026 127.937 212.389 127.937C203.752 127.937 196.793 134.981 196.793 143.617C196.793 152.254 189.833 159.214 181.197 159.214C172.56 159.214 165.517 166.257 165.517 174.894C165.517 183.53 158.557 190.49 149.92 190.49C141.284 190.49 134.324 183.446 134.324 174.894C134.324 166.341 141.284 159.214 149.92 159.214C158.557 159.214 165.517 152.254 165.517 143.617C165.517 134.981 172.56 127.937 181.197 127.937C189.833 127.937 196.793 120.978 196.793 112.341C196.793 103.705 203.752 96.7451 212.389 96.7451C221.026 96.7451 228.069 103.705 228.069 112.341Z" stroke="black" stroke-width="5" stroke-miterlimit="10"/>
<path d="M228.069 174.893C228.069 183.446 221.026 190.489 212.389 190.489C203.752 190.489 196.793 197.449 196.793 206.085C196.793 214.722 189.833 221.765 181.197 221.765C172.56 221.765 165.517 228.725 165.517 237.361C165.517 245.998 158.557 252.958 149.92 252.958C141.284 252.958 134.324 245.998 134.324 237.361C134.324 228.725 141.284 221.765 149.92 221.765C158.557 221.765 165.517 214.722 165.517 206.085C165.517 197.449 172.56 190.489 181.197 190.489C189.833 190.489 196.793 183.446 196.793 174.893C196.793 166.34 203.752 159.213 212.389 159.213C221.026 159.213 228.069 166.256 228.069 174.893Z" stroke="black" stroke-width="5" stroke-miterlimit="10"/>
<path d="M228.069 237.362C228.069 245.998 221.026 252.958 212.389 252.958C203.752 252.958 196.793 260.001 196.793 268.638C196.793 277.275 189.833 284.234 181.197 284.234C172.56 284.234 165.517 291.194 165.517 299.83C165.517 308.467 158.557 315.51 149.92 315.51C141.284 315.51 134.324 308.467 134.324 299.83C134.324 291.194 141.284 284.234 149.92 284.234C158.557 284.234 165.517 277.191 165.517 268.638C165.517 260.085 172.56 252.958 181.197 252.958C189.833 252.958 196.793 245.998 196.793 237.362C196.793 228.725 203.752 221.766 212.389 221.766C221.026 221.766 228.069 228.725 228.069 237.362Z" stroke="black" stroke-width="5" stroke-miterlimit="10"/>
<path d="M228.069 299.831C228.069 308.467 221.026 315.511 212.389 315.511C203.752 315.511 196.793 322.47 196.793 331.107C196.793 339.743 189.833 346.703 181.197 346.703C172.56 346.703 165.517 353.746 165.517 362.383C165.517 371.02 158.557 377.979 149.92 377.979C141.284 377.979 134.324 371.02 134.324 362.383C134.324 353.746 141.284 346.703 149.92 346.703C158.557 346.703 165.517 339.743 165.517 331.107C165.517 322.47 172.56 315.511 181.197 315.511C189.833 315.511 196.793 308.467 196.793 299.831C196.793 291.194 203.752 284.234 212.389 284.234C221.026 284.234 228.069 291.194 228.069 299.831Z" stroke="black" stroke-width="5" stroke-miterlimit="10"/>
<path d="M228.069 362.383C228.069 371.02 221.026 377.979 212.389 377.979C203.752 377.979 196.793 384.939 196.793 393.576C196.793 402.212 189.833 409.256 181.197 409.256C172.56 409.256 165.517 416.215 165.517 424.852C165.517 433.488 158.557 440.448 149.92 440.448C141.284 440.448 134.324 433.488 134.324 424.852C134.324 416.215 141.284 409.256 149.92 409.256C158.557 409.256 165.517 402.212 165.517 393.576C165.517 384.939 172.56 377.979 181.197 377.979C189.833 377.979 196.793 371.02 196.793 362.383C196.793 353.747 203.752 346.703 212.389 346.703C221.026 346.703 228.069 353.747 228.069 362.383Z" stroke="black" stroke-width="5" stroke-miterlimit="10"/>
<path d="M228.069 424.851C228.069 433.488 221.026 440.447 212.389 440.447C203.752 440.447 196.793 447.491 196.793 456.127C196.793 464.764 189.833 471.723 181.197 471.723C172.56 471.723 165.517 478.683 165.517 487.32C165.517 495.956 158.557 503 149.92 503C141.284 503 134.324 495.956 134.324 487.32C134.324 478.683 141.284 471.723 149.92 471.723C158.557 471.723 165.517 464.764 165.517 456.127C165.517 447.491 172.56 440.447 181.197 440.447C189.833 440.447 196.793 433.488 196.793 424.851C196.793 416.214 203.752 409.255 212.389 409.255C221.026 409.255 228.069 416.214 228.069 424.851Z" stroke="black" stroke-width="5" stroke-miterlimit="10"/>
<path d="M212.389 502.916C221.003 502.916 227.985 495.933 227.985 487.32C227.985 478.706 221.003 471.724 212.389 471.724C203.776 471.724 196.793 478.706 196.793 487.32C196.793 495.933 203.776 502.916 212.389 502.916Z" stroke="black" stroke-width="5" stroke-miterlimit="10"/>
<path d="M458.993 34.1924C467.606 34.1924 474.589 27.2097 474.589 18.5962C474.589 9.98265 467.606 3 458.993 3C450.379 3 443.396 9.98265 443.396 18.5962C443.396 27.2097 450.379 34.1924 458.993 34.1924Z" stroke="black" stroke-width="5" stroke-miterlimit="10"/>
<path d="M537.141 18.5962C537.141 27.2328 530.182 34.1924 521.545 34.1924C512.908 34.1924 505.949 41.2358 505.949 49.8723C505.949 58.5089 498.905 65.4685 490.269 65.4685C481.632 65.4685 474.673 72.512 474.673 81.0647C474.673 89.6175 467.713 96.7448 459.076 96.7448C450.44 96.7448 443.396 89.7013 443.396 81.0647C443.396 72.4281 450.44 65.4685 459.076 65.4685C467.713 65.4685 474.673 58.5089 474.673 49.8723C474.673 41.2358 481.632 34.1924 490.269 34.1924C498.905 34.1924 505.949 27.2328 505.949 18.5962C505.949 9.95959 512.908 3 521.545 3C530.182 3 537.141 9.95959 537.141 18.5962Z" stroke="black" stroke-width="5" stroke-miterlimit="10"/>
<path d="M537.141 143.617C537.141 152.254 530.182 159.214 521.545 159.214C512.908 159.214 505.949 166.257 505.949 174.894C505.949 183.53 498.905 190.49 490.269 190.49C481.632 190.49 474.673 197.449 474.673 206.086C474.673 214.723 467.713 221.766 459.076 221.766C450.44 221.766 443.396 214.723 443.396 206.086C443.396 197.449 450.44 190.49 459.076 190.49C467.713 190.49 474.673 183.446 474.673 174.894C474.673 166.341 481.632 159.214 490.269 159.214C498.905 159.214 505.949 152.254 505.949 143.617C505.949 134.981 512.908 127.938 521.545 127.938C530.182 127.938 537.141 134.981 537.141 143.617Z" stroke="black" stroke-width="5" stroke-miterlimit="10"/>
<path d="M537.141 206.085C537.141 214.722 530.182 221.765 521.545 221.765C512.908 221.765 505.949 228.725 505.949 237.362C505.949 245.998 498.905 252.958 490.269 252.958C481.632 252.958 474.673 260.001 474.673 268.638C474.673 277.274 467.713 284.234 459.076 284.234C450.44 284.234 443.396 277.191 443.396 268.638C443.396 260.085 450.44 252.958 459.076 252.958C467.713 252.958 474.673 245.998 474.673 237.362C474.673 228.725 481.632 221.765 490.269 221.765C498.905 221.765 505.949 214.722 505.949 206.085C505.949 197.449 512.908 190.489 521.545 190.489C530.182 190.489 537.141 197.449 537.141 206.085Z" stroke="black" stroke-width="5" stroke-miterlimit="10"/>
<path d="M537.141 268.638C537.141 277.191 530.182 284.234 521.545 284.234C512.908 284.234 505.949 291.194 505.949 299.83C505.949 308.467 498.905 315.51 490.269 315.51C481.632 315.51 474.673 322.47 474.673 331.107C474.673 339.743 467.713 346.703 459.076 346.703C450.44 346.703 443.396 339.743 443.396 331.107C443.396 322.47 450.44 315.51 459.076 315.51C467.713 315.51 474.673 308.467 474.673 299.83C474.673 291.194 481.632 284.234 490.269 284.234C498.905 284.234 505.949 277.191 505.949 268.638C505.949 260.085 512.908 252.958 521.545 252.958C530.182 252.958 537.141 260.001 537.141 268.638Z" stroke="black" stroke-width="5" stroke-miterlimit="10"/>
<path d="M537.141 456.127C537.141 464.764 530.182 471.723 521.545 471.723C512.909 471.723 505.949 478.683 505.949 487.32C505.949 495.956 498.906 503 490.269 503C481.632 503 474.673 495.956 474.673 487.32C474.673 478.683 481.632 471.723 490.269 471.723C498.906 471.723 505.949 464.764 505.949 456.127C505.949 447.491 512.909 440.447 521.545 440.447C530.182 440.447 537.141 447.491 537.141 456.127Z" stroke="black" stroke-width="5" stroke-miterlimit="10"/>
<path d="M290.538 49.8724C290.538 58.509 283.578 65.4686 274.942 65.4686C266.305 65.4686 259.262 72.512 259.262 81.0647C259.262 89.6175 252.302 96.7448 243.666 96.7448C235.029 96.7448 228.069 89.7013 228.069 81.0647C228.069 72.4281 235.029 65.4686 243.666 65.4686C252.302 65.4686 259.262 58.509 259.262 49.8724C259.262 41.2358 266.305 34.1924 274.942 34.1924C283.578 34.1924 290.538 41.2358 290.538 49.8724Z" stroke="black" stroke-width="5" stroke-miterlimit="10"/>
<path d="M321.814 81.0649C321.814 89.7015 314.771 96.745 306.134 96.745C297.498 96.745 290.538 103.705 290.538 112.341C290.538 120.978 283.578 127.937 274.942 127.937C266.305 127.937 259.262 120.978 259.262 112.341C259.262 103.705 266.305 96.745 274.942 96.745C283.578 96.745 290.538 89.7015 290.538 81.0649C290.538 72.4283 297.498 65.4688 306.134 65.4688C314.771 65.4688 321.814 72.5122 321.814 81.0649Z" stroke="black" stroke-width="5" stroke-miterlimit="10"/>
<path d="M353.006 112.341C353.006 120.978 346.046 127.937 337.409 127.937C328.773 127.937 321.813 134.981 321.813 143.617C321.813 152.254 314.77 159.214 306.133 159.214C297.497 159.214 290.537 152.254 290.537 143.617C290.537 134.981 297.497 127.937 306.133 127.937C314.77 127.937 321.813 120.978 321.813 112.341C321.813 103.705 328.773 96.7451 337.409 96.7451C346.046 96.7451 353.006 103.705 353.006 112.341Z" stroke="black" stroke-width="5" stroke-miterlimit="10"/>
<path d="M353.006 174.893C353.006 183.446 346.046 190.489 337.409 190.489C328.773 190.489 321.813 197.449 321.813 206.085C321.813 214.722 314.77 221.765 306.133 221.765C297.497 221.765 290.537 214.722 290.537 206.085C290.537 197.449 297.497 190.489 306.133 190.489C314.77 190.489 321.813 183.446 321.813 174.893C321.813 166.34 328.773 159.213 337.409 159.213C346.046 159.213 353.006 166.256 353.006 174.893Z" stroke="black" stroke-width="5" stroke-miterlimit="10"/>
<path d="M384.282 206.085C384.282 214.722 377.322 221.765 368.686 221.765C360.049 221.765 353.006 228.725 353.006 237.362C353.006 245.998 346.046 252.958 337.41 252.958C328.773 252.958 321.813 245.998 321.813 237.362C321.813 228.725 328.773 221.765 337.41 221.765C346.046 221.765 353.006 214.722 353.006 206.085C353.006 197.449 360.049 190.489 368.686 190.489C377.322 190.489 384.282 197.449 384.282 206.085Z" stroke="black" stroke-width="5" stroke-miterlimit="10"/>
<path d="M384.282 268.638C384.282 277.191 377.322 284.234 368.686 284.234C360.049 284.234 353.006 291.194 353.006 299.83C353.006 308.467 346.046 315.51 337.41 315.51C328.773 315.51 321.813 308.467 321.813 299.83C321.813 291.194 328.773 284.234 337.41 284.234C346.046 284.234 353.006 277.191 353.006 268.638C353.006 260.085 360.049 252.958 368.686 252.958C377.322 252.958 384.282 260.001 384.282 268.638Z" stroke="black" stroke-width="5" stroke-miterlimit="10"/>
<path d="M415.558 299.831C415.558 308.467 408.515 315.511 399.878 315.511C391.242 315.511 384.282 322.47 384.282 331.107C384.282 339.743 377.322 346.703 368.686 346.703C360.049 346.703 353.006 339.743 353.006 331.107C353.006 322.47 360.049 315.511 368.686 315.511C377.322 315.511 384.282 308.467 384.282 299.831C384.282 291.194 391.325 284.234 399.878 284.234C408.431 284.234 415.558 291.194 415.558 299.831Z" stroke="black" stroke-width="5" stroke-miterlimit="10"/>
<path d="M537.141 393.576C537.141 402.212 530.182 409.256 521.545 409.256C512.908 409.256 505.949 416.215 505.949 424.852C505.949 433.488 498.905 440.448 490.269 440.448C481.632 440.448 474.673 447.491 474.673 456.128C474.673 464.765 467.713 471.724 459.076 471.724C450.44 471.724 443.396 464.765 443.396 456.128C443.396 447.491 450.44 440.448 459.076 440.448C467.713 440.448 474.673 433.488 474.673 424.852C474.673 416.215 481.632 409.256 490.269 409.256C498.905 409.256 505.949 402.212 505.949 393.576C505.949 384.939 512.908 377.979 521.545 377.979C530.182 377.979 537.141 384.939 537.141 393.576Z" stroke="black" stroke-width="5" stroke-miterlimit="10"/>
<path d="M442.977 424.851C442.977 433.488 436.018 440.447 427.381 440.447C418.745 440.447 411.701 447.491 411.701 456.127C411.701 464.764 404.742 471.723 396.105 471.723C387.468 471.723 380.509 464.764 380.509 456.127C380.509 447.491 387.468 440.447 396.105 440.447C404.742 440.447 411.701 433.488 411.701 424.851C411.701 416.214 418.745 409.255 427.381 409.255C436.018 409.255 442.977 416.214 442.977 424.851Z" stroke="black" stroke-width="5" stroke-miterlimit="10"/>
<path d="M537.141 331.107C537.141 339.744 530.182 346.703 521.545 346.703C512.908 346.703 505.949 353.747 505.949 362.383C505.949 371.02 498.905 377.979 490.269 377.979C481.632 377.979 474.673 384.939 474.673 393.576C474.673 402.212 467.713 409.256 459.076 409.256C450.44 409.256 443.396 402.212 443.396 393.576C443.396 384.939 450.44 377.979 459.076 377.979C467.713 377.979 474.673 371.02 474.673 362.383C474.673 353.747 481.632 346.703 490.269 346.703C498.905 346.703 505.949 339.744 505.949 331.107C505.949 322.47 512.908 315.511 521.545 315.511C530.182 315.511 537.141 322.47 537.141 331.107Z" stroke="black" stroke-width="5" stroke-miterlimit="10"/>
<path d="M411.701 393.576C411.701 402.212 404.741 409.256 396.105 409.256C387.468 409.256 380.509 416.215 380.509 424.852C380.509 433.488 373.465 440.448 364.829 440.448C356.192 440.448 349.232 433.488 349.232 424.852C349.232 416.215 356.276 409.256 364.829 409.256C373.381 409.256 380.509 402.212 380.509 393.576C380.509 384.939 387.468 377.979 396.105 377.979C404.741 377.979 411.701 384.939 411.701 393.576Z" stroke="black" stroke-width="5" stroke-miterlimit="10"/>
<path d="M537.141 81.0648C537.141 89.7013 530.182 96.6609 521.545 96.6609C512.908 96.6609 505.949 103.704 505.949 112.341C505.949 120.978 498.905 127.937 490.269 127.937C481.632 127.937 474.673 134.897 474.673 143.533C474.673 152.17 467.713 159.213 459.076 159.213C450.44 159.213 443.396 152.17 443.396 143.533C443.396 134.897 450.44 127.937 459.076 127.937C467.713 127.937 474.673 120.894 474.673 112.341C474.673 103.788 481.632 96.6609 490.269 96.6609C498.905 96.6609 505.949 89.7013 505.949 81.0648C505.949 72.4282 512.908 65.3848 521.545 65.3848C530.182 65.3848 537.141 72.4282 537.141 81.0648Z" stroke="black" stroke-width="5" stroke-miterlimit="10"/>
<path d="M15.5963 34.1923C24.2098 34.1923 31.1924 27.2097 31.1924 18.5962C31.1924 9.98265 24.2098 3 15.5963 3C6.98278 3 0 9.98265 0 18.5962C0 27.2097 6.98278 34.1923 15.5963 34.1923Z" fill="black"/>
<path d="M46.7887 34.1923C55.4022 34.1923 62.3847 27.2097 62.3847 18.5962C62.3847 9.98265 55.4022 3 46.7887 3C38.1752 3 31.1924 9.98265 31.1924 18.5962C31.1924 27.2097 38.1752 34.1923 46.7887 34.1923Z" fill="black"/>
<path d="M78.0648 34.1923C86.6783 34.1923 93.6611 27.2097 93.6611 18.5962C93.6611 9.98265 86.6783 3 78.0648 3C69.4513 3 62.4688 9.98265 62.4688 18.5962C62.4688 27.2097 69.4513 34.1923 78.0648 34.1923Z" fill="black"/>
<path d="M15.5963 65.4687C24.2098 65.4687 31.1924 58.4861 31.1924 49.8725C31.1924 41.259 24.2098 34.2764 15.5963 34.2764C6.98278 34.2764 0 41.259 0 49.8725C0 58.4861 6.98278 65.4687 15.5963 65.4687Z" fill="black"/>
<path d="M46.7887 65.4687C55.4022 65.4687 62.3847 58.4861 62.3847 49.8725C62.3847 41.259 55.4022 34.2764 46.7887 34.2764C38.1752 34.2764 31.1924 41.259 31.1924 49.8725C31.1924 58.4861 38.1752 65.4687 46.7887 65.4687Z" fill="black"/>
<path d="M78.0648 65.4687C86.6783 65.4687 93.6611 58.4861 93.6611 49.8725C93.6611 41.259 86.6783 34.2764 78.0648 34.2764C69.4513 34.2764 62.4688 41.259 62.4688 49.8725C62.4688 58.4861 69.4513 65.4687 78.0648 65.4687Z" fill="black"/>
<path d="M15.5963 96.7451C24.2098 96.7451 31.1924 89.7624 31.1924 81.1489C31.1924 72.5354 24.2098 65.5527 15.5963 65.5527C6.98278 65.5527 0 72.5354 0 81.1489C0 89.7624 6.98278 96.7451 15.5963 96.7451Z" fill="black"/>
<path d="M46.7887 96.7451C55.4022 96.7451 62.3847 89.7624 62.3847 81.1489C62.3847 72.5354 55.4022 65.5527 46.7887 65.5527C38.1752 65.5527 31.1924 72.5354 31.1924 81.1489C31.1924 89.7624 38.1752 96.7451 46.7887 96.7451Z" fill="black"/>
<path d="M78.0648 96.7451C86.6783 96.7451 93.6611 89.7624 93.6611 81.1489C93.6611 72.5354 86.6783 65.5527 78.0648 65.5527C69.4513 65.5527 62.4688 72.5354 62.4688 81.1489C62.4688 89.7624 69.4513 96.7451 78.0648 96.7451Z" fill="black"/>
<path d="M15.5963 127.937C24.2098 127.937 31.1924 120.955 31.1924 112.341C31.1924 103.728 24.2098 96.7451 15.5963 96.7451C6.98278 96.7451 0 103.728 0 112.341C0 120.955 6.98278 127.937 15.5963 127.937Z" fill="black"/>
<path d="M46.7887 127.937C55.4022 127.937 62.3847 120.955 62.3847 112.341C62.3847 103.728 55.4022 96.7451 46.7887 96.7451C38.1752 96.7451 31.1924 103.728 31.1924 112.341C31.1924 120.955 38.1752 127.937 46.7887 127.937Z" fill="black"/>
<path d="M78.0648 127.937C86.6783 127.937 93.6611 120.955 93.6611 112.341C93.6611 103.728 86.6783 96.7451 78.0648 96.7451C69.4513 96.7451 62.4688 103.728 62.4688 112.341C62.4688 120.955 69.4513 127.937 78.0648 127.937Z" fill="black"/>
<path d="M15.5963 159.213C24.2098 159.213 31.1924 152.23 31.1924 143.617C31.1924 135.003 24.2098 128.021 15.5963 128.021C6.98278 128.021 0 135.003 0 143.617C0 152.23 6.98278 159.213 15.5963 159.213Z" fill="black"/>
<path d="M46.7887 159.213C55.4022 159.213 62.3847 152.23 62.3847 143.617C62.3847 135.003 55.4022 128.021 46.7887 128.021C38.1752 128.021 31.1924 135.003 31.1924 143.617C31.1924 152.23 38.1752 159.213 46.7887 159.213Z" fill="black"/>
<path d="M78.0648 159.213C86.6783 159.213 93.6611 152.23 93.6611 143.617C93.6611 135.003 86.6783 128.021 78.0648 128.021C69.4513 128.021 62.4688 135.003 62.4688 143.617C62.4688 152.23 69.4513 159.213 78.0648 159.213Z" fill="black"/>
<path d="M15.5963 190.489C24.2098 190.489 31.1924 183.507 31.1924 174.893C31.1924 166.28 24.2098 159.297 15.5963 159.297C6.98278 159.297 0 166.28 0 174.893C0 183.507 6.98278 190.489 15.5963 190.489Z" fill="black"/>
<path d="M46.7887 190.489C55.4022 190.489 62.3847 183.507 62.3847 174.893C62.3847 166.28 55.4022 159.297 46.7887 159.297C38.1752 159.297 31.1924 166.28 31.1924 174.893C31.1924 183.507 38.1752 190.489 46.7887 190.489Z" fill="black"/>
<path d="M78.0648 190.489C86.6783 190.489 93.6611 183.507 93.6611 174.893C93.6611 166.28 86.6783 159.297 78.0648 159.297C69.4513 159.297 62.4688 166.28 62.4688 174.893C62.4688 183.507 69.4513 190.489 78.0648 190.489Z" fill="black"/>
<path d="M15.5963 221.766C24.2098 221.766 31.1924 214.783 31.1924 206.169C31.1924 197.556 24.2098 190.573 15.5963 190.573C6.98278 190.573 0 197.556 0 206.169C0 214.783 6.98278 221.766 15.5963 221.766Z" fill="black"/>
<path d="M46.7887 221.766C55.4022 221.766 62.3847 214.783 62.3847 206.169C62.3847 197.556 55.4022 190.573 46.7887 190.573C38.1752 190.573 31.1924 197.556 31.1924 206.169C31.1924 214.783 38.1752 221.766 46.7887 221.766Z" fill="black"/>
<path d="M78.0648 221.766C86.6783 221.766 93.6611 214.783 93.6611 206.169C93.6611 197.556 86.6783 190.573 78.0648 190.573C69.4513 190.573 62.4688 197.556 62.4688 206.169C62.4688 214.783 69.4513 221.766 78.0648 221.766Z" fill="black"/>
<path d="M15.5963 252.958C24.2098 252.958 31.1924 245.975 31.1924 237.362C31.1924 228.748 24.2098 221.766 15.5963 221.766C6.98278 221.766 0 228.748 0 237.362C0 245.975 6.98278 252.958 15.5963 252.958Z" fill="black"/>
<path d="M46.7887 252.958C55.4022 252.958 62.3847 245.975 62.3847 237.362C62.3847 228.748 55.4022 221.766 46.7887 221.766C38.1752 221.766 31.1924 228.748 31.1924 237.362C31.1924 245.975 38.1752 252.958 46.7887 252.958Z" fill="black"/>
<path d="M78.0648 252.958C86.6783 252.958 93.6611 245.975 93.6611 237.362C93.6611 228.748 86.6783 221.766 78.0648 221.766C69.4513 221.766 62.4688 228.748 62.4688 237.362C62.4688 245.975 69.4513 252.958 78.0648 252.958Z" fill="black"/>
<path d="M15.5963 284.234C24.2098 284.234 31.1924 277.252 31.1924 268.638C31.1924 260.025 24.2098 253.042 15.5963 253.042C6.98278 253.042 0 260.025 0 268.638C0 277.252 6.98278 284.234 15.5963 284.234Z" fill="black"/>
<path d="M46.7887 284.234C55.4022 284.234 62.3847 277.252 62.3847 268.638C62.3847 260.025 55.4022 253.042 46.7887 253.042C38.1752 253.042 31.1924 260.025 31.1924 268.638C31.1924 277.252 38.1752 284.234 46.7887 284.234Z" fill="black"/>
<path d="M78.0648 284.234C86.6783 284.234 93.6611 277.252 93.6611 268.638C93.6611 260.025 86.6783 253.042 78.0648 253.042C69.4513 253.042 62.4688 260.025 62.4688 268.638C62.4688 277.252 69.4513 284.234 78.0648 284.234Z" fill="black"/>
<path d="M15.5963 315.511C24.2098 315.511 31.1924 308.528 31.1924 299.915C31.1924 291.301 24.2098 284.318 15.5963 284.318C6.98278 284.318 0 291.301 0 299.915C0 308.528 6.98278 315.511 15.5963 315.511Z" fill="black"/>
<path d="M46.7887 315.511C55.4022 315.511 62.3847 308.528 62.3847 299.915C62.3847 291.301 55.4022 284.318 46.7887 284.318C38.1752 284.318 31.1924 291.301 31.1924 299.915C31.1924 308.528 38.1752 315.511 46.7887 315.511Z" fill="black"/>
<path d="M78.0648 315.511C86.6783 315.511 93.6611 308.528 93.6611 299.915C93.6611 291.301 86.6783 284.318 78.0648 284.318C69.4513 284.318 62.4688 291.301 62.4688 299.915C62.4688 308.528 69.4513 315.511 78.0648 315.511Z" fill="black"/>
<path d="M15.5963 346.703C24.2098 346.703 31.1924 339.72 31.1924 331.107C31.1924 322.493 24.2098 315.511 15.5963 315.511C6.98278 315.511 0 322.493 0 331.107C0 339.72 6.98278 346.703 15.5963 346.703Z" fill="black"/>
<path d="M46.7887 346.703C55.4022 346.703 62.3847 339.72 62.3847 331.107C62.3847 322.493 55.4022 315.511 46.7887 315.511C38.1752 315.511 31.1924 322.493 31.1924 331.107C31.1924 339.72 38.1752 346.703 46.7887 346.703Z" fill="black"/>
<path d="M78.0648 346.703C86.6783 346.703 93.6611 339.72 93.6611 331.107C93.6611 322.493 86.6783 315.511 78.0648 315.511C69.4513 315.511 62.4688 322.493 62.4688 331.107C62.4688 339.72 69.4513 346.703 78.0648 346.703Z" fill="black"/>
<path d="M15.5963 377.979C24.2098 377.979 31.1924 370.997 31.1924 362.383C31.1924 353.77 24.2098 346.787 15.5963 346.787C6.98278 346.787 0 353.77 0 362.383C0 370.997 6.98278 377.979 15.5963 377.979Z" fill="black"/>
<path d="M46.7887 377.979C55.4022 377.979 62.3847 370.997 62.3847 362.383C62.3847 353.77 55.4022 346.787 46.7887 346.787C38.1752 346.787 31.1924 353.77 31.1924 362.383C31.1924 370.997 38.1752 377.979 46.7887 377.979Z" fill="black"/>
<path d="M78.0648 377.979C86.6783 377.979 93.6611 370.997 93.6611 362.383C93.6611 353.77 86.6783 346.787 78.0648 346.787C69.4513 346.787 62.4688 353.77 62.4688 362.383C62.4688 370.997 69.4513 377.979 78.0648 377.979Z" fill="black"/>
<path d="M15.5963 409.255C24.2098 409.255 31.1924 402.272 31.1924 393.659C31.1924 385.045 24.2098 378.062 15.5963 378.062C6.98278 378.062 0 385.045 0 393.659C0 402.272 6.98278 409.255 15.5963 409.255Z" fill="black"/>
<path d="M46.7887 409.255C55.4022 409.255 62.3847 402.272 62.3847 393.659C62.3847 385.045 55.4022 378.062 46.7887 378.062C38.1752 378.062 31.1924 385.045 31.1924 393.659C31.1924 402.272 38.1752 409.255 46.7887 409.255Z" fill="black"/>
<path d="M78.0648 409.255C86.6783 409.255 93.6611 402.272 93.6611 393.659C93.6611 385.045 86.6783 378.062 78.0648 378.062C69.4513 378.062 62.4688 385.045 62.4688 393.659C62.4688 402.272 69.4513 409.255 78.0648 409.255Z" fill="black"/>
<path d="M15.5963 440.447C24.2098 440.447 31.1924 433.465 31.1924 424.851C31.1924 416.238 24.2098 409.255 15.5963 409.255C6.98278 409.255 0 416.238 0 424.851C0 433.465 6.98278 440.447 15.5963 440.447Z" fill="black"/>
<path d="M46.7887 440.447C55.4022 440.447 62.3847 433.465 62.3847 424.851C62.3847 416.238 55.4022 409.255 46.7887 409.255C38.1752 409.255 31.1924 416.238 31.1924 424.851C31.1924 433.465 38.1752 440.447 46.7887 440.447Z" fill="black"/>
<path d="M78.0648 440.447C86.6783 440.447 93.6611 433.465 93.6611 424.851C93.6611 416.238 86.6783 409.255 78.0648 409.255C69.4513 409.255 62.4688 416.238 62.4688 424.851C62.4688 433.465 69.4513 440.447 78.0648 440.447Z" fill="black"/>
<path d="M15.5963 471.724C24.2098 471.724 31.1924 464.741 31.1924 456.127C31.1924 447.514 24.2098 440.531 15.5963 440.531C6.98278 440.531 0 447.514 0 456.127C0 464.741 6.98278 471.724 15.5963 471.724Z" fill="black"/>
<path d="M46.7887 471.724C55.4022 471.724 62.3847 464.741 62.3847 456.127C62.3847 447.514 55.4022 440.531 46.7887 440.531C38.1752 440.531 31.1924 447.514 31.1924 456.127C31.1924 464.741 38.1752 471.724 46.7887 471.724Z" fill="black"/>
<path d="M78.0648 471.724C86.6783 471.724 93.6611 464.741 93.6611 456.127C93.6611 447.514 86.6783 440.531 78.0648 440.531C69.4513 440.531 62.4688 447.514 62.4688 456.127C62.4688 464.741 69.4513 471.724 78.0648 471.724Z" fill="black"/>
<path d="M15.5963 503C24.2098 503 31.1924 496.017 31.1924 487.404C31.1924 478.79 24.2098 471.808 15.5963 471.808C6.98278 471.808 0 478.79 0 487.404C0 496.017 6.98278 503 15.5963 503Z" fill="black"/>
<path d="M46.7887 503C55.4022 503 62.3847 496.017 62.3847 487.404C62.3847 478.79 55.4022 471.808 46.7887 471.808C38.1752 471.808 31.1924 478.79 31.1924 487.404C31.1924 496.017 38.1752 503 46.7887 503Z" fill="black"/>
<path d="M78.0648 503C86.6783 503 93.6611 496.017 93.6611 487.404C93.6611 478.79 86.6783 471.808 78.0648 471.808C69.4513 471.808 62.4688 478.79 62.4688 487.404C62.4688 496.017 69.4513 503 78.0648 503Z" fill="black"/>
</svg>
