<svg width="541" height="511" viewBox="0 0 541 511" fill="none" xmlns="http://www.w3.org/2000/svg">
<path d="M196.63 18.2114C196.63 26.848 189.67 33.8076 181.033 33.8076C172.397 33.8076 165.353 40.851 165.353 49.4876C165.353 58.1242 158.394 65.0838 149.757 65.0838C141.121 65.0838 134.161 58.1242 134.161 49.4876C134.161 40.851 141.121 33.8076 149.757 33.8076C158.394 33.8076 165.353 26.848 165.353 18.2114C165.353 9.57482 172.397 2.61523 181.033 2.61523C189.67 2.61523 196.63 9.57482 196.63 18.2114Z" stroke="black" stroke-width="5" stroke-miterlimit="10"/>
<path d="M259.098 18.2114C259.098 26.848 252.139 33.8076 243.502 33.8076C234.865 33.8076 227.906 40.851 227.906 49.4876C227.906 58.1242 220.862 65.0838 212.226 65.0838C203.589 65.0838 196.63 72.1272 196.63 80.6799C196.63 89.2327 189.67 96.36 181.033 96.36C172.397 96.36 165.353 103.32 165.353 111.956C165.353 120.593 158.394 127.552 149.757 127.552C141.121 127.552 134.161 120.593 134.161 111.956C134.161 103.32 141.121 96.36 149.757 96.36C158.394 96.36 165.353 89.3165 165.353 80.6799C165.353 72.0434 172.397 65.0838 181.033 65.0838C189.67 65.0838 196.63 58.1242 196.63 49.4876C196.63 40.851 203.589 33.8076 212.226 33.8076C220.862 33.8076 227.906 26.848 227.906 18.2114C227.906 9.57482 234.865 2.61523 243.502 2.61523C252.139 2.61523 259.098 9.57482 259.098 18.2114Z" stroke="black" stroke-width="5" stroke-miterlimit="10"/>
<path d="M227.906 111.957C227.906 120.593 220.862 127.553 212.226 127.553C203.589 127.553 196.63 134.596 196.63 143.233C196.63 151.869 189.67 158.829 181.033 158.829C172.397 158.829 165.353 165.872 165.353 174.509C165.353 183.146 158.394 190.105 149.757 190.105C141.121 190.105 134.161 183.062 134.161 174.509C134.161 165.956 141.121 158.829 149.757 158.829C158.394 158.829 165.353 151.869 165.353 143.233C165.353 134.596 172.397 127.553 181.033 127.553C189.67 127.553 196.63 120.593 196.63 111.957C196.63 103.32 203.589 96.3604 212.226 96.3604C220.862 96.3604 227.906 103.32 227.906 111.957Z" stroke="black" stroke-width="5" stroke-miterlimit="10"/>
<path d="M227.906 174.508C227.906 183.061 220.862 190.104 212.226 190.104C203.589 190.104 196.63 197.064 196.63 205.701C196.63 214.337 189.67 221.381 181.033 221.381C172.397 221.381 165.353 228.34 165.353 236.977C165.353 245.613 158.394 252.573 149.757 252.573C141.121 252.573 134.161 245.613 134.161 236.977C134.161 228.34 141.121 221.381 149.757 221.381C158.394 221.381 165.353 214.337 165.353 205.701C165.353 197.064 172.397 190.104 181.033 190.104C189.67 190.104 196.63 183.061 196.63 174.508C196.63 165.955 203.589 158.828 212.226 158.828C220.862 158.828 227.906 165.872 227.906 174.508Z" stroke="black" stroke-width="5" stroke-miterlimit="10"/>
<path d="M227.906 236.977C227.906 245.614 220.862 252.573 212.226 252.573C203.589 252.573 196.63 259.617 196.63 268.253C196.63 276.89 189.67 283.849 181.033 283.849C172.397 283.849 165.353 290.809 165.353 299.446C165.353 308.082 158.394 315.126 149.757 315.126C141.121 315.126 134.161 308.082 134.161 299.446C134.161 290.809 141.121 283.849 149.757 283.849C158.394 283.849 165.353 276.806 165.353 268.253C165.353 259.701 172.397 252.573 181.033 252.573C189.67 252.573 196.63 245.614 196.63 236.977C196.63 228.34 203.589 221.381 212.226 221.381C220.862 221.381 227.906 228.34 227.906 236.977Z" stroke="black" stroke-width="5" stroke-miterlimit="10"/>
<path d="M227.906 299.446C227.906 308.082 220.862 315.126 212.226 315.126C203.589 315.126 196.63 322.085 196.63 330.722C196.63 339.359 189.67 346.318 181.033 346.318C172.397 346.318 165.353 353.362 165.353 361.998C165.353 370.635 158.394 377.594 149.757 377.594C141.121 377.594 134.161 370.635 134.161 361.998C134.161 353.362 141.121 346.318 149.757 346.318C158.394 346.318 165.353 339.359 165.353 330.722C165.353 322.085 172.397 315.126 181.033 315.126C189.67 315.126 196.63 308.082 196.63 299.446C196.63 290.809 203.589 283.85 212.226 283.85C220.862 283.85 227.906 290.809 227.906 299.446Z" stroke="black" stroke-width="5" stroke-miterlimit="10"/>
<path d="M227.906 361.998C227.906 370.635 220.862 377.595 212.226 377.595C203.589 377.595 196.63 384.554 196.63 393.191C196.63 401.827 189.67 408.871 181.033 408.871C172.397 408.871 165.353 415.83 165.353 424.467C165.353 433.104 158.394 440.063 149.757 440.063C141.121 440.063 134.161 433.104 134.161 424.467C134.161 415.83 141.121 408.871 149.757 408.871C158.394 408.871 165.353 401.827 165.353 393.191C165.353 384.554 172.397 377.595 181.033 377.595C189.67 377.595 196.63 370.635 196.63 361.998C196.63 353.362 203.589 346.318 212.226 346.318C220.862 346.318 227.906 353.362 227.906 361.998Z" stroke="black" stroke-width="5" stroke-miterlimit="10"/>
<path d="M227.906 424.466C227.906 433.103 220.862 440.062 212.226 440.062C203.589 440.062 196.63 447.106 196.63 455.743C196.63 464.379 189.67 471.339 181.033 471.339C172.397 471.339 165.353 478.298 165.353 486.935C165.353 495.571 158.394 502.615 149.757 502.615C141.121 502.615 134.161 495.571 134.161 486.935C134.161 478.298 141.121 471.339 149.757 471.339C158.394 471.339 165.353 464.379 165.353 455.743C165.353 447.106 172.397 440.062 181.033 440.062C189.67 440.062 196.63 433.103 196.63 424.466C196.63 415.83 203.589 408.87 212.226 408.87C220.862 408.87 227.906 415.83 227.906 424.466Z" stroke="black" stroke-width="5" stroke-miterlimit="10"/>
<path d="M212.226 502.531C220.84 502.531 227.822 495.549 227.822 486.935C227.822 478.322 220.84 471.339 212.226 471.339C203.613 471.339 196.63 478.322 196.63 486.935C196.63 495.549 203.613 502.531 212.226 502.531Z" stroke="black" stroke-width="5" stroke-miterlimit="10"/>
<path d="M458.83 33.8076C467.443 33.8076 474.426 26.8249 474.426 18.2114C474.426 9.59788 467.443 2.61523 458.83 2.61523C450.216 2.61523 443.233 9.59788 443.233 18.2114C443.233 26.8249 450.216 33.8076 458.83 33.8076Z" stroke="black" stroke-width="5" stroke-miterlimit="10"/>
<path d="M536.978 18.2114C536.978 26.848 530.018 33.8076 521.382 33.8076C512.745 33.8076 505.786 40.851 505.786 49.4876C505.786 58.1242 498.742 65.0838 490.106 65.0838C481.469 65.0838 474.51 72.1272 474.51 80.6799C474.51 89.2327 467.55 96.36 458.913 96.36C450.277 96.36 443.233 89.3165 443.233 80.6799C443.233 72.0434 450.277 65.0838 458.913 65.0838C467.55 65.0838 474.51 58.1242 474.51 49.4876C474.51 40.851 481.469 33.8076 490.106 33.8076C498.742 33.8076 505.786 26.848 505.786 18.2114C505.786 9.57482 512.745 2.61523 521.382 2.61523C530.018 2.61523 536.978 9.57482 536.978 18.2114Z" stroke="black" stroke-width="5" stroke-miterlimit="10"/>
<path d="M536.978 143.233C536.978 151.869 530.018 158.829 521.382 158.829C512.745 158.829 505.786 165.872 505.786 174.509C505.786 183.146 498.742 190.105 490.106 190.105C481.469 190.105 474.51 197.065 474.51 205.701C474.51 214.338 467.55 221.381 458.913 221.381C450.277 221.381 443.233 214.338 443.233 205.701C443.233 197.065 450.277 190.105 458.913 190.105C467.55 190.105 474.51 183.062 474.51 174.509C474.51 165.956 481.469 158.829 490.106 158.829C498.742 158.829 505.786 151.869 505.786 143.233C505.786 134.596 512.745 127.553 521.382 127.553C530.018 127.553 536.978 134.596 536.978 143.233Z" stroke="black" stroke-width="5" stroke-miterlimit="10"/>
<path d="M536.978 205.701C536.978 214.337 530.018 221.381 521.382 221.381C512.745 221.381 505.786 228.34 505.786 236.977C505.786 245.613 498.742 252.573 490.106 252.573C481.469 252.573 474.51 259.616 474.51 268.253C474.51 276.89 467.55 283.849 458.913 283.849C450.277 283.849 443.233 276.806 443.233 268.253C443.233 259.7 450.277 252.573 458.913 252.573C467.55 252.573 474.51 245.613 474.51 236.977C474.51 228.34 481.469 221.381 490.106 221.381C498.742 221.381 505.786 214.337 505.786 205.701C505.786 197.064 512.745 190.104 521.382 190.104C530.018 190.104 536.978 197.064 536.978 205.701Z" stroke="black" stroke-width="5" stroke-miterlimit="10"/>
<path d="M536.978 268.253C536.978 276.806 530.018 283.849 521.382 283.849C512.745 283.849 505.786 290.809 505.786 299.446C505.786 308.082 498.742 315.126 490.106 315.126C481.469 315.126 474.51 322.085 474.51 330.722C474.51 339.358 467.55 346.318 458.913 346.318C450.277 346.318 443.233 339.358 443.233 330.722C443.233 322.085 450.277 315.126 458.913 315.126C467.55 315.126 474.51 308.082 474.51 299.446C474.51 290.809 481.469 283.849 490.106 283.849C498.742 283.849 505.786 276.806 505.786 268.253C505.786 259.701 512.745 252.573 521.382 252.573C530.018 252.573 536.978 259.617 536.978 268.253Z" stroke="black" stroke-width="5" stroke-miterlimit="10"/>
<path d="M536.978 455.743C536.978 464.379 530.019 471.339 521.382 471.339C512.746 471.339 505.786 478.298 505.786 486.935C505.786 495.572 498.743 502.615 490.106 502.615C481.469 502.615 474.51 495.572 474.51 486.935C474.51 478.298 481.469 471.339 490.106 471.339C498.743 471.339 505.786 464.379 505.786 455.743C505.786 447.106 512.746 440.062 521.382 440.062C530.019 440.062 536.978 447.106 536.978 455.743Z" stroke="black" stroke-width="5" stroke-miterlimit="10"/>
<path d="M290.375 49.4876C290.375 58.1242 283.415 65.0838 274.779 65.0838C266.142 65.0838 259.099 72.1272 259.099 80.68C259.099 89.2327 252.139 96.36 243.502 96.36C234.866 96.36 227.906 89.3166 227.906 80.68C227.906 72.0434 234.866 65.0838 243.502 65.0838C252.139 65.0838 259.099 58.1242 259.099 49.4876C259.099 40.851 266.142 33.8076 274.779 33.8076C283.415 33.8076 290.375 40.851 290.375 49.4876Z" stroke="black" stroke-width="5" stroke-miterlimit="10"/>
<path d="M321.651 80.6802C321.651 89.3168 314.608 96.3602 305.971 96.3602C297.335 96.3602 290.375 103.32 290.375 111.956C290.375 120.593 283.415 127.553 274.779 127.553C266.142 127.553 259.099 120.593 259.099 111.956C259.099 103.32 266.142 96.3602 274.779 96.3602C283.415 96.3602 290.375 89.3168 290.375 80.6802C290.375 72.0436 297.335 65.084 305.971 65.084C314.608 65.084 321.651 72.1274 321.651 80.6802Z" stroke="black" stroke-width="5" stroke-miterlimit="10"/>
<path d="M352.843 111.957C352.843 120.593 345.883 127.553 337.246 127.553C328.61 127.553 321.65 134.596 321.65 143.233C321.65 151.869 314.607 158.829 305.97 158.829C297.334 158.829 290.374 151.869 290.374 143.233C290.374 134.596 297.334 127.553 305.97 127.553C314.607 127.553 321.65 120.593 321.65 111.957C321.65 103.32 328.61 96.3604 337.246 96.3604C345.883 96.3604 352.843 103.32 352.843 111.957Z" stroke="black" stroke-width="5" stroke-miterlimit="10"/>
<path d="M352.843 174.508C352.843 183.061 345.883 190.104 337.246 190.104C328.61 190.104 321.65 197.064 321.65 205.701C321.65 214.337 314.607 221.381 305.97 221.381C297.334 221.381 290.374 214.337 290.374 205.701C290.374 197.064 297.334 190.104 305.97 190.104C314.607 190.104 321.65 183.061 321.65 174.508C321.65 165.955 328.61 158.828 337.246 158.828C345.883 158.828 352.843 165.872 352.843 174.508Z" stroke="black" stroke-width="5" stroke-miterlimit="10"/>
<path d="M384.119 205.701C384.119 214.337 377.159 221.381 368.523 221.381C359.886 221.381 352.843 228.34 352.843 236.977C352.843 245.613 345.883 252.573 337.247 252.573C328.61 252.573 321.65 245.613 321.65 236.977C321.65 228.34 328.61 221.381 337.247 221.381C345.883 221.381 352.843 214.337 352.843 205.701C352.843 197.064 359.886 190.104 368.523 190.104C377.159 190.104 384.119 197.064 384.119 205.701Z" stroke="black" stroke-width="5" stroke-miterlimit="10"/>
<path d="M384.119 268.253C384.119 276.806 377.159 283.849 368.523 283.849C359.886 283.849 352.843 290.809 352.843 299.446C352.843 308.082 345.883 315.126 337.247 315.126C328.61 315.126 321.65 308.082 321.65 299.446C321.65 290.809 328.61 283.849 337.247 283.849C345.883 283.849 352.843 276.806 352.843 268.253C352.843 259.701 359.886 252.573 368.523 252.573C377.159 252.573 384.119 259.617 384.119 268.253Z" stroke="black" stroke-width="5" stroke-miterlimit="10"/>
<path d="M415.395 299.446C415.395 308.082 408.352 315.126 399.715 315.126C391.079 315.126 384.119 322.085 384.119 330.722C384.119 339.359 377.159 346.318 368.523 346.318C359.886 346.318 352.843 339.359 352.843 330.722C352.843 322.085 359.886 315.126 368.523 315.126C377.159 315.126 384.119 308.082 384.119 299.446C384.119 290.809 391.162 283.85 399.715 283.85C408.268 283.85 415.395 290.809 415.395 299.446Z" stroke="black" stroke-width="5" stroke-miterlimit="10"/>
<path d="M536.978 393.191C536.978 401.828 530.018 408.871 521.382 408.871C512.745 408.871 505.786 415.83 505.786 424.467C505.786 433.104 498.742 440.063 490.106 440.063C481.469 440.063 474.51 447.107 474.51 455.743C474.51 464.38 467.55 471.34 458.913 471.34C450.277 471.34 443.233 464.38 443.233 455.743C443.233 447.107 450.277 440.063 458.913 440.063C467.55 440.063 474.51 433.104 474.51 424.467C474.51 415.83 481.469 408.871 490.106 408.871C498.742 408.871 505.786 401.828 505.786 393.191C505.786 384.554 512.745 377.595 521.382 377.595C530.018 377.595 536.978 384.554 536.978 393.191Z" stroke="black" stroke-width="5" stroke-miterlimit="10"/>
<path d="M442.814 424.466C442.814 433.103 435.855 440.062 427.218 440.062C418.581 440.062 411.538 447.106 411.538 455.743C411.538 464.379 404.578 471.339 395.942 471.339C387.305 471.339 380.346 464.379 380.346 455.743C380.346 447.106 387.305 440.062 395.942 440.062C404.578 440.062 411.538 433.103 411.538 424.466C411.538 415.83 418.581 408.87 427.218 408.87C435.855 408.87 442.814 415.83 442.814 424.466Z" stroke="black" stroke-width="5" stroke-miterlimit="10"/>
<path d="M536.978 330.722C536.978 339.359 530.018 346.318 521.382 346.318C512.745 346.318 505.786 353.362 505.786 361.998C505.786 370.635 498.742 377.595 490.106 377.595C481.469 377.595 474.51 384.554 474.51 393.191C474.51 401.827 467.55 408.871 458.913 408.871C450.277 408.871 443.233 401.827 443.233 393.191C443.233 384.554 450.277 377.595 458.913 377.595C467.55 377.595 474.51 370.635 474.51 361.998C474.51 353.362 481.469 346.318 490.106 346.318C498.742 346.318 505.786 339.359 505.786 330.722C505.786 322.086 512.745 315.126 521.382 315.126C530.018 315.126 536.978 322.086 536.978 330.722Z" stroke="black" stroke-width="5" stroke-miterlimit="10"/>
<path d="M411.538 393.191C411.538 401.828 404.578 408.871 395.942 408.871C387.305 408.871 380.346 415.83 380.346 424.467C380.346 433.104 373.302 440.063 364.666 440.063C356.029 440.063 349.069 433.104 349.069 424.467C349.069 415.83 356.113 408.871 364.666 408.871C373.218 408.871 380.346 401.828 380.346 393.191C380.346 384.554 387.305 377.595 395.942 377.595C404.578 377.595 411.538 384.554 411.538 393.191Z" stroke="black" stroke-width="5" stroke-miterlimit="10"/>
<path d="M536.978 80.68C536.978 89.3166 530.018 96.2762 521.382 96.2762C512.745 96.2762 505.786 103.32 505.786 111.956C505.786 120.593 498.742 127.552 490.106 127.552C481.469 127.552 474.51 134.512 474.51 143.149C474.51 151.785 467.55 158.829 458.913 158.829C450.277 158.829 443.233 151.785 443.233 143.149C443.233 134.512 450.277 127.552 458.913 127.552C467.55 127.552 474.51 120.509 474.51 111.956C474.51 103.403 481.469 96.2762 490.106 96.2762C498.742 96.2762 505.786 89.3166 505.786 80.68C505.786 72.0434 512.745 65 521.382 65C530.018 65 536.978 72.0434 536.978 80.68Z" stroke="black" stroke-width="5" stroke-miterlimit="10"/>
<path d="M15.5963 42.1923C24.2098 42.1923 31.1924 35.2097 31.1924 26.5962C31.1924 17.9827 24.2098 11 15.5963 11C6.98278 11 0 17.9827 0 26.5962C0 35.2097 6.98278 42.1923 15.5963 42.1923Z" fill="black"/>
<path d="M46.7887 42.1923C55.4022 42.1923 62.3847 35.2097 62.3847 26.5962C62.3847 17.9827 55.4022 11 46.7887 11C38.1752 11 31.1924 17.9827 31.1924 26.5962C31.1924 35.2097 38.1752 42.1923 46.7887 42.1923Z" fill="black"/>
<path d="M78.0648 42.1923C86.6783 42.1923 93.6611 35.2097 93.6611 26.5962C93.6611 17.9827 86.6783 11 78.0648 11C69.4513 11 62.4688 17.9827 62.4688 26.5962C62.4688 35.2097 69.4513 42.1923 78.0648 42.1923Z" fill="black"/>
<path d="M15.5963 73.4687C24.2098 73.4687 31.1924 66.4861 31.1924 57.8725C31.1924 49.259 24.2098 42.2764 15.5963 42.2764C6.98278 42.2764 0 49.259 0 57.8725C0 66.4861 6.98278 73.4687 15.5963 73.4687Z" fill="black"/>
<path d="M46.7887 73.4687C55.4022 73.4687 62.3847 66.4861 62.3847 57.8725C62.3847 49.259 55.4022 42.2764 46.7887 42.2764C38.1752 42.2764 31.1924 49.259 31.1924 57.8725C31.1924 66.4861 38.1752 73.4687 46.7887 73.4687Z" fill="black"/>
<path d="M78.0648 73.4687C86.6783 73.4687 93.6611 66.4861 93.6611 57.8725C93.6611 49.259 86.6783 42.2764 78.0648 42.2764C69.4513 42.2764 62.4688 49.259 62.4688 57.8725C62.4688 66.4861 69.4513 73.4687 78.0648 73.4687Z" fill="black"/>
<path d="M15.5963 104.745C24.2098 104.745 31.1924 97.7624 31.1924 89.1489C31.1924 80.5354 24.2098 73.5527 15.5963 73.5527C6.98278 73.5527 0 80.5354 0 89.1489C0 97.7624 6.98278 104.745 15.5963 104.745Z" fill="black"/>
<path d="M46.7887 104.745C55.4022 104.745 62.3847 97.7624 62.3847 89.1489C62.3847 80.5354 55.4022 73.5527 46.7887 73.5527C38.1752 73.5527 31.1924 80.5354 31.1924 89.1489C31.1924 97.7624 38.1752 104.745 46.7887 104.745Z" fill="black"/>
<path d="M78.0648 104.745C86.6783 104.745 93.6611 97.7624 93.6611 89.1489C93.6611 80.5354 86.6783 73.5527 78.0648 73.5527C69.4513 73.5527 62.4688 80.5354 62.4688 89.1489C62.4688 97.7624 69.4513 104.745 78.0648 104.745Z" fill="black"/>
<path d="M15.5963 135.937C24.2098 135.937 31.1924 128.955 31.1924 120.341C31.1924 111.728 24.2098 104.745 15.5963 104.745C6.98278 104.745 0 111.728 0 120.341C0 128.955 6.98278 135.937 15.5963 135.937Z" fill="black"/>
<path d="M46.7887 135.937C55.4022 135.937 62.3847 128.955 62.3847 120.341C62.3847 111.728 55.4022 104.745 46.7887 104.745C38.1752 104.745 31.1924 111.728 31.1924 120.341C31.1924 128.955 38.1752 135.937 46.7887 135.937Z" fill="black"/>
<path d="M78.0648 135.937C86.6783 135.937 93.6611 128.955 93.6611 120.341C93.6611 111.728 86.6783 104.745 78.0648 104.745C69.4513 104.745 62.4688 111.728 62.4688 120.341C62.4688 128.955 69.4513 135.937 78.0648 135.937Z" fill="black"/>
<path d="M15.5963 167.213C24.2098 167.213 31.1924 160.23 31.1924 151.617C31.1924 143.003 24.2098 136.021 15.5963 136.021C6.98278 136.021 0 143.003 0 151.617C0 160.23 6.98278 167.213 15.5963 167.213Z" fill="black"/>
<path d="M46.7887 167.213C55.4022 167.213 62.3847 160.23 62.3847 151.617C62.3847 143.003 55.4022 136.021 46.7887 136.021C38.1752 136.021 31.1924 143.003 31.1924 151.617C31.1924 160.23 38.1752 167.213 46.7887 167.213Z" fill="black"/>
<path d="M78.0648 167.213C86.6783 167.213 93.6611 160.23 93.6611 151.617C93.6611 143.003 86.6783 136.021 78.0648 136.021C69.4513 136.021 62.4688 143.003 62.4688 151.617C62.4688 160.23 69.4513 167.213 78.0648 167.213Z" fill="black"/>
<path d="M15.5963 198.489C24.2098 198.489 31.1924 191.507 31.1924 182.893C31.1924 174.28 24.2098 167.297 15.5963 167.297C6.98278 167.297 0 174.28 0 182.893C0 191.507 6.98278 198.489 15.5963 198.489Z" fill="black"/>
<path d="M46.7887 198.489C55.4022 198.489 62.3847 191.507 62.3847 182.893C62.3847 174.28 55.4022 167.297 46.7887 167.297C38.1752 167.297 31.1924 174.28 31.1924 182.893C31.1924 191.507 38.1752 198.489 46.7887 198.489Z" fill="black"/>
<path d="M78.0648 198.489C86.6783 198.489 93.6611 191.507 93.6611 182.893C93.6611 174.28 86.6783 167.297 78.0648 167.297C69.4513 167.297 62.4688 174.28 62.4688 182.893C62.4688 191.507 69.4513 198.489 78.0648 198.489Z" fill="black"/>
<path d="M15.5963 229.766C24.2098 229.766 31.1924 222.783 31.1924 214.169C31.1924 205.556 24.2098 198.573 15.5963 198.573C6.98278 198.573 0 205.556 0 214.169C0 222.783 6.98278 229.766 15.5963 229.766Z" fill="black"/>
<path d="M46.7887 229.766C55.4022 229.766 62.3847 222.783 62.3847 214.169C62.3847 205.556 55.4022 198.573 46.7887 198.573C38.1752 198.573 31.1924 205.556 31.1924 214.169C31.1924 222.783 38.1752 229.766 46.7887 229.766Z" fill="black"/>
<path d="M78.0648 229.766C86.6783 229.766 93.6611 222.783 93.6611 214.169C93.6611 205.556 86.6783 198.573 78.0648 198.573C69.4513 198.573 62.4688 205.556 62.4688 214.169C62.4688 222.783 69.4513 229.766 78.0648 229.766Z" fill="black"/>
<path d="M15.5963 260.958C24.2098 260.958 31.1924 253.975 31.1924 245.362C31.1924 236.748 24.2098 229.766 15.5963 229.766C6.98278 229.766 0 236.748 0 245.362C0 253.975 6.98278 260.958 15.5963 260.958Z" fill="black"/>
<path d="M46.7887 260.958C55.4022 260.958 62.3847 253.975 62.3847 245.362C62.3847 236.748 55.4022 229.766 46.7887 229.766C38.1752 229.766 31.1924 236.748 31.1924 245.362C31.1924 253.975 38.1752 260.958 46.7887 260.958Z" fill="black"/>
<path d="M78.0648 260.958C86.6783 260.958 93.6611 253.975 93.6611 245.362C93.6611 236.748 86.6783 229.766 78.0648 229.766C69.4513 229.766 62.4688 236.748 62.4688 245.362C62.4688 253.975 69.4513 260.958 78.0648 260.958Z" fill="black"/>
<path d="M15.5963 292.234C24.2098 292.234 31.1924 285.252 31.1924 276.638C31.1924 268.025 24.2098 261.042 15.5963 261.042C6.98278 261.042 0 268.025 0 276.638C0 285.252 6.98278 292.234 15.5963 292.234Z" fill="black"/>
<path d="M46.7887 292.234C55.4022 292.234 62.3847 285.252 62.3847 276.638C62.3847 268.025 55.4022 261.042 46.7887 261.042C38.1752 261.042 31.1924 268.025 31.1924 276.638C31.1924 285.252 38.1752 292.234 46.7887 292.234Z" fill="black"/>
<path d="M78.0648 292.234C86.6783 292.234 93.6611 285.252 93.6611 276.638C93.6611 268.025 86.6783 261.042 78.0648 261.042C69.4513 261.042 62.4688 268.025 62.4688 276.638C62.4688 285.252 69.4513 292.234 78.0648 292.234Z" fill="black"/>
<path d="M15.5963 323.511C24.2098 323.511 31.1924 316.528 31.1924 307.915C31.1924 299.301 24.2098 292.318 15.5963 292.318C6.98278 292.318 0 299.301 0 307.915C0 316.528 6.98278 323.511 15.5963 323.511Z" fill="black"/>
<path d="M46.7887 323.511C55.4022 323.511 62.3847 316.528 62.3847 307.915C62.3847 299.301 55.4022 292.318 46.7887 292.318C38.1752 292.318 31.1924 299.301 31.1924 307.915C31.1924 316.528 38.1752 323.511 46.7887 323.511Z" fill="black"/>
<path d="M78.0648 323.511C86.6783 323.511 93.6611 316.528 93.6611 307.915C93.6611 299.301 86.6783 292.318 78.0648 292.318C69.4513 292.318 62.4688 299.301 62.4688 307.915C62.4688 316.528 69.4513 323.511 78.0648 323.511Z" fill="black"/>
<path d="M15.5963 354.703C24.2098 354.703 31.1924 347.72 31.1924 339.107C31.1924 330.493 24.2098 323.511 15.5963 323.511C6.98278 323.511 0 330.493 0 339.107C0 347.72 6.98278 354.703 15.5963 354.703Z" fill="black"/>
<path d="M46.7887 354.703C55.4022 354.703 62.3847 347.72 62.3847 339.107C62.3847 330.493 55.4022 323.511 46.7887 323.511C38.1752 323.511 31.1924 330.493 31.1924 339.107C31.1924 347.72 38.1752 354.703 46.7887 354.703Z" fill="black"/>
<path d="M78.0648 354.703C86.6783 354.703 93.6611 347.72 93.6611 339.107C93.6611 330.493 86.6783 323.511 78.0648 323.511C69.4513 323.511 62.4688 330.493 62.4688 339.107C62.4688 347.72 69.4513 354.703 78.0648 354.703Z" fill="black"/>
<path d="M15.5963 385.979C24.2098 385.979 31.1924 378.997 31.1924 370.383C31.1924 361.77 24.2098 354.787 15.5963 354.787C6.98278 354.787 0 361.77 0 370.383C0 378.997 6.98278 385.979 15.5963 385.979Z" fill="black"/>
<path d="M46.7887 385.979C55.4022 385.979 62.3847 378.997 62.3847 370.383C62.3847 361.77 55.4022 354.787 46.7887 354.787C38.1752 354.787 31.1924 361.77 31.1924 370.383C31.1924 378.997 38.1752 385.979 46.7887 385.979Z" fill="black"/>
<path d="M78.0648 385.979C86.6783 385.979 93.6611 378.997 93.6611 370.383C93.6611 361.77 86.6783 354.787 78.0648 354.787C69.4513 354.787 62.4688 361.77 62.4688 370.383C62.4688 378.997 69.4513 385.979 78.0648 385.979Z" fill="black"/>
<path d="M15.5963 417.255C24.2098 417.255 31.1924 410.272 31.1924 401.659C31.1924 393.045 24.2098 386.062 15.5963 386.062C6.98278 386.062 0 393.045 0 401.659C0 410.272 6.98278 417.255 15.5963 417.255Z" fill="black"/>
<path d="M46.7887 417.255C55.4022 417.255 62.3847 410.272 62.3847 401.659C62.3847 393.045 55.4022 386.062 46.7887 386.062C38.1752 386.062 31.1924 393.045 31.1924 401.659C31.1924 410.272 38.1752 417.255 46.7887 417.255Z" fill="black"/>
<path d="M78.0648 417.255C86.6783 417.255 93.6611 410.272 93.6611 401.659C93.6611 393.045 86.6783 386.062 78.0648 386.062C69.4513 386.062 62.4688 393.045 62.4688 401.659C62.4688 410.272 69.4513 417.255 78.0648 417.255Z" fill="black"/>
<path d="M15.5963 448.447C24.2098 448.447 31.1924 441.465 31.1924 432.851C31.1924 424.238 24.2098 417.255 15.5963 417.255C6.98278 417.255 0 424.238 0 432.851C0 441.465 6.98278 448.447 15.5963 448.447Z" fill="black"/>
<path d="M46.7887 448.447C55.4022 448.447 62.3847 441.465 62.3847 432.851C62.3847 424.238 55.4022 417.255 46.7887 417.255C38.1752 417.255 31.1924 424.238 31.1924 432.851C31.1924 441.465 38.1752 448.447 46.7887 448.447Z" fill="black"/>
<path d="M78.0648 448.447C86.6783 448.447 93.6611 441.465 93.6611 432.851C93.6611 424.238 86.6783 417.255 78.0648 417.255C69.4513 417.255 62.4688 424.238 62.4688 432.851C62.4688 441.465 69.4513 448.447 78.0648 448.447Z" fill="black"/>
<path d="M15.5963 479.724C24.2098 479.724 31.1924 472.741 31.1924 464.127C31.1924 455.514 24.2098 448.531 15.5963 448.531C6.98278 448.531 0 455.514 0 464.127C0 472.741 6.98278 479.724 15.5963 479.724Z" fill="black"/>
<path d="M46.7887 479.724C55.4022 479.724 62.3847 472.741 62.3847 464.127C62.3847 455.514 55.4022 448.531 46.7887 448.531C38.1752 448.531 31.1924 455.514 31.1924 464.127C31.1924 472.741 38.1752 479.724 46.7887 479.724Z" fill="black"/>
<path d="M78.0648 479.724C86.6783 479.724 93.6611 472.741 93.6611 464.127C93.6611 455.514 86.6783 448.531 78.0648 448.531C69.4513 448.531 62.4688 455.514 62.4688 464.127C62.4688 472.741 69.4513 479.724 78.0648 479.724Z" fill="black"/>
<path d="M15.5963 511C24.2098 511 31.1924 504.017 31.1924 495.404C31.1924 486.79 24.2098 479.808 15.5963 479.808C6.98278 479.808 0 486.79 0 495.404C0 504.017 6.98278 511 15.5963 511Z" fill="black"/>
<path d="M46.7887 511C55.4022 511 62.3847 504.017 62.3847 495.404C62.3847 486.79 55.4022 479.808 46.7887 479.808C38.1752 479.808 31.1924 486.79 31.1924 495.404C31.1924 504.017 38.1752 511 46.7887 511Z" fill="black"/>
<path d="M78.0648 511C86.6783 511 93.6611 504.017 93.6611 495.404C93.6611 486.79 86.6783 479.808 78.0648 479.808C69.4513 479.808 62.4688 486.79 62.4688 495.404C62.4688 504.017 69.4513 511 78.0648 511Z" fill="black"/>
</svg>
