<svg width="857" height="506" viewBox="0 0 857 506" fill="none" xmlns="http://www.w3.org/2000/svg">
<path d="M682.238 34.1976C690.853 34.1976 697.837 27.2138 697.837 18.5988C697.837 9.98382 690.853 3 682.238 3C673.623 3 666.64 9.98382 666.64 18.5988C666.64 27.2138 673.623 34.1976 682.238 34.1976Z" stroke="black" stroke-width="5" stroke-miterlimit="10"/>
<path d="M713.52 34.1976C722.135 34.1976 729.118 27.2138 729.118 18.5988C729.118 9.98382 722.135 3 713.52 3C704.905 3 697.921 9.98382 697.921 18.5988C697.921 27.2138 704.905 34.1976 713.52 34.1976Z" stroke="black" stroke-width="5" stroke-miterlimit="10"/>
<path d="M744.801 34.1976C753.416 34.1976 760.4 27.2138 760.4 18.5988C760.4 9.98382 753.416 3 744.801 3C736.186 3 729.202 9.98382 729.202 18.5988C729.202 27.2138 736.186 34.1976 744.801 34.1976Z" stroke="black" stroke-width="5" stroke-miterlimit="10"/>
<path d="M682.238 65.4788C690.853 65.4788 697.837 58.495 697.837 49.88C697.837 41.265 690.853 34.2812 682.238 34.2812C673.623 34.2812 666.64 41.265 666.64 49.88C666.64 58.495 673.623 65.4788 682.238 65.4788Z" stroke="black" stroke-width="5" stroke-miterlimit="10"/>
<path d="M713.52 65.4788C722.135 65.4788 729.118 58.495 729.118 49.88C729.118 41.265 722.135 34.2812 713.52 34.2812C704.905 34.2812 697.921 41.265 697.921 49.88C697.921 58.495 704.905 65.4788 713.52 65.4788Z" stroke="black" stroke-width="5" stroke-miterlimit="10"/>
<path d="M744.801 65.4788C753.416 65.4788 760.4 58.495 760.4 49.88C760.4 41.265 753.416 34.2812 744.801 34.2812C736.186 34.2812 729.202 41.265 729.202 49.88C729.202 58.495 736.186 65.4788 744.801 65.4788Z" stroke="black" stroke-width="5" stroke-miterlimit="10"/>
<path d="M682.238 96.76C690.853 96.76 697.837 89.7763 697.837 81.1613C697.837 72.5463 690.853 65.5625 682.238 65.5625C673.623 65.5625 666.64 72.5463 666.64 81.1613C666.64 89.7763 673.623 96.76 682.238 96.76Z" stroke="black" stroke-width="5" stroke-miterlimit="10"/>
<path d="M713.52 96.76C722.135 96.76 729.118 89.7763 729.118 81.1613C729.118 72.5463 722.135 65.5625 713.52 65.5625C704.905 65.5625 697.921 72.5463 697.921 81.1613C697.921 89.7763 704.905 96.76 713.52 96.76Z" stroke="black" stroke-width="5" stroke-miterlimit="10"/>
<path d="M744.801 96.76C753.416 96.76 760.4 89.7763 760.4 81.1613C760.4 72.5463 753.416 65.5625 744.801 65.5625C736.186 65.5625 729.202 72.5463 729.202 81.1613C729.202 89.7763 736.186 96.76 744.801 96.76Z" stroke="black" stroke-width="5" stroke-miterlimit="10"/>
<path d="M682.238 127.958C690.853 127.958 697.837 120.975 697.837 112.36C697.837 103.745 690.853 96.7607 682.238 96.7607C673.623 96.7607 666.64 103.745 666.64 112.36C666.64 120.975 673.623 127.958 682.238 127.958Z" stroke="black" stroke-width="5" stroke-miterlimit="10"/>
<path d="M713.52 127.958C722.135 127.958 729.118 120.975 729.118 112.36C729.118 103.745 722.135 96.7607 713.52 96.7607C704.905 96.7607 697.921 103.745 697.921 112.36C697.921 120.975 704.905 127.958 713.52 127.958Z" stroke="black" stroke-width="5" stroke-miterlimit="10"/>
<path d="M744.801 127.958C753.416 127.958 760.4 120.975 760.4 112.36C760.4 103.745 753.416 96.7607 744.801 96.7607C736.186 96.7607 729.202 103.745 729.202 112.36C729.202 120.975 736.186 127.958 744.801 127.958Z" stroke="black" stroke-width="5" stroke-miterlimit="10"/>
<path d="M713.52 159.24C722.135 159.24 729.118 152.256 729.118 143.641C729.118 135.026 722.135 128.042 713.52 128.042C704.905 128.042 697.921 135.026 697.921 143.641C697.921 152.256 704.905 159.24 713.52 159.24Z" stroke="black" stroke-width="5" stroke-miterlimit="10"/>
<path d="M744.801 159.24C753.416 159.24 760.4 152.256 760.4 143.641C760.4 135.026 753.416 128.042 744.801 128.042C736.186 128.042 729.202 135.026 729.202 143.641C729.202 152.256 736.186 159.24 744.801 159.24Z" stroke="black" stroke-width="5" stroke-miterlimit="10"/>
<path d="M776.082 159.24C784.697 159.24 791.681 152.256 791.681 143.641C791.681 135.026 784.697 128.042 776.082 128.042C767.467 128.042 760.483 135.026 760.483 143.641C760.483 152.256 767.467 159.24 776.082 159.24Z" stroke="black" stroke-width="5" stroke-miterlimit="10"/>
<path d="M713.52 190.521C722.135 190.521 729.118 183.537 729.118 174.922C729.118 166.307 722.135 159.323 713.52 159.323C704.905 159.323 697.921 166.307 697.921 174.922C697.921 183.537 704.905 190.521 713.52 190.521Z" stroke="black" stroke-width="5" stroke-miterlimit="10"/>
<path d="M744.801 190.521C753.416 190.521 760.4 183.537 760.4 174.922C760.4 166.307 753.416 159.323 744.801 159.323C736.186 159.323 729.202 166.307 729.202 174.922C729.202 183.537 736.186 190.521 744.801 190.521Z" stroke="black" stroke-width="5" stroke-miterlimit="10"/>
<path d="M776.082 190.521C784.697 190.521 791.681 183.537 791.681 174.922C791.681 166.307 784.697 159.323 776.082 159.323C767.467 159.323 760.483 166.307 760.483 174.922C760.483 183.537 767.467 190.521 776.082 190.521Z" stroke="black" stroke-width="5" stroke-miterlimit="10"/>
<path d="M713.52 221.718C722.135 221.718 729.118 214.734 729.118 206.119C729.118 197.504 722.135 190.521 713.52 190.521C704.905 190.521 697.921 197.504 697.921 206.119C697.921 214.734 704.905 221.718 713.52 221.718Z" stroke="black" stroke-width="5" stroke-miterlimit="10"/>
<path d="M744.801 221.718C753.416 221.718 760.4 214.734 760.4 206.119C760.4 197.504 753.416 190.521 744.801 190.521C736.186 190.521 729.202 197.504 729.202 206.119C729.202 214.734 736.186 221.718 744.801 221.718Z" stroke="black" stroke-width="5" stroke-miterlimit="10"/>
<path d="M776.082 221.718C784.697 221.718 791.681 214.734 791.681 206.119C791.681 197.504 784.697 190.521 776.082 190.521C767.467 190.521 760.483 197.504 760.483 206.119C760.483 214.734 767.467 221.718 776.082 221.718Z" stroke="black" stroke-width="5" stroke-miterlimit="10"/>
<path d="M713.52 253C722.135 253 729.118 246.017 729.118 237.402C729.118 228.787 722.135 221.803 713.52 221.803C704.905 221.803 697.921 228.787 697.921 237.402C697.921 246.017 704.905 253 713.52 253Z" stroke="black" stroke-width="5" stroke-miterlimit="10"/>
<path d="M744.801 253C753.416 253 760.4 246.017 760.4 237.402C760.4 228.787 753.416 221.803 744.801 221.803C736.186 221.803 729.202 228.787 729.202 237.402C729.202 246.017 736.186 253 744.801 253Z" stroke="black" stroke-width="5" stroke-miterlimit="10"/>
<path d="M776.082 253C784.697 253 791.681 246.017 791.681 237.402C791.681 228.787 784.697 221.803 776.082 221.803C767.467 221.803 760.483 228.787 760.483 237.402C760.483 246.017 767.467 253 776.082 253Z" stroke="black" stroke-width="5" stroke-miterlimit="10"/>
<path d="M744.801 284.281C753.416 284.281 760.4 277.298 760.4 268.683C760.4 260.068 753.416 253.084 744.801 253.084C736.186 253.084 729.202 260.068 729.202 268.683C729.202 277.298 736.186 284.281 744.801 284.281Z" stroke="black" stroke-width="5" stroke-miterlimit="10"/>
<path d="M776.082 284.281C784.697 284.281 791.681 277.298 791.681 268.683C791.681 260.068 784.697 253.084 776.082 253.084C767.467 253.084 760.483 260.068 760.483 268.683C760.483 277.298 767.467 284.281 776.082 284.281Z" stroke="black" stroke-width="5" stroke-miterlimit="10"/>
<path d="M807.28 284.281C815.895 284.281 822.879 277.298 822.879 268.683C822.879 260.068 815.895 253.084 807.28 253.084C798.665 253.084 791.682 260.068 791.682 268.683C791.682 277.298 798.665 284.281 807.28 284.281Z" stroke="black" stroke-width="5" stroke-miterlimit="10"/>
<path d="M744.801 315.479C753.416 315.479 760.4 308.495 760.4 299.88C760.4 291.265 753.416 284.281 744.801 284.281C736.186 284.281 729.202 291.265 729.202 299.88C729.202 308.495 736.186 315.479 744.801 315.479Z" stroke="black" stroke-width="5" stroke-miterlimit="10"/>
<path d="M776.082 315.479C784.697 315.479 791.681 308.495 791.681 299.88C791.681 291.265 784.697 284.281 776.082 284.281C767.467 284.281 760.483 291.265 760.483 299.88C760.483 308.495 767.467 315.479 776.082 315.479Z" stroke="black" stroke-width="5" stroke-miterlimit="10"/>
<path d="M807.28 315.479C815.895 315.479 822.879 308.495 822.879 299.88C822.879 291.265 815.895 284.281 807.28 284.281C798.665 284.281 791.682 291.265 791.682 299.88C791.682 308.495 798.665 315.479 807.28 315.479Z" stroke="black" stroke-width="5" stroke-miterlimit="10"/>
<path d="M744.801 346.76C753.416 346.76 760.4 339.776 760.4 331.161C760.4 322.546 753.416 315.562 744.801 315.562C736.186 315.562 729.202 322.546 729.202 331.161C729.202 339.776 736.186 346.76 744.801 346.76Z" stroke="black" stroke-width="5" stroke-miterlimit="10"/>
<path d="M776.082 346.76C784.697 346.76 791.681 339.776 791.681 331.161C791.681 322.546 784.697 315.562 776.082 315.562C767.467 315.562 760.483 322.546 760.483 331.161C760.483 339.776 767.467 346.76 776.082 346.76Z" stroke="black" stroke-width="5" stroke-miterlimit="10"/>
<path d="M807.28 346.76C815.895 346.76 822.879 339.776 822.879 331.161C822.879 322.546 815.895 315.562 807.28 315.562C798.665 315.562 791.682 322.546 791.682 331.161C791.682 339.776 798.665 346.76 807.28 346.76Z" stroke="black" stroke-width="5" stroke-miterlimit="10"/>
<path d="M744.801 378.042C753.416 378.042 760.4 371.059 760.4 362.444C760.4 353.829 753.416 346.845 744.801 346.845C736.186 346.845 729.202 353.829 729.202 362.444C729.202 371.059 736.186 378.042 744.801 378.042Z" stroke="black" stroke-width="5" stroke-miterlimit="10"/>
<path d="M776.082 378.042C784.697 378.042 791.681 371.059 791.681 362.444C791.681 353.829 784.697 346.845 776.082 346.845C767.467 346.845 760.483 353.829 760.483 362.444C760.483 371.059 767.467 378.042 776.082 378.042Z" stroke="black" stroke-width="5" stroke-miterlimit="10"/>
<path d="M807.28 378.042C815.895 378.042 822.879 371.059 822.879 362.444C822.879 353.829 815.895 346.845 807.28 346.845C798.665 346.845 791.682 353.829 791.682 362.444C791.682 371.059 798.665 378.042 807.28 378.042Z" stroke="black" stroke-width="5" stroke-miterlimit="10"/>
<path d="M776.082 409.24C784.697 409.24 791.681 402.256 791.681 393.641C791.681 385.026 784.697 378.042 776.082 378.042C767.467 378.042 760.483 385.026 760.483 393.641C760.483 402.256 767.467 409.24 776.082 409.24Z" stroke="black" stroke-width="5" stroke-miterlimit="10"/>
<path d="M807.28 409.24C815.895 409.24 822.879 402.256 822.879 393.641C822.879 385.026 815.895 378.042 807.28 378.042C798.665 378.042 791.682 385.026 791.682 393.641C791.682 402.256 798.665 409.24 807.28 409.24Z" stroke="black" stroke-width="5" stroke-miterlimit="10"/>
<path d="M838.562 409.24C847.177 409.24 854.16 402.256 854.16 393.641C854.16 385.026 847.177 378.042 838.562 378.042C829.947 378.042 822.963 385.026 822.963 393.641C822.963 402.256 829.947 409.24 838.562 409.24Z" stroke="black" stroke-width="5" stroke-miterlimit="10"/>
<path d="M776.082 440.521C784.697 440.521 791.681 433.537 791.681 424.922C791.681 416.307 784.697 409.323 776.082 409.323C767.467 409.323 760.483 416.307 760.483 424.922C760.483 433.537 767.467 440.521 776.082 440.521Z" stroke="black" stroke-width="5" stroke-miterlimit="10"/>
<path d="M807.28 440.521C815.895 440.521 822.879 433.537 822.879 424.922C822.879 416.307 815.895 409.323 807.28 409.323C798.665 409.323 791.682 416.307 791.682 424.922C791.682 433.537 798.665 440.521 807.28 440.521Z" stroke="black" stroke-width="5" stroke-miterlimit="10"/>
<path d="M838.562 440.521C847.177 440.521 854.16 433.537 854.16 424.922C854.16 416.307 847.177 409.323 838.562 409.323C829.947 409.323 822.963 416.307 822.963 424.922C822.963 433.537 829.947 440.521 838.562 440.521Z" stroke="black" stroke-width="5" stroke-miterlimit="10"/>
<path d="M776.082 471.802C784.697 471.802 791.681 464.818 791.681 456.203C791.681 447.588 784.697 440.604 776.082 440.604C767.467 440.604 760.483 447.588 760.483 456.203C760.483 464.818 767.467 471.802 776.082 471.802Z" stroke="black" stroke-width="5" stroke-miterlimit="10"/>
<path d="M807.28 471.802C815.895 471.802 822.879 464.818 822.879 456.203C822.879 447.588 815.895 440.604 807.28 440.604C798.665 440.604 791.682 447.588 791.682 456.203C791.682 464.818 798.665 471.802 807.28 471.802Z" stroke="black" stroke-width="5" stroke-miterlimit="10"/>
<path d="M838.562 471.802C847.177 471.802 854.16 464.818 854.16 456.203C854.16 447.588 847.177 440.604 838.562 440.604C829.947 440.604 822.963 447.588 822.963 456.203C822.963 464.818 829.947 471.802 838.562 471.802Z" stroke="black" stroke-width="5" stroke-miterlimit="10"/>
<path d="M776.082 503.084C784.697 503.084 791.681 496.1 791.681 487.486C791.681 478.871 784.697 471.887 776.082 471.887C767.467 471.887 760.483 478.871 760.483 487.486C760.483 496.1 767.467 503.084 776.082 503.084Z" stroke="black" stroke-width="5" stroke-miterlimit="10"/>
<path d="M807.28 503.084C815.895 503.084 822.879 496.1 822.879 487.486C822.879 478.871 815.895 471.887 807.28 471.887C798.665 471.887 791.682 478.871 791.682 487.486C791.682 496.1 798.665 503.084 807.28 503.084Z" stroke="black" stroke-width="5" stroke-miterlimit="10"/>
<path d="M838.562 503.084C847.177 503.084 854.16 496.1 854.16 487.486C854.16 478.871 847.177 471.887 838.562 471.887C829.947 471.887 822.963 478.871 822.963 487.486C822.963 496.1 829.947 503.084 838.562 503.084Z" stroke="black" stroke-width="5" stroke-miterlimit="10"/>
<path d="M682.238 159.24C690.853 159.24 697.837 152.256 697.837 143.641C697.837 135.026 690.853 128.042 682.238 128.042C673.623 128.042 666.64 135.026 666.64 143.641C666.64 152.256 673.623 159.24 682.238 159.24Z" stroke="black" stroke-width="5" stroke-miterlimit="10"/>
<path d="M588.478 34.1976C597.093 34.1976 604.076 27.2138 604.076 18.5988C604.076 9.98382 597.093 3 588.478 3C579.863 3 572.879 9.98382 572.879 18.5988C572.879 27.2138 579.863 34.1976 588.478 34.1976Z" stroke="black" stroke-width="5" stroke-miterlimit="10"/>
<path d="M619.759 34.1976C628.374 34.1976 635.358 27.2138 635.358 18.5988C635.358 9.98382 628.374 3 619.759 3C611.144 3 604.16 9.98382 604.16 18.5988C604.16 27.2138 611.144 34.1976 619.759 34.1976Z" stroke="black" stroke-width="5" stroke-miterlimit="10"/>
<path d="M588.478 65.4788C597.093 65.4788 604.076 58.495 604.076 49.88C604.076 41.265 597.093 34.2812 588.478 34.2812C579.863 34.2812 572.879 41.265 572.879 49.88C572.879 58.495 579.863 65.4788 588.478 65.4788Z" stroke="black" stroke-width="5" stroke-miterlimit="10"/>
<path d="M619.759 65.4788C628.374 65.4788 635.358 58.495 635.358 49.88C635.358 41.265 628.374 34.2812 619.759 34.2812C611.144 34.2812 604.16 41.265 604.16 49.88C604.16 58.495 611.144 65.4788 619.759 65.4788Z" stroke="black" stroke-width="5" stroke-miterlimit="10"/>
<path d="M588.478 96.76C597.093 96.76 604.076 89.7763 604.076 81.1613C604.076 72.5463 597.093 65.5625 588.478 65.5625C579.863 65.5625 572.879 72.5463 572.879 81.1613C572.879 89.7763 579.863 96.76 588.478 96.76Z" stroke="black" stroke-width="5" stroke-miterlimit="10"/>
<path d="M619.759 96.76C628.374 96.76 635.358 89.7763 635.358 81.1613C635.358 72.5463 628.374 65.5625 619.759 65.5625C611.144 65.5625 604.16 72.5463 604.16 81.1613C604.16 89.7763 611.144 96.76 619.759 96.76Z" stroke="black" stroke-width="5" stroke-miterlimit="10"/>
<path d="M651.04 34.1976C659.655 34.1976 666.639 27.2138 666.639 18.5988C666.639 9.98382 659.655 3 651.04 3C642.425 3 635.441 9.98382 635.441 18.5988C635.441 27.2138 642.425 34.1976 651.04 34.1976Z" stroke="black" stroke-width="5" stroke-miterlimit="10"/>
<path d="M651.04 65.4788C659.655 65.4788 666.639 58.495 666.639 49.88C666.639 41.265 659.655 34.2812 651.04 34.2812C642.425 34.2812 635.441 41.265 635.441 49.88C635.441 58.495 642.425 65.4788 651.04 65.4788Z" stroke="black" stroke-width="5" stroke-miterlimit="10"/>
<path d="M651.04 96.76C659.655 96.76 666.639 89.7763 666.639 81.1613C666.639 72.5463 659.655 65.5625 651.04 65.5625C642.425 65.5625 635.441 72.5463 635.441 81.1613C635.441 89.7763 642.425 96.76 651.04 96.76Z" stroke="black" stroke-width="5" stroke-miterlimit="10"/>
<path d="M619.759 127.958C628.374 127.958 635.358 120.975 635.358 112.36C635.358 103.745 628.374 96.7607 619.759 96.7607C611.144 96.7607 604.16 103.745 604.16 112.36C604.16 120.975 611.144 127.958 619.759 127.958Z" stroke="black" stroke-width="5" stroke-miterlimit="10"/>
<path d="M588.478 127.958C597.093 127.958 604.076 120.975 604.076 112.36C604.076 103.745 597.093 96.7607 588.478 96.7607C579.863 96.7607 572.879 103.745 572.879 112.36C572.879 120.975 579.863 127.958 588.478 127.958Z" stroke="black" stroke-width="5" stroke-miterlimit="10"/>
<path d="M557.28 127.958C565.895 127.958 572.879 120.975 572.879 112.36C572.879 103.745 565.895 96.7607 557.28 96.7607C548.665 96.7607 541.682 103.745 541.682 112.36C541.682 120.975 548.665 127.958 557.28 127.958Z" stroke="black" stroke-width="5" stroke-miterlimit="10"/>
<path d="M588.478 159.24C597.093 159.24 604.076 152.256 604.076 143.641C604.076 135.026 597.093 128.042 588.478 128.042C579.863 128.042 572.879 135.026 572.879 143.641C572.879 152.256 579.863 159.24 588.478 159.24Z" stroke="black" stroke-width="5" stroke-miterlimit="10"/>
<path d="M557.28 159.24C565.895 159.24 572.879 152.256 572.879 143.641C572.879 135.026 565.895 128.042 557.28 128.042C548.665 128.042 541.682 135.026 541.682 143.641C541.682 152.256 548.665 159.24 557.28 159.24Z" stroke="black" stroke-width="5" stroke-miterlimit="10"/>
<path d="M525.999 159.24C534.614 159.24 541.598 152.256 541.598 143.641C541.598 135.026 534.614 128.042 525.999 128.042C517.384 128.042 510.4 135.026 510.4 143.641C510.4 152.256 517.384 159.24 525.999 159.24Z" stroke="black" stroke-width="5" stroke-miterlimit="10"/>
<path d="M588.478 190.521C597.093 190.521 604.076 183.537 604.076 174.922C604.076 166.307 597.093 159.323 588.478 159.323C579.863 159.323 572.879 166.307 572.879 174.922C572.879 183.537 579.863 190.521 588.478 190.521Z" stroke="black" stroke-width="5" stroke-miterlimit="10"/>
<path d="M557.28 190.521C565.895 190.521 572.879 183.537 572.879 174.922C572.879 166.307 565.895 159.323 557.28 159.323C548.665 159.323 541.682 166.307 541.682 174.922C541.682 183.537 548.665 190.521 557.28 190.521Z" stroke="black" stroke-width="5" stroke-miterlimit="10"/>
<path d="M525.999 190.521C534.614 190.521 541.598 183.537 541.598 174.922C541.598 166.307 534.614 159.323 525.999 159.323C517.384 159.323 510.4 166.307 510.4 174.922C510.4 183.537 517.384 190.521 525.999 190.521Z" stroke="black" stroke-width="5" stroke-miterlimit="10"/>
<path d="M588.478 221.718C597.093 221.718 604.076 214.734 604.076 206.119C604.076 197.504 597.093 190.521 588.478 190.521C579.863 190.521 572.879 197.504 572.879 206.119C572.879 214.734 579.863 221.718 588.478 221.718Z" stroke="black" stroke-width="5" stroke-miterlimit="10"/>
<path d="M557.28 221.718C565.895 221.718 572.879 214.734 572.879 206.119C572.879 197.504 565.895 190.521 557.28 190.521C548.665 190.521 541.682 197.504 541.682 206.119C541.682 214.734 548.665 221.718 557.28 221.718Z" stroke="black" stroke-width="5" stroke-miterlimit="10"/>
<path d="M525.999 221.718C534.614 221.718 541.598 214.734 541.598 206.119C541.598 197.504 534.614 190.521 525.999 190.521C517.384 190.521 510.4 197.504 510.4 206.119C510.4 214.734 517.384 221.718 525.999 221.718Z" stroke="black" stroke-width="5" stroke-miterlimit="10"/>
<path d="M588.478 253C597.093 253 604.076 246.017 604.076 237.402C604.076 228.787 597.093 221.803 588.478 221.803C579.863 221.803 572.879 228.787 572.879 237.402C572.879 246.017 579.863 253 588.478 253Z" stroke="black" stroke-width="5" stroke-miterlimit="10"/>
<path d="M557.28 253C565.895 253 572.879 246.017 572.879 237.402C572.879 228.787 565.895 221.803 557.28 221.803C548.665 221.803 541.682 228.787 541.682 237.402C541.682 246.017 548.665 253 557.28 253Z" stroke="black" stroke-width="5" stroke-miterlimit="10"/>
<path d="M525.999 253C534.614 253 541.598 246.017 541.598 237.402C541.598 228.787 534.614 221.803 525.999 221.803C517.384 221.803 510.4 228.787 510.4 237.402C510.4 246.017 517.384 253 525.999 253Z" stroke="black" stroke-width="5" stroke-miterlimit="10"/>
<path d="M557.28 284.281C565.895 284.281 572.879 277.298 572.879 268.683C572.879 260.068 565.895 253.084 557.28 253.084C548.665 253.084 541.682 260.068 541.682 268.683C541.682 277.298 548.665 284.281 557.28 284.281Z" stroke="black" stroke-width="5" stroke-miterlimit="10"/>
<path d="M525.999 284.281C534.614 284.281 541.598 277.298 541.598 268.683C541.598 260.068 534.614 253.084 525.999 253.084C517.384 253.084 510.4 260.068 510.4 268.683C510.4 277.298 517.384 284.281 525.999 284.281Z" stroke="black" stroke-width="5" stroke-miterlimit="10"/>
<path d="M494.717 284.281C503.332 284.281 510.316 277.298 510.316 268.683C510.316 260.068 503.332 253.084 494.717 253.084C486.102 253.084 479.118 260.068 479.118 268.683C479.118 277.298 486.102 284.281 494.717 284.281Z" stroke="black" stroke-width="5" stroke-miterlimit="10"/>
<path d="M557.28 315.479C565.895 315.479 572.879 308.495 572.879 299.88C572.879 291.265 565.895 284.281 557.28 284.281C548.665 284.281 541.682 291.265 541.682 299.88C541.682 308.495 548.665 315.479 557.28 315.479Z" stroke="black" stroke-width="5" stroke-miterlimit="10"/>
<path d="M525.999 315.479C534.614 315.479 541.598 308.495 541.598 299.88C541.598 291.265 534.614 284.281 525.999 284.281C517.384 284.281 510.4 291.265 510.4 299.88C510.4 308.495 517.384 315.479 525.999 315.479Z" stroke="black" stroke-width="5" stroke-miterlimit="10"/>
<path d="M494.717 315.479C503.332 315.479 510.316 308.495 510.316 299.88C510.316 291.265 503.332 284.281 494.717 284.281C486.102 284.281 479.118 291.265 479.118 299.88C479.118 308.495 486.102 315.479 494.717 315.479Z" stroke="black" stroke-width="5" stroke-miterlimit="10"/>
<path d="M557.28 346.76C565.895 346.76 572.879 339.776 572.879 331.161C572.879 322.546 565.895 315.562 557.28 315.562C548.665 315.562 541.682 322.546 541.682 331.161C541.682 339.776 548.665 346.76 557.28 346.76Z" stroke="black" stroke-width="5" stroke-miterlimit="10"/>
<path d="M525.999 346.76C534.614 346.76 541.598 339.776 541.598 331.161C541.598 322.546 534.614 315.562 525.999 315.562C517.384 315.562 510.4 322.546 510.4 331.161C510.4 339.776 517.384 346.76 525.999 346.76Z" stroke="black" stroke-width="5" stroke-miterlimit="10"/>
<path d="M494.717 346.76C503.332 346.76 510.316 339.776 510.316 331.161C510.316 322.546 503.332 315.562 494.717 315.562C486.102 315.562 479.118 322.546 479.118 331.161C479.118 339.776 486.102 346.76 494.717 346.76Z" stroke="black" stroke-width="5" stroke-miterlimit="10"/>
<path d="M557.28 378.042C565.895 378.042 572.879 371.059 572.879 362.444C572.879 353.829 565.895 346.845 557.28 346.845C548.665 346.845 541.682 353.829 541.682 362.444C541.682 371.059 548.665 378.042 557.28 378.042Z" stroke="black" stroke-width="5" stroke-miterlimit="10"/>
<path d="M525.999 378.042C534.614 378.042 541.598 371.059 541.598 362.444C541.598 353.829 534.614 346.845 525.999 346.845C517.384 346.845 510.4 353.829 510.4 362.444C510.4 371.059 517.384 378.042 525.999 378.042Z" stroke="black" stroke-width="5" stroke-miterlimit="10"/>
<path d="M494.717 378.042C503.332 378.042 510.316 371.059 510.316 362.444C510.316 353.829 503.332 346.845 494.717 346.845C486.102 346.845 479.118 353.829 479.118 362.444C479.118 371.059 486.102 378.042 494.717 378.042Z" stroke="black" stroke-width="5" stroke-miterlimit="10"/>
<path d="M525.999 409.24C534.614 409.24 541.598 402.256 541.598 393.641C541.598 385.026 534.614 378.042 525.999 378.042C517.384 378.042 510.4 385.026 510.4 393.641C510.4 402.256 517.384 409.24 525.999 409.24Z" stroke="black" stroke-width="5" stroke-miterlimit="10"/>
<path d="M494.717 409.24C503.332 409.24 510.316 402.256 510.316 393.641C510.316 385.026 503.332 378.042 494.717 378.042C486.102 378.042 479.118 385.026 479.118 393.641C479.118 402.256 486.102 409.24 494.717 409.24Z" stroke="black" stroke-width="5" stroke-miterlimit="10"/>
<path d="M463.52 409.24C472.135 409.24 479.118 402.256 479.118 393.641C479.118 385.026 472.135 378.042 463.52 378.042C454.905 378.042 447.921 385.026 447.921 393.641C447.921 402.256 454.905 409.24 463.52 409.24Z" stroke="black" stroke-width="5" stroke-miterlimit="10"/>
<path d="M525.999 440.521C534.614 440.521 541.598 433.537 541.598 424.922C541.598 416.307 534.614 409.323 525.999 409.323C517.384 409.323 510.4 416.307 510.4 424.922C510.4 433.537 517.384 440.521 525.999 440.521Z" stroke="black" stroke-width="5" stroke-miterlimit="10"/>
<path d="M494.717 440.521C503.332 440.521 510.316 433.537 510.316 424.922C510.316 416.307 503.332 409.323 494.717 409.323C486.102 409.323 479.118 416.307 479.118 424.922C479.118 433.537 486.102 440.521 494.717 440.521Z" stroke="black" stroke-width="5" stroke-miterlimit="10"/>
<path d="M463.52 440.521C472.135 440.521 479.118 433.537 479.118 424.922C479.118 416.307 472.135 409.323 463.52 409.323C454.905 409.323 447.921 416.307 447.921 424.922C447.921 433.537 454.905 440.521 463.52 440.521Z" stroke="black" stroke-width="5" stroke-miterlimit="10"/>
<path d="M525.999 471.802C534.614 471.802 541.598 464.818 541.598 456.203C541.598 447.588 534.614 440.604 525.999 440.604C517.384 440.604 510.4 447.588 510.4 456.203C510.4 464.818 517.384 471.802 525.999 471.802Z" stroke="black" stroke-width="5" stroke-miterlimit="10"/>
<path d="M494.717 471.802C503.332 471.802 510.316 464.818 510.316 456.203C510.316 447.588 503.332 440.604 494.717 440.604C486.102 440.604 479.118 447.588 479.118 456.203C479.118 464.818 486.102 471.802 494.717 471.802Z" stroke="black" stroke-width="5" stroke-miterlimit="10"/>
<path d="M463.52 471.802C472.135 471.802 479.118 464.818 479.118 456.203C479.118 447.588 472.135 440.604 463.52 440.604C454.905 440.604 447.921 447.588 447.921 456.203C447.921 464.818 454.905 471.802 463.52 471.802Z" stroke="black" stroke-width="5" stroke-miterlimit="10"/>
<path d="M525.999 503.084C534.614 503.084 541.598 496.1 541.598 487.486C541.598 478.871 534.614 471.887 525.999 471.887C517.384 471.887 510.4 478.871 510.4 487.486C510.4 496.1 517.384 503.084 525.999 503.084Z" stroke="black" stroke-width="5" stroke-miterlimit="10"/>
<path d="M494.717 503.084C503.332 503.084 510.316 496.1 510.316 487.486C510.316 478.871 503.332 471.887 494.717 471.887C486.102 471.887 479.118 478.871 479.118 487.486C479.118 496.1 486.102 503.084 494.717 503.084Z" stroke="black" stroke-width="5" stroke-miterlimit="10"/>
<path d="M463.52 503.084C472.135 503.084 479.118 496.1 479.118 487.486C479.118 478.871 472.135 471.887 463.52 471.887C454.905 471.887 447.921 478.871 447.921 487.486C447.921 496.1 454.905 503.084 463.52 503.084Z" stroke="black" stroke-width="5" stroke-miterlimit="10"/>
<path d="M619.759 159.24C628.374 159.24 635.358 152.256 635.358 143.641C635.358 135.026 628.374 128.042 619.759 128.042C611.144 128.042 604.16 135.026 604.16 143.641C604.16 152.256 611.144 159.24 619.759 159.24Z" stroke="black" stroke-width="5" stroke-miterlimit="10"/>
<path d="M651.04 284.281C659.655 284.281 666.639 277.298 666.639 268.683C666.639 260.068 659.655 253.084 651.04 253.084C642.425 253.084 635.441 260.068 635.441 268.683C635.441 277.298 642.425 284.281 651.04 284.281Z" stroke="black" stroke-width="5" stroke-miterlimit="10"/>
<path d="M619.759 284.281C628.374 284.281 635.358 277.298 635.358 268.683C635.358 260.068 628.374 253.084 619.759 253.084C611.144 253.084 604.16 260.068 604.16 268.683C604.16 277.298 611.144 284.281 619.759 284.281Z" stroke="black" stroke-width="5" stroke-miterlimit="10"/>
<path d="M588.478 284.281C597.093 284.281 604.076 277.298 604.076 268.683C604.076 260.068 597.093 253.084 588.478 253.084C579.863 253.084 572.879 260.068 572.879 268.683C572.879 277.298 579.863 284.281 588.478 284.281Z" stroke="black" stroke-width="5" stroke-miterlimit="10"/>
<path d="M651.04 315.479C659.655 315.479 666.639 308.495 666.639 299.88C666.639 291.265 659.655 284.281 651.04 284.281C642.425 284.281 635.441 291.265 635.441 299.88C635.441 308.495 642.425 315.479 651.04 315.479Z" stroke="black" stroke-width="5" stroke-miterlimit="10"/>
<path d="M619.759 315.479C628.374 315.479 635.358 308.495 635.358 299.88C635.358 291.265 628.374 284.281 619.759 284.281C611.144 284.281 604.16 291.265 604.16 299.88C604.16 308.495 611.144 315.479 619.759 315.479Z" stroke="black" stroke-width="5" stroke-miterlimit="10"/>
<path d="M588.478 315.479C597.093 315.479 604.076 308.495 604.076 299.88C604.076 291.265 597.093 284.281 588.478 284.281C579.863 284.281 572.879 291.265 572.879 299.88C572.879 308.495 579.863 315.479 588.478 315.479Z" stroke="black" stroke-width="5" stroke-miterlimit="10"/>
<path d="M651.04 346.76C659.655 346.76 666.639 339.776 666.639 331.161C666.639 322.546 659.655 315.562 651.04 315.562C642.425 315.562 635.441 322.546 635.441 331.161C635.441 339.776 642.425 346.76 651.04 346.76Z" stroke="black" stroke-width="5" stroke-miterlimit="10"/>
<path d="M619.759 346.76C628.374 346.76 635.358 339.776 635.358 331.161C635.358 322.546 628.374 315.562 619.759 315.562C611.144 315.562 604.16 322.546 604.16 331.161C604.16 339.776 611.144 346.76 619.759 346.76Z" stroke="black" stroke-width="5" stroke-miterlimit="10"/>
<path d="M588.478 346.76C597.093 346.76 604.076 339.776 604.076 331.161C604.076 322.546 597.093 315.562 588.478 315.562C579.863 315.562 572.879 322.546 572.879 331.161C572.879 339.776 579.863 346.76 588.478 346.76Z" stroke="black" stroke-width="5" stroke-miterlimit="10"/>
<path d="M713.52 284.281C722.135 284.281 729.118 277.298 729.118 268.683C729.118 260.068 722.135 253.084 713.52 253.084C704.905 253.084 697.921 260.068 697.921 268.683C697.921 277.298 704.905 284.281 713.52 284.281Z" stroke="black" stroke-width="5" stroke-miterlimit="10"/>
<path d="M682.238 284.281C690.853 284.281 697.837 277.298 697.837 268.683C697.837 260.068 690.853 253.084 682.238 253.084C673.623 253.084 666.64 260.068 666.64 268.683C666.64 277.298 673.623 284.281 682.238 284.281Z" stroke="black" stroke-width="5" stroke-miterlimit="10"/>
<path d="M713.52 315.479C722.135 315.479 729.118 308.495 729.118 299.88C729.118 291.265 722.135 284.281 713.52 284.281C704.905 284.281 697.921 291.265 697.921 299.88C697.921 308.495 704.905 315.479 713.52 315.479Z" stroke="black" stroke-width="5" stroke-miterlimit="10"/>
<path d="M682.238 315.479C690.853 315.479 697.837 308.495 697.837 299.88C697.837 291.265 690.853 284.281 682.238 284.281C673.623 284.281 666.64 291.265 666.64 299.88C666.64 308.495 673.623 315.479 682.238 315.479Z" stroke="black" stroke-width="5" stroke-miterlimit="10"/>
<path d="M713.52 346.76C722.135 346.76 729.118 339.776 729.118 331.161C729.118 322.546 722.135 315.562 713.52 315.562C704.905 315.562 697.921 322.546 697.921 331.161C697.921 339.776 704.905 346.76 713.52 346.76Z" stroke="black" stroke-width="5" stroke-miterlimit="10"/>
<path d="M682.238 346.76C690.853 346.76 697.837 339.776 697.837 331.161C697.837 322.546 690.853 315.562 682.238 315.562C673.623 315.562 666.64 322.546 666.64 331.161C666.64 339.776 673.623 346.76 682.238 346.76Z" stroke="black" stroke-width="5" stroke-miterlimit="10"/>
<path d="M15.5988 34.1976C24.2138 34.1976 31.1976 27.2138 31.1976 18.5988C31.1976 9.98382 24.2138 3 15.5988 3C6.98382 3 0 9.98382 0 18.5988C0 27.2138 6.98382 34.1976 15.5988 34.1976Z" fill="black"/>
<path d="M78.1613 34.1976C86.7763 34.1976 93.7601 27.2138 93.7601 18.5988C93.7601 9.98382 86.7763 3 78.1613 3C69.5463 3 62.5625 9.98382 62.5625 18.5988C62.5625 27.2138 69.5463 34.1976 78.1613 34.1976Z" fill="black"/>
<path d="M140.641 34.1976C149.256 34.1976 156.239 27.2138 156.239 18.5988C156.239 9.98382 149.256 3 140.641 3C132.026 3 125.042 9.98382 125.042 18.5988C125.042 27.2138 132.026 34.1976 140.641 34.1976Z" fill="black"/>
<path d="M15.5988 65.4788C24.2138 65.4788 31.1976 58.495 31.1976 49.88C31.1976 41.2651 24.2138 34.2812 15.5988 34.2812C6.98382 34.2812 0 41.2651 0 49.88C0 58.495 6.98382 65.4788 15.5988 65.4788Z" fill="black"/>
<path d="M78.1613 65.4788C86.7763 65.4788 93.7601 58.495 93.7601 49.88C93.7601 41.2651 86.7763 34.2812 78.1613 34.2812C69.5463 34.2812 62.5625 41.2651 62.5625 49.88C62.5625 58.495 69.5463 65.4788 78.1613 65.4788Z" fill="black"/>
<path d="M15.5988 96.6771C24.2138 96.6771 31.1976 89.6933 31.1976 81.0783C31.1976 72.4633 24.2138 65.4795 15.5988 65.4795C6.98382 65.4795 0 72.4633 0 81.0783C0 89.6933 6.98382 96.6771 15.5988 96.6771Z" fill="black"/>
<path d="M78.1613 96.6771C86.7763 96.6771 93.7601 89.6933 93.7601 81.0783C93.7601 72.4633 86.7763 65.4795 78.1613 65.4795C69.5463 65.4795 62.5625 72.4633 62.5625 81.0783C62.5625 89.6933 69.5463 96.6771 78.1613 96.6771Z" fill="black"/>
<path d="M15.5988 127.958C24.2138 127.958 31.1976 120.975 31.1976 112.36C31.1976 103.745 24.2138 96.7607 15.5988 96.7607C6.98382 96.7607 0 103.745 0 112.36C0 120.975 6.98382 127.958 15.5988 127.958Z" fill="black"/>
<path d="M78.1613 127.958C86.7763 127.958 93.7601 120.975 93.7601 112.36C93.7601 103.745 86.7763 96.7607 78.1613 96.7607C69.5463 96.7607 62.5625 103.745 62.5625 112.36C62.5625 120.975 69.5463 127.958 78.1613 127.958Z" fill="black"/>
<path d="M15.5988 159.24C24.2138 159.24 31.1976 152.256 31.1976 143.641C31.1976 135.026 24.2138 128.042 15.5988 128.042C6.98382 128.042 0 135.026 0 143.641C0 152.256 6.98382 159.24 15.5988 159.24Z" fill="black"/>
<path d="M78.1613 159.24C86.7763 159.24 93.7601 152.256 93.7601 143.641C93.7601 135.026 86.7763 128.042 78.1613 128.042C69.5463 128.042 62.5625 135.026 62.5625 143.641C62.5625 152.256 69.5463 159.24 78.1613 159.24Z" fill="black"/>
<path d="M15.5988 190.437C24.2138 190.437 31.1976 183.453 31.1976 174.838C31.1976 166.223 24.2138 159.239 15.5988 159.239C6.98382 159.239 0 166.223 0 174.838C0 183.453 6.98382 190.437 15.5988 190.437Z" fill="black"/>
<path d="M78.1613 190.437C86.7763 190.437 93.7601 183.453 93.7601 174.838C93.7601 166.223 86.7763 159.239 78.1613 159.239C69.5463 159.239 62.5625 166.223 62.5625 174.838C62.5625 183.453 69.5463 190.437 78.1613 190.437Z" fill="black"/>
<path d="M15.5988 221.718C24.2138 221.718 31.1976 214.734 31.1976 206.119C31.1976 197.504 24.2138 190.521 15.5988 190.521C6.98382 190.521 0 197.504 0 206.119C0 214.734 6.98382 221.718 15.5988 221.718Z" fill="black"/>
<path d="M78.1613 221.718C86.7763 221.718 93.7601 214.734 93.7601 206.119C93.7601 197.504 86.7763 190.521 78.1613 190.521C69.5463 190.521 62.5625 197.504 62.5625 206.119C62.5625 214.734 69.5463 221.718 78.1613 221.718Z" fill="black"/>
<path d="M15.5988 253C24.2138 253 31.1976 246.017 31.1976 237.402C31.1976 228.787 24.2138 221.803 15.5988 221.803C6.98382 221.803 0 228.787 0 237.402C0 246.017 6.98382 253 15.5988 253Z" fill="black"/>
<path d="M78.1613 253C86.7763 253 93.7601 246.017 93.7601 237.402C93.7601 228.787 86.7763 221.803 78.1613 221.803C69.5463 221.803 62.5625 228.787 62.5625 237.402C62.5625 246.017 69.5463 253 78.1613 253Z" fill="black"/>
<path d="M15.5988 284.198C24.2138 284.198 31.1976 277.214 31.1976 268.599C31.1976 259.984 24.2138 253 15.5988 253C6.98382 253 0 259.984 0 268.599C0 277.214 6.98382 284.198 15.5988 284.198Z" fill="black"/>
<path d="M78.1613 284.198C86.7763 284.198 93.7601 277.214 93.7601 268.599C93.7601 259.984 86.7763 253 78.1613 253C69.5463 253 62.5625 259.984 62.5625 268.599C62.5625 277.214 69.5463 284.198 78.1613 284.198Z" fill="black"/>
<path d="M15.5988 315.479C24.2138 315.479 31.1976 308.495 31.1976 299.88C31.1976 291.265 24.2138 284.281 15.5988 284.281C6.98382 284.281 0 291.265 0 299.88C0 308.495 6.98382 315.479 15.5988 315.479Z" fill="black"/>
<path d="M78.1613 315.479C86.7763 315.479 93.7601 308.495 93.7601 299.88C93.7601 291.265 86.7763 284.281 78.1613 284.281C69.5463 284.281 62.5625 291.265 62.5625 299.88C62.5625 308.495 69.5463 315.479 78.1613 315.479Z" fill="black"/>
<path d="M15.5988 346.76C24.2138 346.76 31.1976 339.776 31.1976 331.161C31.1976 322.546 24.2138 315.562 15.5988 315.562C6.98382 315.562 0 322.546 0 331.161C0 339.776 6.98382 346.76 15.5988 346.76Z" fill="black"/>
<path d="M78.1613 346.76C86.7763 346.76 93.7601 339.776 93.7601 331.161C93.7601 322.546 86.7763 315.562 78.1613 315.562C69.5463 315.562 62.5625 322.546 62.5625 331.161C62.5625 339.776 69.5463 346.76 78.1613 346.76Z" fill="black"/>
<path d="M15.5988 378.042C24.2138 378.042 31.1976 371.059 31.1976 362.444C31.1976 353.829 24.2138 346.845 15.5988 346.845C6.98382 346.845 0 353.829 0 362.444C0 371.059 6.98382 378.042 15.5988 378.042Z" fill="black"/>
<path d="M78.1613 378.042C86.7763 378.042 93.7601 371.059 93.7601 362.444C93.7601 353.829 86.7763 346.845 78.1613 346.845C69.5463 346.845 62.5625 353.829 62.5625 362.444C62.5625 371.059 69.5463 378.042 78.1613 378.042Z" fill="black"/>
<path d="M15.5988 409.24C24.2138 409.24 31.1976 402.256 31.1976 393.641C31.1976 385.026 24.2138 378.042 15.5988 378.042C6.98382 378.042 0 385.026 0 393.641C0 402.256 6.98382 409.24 15.5988 409.24Z" fill="black"/>
<path d="M78.1613 409.24C86.7763 409.24 93.7601 402.256 93.7601 393.641C93.7601 385.026 86.7763 378.042 78.1613 378.042C69.5463 378.042 62.5625 385.026 62.5625 393.641C62.5625 402.256 69.5463 409.24 78.1613 409.24Z" fill="black"/>
<path d="M15.5988 440.521C24.2138 440.521 31.1976 433.537 31.1976 424.922C31.1976 416.307 24.2138 409.323 15.5988 409.323C6.98382 409.323 0 416.307 0 424.922C0 433.537 6.98382 440.521 15.5988 440.521Z" fill="black"/>
<path d="M78.1613 440.521C86.7763 440.521 93.7601 433.537 93.7601 424.922C93.7601 416.307 86.7763 409.323 78.1613 409.323C69.5463 409.323 62.5625 416.307 62.5625 424.922C62.5625 433.537 69.5463 440.521 78.1613 440.521Z" fill="black"/>
<path d="M15.5988 471.802C24.2138 471.802 31.1976 464.818 31.1976 456.203C31.1976 447.588 24.2138 440.604 15.5988 440.604C6.98382 440.604 0 447.588 0 456.203C0 464.818 6.98382 471.802 15.5988 471.802Z" fill="black"/>
<path d="M78.1613 471.802C86.7763 471.802 93.7601 464.818 93.7601 456.203C93.7601 447.588 86.7763 440.604 78.1613 440.604C69.5463 440.604 62.5625 447.588 62.5625 456.203C62.5625 464.818 69.5463 471.802 78.1613 471.802Z" fill="black"/>
<path d="M15.5988 503C24.2138 503 31.1976 496.017 31.1976 487.402C31.1976 478.787 24.2138 471.803 15.5988 471.803C6.98382 471.803 0 478.787 0 487.402C0 496.017 6.98382 503 15.5988 503Z" fill="black"/>
<path d="M78.1613 503C86.7763 503 93.7601 496.017 93.7601 487.402C93.7601 478.787 86.7763 471.803 78.1613 471.803C69.5463 471.803 62.5625 478.787 62.5625 487.402C62.5625 496.017 69.5463 503 78.1613 503Z" fill="black"/>
<path d="M324.807 34.1976C333.422 34.1976 340.406 27.2138 340.406 18.5988C340.406 9.98382 333.422 3 324.807 3C316.192 3 309.208 9.98382 309.208 18.5988C309.208 27.2138 316.192 34.1976 324.807 34.1976Z" fill="black"/>
<path d="M387.286 34.1976C395.901 34.1976 402.885 27.2138 402.885 18.5988C402.885 9.98382 395.901 3 387.286 3C378.671 3 371.688 9.98382 371.688 18.5988C371.688 27.2138 378.671 34.1976 387.286 34.1976Z" fill="black"/>
<path d="M324.807 65.4788C333.422 65.4788 340.406 58.495 340.406 49.88C340.406 41.2651 333.422 34.2812 324.807 34.2812C316.192 34.2812 309.208 41.2651 309.208 49.88C309.208 58.495 316.192 65.4788 324.807 65.4788Z" fill="black"/>
<path d="M387.286 65.4788C395.901 65.4788 402.885 58.495 402.885 49.88C402.885 41.2651 395.901 34.2812 387.286 34.2812C378.671 34.2812 371.688 41.2651 371.688 49.88C371.688 58.495 378.671 65.4788 387.286 65.4788Z" fill="black"/>
<path d="M324.807 96.6771C333.422 96.6771 340.406 89.6933 340.406 81.0783C340.406 72.4633 333.422 65.4795 324.807 65.4795C316.192 65.4795 309.208 72.4633 309.208 81.0783C309.208 89.6933 316.192 96.6771 324.807 96.6771Z" fill="black"/>
<path d="M387.286 96.6771C395.901 96.6771 402.885 89.6933 402.885 81.0783C402.885 72.4633 395.901 65.4795 387.286 65.4795C378.671 65.4795 371.688 72.4633 371.688 81.0783C371.688 89.6933 378.671 96.6771 387.286 96.6771Z" fill="black"/>
<path d="M324.807 127.958C333.422 127.958 340.406 120.975 340.406 112.36C340.406 103.745 333.422 96.7607 324.807 96.7607C316.192 96.7607 309.208 103.745 309.208 112.36C309.208 120.975 316.192 127.958 324.807 127.958Z" fill="black"/>
<path d="M387.286 127.958C395.901 127.958 402.885 120.975 402.885 112.36C402.885 103.745 395.901 96.7607 387.286 96.7607C378.671 96.7607 371.688 103.745 371.688 112.36C371.688 120.975 378.671 127.958 387.286 127.958Z" fill="black"/>
<path d="M324.807 159.24C333.422 159.24 340.406 152.256 340.406 143.641C340.406 135.026 333.422 128.042 324.807 128.042C316.192 128.042 309.208 135.026 309.208 143.641C309.208 152.256 316.192 159.24 324.807 159.24Z" fill="black"/>
<path d="M387.286 159.24C395.901 159.24 402.885 152.256 402.885 143.641C402.885 135.026 395.901 128.042 387.286 128.042C378.671 128.042 371.688 135.026 371.688 143.641C371.688 152.256 378.671 159.24 387.286 159.24Z" fill="black"/>
<path d="M324.807 190.437C333.422 190.437 340.406 183.453 340.406 174.838C340.406 166.223 333.422 159.239 324.807 159.239C316.192 159.239 309.208 166.223 309.208 174.838C309.208 183.453 316.192 190.437 324.807 190.437Z" fill="black"/>
<path d="M387.286 190.437C395.901 190.437 402.885 183.453 402.885 174.838C402.885 166.223 395.901 159.239 387.286 159.239C378.671 159.239 371.688 166.223 371.688 174.838C371.688 183.453 378.671 190.437 387.286 190.437Z" fill="black"/>
<path d="M324.807 221.718C333.422 221.718 340.406 214.734 340.406 206.119C340.406 197.504 333.422 190.521 324.807 190.521C316.192 190.521 309.208 197.504 309.208 206.119C309.208 214.734 316.192 221.718 324.807 221.718Z" fill="black"/>
<path d="M387.286 221.718C395.901 221.718 402.885 214.734 402.885 206.119C402.885 197.504 395.901 190.521 387.286 190.521C378.671 190.521 371.688 197.504 371.688 206.119C371.688 214.734 378.671 221.718 387.286 221.718Z" fill="black"/>
<path d="M324.807 253C333.422 253 340.406 246.017 340.406 237.402C340.406 228.787 333.422 221.803 324.807 221.803C316.192 221.803 309.208 228.787 309.208 237.402C309.208 246.017 316.192 253 324.807 253Z" fill="black"/>
<path d="M387.286 253C395.901 253 402.885 246.017 402.885 237.402C402.885 228.787 395.901 221.803 387.286 221.803C378.671 221.803 371.688 228.787 371.688 237.402C371.688 246.017 378.671 253 387.286 253Z" fill="black"/>
<path d="M324.807 284.198C333.422 284.198 340.406 277.214 340.406 268.599C340.406 259.984 333.422 253 324.807 253C316.192 253 309.208 259.984 309.208 268.599C309.208 277.214 316.192 284.198 324.807 284.198Z" fill="black"/>
<path d="M387.286 284.198C395.901 284.198 402.885 277.214 402.885 268.599C402.885 259.984 395.901 253 387.286 253C378.671 253 371.688 259.984 371.688 268.599C371.688 277.214 378.671 284.198 387.286 284.198Z" fill="black"/>
<path d="M324.807 315.479C333.422 315.479 340.406 308.495 340.406 299.88C340.406 291.265 333.422 284.281 324.807 284.281C316.192 284.281 309.208 291.265 309.208 299.88C309.208 308.495 316.192 315.479 324.807 315.479Z" fill="black"/>
<path d="M387.286 315.479C395.901 315.479 402.885 308.495 402.885 299.88C402.885 291.265 395.901 284.281 387.286 284.281C378.671 284.281 371.688 291.265 371.688 299.88C371.688 308.495 378.671 315.479 387.286 315.479Z" fill="black"/>
<path d="M324.807 346.76C333.422 346.76 340.406 339.776 340.406 331.161C340.406 322.546 333.422 315.562 324.807 315.562C316.192 315.562 309.208 322.546 309.208 331.161C309.208 339.776 316.192 346.76 324.807 346.76Z" fill="black"/>
<path d="M387.286 346.76C395.901 346.76 402.885 339.776 402.885 331.161C402.885 322.546 395.901 315.562 387.286 315.562C378.671 315.562 371.688 322.546 371.688 331.161C371.688 339.776 378.671 346.76 387.286 346.76Z" fill="black"/>
<path d="M324.807 378.042C333.422 378.042 340.406 371.059 340.406 362.444C340.406 353.829 333.422 346.845 324.807 346.845C316.192 346.845 309.208 353.829 309.208 362.444C309.208 371.059 316.192 378.042 324.807 378.042Z" fill="black"/>
<path d="M387.286 378.042C395.901 378.042 402.885 371.059 402.885 362.444C402.885 353.829 395.901 346.845 387.286 346.845C378.671 346.845 371.688 353.829 371.688 362.444C371.688 371.059 378.671 378.042 387.286 378.042Z" fill="black"/>
<path d="M324.807 409.24C333.422 409.24 340.406 402.256 340.406 393.641C340.406 385.026 333.422 378.042 324.807 378.042C316.192 378.042 309.208 385.026 309.208 393.641C309.208 402.256 316.192 409.24 324.807 409.24Z" fill="black"/>
<path d="M387.286 409.24C395.901 409.24 402.885 402.256 402.885 393.641C402.885 385.026 395.901 378.042 387.286 378.042C378.671 378.042 371.688 385.026 371.688 393.641C371.688 402.256 378.671 409.24 387.286 409.24Z" fill="black"/>
<path d="M324.807 440.521C333.422 440.521 340.406 433.537 340.406 424.922C340.406 416.307 333.422 409.323 324.807 409.323C316.192 409.323 309.208 416.307 309.208 424.922C309.208 433.537 316.192 440.521 324.807 440.521Z" fill="black"/>
<path d="M387.286 440.521C395.901 440.521 402.885 433.537 402.885 424.922C402.885 416.307 395.901 409.323 387.286 409.323C378.671 409.323 371.688 416.307 371.688 424.922C371.688 433.537 378.671 440.521 387.286 440.521Z" fill="black"/>
<path d="M324.807 471.802C333.422 471.802 340.406 464.818 340.406 456.203C340.406 447.588 333.422 440.604 324.807 440.604C316.192 440.604 309.208 447.588 309.208 456.203C309.208 464.818 316.192 471.802 324.807 471.802Z" fill="black"/>
<path d="M387.286 471.802C395.901 471.802 402.885 464.818 402.885 456.203C402.885 447.588 395.901 440.604 387.286 440.604C378.671 440.604 371.688 447.588 371.688 456.203C371.688 464.818 378.671 471.802 387.286 471.802Z" fill="black"/>
<path d="M324.807 503C333.422 503 340.406 496.017 340.406 487.402C340.406 478.787 333.422 471.803 324.807 471.803C316.192 471.803 309.208 478.787 309.208 487.402C309.208 496.017 316.192 503 324.807 503Z" fill="black"/>
<path d="M387.286 503C395.901 503 402.885 496.017 402.885 487.402C402.885 478.787 395.901 471.803 387.286 471.803C378.671 471.803 371.688 478.787 371.688 487.402C371.688 496.017 378.671 503 387.286 503Z" fill="black"/>
<path d="M140.641 65.4788C149.256 65.4788 156.239 58.495 156.239 49.88C156.239 41.2651 149.256 34.2812 140.641 34.2812C132.026 34.2812 125.042 41.2651 125.042 49.88C125.042 58.495 132.026 65.4788 140.641 65.4788Z" fill="black"/>
<path d="M140.641 96.6771C149.256 96.6771 156.239 89.6933 156.239 81.0783C156.239 72.4633 149.256 65.4795 140.641 65.4795C132.026 65.4795 125.042 72.4633 125.042 81.0783C125.042 89.6933 132.026 96.6771 140.641 96.6771Z" fill="black"/>
<path d="M140.641 127.958C149.256 127.958 156.239 120.975 156.239 112.36C156.239 103.745 149.256 96.7607 140.641 96.7607C132.026 96.7607 125.042 103.745 125.042 112.36C125.042 120.975 132.026 127.958 140.641 127.958Z" fill="black"/>
<path d="M203.203 127.958C211.818 127.958 218.802 120.975 218.802 112.36C218.802 103.745 211.818 96.7607 203.203 96.7607C194.588 96.7607 187.604 103.745 187.604 112.36C187.604 120.975 194.588 127.958 203.203 127.958Z" fill="black"/>
<path d="M140.641 159.24C149.256 159.24 156.239 152.256 156.239 143.641C156.239 135.026 149.256 128.042 140.641 128.042C132.026 128.042 125.042 135.026 125.042 143.641C125.042 152.256 132.026 159.24 140.641 159.24Z" fill="black"/>
<path d="M203.203 159.24C211.818 159.24 218.802 152.256 218.802 143.641C218.802 135.026 211.818 128.042 203.203 128.042C194.588 128.042 187.604 135.026 187.604 143.641C187.604 152.256 194.588 159.24 203.203 159.24Z" fill="black"/>
<path d="M203.203 190.437C211.818 190.437 218.802 183.453 218.802 174.838C218.802 166.223 211.818 159.239 203.203 159.239C194.588 159.239 187.604 166.223 187.604 174.838C187.604 183.453 194.588 190.437 203.203 190.437Z" fill="black"/>
<path d="M203.203 221.718C211.818 221.718 218.802 214.734 218.802 206.119C218.802 197.504 211.818 190.521 203.203 190.521C194.588 190.521 187.604 197.504 187.604 206.119C187.604 214.734 194.588 221.718 203.203 221.718Z" fill="black"/>
<path d="M203.203 253C211.818 253 218.802 246.017 218.802 237.402C218.802 228.787 211.818 221.803 203.203 221.803C194.588 221.803 187.604 228.787 187.604 237.402C187.604 246.017 194.588 253 203.203 253Z" fill="black"/>
<path d="M203.203 284.198C211.818 284.198 218.802 277.214 218.802 268.599C218.802 259.984 211.818 253 203.203 253C194.588 253 187.604 259.984 187.604 268.599C187.604 277.214 194.588 284.198 203.203 284.198Z" fill="black"/>
<path d="M203.203 315.479C211.818 315.479 218.802 308.495 218.802 299.88C218.802 291.265 211.818 284.281 203.203 284.281C194.588 284.281 187.604 291.265 187.604 299.88C187.604 308.495 194.588 315.479 203.203 315.479Z" fill="black"/>
<path d="M261.909 315.479C270.524 315.479 277.508 308.495 277.508 299.88C277.508 291.265 270.524 284.281 261.909 284.281C253.294 284.281 246.311 291.265 246.311 299.88C246.311 308.495 253.294 315.479 261.909 315.479Z" fill="black"/>
<path d="M203.203 346.76C211.818 346.76 218.802 339.776 218.802 331.161C218.802 322.546 211.818 315.562 203.203 315.562C194.588 315.562 187.604 322.546 187.604 331.161C187.604 339.776 194.588 346.76 203.203 346.76Z" fill="black"/>
<path d="M261.909 346.76C270.524 346.76 277.508 339.776 277.508 331.161C277.508 322.546 270.524 315.562 261.909 315.562C253.294 315.562 246.311 322.546 246.311 331.161C246.311 339.776 253.294 346.76 261.909 346.76Z" fill="black"/>
<path d="M261.909 378.042C270.524 378.042 277.508 371.059 277.508 362.444C277.508 353.829 270.524 346.845 261.909 346.845C253.294 346.845 246.311 353.829 246.311 362.444C246.311 371.059 253.294 378.042 261.909 378.042Z" fill="black"/>
<path d="M261.909 409.24C270.524 409.24 277.508 402.256 277.508 393.641C277.508 385.026 270.524 378.042 261.909 378.042C253.294 378.042 246.311 385.026 246.311 393.641C246.311 402.256 253.294 409.24 261.909 409.24Z" fill="black"/>
<path d="M261.909 440.521C270.524 440.521 277.508 433.537 277.508 424.922C277.508 416.307 270.524 409.323 261.909 409.323C253.294 409.323 246.311 416.307 246.311 424.922C246.311 433.537 253.294 440.521 261.909 440.521Z" fill="black"/>
<path d="M261.909 471.802C270.524 471.802 277.508 464.818 277.508 456.203C277.508 447.588 270.524 440.604 261.909 440.604C253.294 440.604 246.311 447.588 246.311 456.203C246.311 464.818 253.294 471.802 261.909 471.802Z" fill="black"/>
<path d="M203.203 96.6771C211.818 96.6771 218.802 89.6933 218.802 81.0783C218.802 72.4633 211.818 65.4795 203.203 65.4795C194.588 65.4795 187.604 72.4633 187.604 81.0783C187.604 89.6933 194.588 96.6771 203.203 96.6771Z" fill="black"/>
</svg>
