<svg width="858" height="506" viewBox="0 0 858 506" fill="none" xmlns="http://www.w3.org/2000/svg">
<path d="M536.966 127.874H513.4V148.337H536.966V127.874Z" fill="black"/>
<path d="M536.966 159.323H513.4V179.786H536.966V159.323Z" fill="black"/>
<path d="M536.966 190.521H513.4V210.983H536.966V190.521Z" fill="black"/>
<path d="M536.966 221.97H513.4V242.433H536.966V221.97Z" fill="black"/>
<path d="M505.852 253H482.286V273.463H505.852V253Z" fill="black"/>
<path d="M505.852 253H482.286V273.463H505.852V253Z" fill="black"/>
<path d="M536.966 253H513.4V273.463H536.966V253Z" fill="black"/>
<path d="M505.852 284.197H482.286V304.66H505.852V284.197Z" fill="black"/>
<path d="M536.966 284.197H513.4V304.66H536.966V284.197Z" fill="black"/>
<path d="M505.852 315.646H482.286V336.109H505.852V315.646Z" fill="black"/>
<path d="M536.966 315.646H513.4V336.109H536.966V315.646Z" fill="black"/>
<path d="M505.852 346.593H482.286V367.056H505.852V346.593Z" fill="black"/>
<path d="M536.966 346.593H513.4V367.056H536.966V346.593Z" fill="black"/>
<path d="M505.852 378.042H482.286V398.505H505.852V378.042Z" fill="black"/>
<path d="M474.487 378.042H450.921V398.505H474.487V378.042Z" fill="black"/>
<path d="M536.966 378.042H513.4V398.505H536.966V378.042Z" fill="black"/>
<path d="M505.852 409.239H482.286V429.702H505.852V409.239Z" fill="black"/>
<path d="M474.487 409.239H450.921V429.702H474.487V409.239Z" fill="black"/>
<path d="M536.966 409.239H513.4V429.702H536.966V409.239Z" fill="black"/>
<path d="M505.852 440.688H482.286V461.151H505.852V440.688Z" fill="black"/>
<path d="M474.487 440.688H450.921V461.151H474.487V440.688Z" fill="black"/>
<path d="M536.966 440.688H513.4V461.151H536.966V440.688Z" fill="black"/>
<path d="M505.852 471.887H482.286V492.35H505.852V471.887Z" fill="black"/>
<path d="M474.487 471.887H450.921V492.35H474.487V471.887Z" fill="black"/>
<path d="M536.966 471.887H513.4V492.35H536.966V471.887Z" fill="black"/>
<path d="M599.613 3H576.047V23.463H599.613V3Z" fill="black"/>
<path d="M630.726 3H607.16V23.463H630.726V3Z" fill="black"/>
<path d="M599.613 34.0303H576.047V54.4932H599.613V34.0303Z" fill="black"/>
<path d="M630.726 34.0303H607.16V54.4932H630.726V34.0303Z" fill="black"/>
<path d="M599.613 65.4795H576.047V85.9424H599.613V65.4795Z" fill="black"/>
<path d="M630.726 65.4795H607.16V85.9424H630.726V65.4795Z" fill="black"/>
<path d="M599.613 96.6768H576.047V117.14H599.613V96.6768Z" fill="black"/>
<path d="M568.248 96.6768H544.682V117.14H568.248V96.6768Z" fill="black"/>
<path d="M630.726 96.6768H607.16V117.14H630.726V96.6768Z" fill="black"/>
<path d="M599.613 128.126H576.047V148.589H599.613V128.126Z" fill="black"/>
<path d="M568.248 128.126H544.682V148.589H568.248V128.126Z" fill="black"/>
<path d="M630.726 128.126H607.16V148.589H630.726V128.126Z" fill="black"/>
<path d="M599.613 159.155H576.047V179.618H599.613V159.155Z" fill="black"/>
<path d="M599.613 159.155H576.047V179.618H599.613V159.155Z" fill="black"/>
<path d="M568.248 159.155H544.682V179.618H568.248V159.155Z" fill="black"/>
<path d="M599.613 190.27H576.047V210.732H599.613V190.27Z" fill="black"/>
<path d="M568.248 190.27H544.682V210.732H568.248V190.27Z" fill="black"/>
<path d="M599.613 221.719H576.047V242.182H599.613V221.719Z" fill="black"/>
<path d="M568.248 221.719H544.682V242.182H568.248V221.719Z" fill="black"/>
<path d="M599.613 252.748H576.047V273.211H599.613V252.748Z" fill="black"/>
<path d="M568.248 252.748H544.682V273.211H568.248V252.748Z" fill="black"/>
<path d="M630.726 252.748H607.16V273.211H630.726V252.748Z" fill="black"/>
<path d="M599.613 284.197H576.047V304.66H599.613V284.197Z" fill="black"/>
<path d="M568.248 284.197H544.682V304.66H568.248V284.197Z" fill="black"/>
<path d="M630.726 284.197H607.16V304.66H630.726V284.197Z" fill="black"/>
<path d="M599.613 315.396H576.047V335.858H599.613V315.396Z" fill="black"/>
<path d="M568.248 315.396H544.682V335.858H568.248V315.396Z" fill="black"/>
<path d="M630.726 315.396H607.16V335.858H630.726V315.396Z" fill="black"/>
<path d="M568.248 346.845H544.682V367.308H568.248V346.845Z" fill="black"/>
<path d="M693.374 3.50293H669.808V23.9659H693.374V3.50293Z" fill="black"/>
<path d="M662.007 3.50293H638.441V23.9659H662.007V3.50293Z" fill="black"/>
<path d="M724.487 3.50293H700.921V23.9659H724.487V3.50293Z" fill="black"/>
<path d="M693.374 34.5332H669.808V54.9961H693.374V34.5332Z" fill="black"/>
<path d="M662.007 34.5332H638.441V54.9961H662.007V34.5332Z" fill="black"/>
<path d="M724.487 34.5332H700.921V54.9961H724.487V34.5332Z" fill="black"/>
<path d="M693.374 65.9824H669.808V86.4453H693.374V65.9824Z" fill="black"/>
<path d="M662.007 65.9824H638.441V86.4453H662.007V65.9824Z" fill="black"/>
<path d="M724.487 65.9824H700.921V86.4453H724.487V65.9824Z" fill="black"/>
<path d="M693.374 97.0957H669.808V117.559H693.374V97.0957Z" fill="black"/>
<path d="M724.487 97.0957H700.921V117.559H724.487V97.0957Z" fill="black"/>
<path d="M693.374 128.545H669.808V149.008H693.374V128.545Z" fill="black"/>
<path d="M724.487 128.545H700.921V149.008H724.487V128.545Z" fill="black"/>
<path d="M724.487 159.575H700.921V180.038H724.487V159.575Z" fill="black"/>
<path d="M724.487 190.772H700.921V211.235H724.487V190.772Z" fill="black"/>
<path d="M724.487 222.222H700.921V242.685H724.487V222.222Z" fill="black"/>
<path d="M693.374 253.252H669.808V273.715H693.374V253.252Z" fill="black"/>
<path d="M662.007 253.252H638.441V273.715H662.007V253.252Z" fill="black"/>
<path d="M724.487 253.252H700.921V273.715H724.487V253.252Z" fill="black"/>
<path d="M693.374 284.701H669.808V305.164H693.374V284.701Z" fill="black"/>
<path d="M662.007 284.701H638.441V305.164H662.007V284.701Z" fill="black"/>
<path d="M724.487 284.701H700.921V305.164H724.487V284.701Z" fill="black"/>
<path d="M693.374 315.814H669.808V336.277H693.374V315.814Z" fill="black"/>
<path d="M662.007 315.814H638.441V336.277H662.007V315.814Z" fill="black"/>
<path d="M724.487 315.814H700.921V336.277H724.487V315.814Z" fill="black"/>
<path d="M818.332 378.294H794.766V398.757H818.332V378.294Z" fill="black"/>
<path d="M755.768 3.50293H732.202V23.9659H755.768V3.50293Z" fill="black"/>
<path d="M849.445 378.294H825.879V398.757H849.445V378.294Z" fill="black"/>
<path d="M818.332 409.239H794.766V429.702H818.332V409.239Z" fill="black"/>
<path d="M755.768 34.5332H732.202V54.9961H755.768V34.5332Z" fill="black"/>
<path d="M849.445 409.239H825.879V429.702H849.445V409.239Z" fill="black"/>
<path d="M818.332 440.688H794.766V461.151H818.332V440.688Z" fill="black"/>
<path d="M755.768 65.9824H732.202V86.4453H755.768V65.9824Z" fill="black"/>
<path d="M849.445 440.688H825.879V461.151H849.445V440.688Z" fill="black"/>
<path d="M818.332 471.887H794.766V492.35H818.332V471.887Z" fill="black"/>
<path d="M755.768 97.0957H732.202V117.559H755.768V97.0957Z" fill="black"/>
<path d="M849.445 471.887H825.879V492.35H849.445V471.887Z" fill="black"/>
<path d="M787.133 128.545H763.567V149.008H787.133V128.545Z" fill="black"/>
<path d="M755.768 128.545H732.202V149.008H755.768V128.545Z" fill="black"/>
<path d="M787.133 159.575H763.567V180.038H787.133V159.575Z" fill="black"/>
<path d="M787.133 159.575H763.567V180.038H787.133V159.575Z" fill="black"/>
<path d="M755.768 159.575H732.202V180.038H755.768V159.575Z" fill="black"/>
<path d="M787.133 190.772H763.567V211.235H787.133V190.772Z" fill="black"/>
<path d="M755.768 190.772H732.202V211.235H755.768V190.772Z" fill="black"/>
<path d="M787.133 222.222H763.567V242.685H787.133V222.222Z" fill="black"/>
<path d="M755.768 222.222H732.202V242.685H755.768V222.222Z" fill="black"/>
<path d="M787.133 253.252H763.567V273.715H787.133V253.252Z" fill="black"/>
<path d="M755.768 253.252H732.202V273.715H755.768V253.252Z" fill="black"/>
<path d="M818.248 253.252H794.682V273.715H818.248V253.252Z" fill="black"/>
<path d="M787.133 284.701H763.567V305.164H787.133V284.701Z" fill="black"/>
<path d="M755.768 284.701H732.202V305.164H755.768V284.701Z" fill="black"/>
<path d="M818.248 284.701H794.682V305.164H818.248V284.701Z" fill="black"/>
<path d="M787.133 315.814H763.567V336.277H787.133V315.814Z" fill="black"/>
<path d="M755.768 315.814H732.202V336.277H755.768V315.814Z" fill="black"/>
<path d="M818.248 315.814H794.682V336.277H818.248V315.814Z" fill="black"/>
<path d="M787.133 347.264H763.567V367.727H787.133V347.264Z" fill="black"/>
<path d="M755.768 347.264H732.202V367.727H755.768V347.264Z" fill="black"/>
<path d="M818.248 347.264H794.682V367.727H818.248V347.264Z" fill="black"/>
<path d="M787.133 378.461H763.567V398.924H787.133V378.461Z" fill="black"/>
<path d="M787.049 409.239H763.483V429.702H787.049V409.239Z" fill="black"/>
<path d="M787.049 440.688H763.483V461.151H787.049V440.688Z" fill="black"/>
<path d="M787.049 471.887H763.483V492.35H787.049V471.887Z" fill="black"/>
<path d="M65.479 18.5988C65.479 27.2368 58.5182 34.1976 49.8802 34.1976C41.2422 34.1976 34.1976 41.2422 34.1976 49.8802C34.1976 58.5183 27.2368 65.479 18.5988 65.479C9.96076 65.479 3 58.5183 3 49.8802C3 41.2422 9.96076 34.1976 18.5988 34.1976C27.2368 34.1976 34.1976 27.2368 34.1976 18.5988C34.1976 9.96076 41.2422 3 49.8802 3C58.5182 3 65.479 9.96076 65.479 18.5988Z" stroke="black" stroke-width="5" stroke-miterlimit="10"/>
<path d="M127.958 18.5988C127.958 27.2368 120.997 34.1976 112.359 34.1976C103.721 34.1976 96.7604 41.2422 96.7604 49.8802C96.7604 58.5183 89.7158 65.479 81.0778 65.479C72.4398 65.479 65.479 72.5236 65.479 81.0778C65.479 89.632 58.5182 96.7605 49.8802 96.7605C41.2422 96.7605 34.1976 103.721 34.1976 112.359C34.1976 120.997 27.2368 127.958 18.5988 127.958C9.96076 127.958 3 120.997 3 112.359C3 103.721 9.96076 96.7605 18.5988 96.7605C27.2368 96.7605 34.1976 89.7159 34.1976 81.0778C34.1976 72.4398 41.2422 65.479 49.8802 65.479C58.5182 65.479 65.479 58.5183 65.479 49.8802C65.479 41.2422 72.4398 34.1976 81.0778 34.1976C89.7158 34.1976 96.7604 27.2368 96.7604 18.5988C96.7604 9.96076 103.721 3 112.359 3C120.997 3 127.958 9.96076 127.958 18.5988Z" stroke="black" stroke-width="5" stroke-miterlimit="10"/>
<path d="M96.7604 112.36C96.7604 120.998 89.7159 127.958 81.0778 127.958C72.4398 127.958 65.479 135.003 65.479 143.641C65.479 152.279 58.5183 159.24 49.8802 159.24C41.2422 159.24 34.1976 166.284 34.1976 174.922C34.1976 183.56 27.2368 190.521 18.5988 190.521C9.96076 190.521 3 183.477 3 174.922C3 166.368 9.96076 159.24 18.5988 159.24C27.2368 159.24 34.1976 152.279 34.1976 143.641C34.1976 135.003 41.2422 127.958 49.8802 127.958C58.5183 127.958 65.479 120.998 65.479 112.36C65.479 103.721 72.4398 96.7607 81.0778 96.7607C89.7159 96.7607 96.7604 103.721 96.7604 112.36Z" stroke="black" stroke-width="5" stroke-miterlimit="10"/>
<path d="M96.7604 174.922C96.7604 183.476 89.7159 190.521 81.0778 190.521C72.4398 190.521 65.479 197.481 65.479 206.12C65.479 214.758 58.5183 221.802 49.8802 221.802C41.2422 221.802 34.1976 228.763 34.1976 237.401C34.1976 246.039 27.2368 253 18.5988 253C9.96076 253 3 246.039 3 237.401C3 228.763 9.96076 221.802 18.5988 221.802C27.2368 221.802 34.1976 214.758 34.1976 206.12C34.1976 197.481 41.2422 190.521 49.8802 190.521C58.5183 190.521 65.479 183.476 65.479 174.922C65.479 166.368 72.4398 159.239 81.0778 159.239C89.7159 159.239 96.7604 166.284 96.7604 174.922Z" stroke="black" stroke-width="5" stroke-miterlimit="10"/>
<path d="M96.7604 237.402C96.7604 246.04 89.7159 253 81.0778 253C72.4398 253 65.479 260.045 65.479 268.683C65.479 277.321 58.5183 284.282 49.8802 284.282C41.2422 284.282 34.1976 291.243 34.1976 299.881C34.1976 308.519 27.2368 315.563 18.5988 315.563C9.96076 315.563 3 308.519 3 299.881C3 291.243 9.96076 284.282 18.5988 284.282C27.2368 284.282 34.1976 277.237 34.1976 268.683C34.1976 260.129 41.2422 253 49.8802 253C58.5183 253 65.479 246.04 65.479 237.402C65.479 228.763 72.4398 221.803 81.0778 221.803C89.7159 221.803 96.7604 228.763 96.7604 237.402Z" stroke="black" stroke-width="5" stroke-miterlimit="10"/>
<path d="M96.7604 299.88C96.7604 308.518 89.7159 315.563 81.0778 315.563C72.4398 315.563 65.479 322.523 65.479 331.161C65.479 339.8 58.5183 346.76 49.8802 346.76C41.2422 346.76 34.1976 353.805 34.1976 362.443C34.1976 371.081 27.2368 378.042 18.5988 378.042C9.96076 378.042 3 371.081 3 362.443C3 353.805 9.96076 346.76 18.5988 346.76C27.2368 346.76 34.1976 339.8 34.1976 331.161C34.1976 322.523 41.2422 315.563 49.8802 315.563C58.5183 315.563 65.479 308.518 65.479 299.88C65.479 291.242 72.4398 284.281 81.0778 284.281C89.7159 284.281 96.7604 291.242 96.7604 299.88Z" stroke="black" stroke-width="5" stroke-miterlimit="10"/>
<path d="M96.7604 362.443C96.7604 371.081 89.7159 378.042 81.0778 378.042C72.4398 378.042 65.479 385.003 65.479 393.641C65.479 402.279 58.5183 409.324 49.8802 409.324C41.2422 409.324 34.1976 416.284 34.1976 424.922C34.1976 433.56 27.2368 440.521 18.5988 440.521C9.96076 440.521 3 433.56 3 424.922C3 416.284 9.96076 409.324 18.5988 409.324C27.2368 409.324 34.1976 402.279 34.1976 393.641C34.1976 385.003 41.2422 378.042 49.8802 378.042C58.5183 378.042 65.479 371.081 65.479 362.443C65.479 353.805 72.4398 346.761 81.0778 346.761C89.7159 346.761 96.7604 353.805 96.7604 362.443Z" stroke="black" stroke-width="5" stroke-miterlimit="10"/>
<path d="M96.7604 424.922C96.7604 433.56 89.7159 440.521 81.0778 440.521C72.4398 440.521 65.479 447.565 65.479 456.204C65.479 464.842 58.5183 471.802 49.8802 471.802C41.2422 471.802 34.1976 478.763 34.1976 487.401C34.1976 496.039 27.2368 503.084 18.5988 503.084C9.96076 503.084 3 496.039 3 487.401C3 478.763 9.96076 471.802 18.5988 471.802C27.2368 471.802 34.1976 464.842 34.1976 456.204C34.1976 447.565 41.2422 440.521 49.8802 440.521C58.5183 440.521 65.479 433.56 65.479 424.922C65.479 416.284 72.4398 409.323 81.0778 409.323C89.7159 409.323 96.7604 416.284 96.7604 424.922Z" stroke="black" stroke-width="5" stroke-miterlimit="10"/>
<path d="M81.0783 503C89.6933 503 96.6771 496.016 96.6771 487.402C96.6771 478.787 89.6933 471.803 81.0783 471.803C72.4633 471.803 65.4795 478.787 65.4795 487.402C65.4795 496.016 72.4633 503 81.0783 503Z" stroke="black" stroke-width="5" stroke-miterlimit="10"/>
<path d="M327.723 34.1976C336.338 34.1976 343.322 27.2138 343.322 18.5988C343.322 9.98382 336.338 3 327.723 3C319.108 3 312.124 9.98382 312.124 18.5988C312.124 27.2138 319.108 34.1976 327.723 34.1976Z" stroke="black" stroke-width="5" stroke-miterlimit="10"/>
<path d="M405.884 18.5988C405.884 27.2368 398.924 34.1976 390.286 34.1976C381.648 34.1976 374.687 41.2422 374.687 49.8802C374.687 58.5183 367.642 65.479 359.004 65.479C350.366 65.479 343.405 72.5236 343.405 81.0778C343.405 89.632 336.445 96.7605 327.807 96.7605C319.169 96.7605 312.124 89.7159 312.124 81.0778C312.124 72.4398 319.169 65.479 327.807 65.479C336.445 65.479 343.405 58.5183 343.405 49.8802C343.405 41.2422 350.366 34.1976 359.004 34.1976C367.642 34.1976 374.687 27.2368 374.687 18.5988C374.687 9.96076 381.648 3 390.286 3C398.924 3 405.884 9.96076 405.884 18.5988Z" stroke="black" stroke-width="5" stroke-miterlimit="10"/>
<path d="M405.884 143.641C405.884 152.279 398.924 159.239 390.286 159.239C381.648 159.239 374.687 166.284 374.687 174.922C374.687 183.56 367.642 190.521 359.004 190.521C350.366 190.521 343.405 197.482 343.405 206.12C343.405 214.758 336.445 221.802 327.807 221.802C319.169 221.802 312.124 214.758 312.124 206.12C312.124 197.482 319.169 190.521 327.807 190.521C336.445 190.521 343.405 183.476 343.405 174.922C343.405 166.368 350.366 159.239 359.004 159.239C367.642 159.239 374.687 152.279 374.687 143.641C374.687 135.003 381.648 127.958 390.286 127.958C398.924 127.958 405.884 135.003 405.884 143.641Z" stroke="black" stroke-width="5" stroke-miterlimit="10"/>
<path d="M405.884 206.119C405.884 214.757 398.924 221.802 390.286 221.802C381.648 221.802 374.687 228.763 374.687 237.401C374.687 246.039 367.642 253 359.004 253C350.366 253 343.405 260.044 343.405 268.682C343.405 277.32 336.445 284.281 327.807 284.281C319.169 284.281 312.124 277.236 312.124 268.682C312.124 260.128 319.169 253 327.807 253C336.445 253 343.405 246.039 343.405 237.401C343.405 228.763 350.366 221.802 359.004 221.802C367.642 221.802 374.687 214.757 374.687 206.119C374.687 197.481 381.648 190.521 390.286 190.521C398.924 190.521 405.884 197.481 405.884 206.119Z" stroke="black" stroke-width="5" stroke-miterlimit="10"/>
<path d="M405.884 268.683C405.884 277.237 398.924 284.281 390.286 284.281C381.648 284.281 374.687 291.242 374.687 299.88C374.687 308.518 367.642 315.563 359.004 315.563C350.366 315.563 343.405 322.524 343.405 331.162C343.405 339.8 336.445 346.76 327.807 346.76C319.169 346.76 312.124 339.8 312.124 331.162C312.124 322.524 319.169 315.563 327.807 315.563C336.445 315.563 343.405 308.518 343.405 299.88C343.405 291.242 350.366 284.281 359.004 284.281C367.642 284.281 374.687 277.237 374.687 268.683C374.687 260.129 381.648 253 390.286 253C398.924 253 405.884 260.045 405.884 268.683Z" stroke="black" stroke-width="5" stroke-miterlimit="10"/>
<path d="M405.885 456.203C405.885 464.841 398.924 471.802 390.286 471.802C381.648 471.802 374.688 478.763 374.688 487.401C374.688 496.039 367.643 503.083 359.005 503.083C350.367 503.083 343.406 496.039 343.406 487.401C343.406 478.763 350.367 471.802 359.005 471.802C367.643 471.802 374.688 464.841 374.688 456.203C374.688 447.565 381.648 440.521 390.286 440.521C398.924 440.521 405.885 447.565 405.885 456.203Z" stroke="black" stroke-width="5" stroke-miterlimit="10"/>
<path d="M159.24 49.8799C159.24 58.5179 152.279 65.4787 143.641 65.4787C135.003 65.4787 127.958 72.5233 127.958 81.0775C127.958 89.6317 120.998 96.7602 112.36 96.7602C103.721 96.7602 96.7607 89.7155 96.7607 81.0775C96.7607 72.4394 103.721 65.4787 112.36 65.4787C120.998 65.4787 127.958 58.5179 127.958 49.8799C127.958 41.2418 135.003 34.1973 143.641 34.1973C152.279 34.1973 159.24 41.2418 159.24 49.8799Z" stroke="black" stroke-width="5" stroke-miterlimit="10"/>
<path d="M190.521 81.0783C190.521 89.7163 183.476 96.761 174.838 96.761C166.2 96.761 159.24 103.722 159.24 112.36C159.24 120.998 152.279 127.959 143.641 127.959C135.003 127.959 127.958 120.998 127.958 112.36C127.958 103.722 135.003 96.761 143.641 96.761C152.279 96.761 159.24 89.7163 159.24 81.0783C159.24 72.4402 166.2 65.4795 174.838 65.4795C183.476 65.4795 190.521 72.5241 190.521 81.0783Z" stroke="black" stroke-width="5" stroke-miterlimit="10"/>
<path d="M221.718 112.36C221.718 120.998 214.758 127.958 206.119 127.958C197.481 127.958 190.521 135.003 190.521 143.641C190.521 152.279 183.476 159.24 174.838 159.24C166.2 159.24 159.239 152.279 159.239 143.641C159.239 135.003 166.2 127.958 174.838 127.958C183.476 127.958 190.521 120.998 190.521 112.36C190.521 103.721 197.481 96.7607 206.119 96.7607C214.758 96.7607 221.718 103.721 221.718 112.36Z" stroke="black" stroke-width="5" stroke-miterlimit="10"/>
<path d="M221.718 174.922C221.718 183.476 214.758 190.521 206.119 190.521C197.481 190.521 190.521 197.481 190.521 206.12C190.521 214.758 183.476 221.802 174.838 221.802C166.2 221.802 159.239 214.758 159.239 206.12C159.239 197.481 166.2 190.521 174.838 190.521C183.476 190.521 190.521 183.476 190.521 174.922C190.521 166.368 197.481 159.239 206.119 159.239C214.758 159.239 221.718 166.284 221.718 174.922Z" stroke="black" stroke-width="5" stroke-miterlimit="10"/>
<path d="M253 206.119C253 214.757 246.039 221.802 237.401 221.802C228.763 221.802 221.718 228.763 221.718 237.401C221.718 246.039 214.757 253 206.119 253C197.481 253 190.521 246.039 190.521 237.401C190.521 228.763 197.481 221.802 206.119 221.802C214.757 221.802 221.718 214.757 221.718 206.119C221.718 197.481 228.763 190.521 237.401 190.521C246.039 190.521 253 197.481 253 206.119Z" stroke="black" stroke-width="5" stroke-miterlimit="10"/>
<path d="M253 268.683C253 277.237 246.039 284.281 237.401 284.281C228.763 284.281 221.718 291.242 221.718 299.88C221.718 308.518 214.757 315.563 206.119 315.563C197.481 315.563 190.521 308.518 190.521 299.88C190.521 291.242 197.481 284.281 206.119 284.281C214.757 284.281 221.718 277.237 221.718 268.683C221.718 260.129 228.763 253 237.401 253C246.039 253 253 260.045 253 268.683Z" stroke="black" stroke-width="5" stroke-miterlimit="10"/>
<path d="M284.282 299.88C284.282 308.518 277.237 315.563 268.599 315.563C259.961 315.563 253 322.523 253 331.161C253 339.799 246.039 346.76 237.401 346.76C228.763 346.76 221.719 339.799 221.719 331.161C221.719 322.523 228.763 315.563 237.401 315.563C246.039 315.563 253 308.518 253 299.88C253 291.242 260.045 284.281 268.599 284.281C277.153 284.281 284.282 291.242 284.282 299.88Z" stroke="black" stroke-width="5" stroke-miterlimit="10"/>
<path d="M405.884 393.641C405.884 402.279 398.924 409.323 390.286 409.323C381.648 409.323 374.687 416.284 374.687 424.922C374.687 433.56 367.642 440.521 359.004 440.521C350.366 440.521 343.405 447.566 343.405 456.204C343.405 464.842 336.445 471.802 327.807 471.802C319.169 471.802 312.124 464.842 312.124 456.204C312.124 447.566 319.169 440.521 327.807 440.521C336.445 440.521 343.405 433.56 343.405 424.922C343.405 416.284 350.366 409.323 359.004 409.323C367.642 409.323 374.687 402.279 374.687 393.641C374.687 385.003 381.648 378.042 390.286 378.042C398.924 378.042 405.884 385.003 405.884 393.641Z" stroke="black" stroke-width="5" stroke-miterlimit="10"/>
<path d="M311.706 424.922C311.706 433.56 304.745 440.521 296.107 440.521C287.469 440.521 280.424 447.565 280.424 456.204C280.424 464.842 273.463 471.802 264.825 471.802C256.187 471.802 249.227 464.842 249.227 456.204C249.227 447.565 256.187 440.521 264.825 440.521C273.463 440.521 280.424 433.56 280.424 424.922C280.424 416.284 287.469 409.323 296.107 409.323C304.745 409.323 311.706 416.284 311.706 424.922Z" stroke="black" stroke-width="5" stroke-miterlimit="10"/>
<path d="M405.884 331.161C405.884 339.799 398.924 346.76 390.286 346.76C381.648 346.76 374.687 353.805 374.687 362.443C374.687 371.081 367.642 378.042 359.004 378.042C350.366 378.042 343.405 385.002 343.405 393.64C343.405 402.278 336.445 409.323 327.807 409.323C319.169 409.323 312.124 402.278 312.124 393.64C312.124 385.002 319.169 378.042 327.807 378.042C336.445 378.042 343.405 371.081 343.405 362.443C343.405 353.805 350.366 346.76 359.004 346.76C367.642 346.76 374.687 339.799 374.687 331.161C374.687 322.523 381.648 315.562 390.286 315.562C398.924 315.562 405.884 322.523 405.884 331.161Z" stroke="black" stroke-width="5" stroke-miterlimit="10"/>
<path d="M280.423 393.641C280.423 402.279 273.463 409.323 264.825 409.323C256.187 409.323 249.226 416.284 249.226 424.922C249.226 433.56 242.181 440.521 233.543 440.521C224.905 440.521 217.944 433.56 217.944 424.922C217.944 416.284 224.989 409.323 233.543 409.323C242.097 409.323 249.226 402.279 249.226 393.641C249.226 385.003 256.187 378.042 264.825 378.042C273.463 378.042 280.423 385.003 280.423 393.641Z" stroke="black" stroke-width="5" stroke-miterlimit="10"/>
<path d="M405.884 81.0781C405.884 89.7162 398.924 96.6769 390.286 96.6769C381.648 96.6769 374.687 103.722 374.687 112.36C374.687 120.998 367.642 127.958 359.004 127.958C350.366 127.958 343.405 134.919 343.405 143.557C343.405 152.195 336.445 159.24 327.807 159.24C319.169 159.24 312.124 152.195 312.124 143.557C312.124 134.919 319.169 127.958 327.807 127.958C336.445 127.958 343.405 120.914 343.405 112.36C343.405 103.805 350.366 96.6769 359.004 96.6769C367.642 96.6769 374.687 89.7162 374.687 81.0781C374.687 72.4401 381.648 65.3955 390.286 65.3955C398.924 65.3955 405.884 72.4401 405.884 81.0781Z" stroke="black" stroke-width="5" stroke-miterlimit="10"/>
</svg>
