<svg width="855" height="501" viewBox="0 0 855 501" fill="none" xmlns="http://www.w3.org/2000/svg">
<path d="M682.322 31.1976C690.937 31.1976 697.921 24.2138 697.921 15.5988C697.921 6.98382 690.937 0 682.322 0C673.707 0 666.724 6.98382 666.724 15.5988C666.724 24.2138 673.707 31.1976 682.322 31.1976Z" fill="black"/>
<path d="M713.604 31.1976C722.219 31.1976 729.202 24.2138 729.202 15.5988C729.202 6.98382 722.219 0 713.604 0C704.989 0 698.005 6.98382 698.005 15.5988C698.005 24.2138 704.989 31.1976 713.604 31.1976Z" fill="black"/>
<path d="M744.801 31.1976C753.416 31.1976 760.4 24.2138 760.4 15.5988C760.4 6.98382 753.416 0 744.801 0C736.186 0 729.202 6.98382 729.202 15.5988C729.202 24.2138 736.186 31.1976 744.801 31.1976Z" fill="black"/>
<path d="M682.322 62.4788C690.937 62.4788 697.921 55.495 697.921 46.88C697.921 38.265 690.937 31.2812 682.322 31.2812C673.707 31.2812 666.724 38.265 666.724 46.88C666.724 55.495 673.707 62.4788 682.322 62.4788Z" fill="black"/>
<path d="M713.604 62.4788C722.219 62.4788 729.202 55.495 729.202 46.88C729.202 38.265 722.219 31.2812 713.604 31.2812C704.989 31.2812 698.005 38.265 698.005 46.88C698.005 55.495 704.989 62.4788 713.604 62.4788Z" fill="black"/>
<path d="M744.801 62.4788C753.416 62.4788 760.4 55.495 760.4 46.88C760.4 38.265 753.416 31.2812 744.801 31.2812C736.186 31.2812 729.202 38.265 729.202 46.88C729.202 55.495 736.186 62.4788 744.801 62.4788Z" fill="black"/>
<path d="M682.322 93.76C690.937 93.76 697.921 86.7763 697.921 78.1613C697.921 69.5463 690.937 62.5625 682.322 62.5625C673.707 62.5625 666.724 69.5463 666.724 78.1613C666.724 86.7763 673.707 93.76 682.322 93.76Z" fill="black"/>
<path d="M713.604 93.76C722.219 93.76 729.202 86.7763 729.202 78.1613C729.202 69.5463 722.219 62.5625 713.604 62.5625C704.989 62.5625 698.005 69.5463 698.005 78.1613C698.005 86.7763 704.989 93.76 713.604 93.76Z" fill="black"/>
<path d="M744.801 93.76C753.416 93.76 760.4 86.7763 760.4 78.1613C760.4 69.5463 753.416 62.5625 744.801 62.5625C736.186 62.5625 729.202 69.5463 729.202 78.1613C729.202 86.7763 736.186 93.76 744.801 93.76Z" fill="black"/>
<path d="M682.322 124.958C690.937 124.958 697.921 117.975 697.921 109.36C697.921 100.745 690.937 93.7607 682.322 93.7607C673.707 93.7607 666.724 100.745 666.724 109.36C666.724 117.975 673.707 124.958 682.322 124.958Z" fill="black"/>
<path d="M713.604 124.958C722.219 124.958 729.202 117.975 729.202 109.36C729.202 100.745 722.219 93.7607 713.604 93.7607C704.989 93.7607 698.005 100.745 698.005 109.36C698.005 117.975 704.989 124.958 713.604 124.958Z" fill="black"/>
<path d="M744.801 124.958C753.416 124.958 760.4 117.975 760.4 109.36C760.4 100.745 753.416 93.7607 744.801 93.7607C736.186 93.7607 729.202 100.745 729.202 109.36C729.202 117.975 736.186 124.958 744.801 124.958Z" fill="black"/>
<path d="M713.604 156.24C722.219 156.24 729.202 149.256 729.202 140.641C729.202 132.026 722.219 125.042 713.604 125.042C704.989 125.042 698.005 132.026 698.005 140.641C698.005 149.256 704.989 156.24 713.604 156.24Z" fill="black"/>
<path d="M744.801 156.24C753.416 156.24 760.4 149.256 760.4 140.641C760.4 132.026 753.416 125.042 744.801 125.042C736.186 125.042 729.202 132.026 729.202 140.641C729.202 149.256 736.186 156.24 744.801 156.24Z" fill="black"/>
<path d="M776.082 156.24C784.697 156.24 791.681 149.256 791.681 140.641C791.681 132.026 784.697 125.042 776.082 125.042C767.467 125.042 760.483 132.026 760.483 140.641C760.483 149.256 767.467 156.24 776.082 156.24Z" fill="black"/>
<path d="M713.604 187.521C722.219 187.521 729.202 180.537 729.202 171.922C729.202 163.307 722.219 156.323 713.604 156.323C704.989 156.323 698.005 163.307 698.005 171.922C698.005 180.537 704.989 187.521 713.604 187.521Z" fill="black"/>
<path d="M744.801 187.521C753.416 187.521 760.4 180.537 760.4 171.922C760.4 163.307 753.416 156.323 744.801 156.323C736.186 156.323 729.202 163.307 729.202 171.922C729.202 180.537 736.186 187.521 744.801 187.521Z" fill="black"/>
<path d="M776.082 187.521C784.697 187.521 791.681 180.537 791.681 171.922C791.681 163.307 784.697 156.323 776.082 156.323C767.467 156.323 760.483 163.307 760.483 171.922C760.483 180.537 767.467 187.521 776.082 187.521Z" fill="black"/>
<path d="M713.604 218.718C722.219 218.718 729.202 211.734 729.202 203.119C729.202 194.504 722.219 187.521 713.604 187.521C704.989 187.521 698.005 194.504 698.005 203.119C698.005 211.734 704.989 218.718 713.604 218.718Z" fill="black"/>
<path d="M744.801 218.718C753.416 218.718 760.4 211.734 760.4 203.119C760.4 194.504 753.416 187.521 744.801 187.521C736.186 187.521 729.202 194.504 729.202 203.119C729.202 211.734 736.186 218.718 744.801 218.718Z" fill="black"/>
<path d="M776.082 218.718C784.697 218.718 791.681 211.734 791.681 203.119C791.681 194.504 784.697 187.521 776.082 187.521C767.467 187.521 760.483 194.504 760.483 203.119C760.483 211.734 767.467 218.718 776.082 218.718Z" fill="black"/>
<path d="M713.604 250C722.219 250 729.202 243.017 729.202 234.402C729.202 225.787 722.219 218.803 713.604 218.803C704.989 218.803 698.005 225.787 698.005 234.402C698.005 243.017 704.989 250 713.604 250Z" fill="black"/>
<path d="M744.801 250C753.416 250 760.4 243.017 760.4 234.402C760.4 225.787 753.416 218.803 744.801 218.803C736.186 218.803 729.202 225.787 729.202 234.402C729.202 243.017 736.186 250 744.801 250Z" fill="black"/>
<path d="M776.082 250C784.697 250 791.681 243.017 791.681 234.402C791.681 225.787 784.697 218.803 776.082 218.803C767.467 218.803 760.483 225.787 760.483 234.402C760.483 243.017 767.467 250 776.082 250Z" fill="black"/>
<path d="M744.801 281.281C753.416 281.281 760.4 274.298 760.4 265.683C760.4 257.068 753.416 250.084 744.801 250.084C736.186 250.084 729.202 257.068 729.202 265.683C729.202 274.298 736.186 281.281 744.801 281.281Z" fill="black"/>
<path d="M776.082 281.281C784.697 281.281 791.681 274.298 791.681 265.683C791.681 257.068 784.697 250.084 776.082 250.084C767.467 250.084 760.483 257.068 760.483 265.683C760.483 274.298 767.467 281.281 776.082 281.281Z" fill="black"/>
<path d="M807.364 281.281C815.979 281.281 822.963 274.298 822.963 265.683C822.963 257.068 815.979 250.084 807.364 250.084C798.749 250.084 791.766 257.068 791.766 265.683C791.766 274.298 798.749 281.281 807.364 281.281Z" fill="black"/>
<path d="M744.801 312.479C753.416 312.479 760.4 305.495 760.4 296.88C760.4 288.265 753.416 281.281 744.801 281.281C736.186 281.281 729.202 288.265 729.202 296.88C729.202 305.495 736.186 312.479 744.801 312.479Z" fill="black"/>
<path d="M776.082 312.479C784.697 312.479 791.681 305.495 791.681 296.88C791.681 288.265 784.697 281.281 776.082 281.281C767.467 281.281 760.483 288.265 760.483 296.88C760.483 305.495 767.467 312.479 776.082 312.479Z" fill="black"/>
<path d="M807.364 312.479C815.979 312.479 822.963 305.495 822.963 296.88C822.963 288.265 815.979 281.281 807.364 281.281C798.749 281.281 791.766 288.265 791.766 296.88C791.766 305.495 798.749 312.479 807.364 312.479Z" fill="black"/>
<path d="M744.801 343.76C753.416 343.76 760.4 336.776 760.4 328.161C760.4 319.546 753.416 312.562 744.801 312.562C736.186 312.562 729.202 319.546 729.202 328.161C729.202 336.776 736.186 343.76 744.801 343.76Z" fill="black"/>
<path d="M776.082 343.76C784.697 343.76 791.681 336.776 791.681 328.161C791.681 319.546 784.697 312.562 776.082 312.562C767.467 312.562 760.483 319.546 760.483 328.161C760.483 336.776 767.467 343.76 776.082 343.76Z" fill="black"/>
<path d="M807.364 343.76C815.979 343.76 822.963 336.776 822.963 328.161C822.963 319.546 815.979 312.562 807.364 312.562C798.749 312.562 791.766 319.546 791.766 328.161C791.766 336.776 798.749 343.76 807.364 343.76Z" fill="black"/>
<path d="M744.801 375.042C753.416 375.042 760.4 368.059 760.4 359.444C760.4 350.829 753.416 343.845 744.801 343.845C736.186 343.845 729.202 350.829 729.202 359.444C729.202 368.059 736.186 375.042 744.801 375.042Z" fill="black"/>
<path d="M776.082 375.042C784.697 375.042 791.681 368.059 791.681 359.444C791.681 350.829 784.697 343.845 776.082 343.845C767.467 343.845 760.483 350.829 760.483 359.444C760.483 368.059 767.467 375.042 776.082 375.042Z" fill="black"/>
<path d="M807.364 375.042C815.979 375.042 822.963 368.059 822.963 359.444C822.963 350.829 815.979 343.845 807.364 343.845C798.749 343.845 791.766 350.829 791.766 359.444C791.766 368.059 798.749 375.042 807.364 375.042Z" fill="black"/>
<path d="M776.082 406.24C784.697 406.24 791.681 399.256 791.681 390.641C791.681 382.026 784.697 375.042 776.082 375.042C767.467 375.042 760.483 382.026 760.483 390.641C760.483 399.256 767.467 406.24 776.082 406.24Z" fill="black"/>
<path d="M807.364 406.24C815.979 406.24 822.963 399.256 822.963 390.641C822.963 382.026 815.979 375.042 807.364 375.042C798.749 375.042 791.766 382.026 791.766 390.641C791.766 399.256 798.749 406.24 807.364 406.24Z" fill="black"/>
<path d="M838.562 406.24C847.177 406.24 854.16 399.256 854.16 390.641C854.16 382.026 847.177 375.042 838.562 375.042C829.947 375.042 822.963 382.026 822.963 390.641C822.963 399.256 829.947 406.24 838.562 406.24Z" fill="black"/>
<path d="M776.082 437.521C784.697 437.521 791.681 430.537 791.681 421.922C791.681 413.307 784.697 406.323 776.082 406.323C767.467 406.323 760.483 413.307 760.483 421.922C760.483 430.537 767.467 437.521 776.082 437.521Z" fill="black"/>
<path d="M807.364 437.521C815.979 437.521 822.963 430.537 822.963 421.922C822.963 413.307 815.979 406.323 807.364 406.323C798.749 406.323 791.766 413.307 791.766 421.922C791.766 430.537 798.749 437.521 807.364 437.521Z" fill="black"/>
<path d="M838.562 437.521C847.177 437.521 854.16 430.537 854.16 421.922C854.16 413.307 847.177 406.323 838.562 406.323C829.947 406.323 822.963 413.307 822.963 421.922C822.963 430.537 829.947 437.521 838.562 437.521Z" fill="black"/>
<path d="M776.082 468.802C784.697 468.802 791.681 461.818 791.681 453.203C791.681 444.588 784.697 437.604 776.082 437.604C767.467 437.604 760.483 444.588 760.483 453.203C760.483 461.818 767.467 468.802 776.082 468.802Z" fill="black"/>
<path d="M807.364 468.802C815.979 468.802 822.963 461.818 822.963 453.203C822.963 444.588 815.979 437.604 807.364 437.604C798.749 437.604 791.766 444.588 791.766 453.203C791.766 461.818 798.749 468.802 807.364 468.802Z" fill="black"/>
<path d="M838.562 468.802C847.177 468.802 854.16 461.818 854.16 453.203C854.16 444.588 847.177 437.604 838.562 437.604C829.947 437.604 822.963 444.588 822.963 453.203C822.963 461.818 829.947 468.802 838.562 468.802Z" fill="black"/>
<path d="M776.082 500.084C784.697 500.084 791.681 493.1 791.681 484.486C791.681 475.871 784.697 468.887 776.082 468.887C767.467 468.887 760.483 475.871 760.483 484.486C760.483 493.1 767.467 500.084 776.082 500.084Z" fill="black"/>
<path d="M807.364 500.084C815.979 500.084 822.963 493.1 822.963 484.486C822.963 475.871 815.979 468.887 807.364 468.887C798.749 468.887 791.766 475.871 791.766 484.486C791.766 493.1 798.749 500.084 807.364 500.084Z" fill="black"/>
<path d="M838.562 500.084C847.177 500.084 854.16 493.1 854.16 484.486C854.16 475.871 847.177 468.887 838.562 468.887C829.947 468.887 822.963 475.871 822.963 484.486C822.963 493.1 829.947 500.084 838.562 500.084Z" fill="black"/>
<path d="M682.322 156.24C690.937 156.24 697.921 149.256 697.921 140.641C697.921 132.026 690.937 125.042 682.322 125.042C673.707 125.042 666.724 132.026 666.724 140.641C666.724 149.256 673.707 156.24 682.322 156.24Z" fill="black"/>
<path d="M588.562 31.1976C597.177 31.1976 604.16 24.2138 604.16 15.5988C604.16 6.98382 597.177 0 588.562 0C579.947 0 572.963 6.98382 572.963 15.5988C572.963 24.2138 579.947 31.1976 588.562 31.1976Z" fill="black"/>
<path d="M619.843 31.1976C628.458 31.1976 635.442 24.2138 635.442 15.5988C635.442 6.98382 628.458 0 619.843 0C611.228 0 604.244 6.98382 604.244 15.5988C604.244 24.2138 611.228 31.1976 619.843 31.1976Z" fill="black"/>
<path d="M588.562 62.4788C597.177 62.4788 604.16 55.495 604.16 46.88C604.16 38.265 597.177 31.2812 588.562 31.2812C579.947 31.2812 572.963 38.265 572.963 46.88C572.963 55.495 579.947 62.4788 588.562 62.4788Z" fill="black"/>
<path d="M619.843 62.4788C628.458 62.4788 635.442 55.495 635.442 46.88C635.442 38.265 628.458 31.2812 619.843 31.2812C611.228 31.2812 604.244 38.265 604.244 46.88C604.244 55.495 611.228 62.4788 619.843 62.4788Z" fill="black"/>
<path d="M588.562 93.76C597.177 93.76 604.16 86.7763 604.16 78.1613C604.16 69.5463 597.177 62.5625 588.562 62.5625C579.947 62.5625 572.963 69.5463 572.963 78.1613C572.963 86.7763 579.947 93.76 588.562 93.76Z" fill="black"/>
<path d="M619.843 93.76C628.458 93.76 635.442 86.7763 635.442 78.1613C635.442 69.5463 628.458 62.5625 619.843 62.5625C611.228 62.5625 604.244 69.5463 604.244 78.1613C604.244 86.7763 611.228 93.76 619.843 93.76Z" fill="black"/>
<path d="M651.04 31.1976C659.655 31.1976 666.639 24.2138 666.639 15.5988C666.639 6.98382 659.655 0 651.04 0C642.425 0 635.441 6.98382 635.441 15.5988C635.441 24.2138 642.425 31.1976 651.04 31.1976Z" fill="black"/>
<path d="M651.04 62.4788C659.655 62.4788 666.639 55.495 666.639 46.88C666.639 38.265 659.655 31.2812 651.04 31.2812C642.425 31.2812 635.441 38.265 635.441 46.88C635.441 55.495 642.425 62.4788 651.04 62.4788Z" fill="black"/>
<path d="M651.04 93.76C659.655 93.76 666.639 86.7763 666.639 78.1613C666.639 69.5463 659.655 62.5625 651.04 62.5625C642.425 62.5625 635.441 69.5463 635.441 78.1613C635.441 86.7763 642.425 93.76 651.04 93.76Z" fill="black"/>
<path d="M619.843 124.958C628.458 124.958 635.442 117.975 635.442 109.36C635.442 100.745 628.458 93.7607 619.843 93.7607C611.228 93.7607 604.244 100.745 604.244 109.36C604.244 117.975 611.228 124.958 619.843 124.958Z" fill="black"/>
<path d="M588.562 124.958C597.177 124.958 604.16 117.975 604.16 109.36C604.16 100.745 597.177 93.7607 588.562 93.7607C579.947 93.7607 572.963 100.745 572.963 109.36C572.963 117.975 579.947 124.958 588.562 124.958Z" fill="black"/>
<path d="M557.28 124.958C565.895 124.958 572.879 117.975 572.879 109.36C572.879 100.745 565.895 93.7607 557.28 93.7607C548.665 93.7607 541.682 100.745 541.682 109.36C541.682 117.975 548.665 124.958 557.28 124.958Z" fill="black"/>
<path d="M588.562 156.24C597.177 156.24 604.16 149.256 604.16 140.641C604.16 132.026 597.177 125.042 588.562 125.042C579.947 125.042 572.963 132.026 572.963 140.641C572.963 149.256 579.947 156.24 588.562 156.24Z" fill="black"/>
<path d="M557.28 156.24C565.895 156.24 572.879 149.256 572.879 140.641C572.879 132.026 565.895 125.042 557.28 125.042C548.665 125.042 541.682 132.026 541.682 140.641C541.682 149.256 548.665 156.24 557.28 156.24Z" fill="black"/>
<path d="M526.082 156.24C534.697 156.24 541.681 149.256 541.681 140.641C541.681 132.026 534.697 125.042 526.082 125.042C517.467 125.042 510.483 132.026 510.483 140.641C510.483 149.256 517.467 156.24 526.082 156.24Z" fill="black"/>
<path d="M588.562 187.521C597.177 187.521 604.16 180.537 604.16 171.922C604.16 163.307 597.177 156.323 588.562 156.323C579.947 156.323 572.963 163.307 572.963 171.922C572.963 180.537 579.947 187.521 588.562 187.521Z" fill="black"/>
<path d="M557.28 187.521C565.895 187.521 572.879 180.537 572.879 171.922C572.879 163.307 565.895 156.323 557.28 156.323C548.665 156.323 541.682 163.307 541.682 171.922C541.682 180.537 548.665 187.521 557.28 187.521Z" fill="black"/>
<path d="M526.082 187.521C534.697 187.521 541.681 180.537 541.681 171.922C541.681 163.307 534.697 156.323 526.082 156.323C517.467 156.323 510.483 163.307 510.483 171.922C510.483 180.537 517.467 187.521 526.082 187.521Z" fill="black"/>
<path d="M588.562 218.718C597.177 218.718 604.16 211.734 604.16 203.119C604.16 194.504 597.177 187.521 588.562 187.521C579.947 187.521 572.963 194.504 572.963 203.119C572.963 211.734 579.947 218.718 588.562 218.718Z" fill="black"/>
<path d="M557.28 218.718C565.895 218.718 572.879 211.734 572.879 203.119C572.879 194.504 565.895 187.521 557.28 187.521C548.665 187.521 541.682 194.504 541.682 203.119C541.682 211.734 548.665 218.718 557.28 218.718Z" fill="black"/>
<path d="M526.082 218.718C534.697 218.718 541.681 211.734 541.681 203.119C541.681 194.504 534.697 187.521 526.082 187.521C517.467 187.521 510.483 194.504 510.483 203.119C510.483 211.734 517.467 218.718 526.082 218.718Z" fill="black"/>
<path d="M588.562 250C597.177 250 604.16 243.017 604.16 234.402C604.16 225.787 597.177 218.803 588.562 218.803C579.947 218.803 572.963 225.787 572.963 234.402C572.963 243.017 579.947 250 588.562 250Z" fill="black"/>
<path d="M557.28 250C565.895 250 572.879 243.017 572.879 234.402C572.879 225.787 565.895 218.803 557.28 218.803C548.665 218.803 541.682 225.787 541.682 234.402C541.682 243.017 548.665 250 557.28 250Z" fill="black"/>
<path d="M526.082 250C534.697 250 541.681 243.017 541.681 234.402C541.681 225.787 534.697 218.803 526.082 218.803C517.467 218.803 510.483 225.787 510.483 234.402C510.483 243.017 517.467 250 526.082 250Z" fill="black"/>
<path d="M557.28 281.281C565.895 281.281 572.879 274.298 572.879 265.683C572.879 257.068 565.895 250.084 557.28 250.084C548.665 250.084 541.682 257.068 541.682 265.683C541.682 274.298 548.665 281.281 557.28 281.281Z" fill="black"/>
<path d="M526.082 281.281C534.697 281.281 541.681 274.298 541.681 265.683C541.681 257.068 534.697 250.084 526.082 250.084C517.467 250.084 510.483 257.068 510.483 265.683C510.483 274.298 517.467 281.281 526.082 281.281Z" fill="black"/>
<path d="M494.801 281.281C503.416 281.281 510.4 274.298 510.4 265.683C510.4 257.068 503.416 250.084 494.801 250.084C486.186 250.084 479.202 257.068 479.202 265.683C479.202 274.298 486.186 281.281 494.801 281.281Z" fill="black"/>
<path d="M557.28 312.479C565.895 312.479 572.879 305.495 572.879 296.88C572.879 288.265 565.895 281.281 557.28 281.281C548.665 281.281 541.682 288.265 541.682 296.88C541.682 305.495 548.665 312.479 557.28 312.479Z" fill="black"/>
<path d="M526.082 312.479C534.697 312.479 541.681 305.495 541.681 296.88C541.681 288.265 534.697 281.281 526.082 281.281C517.467 281.281 510.483 288.265 510.483 296.88C510.483 305.495 517.467 312.479 526.082 312.479Z" fill="black"/>
<path d="M494.801 312.479C503.416 312.479 510.4 305.495 510.4 296.88C510.4 288.265 503.416 281.281 494.801 281.281C486.186 281.281 479.202 288.265 479.202 296.88C479.202 305.495 486.186 312.479 494.801 312.479Z" fill="black"/>
<path d="M557.28 343.76C565.895 343.76 572.879 336.776 572.879 328.161C572.879 319.546 565.895 312.562 557.28 312.562C548.665 312.562 541.682 319.546 541.682 328.161C541.682 336.776 548.665 343.76 557.28 343.76Z" fill="black"/>
<path d="M526.082 343.76C534.697 343.76 541.681 336.776 541.681 328.161C541.681 319.546 534.697 312.562 526.082 312.562C517.467 312.562 510.483 319.546 510.483 328.161C510.483 336.776 517.467 343.76 526.082 343.76Z" fill="black"/>
<path d="M494.801 343.76C503.416 343.76 510.4 336.776 510.4 328.161C510.4 319.546 503.416 312.562 494.801 312.562C486.186 312.562 479.202 319.546 479.202 328.161C479.202 336.776 486.186 343.76 494.801 343.76Z" fill="black"/>
<path d="M557.28 375.042C565.895 375.042 572.879 368.059 572.879 359.444C572.879 350.829 565.895 343.845 557.28 343.845C548.665 343.845 541.682 350.829 541.682 359.444C541.682 368.059 548.665 375.042 557.28 375.042Z" fill="black"/>
<path d="M526.082 375.042C534.697 375.042 541.681 368.059 541.681 359.444C541.681 350.829 534.697 343.845 526.082 343.845C517.467 343.845 510.483 350.829 510.483 359.444C510.483 368.059 517.467 375.042 526.082 375.042Z" fill="black"/>
<path d="M494.801 375.042C503.416 375.042 510.4 368.059 510.4 359.444C510.4 350.829 503.416 343.845 494.801 343.845C486.186 343.845 479.202 350.829 479.202 359.444C479.202 368.059 486.186 375.042 494.801 375.042Z" fill="black"/>
<path d="M526.082 406.24C534.697 406.24 541.681 399.256 541.681 390.641C541.681 382.026 534.697 375.042 526.082 375.042C517.467 375.042 510.483 382.026 510.483 390.641C510.483 399.256 517.467 406.24 526.082 406.24Z" fill="black"/>
<path d="M494.801 406.24C503.416 406.24 510.4 399.256 510.4 390.641C510.4 382.026 503.416 375.042 494.801 375.042C486.186 375.042 479.202 382.026 479.202 390.641C479.202 399.256 486.186 406.24 494.801 406.24Z" fill="black"/>
<path d="M463.52 406.24C472.135 406.24 479.118 399.256 479.118 390.641C479.118 382.026 472.135 375.042 463.52 375.042C454.905 375.042 447.921 382.026 447.921 390.641C447.921 399.256 454.905 406.24 463.52 406.24Z" fill="black"/>
<path d="M526.082 437.521C534.697 437.521 541.681 430.537 541.681 421.922C541.681 413.307 534.697 406.323 526.082 406.323C517.467 406.323 510.483 413.307 510.483 421.922C510.483 430.537 517.467 437.521 526.082 437.521Z" fill="black"/>
<path d="M494.801 437.521C503.416 437.521 510.4 430.537 510.4 421.922C510.4 413.307 503.416 406.323 494.801 406.323C486.186 406.323 479.202 413.307 479.202 421.922C479.202 430.537 486.186 437.521 494.801 437.521Z" fill="black"/>
<path d="M463.52 437.521C472.135 437.521 479.118 430.537 479.118 421.922C479.118 413.307 472.135 406.323 463.52 406.323C454.905 406.323 447.921 413.307 447.921 421.922C447.921 430.537 454.905 437.521 463.52 437.521Z" fill="black"/>
<path d="M526.082 468.802C534.697 468.802 541.681 461.818 541.681 453.203C541.681 444.588 534.697 437.604 526.082 437.604C517.467 437.604 510.483 444.588 510.483 453.203C510.483 461.818 517.467 468.802 526.082 468.802Z" fill="black"/>
<path d="M494.801 468.802C503.416 468.802 510.4 461.818 510.4 453.203C510.4 444.588 503.416 437.604 494.801 437.604C486.186 437.604 479.202 444.588 479.202 453.203C479.202 461.818 486.186 468.802 494.801 468.802Z" fill="black"/>
<path d="M463.52 468.802C472.135 468.802 479.118 461.818 479.118 453.203C479.118 444.588 472.135 437.604 463.52 437.604C454.905 437.604 447.921 444.588 447.921 453.203C447.921 461.818 454.905 468.802 463.52 468.802Z" fill="black"/>
<path d="M526.082 500.084C534.697 500.084 541.681 493.1 541.681 484.486C541.681 475.871 534.697 468.887 526.082 468.887C517.467 468.887 510.483 475.871 510.483 484.486C510.483 493.1 517.467 500.084 526.082 500.084Z" fill="black"/>
<path d="M494.801 500.084C503.416 500.084 510.4 493.1 510.4 484.486C510.4 475.871 503.416 468.887 494.801 468.887C486.186 468.887 479.202 475.871 479.202 484.486C479.202 493.1 486.186 500.084 494.801 500.084Z" fill="black"/>
<path d="M463.52 500.084C472.135 500.084 479.118 493.1 479.118 484.486C479.118 475.871 472.135 468.887 463.52 468.887C454.905 468.887 447.921 475.871 447.921 484.486C447.921 493.1 454.905 500.084 463.52 500.084Z" fill="black"/>
<path d="M619.843 156.24C628.458 156.24 635.442 149.256 635.442 140.641C635.442 132.026 628.458 125.042 619.843 125.042C611.228 125.042 604.244 132.026 604.244 140.641C604.244 149.256 611.228 156.24 619.843 156.24Z" fill="black"/>
<path d="M651.04 281.281C659.655 281.281 666.639 274.298 666.639 265.683C666.639 257.068 659.655 250.084 651.04 250.084C642.425 250.084 635.441 257.068 635.441 265.683C635.441 274.298 642.425 281.281 651.04 281.281Z" fill="black"/>
<path d="M619.843 281.281C628.458 281.281 635.442 274.298 635.442 265.683C635.442 257.068 628.458 250.084 619.843 250.084C611.228 250.084 604.244 257.068 604.244 265.683C604.244 274.298 611.228 281.281 619.843 281.281Z" fill="black"/>
<path d="M588.562 281.281C597.177 281.281 604.16 274.298 604.16 265.683C604.16 257.068 597.177 250.084 588.562 250.084C579.947 250.084 572.963 257.068 572.963 265.683C572.963 274.298 579.947 281.281 588.562 281.281Z" fill="black"/>
<path d="M651.04 312.479C659.655 312.479 666.639 305.495 666.639 296.88C666.639 288.265 659.655 281.281 651.04 281.281C642.425 281.281 635.441 288.265 635.441 296.88C635.441 305.495 642.425 312.479 651.04 312.479Z" fill="black"/>
<path d="M619.843 312.479C628.458 312.479 635.442 305.495 635.442 296.88C635.442 288.265 628.458 281.281 619.843 281.281C611.228 281.281 604.244 288.265 604.244 296.88C604.244 305.495 611.228 312.479 619.843 312.479Z" fill="black"/>
<path d="M588.562 312.479C597.177 312.479 604.16 305.495 604.16 296.88C604.16 288.265 597.177 281.281 588.562 281.281C579.947 281.281 572.963 288.265 572.963 296.88C572.963 305.495 579.947 312.479 588.562 312.479Z" fill="black"/>
<path d="M651.04 343.76C659.655 343.76 666.639 336.776 666.639 328.161C666.639 319.546 659.655 312.562 651.04 312.562C642.425 312.562 635.441 319.546 635.441 328.161C635.441 336.776 642.425 343.76 651.04 343.76Z" fill="black"/>
<path d="M619.843 343.76C628.458 343.76 635.442 336.776 635.442 328.161C635.442 319.546 628.458 312.562 619.843 312.562C611.228 312.562 604.244 319.546 604.244 328.161C604.244 336.776 611.228 343.76 619.843 343.76Z" fill="black"/>
<path d="M588.562 343.76C597.177 343.76 604.16 336.776 604.16 328.161C604.16 319.546 597.177 312.562 588.562 312.562C579.947 312.562 572.963 319.546 572.963 328.161C572.963 336.776 579.947 343.76 588.562 343.76Z" fill="black"/>
<path d="M713.604 281.281C722.219 281.281 729.202 274.298 729.202 265.683C729.202 257.068 722.219 250.084 713.604 250.084C704.989 250.084 698.005 257.068 698.005 265.683C698.005 274.298 704.989 281.281 713.604 281.281Z" fill="black"/>
<path d="M682.322 281.281C690.937 281.281 697.921 274.298 697.921 265.683C697.921 257.068 690.937 250.084 682.322 250.084C673.707 250.084 666.724 257.068 666.724 265.683C666.724 274.298 673.707 281.281 682.322 281.281Z" fill="black"/>
<path d="M713.604 312.479C722.219 312.479 729.202 305.495 729.202 296.88C729.202 288.265 722.219 281.281 713.604 281.281C704.989 281.281 698.005 288.265 698.005 296.88C698.005 305.495 704.989 312.479 713.604 312.479Z" fill="black"/>
<path d="M682.322 312.479C690.937 312.479 697.921 305.495 697.921 296.88C697.921 288.265 690.937 281.281 682.322 281.281C673.707 281.281 666.724 288.265 666.724 296.88C666.724 305.495 673.707 312.479 682.322 312.479Z" fill="black"/>
<path d="M713.604 343.76C722.219 343.76 729.202 336.776 729.202 328.161C729.202 319.546 722.219 312.562 713.604 312.562C704.989 312.562 698.005 319.546 698.005 328.161C698.005 336.776 704.989 343.76 713.604 343.76Z" fill="black"/>
<path d="M682.322 343.76C690.937 343.76 697.921 336.776 697.921 328.161C697.921 319.546 690.937 312.562 682.322 312.562C673.707 312.562 666.724 319.546 666.724 328.161C666.724 336.776 673.707 343.76 682.322 343.76Z" fill="black"/>
<path d="M15.5988 31.1976C24.2138 31.1976 31.1976 24.2138 31.1976 15.5988C31.1976 6.98382 24.2138 0 15.5988 0C6.98382 0 0 6.98382 0 15.5988C0 24.2138 6.98382 31.1976 15.5988 31.1976Z" fill="black"/>
<path d="M78.1613 31.1976C86.7763 31.1976 93.7601 24.2138 93.7601 15.5988C93.7601 6.98382 86.7763 0 78.1613 0C69.5463 0 62.5625 6.98382 62.5625 15.5988C62.5625 24.2138 69.5463 31.1976 78.1613 31.1976Z" fill="black"/>
<path d="M140.641 31.1976C149.256 31.1976 156.239 24.2138 156.239 15.5988C156.239 6.98382 149.256 0 140.641 0C132.026 0 125.042 6.98382 125.042 15.5988C125.042 24.2138 132.026 31.1976 140.641 31.1976Z" fill="black"/>
<path d="M15.5988 62.4788C24.2138 62.4788 31.1976 55.495 31.1976 46.88C31.1976 38.2651 24.2138 31.2812 15.5988 31.2812C6.98382 31.2812 0 38.2651 0 46.88C0 55.495 6.98382 62.4788 15.5988 62.4788Z" fill="black"/>
<path d="M78.1613 62.4788C86.7763 62.4788 93.7601 55.495 93.7601 46.88C93.7601 38.2651 86.7763 31.2812 78.1613 31.2812C69.5463 31.2812 62.5625 38.2651 62.5625 46.88C62.5625 55.495 69.5463 62.4788 78.1613 62.4788Z" fill="black"/>
<path d="M15.5988 93.6771C24.2138 93.6771 31.1976 86.6933 31.1976 78.0783C31.1976 69.4633 24.2138 62.4795 15.5988 62.4795C6.98382 62.4795 0 69.4633 0 78.0783C0 86.6933 6.98382 93.6771 15.5988 93.6771Z" fill="black"/>
<path d="M78.1613 93.6771C86.7763 93.6771 93.7601 86.6933 93.7601 78.0783C93.7601 69.4633 86.7763 62.4795 78.1613 62.4795C69.5463 62.4795 62.5625 69.4633 62.5625 78.0783C62.5625 86.6933 69.5463 93.6771 78.1613 93.6771Z" fill="black"/>
<path d="M15.5988 124.958C24.2138 124.958 31.1976 117.975 31.1976 109.36C31.1976 100.745 24.2138 93.7607 15.5988 93.7607C6.98382 93.7607 0 100.745 0 109.36C0 117.975 6.98382 124.958 15.5988 124.958Z" fill="black"/>
<path d="M78.1613 124.958C86.7763 124.958 93.7601 117.975 93.7601 109.36C93.7601 100.745 86.7763 93.7607 78.1613 93.7607C69.5463 93.7607 62.5625 100.745 62.5625 109.36C62.5625 117.975 69.5463 124.958 78.1613 124.958Z" fill="black"/>
<path d="M15.5988 156.24C24.2138 156.24 31.1976 149.256 31.1976 140.641C31.1976 132.026 24.2138 125.042 15.5988 125.042C6.98382 125.042 0 132.026 0 140.641C0 149.256 6.98382 156.24 15.5988 156.24Z" fill="black"/>
<path d="M78.1613 156.24C86.7763 156.24 93.7601 149.256 93.7601 140.641C93.7601 132.026 86.7763 125.042 78.1613 125.042C69.5463 125.042 62.5625 132.026 62.5625 140.641C62.5625 149.256 69.5463 156.24 78.1613 156.24Z" fill="black"/>
<path d="M15.5988 187.437C24.2138 187.437 31.1976 180.453 31.1976 171.838C31.1976 163.223 24.2138 156.239 15.5988 156.239C6.98382 156.239 0 163.223 0 171.838C0 180.453 6.98382 187.437 15.5988 187.437Z" fill="black"/>
<path d="M78.1613 187.437C86.7763 187.437 93.7601 180.453 93.7601 171.838C93.7601 163.223 86.7763 156.239 78.1613 156.239C69.5463 156.239 62.5625 163.223 62.5625 171.838C62.5625 180.453 69.5463 187.437 78.1613 187.437Z" fill="black"/>
<path d="M15.5988 218.718C24.2138 218.718 31.1976 211.734 31.1976 203.119C31.1976 194.504 24.2138 187.521 15.5988 187.521C6.98382 187.521 0 194.504 0 203.119C0 211.734 6.98382 218.718 15.5988 218.718Z" fill="black"/>
<path d="M78.1613 218.718C86.7763 218.718 93.7601 211.734 93.7601 203.119C93.7601 194.504 86.7763 187.521 78.1613 187.521C69.5463 187.521 62.5625 194.504 62.5625 203.119C62.5625 211.734 69.5463 218.718 78.1613 218.718Z" fill="black"/>
<path d="M15.5988 250C24.2138 250 31.1976 243.017 31.1976 234.402C31.1976 225.787 24.2138 218.803 15.5988 218.803C6.98382 218.803 0 225.787 0 234.402C0 243.017 6.98382 250 15.5988 250Z" fill="black"/>
<path d="M78.1613 250C86.7763 250 93.7601 243.017 93.7601 234.402C93.7601 225.787 86.7763 218.803 78.1613 218.803C69.5463 218.803 62.5625 225.787 62.5625 234.402C62.5625 243.017 69.5463 250 78.1613 250Z" fill="black"/>
<path d="M15.5988 281.198C24.2138 281.198 31.1976 274.214 31.1976 265.599C31.1976 256.984 24.2138 250 15.5988 250C6.98382 250 0 256.984 0 265.599C0 274.214 6.98382 281.198 15.5988 281.198Z" fill="black"/>
<path d="M78.1613 281.198C86.7763 281.198 93.7601 274.214 93.7601 265.599C93.7601 256.984 86.7763 250 78.1613 250C69.5463 250 62.5625 256.984 62.5625 265.599C62.5625 274.214 69.5463 281.198 78.1613 281.198Z" fill="black"/>
<path d="M15.5988 312.479C24.2138 312.479 31.1976 305.495 31.1976 296.88C31.1976 288.265 24.2138 281.281 15.5988 281.281C6.98382 281.281 0 288.265 0 296.88C0 305.495 6.98382 312.479 15.5988 312.479Z" fill="black"/>
<path d="M78.1613 312.479C86.7763 312.479 93.7601 305.495 93.7601 296.88C93.7601 288.265 86.7763 281.281 78.1613 281.281C69.5463 281.281 62.5625 288.265 62.5625 296.88C62.5625 305.495 69.5463 312.479 78.1613 312.479Z" fill="black"/>
<path d="M15.5988 343.76C24.2138 343.76 31.1976 336.776 31.1976 328.161C31.1976 319.546 24.2138 312.562 15.5988 312.562C6.98382 312.562 0 319.546 0 328.161C0 336.776 6.98382 343.76 15.5988 343.76Z" fill="black"/>
<path d="M78.1613 343.76C86.7763 343.76 93.7601 336.776 93.7601 328.161C93.7601 319.546 86.7763 312.562 78.1613 312.562C69.5463 312.562 62.5625 319.546 62.5625 328.161C62.5625 336.776 69.5463 343.76 78.1613 343.76Z" fill="black"/>
<path d="M15.5988 375.042C24.2138 375.042 31.1976 368.059 31.1976 359.444C31.1976 350.829 24.2138 343.845 15.5988 343.845C6.98382 343.845 0 350.829 0 359.444C0 368.059 6.98382 375.042 15.5988 375.042Z" fill="black"/>
<path d="M78.1613 375.042C86.7763 375.042 93.7601 368.059 93.7601 359.444C93.7601 350.829 86.7763 343.845 78.1613 343.845C69.5463 343.845 62.5625 350.829 62.5625 359.444C62.5625 368.059 69.5463 375.042 78.1613 375.042Z" fill="black"/>
<path d="M15.5988 406.24C24.2138 406.24 31.1976 399.256 31.1976 390.641C31.1976 382.026 24.2138 375.042 15.5988 375.042C6.98382 375.042 0 382.026 0 390.641C0 399.256 6.98382 406.24 15.5988 406.24Z" fill="black"/>
<path d="M78.1613 406.24C86.7763 406.24 93.7601 399.256 93.7601 390.641C93.7601 382.026 86.7763 375.042 78.1613 375.042C69.5463 375.042 62.5625 382.026 62.5625 390.641C62.5625 399.256 69.5463 406.24 78.1613 406.24Z" fill="black"/>
<path d="M15.5988 437.521C24.2138 437.521 31.1976 430.537 31.1976 421.922C31.1976 413.307 24.2138 406.323 15.5988 406.323C6.98382 406.323 0 413.307 0 421.922C0 430.537 6.98382 437.521 15.5988 437.521Z" fill="black"/>
<path d="M78.1613 437.521C86.7763 437.521 93.7601 430.537 93.7601 421.922C93.7601 413.307 86.7763 406.323 78.1613 406.323C69.5463 406.323 62.5625 413.307 62.5625 421.922C62.5625 430.537 69.5463 437.521 78.1613 437.521Z" fill="black"/>
<path d="M15.5988 468.802C24.2138 468.802 31.1976 461.818 31.1976 453.203C31.1976 444.588 24.2138 437.604 15.5988 437.604C6.98382 437.604 0 444.588 0 453.203C0 461.818 6.98382 468.802 15.5988 468.802Z" fill="black"/>
<path d="M78.1613 468.802C86.7763 468.802 93.7601 461.818 93.7601 453.203C93.7601 444.588 86.7763 437.604 78.1613 437.604C69.5463 437.604 62.5625 444.588 62.5625 453.203C62.5625 461.818 69.5463 468.802 78.1613 468.802Z" fill="black"/>
<path d="M15.5988 500C24.2138 500 31.1976 493.017 31.1976 484.402C31.1976 475.787 24.2138 468.803 15.5988 468.803C6.98382 468.803 0 475.787 0 484.402C0 493.017 6.98382 500 15.5988 500Z" fill="black"/>
<path d="M78.1613 500C86.7763 500 93.7601 493.017 93.7601 484.402C93.7601 475.787 86.7763 468.803 78.1613 468.803C69.5463 468.803 62.5625 475.787 62.5625 484.402C62.5625 493.017 69.5463 500 78.1613 500Z" fill="black"/>
<path d="M324.807 31.1976C333.422 31.1976 340.406 24.2138 340.406 15.5988C340.406 6.98382 333.422 0 324.807 0C316.192 0 309.208 6.98382 309.208 15.5988C309.208 24.2138 316.192 31.1976 324.807 31.1976Z" fill="black"/>
<path d="M387.286 31.1976C395.901 31.1976 402.885 24.2138 402.885 15.5988C402.885 6.98382 395.901 0 387.286 0C378.671 0 371.688 6.98382 371.688 15.5988C371.688 24.2138 378.671 31.1976 387.286 31.1976Z" fill="black"/>
<path d="M324.807 62.4788C333.422 62.4788 340.406 55.495 340.406 46.88C340.406 38.2651 333.422 31.2812 324.807 31.2812C316.192 31.2812 309.208 38.2651 309.208 46.88C309.208 55.495 316.192 62.4788 324.807 62.4788Z" fill="black"/>
<path d="M387.286 62.4788C395.901 62.4788 402.885 55.495 402.885 46.88C402.885 38.2651 395.901 31.2812 387.286 31.2812C378.671 31.2812 371.688 38.2651 371.688 46.88C371.688 55.495 378.671 62.4788 387.286 62.4788Z" fill="black"/>
<path d="M324.807 93.6771C333.422 93.6771 340.406 86.6933 340.406 78.0783C340.406 69.4633 333.422 62.4795 324.807 62.4795C316.192 62.4795 309.208 69.4633 309.208 78.0783C309.208 86.6933 316.192 93.6771 324.807 93.6771Z" fill="black"/>
<path d="M387.286 93.6771C395.901 93.6771 402.885 86.6933 402.885 78.0783C402.885 69.4633 395.901 62.4795 387.286 62.4795C378.671 62.4795 371.688 69.4633 371.688 78.0783C371.688 86.6933 378.671 93.6771 387.286 93.6771Z" fill="black"/>
<path d="M324.807 124.958C333.422 124.958 340.406 117.975 340.406 109.36C340.406 100.745 333.422 93.7607 324.807 93.7607C316.192 93.7607 309.208 100.745 309.208 109.36C309.208 117.975 316.192 124.958 324.807 124.958Z" fill="black"/>
<path d="M387.286 124.958C395.901 124.958 402.885 117.975 402.885 109.36C402.885 100.745 395.901 93.7607 387.286 93.7607C378.671 93.7607 371.688 100.745 371.688 109.36C371.688 117.975 378.671 124.958 387.286 124.958Z" fill="black"/>
<path d="M324.807 156.24C333.422 156.24 340.406 149.256 340.406 140.641C340.406 132.026 333.422 125.042 324.807 125.042C316.192 125.042 309.208 132.026 309.208 140.641C309.208 149.256 316.192 156.24 324.807 156.24Z" fill="black"/>
<path d="M387.286 156.24C395.901 156.24 402.885 149.256 402.885 140.641C402.885 132.026 395.901 125.042 387.286 125.042C378.671 125.042 371.688 132.026 371.688 140.641C371.688 149.256 378.671 156.24 387.286 156.24Z" fill="black"/>
<path d="M324.807 187.437C333.422 187.437 340.406 180.453 340.406 171.838C340.406 163.223 333.422 156.239 324.807 156.239C316.192 156.239 309.208 163.223 309.208 171.838C309.208 180.453 316.192 187.437 324.807 187.437Z" fill="black"/>
<path d="M387.286 187.437C395.901 187.437 402.885 180.453 402.885 171.838C402.885 163.223 395.901 156.239 387.286 156.239C378.671 156.239 371.688 163.223 371.688 171.838C371.688 180.453 378.671 187.437 387.286 187.437Z" fill="black"/>
<path d="M324.807 218.718C333.422 218.718 340.406 211.734 340.406 203.119C340.406 194.504 333.422 187.521 324.807 187.521C316.192 187.521 309.208 194.504 309.208 203.119C309.208 211.734 316.192 218.718 324.807 218.718Z" fill="black"/>
<path d="M387.286 218.718C395.901 218.718 402.885 211.734 402.885 203.119C402.885 194.504 395.901 187.521 387.286 187.521C378.671 187.521 371.688 194.504 371.688 203.119C371.688 211.734 378.671 218.718 387.286 218.718Z" fill="black"/>
<path d="M324.807 250C333.422 250 340.406 243.017 340.406 234.402C340.406 225.787 333.422 218.803 324.807 218.803C316.192 218.803 309.208 225.787 309.208 234.402C309.208 243.017 316.192 250 324.807 250Z" fill="black"/>
<path d="M387.286 250C395.901 250 402.885 243.017 402.885 234.402C402.885 225.787 395.901 218.803 387.286 218.803C378.671 218.803 371.688 225.787 371.688 234.402C371.688 243.017 378.671 250 387.286 250Z" fill="black"/>
<path d="M324.807 281.198C333.422 281.198 340.406 274.214 340.406 265.599C340.406 256.984 333.422 250 324.807 250C316.192 250 309.208 256.984 309.208 265.599C309.208 274.214 316.192 281.198 324.807 281.198Z" fill="black"/>
<path d="M387.286 281.198C395.901 281.198 402.885 274.214 402.885 265.599C402.885 256.984 395.901 250 387.286 250C378.671 250 371.688 256.984 371.688 265.599C371.688 274.214 378.671 281.198 387.286 281.198Z" fill="black"/>
<path d="M324.807 312.479C333.422 312.479 340.406 305.495 340.406 296.88C340.406 288.265 333.422 281.281 324.807 281.281C316.192 281.281 309.208 288.265 309.208 296.88C309.208 305.495 316.192 312.479 324.807 312.479Z" fill="black"/>
<path d="M387.286 312.479C395.901 312.479 402.885 305.495 402.885 296.88C402.885 288.265 395.901 281.281 387.286 281.281C378.671 281.281 371.688 288.265 371.688 296.88C371.688 305.495 378.671 312.479 387.286 312.479Z" fill="black"/>
<path d="M324.807 343.76C333.422 343.76 340.406 336.776 340.406 328.161C340.406 319.546 333.422 312.562 324.807 312.562C316.192 312.562 309.208 319.546 309.208 328.161C309.208 336.776 316.192 343.76 324.807 343.76Z" fill="black"/>
<path d="M387.286 343.76C395.901 343.76 402.885 336.776 402.885 328.161C402.885 319.546 395.901 312.562 387.286 312.562C378.671 312.562 371.688 319.546 371.688 328.161C371.688 336.776 378.671 343.76 387.286 343.76Z" fill="black"/>
<path d="M324.807 375.042C333.422 375.042 340.406 368.059 340.406 359.444C340.406 350.829 333.422 343.845 324.807 343.845C316.192 343.845 309.208 350.829 309.208 359.444C309.208 368.059 316.192 375.042 324.807 375.042Z" fill="black"/>
<path d="M387.286 375.042C395.901 375.042 402.885 368.059 402.885 359.444C402.885 350.829 395.901 343.845 387.286 343.845C378.671 343.845 371.688 350.829 371.688 359.444C371.688 368.059 378.671 375.042 387.286 375.042Z" fill="black"/>
<path d="M324.807 406.24C333.422 406.24 340.406 399.256 340.406 390.641C340.406 382.026 333.422 375.042 324.807 375.042C316.192 375.042 309.208 382.026 309.208 390.641C309.208 399.256 316.192 406.24 324.807 406.24Z" fill="black"/>
<path d="M387.286 406.24C395.901 406.24 402.885 399.256 402.885 390.641C402.885 382.026 395.901 375.042 387.286 375.042C378.671 375.042 371.688 382.026 371.688 390.641C371.688 399.256 378.671 406.24 387.286 406.24Z" fill="black"/>
<path d="M324.807 437.521C333.422 437.521 340.406 430.537 340.406 421.922C340.406 413.307 333.422 406.323 324.807 406.323C316.192 406.323 309.208 413.307 309.208 421.922C309.208 430.537 316.192 437.521 324.807 437.521Z" fill="black"/>
<path d="M387.286 437.521C395.901 437.521 402.885 430.537 402.885 421.922C402.885 413.307 395.901 406.323 387.286 406.323C378.671 406.323 371.688 413.307 371.688 421.922C371.688 430.537 378.671 437.521 387.286 437.521Z" fill="black"/>
<path d="M324.807 468.802C333.422 468.802 340.406 461.818 340.406 453.203C340.406 444.588 333.422 437.604 324.807 437.604C316.192 437.604 309.208 444.588 309.208 453.203C309.208 461.818 316.192 468.802 324.807 468.802Z" fill="black"/>
<path d="M387.286 468.802C395.901 468.802 402.885 461.818 402.885 453.203C402.885 444.588 395.901 437.604 387.286 437.604C378.671 437.604 371.688 444.588 371.688 453.203C371.688 461.818 378.671 468.802 387.286 468.802Z" fill="black"/>
<path d="M324.807 500C333.422 500 340.406 493.017 340.406 484.402C340.406 475.787 333.422 468.803 324.807 468.803C316.192 468.803 309.208 475.787 309.208 484.402C309.208 493.017 316.192 500 324.807 500Z" fill="black"/>
<path d="M387.286 500C395.901 500 402.885 493.017 402.885 484.402C402.885 475.787 395.901 468.803 387.286 468.803C378.671 468.803 371.688 475.787 371.688 484.402C371.688 493.017 378.671 500 387.286 500Z" fill="black"/>
<path d="M140.641 62.4788C149.256 62.4788 156.239 55.495 156.239 46.88C156.239 38.2651 149.256 31.2812 140.641 31.2812C132.026 31.2812 125.042 38.2651 125.042 46.88C125.042 55.495 132.026 62.4788 140.641 62.4788Z" fill="black"/>
<path d="M140.641 93.6771C149.256 93.6771 156.239 86.6933 156.239 78.0783C156.239 69.4633 149.256 62.4795 140.641 62.4795C132.026 62.4795 125.042 69.4633 125.042 78.0783C125.042 86.6933 132.026 93.6771 140.641 93.6771Z" fill="black"/>
<path d="M140.641 124.958C149.256 124.958 156.239 117.975 156.239 109.36C156.239 100.745 149.256 93.7607 140.641 93.7607C132.026 93.7607 125.042 100.745 125.042 109.36C125.042 117.975 132.026 124.958 140.641 124.958Z" fill="black"/>
<path d="M203.203 124.958C211.818 124.958 218.802 117.975 218.802 109.36C218.802 100.745 211.818 93.7607 203.203 93.7607C194.588 93.7607 187.604 100.745 187.604 109.36C187.604 117.975 194.588 124.958 203.203 124.958Z" fill="black"/>
<path d="M140.641 156.24C149.256 156.24 156.239 149.256 156.239 140.641C156.239 132.026 149.256 125.042 140.641 125.042C132.026 125.042 125.042 132.026 125.042 140.641C125.042 149.256 132.026 156.24 140.641 156.24Z" fill="black"/>
<path d="M203.203 156.24C211.818 156.24 218.802 149.256 218.802 140.641C218.802 132.026 211.818 125.042 203.203 125.042C194.588 125.042 187.604 132.026 187.604 140.641C187.604 149.256 194.588 156.24 203.203 156.24Z" fill="black"/>
<path d="M203.203 187.437C211.818 187.437 218.802 180.453 218.802 171.838C218.802 163.223 211.818 156.239 203.203 156.239C194.588 156.239 187.604 163.223 187.604 171.838C187.604 180.453 194.588 187.437 203.203 187.437Z" fill="black"/>
<path d="M203.203 218.718C211.818 218.718 218.802 211.734 218.802 203.119C218.802 194.504 211.818 187.521 203.203 187.521C194.588 187.521 187.604 194.504 187.604 203.119C187.604 211.734 194.588 218.718 203.203 218.718Z" fill="black"/>
<path d="M203.203 250C211.818 250 218.802 243.017 218.802 234.402C218.802 225.787 211.818 218.803 203.203 218.803C194.588 218.803 187.604 225.787 187.604 234.402C187.604 243.017 194.588 250 203.203 250Z" fill="black"/>
<path d="M203.203 281.198C211.818 281.198 218.802 274.214 218.802 265.599C218.802 256.984 211.818 250 203.203 250C194.588 250 187.604 256.984 187.604 265.599C187.604 274.214 194.588 281.198 203.203 281.198Z" fill="black"/>
<path d="M203.203 312.479C211.818 312.479 218.802 305.495 218.802 296.88C218.802 288.265 211.818 281.281 203.203 281.281C194.588 281.281 187.604 288.265 187.604 296.88C187.604 305.495 194.588 312.479 203.203 312.479Z" fill="black"/>
<path d="M261.909 312.479C270.524 312.479 277.508 305.495 277.508 296.88C277.508 288.265 270.524 281.281 261.909 281.281C253.294 281.281 246.311 288.265 246.311 296.88C246.311 305.495 253.294 312.479 261.909 312.479Z" fill="black"/>
<path d="M203.203 343.76C211.818 343.76 218.802 336.776 218.802 328.161C218.802 319.546 211.818 312.562 203.203 312.562C194.588 312.562 187.604 319.546 187.604 328.161C187.604 336.776 194.588 343.76 203.203 343.76Z" fill="black"/>
<path d="M261.909 343.76C270.524 343.76 277.508 336.776 277.508 328.161C277.508 319.546 270.524 312.562 261.909 312.562C253.294 312.562 246.311 319.546 246.311 328.161C246.311 336.776 253.294 343.76 261.909 343.76Z" fill="black"/>
<path d="M261.909 375.042C270.524 375.042 277.508 368.059 277.508 359.444C277.508 350.829 270.524 343.845 261.909 343.845C253.294 343.845 246.311 350.829 246.311 359.444C246.311 368.059 253.294 375.042 261.909 375.042Z" fill="black"/>
<path d="M261.909 406.24C270.524 406.24 277.508 399.256 277.508 390.641C277.508 382.026 270.524 375.042 261.909 375.042C253.294 375.042 246.311 382.026 246.311 390.641C246.311 399.256 253.294 406.24 261.909 406.24Z" fill="black"/>
<path d="M261.909 437.521C270.524 437.521 277.508 430.537 277.508 421.922C277.508 413.307 270.524 406.323 261.909 406.323C253.294 406.323 246.311 413.307 246.311 421.922C246.311 430.537 253.294 437.521 261.909 437.521Z" fill="black"/>
<path d="M261.909 468.802C270.524 468.802 277.508 461.818 277.508 453.203C277.508 444.588 270.524 437.604 261.909 437.604C253.294 437.604 246.311 444.588 246.311 453.203C246.311 461.818 253.294 468.802 261.909 468.802Z" fill="black"/>
<path d="M203.203 93.6771C211.818 93.6771 218.802 86.6933 218.802 78.0783C218.802 69.4633 211.818 62.4795 203.203 62.4795C194.588 62.4795 187.604 69.4633 187.604 78.0783C187.604 86.6933 194.588 93.6771 203.203 93.6771Z" fill="black"/>
</svg>
