<svg width="855" height="500" viewBox="0 0 855 500" fill="none" xmlns="http://www.w3.org/2000/svg">
<path d="M682.238 31.1976C690.853 31.1976 697.837 24.2138 697.837 15.5988C697.837 6.98382 690.853 0 682.238 0C673.623 0 666.64 6.98382 666.64 15.5988C666.64 24.2138 673.623 31.1976 682.238 31.1976Z" fill="black"/>
<path d="M713.52 31.1976C722.135 31.1976 729.118 24.2138 729.118 15.5988C729.118 6.98382 722.135 0 713.52 0C704.905 0 697.921 6.98382 697.921 15.5988C697.921 24.2138 704.905 31.1976 713.52 31.1976Z" fill="black"/>
<path d="M744.801 31.1976C753.416 31.1976 760.4 24.2138 760.4 15.5988C760.4 6.98382 753.416 0 744.801 0C736.186 0 729.202 6.98382 729.202 15.5988C729.202 24.2138 736.186 31.1976 744.801 31.1976Z" fill="black"/>
<path d="M682.238 62.4788C690.853 62.4788 697.837 55.495 697.837 46.88C697.837 38.2651 690.853 31.2812 682.238 31.2812C673.623 31.2812 666.64 38.2651 666.64 46.88C666.64 55.495 673.623 62.4788 682.238 62.4788Z" fill="black"/>
<path d="M713.52 62.4788C722.135 62.4788 729.118 55.495 729.118 46.88C729.118 38.2651 722.135 31.2812 713.52 31.2812C704.905 31.2812 697.921 38.2651 697.921 46.88C697.921 55.495 704.905 62.4788 713.52 62.4788Z" fill="black"/>
<path d="M744.801 62.4788C753.416 62.4788 760.4 55.495 760.4 46.88C760.4 38.2651 753.416 31.2812 744.801 31.2812C736.186 31.2812 729.202 38.2651 729.202 46.88C729.202 55.495 736.186 62.4788 744.801 62.4788Z" fill="black"/>
<path d="M713.52 93.6771C722.135 93.6771 729.118 86.6933 729.118 78.0783C729.118 69.4633 722.135 62.4795 713.52 62.4795C704.905 62.4795 697.921 69.4633 697.921 78.0783C697.921 86.6933 704.905 93.6771 713.52 93.6771Z" fill="black"/>
<path d="M744.801 93.6771C753.416 93.6771 760.4 86.6933 760.4 78.0783C760.4 69.4633 753.416 62.4795 744.801 62.4795C736.186 62.4795 729.202 69.4633 729.202 78.0783C729.202 86.6933 736.186 93.6771 744.801 93.6771Z" fill="black"/>
<path d="M713.52 124.958C722.135 124.958 729.118 117.975 729.118 109.36C729.118 100.745 722.135 93.7607 713.52 93.7607C704.905 93.7607 697.921 100.745 697.921 109.36C697.921 117.975 704.905 124.958 713.52 124.958Z" fill="black"/>
<path d="M713.52 156.24C722.135 156.24 729.118 149.256 729.118 140.641C729.118 132.026 722.135 125.042 713.52 125.042C704.905 125.042 697.921 132.026 697.921 140.641C697.921 149.256 704.905 156.24 713.52 156.24Z" fill="black"/>
<path d="M713.52 187.437C722.135 187.437 729.118 180.453 729.118 171.838C729.118 163.223 722.135 156.239 713.52 156.239C704.905 156.239 697.921 163.223 697.921 171.838C697.921 180.453 704.905 187.437 713.52 187.437Z" fill="black"/>
<path d="M744.801 218.719C753.416 218.719 760.4 211.735 760.4 203.12C760.4 194.505 753.416 187.521 744.801 187.521C736.186 187.521 729.202 194.505 729.202 203.12C729.202 211.735 736.186 218.719 744.801 218.719Z" fill="black"/>
<path d="M776.082 218.719C784.697 218.719 791.681 211.735 791.681 203.12C791.681 194.505 784.697 187.521 776.082 187.521C767.467 187.521 760.483 194.505 760.483 203.12C760.483 211.735 767.467 218.719 776.082 218.719Z" fill="black"/>
<path d="M744.801 250C753.416 250 760.4 243.017 760.4 234.402C760.4 225.787 753.416 218.803 744.801 218.803C736.186 218.803 729.202 225.787 729.202 234.402C729.202 243.017 736.186 250 744.801 250Z" fill="black"/>
<path d="M776.082 250C784.697 250 791.681 243.017 791.681 234.402C791.681 225.787 784.697 218.803 776.082 218.803C767.467 218.803 760.483 225.787 760.483 234.402C760.483 243.017 767.467 250 776.082 250Z" fill="black"/>
<path d="M744.801 281.198C753.416 281.198 760.4 274.214 760.4 265.599C760.4 256.984 753.416 250 744.801 250C736.186 250 729.202 256.984 729.202 265.599C729.202 274.214 736.186 281.198 744.801 281.198Z" fill="black"/>
<path d="M776.082 281.198C784.697 281.198 791.681 274.214 791.681 265.599C791.681 256.984 784.697 250 776.082 250C767.467 250 760.483 256.984 760.483 265.599C760.483 274.214 767.467 281.198 776.082 281.198Z" fill="black"/>
<path d="M807.28 281.198C815.895 281.198 822.879 274.214 822.879 265.599C822.879 256.984 815.895 250 807.28 250C798.665 250 791.682 256.984 791.682 265.599C791.682 274.214 798.665 281.198 807.28 281.198Z" fill="black"/>
<path d="M744.801 312.479C753.416 312.479 760.4 305.495 760.4 296.88C760.4 288.265 753.416 281.281 744.801 281.281C736.186 281.281 729.202 288.265 729.202 296.88C729.202 305.495 736.186 312.479 744.801 312.479Z" fill="black"/>
<path d="M776.082 312.479C784.697 312.479 791.681 305.495 791.681 296.88C791.681 288.265 784.697 281.281 776.082 281.281C767.467 281.281 760.483 288.265 760.483 296.88C760.483 305.495 767.467 312.479 776.082 312.479Z" fill="black"/>
<path d="M807.28 312.479C815.895 312.479 822.879 305.495 822.879 296.88C822.879 288.265 815.895 281.281 807.28 281.281C798.665 281.281 791.682 288.265 791.682 296.88C791.682 305.495 798.665 312.479 807.28 312.479Z" fill="black"/>
<path d="M744.801 343.76C753.416 343.76 760.4 336.776 760.4 328.161C760.4 319.546 753.416 312.562 744.801 312.562C736.186 312.562 729.202 319.546 729.202 328.161C729.202 336.776 736.186 343.76 744.801 343.76Z" fill="black"/>
<path d="M744.801 374.958C753.416 374.958 760.4 367.975 760.4 359.36C760.4 350.745 753.416 343.761 744.801 343.761C736.186 343.761 729.202 350.745 729.202 359.36C729.202 367.975 736.186 374.958 744.801 374.958Z" fill="black"/>
<path d="M776.082 437.521C784.697 437.521 791.681 430.537 791.681 421.922C791.681 413.307 784.697 406.323 776.082 406.323C767.467 406.323 760.483 413.307 760.483 421.922C760.483 430.537 767.467 437.521 776.082 437.521Z" fill="black"/>
<path d="M776.082 468.719C784.697 468.719 791.681 461.735 791.681 453.12C791.681 444.505 784.697 437.521 776.082 437.521C767.467 437.521 760.483 444.505 760.483 453.12C760.483 461.735 767.467 468.719 776.082 468.719Z" fill="black"/>
<path d="M807.28 468.719C815.895 468.719 822.879 461.735 822.879 453.12C822.879 444.505 815.895 437.521 807.28 437.521C798.665 437.521 791.682 444.505 791.682 453.12C791.682 461.735 798.665 468.719 807.28 468.719Z" fill="black"/>
<path d="M776.082 500C784.697 500 791.681 493.017 791.681 484.402C791.681 475.787 784.697 468.803 776.082 468.803C767.467 468.803 760.483 475.787 760.483 484.402C760.483 493.017 767.467 500 776.082 500Z" fill="black"/>
<path d="M807.28 500C815.895 500 822.879 493.017 822.879 484.402C822.879 475.787 815.895 468.803 807.28 468.803C798.665 468.803 791.682 475.787 791.682 484.402C791.682 493.017 798.665 500 807.28 500Z" fill="black"/>
<path d="M838.562 500C847.177 500 854.16 493.017 854.16 484.402C854.16 475.787 847.177 468.803 838.562 468.803C829.947 468.803 822.963 475.787 822.963 484.402C822.963 493.017 829.947 500 838.562 500Z" fill="black"/>
<path d="M682.238 156.24C690.853 156.24 697.837 149.256 697.837 140.641C697.837 132.026 690.853 125.042 682.238 125.042C673.623 125.042 666.64 132.026 666.64 140.641C666.64 149.256 673.623 156.24 682.238 156.24Z" fill="black"/>
<path d="M619.759 31.1976C628.374 31.1976 635.358 24.2138 635.358 15.5988C635.358 6.98382 628.374 0 619.759 0C611.144 0 604.16 6.98382 604.16 15.5988C604.16 24.2138 611.144 31.1976 619.759 31.1976Z" fill="black"/>
<path d="M619.759 62.4788C628.374 62.4788 635.358 55.495 635.358 46.88C635.358 38.2651 628.374 31.2812 619.759 31.2812C611.144 31.2812 604.16 38.2651 604.16 46.88C604.16 55.495 611.144 62.4788 619.759 62.4788Z" fill="black"/>
<path d="M588.478 93.6771C597.093 93.6771 604.076 86.6933 604.076 78.0783C604.076 69.4633 597.093 62.4795 588.478 62.4795C579.863 62.4795 572.879 69.4633 572.879 78.0783C572.879 86.6933 579.863 93.6771 588.478 93.6771Z" fill="black"/>
<path d="M619.759 93.6771C628.374 93.6771 635.358 86.6933 635.358 78.0783C635.358 69.4633 628.374 62.4795 619.759 62.4795C611.144 62.4795 604.16 69.4633 604.16 78.0783C604.16 86.6933 611.144 93.6771 619.759 93.6771Z" fill="black"/>
<path d="M651.04 31.1976C659.655 31.1976 666.639 24.2138 666.639 15.5988C666.639 6.98382 659.655 0 651.04 0C642.425 0 635.441 6.98382 635.441 15.5988C635.441 24.2138 642.425 31.1976 651.04 31.1976Z" fill="black"/>
<path d="M651.04 62.4788C659.655 62.4788 666.639 55.495 666.639 46.88C666.639 38.2651 659.655 31.2812 651.04 31.2812C642.425 31.2812 635.441 38.2651 635.441 46.88C635.441 55.495 642.425 62.4788 651.04 62.4788Z" fill="black"/>
<path d="M557.28 124.958C565.895 124.958 572.879 117.975 572.879 109.36C572.879 100.745 565.895 93.7607 557.28 93.7607C548.665 93.7607 541.682 100.745 541.682 109.36C541.682 117.975 548.665 124.958 557.28 124.958Z" fill="black"/>
<path d="M557.28 156.24C565.895 156.24 572.879 149.256 572.879 140.641C572.879 132.026 565.895 125.042 557.28 125.042C548.665 125.042 541.682 132.026 541.682 140.641C541.682 149.256 548.665 156.24 557.28 156.24Z" fill="black"/>
<path d="M557.28 187.437C565.895 187.437 572.879 180.453 572.879 171.838C572.879 163.223 565.895 156.239 557.28 156.239C548.665 156.239 541.682 163.223 541.682 171.838C541.682 180.453 548.665 187.437 557.28 187.437Z" fill="black"/>
<path d="M588.478 218.719C597.093 218.719 604.076 211.735 604.076 203.12C604.076 194.505 597.093 187.521 588.478 187.521C579.863 187.521 572.879 194.505 572.879 203.12C572.879 211.735 579.863 218.719 588.478 218.719Z" fill="black"/>
<path d="M557.28 218.719C565.895 218.719 572.879 211.735 572.879 203.12C572.879 194.505 565.895 187.521 557.28 187.521C548.665 187.521 541.682 194.505 541.682 203.12C541.682 211.735 548.665 218.719 557.28 218.719Z" fill="black"/>
<path d="M525.999 218.719C534.614 218.719 541.598 211.735 541.598 203.12C541.598 194.505 534.614 187.521 525.999 187.521C517.384 187.521 510.4 194.505 510.4 203.12C510.4 211.735 517.384 218.719 525.999 218.719Z" fill="black"/>
<path d="M588.478 250C597.093 250 604.076 243.017 604.076 234.402C604.076 225.787 597.093 218.803 588.478 218.803C579.863 218.803 572.879 225.787 572.879 234.402C572.879 243.017 579.863 250 588.478 250Z" fill="black"/>
<path d="M557.28 250C565.895 250 572.879 243.017 572.879 234.402C572.879 225.787 565.895 218.803 557.28 218.803C548.665 218.803 541.682 225.787 541.682 234.402C541.682 243.017 548.665 250 557.28 250Z" fill="black"/>
<path d="M525.999 250C534.614 250 541.598 243.017 541.598 234.402C541.598 225.787 534.614 218.803 525.999 218.803C517.384 218.803 510.4 225.787 510.4 234.402C510.4 243.017 517.384 250 525.999 250Z" fill="black"/>
<path d="M557.28 281.198C565.895 281.198 572.879 274.214 572.879 265.599C572.879 256.984 565.895 250 557.28 250C548.665 250 541.682 256.984 541.682 265.599C541.682 274.214 548.665 281.198 557.28 281.198Z" fill="black"/>
<path d="M525.999 281.198C534.614 281.198 541.598 274.214 541.598 265.599C541.598 256.984 534.614 250 525.999 250C517.384 250 510.4 256.984 510.4 265.599C510.4 274.214 517.384 281.198 525.999 281.198Z" fill="black"/>
<path d="M494.717 281.198C503.332 281.198 510.316 274.214 510.316 265.599C510.316 256.984 503.332 250 494.717 250C486.102 250 479.118 256.984 479.118 265.599C479.118 274.214 486.102 281.198 494.717 281.198Z" fill="black"/>
<path d="M525.999 312.479C534.614 312.479 541.598 305.495 541.598 296.88C541.598 288.265 534.614 281.281 525.999 281.281C517.384 281.281 510.4 288.265 510.4 296.88C510.4 305.495 517.384 312.479 525.999 312.479Z" fill="black"/>
<path d="M525.999 343.76C534.614 343.76 541.598 336.776 541.598 328.161C541.598 319.546 534.614 312.562 525.999 312.562C517.384 312.562 510.4 319.546 510.4 328.161C510.4 336.776 517.384 343.76 525.999 343.76Z" fill="black"/>
<path d="M525.999 374.958C534.614 374.958 541.598 367.975 541.598 359.36C541.598 350.745 534.614 343.761 525.999 343.761C517.384 343.761 510.4 350.745 510.4 359.36C510.4 367.975 517.384 374.958 525.999 374.958Z" fill="black"/>
<path d="M525.999 406.239C534.614 406.239 541.598 399.256 541.598 390.641C541.598 382.026 534.614 375.042 525.999 375.042C517.384 375.042 510.4 382.026 510.4 390.641C510.4 399.256 517.384 406.239 525.999 406.239Z" fill="black"/>
<path d="M525.999 437.521C534.614 437.521 541.598 430.537 541.598 421.922C541.598 413.307 534.614 406.323 525.999 406.323C517.384 406.323 510.4 413.307 510.4 421.922C510.4 430.537 517.384 437.521 525.999 437.521Z" fill="black"/>
<path d="M494.717 437.521C503.332 437.521 510.316 430.537 510.316 421.922C510.316 413.307 503.332 406.323 494.717 406.323C486.102 406.323 479.118 413.307 479.118 421.922C479.118 430.537 486.102 437.521 494.717 437.521Z" fill="black"/>
<path d="M525.999 468.719C534.614 468.719 541.598 461.735 541.598 453.12C541.598 444.505 534.614 437.521 525.999 437.521C517.384 437.521 510.4 444.505 510.4 453.12C510.4 461.735 517.384 468.719 525.999 468.719Z" fill="black"/>
<path d="M494.717 468.719C503.332 468.719 510.316 461.735 510.316 453.12C510.316 444.505 503.332 437.521 494.717 437.521C486.102 437.521 479.118 444.505 479.118 453.12C479.118 461.735 486.102 468.719 494.717 468.719Z" fill="black"/>
<path d="M463.52 468.719C472.135 468.719 479.118 461.735 479.118 453.12C479.118 444.505 472.135 437.521 463.52 437.521C454.905 437.521 447.921 444.505 447.921 453.12C447.921 461.735 454.905 468.719 463.52 468.719Z" fill="black"/>
<path d="M525.999 500C534.614 500 541.598 493.017 541.598 484.402C541.598 475.787 534.614 468.803 525.999 468.803C517.384 468.803 510.4 475.787 510.4 484.402C510.4 493.017 517.384 500 525.999 500Z" fill="black"/>
<path d="M494.717 500C503.332 500 510.316 493.017 510.316 484.402C510.316 475.787 503.332 468.803 494.717 468.803C486.102 468.803 479.118 475.787 479.118 484.402C479.118 493.017 486.102 500 494.717 500Z" fill="black"/>
<path d="M463.52 500C472.135 500 479.118 493.017 479.118 484.402C479.118 475.787 472.135 468.803 463.52 468.803C454.905 468.803 447.921 475.787 447.921 484.402C447.921 493.017 454.905 500 463.52 500Z" fill="black"/>
<path d="M619.759 281.198C628.374 281.198 635.358 274.214 635.358 265.599C635.358 256.984 628.374 250 619.759 250C611.144 250 604.16 256.984 604.16 265.599C604.16 274.214 611.144 281.198 619.759 281.198Z" fill="black"/>
<path d="M588.478 281.198C597.093 281.198 604.076 274.214 604.076 265.599C604.076 256.984 597.093 250 588.478 250C579.863 250 572.879 256.984 572.879 265.599C572.879 274.214 579.863 281.198 588.478 281.198Z" fill="black"/>
<path d="M651.04 312.479C659.655 312.479 666.639 305.495 666.639 296.88C666.639 288.265 659.655 281.281 651.04 281.281C642.425 281.281 635.441 288.265 635.441 296.88C635.441 305.495 642.425 312.479 651.04 312.479Z" fill="black"/>
<path d="M651.04 343.76C659.655 343.76 666.639 336.776 666.639 328.161C666.639 319.546 659.655 312.562 651.04 312.562C642.425 312.562 635.441 319.546 635.441 328.161C635.441 336.776 642.425 343.76 651.04 343.76Z" fill="black"/>
<path d="M713.52 312.479C722.135 312.479 729.118 305.495 729.118 296.88C729.118 288.265 722.135 281.281 713.52 281.281C704.905 281.281 697.921 288.265 697.921 296.88C697.921 305.495 704.905 312.479 713.52 312.479Z" fill="black"/>
<path d="M682.238 312.479C690.853 312.479 697.837 305.495 697.837 296.88C697.837 288.265 690.853 281.281 682.238 281.281C673.623 281.281 666.64 288.265 666.64 296.88C666.64 305.495 673.623 312.479 682.238 312.479Z" fill="black"/>
<path d="M713.52 343.76C722.135 343.76 729.118 336.776 729.118 328.161C729.118 319.546 722.135 312.562 713.52 312.562C704.905 312.562 697.921 319.546 697.921 328.161C697.921 336.776 704.905 343.76 713.52 343.76Z" fill="black"/>
<path d="M682.238 343.76C690.853 343.76 697.837 336.776 697.837 328.161C697.837 319.546 690.853 312.562 682.238 312.562C673.623 312.562 666.64 319.546 666.64 328.161C666.64 336.776 673.623 343.76 682.238 343.76Z" fill="black"/>
<path d="M537.824 130.241H514.258V150.704H537.824V130.241Z" fill="black"/>
<path d="M537.824 161.69H514.258V182.153H537.824V161.69Z" fill="black"/>
<path d="M537.824 192.805H514.258V213.268H537.824V192.805Z" fill="black"/>
<path d="M537.824 224.254H514.258V244.717H537.824V224.254Z" fill="black"/>
<path d="M506.709 255.283H483.144V275.746H506.709V255.283Z" fill="black"/>
<path d="M506.709 255.283H483.144V275.746H506.709V255.283Z" fill="black"/>
<path d="M537.824 255.283H514.258V275.746H537.824V255.283Z" fill="black"/>
<path d="M506.709 286.481H483.144V306.944H506.709V286.481Z" fill="black"/>
<path d="M537.824 286.481H514.258V306.944H537.824V286.481Z" fill="black"/>
<path d="M506.709 317.931H483.144V338.394H506.709V317.931Z" fill="black"/>
<path d="M537.824 317.931H514.258V338.394H537.824V317.931Z" fill="black"/>
<path d="M506.709 348.96H483.144V369.423H506.709V348.96Z" fill="black"/>
<path d="M537.824 348.96H514.258V369.423H537.824V348.96Z" fill="black"/>
<path d="M506.709 380.409H483.144V400.872H506.709V380.409Z" fill="black"/>
<path d="M475.344 380.409H451.778V400.872H475.344V380.409Z" fill="black"/>
<path d="M537.824 380.409H514.258V400.872H537.824V380.409Z" fill="black"/>
<path d="M506.709 411.523H483.144V431.986H506.709V411.523Z" fill="black"/>
<path d="M475.344 411.523H451.778V431.986H475.344V411.523Z" fill="black"/>
<path d="M537.824 411.523H514.258V431.986H537.824V411.523Z" fill="black"/>
<path d="M506.709 442.973H483.144V463.436H506.709V442.973Z" fill="black"/>
<path d="M475.344 442.973H451.778V463.436H475.344V442.973Z" fill="black"/>
<path d="M537.824 442.973H514.258V463.436H537.824V442.973Z" fill="black"/>
<path d="M506.709 474.17H483.144V494.633H506.709V474.17Z" fill="black"/>
<path d="M475.344 474.17H451.778V494.633H475.344V474.17Z" fill="black"/>
<path d="M537.824 474.17H514.258V494.633H537.824V474.17Z" fill="black"/>
<path d="M600.47 5.36719H576.904V25.8301H600.47V5.36719Z" fill="black"/>
<path d="M631.584 5.36719H608.019V25.8301H631.584V5.36719Z" fill="black"/>
<path d="M600.47 36.3975H576.904V56.8603H600.47V36.3975Z" fill="black"/>
<path d="M631.584 36.3975H608.019V56.8603H631.584V36.3975Z" fill="black"/>
<path d="M600.47 67.8467H576.904V88.3096H600.47V67.8467Z" fill="black"/>
<path d="M631.584 67.8467H608.019V88.3096H631.584V67.8467Z" fill="black"/>
<path d="M600.47 98.96H576.904V119.423H600.47V98.96Z" fill="black"/>
<path d="M569.105 98.96H545.539V119.423H569.105V98.96Z" fill="black"/>
<path d="M631.584 98.96H608.019V119.423H631.584V98.96Z" fill="black"/>
<path d="M600.47 130.409H576.904V150.872H600.47V130.409Z" fill="black"/>
<path d="M569.105 130.409H545.539V150.872H569.105V130.409Z" fill="black"/>
<path d="M631.584 130.409H608.019V150.872H631.584V130.409Z" fill="black"/>
<path d="M600.47 161.439H576.904V181.902H600.47V161.439Z" fill="black"/>
<path d="M600.47 161.439H576.904V181.902H600.47V161.439Z" fill="black"/>
<path d="M569.105 161.439H545.539V181.902H569.105V161.439Z" fill="black"/>
<path d="M600.47 192.637H576.904V213.1H600.47V192.637Z" fill="black"/>
<path d="M569.105 192.637H545.539V213.1H569.105V192.637Z" fill="black"/>
<path d="M600.47 224.086H576.904V244.549H600.47V224.086Z" fill="black"/>
<path d="M569.105 224.086H545.539V244.549H569.105V224.086Z" fill="black"/>
<path d="M600.47 255.116H576.904V275.579H600.47V255.116Z" fill="black"/>
<path d="M569.105 255.116H545.539V275.579H569.105V255.116Z" fill="black"/>
<path d="M631.584 255.116H608.019V275.579H631.584V255.116Z" fill="black"/>
<path d="M600.47 286.565H576.904V307.028H600.47V286.565Z" fill="black"/>
<path d="M569.105 286.565H545.539V307.028H569.105V286.565Z" fill="black"/>
<path d="M631.584 286.565H608.019V307.028H631.584V286.565Z" fill="black"/>
<path d="M600.47 317.679H576.904V338.142H600.47V317.679Z" fill="black"/>
<path d="M569.105 317.679H545.539V338.142H569.105V317.679Z" fill="black"/>
<path d="M631.584 317.679H608.019V338.142H631.584V317.679Z" fill="black"/>
<path d="M569.105 349.128H545.539V369.591H569.105V349.128Z" fill="black"/>
<path d="M694.231 5.78711H670.665V26.2501H694.231V5.78711Z" fill="black"/>
<path d="M662.866 5.78711H639.3V26.2501H662.866V5.78711Z" fill="black"/>
<path d="M725.344 5.78711H701.778V26.2501H725.344V5.78711Z" fill="black"/>
<path d="M694.231 36.8164H670.665V57.2794H694.231V36.8164Z" fill="black"/>
<path d="M662.866 36.8164H639.3V57.2794H662.866V36.8164Z" fill="black"/>
<path d="M725.344 36.8164H701.778V57.2794H725.344V36.8164Z" fill="black"/>
<path d="M694.231 68.2656H670.665V88.7285H694.231V68.2656Z" fill="black"/>
<path d="M662.866 68.2656H639.3V88.7285H662.866V68.2656Z" fill="black"/>
<path d="M725.344 68.2656H701.778V88.7285H725.344V68.2656Z" fill="black"/>
<path d="M694.231 99.4629H670.665V119.926H694.231V99.4629Z" fill="black"/>
<path d="M725.344 99.4629H701.778V119.926H725.344V99.4629Z" fill="black"/>
<path d="M694.231 130.912H670.665V151.375H694.231V130.912Z" fill="black"/>
<path d="M725.344 130.912H701.778V151.375H725.344V130.912Z" fill="black"/>
<path d="M725.344 161.942H701.778V182.405H725.344V161.942Z" fill="black"/>
<path d="M725.344 193.056H701.778V213.519H725.344V193.056Z" fill="black"/>
<path d="M725.344 224.505H701.778V244.968H725.344V224.505Z" fill="black"/>
<path d="M694.231 255.535H670.665V275.998H694.231V255.535Z" fill="black"/>
<path d="M662.866 255.535H639.3V275.998H662.866V255.535Z" fill="black"/>
<path d="M725.344 255.535H701.778V275.998H725.344V255.535Z" fill="black"/>
<path d="M694.231 286.984H670.665V307.447H694.231V286.984Z" fill="black"/>
<path d="M662.866 286.984H639.3V307.447H662.866V286.984Z" fill="black"/>
<path d="M725.344 286.984H701.778V307.447H725.344V286.984Z" fill="black"/>
<path d="M694.231 318.182H670.665V338.645H694.231V318.182Z" fill="black"/>
<path d="M662.866 318.182H639.3V338.645H662.866V318.182Z" fill="black"/>
<path d="M725.344 318.182H701.778V338.645H725.344V318.182Z" fill="black"/>
<path d="M819.189 380.577H795.623V401.04H819.189V380.577Z" fill="black"/>
<path d="M756.626 5.78711H733.061V26.2501H756.626V5.78711Z" fill="black"/>
<path d="M850.302 380.577H826.736V401.04H850.302V380.577Z" fill="black"/>
<path d="M819.189 411.606H795.623V432.069H819.189V411.606Z" fill="black"/>
<path d="M756.626 36.8164H733.061V57.2794H756.626V36.8164Z" fill="black"/>
<path d="M850.302 411.606H826.736V432.069H850.302V411.606Z" fill="black"/>
<path d="M819.189 443.056H795.623V463.519H819.189V443.056Z" fill="black"/>
<path d="M756.626 68.2656H733.061V88.7285H756.626V68.2656Z" fill="black"/>
<path d="M850.302 443.056H826.736V463.519H850.302V443.056Z" fill="black"/>
<path d="M819.189 474.17H795.623V494.633H819.189V474.17Z" fill="black"/>
<path d="M756.626 99.4629H733.061V119.926H756.626V99.4629Z" fill="black"/>
<path d="M850.302 474.17H826.736V494.633H850.302V474.17Z" fill="black"/>
<path d="M787.992 130.912H764.426V151.375H787.992V130.912Z" fill="black"/>
<path d="M756.626 130.912H733.061V151.375H756.626V130.912Z" fill="black"/>
<path d="M787.992 161.942H764.426V182.405H787.992V161.942Z" fill="black"/>
<path d="M787.992 161.942H764.426V182.405H787.992V161.942Z" fill="black"/>
<path d="M756.626 161.942H733.061V182.405H756.626V161.942Z" fill="black"/>
<path d="M787.992 193.056H764.426V213.519H787.992V193.056Z" fill="black"/>
<path d="M756.626 193.056H733.061V213.519H756.626V193.056Z" fill="black"/>
<path d="M787.992 224.505H764.426V244.968H787.992V224.505Z" fill="black"/>
<path d="M756.626 224.505H733.061V244.968H756.626V224.505Z" fill="black"/>
<path d="M787.992 255.535H764.426V275.998H787.992V255.535Z" fill="black"/>
<path d="M756.626 255.535H733.061V275.998H756.626V255.535Z" fill="black"/>
<path d="M819.105 255.535H795.539V275.998H819.105V255.535Z" fill="black"/>
<path d="M787.992 286.984H764.426V307.447H787.992V286.984Z" fill="black"/>
<path d="M756.626 286.984H733.061V307.447H756.626V286.984Z" fill="black"/>
<path d="M819.105 286.984H795.539V307.447H819.105V286.984Z" fill="black"/>
<path d="M787.992 318.182H764.426V338.645H787.992V318.182Z" fill="black"/>
<path d="M756.626 318.182H733.061V338.645H756.626V318.182Z" fill="black"/>
<path d="M819.105 318.182H795.539V338.645H819.105V318.182Z" fill="black"/>
<path d="M787.992 349.547H764.426V370.01H787.992V349.547Z" fill="black"/>
<path d="M756.626 349.547H733.061V370.01H756.626V349.547Z" fill="black"/>
<path d="M819.105 349.547H795.539V370.01H819.105V349.547Z" fill="black"/>
<path d="M787.992 380.745H764.426V401.208H787.992V380.745Z" fill="black"/>
<path d="M787.824 411.606H764.258V432.069H787.824V411.606Z" fill="black"/>
<path d="M787.824 443.056H764.258V463.519H787.824V443.056Z" fill="black"/>
<path d="M787.824 474.17H764.258V494.633H787.824V474.17Z" fill="black"/>
<path d="M15.5988 31.1976C24.2138 31.1976 31.1976 24.2138 31.1976 15.5988C31.1976 6.98382 24.2138 0 15.5988 0C6.98382 0 0 6.98382 0 15.5988C0 24.2138 6.98382 31.1976 15.5988 31.1976Z" fill="black"/>
<path d="M78.1613 31.1976C86.7763 31.1976 93.7601 24.2138 93.7601 15.5988C93.7601 6.98382 86.7763 0 78.1613 0C69.5463 0 62.5625 6.98382 62.5625 15.5988C62.5625 24.2138 69.5463 31.1976 78.1613 31.1976Z" fill="black"/>
<path d="M140.641 31.1976C149.256 31.1976 156.239 24.2138 156.239 15.5988C156.239 6.98382 149.256 0 140.641 0C132.026 0 125.042 6.98382 125.042 15.5988C125.042 24.2138 132.026 31.1976 140.641 31.1976Z" fill="black"/>
<path d="M15.5988 62.4788C24.2138 62.4788 31.1976 55.495 31.1976 46.88C31.1976 38.2651 24.2138 31.2812 15.5988 31.2812C6.98382 31.2812 0 38.2651 0 46.88C0 55.495 6.98382 62.4788 15.5988 62.4788Z" fill="black"/>
<path d="M78.1613 62.4788C86.7763 62.4788 93.7601 55.495 93.7601 46.88C93.7601 38.2651 86.7763 31.2812 78.1613 31.2812C69.5463 31.2812 62.5625 38.2651 62.5625 46.88C62.5625 55.495 69.5463 62.4788 78.1613 62.4788Z" fill="black"/>
<path d="M15.5988 93.6771C24.2138 93.6771 31.1976 86.6933 31.1976 78.0783C31.1976 69.4633 24.2138 62.4795 15.5988 62.4795C6.98382 62.4795 0 69.4633 0 78.0783C0 86.6933 6.98382 93.6771 15.5988 93.6771Z" fill="black"/>
<path d="M78.1613 93.6771C86.7763 93.6771 93.7601 86.6933 93.7601 78.0783C93.7601 69.4633 86.7763 62.4795 78.1613 62.4795C69.5463 62.4795 62.5625 69.4633 62.5625 78.0783C62.5625 86.6933 69.5463 93.6771 78.1613 93.6771Z" fill="black"/>
<path d="M15.5988 124.958C24.2138 124.958 31.1976 117.975 31.1976 109.36C31.1976 100.745 24.2138 93.7607 15.5988 93.7607C6.98382 93.7607 0 100.745 0 109.36C0 117.975 6.98382 124.958 15.5988 124.958Z" fill="black"/>
<path d="M78.1613 124.958C86.7763 124.958 93.7601 117.975 93.7601 109.36C93.7601 100.745 86.7763 93.7607 78.1613 93.7607C69.5463 93.7607 62.5625 100.745 62.5625 109.36C62.5625 117.975 69.5463 124.958 78.1613 124.958Z" fill="black"/>
<path d="M15.5988 156.24C24.2138 156.24 31.1976 149.256 31.1976 140.641C31.1976 132.026 24.2138 125.042 15.5988 125.042C6.98382 125.042 0 132.026 0 140.641C0 149.256 6.98382 156.24 15.5988 156.24Z" fill="black"/>
<path d="M78.1613 156.24C86.7763 156.24 93.7601 149.256 93.7601 140.641C93.7601 132.026 86.7763 125.042 78.1613 125.042C69.5463 125.042 62.5625 132.026 62.5625 140.641C62.5625 149.256 69.5463 156.24 78.1613 156.24Z" fill="black"/>
<path d="M15.5988 187.437C24.2138 187.437 31.1976 180.453 31.1976 171.838C31.1976 163.223 24.2138 156.239 15.5988 156.239C6.98382 156.239 0 163.223 0 171.838C0 180.453 6.98382 187.437 15.5988 187.437Z" fill="black"/>
<path d="M78.1613 187.437C86.7763 187.437 93.7601 180.453 93.7601 171.838C93.7601 163.223 86.7763 156.239 78.1613 156.239C69.5463 156.239 62.5625 163.223 62.5625 171.838C62.5625 180.453 69.5463 187.437 78.1613 187.437Z" fill="black"/>
<path d="M15.5988 218.718C24.2138 218.718 31.1976 211.734 31.1976 203.119C31.1976 194.504 24.2138 187.521 15.5988 187.521C6.98382 187.521 0 194.504 0 203.119C0 211.734 6.98382 218.718 15.5988 218.718Z" fill="black"/>
<path d="M78.1613 218.718C86.7763 218.718 93.7601 211.734 93.7601 203.119C93.7601 194.504 86.7763 187.521 78.1613 187.521C69.5463 187.521 62.5625 194.504 62.5625 203.119C62.5625 211.734 69.5463 218.718 78.1613 218.718Z" fill="black"/>
<path d="M15.5988 250C24.2138 250 31.1976 243.017 31.1976 234.402C31.1976 225.787 24.2138 218.803 15.5988 218.803C6.98382 218.803 0 225.787 0 234.402C0 243.017 6.98382 250 15.5988 250Z" fill="black"/>
<path d="M78.1613 250C86.7763 250 93.7601 243.017 93.7601 234.402C93.7601 225.787 86.7763 218.803 78.1613 218.803C69.5463 218.803 62.5625 225.787 62.5625 234.402C62.5625 243.017 69.5463 250 78.1613 250Z" fill="black"/>
<path d="M15.5988 281.198C24.2138 281.198 31.1976 274.214 31.1976 265.599C31.1976 256.984 24.2138 250 15.5988 250C6.98382 250 0 256.984 0 265.599C0 274.214 6.98382 281.198 15.5988 281.198Z" fill="black"/>
<path d="M78.1613 281.198C86.7763 281.198 93.7601 274.214 93.7601 265.599C93.7601 256.984 86.7763 250 78.1613 250C69.5463 250 62.5625 256.984 62.5625 265.599C62.5625 274.214 69.5463 281.198 78.1613 281.198Z" fill="black"/>
<path d="M15.5988 312.479C24.2138 312.479 31.1976 305.495 31.1976 296.88C31.1976 288.265 24.2138 281.281 15.5988 281.281C6.98382 281.281 0 288.265 0 296.88C0 305.495 6.98382 312.479 15.5988 312.479Z" fill="black"/>
<path d="M78.1613 312.479C86.7763 312.479 93.7601 305.495 93.7601 296.88C93.7601 288.265 86.7763 281.281 78.1613 281.281C69.5463 281.281 62.5625 288.265 62.5625 296.88C62.5625 305.495 69.5463 312.479 78.1613 312.479Z" fill="black"/>
<path d="M15.5988 343.76C24.2138 343.76 31.1976 336.776 31.1976 328.161C31.1976 319.546 24.2138 312.562 15.5988 312.562C6.98382 312.562 0 319.546 0 328.161C0 336.776 6.98382 343.76 15.5988 343.76Z" fill="black"/>
<path d="M78.1613 343.76C86.7763 343.76 93.7601 336.776 93.7601 328.161C93.7601 319.546 86.7763 312.562 78.1613 312.562C69.5463 312.562 62.5625 319.546 62.5625 328.161C62.5625 336.776 69.5463 343.76 78.1613 343.76Z" fill="black"/>
<path d="M15.5988 375.042C24.2138 375.042 31.1976 368.059 31.1976 359.444C31.1976 350.829 24.2138 343.845 15.5988 343.845C6.98382 343.845 0 350.829 0 359.444C0 368.059 6.98382 375.042 15.5988 375.042Z" fill="black"/>
<path d="M78.1613 375.042C86.7763 375.042 93.7601 368.059 93.7601 359.444C93.7601 350.829 86.7763 343.845 78.1613 343.845C69.5463 343.845 62.5625 350.829 62.5625 359.444C62.5625 368.059 69.5463 375.042 78.1613 375.042Z" fill="black"/>
<path d="M15.5988 406.24C24.2138 406.24 31.1976 399.256 31.1976 390.641C31.1976 382.026 24.2138 375.042 15.5988 375.042C6.98382 375.042 0 382.026 0 390.641C0 399.256 6.98382 406.24 15.5988 406.24Z" fill="black"/>
<path d="M78.1613 406.24C86.7763 406.24 93.7601 399.256 93.7601 390.641C93.7601 382.026 86.7763 375.042 78.1613 375.042C69.5463 375.042 62.5625 382.026 62.5625 390.641C62.5625 399.256 69.5463 406.24 78.1613 406.24Z" fill="black"/>
<path d="M15.5988 437.521C24.2138 437.521 31.1976 430.537 31.1976 421.922C31.1976 413.307 24.2138 406.323 15.5988 406.323C6.98382 406.323 0 413.307 0 421.922C0 430.537 6.98382 437.521 15.5988 437.521Z" fill="black"/>
<path d="M78.1613 437.521C86.7763 437.521 93.7601 430.537 93.7601 421.922C93.7601 413.307 86.7763 406.323 78.1613 406.323C69.5463 406.323 62.5625 413.307 62.5625 421.922C62.5625 430.537 69.5463 437.521 78.1613 437.521Z" fill="black"/>
<path d="M15.5988 468.802C24.2138 468.802 31.1976 461.818 31.1976 453.203C31.1976 444.588 24.2138 437.604 15.5988 437.604C6.98382 437.604 0 444.588 0 453.203C0 461.818 6.98382 468.802 15.5988 468.802Z" fill="black"/>
<path d="M78.1613 468.802C86.7763 468.802 93.7601 461.818 93.7601 453.203C93.7601 444.588 86.7763 437.604 78.1613 437.604C69.5463 437.604 62.5625 444.588 62.5625 453.203C62.5625 461.818 69.5463 468.802 78.1613 468.802Z" fill="black"/>
<path d="M15.5988 500C24.2138 500 31.1976 493.017 31.1976 484.402C31.1976 475.787 24.2138 468.803 15.5988 468.803C6.98382 468.803 0 475.787 0 484.402C0 493.017 6.98382 500 15.5988 500Z" fill="black"/>
<path d="M78.1613 500C86.7763 500 93.7601 493.017 93.7601 484.402C93.7601 475.787 86.7763 468.803 78.1613 468.803C69.5463 468.803 62.5625 475.787 62.5625 484.402C62.5625 493.017 69.5463 500 78.1613 500Z" fill="black"/>
<path d="M324.807 31.1976C333.422 31.1976 340.406 24.2138 340.406 15.5988C340.406 6.98382 333.422 0 324.807 0C316.192 0 309.208 6.98382 309.208 15.5988C309.208 24.2138 316.192 31.1976 324.807 31.1976Z" fill="black"/>
<path d="M387.286 31.1976C395.901 31.1976 402.885 24.2138 402.885 15.5988C402.885 6.98382 395.901 0 387.286 0C378.671 0 371.688 6.98382 371.688 15.5988C371.688 24.2138 378.671 31.1976 387.286 31.1976Z" fill="black"/>
<path d="M324.807 62.4788C333.422 62.4788 340.406 55.495 340.406 46.88C340.406 38.2651 333.422 31.2812 324.807 31.2812C316.192 31.2812 309.208 38.2651 309.208 46.88C309.208 55.495 316.192 62.4788 324.807 62.4788Z" fill="black"/>
<path d="M387.286 62.4788C395.901 62.4788 402.885 55.495 402.885 46.88C402.885 38.2651 395.901 31.2812 387.286 31.2812C378.671 31.2812 371.688 38.2651 371.688 46.88C371.688 55.495 378.671 62.4788 387.286 62.4788Z" fill="black"/>
<path d="M324.807 93.6771C333.422 93.6771 340.406 86.6933 340.406 78.0783C340.406 69.4633 333.422 62.4795 324.807 62.4795C316.192 62.4795 309.208 69.4633 309.208 78.0783C309.208 86.6933 316.192 93.6771 324.807 93.6771Z" fill="black"/>
<path d="M387.286 93.6771C395.901 93.6771 402.885 86.6933 402.885 78.0783C402.885 69.4633 395.901 62.4795 387.286 62.4795C378.671 62.4795 371.688 69.4633 371.688 78.0783C371.688 86.6933 378.671 93.6771 387.286 93.6771Z" fill="black"/>
<path d="M324.807 124.958C333.422 124.958 340.406 117.975 340.406 109.36C340.406 100.745 333.422 93.7607 324.807 93.7607C316.192 93.7607 309.208 100.745 309.208 109.36C309.208 117.975 316.192 124.958 324.807 124.958Z" fill="black"/>
<path d="M387.286 124.958C395.901 124.958 402.885 117.975 402.885 109.36C402.885 100.745 395.901 93.7607 387.286 93.7607C378.671 93.7607 371.688 100.745 371.688 109.36C371.688 117.975 378.671 124.958 387.286 124.958Z" fill="black"/>
<path d="M324.807 156.24C333.422 156.24 340.406 149.256 340.406 140.641C340.406 132.026 333.422 125.042 324.807 125.042C316.192 125.042 309.208 132.026 309.208 140.641C309.208 149.256 316.192 156.24 324.807 156.24Z" fill="black"/>
<path d="M387.286 156.24C395.901 156.24 402.885 149.256 402.885 140.641C402.885 132.026 395.901 125.042 387.286 125.042C378.671 125.042 371.688 132.026 371.688 140.641C371.688 149.256 378.671 156.24 387.286 156.24Z" fill="black"/>
<path d="M324.807 187.437C333.422 187.437 340.406 180.453 340.406 171.838C340.406 163.223 333.422 156.239 324.807 156.239C316.192 156.239 309.208 163.223 309.208 171.838C309.208 180.453 316.192 187.437 324.807 187.437Z" fill="black"/>
<path d="M387.286 187.437C395.901 187.437 402.885 180.453 402.885 171.838C402.885 163.223 395.901 156.239 387.286 156.239C378.671 156.239 371.688 163.223 371.688 171.838C371.688 180.453 378.671 187.437 387.286 187.437Z" fill="black"/>
<path d="M324.807 218.718C333.422 218.718 340.406 211.734 340.406 203.119C340.406 194.504 333.422 187.521 324.807 187.521C316.192 187.521 309.208 194.504 309.208 203.119C309.208 211.734 316.192 218.718 324.807 218.718Z" fill="black"/>
<path d="M387.286 218.718C395.901 218.718 402.885 211.734 402.885 203.119C402.885 194.504 395.901 187.521 387.286 187.521C378.671 187.521 371.688 194.504 371.688 203.119C371.688 211.734 378.671 218.718 387.286 218.718Z" fill="black"/>
<path d="M324.807 250C333.422 250 340.406 243.017 340.406 234.402C340.406 225.787 333.422 218.803 324.807 218.803C316.192 218.803 309.208 225.787 309.208 234.402C309.208 243.017 316.192 250 324.807 250Z" fill="black"/>
<path d="M387.286 250C395.901 250 402.885 243.017 402.885 234.402C402.885 225.787 395.901 218.803 387.286 218.803C378.671 218.803 371.688 225.787 371.688 234.402C371.688 243.017 378.671 250 387.286 250Z" fill="black"/>
<path d="M324.807 281.198C333.422 281.198 340.406 274.214 340.406 265.599C340.406 256.984 333.422 250 324.807 250C316.192 250 309.208 256.984 309.208 265.599C309.208 274.214 316.192 281.198 324.807 281.198Z" fill="black"/>
<path d="M387.286 281.198C395.901 281.198 402.885 274.214 402.885 265.599C402.885 256.984 395.901 250 387.286 250C378.671 250 371.688 256.984 371.688 265.599C371.688 274.214 378.671 281.198 387.286 281.198Z" fill="black"/>
<path d="M324.807 312.479C333.422 312.479 340.406 305.495 340.406 296.88C340.406 288.265 333.422 281.281 324.807 281.281C316.192 281.281 309.208 288.265 309.208 296.88C309.208 305.495 316.192 312.479 324.807 312.479Z" fill="black"/>
<path d="M387.286 312.479C395.901 312.479 402.885 305.495 402.885 296.88C402.885 288.265 395.901 281.281 387.286 281.281C378.671 281.281 371.688 288.265 371.688 296.88C371.688 305.495 378.671 312.479 387.286 312.479Z" fill="black"/>
<path d="M324.807 343.76C333.422 343.76 340.406 336.776 340.406 328.161C340.406 319.546 333.422 312.562 324.807 312.562C316.192 312.562 309.208 319.546 309.208 328.161C309.208 336.776 316.192 343.76 324.807 343.76Z" fill="black"/>
<path d="M387.286 343.76C395.901 343.76 402.885 336.776 402.885 328.161C402.885 319.546 395.901 312.562 387.286 312.562C378.671 312.562 371.688 319.546 371.688 328.161C371.688 336.776 378.671 343.76 387.286 343.76Z" fill="black"/>
<path d="M324.807 375.042C333.422 375.042 340.406 368.059 340.406 359.444C340.406 350.829 333.422 343.845 324.807 343.845C316.192 343.845 309.208 350.829 309.208 359.444C309.208 368.059 316.192 375.042 324.807 375.042Z" fill="black"/>
<path d="M387.286 375.042C395.901 375.042 402.885 368.059 402.885 359.444C402.885 350.829 395.901 343.845 387.286 343.845C378.671 343.845 371.688 350.829 371.688 359.444C371.688 368.059 378.671 375.042 387.286 375.042Z" fill="black"/>
<path d="M324.807 406.24C333.422 406.24 340.406 399.256 340.406 390.641C340.406 382.026 333.422 375.042 324.807 375.042C316.192 375.042 309.208 382.026 309.208 390.641C309.208 399.256 316.192 406.24 324.807 406.24Z" fill="black"/>
<path d="M387.286 406.24C395.901 406.24 402.885 399.256 402.885 390.641C402.885 382.026 395.901 375.042 387.286 375.042C378.671 375.042 371.688 382.026 371.688 390.641C371.688 399.256 378.671 406.24 387.286 406.24Z" fill="black"/>
<path d="M324.807 437.521C333.422 437.521 340.406 430.537 340.406 421.922C340.406 413.307 333.422 406.323 324.807 406.323C316.192 406.323 309.208 413.307 309.208 421.922C309.208 430.537 316.192 437.521 324.807 437.521Z" fill="black"/>
<path d="M387.286 437.521C395.901 437.521 402.885 430.537 402.885 421.922C402.885 413.307 395.901 406.323 387.286 406.323C378.671 406.323 371.688 413.307 371.688 421.922C371.688 430.537 378.671 437.521 387.286 437.521Z" fill="black"/>
<path d="M324.807 468.802C333.422 468.802 340.406 461.818 340.406 453.203C340.406 444.588 333.422 437.604 324.807 437.604C316.192 437.604 309.208 444.588 309.208 453.203C309.208 461.818 316.192 468.802 324.807 468.802Z" fill="black"/>
<path d="M387.286 468.802C395.901 468.802 402.885 461.818 402.885 453.203C402.885 444.588 395.901 437.604 387.286 437.604C378.671 437.604 371.688 444.588 371.688 453.203C371.688 461.818 378.671 468.802 387.286 468.802Z" fill="black"/>
<path d="M324.807 500C333.422 500 340.406 493.017 340.406 484.402C340.406 475.787 333.422 468.803 324.807 468.803C316.192 468.803 309.208 475.787 309.208 484.402C309.208 493.017 316.192 500 324.807 500Z" fill="black"/>
<path d="M387.286 500C395.901 500 402.885 493.017 402.885 484.402C402.885 475.787 395.901 468.803 387.286 468.803C378.671 468.803 371.688 475.787 371.688 484.402C371.688 493.017 378.671 500 387.286 500Z" fill="black"/>
<path d="M140.641 62.4788C149.256 62.4788 156.239 55.495 156.239 46.88C156.239 38.2651 149.256 31.2812 140.641 31.2812C132.026 31.2812 125.042 38.2651 125.042 46.88C125.042 55.495 132.026 62.4788 140.641 62.4788Z" fill="black"/>
<path d="M140.641 93.6771C149.256 93.6771 156.239 86.6933 156.239 78.0783C156.239 69.4633 149.256 62.4795 140.641 62.4795C132.026 62.4795 125.042 69.4633 125.042 78.0783C125.042 86.6933 132.026 93.6771 140.641 93.6771Z" fill="black"/>
<path d="M140.641 124.958C149.256 124.958 156.239 117.975 156.239 109.36C156.239 100.745 149.256 93.7607 140.641 93.7607C132.026 93.7607 125.042 100.745 125.042 109.36C125.042 117.975 132.026 124.958 140.641 124.958Z" fill="black"/>
<path d="M203.203 124.958C211.818 124.958 218.802 117.975 218.802 109.36C218.802 100.745 211.818 93.7607 203.203 93.7607C194.588 93.7607 187.604 100.745 187.604 109.36C187.604 117.975 194.588 124.958 203.203 124.958Z" fill="black"/>
<path d="M140.641 156.24C149.256 156.24 156.239 149.256 156.239 140.641C156.239 132.026 149.256 125.042 140.641 125.042C132.026 125.042 125.042 132.026 125.042 140.641C125.042 149.256 132.026 156.24 140.641 156.24Z" fill="black"/>
<path d="M203.203 156.24C211.818 156.24 218.802 149.256 218.802 140.641C218.802 132.026 211.818 125.042 203.203 125.042C194.588 125.042 187.604 132.026 187.604 140.641C187.604 149.256 194.588 156.24 203.203 156.24Z" fill="black"/>
<path d="M203.203 187.437C211.818 187.437 218.802 180.453 218.802 171.838C218.802 163.223 211.818 156.239 203.203 156.239C194.588 156.239 187.604 163.223 187.604 171.838C187.604 180.453 194.588 187.437 203.203 187.437Z" fill="black"/>
<path d="M203.203 218.718C211.818 218.718 218.802 211.734 218.802 203.119C218.802 194.504 211.818 187.521 203.203 187.521C194.588 187.521 187.604 194.504 187.604 203.119C187.604 211.734 194.588 218.718 203.203 218.718Z" fill="black"/>
<path d="M203.203 250C211.818 250 218.802 243.017 218.802 234.402C218.802 225.787 211.818 218.803 203.203 218.803C194.588 218.803 187.604 225.787 187.604 234.402C187.604 243.017 194.588 250 203.203 250Z" fill="black"/>
<path d="M203.203 281.198C211.818 281.198 218.802 274.214 218.802 265.599C218.802 256.984 211.818 250 203.203 250C194.588 250 187.604 256.984 187.604 265.599C187.604 274.214 194.588 281.198 203.203 281.198Z" fill="black"/>
<path d="M203.203 312.479C211.818 312.479 218.802 305.495 218.802 296.88C218.802 288.265 211.818 281.281 203.203 281.281C194.588 281.281 187.604 288.265 187.604 296.88C187.604 305.495 194.588 312.479 203.203 312.479Z" fill="black"/>
<path d="M261.909 312.479C270.524 312.479 277.508 305.495 277.508 296.88C277.508 288.265 270.524 281.281 261.909 281.281C253.294 281.281 246.311 288.265 246.311 296.88C246.311 305.495 253.294 312.479 261.909 312.479Z" fill="black"/>
<path d="M203.203 343.76C211.818 343.76 218.802 336.776 218.802 328.161C218.802 319.546 211.818 312.562 203.203 312.562C194.588 312.562 187.604 319.546 187.604 328.161C187.604 336.776 194.588 343.76 203.203 343.76Z" fill="black"/>
<path d="M261.909 343.76C270.524 343.76 277.508 336.776 277.508 328.161C277.508 319.546 270.524 312.562 261.909 312.562C253.294 312.562 246.311 319.546 246.311 328.161C246.311 336.776 253.294 343.76 261.909 343.76Z" fill="black"/>
<path d="M261.909 375.042C270.524 375.042 277.508 368.059 277.508 359.444C277.508 350.829 270.524 343.845 261.909 343.845C253.294 343.845 246.311 350.829 246.311 359.444C246.311 368.059 253.294 375.042 261.909 375.042Z" fill="black"/>
<path d="M261.909 406.24C270.524 406.24 277.508 399.256 277.508 390.641C277.508 382.026 270.524 375.042 261.909 375.042C253.294 375.042 246.311 382.026 246.311 390.641C246.311 399.256 253.294 406.24 261.909 406.24Z" fill="black"/>
<path d="M261.909 437.521C270.524 437.521 277.508 430.537 277.508 421.922C277.508 413.307 270.524 406.323 261.909 406.323C253.294 406.323 246.311 413.307 246.311 421.922C246.311 430.537 253.294 437.521 261.909 437.521Z" fill="black"/>
<path d="M261.909 468.802C270.524 468.802 277.508 461.818 277.508 453.203C277.508 444.588 270.524 437.604 261.909 437.604C253.294 437.604 246.311 444.588 246.311 453.203C246.311 461.818 253.294 468.802 261.909 468.802Z" fill="black"/>
<path d="M203.203 93.6771C211.818 93.6771 218.802 86.6933 218.802 78.0783C218.802 69.4633 211.818 62.4795 203.203 62.4795C194.588 62.4795 187.604 69.4633 187.604 78.0783C187.604 86.6933 194.588 93.6771 203.203 93.6771Z" fill="black"/>
</svg>
