<svg width="855" height="501" viewBox="0 0 855 501" fill="none" xmlns="http://www.w3.org/2000/svg">
<path d="M760.623 46.8802C760.623 55.5182 753.66 62.479 745.02 62.479C736.379 62.479 729.417 55.5182 729.417 46.8802C729.417 38.2422 722.37 31.1976 713.729 31.1976C705.089 31.1976 698.126 24.2368 698.126 15.5988C698.126 6.96076 705.089 0 713.729 0C722.37 0 729.417 6.96076 729.417 15.5988C729.417 24.2368 736.379 31.1976 745.02 31.1976C753.66 31.1976 760.623 38.2422 760.623 46.8802Z" fill="black"/>
<path d="M791.914 203.12C791.914 211.758 784.951 218.718 776.311 218.718C767.67 218.718 760.624 211.758 760.624 203.12C760.624 194.481 753.661 187.521 745.02 187.521C736.38 187.521 729.417 180.476 729.417 171.838C729.417 163.2 722.37 156.239 713.73 156.239C705.089 156.239 698.126 149.279 698.126 140.64C698.126 132.002 691.163 124.958 682.523 124.958C673.882 124.958 666.835 117.997 666.835 109.359C666.835 100.721 673.882 93.7603 682.523 93.7603C691.163 93.7603 698.126 100.721 698.126 109.359C698.126 117.997 705.089 124.958 713.73 124.958C722.37 124.958 729.417 132.002 729.417 140.64C729.417 149.279 736.38 156.239 745.02 156.239C753.661 156.239 760.624 163.2 760.624 171.838C760.624 180.476 767.67 187.521 776.311 187.521C784.951 187.521 791.914 194.481 791.914 203.12Z" fill="black"/>
<path d="M760.623 234.401C760.623 243.039 753.66 250 745.02 250C736.379 250 729.417 243.039 729.417 234.401C729.417 225.763 722.37 218.719 713.729 218.719C705.089 218.719 698.126 211.758 698.126 203.12C698.126 194.482 705.089 187.521 713.729 187.521C722.37 187.521 729.417 194.482 729.417 203.12C729.417 211.758 736.379 218.719 745.02 218.719C753.66 218.719 760.623 225.763 760.623 234.401Z" fill="black"/>
<path d="M823.205 296.88C823.205 305.518 816.158 312.479 807.518 312.479C798.877 312.479 791.914 305.518 791.914 296.88C791.914 288.242 784.951 281.281 776.311 281.281C767.67 281.281 760.624 274.237 760.624 265.599C760.624 256.961 767.67 250 776.311 250C784.951 250 791.914 257.045 791.914 265.599C791.914 274.153 798.961 281.281 807.518 281.281C816.074 281.281 823.205 288.242 823.205 296.88Z" fill="black"/>
<path d="M854.412 453.204C854.412 461.758 847.449 468.802 838.808 468.802C830.168 468.802 823.205 461.758 823.205 453.204C823.205 444.65 816.158 437.521 807.518 437.521C798.877 437.521 791.914 430.56 791.914 421.922C791.914 413.284 784.951 406.323 776.311 406.323C767.67 406.323 760.624 399.279 760.624 390.641C760.624 382.003 767.67 375.042 776.311 375.042C784.951 375.042 791.914 382.003 791.914 390.641C791.914 399.279 798.961 406.323 807.518 406.323C816.074 406.323 823.205 413.284 823.205 421.922C823.205 430.56 830.168 437.521 838.808 437.521C847.449 437.521 854.412 444.566 854.412 453.204Z" fill="black"/>
<path d="M823.205 484.401C823.205 493.039 816.158 500.084 807.518 500.084C798.877 500.084 791.914 493.039 791.914 484.401C791.914 475.763 784.951 468.802 776.311 468.802C767.67 468.802 760.624 461.758 760.624 453.204C760.624 444.65 767.67 437.521 776.311 437.521C784.951 437.521 791.914 444.566 791.914 453.204C791.914 461.842 798.961 468.802 807.518 468.802C816.074 468.802 823.205 475.763 823.205 484.401Z" fill="black"/>
<path d="M666.835 78.0778C666.835 86.7158 659.873 93.7605 651.232 93.7605C642.591 93.7605 635.629 86.7158 635.629 78.0778C635.629 69.4398 628.582 62.479 619.941 62.479C611.301 62.479 604.338 55.5182 604.338 46.8802C604.338 38.2422 597.375 31.1976 588.735 31.1976C580.094 31.1976 573.047 24.2368 573.047 15.5988C573.047 6.96076 580.094 0 588.735 0C597.375 0 604.338 6.96076 604.338 15.5988C604.338 24.2368 611.301 31.1976 619.941 31.1976C628.582 31.1976 635.629 38.2422 635.629 46.8802C635.629 55.5182 642.591 62.479 651.232 62.479C659.873 62.479 666.835 69.4398 666.835 78.0778Z" fill="black"/>
<path d="M635.629 109.359C635.629 117.997 628.582 124.958 619.941 124.958C611.301 124.958 604.338 117.997 604.338 109.359C604.338 100.721 597.375 93.7605 588.735 93.7605C580.094 93.7605 573.047 86.7158 573.047 78.0778C573.047 69.4398 580.094 62.479 588.735 62.479C597.375 62.479 604.338 69.4398 604.338 78.0778C604.338 86.7158 611.301 93.7605 619.941 93.7605C628.582 93.7605 635.629 100.721 635.629 109.359Z" fill="black"/>
<path d="M760.623 109.359C760.623 117.997 753.66 124.958 745.02 124.958C736.379 124.958 729.417 117.997 729.417 109.359C729.417 100.721 722.37 93.7605 713.729 93.7605C705.089 93.7605 698.126 86.7158 698.126 78.0778C698.126 69.4398 691.163 62.479 682.523 62.479C673.882 62.479 666.835 55.5182 666.835 46.8802C666.835 38.2422 659.872 31.1976 651.232 31.1976C642.591 31.1976 635.628 24.2368 635.628 15.5988C635.628 6.96076 642.591 0 651.232 0C659.872 0 666.835 6.96076 666.835 15.5988C666.835 24.2368 673.882 31.1976 682.523 31.1976C691.163 31.1976 698.126 38.2422 698.126 46.8802C698.126 55.5182 705.089 62.479 713.729 62.479C722.37 62.479 729.417 69.4398 729.417 78.0778C729.417 86.7158 736.379 93.7605 745.02 93.7605C753.66 93.7605 760.623 100.721 760.623 109.359Z" fill="black"/>
<path d="M604.338 140.64C604.338 149.279 597.375 156.239 588.734 156.239C580.094 156.239 573.047 149.279 573.047 140.64C573.047 132.002 566.084 124.958 557.444 124.958C548.803 124.958 541.84 117.997 541.84 109.359C541.84 100.721 548.803 93.7603 557.444 93.7603C566.084 93.7603 573.047 100.721 573.047 109.359C573.047 117.997 580.094 124.958 588.734 124.958C597.375 124.958 604.338 132.002 604.338 140.64Z" fill="black"/>
<path d="M604.338 203.12C604.338 211.758 597.375 218.718 588.734 218.718C580.094 218.718 573.047 211.758 573.047 203.12C573.047 194.482 566.084 187.521 557.444 187.521C548.803 187.521 541.84 180.476 541.84 171.838C541.84 163.2 534.794 156.239 526.153 156.239C517.513 156.239 510.55 149.279 510.55 140.641C510.55 132.003 517.513 124.958 526.153 124.958C534.794 124.958 541.84 132.003 541.84 140.641C541.84 149.279 548.803 156.239 557.444 156.239C566.084 156.239 573.047 163.2 573.047 171.838C573.047 180.476 580.094 187.521 588.734 187.521C597.375 187.521 604.338 194.482 604.338 203.12Z" fill="black"/>
<path d="M666.835 328.162C666.835 336.8 659.872 343.76 651.232 343.76C642.591 343.76 635.629 336.8 635.629 328.162C635.629 319.524 628.582 312.479 619.941 312.479C611.301 312.479 604.338 305.518 604.338 296.88C604.338 288.242 597.375 281.281 588.734 281.281C580.094 281.281 573.047 274.237 573.047 265.599C573.047 256.961 566.084 250 557.444 250C548.803 250 541.84 243.039 541.84 234.401C541.84 225.763 534.794 218.719 526.153 218.719C517.513 218.719 510.55 211.758 510.55 203.12C510.55 194.482 517.513 187.521 526.153 187.521C534.794 187.521 541.84 194.482 541.84 203.12C541.84 211.758 548.803 218.719 557.444 218.719C566.084 218.719 573.047 225.763 573.047 234.401C573.047 243.039 580.094 250 588.734 250C597.375 250 604.338 257.045 604.338 265.599C604.338 274.153 611.301 281.281 619.941 281.281C628.582 281.281 635.629 288.242 635.629 296.88C635.629 305.518 642.591 312.479 651.232 312.479C659.872 312.479 666.835 319.524 666.835 328.162Z" fill="black"/>
<path d="M604.338 328.162C604.338 336.8 597.375 343.76 588.734 343.76C580.094 343.76 573.047 336.8 573.047 328.162C573.047 319.524 566.084 312.479 557.444 312.479C548.803 312.479 541.84 305.518 541.84 296.88C541.84 288.242 534.794 281.281 526.153 281.281C517.513 281.281 510.55 274.237 510.55 265.599C510.55 256.961 517.513 250 526.153 250C534.794 250 541.84 257.045 541.84 265.599C541.84 274.153 548.803 281.281 557.444 281.281C566.084 281.281 573.047 288.242 573.047 296.88C573.047 305.518 580.094 312.479 588.734 312.479C597.375 312.479 604.338 319.524 604.338 328.162Z" fill="black"/>
<path d="M573.047 359.359C573.047 367.997 566.085 375.042 557.444 375.042C548.803 375.042 541.841 367.997 541.841 359.359C541.841 350.721 534.794 343.76 526.153 343.76C517.513 343.76 510.55 336.799 510.55 328.161C510.55 319.523 503.587 312.479 494.947 312.479C486.306 312.479 479.259 305.518 479.259 296.88C479.259 288.242 486.306 281.281 494.947 281.281C503.587 281.281 510.55 288.242 510.55 296.88C510.55 305.518 517.513 312.479 526.153 312.479C534.794 312.479 541.841 319.523 541.841 328.161C541.841 336.799 548.803 343.76 557.444 343.76C566.085 343.76 573.047 350.805 573.047 359.359Z" fill="black"/>
<path d="M541.841 390.641C541.841 399.279 534.794 406.323 526.153 406.323C517.513 406.323 510.55 399.279 510.55 390.641C510.55 382.002 503.587 375.042 494.947 375.042C486.306 375.042 479.259 367.997 479.259 359.359C479.259 350.721 486.306 343.76 494.947 343.76C503.587 343.76 510.55 350.805 510.55 359.359C510.55 367.913 517.513 375.042 526.153 375.042C534.794 375.042 541.841 382.002 541.841 390.641Z" fill="black"/>
<path d="M541.84 453.204C541.84 461.758 534.794 468.802 526.153 468.802C517.513 468.802 510.55 461.758 510.55 453.204C510.55 444.65 503.587 437.521 494.946 437.521C486.306 437.521 479.259 430.56 479.259 421.922C479.259 413.284 472.296 406.323 463.656 406.323C455.015 406.323 448.052 399.279 448.052 390.641C448.052 382.003 455.015 375.042 463.656 375.042C472.296 375.042 479.259 382.003 479.259 390.641C479.259 399.279 486.306 406.323 494.946 406.323C503.587 406.323 510.55 413.284 510.55 421.922C510.55 430.56 517.513 437.521 526.153 437.521C534.794 437.521 541.84 444.566 541.84 453.204Z" fill="black"/>
<path d="M510.55 484.401C510.55 493.039 503.587 500.084 494.946 500.084C486.306 500.084 479.259 493.039 479.259 484.401C479.259 475.763 472.296 468.802 463.656 468.802C455.015 468.802 448.052 461.758 448.052 453.204C448.052 444.65 455.015 437.521 463.656 437.521C472.296 437.521 479.259 444.566 479.259 453.204C479.259 461.842 486.306 468.802 494.946 468.802C503.587 468.802 510.55 475.763 510.55 484.401Z" fill="black"/>
<path d="M729.417 328.162C729.417 336.8 722.37 343.76 713.729 343.76C705.089 343.76 698.126 336.8 698.126 328.162C698.126 319.524 691.163 312.479 682.523 312.479C673.882 312.479 666.835 305.518 666.835 296.88C666.835 288.242 659.872 281.281 651.232 281.281C642.591 281.281 635.628 274.237 635.628 265.599C635.628 256.961 642.591 250 651.232 250C659.872 250 666.835 257.045 666.835 265.599C666.835 274.153 673.882 281.281 682.523 281.281C691.163 281.281 698.126 288.242 698.126 296.88C698.126 305.518 705.089 312.479 713.729 312.479C722.37 312.479 729.417 319.524 729.417 328.162Z" fill="black"/>
<path d="M791.914 328.162C791.914 336.8 784.951 343.76 776.311 343.76C767.67 343.76 760.623 336.8 760.623 328.162C760.623 319.524 753.66 312.479 745.02 312.479C736.379 312.479 729.417 305.518 729.417 296.88C729.417 288.242 722.37 281.281 713.729 281.281C705.089 281.281 698.126 274.237 698.126 265.599C698.126 256.961 705.089 250 713.729 250C722.37 250 729.417 257.045 729.417 265.599C729.417 274.153 736.379 281.281 745.02 281.281C753.66 281.281 760.623 288.242 760.623 296.88C760.623 305.518 767.67 312.479 776.311 312.479C784.951 312.479 791.914 319.524 791.914 328.162Z" fill="black"/>
<path d="M854.495 390.641C854.495 399.279 847.449 406.323 838.808 406.323C830.168 406.323 823.205 399.279 823.205 390.641C823.205 382.002 816.242 375.042 807.601 375.042C798.961 375.042 791.914 367.997 791.914 359.443C791.914 350.889 798.961 343.76 807.601 343.76C816.242 343.76 823.205 350.805 823.205 359.443C823.205 368.081 830.251 375.042 838.808 375.042C847.365 375.042 854.495 382.002 854.495 390.641Z" fill="black"/>
<path d="M15.6034 31.1976C24.2209 31.1976 31.2068 24.2138 31.2068 15.5988C31.2068 6.98382 24.2209 0 15.6034 0C6.98586 0 0 6.98382 0 15.5988C0 24.2138 6.98586 31.1976 15.6034 31.1976Z" fill="black"/>
<path d="M46.8942 31.1976C55.5117 31.1976 62.4975 24.2138 62.4975 15.5988C62.4975 6.98382 55.5117 0 46.8942 0C38.2767 0 31.2908 6.98382 31.2908 15.5988C31.2908 24.2138 38.2767 31.1976 46.8942 31.1976Z" fill="black"/>
<path d="M78.1847 31.1976C86.8022 31.1976 93.7881 24.2138 93.7881 15.5988C93.7881 6.98382 86.8022 0 78.1847 0C69.5672 0 62.5813 6.98382 62.5813 15.5988C62.5813 24.2138 69.5672 31.1976 78.1847 31.1976Z" fill="black"/>
<path d="M109.391 31.1976C118.009 31.1976 124.995 24.2138 124.995 15.5988C124.995 6.98382 118.009 0 109.391 0C100.774 0 93.7881 6.98382 93.7881 15.5988C93.7881 24.2138 100.774 31.1976 109.391 31.1976Z" fill="black"/>
<path d="M15.6034 62.4788C24.2209 62.4788 31.2068 55.495 31.2068 46.88C31.2068 38.2651 24.2209 31.2812 15.6034 31.2812C6.98586 31.2812 0 38.2651 0 46.88C0 55.495 6.98586 62.4788 15.6034 62.4788Z" fill="black"/>
<path d="M46.8942 62.4788C55.5117 62.4788 62.4975 55.495 62.4975 46.88C62.4975 38.2651 55.5117 31.2812 46.8942 31.2812C38.2767 31.2812 31.2908 38.2651 31.2908 46.88C31.2908 55.495 38.2767 62.4788 46.8942 62.4788Z" fill="black"/>
<path d="M78.1847 62.4788C86.8022 62.4788 93.7881 55.495 93.7881 46.88C93.7881 38.2651 86.8022 31.2812 78.1847 31.2812C69.5672 31.2812 62.5813 38.2651 62.5813 46.88C62.5813 55.495 69.5672 62.4788 78.1847 62.4788Z" fill="black"/>
<path d="M15.6034 93.7606C24.2209 93.7606 31.2068 86.7767 31.2068 78.1618C31.2068 69.5468 24.2209 62.563 15.6034 62.563C6.98586 62.563 0 69.5468 0 78.1618C0 86.7767 6.98586 93.7606 15.6034 93.7606Z" fill="black"/>
<path d="M46.8942 93.7606C55.5117 93.7606 62.4975 86.7767 62.4975 78.1618C62.4975 69.5468 55.5117 62.563 46.8942 62.563C38.2767 62.563 31.2908 69.5468 31.2908 78.1618C31.2908 86.7767 38.2767 93.7606 46.8942 93.7606Z" fill="black"/>
<path d="M78.1847 93.7606C86.8022 93.7606 93.7881 86.7767 93.7881 78.1618C93.7881 69.5468 86.8022 62.563 78.1847 62.563C69.5672 62.563 62.5813 69.5468 62.5813 78.1618C62.5813 86.7767 69.5672 93.7606 78.1847 93.7606Z" fill="black"/>
<path d="M46.8942 124.958C55.5117 124.958 62.4975 117.974 62.4975 109.359C62.4975 100.744 55.5117 93.7603 46.8942 93.7603C38.2767 93.7603 31.2908 100.744 31.2908 109.359C31.2908 117.974 38.2767 124.958 46.8942 124.958Z" fill="black"/>
<path d="M78.1847 124.958C86.8022 124.958 93.7881 117.974 93.7881 109.359C93.7881 100.744 86.8022 93.7603 78.1847 93.7603C69.5672 93.7603 62.5813 100.744 62.5813 109.359C62.5813 117.974 69.5672 124.958 78.1847 124.958Z" fill="black"/>
<path d="M46.8942 156.24C55.5117 156.24 62.4975 149.256 62.4975 140.641C62.4975 132.026 55.5117 125.042 46.8942 125.042C38.2767 125.042 31.2908 132.026 31.2908 140.641C31.2908 149.256 38.2767 156.24 46.8942 156.24Z" fill="black"/>
<path d="M78.1847 156.24C86.8022 156.24 93.7881 149.256 93.7881 140.641C93.7881 132.026 86.8022 125.042 78.1847 125.042C69.5672 125.042 62.5813 132.026 62.5813 140.641C62.5813 149.256 69.5672 156.24 78.1847 156.24Z" fill="black"/>
<path d="M46.8942 187.521C55.5117 187.521 62.4975 180.537 62.4975 171.922C62.4975 163.307 55.5117 156.323 46.8942 156.323C38.2767 156.323 31.2908 163.307 31.2908 171.922C31.2908 180.537 38.2767 187.521 46.8942 187.521Z" fill="black"/>
<path d="M78.1847 187.521C86.8022 187.521 93.7881 180.537 93.7881 171.922C93.7881 163.307 86.8022 156.323 78.1847 156.323C69.5672 156.323 62.5813 163.307 62.5813 171.922C62.5813 180.537 69.5672 187.521 78.1847 187.521Z" fill="black"/>
<path d="M46.8942 218.719C55.5117 218.719 62.4975 211.735 62.4975 203.12C62.4975 194.505 55.5117 187.521 46.8942 187.521C38.2767 187.521 31.2908 194.505 31.2908 203.12C31.2908 211.735 38.2767 218.719 46.8942 218.719Z" fill="black"/>
<path d="M78.1847 218.719C86.8022 218.719 93.7881 211.735 93.7881 203.12C93.7881 194.505 86.8022 187.521 78.1847 187.521C69.5672 187.521 62.5813 194.505 62.5813 203.12C62.5813 211.735 69.5672 218.719 78.1847 218.719Z" fill="black"/>
<path d="M15.6034 250C24.2209 250 31.2068 243.016 31.2068 234.401C31.2068 225.786 24.2209 218.802 15.6034 218.802C6.98586 218.802 0 225.786 0 234.401C0 243.016 6.98586 250 15.6034 250Z" fill="black"/>
<path d="M15.6034 281.282C24.2209 281.282 31.2068 274.298 31.2068 265.683C31.2068 257.068 24.2209 250.084 15.6034 250.084C6.98586 250.084 0 257.068 0 265.683C0 274.298 6.98586 281.282 15.6034 281.282Z" fill="black"/>
<path d="M15.6034 312.479C24.2209 312.479 31.2068 305.495 31.2068 296.88C31.2068 288.265 24.2209 281.281 15.6034 281.281C6.98586 281.281 0 288.265 0 296.88C0 305.495 6.98586 312.479 15.6034 312.479Z" fill="black"/>
<path d="M15.6034 343.761C24.2209 343.761 31.2068 336.777 31.2068 328.162C31.2068 319.547 24.2209 312.563 15.6034 312.563C6.98586 312.563 0 319.547 0 328.162C0 336.777 6.98586 343.761 15.6034 343.761Z" fill="black"/>
<path d="M15.6034 406.324C24.2209 406.324 31.2068 399.34 31.2068 390.725C31.2068 382.11 24.2209 375.126 15.6034 375.126C6.98586 375.126 0 382.11 0 390.725C0 399.34 6.98586 406.324 15.6034 406.324Z" fill="black"/>
<path d="M15.6034 437.521C24.2209 437.521 31.2068 430.537 31.2068 421.922C31.2068 413.307 24.2209 406.323 15.6034 406.323C6.98586 406.323 0 413.307 0 421.922C0 430.537 6.98586 437.521 15.6034 437.521Z" fill="black"/>
<path d="M46.8942 437.521C55.5117 437.521 62.4975 430.537 62.4975 421.922C62.4975 413.307 55.5117 406.323 46.8942 406.323C38.2767 406.323 31.2908 413.307 31.2908 421.922C31.2908 430.537 38.2767 437.521 46.8942 437.521Z" fill="black"/>
<path d="M15.6034 468.803C24.2209 468.803 31.2068 461.819 31.2068 453.204C31.2068 444.589 24.2209 437.605 15.6034 437.605C6.98586 437.605 0 444.589 0 453.204C0 461.819 6.98586 468.803 15.6034 468.803Z" fill="black"/>
<path d="M46.8942 468.803C55.5117 468.803 62.4975 461.819 62.4975 453.204C62.4975 444.589 55.5117 437.605 46.8942 437.605C38.2767 437.605 31.2908 444.589 31.2908 453.204C31.2908 461.819 38.2767 468.803 46.8942 468.803Z" fill="black"/>
<path d="M78.1847 468.803C86.8022 468.803 93.7881 461.819 93.7881 453.204C93.7881 444.589 86.8022 437.605 78.1847 437.605C69.5672 437.605 62.5813 444.589 62.5813 453.204C62.5813 461.819 69.5672 468.803 78.1847 468.803Z" fill="black"/>
<path d="M15.6034 500.084C24.2209 500.084 31.2068 493.1 31.2068 484.485C31.2068 475.87 24.2209 468.886 15.6034 468.886C6.98586 468.886 0 475.87 0 484.485C0 493.1 6.98586 500.084 15.6034 500.084Z" fill="black"/>
<path d="M46.8942 500.084C55.5117 500.084 62.4975 493.1 62.4975 484.485C62.4975 475.87 55.5117 468.886 46.8942 468.886C38.2767 468.886 31.2908 475.87 31.2908 484.485C31.2908 493.1 38.2767 500.084 46.8942 500.084Z" fill="black"/>
<path d="M78.1847 500.084C86.8022 500.084 93.7881 493.1 93.7881 484.485C93.7881 475.87 86.8022 468.886 78.1847 468.886C69.5672 468.886 62.5813 475.87 62.5813 484.485C62.5813 493.1 69.5672 500.084 78.1847 500.084Z" fill="black"/>
<path d="M328.258 31.1976C336.876 31.1976 343.862 24.2138 343.862 15.5988C343.862 6.98382 336.876 0 328.258 0C319.641 0 312.655 6.98382 312.655 15.5988C312.655 24.2138 319.641 31.1976 328.258 31.1976Z" fill="black"/>
<path d="M359.549 31.1976C368.167 31.1976 375.153 24.2138 375.153 15.5988C375.153 6.98382 368.167 0 359.549 0C350.932 0 343.946 6.98382 343.946 15.5988C343.946 24.2138 350.932 31.1976 359.549 31.1976Z" fill="black"/>
<path d="M390.756 31.1976C399.373 31.1976 406.359 24.2138 406.359 15.5988C406.359 6.98382 399.373 0 390.756 0C382.138 0 375.152 6.98382 375.152 15.5988C375.152 24.2138 382.138 31.1976 390.756 31.1976Z" fill="black"/>
<path d="M359.549 62.4788C368.167 62.4788 375.153 55.495 375.153 46.88C375.153 38.2651 368.167 31.2812 359.549 31.2812C350.932 31.2812 343.946 38.2651 343.946 46.88C343.946 55.495 350.932 62.4788 359.549 62.4788Z" fill="black"/>
<path d="M390.756 62.4788C399.373 62.4788 406.359 55.495 406.359 46.88C406.359 38.2651 399.373 31.2812 390.756 31.2812C382.138 31.2812 375.152 38.2651 375.152 46.88C375.152 55.495 382.138 62.4788 390.756 62.4788Z" fill="black"/>
<path d="M390.756 93.7606C399.373 93.7606 406.359 86.7767 406.359 78.1618C406.359 69.5468 399.373 62.563 390.756 62.563C382.138 62.563 375.152 69.5468 375.152 78.1618C375.152 86.7767 382.138 93.7606 390.756 93.7606Z" fill="black"/>
<path d="M359.549 156.24C368.167 156.24 375.153 149.256 375.153 140.641C375.153 132.026 368.167 125.042 359.549 125.042C350.932 125.042 343.946 132.026 343.946 140.641C343.946 149.256 350.932 156.24 359.549 156.24Z" fill="black"/>
<path d="M328.258 187.521C336.876 187.521 343.862 180.537 343.862 171.922C343.862 163.307 336.876 156.323 328.258 156.323C319.641 156.323 312.655 163.307 312.655 171.922C312.655 180.537 319.641 187.521 328.258 187.521Z" fill="black"/>
<path d="M359.549 187.521C368.167 187.521 375.153 180.537 375.153 171.922C375.153 163.307 368.167 156.323 359.549 156.323C350.932 156.323 343.946 163.307 343.946 171.922C343.946 180.537 350.932 187.521 359.549 187.521Z" fill="black"/>
<path d="M359.549 218.719C368.167 218.719 375.153 211.735 375.153 203.12C375.153 194.505 368.167 187.521 359.549 187.521C350.932 187.521 343.946 194.505 343.946 203.12C343.946 211.735 350.932 218.719 359.549 218.719Z" fill="black"/>
<path d="M359.549 250C368.167 250 375.153 243.016 375.153 234.401C375.153 225.786 368.167 218.802 359.549 218.802C350.932 218.802 343.946 225.786 343.946 234.401C343.946 243.016 350.932 250 359.549 250Z" fill="black"/>
<path d="M390.756 250C399.373 250 406.359 243.016 406.359 234.401C406.359 225.786 399.373 218.802 390.756 218.802C382.138 218.802 375.152 225.786 375.152 234.401C375.152 243.016 382.138 250 390.756 250Z" fill="black"/>
<path d="M390.756 343.761C399.373 343.761 406.359 336.777 406.359 328.162C406.359 319.547 399.373 312.563 390.756 312.563C382.138 312.563 375.152 319.547 375.152 328.162C375.152 336.777 382.138 343.761 390.756 343.761Z" fill="black"/>
<path d="M390.756 375.042C399.373 375.042 406.359 368.058 406.359 359.443C406.359 350.828 399.373 343.844 390.756 343.844C382.138 343.844 375.152 350.828 375.152 359.443C375.152 368.058 382.138 375.042 390.756 375.042Z" fill="black"/>
<path d="M390.756 406.324C399.373 406.324 406.359 399.34 406.359 390.725C406.359 382.11 399.373 375.126 390.756 375.126C382.138 375.126 375.152 382.11 375.152 390.725C375.152 399.34 382.138 406.324 390.756 406.324Z" fill="black"/>
<path d="M359.549 437.521C368.167 437.521 375.153 430.537 375.153 421.922C375.153 413.307 368.167 406.323 359.549 406.323C350.932 406.323 343.946 413.307 343.946 421.922C343.946 430.537 350.932 437.521 359.549 437.521Z" fill="black"/>
<path d="M390.756 437.521C399.373 437.521 406.359 430.537 406.359 421.922C406.359 413.307 399.373 406.323 390.756 406.323C382.138 406.323 375.152 413.307 375.152 421.922C375.152 430.537 382.138 437.521 390.756 437.521Z" fill="black"/>
<path d="M328.258 468.803C336.876 468.803 343.862 461.819 343.862 453.204C343.862 444.589 336.876 437.605 328.258 437.605C319.641 437.605 312.655 444.589 312.655 453.204C312.655 461.819 319.641 468.803 328.258 468.803Z" fill="black"/>
<path d="M359.549 468.803C368.167 468.803 375.153 461.819 375.153 453.204C375.153 444.589 368.167 437.605 359.549 437.605C350.932 437.605 343.946 444.589 343.946 453.204C343.946 461.819 350.932 468.803 359.549 468.803Z" fill="black"/>
<path d="M390.756 468.803C399.373 468.803 406.359 461.819 406.359 453.204C406.359 444.589 399.373 437.605 390.756 437.605C382.138 437.605 375.152 444.589 375.152 453.204C375.152 461.819 382.138 468.803 390.756 468.803Z" fill="black"/>
<path d="M328.258 500.084C336.876 500.084 343.862 493.1 343.862 484.485C343.862 475.87 336.876 468.886 328.258 468.886C319.641 468.886 312.655 475.87 312.655 484.485C312.655 493.1 319.641 500.084 328.258 500.084Z" fill="black"/>
<path d="M359.549 500.084C368.167 500.084 375.153 493.1 375.153 484.485C375.153 475.87 368.167 468.886 359.549 468.886C350.932 468.886 343.946 475.87 343.946 484.485C343.946 493.1 350.932 500.084 359.549 500.084Z" fill="black"/>
<path d="M390.756 500.084C399.373 500.084 406.359 493.1 406.359 484.485C406.359 475.87 399.373 468.886 390.756 468.886C382.138 468.886 375.152 475.87 375.152 484.485C375.152 493.1 382.138 500.084 390.756 500.084Z" fill="black"/>
<path d="M109.391 62.4788C118.009 62.4788 124.995 55.495 124.995 46.88C124.995 38.2651 118.009 31.2812 109.391 31.2812C100.774 31.2812 93.7881 38.2651 93.7881 46.88C93.7881 55.495 100.774 62.4788 109.391 62.4788Z" fill="black"/>
<path d="M171.973 93.7606C180.59 93.7606 187.576 86.7767 187.576 78.1618C187.576 69.5468 180.59 62.563 171.973 62.563C163.355 62.563 156.369 69.5468 156.369 78.1618C156.369 86.7767 163.355 93.7606 171.973 93.7606Z" fill="black"/>
<path d="M171.973 124.958C180.59 124.958 187.576 117.974 187.576 109.359C187.576 100.744 180.59 93.7603 171.973 93.7603C163.355 93.7603 156.369 100.744 156.369 109.359C156.369 117.974 163.355 124.958 171.973 124.958Z" fill="black"/>
<path d="M203.18 124.958C211.797 124.958 218.783 117.974 218.783 109.359C218.783 100.744 211.797 93.7603 203.18 93.7603C194.562 93.7603 187.576 100.744 187.576 109.359C187.576 117.974 194.562 124.958 203.18 124.958Z" fill="black"/>
<path d="M140.682 156.24C149.3 156.24 156.286 149.256 156.286 140.641C156.286 132.026 149.3 125.042 140.682 125.042C132.065 125.042 125.079 132.026 125.079 140.641C125.079 149.256 132.065 156.24 140.682 156.24Z" fill="black"/>
<path d="M171.973 156.24C180.59 156.24 187.576 149.256 187.576 140.641C187.576 132.026 180.59 125.042 171.973 125.042C163.355 125.042 156.369 132.026 156.369 140.641C156.369 149.256 163.355 156.24 171.973 156.24Z" fill="black"/>
<path d="M171.973 187.521C180.59 187.521 187.576 180.537 187.576 171.922C187.576 163.307 180.59 156.323 171.973 156.323C163.355 156.323 156.369 163.307 156.369 171.922C156.369 180.537 163.355 187.521 171.973 187.521Z" fill="black"/>
<path d="M171.973 218.719C180.59 218.719 187.576 211.735 187.576 203.12C187.576 194.505 180.59 187.521 171.973 187.521C163.355 187.521 156.369 194.505 156.369 203.12C156.369 211.735 163.355 218.719 171.973 218.719Z" fill="black"/>
<path d="M171.973 250C180.59 250 187.576 243.016 187.576 234.401C187.576 225.786 180.59 218.802 171.973 218.802C163.355 218.802 156.369 225.786 156.369 234.401C156.369 243.016 163.355 250 171.973 250Z" fill="black"/>
<path d="M203.18 312.479C211.797 312.479 218.783 305.495 218.783 296.88C218.783 288.265 211.797 281.281 203.18 281.281C194.562 281.281 187.576 288.265 187.576 296.88C187.576 305.495 194.562 312.479 203.18 312.479Z" fill="black"/>
<path d="M234.47 311.808C243.088 311.808 250.074 304.824 250.074 296.209C250.074 287.594 243.088 280.61 234.47 280.61C225.853 280.61 218.867 287.594 218.867 296.209C218.867 304.824 225.853 311.808 234.47 311.808Z" fill="black"/>
<path d="M265.761 311.808C274.378 311.808 281.364 304.824 281.364 296.209C281.364 287.594 274.378 280.61 265.761 280.61C257.143 280.61 250.157 287.594 250.157 296.209C250.157 304.824 257.143 311.808 265.761 311.808Z" fill="black"/>
<path d="M234.47 343.09C243.088 343.09 250.074 336.106 250.074 327.491C250.074 318.876 243.088 311.892 234.47 311.892C225.853 311.892 218.867 318.876 218.867 327.491C218.867 336.106 225.853 343.09 234.47 343.09Z" fill="black"/>
<path d="M265.761 343.09C274.378 343.09 281.364 336.106 281.364 327.491C281.364 318.876 274.378 311.892 265.761 311.892C257.143 311.892 250.157 318.876 250.157 327.491C250.157 336.106 257.143 343.09 265.761 343.09Z" fill="black"/>
<path d="M265.761 374.287C274.378 374.287 281.364 367.303 281.364 358.688C281.364 350.073 274.378 343.089 265.761 343.089C257.143 343.089 250.157 350.073 250.157 358.688C250.157 367.303 257.143 374.287 265.761 374.287Z" fill="black"/>
<path d="M265.761 405.569C274.378 405.569 281.364 398.585 281.364 389.97C281.364 381.355 274.378 374.371 265.761 374.371C257.143 374.371 250.157 381.355 250.157 389.97C250.157 398.585 257.143 405.569 265.761 405.569Z" fill="black"/>
<path d="M296.968 468.803C305.585 468.803 312.571 461.819 312.571 453.204C312.571 444.589 305.585 437.605 296.968 437.605C288.35 437.605 281.364 444.589 281.364 453.204C281.364 461.819 288.35 468.803 296.968 468.803Z" fill="black"/>
<path d="M296.968 500.084C305.585 500.084 312.571 493.1 312.571 484.485C312.571 475.87 305.585 468.886 296.968 468.886C288.35 468.886 281.364 475.87 281.364 484.485C281.364 493.1 288.35 500.084 296.968 500.084Z" fill="black"/>
<path d="M203.18 93.7606C211.797 93.7606 218.783 86.7767 218.783 78.1618C218.783 69.5468 211.797 62.563 203.18 62.563C194.562 62.563 187.576 69.5468 187.576 78.1618C187.576 86.7767 194.562 93.7606 203.18 93.7606Z" fill="black"/>
<path d="M58.6385 5.28369H35.0657V25.7466H58.6385V5.28369Z" fill="black"/>
<path d="M27.18 5.28369H3.60718V25.7466H27.18V5.28369Z" fill="black"/>
<path d="M89.6776 5.28369H66.1047V25.7466H89.6776V5.28369Z" fill="black"/>
<path d="M58.6385 36.7324H35.0657V57.1954H58.6385V36.7324Z" fill="black"/>
<path d="M27.18 36.7324H3.60718V57.1954H27.18V36.7324Z" fill="black"/>
<path d="M89.6776 36.7324H66.1047V57.1954H89.6776V36.7324Z" fill="black"/>
<path d="M58.6385 67.9302H35.0657V88.3931H58.6385V67.9302Z" fill="black"/>
<path d="M27.18 67.9302H3.60718V88.3931H27.18V67.9302Z" fill="black"/>
<path d="M89.6776 67.9302H66.1047V88.3931H89.6776V67.9302Z" fill="black"/>
<path d="M58.6385 99.3794H35.0657V119.842H58.6385V99.3794Z" fill="black"/>
<path d="M27.18 99.3794H3.60718V119.842H27.18V99.3794Z" fill="black"/>
<path d="M89.6776 99.3794H66.1047V119.842H89.6776V99.3794Z" fill="black"/>
<path d="M58.6385 130.409H35.0657V150.872H58.6385V130.409Z" fill="black"/>
<path d="M27.18 130.409H3.60718V150.872H27.18V130.409Z" fill="black"/>
<path d="M89.6776 130.409H66.1047V150.872H89.6776V130.409Z" fill="black"/>
<path d="M58.6385 161.858H35.0657V182.321H58.6385V161.858Z" fill="black"/>
<path d="M27.18 161.858H3.60718V182.321H27.18V161.858Z" fill="black"/>
<path d="M89.6776 161.858H66.1047V182.321H89.6776V161.858Z" fill="black"/>
<path d="M58.6385 192.972H35.0657V213.435H58.6385V192.972Z" fill="black"/>
<path d="M27.18 192.972H3.60718V213.435H27.18V192.972Z" fill="black"/>
<path d="M89.6776 192.972H66.1047V213.435H89.6776V192.972Z" fill="black"/>
<path d="M58.6385 224.421H35.0657V244.884H58.6385V224.421Z" fill="black"/>
<path d="M27.18 224.421H3.60718V244.884H27.18V224.421Z" fill="black"/>
<path d="M89.6776 224.421H66.1047V244.884H89.6776V224.421Z" fill="black"/>
<path d="M58.6385 255.451H35.0657V275.914H58.6385V255.451Z" fill="black"/>
<path d="M58.6385 255.451H35.0657V275.914H58.6385V255.451Z" fill="black"/>
<path d="M27.18 255.451H3.60718V275.914H27.18V255.451Z" fill="black"/>
<path d="M89.6776 255.451H66.1047V275.914H89.6776V255.451Z" fill="black"/>
<path d="M58.6385 286.649H35.0657V307.112H58.6385V286.649Z" fill="black"/>
<path d="M27.18 286.649H3.60718V307.112H27.18V286.649Z" fill="black"/>
<path d="M89.6776 286.649H66.1047V307.112H89.6776V286.649Z" fill="black"/>
<path d="M58.6385 318.098H35.0657V338.561H58.6385V318.098Z" fill="black"/>
<path d="M27.18 318.098H3.60718V338.561H27.18V318.098Z" fill="black"/>
<path d="M89.6776 318.098H66.1047V338.561H89.6776V318.098Z" fill="black"/>
<path d="M58.6385 349.128H35.0657V369.591H58.6385V349.128Z" fill="black"/>
<path d="M27.18 349.128H3.60718V369.591H27.18V349.128Z" fill="black"/>
<path d="M89.6776 349.128H66.1047V369.591H89.6776V349.128Z" fill="black"/>
<path d="M58.6385 380.493H35.0657V400.956H58.6385V380.493Z" fill="black"/>
<path d="M27.18 380.493H3.60718V400.956H27.18V380.493Z" fill="black"/>
<path d="M89.6776 380.493H66.1047V400.956H89.6776V380.493Z" fill="black"/>
<path d="M58.6385 411.69H35.0657V432.153H58.6385V411.69Z" fill="black"/>
<path d="M27.18 411.69H3.60718V432.153H27.18V411.69Z" fill="black"/>
<path d="M89.6776 411.69H66.1047V432.153H89.6776V411.69Z" fill="black"/>
<path d="M58.6385 443.14H35.0657V463.603H58.6385V443.14Z" fill="black"/>
<path d="M27.18 443.14H3.60718V463.603H27.18V443.14Z" fill="black"/>
<path d="M89.6776 443.14H66.1047V463.603H89.6776V443.14Z" fill="black"/>
<path d="M58.6385 474.337H35.0657V494.8H58.6385V474.337Z" fill="black"/>
<path d="M27.18 474.337H3.60718V494.8H27.18V474.337Z" fill="black"/>
<path d="M89.6776 474.337H66.1047V494.8H89.6776V474.337Z" fill="black"/>
<path d="M120.968 5.28369H97.3953V25.7466H120.968V5.28369Z" fill="black"/>
<path d="M120.968 36.7324H97.3953V57.1954H120.968V36.7324Z" fill="black"/>
<path d="M120.968 67.9302H97.3953V88.3931H120.968V67.9302Z" fill="black"/>
<path d="M152.259 5.28369H128.686V25.7466H152.259V5.28369Z" fill="black"/>
<path d="M152.259 36.7324H128.686V57.1954H152.259V36.7324Z" fill="black"/>
<path d="M152.259 67.9302H128.686V88.3931H152.259V67.9302Z" fill="black"/>
<path d="M152.259 99.3794H128.686V119.842H152.259V99.3794Z" fill="black"/>
<path d="M152.259 130.409H128.686V150.872H152.259V130.409Z" fill="black"/>
<path d="M183.13 36.7324H159.557V57.1954H183.13V36.7324Z" fill="black"/>
<path d="M183.13 67.9302H159.557V88.3931H183.13V67.9302Z" fill="black"/>
<path d="M183.13 99.3794H159.557V119.842H183.13V99.3794Z" fill="black"/>
<path d="M183.13 130.409H159.557V150.872H183.13V130.409Z" fill="black"/>
<path d="M183.13 161.858H159.557V182.321H183.13V161.858Z" fill="black"/>
<path d="M183.13 192.972H159.557V213.435H183.13V192.972Z" fill="black"/>
<path d="M183.13 224.421H159.557V244.884H183.13V224.421Z" fill="black"/>
<path d="M214.756 67.9302H191.184V88.3931H214.756V67.9302Z" fill="black"/>
<path d="M214.756 99.3794H191.184V119.842H214.756V99.3794Z" fill="black"/>
<path d="M214.756 130.409H191.184V150.872H214.756V130.409Z" fill="black"/>
<path d="M214.756 161.858H191.184V182.321H214.756V161.858Z" fill="black"/>
<path d="M214.756 192.972H191.184V213.435H214.756V192.972Z" fill="black"/>
<path d="M214.756 224.421H191.184V244.884H214.756V224.421Z" fill="black"/>
<path d="M214.756 255.451H191.184V275.914H214.756V255.451Z" fill="black"/>
<path d="M214.756 286.649H191.184V307.112H214.756V286.649Z" fill="black"/>
<path d="M214.756 318.098H191.184V338.561H214.756V318.098Z" fill="black"/>
<path d="M246.047 161.858H222.474V182.321H246.047V161.858Z" fill="black"/>
<path d="M246.047 192.972H222.474V213.435H246.047V192.972Z" fill="black"/>
<path d="M246.047 224.421H222.474V244.884H246.047V224.421Z" fill="black"/>
<path d="M246.047 255.451H222.474V275.914H246.047V255.451Z" fill="black"/>
<path d="M246.047 286.649H222.474V307.112H246.047V286.649Z" fill="black"/>
<path d="M246.047 318.098H222.474V338.561H246.047V318.098Z" fill="black"/>
<path d="M246.047 349.128H222.474V369.591H246.047V349.128Z" fill="black"/>
<path d="M246.047 380.493H222.474V400.956H246.047V380.493Z" fill="black"/>
<path d="M246.047 411.69H222.474V432.153H246.047V411.69Z" fill="black"/>
<path d="M277.254 286.649H253.681V307.112H277.254V286.649Z" fill="black"/>
<path d="M277.254 318.098H253.681V338.561H277.254V318.098Z" fill="black"/>
<path d="M277.254 349.128H253.681V369.591H277.254V349.128Z" fill="black"/>
<path d="M277.254 380.493H253.681V400.956H277.254V380.493Z" fill="black"/>
<path d="M277.254 411.69H253.681V432.153H277.254V411.69Z" fill="black"/>
<path d="M277.254 443.14H253.681V463.603H277.254V443.14Z" fill="black"/>
<path d="M308.545 380.493H284.972V400.956H308.545V380.493Z" fill="black"/>
<path d="M308.545 411.69H284.972V432.153H308.545V411.69Z" fill="black"/>
<path d="M308.545 443.14H284.972V463.603H308.545V443.14Z" fill="black"/>
<path d="M308.545 474.337H284.972V494.8H308.545V474.337Z" fill="black"/>
<path d="M371.713 5.28369H348.14V25.7466H371.713V5.28369Z" fill="black"/>
<path d="M340.255 5.28369H316.682V25.7466H340.255V5.28369Z" fill="black"/>
<path d="M402.752 5.28369H379.179V25.7466H402.752V5.28369Z" fill="black"/>
<path d="M371.713 36.7324H348.14V57.1954H371.713V36.7324Z" fill="black"/>
<path d="M340.255 36.7324H316.682V57.1954H340.255V36.7324Z" fill="black"/>
<path d="M402.752 36.7324H379.179V57.1954H402.752V36.7324Z" fill="black"/>
<path d="M371.713 67.9302H348.14V88.3931H371.713V67.9302Z" fill="black"/>
<path d="M340.255 67.9302H316.682V88.3931H340.255V67.9302Z" fill="black"/>
<path d="M402.752 67.9302H379.179V88.3931H402.752V67.9302Z" fill="black"/>
<path d="M371.713 99.3794H348.14V119.842H371.713V99.3794Z" fill="black"/>
<path d="M340.255 99.3794H316.682V119.842H340.255V99.3794Z" fill="black"/>
<path d="M402.752 99.3794H379.179V119.842H402.752V99.3794Z" fill="black"/>
<path d="M371.713 130.409H348.14V150.872H371.713V130.409Z" fill="black"/>
<path d="M340.255 130.409H316.682V150.872H340.255V130.409Z" fill="black"/>
<path d="M402.752 130.409H379.179V150.872H402.752V130.409Z" fill="black"/>
<path d="M371.713 161.858H348.14V182.321H371.713V161.858Z" fill="black"/>
<path d="M340.255 161.858H316.682V182.321H340.255V161.858Z" fill="black"/>
<path d="M402.752 161.858H379.179V182.321H402.752V161.858Z" fill="black"/>
<path d="M371.713 192.972H348.14V213.435H371.713V192.972Z" fill="black"/>
<path d="M340.255 192.972H316.682V213.435H340.255V192.972Z" fill="black"/>
<path d="M402.752 192.972H379.179V213.435H402.752V192.972Z" fill="black"/>
<path d="M371.713 224.421H348.14V244.884H371.713V224.421Z" fill="black"/>
<path d="M340.255 224.421H316.682V244.884H340.255V224.421Z" fill="black"/>
<path d="M402.752 224.421H379.179V244.884H402.752V224.421Z" fill="black"/>
<path d="M371.713 255.451H348.14V275.914H371.713V255.451Z" fill="black"/>
<path d="M371.713 255.451H348.14V275.914H371.713V255.451Z" fill="black"/>
<path d="M340.255 255.451H316.682V275.914H340.255V255.451Z" fill="black"/>
<path d="M402.752 255.451H379.179V275.914H402.752V255.451Z" fill="black"/>
<path d="M371.713 286.649H348.14V307.112H371.713V286.649Z" fill="black"/>
<path d="M340.255 286.649H316.682V307.112H340.255V286.649Z" fill="black"/>
<path d="M402.752 286.649H379.179V307.112H402.752V286.649Z" fill="black"/>
<path d="M371.713 318.098H348.14V338.561H371.713V318.098Z" fill="black"/>
<path d="M340.255 318.098H316.682V338.561H340.255V318.098Z" fill="black"/>
<path d="M402.752 318.098H379.179V338.561H402.752V318.098Z" fill="black"/>
<path d="M371.713 349.128H348.14V369.591H371.713V349.128Z" fill="black"/>
<path d="M340.255 349.128H316.682V369.591H340.255V349.128Z" fill="black"/>
<path d="M402.752 349.128H379.179V369.591H402.752V349.128Z" fill="black"/>
<path d="M371.713 380.493H348.14V400.956H371.713V380.493Z" fill="black"/>
<path d="M340.255 380.493H316.682V400.956H340.255V380.493Z" fill="black"/>
<path d="M402.752 380.493H379.179V400.956H402.752V380.493Z" fill="black"/>
<path d="M371.713 411.69H348.14V432.153H371.713V411.69Z" fill="black"/>
<path d="M340.255 411.69H316.682V432.153H340.255V411.69Z" fill="black"/>
<path d="M402.752 411.69H379.179V432.153H402.752V411.69Z" fill="black"/>
<path d="M371.713 443.14H348.14V463.603H371.713V443.14Z" fill="black"/>
<path d="M340.255 443.14H316.682V463.603H340.255V443.14Z" fill="black"/>
<path d="M402.752 443.14H379.179V463.603H402.752V443.14Z" fill="black"/>
<path d="M371.713 474.337H348.14V494.8H371.713V474.337Z" fill="black"/>
<path d="M340.255 474.337H316.682V494.8H340.255V474.337Z" fill="black"/>
<path d="M402.752 474.337H379.179V494.8H402.752V474.337Z" fill="black"/>
</svg>
