<svg width="855" height="501" viewBox="0 0 855 501" fill="none" xmlns="http://www.w3.org/2000/svg">
<path d="M682.322 31.1976C690.937 31.1976 697.921 24.2138 697.921 15.5988C697.921 6.98382 690.937 0 682.322 0C673.707 0 666.724 6.98382 666.724 15.5988C666.724 24.2138 673.707 31.1976 682.322 31.1976Z" fill="black"/>
<path d="M713.604 31.1976C722.219 31.1976 729.202 24.2138 729.202 15.5988C729.202 6.98382 722.219 0 713.604 0C704.989 0 698.005 6.98382 698.005 15.5988C698.005 24.2138 704.989 31.1976 713.604 31.1976Z" fill="black"/>
<path d="M744.801 31.1976C753.416 31.1976 760.4 24.2138 760.4 15.5988C760.4 6.98382 753.416 0 744.801 0C736.186 0 729.202 6.98382 729.202 15.5988C729.202 24.2138 736.186 31.1976 744.801 31.1976Z" fill="black"/>
<path d="M682.322 62.4788C690.937 62.4788 697.921 55.495 697.921 46.88C697.921 38.265 690.937 31.2812 682.322 31.2812C673.707 31.2812 666.724 38.265 666.724 46.88C666.724 55.495 673.707 62.4788 682.322 62.4788Z" fill="black"/>
<path d="M713.604 62.4788C722.219 62.4788 729.202 55.495 729.202 46.88C729.202 38.265 722.219 31.2812 713.604 31.2812C704.989 31.2812 698.005 38.265 698.005 46.88C698.005 55.495 704.989 62.4788 713.604 62.4788Z" fill="black"/>
<path d="M744.801 62.4788C753.416 62.4788 760.4 55.495 760.4 46.88C760.4 38.265 753.416 31.2812 744.801 31.2812C736.186 31.2812 729.202 38.265 729.202 46.88C729.202 55.495 736.186 62.4788 744.801 62.4788Z" fill="black"/>
<path d="M682.322 93.76C690.937 93.76 697.921 86.7763 697.921 78.1613C697.921 69.5463 690.937 62.5625 682.322 62.5625C673.707 62.5625 666.724 69.5463 666.724 78.1613C666.724 86.7763 673.707 93.76 682.322 93.76Z" fill="black"/>
<path d="M713.604 93.76C722.219 93.76 729.202 86.7763 729.202 78.1613C729.202 69.5463 722.219 62.5625 713.604 62.5625C704.989 62.5625 698.005 69.5463 698.005 78.1613C698.005 86.7763 704.989 93.76 713.604 93.76Z" fill="black"/>
<path d="M744.801 93.76C753.416 93.76 760.4 86.7763 760.4 78.1613C760.4 69.5463 753.416 62.5625 744.801 62.5625C736.186 62.5625 729.202 69.5463 729.202 78.1613C729.202 86.7763 736.186 93.76 744.801 93.76Z" fill="black"/>
<path d="M682.322 124.958C690.937 124.958 697.921 117.975 697.921 109.36C697.921 100.745 690.937 93.7607 682.322 93.7607C673.707 93.7607 666.724 100.745 666.724 109.36C666.724 117.975 673.707 124.958 682.322 124.958Z" fill="black"/>
<path d="M713.604 124.958C722.219 124.958 729.202 117.975 729.202 109.36C729.202 100.745 722.219 93.7607 713.604 93.7607C704.989 93.7607 698.005 100.745 698.005 109.36C698.005 117.975 704.989 124.958 713.604 124.958Z" fill="black"/>
<path d="M744.801 124.958C753.416 124.958 760.4 117.975 760.4 109.36C760.4 100.745 753.416 93.7607 744.801 93.7607C736.186 93.7607 729.202 100.745 729.202 109.36C729.202 117.975 736.186 124.958 744.801 124.958Z" fill="black"/>
<path d="M713.604 156.24C722.219 156.24 729.202 149.256 729.202 140.641C729.202 132.026 722.219 125.042 713.604 125.042C704.989 125.042 698.005 132.026 698.005 140.641C698.005 149.256 704.989 156.24 713.604 156.24Z" fill="black"/>
<path d="M744.801 156.24C753.416 156.24 760.4 149.256 760.4 140.641C760.4 132.026 753.416 125.042 744.801 125.042C736.186 125.042 729.202 132.026 729.202 140.641C729.202 149.256 736.186 156.24 744.801 156.24Z" fill="black"/>
<path d="M776.082 156.24C784.697 156.24 791.681 149.256 791.681 140.641C791.681 132.026 784.697 125.042 776.082 125.042C767.467 125.042 760.483 132.026 760.483 140.641C760.483 149.256 767.467 156.24 776.082 156.24Z" fill="black"/>
<path d="M713.604 187.521C722.219 187.521 729.202 180.537 729.202 171.922C729.202 163.307 722.219 156.323 713.604 156.323C704.989 156.323 698.005 163.307 698.005 171.922C698.005 180.537 704.989 187.521 713.604 187.521Z" fill="black"/>
<path d="M744.801 187.521C753.416 187.521 760.4 180.537 760.4 171.922C760.4 163.307 753.416 156.323 744.801 156.323C736.186 156.323 729.202 163.307 729.202 171.922C729.202 180.537 736.186 187.521 744.801 187.521Z" fill="black"/>
<path d="M776.082 187.521C784.697 187.521 791.681 180.537 791.681 171.922C791.681 163.307 784.697 156.323 776.082 156.323C767.467 156.323 760.483 163.307 760.483 171.922C760.483 180.537 767.467 187.521 776.082 187.521Z" fill="black"/>
<path d="M713.604 218.718C722.219 218.718 729.202 211.734 729.202 203.119C729.202 194.504 722.219 187.521 713.604 187.521C704.989 187.521 698.005 194.504 698.005 203.119C698.005 211.734 704.989 218.718 713.604 218.718Z" fill="black"/>
<path d="M744.801 218.718C753.416 218.718 760.4 211.734 760.4 203.119C760.4 194.504 753.416 187.521 744.801 187.521C736.186 187.521 729.202 194.504 729.202 203.119C729.202 211.734 736.186 218.718 744.801 218.718Z" fill="black"/>
<path d="M776.082 218.718C784.697 218.718 791.681 211.734 791.681 203.119C791.681 194.504 784.697 187.521 776.082 187.521C767.467 187.521 760.483 194.504 760.483 203.119C760.483 211.734 767.467 218.718 776.082 218.718Z" fill="black"/>
<path d="M713.604 250C722.219 250 729.202 243.017 729.202 234.402C729.202 225.787 722.219 218.803 713.604 218.803C704.989 218.803 698.005 225.787 698.005 234.402C698.005 243.017 704.989 250 713.604 250Z" fill="black"/>
<path d="M744.801 250C753.416 250 760.4 243.017 760.4 234.402C760.4 225.787 753.416 218.803 744.801 218.803C736.186 218.803 729.202 225.787 729.202 234.402C729.202 243.017 736.186 250 744.801 250Z" fill="black"/>
<path d="M776.082 250C784.697 250 791.681 243.017 791.681 234.402C791.681 225.787 784.697 218.803 776.082 218.803C767.467 218.803 760.483 225.787 760.483 234.402C760.483 243.017 767.467 250 776.082 250Z" fill="black"/>
<path d="M744.801 281.281C753.416 281.281 760.4 274.298 760.4 265.683C760.4 257.068 753.416 250.084 744.801 250.084C736.186 250.084 729.202 257.068 729.202 265.683C729.202 274.298 736.186 281.281 744.801 281.281Z" fill="black"/>
<path d="M776.082 281.281C784.697 281.281 791.681 274.298 791.681 265.683C791.681 257.068 784.697 250.084 776.082 250.084C767.467 250.084 760.483 257.068 760.483 265.683C760.483 274.298 767.467 281.281 776.082 281.281Z" fill="black"/>
<path d="M807.364 281.281C815.979 281.281 822.963 274.298 822.963 265.683C822.963 257.068 815.979 250.084 807.364 250.084C798.749 250.084 791.766 257.068 791.766 265.683C791.766 274.298 798.749 281.281 807.364 281.281Z" fill="black"/>
<path d="M744.801 312.479C753.416 312.479 760.4 305.495 760.4 296.88C760.4 288.265 753.416 281.281 744.801 281.281C736.186 281.281 729.202 288.265 729.202 296.88C729.202 305.495 736.186 312.479 744.801 312.479Z" fill="black"/>
<path d="M776.082 312.479C784.697 312.479 791.681 305.495 791.681 296.88C791.681 288.265 784.697 281.281 776.082 281.281C767.467 281.281 760.483 288.265 760.483 296.88C760.483 305.495 767.467 312.479 776.082 312.479Z" fill="black"/>
<path d="M807.364 312.479C815.979 312.479 822.963 305.495 822.963 296.88C822.963 288.265 815.979 281.281 807.364 281.281C798.749 281.281 791.766 288.265 791.766 296.88C791.766 305.495 798.749 312.479 807.364 312.479Z" fill="black"/>
<path d="M744.801 343.76C753.416 343.76 760.4 336.776 760.4 328.161C760.4 319.546 753.416 312.562 744.801 312.562C736.186 312.562 729.202 319.546 729.202 328.161C729.202 336.776 736.186 343.76 744.801 343.76Z" fill="black"/>
<path d="M776.082 343.76C784.697 343.76 791.681 336.776 791.681 328.161C791.681 319.546 784.697 312.562 776.082 312.562C767.467 312.562 760.483 319.546 760.483 328.161C760.483 336.776 767.467 343.76 776.082 343.76Z" fill="black"/>
<path d="M807.364 343.76C815.979 343.76 822.963 336.776 822.963 328.161C822.963 319.546 815.979 312.562 807.364 312.562C798.749 312.562 791.766 319.546 791.766 328.161C791.766 336.776 798.749 343.76 807.364 343.76Z" fill="black"/>
<path d="M744.801 375.042C753.416 375.042 760.4 368.059 760.4 359.444C760.4 350.829 753.416 343.845 744.801 343.845C736.186 343.845 729.202 350.829 729.202 359.444C729.202 368.059 736.186 375.042 744.801 375.042Z" fill="black"/>
<path d="M776.082 375.042C784.697 375.042 791.681 368.059 791.681 359.444C791.681 350.829 784.697 343.845 776.082 343.845C767.467 343.845 760.483 350.829 760.483 359.444C760.483 368.059 767.467 375.042 776.082 375.042Z" fill="black"/>
<path d="M807.364 375.042C815.979 375.042 822.963 368.059 822.963 359.444C822.963 350.829 815.979 343.845 807.364 343.845C798.749 343.845 791.766 350.829 791.766 359.444C791.766 368.059 798.749 375.042 807.364 375.042Z" fill="black"/>
<path d="M776.082 406.24C784.697 406.24 791.681 399.256 791.681 390.641C791.681 382.026 784.697 375.042 776.082 375.042C767.467 375.042 760.483 382.026 760.483 390.641C760.483 399.256 767.467 406.24 776.082 406.24Z" fill="black"/>
<path d="M807.364 406.24C815.979 406.24 822.963 399.256 822.963 390.641C822.963 382.026 815.979 375.042 807.364 375.042C798.749 375.042 791.766 382.026 791.766 390.641C791.766 399.256 798.749 406.24 807.364 406.24Z" fill="black"/>
<path d="M838.562 406.24C847.177 406.24 854.16 399.256 854.16 390.641C854.16 382.026 847.177 375.042 838.562 375.042C829.947 375.042 822.963 382.026 822.963 390.641C822.963 399.256 829.947 406.24 838.562 406.24Z" fill="black"/>
<path d="M776.082 437.521C784.697 437.521 791.681 430.537 791.681 421.922C791.681 413.307 784.697 406.323 776.082 406.323C767.467 406.323 760.483 413.307 760.483 421.922C760.483 430.537 767.467 437.521 776.082 437.521Z" fill="black"/>
<path d="M807.364 437.521C815.979 437.521 822.963 430.537 822.963 421.922C822.963 413.307 815.979 406.323 807.364 406.323C798.749 406.323 791.766 413.307 791.766 421.922C791.766 430.537 798.749 437.521 807.364 437.521Z" fill="black"/>
<path d="M838.562 437.521C847.177 437.521 854.16 430.537 854.16 421.922C854.16 413.307 847.177 406.323 838.562 406.323C829.947 406.323 822.963 413.307 822.963 421.922C822.963 430.537 829.947 437.521 838.562 437.521Z" fill="black"/>
<path d="M776.082 468.802C784.697 468.802 791.681 461.818 791.681 453.203C791.681 444.588 784.697 437.604 776.082 437.604C767.467 437.604 760.483 444.588 760.483 453.203C760.483 461.818 767.467 468.802 776.082 468.802Z" fill="black"/>
<path d="M807.364 468.802C815.979 468.802 822.963 461.818 822.963 453.203C822.963 444.588 815.979 437.604 807.364 437.604C798.749 437.604 791.766 444.588 791.766 453.203C791.766 461.818 798.749 468.802 807.364 468.802Z" fill="black"/>
<path d="M838.562 468.802C847.177 468.802 854.16 461.818 854.16 453.203C854.16 444.588 847.177 437.604 838.562 437.604C829.947 437.604 822.963 444.588 822.963 453.203C822.963 461.818 829.947 468.802 838.562 468.802Z" fill="black"/>
<path d="M776.082 500.084C784.697 500.084 791.681 493.1 791.681 484.486C791.681 475.871 784.697 468.887 776.082 468.887C767.467 468.887 760.483 475.871 760.483 484.486C760.483 493.1 767.467 500.084 776.082 500.084Z" fill="black"/>
<path d="M807.364 500.084C815.979 500.084 822.963 493.1 822.963 484.486C822.963 475.871 815.979 468.887 807.364 468.887C798.749 468.887 791.766 475.871 791.766 484.486C791.766 493.1 798.749 500.084 807.364 500.084Z" fill="black"/>
<path d="M838.562 500.084C847.177 500.084 854.16 493.1 854.16 484.486C854.16 475.871 847.177 468.887 838.562 468.887C829.947 468.887 822.963 475.871 822.963 484.486C822.963 493.1 829.947 500.084 838.562 500.084Z" fill="black"/>
<path d="M682.322 156.24C690.937 156.24 697.921 149.256 697.921 140.641C697.921 132.026 690.937 125.042 682.322 125.042C673.707 125.042 666.724 132.026 666.724 140.641C666.724 149.256 673.707 156.24 682.322 156.24Z" fill="black"/>
<path d="M588.562 31.1976C597.177 31.1976 604.16 24.2138 604.16 15.5988C604.16 6.98382 597.177 0 588.562 0C579.947 0 572.963 6.98382 572.963 15.5988C572.963 24.2138 579.947 31.1976 588.562 31.1976Z" fill="black"/>
<path d="M619.843 31.1976C628.458 31.1976 635.442 24.2138 635.442 15.5988C635.442 6.98382 628.458 0 619.843 0C611.228 0 604.244 6.98382 604.244 15.5988C604.244 24.2138 611.228 31.1976 619.843 31.1976Z" fill="black"/>
<path d="M588.562 62.4788C597.177 62.4788 604.16 55.495 604.16 46.88C604.16 38.265 597.177 31.2812 588.562 31.2812C579.947 31.2812 572.963 38.265 572.963 46.88C572.963 55.495 579.947 62.4788 588.562 62.4788Z" fill="black"/>
<path d="M619.843 62.4788C628.458 62.4788 635.442 55.495 635.442 46.88C635.442 38.265 628.458 31.2812 619.843 31.2812C611.228 31.2812 604.244 38.265 604.244 46.88C604.244 55.495 611.228 62.4788 619.843 62.4788Z" fill="black"/>
<path d="M588.562 93.76C597.177 93.76 604.16 86.7763 604.16 78.1613C604.16 69.5463 597.177 62.5625 588.562 62.5625C579.947 62.5625 572.963 69.5463 572.963 78.1613C572.963 86.7763 579.947 93.76 588.562 93.76Z" fill="black"/>
<path d="M619.843 93.76C628.458 93.76 635.442 86.7763 635.442 78.1613C635.442 69.5463 628.458 62.5625 619.843 62.5625C611.228 62.5625 604.244 69.5463 604.244 78.1613C604.244 86.7763 611.228 93.76 619.843 93.76Z" fill="black"/>
<path d="M651.04 31.1976C659.655 31.1976 666.639 24.2138 666.639 15.5988C666.639 6.98382 659.655 0 651.04 0C642.425 0 635.441 6.98382 635.441 15.5988C635.441 24.2138 642.425 31.1976 651.04 31.1976Z" fill="black"/>
<path d="M651.04 62.4788C659.655 62.4788 666.639 55.495 666.639 46.88C666.639 38.265 659.655 31.2812 651.04 31.2812C642.425 31.2812 635.441 38.265 635.441 46.88C635.441 55.495 642.425 62.4788 651.04 62.4788Z" fill="black"/>
<path d="M651.04 93.76C659.655 93.76 666.639 86.7763 666.639 78.1613C666.639 69.5463 659.655 62.5625 651.04 62.5625C642.425 62.5625 635.441 69.5463 635.441 78.1613C635.441 86.7763 642.425 93.76 651.04 93.76Z" fill="black"/>
<path d="M619.843 124.958C628.458 124.958 635.442 117.975 635.442 109.36C635.442 100.745 628.458 93.7607 619.843 93.7607C611.228 93.7607 604.244 100.745 604.244 109.36C604.244 117.975 611.228 124.958 619.843 124.958Z" fill="black"/>
<path d="M588.562 124.958C597.177 124.958 604.16 117.975 604.16 109.36C604.16 100.745 597.177 93.7607 588.562 93.7607C579.947 93.7607 572.963 100.745 572.963 109.36C572.963 117.975 579.947 124.958 588.562 124.958Z" fill="black"/>
<path d="M557.28 124.958C565.895 124.958 572.879 117.975 572.879 109.36C572.879 100.745 565.895 93.7607 557.28 93.7607C548.665 93.7607 541.682 100.745 541.682 109.36C541.682 117.975 548.665 124.958 557.28 124.958Z" fill="black"/>
<path d="M588.562 156.24C597.177 156.24 604.16 149.256 604.16 140.641C604.16 132.026 597.177 125.042 588.562 125.042C579.947 125.042 572.963 132.026 572.963 140.641C572.963 149.256 579.947 156.24 588.562 156.24Z" fill="black"/>
<path d="M557.28 156.24C565.895 156.24 572.879 149.256 572.879 140.641C572.879 132.026 565.895 125.042 557.28 125.042C548.665 125.042 541.682 132.026 541.682 140.641C541.682 149.256 548.665 156.24 557.28 156.24Z" fill="black"/>
<path d="M526.082 156.24C534.697 156.24 541.681 149.256 541.681 140.641C541.681 132.026 534.697 125.042 526.082 125.042C517.467 125.042 510.483 132.026 510.483 140.641C510.483 149.256 517.467 156.24 526.082 156.24Z" fill="black"/>
<path d="M588.562 187.521C597.177 187.521 604.16 180.537 604.16 171.922C604.16 163.307 597.177 156.323 588.562 156.323C579.947 156.323 572.963 163.307 572.963 171.922C572.963 180.537 579.947 187.521 588.562 187.521Z" fill="black"/>
<path d="M557.28 187.521C565.895 187.521 572.879 180.537 572.879 171.922C572.879 163.307 565.895 156.323 557.28 156.323C548.665 156.323 541.682 163.307 541.682 171.922C541.682 180.537 548.665 187.521 557.28 187.521Z" fill="black"/>
<path d="M526.082 187.521C534.697 187.521 541.681 180.537 541.681 171.922C541.681 163.307 534.697 156.323 526.082 156.323C517.467 156.323 510.483 163.307 510.483 171.922C510.483 180.537 517.467 187.521 526.082 187.521Z" fill="black"/>
<path d="M588.562 218.718C597.177 218.718 604.16 211.734 604.16 203.119C604.16 194.504 597.177 187.521 588.562 187.521C579.947 187.521 572.963 194.504 572.963 203.119C572.963 211.734 579.947 218.718 588.562 218.718Z" fill="black"/>
<path d="M557.28 218.718C565.895 218.718 572.879 211.734 572.879 203.119C572.879 194.504 565.895 187.521 557.28 187.521C548.665 187.521 541.682 194.504 541.682 203.119C541.682 211.734 548.665 218.718 557.28 218.718Z" fill="black"/>
<path d="M526.082 218.718C534.697 218.718 541.681 211.734 541.681 203.119C541.681 194.504 534.697 187.521 526.082 187.521C517.467 187.521 510.483 194.504 510.483 203.119C510.483 211.734 517.467 218.718 526.082 218.718Z" fill="black"/>
<path d="M588.562 250C597.177 250 604.16 243.017 604.16 234.402C604.16 225.787 597.177 218.803 588.562 218.803C579.947 218.803 572.963 225.787 572.963 234.402C572.963 243.017 579.947 250 588.562 250Z" fill="black"/>
<path d="M557.28 250C565.895 250 572.879 243.017 572.879 234.402C572.879 225.787 565.895 218.803 557.28 218.803C548.665 218.803 541.682 225.787 541.682 234.402C541.682 243.017 548.665 250 557.28 250Z" fill="black"/>
<path d="M526.082 250C534.697 250 541.681 243.017 541.681 234.402C541.681 225.787 534.697 218.803 526.082 218.803C517.467 218.803 510.483 225.787 510.483 234.402C510.483 243.017 517.467 250 526.082 250Z" fill="black"/>
<path d="M557.28 281.281C565.895 281.281 572.879 274.298 572.879 265.683C572.879 257.068 565.895 250.084 557.28 250.084C548.665 250.084 541.682 257.068 541.682 265.683C541.682 274.298 548.665 281.281 557.28 281.281Z" fill="black"/>
<path d="M526.082 281.281C534.697 281.281 541.681 274.298 541.681 265.683C541.681 257.068 534.697 250.084 526.082 250.084C517.467 250.084 510.483 257.068 510.483 265.683C510.483 274.298 517.467 281.281 526.082 281.281Z" fill="black"/>
<path d="M494.801 281.281C503.416 281.281 510.4 274.298 510.4 265.683C510.4 257.068 503.416 250.084 494.801 250.084C486.186 250.084 479.202 257.068 479.202 265.683C479.202 274.298 486.186 281.281 494.801 281.281Z" fill="black"/>
<path d="M557.28 312.479C565.895 312.479 572.879 305.495 572.879 296.88C572.879 288.265 565.895 281.281 557.28 281.281C548.665 281.281 541.682 288.265 541.682 296.88C541.682 305.495 548.665 312.479 557.28 312.479Z" fill="black"/>
<path d="M526.082 312.479C534.697 312.479 541.681 305.495 541.681 296.88C541.681 288.265 534.697 281.281 526.082 281.281C517.467 281.281 510.483 288.265 510.483 296.88C510.483 305.495 517.467 312.479 526.082 312.479Z" fill="black"/>
<path d="M494.801 312.479C503.416 312.479 510.4 305.495 510.4 296.88C510.4 288.265 503.416 281.281 494.801 281.281C486.186 281.281 479.202 288.265 479.202 296.88C479.202 305.495 486.186 312.479 494.801 312.479Z" fill="black"/>
<path d="M557.28 343.76C565.895 343.76 572.879 336.776 572.879 328.161C572.879 319.546 565.895 312.562 557.28 312.562C548.665 312.562 541.682 319.546 541.682 328.161C541.682 336.776 548.665 343.76 557.28 343.76Z" fill="black"/>
<path d="M526.082 343.76C534.697 343.76 541.681 336.776 541.681 328.161C541.681 319.546 534.697 312.562 526.082 312.562C517.467 312.562 510.483 319.546 510.483 328.161C510.483 336.776 517.467 343.76 526.082 343.76Z" fill="black"/>
<path d="M494.801 343.76C503.416 343.76 510.4 336.776 510.4 328.161C510.4 319.546 503.416 312.562 494.801 312.562C486.186 312.562 479.202 319.546 479.202 328.161C479.202 336.776 486.186 343.76 494.801 343.76Z" fill="black"/>
<path d="M557.28 375.042C565.895 375.042 572.879 368.059 572.879 359.444C572.879 350.829 565.895 343.845 557.28 343.845C548.665 343.845 541.682 350.829 541.682 359.444C541.682 368.059 548.665 375.042 557.28 375.042Z" fill="black"/>
<path d="M526.082 375.042C534.697 375.042 541.681 368.059 541.681 359.444C541.681 350.829 534.697 343.845 526.082 343.845C517.467 343.845 510.483 350.829 510.483 359.444C510.483 368.059 517.467 375.042 526.082 375.042Z" fill="black"/>
<path d="M494.801 375.042C503.416 375.042 510.4 368.059 510.4 359.444C510.4 350.829 503.416 343.845 494.801 343.845C486.186 343.845 479.202 350.829 479.202 359.444C479.202 368.059 486.186 375.042 494.801 375.042Z" fill="black"/>
<path d="M526.082 406.24C534.697 406.24 541.681 399.256 541.681 390.641C541.681 382.026 534.697 375.042 526.082 375.042C517.467 375.042 510.483 382.026 510.483 390.641C510.483 399.256 517.467 406.24 526.082 406.24Z" fill="black"/>
<path d="M494.801 406.24C503.416 406.24 510.4 399.256 510.4 390.641C510.4 382.026 503.416 375.042 494.801 375.042C486.186 375.042 479.202 382.026 479.202 390.641C479.202 399.256 486.186 406.24 494.801 406.24Z" fill="black"/>
<path d="M463.52 406.24C472.135 406.24 479.118 399.256 479.118 390.641C479.118 382.026 472.135 375.042 463.52 375.042C454.905 375.042 447.921 382.026 447.921 390.641C447.921 399.256 454.905 406.24 463.52 406.24Z" fill="black"/>
<path d="M526.082 437.521C534.697 437.521 541.681 430.537 541.681 421.922C541.681 413.307 534.697 406.323 526.082 406.323C517.467 406.323 510.483 413.307 510.483 421.922C510.483 430.537 517.467 437.521 526.082 437.521Z" fill="black"/>
<path d="M494.801 437.521C503.416 437.521 510.4 430.537 510.4 421.922C510.4 413.307 503.416 406.323 494.801 406.323C486.186 406.323 479.202 413.307 479.202 421.922C479.202 430.537 486.186 437.521 494.801 437.521Z" fill="black"/>
<path d="M463.52 437.521C472.135 437.521 479.118 430.537 479.118 421.922C479.118 413.307 472.135 406.323 463.52 406.323C454.905 406.323 447.921 413.307 447.921 421.922C447.921 430.537 454.905 437.521 463.52 437.521Z" fill="black"/>
<path d="M526.082 468.802C534.697 468.802 541.681 461.818 541.681 453.203C541.681 444.588 534.697 437.604 526.082 437.604C517.467 437.604 510.483 444.588 510.483 453.203C510.483 461.818 517.467 468.802 526.082 468.802Z" fill="black"/>
<path d="M494.801 468.802C503.416 468.802 510.4 461.818 510.4 453.203C510.4 444.588 503.416 437.604 494.801 437.604C486.186 437.604 479.202 444.588 479.202 453.203C479.202 461.818 486.186 468.802 494.801 468.802Z" fill="black"/>
<path d="M463.52 468.802C472.135 468.802 479.118 461.818 479.118 453.203C479.118 444.588 472.135 437.604 463.52 437.604C454.905 437.604 447.921 444.588 447.921 453.203C447.921 461.818 454.905 468.802 463.52 468.802Z" fill="black"/>
<path d="M526.082 500.084C534.697 500.084 541.681 493.1 541.681 484.486C541.681 475.871 534.697 468.887 526.082 468.887C517.467 468.887 510.483 475.871 510.483 484.486C510.483 493.1 517.467 500.084 526.082 500.084Z" fill="black"/>
<path d="M494.801 500.084C503.416 500.084 510.4 493.1 510.4 484.486C510.4 475.871 503.416 468.887 494.801 468.887C486.186 468.887 479.202 475.871 479.202 484.486C479.202 493.1 486.186 500.084 494.801 500.084Z" fill="black"/>
<path d="M463.52 500.084C472.135 500.084 479.118 493.1 479.118 484.486C479.118 475.871 472.135 468.887 463.52 468.887C454.905 468.887 447.921 475.871 447.921 484.486C447.921 493.1 454.905 500.084 463.52 500.084Z" fill="black"/>
<path d="M619.843 156.24C628.458 156.24 635.442 149.256 635.442 140.641C635.442 132.026 628.458 125.042 619.843 125.042C611.228 125.042 604.244 132.026 604.244 140.641C604.244 149.256 611.228 156.24 619.843 156.24Z" fill="black"/>
<path d="M651.04 281.281C659.655 281.281 666.639 274.298 666.639 265.683C666.639 257.068 659.655 250.084 651.04 250.084C642.425 250.084 635.441 257.068 635.441 265.683C635.441 274.298 642.425 281.281 651.04 281.281Z" fill="black"/>
<path d="M619.843 281.281C628.458 281.281 635.442 274.298 635.442 265.683C635.442 257.068 628.458 250.084 619.843 250.084C611.228 250.084 604.244 257.068 604.244 265.683C604.244 274.298 611.228 281.281 619.843 281.281Z" fill="black"/>
<path d="M588.562 281.281C597.177 281.281 604.16 274.298 604.16 265.683C604.16 257.068 597.177 250.084 588.562 250.084C579.947 250.084 572.963 257.068 572.963 265.683C572.963 274.298 579.947 281.281 588.562 281.281Z" fill="black"/>
<path d="M651.04 312.479C659.655 312.479 666.639 305.495 666.639 296.88C666.639 288.265 659.655 281.281 651.04 281.281C642.425 281.281 635.441 288.265 635.441 296.88C635.441 305.495 642.425 312.479 651.04 312.479Z" fill="black"/>
<path d="M619.843 312.479C628.458 312.479 635.442 305.495 635.442 296.88C635.442 288.265 628.458 281.281 619.843 281.281C611.228 281.281 604.244 288.265 604.244 296.88C604.244 305.495 611.228 312.479 619.843 312.479Z" fill="black"/>
<path d="M588.562 312.479C597.177 312.479 604.16 305.495 604.16 296.88C604.16 288.265 597.177 281.281 588.562 281.281C579.947 281.281 572.963 288.265 572.963 296.88C572.963 305.495 579.947 312.479 588.562 312.479Z" fill="black"/>
<path d="M651.04 343.76C659.655 343.76 666.639 336.776 666.639 328.161C666.639 319.546 659.655 312.562 651.04 312.562C642.425 312.562 635.441 319.546 635.441 328.161C635.441 336.776 642.425 343.76 651.04 343.76Z" fill="black"/>
<path d="M619.843 343.76C628.458 343.76 635.442 336.776 635.442 328.161C635.442 319.546 628.458 312.562 619.843 312.562C611.228 312.562 604.244 319.546 604.244 328.161C604.244 336.776 611.228 343.76 619.843 343.76Z" fill="black"/>
<path d="M588.562 343.76C597.177 343.76 604.16 336.776 604.16 328.161C604.16 319.546 597.177 312.562 588.562 312.562C579.947 312.562 572.963 319.546 572.963 328.161C572.963 336.776 579.947 343.76 588.562 343.76Z" fill="black"/>
<path d="M713.604 281.281C722.219 281.281 729.202 274.298 729.202 265.683C729.202 257.068 722.219 250.084 713.604 250.084C704.989 250.084 698.005 257.068 698.005 265.683C698.005 274.298 704.989 281.281 713.604 281.281Z" fill="black"/>
<path d="M682.322 281.281C690.937 281.281 697.921 274.298 697.921 265.683C697.921 257.068 690.937 250.084 682.322 250.084C673.707 250.084 666.724 257.068 666.724 265.683C666.724 274.298 673.707 281.281 682.322 281.281Z" fill="black"/>
<path d="M713.604 312.479C722.219 312.479 729.202 305.495 729.202 296.88C729.202 288.265 722.219 281.281 713.604 281.281C704.989 281.281 698.005 288.265 698.005 296.88C698.005 305.495 704.989 312.479 713.604 312.479Z" fill="black"/>
<path d="M682.322 312.479C690.937 312.479 697.921 305.495 697.921 296.88C697.921 288.265 690.937 281.281 682.322 281.281C673.707 281.281 666.724 288.265 666.724 296.88C666.724 305.495 673.707 312.479 682.322 312.479Z" fill="black"/>
<path d="M713.604 343.76C722.219 343.76 729.202 336.776 729.202 328.161C729.202 319.546 722.219 312.562 713.604 312.562C704.989 312.562 698.005 319.546 698.005 328.161C698.005 336.776 704.989 343.76 713.604 343.76Z" fill="black"/>
<path d="M682.322 343.76C690.937 343.76 697.921 336.776 697.921 328.161C697.921 319.546 690.937 312.562 682.322 312.562C673.707 312.562 666.724 319.546 666.724 328.161C666.724 336.776 673.707 343.76 682.322 343.76Z" fill="black"/>
<path d="M15.5988 31.1976C24.2138 31.1976 31.1976 24.2138 31.1976 15.5988C31.1976 6.98382 24.2138 0 15.5988 0C6.98382 0 0 6.98382 0 15.5988C0 24.2138 6.98382 31.1976 15.5988 31.1976Z" fill="black"/>
<path d="M46.88 31.1976C55.495 31.1976 62.4788 24.2138 62.4788 15.5988C62.4788 6.98382 55.495 0 46.88 0C38.2651 0 31.2812 6.98382 31.2812 15.5988C31.2812 24.2138 38.2651 31.1976 46.88 31.1976Z" fill="black"/>
<path d="M78.0783 31.1976C86.6933 31.1976 93.6771 24.2138 93.6771 15.5988C93.6771 6.98382 86.6933 0 78.0783 0C69.4633 0 62.4795 6.98382 62.4795 15.5988C62.4795 24.2138 69.4633 31.1976 78.0783 31.1976Z" fill="black"/>
<path d="M109.36 31.1976C117.975 31.1976 124.958 24.2138 124.958 15.5988C124.958 6.98382 117.975 0 109.36 0C100.745 0 93.7607 6.98382 93.7607 15.5988C93.7607 24.2138 100.745 31.1976 109.36 31.1976Z" fill="black"/>
<path d="M140.641 31.1976C149.256 31.1976 156.24 24.2138 156.24 15.5988C156.24 6.98382 149.256 0 140.641 0C132.026 0 125.042 6.98382 125.042 15.5988C125.042 24.2138 132.026 31.1976 140.641 31.1976Z" fill="black"/>
<path d="M15.5988 62.4788C24.2138 62.4788 31.1976 55.495 31.1976 46.88C31.1976 38.265 24.2138 31.2812 15.5988 31.2812C6.98382 31.2812 0 38.265 0 46.88C0 55.495 6.98382 62.4788 15.5988 62.4788Z" fill="black"/>
<path d="M46.88 62.4788C55.495 62.4788 62.4788 55.495 62.4788 46.88C62.4788 38.265 55.495 31.2812 46.88 31.2812C38.2651 31.2812 31.2812 38.265 31.2812 46.88C31.2812 55.495 38.2651 62.4788 46.88 62.4788Z" fill="black"/>
<path d="M78.0783 62.4788C86.6933 62.4788 93.6771 55.495 93.6771 46.88C93.6771 38.265 86.6933 31.2812 78.0783 31.2812C69.4633 31.2812 62.4795 38.265 62.4795 46.88C62.4795 55.495 69.4633 62.4788 78.0783 62.4788Z" fill="black"/>
<path d="M15.5988 93.76C24.2138 93.76 31.1976 86.7763 31.1976 78.1613C31.1976 69.5463 24.2138 62.5625 15.5988 62.5625C6.98382 62.5625 0 69.5463 0 78.1613C0 86.7763 6.98382 93.76 15.5988 93.76Z" fill="black"/>
<path d="M46.88 93.76C55.495 93.76 62.4788 86.7763 62.4788 78.1613C62.4788 69.5463 55.495 62.5625 46.88 62.5625C38.2651 62.5625 31.2812 69.5463 31.2812 78.1613C31.2812 86.7763 38.2651 93.76 46.88 93.76Z" fill="black"/>
<path d="M78.0783 93.76C86.6933 93.76 93.6771 86.7763 93.6771 78.1613C93.6771 69.5463 86.6933 62.5625 78.0783 62.5625C69.4633 62.5625 62.4795 69.5463 62.4795 78.1613C62.4795 86.7763 69.4633 93.76 78.0783 93.76Z" fill="black"/>
<path d="M15.5988 124.958C24.2138 124.958 31.1976 117.975 31.1976 109.36C31.1976 100.745 24.2138 93.7607 15.5988 93.7607C6.98382 93.7607 0 100.745 0 109.36C0 117.975 6.98382 124.958 15.5988 124.958Z" fill="black"/>
<path d="M46.88 124.958C55.495 124.958 62.4788 117.975 62.4788 109.36C62.4788 100.745 55.495 93.7607 46.88 93.7607C38.2651 93.7607 31.2812 100.745 31.2812 109.36C31.2812 117.975 38.2651 124.958 46.88 124.958Z" fill="black"/>
<path d="M78.0783 124.958C86.6933 124.958 93.6771 117.975 93.6771 109.36C93.6771 100.745 86.6933 93.7607 78.0783 93.7607C69.4633 93.7607 62.4795 100.745 62.4795 109.36C62.4795 117.975 69.4633 124.958 78.0783 124.958Z" fill="black"/>
<path d="M15.5988 156.24C24.2138 156.24 31.1976 149.256 31.1976 140.641C31.1976 132.026 24.2138 125.042 15.5988 125.042C6.98382 125.042 0 132.026 0 140.641C0 149.256 6.98382 156.24 15.5988 156.24Z" fill="black"/>
<path d="M46.88 156.24C55.495 156.24 62.4788 149.256 62.4788 140.641C62.4788 132.026 55.495 125.042 46.88 125.042C38.2651 125.042 31.2812 132.026 31.2812 140.641C31.2812 149.256 38.2651 156.24 46.88 156.24Z" fill="black"/>
<path d="M78.0783 156.24C86.6933 156.24 93.6771 149.256 93.6771 140.641C93.6771 132.026 86.6933 125.042 78.0783 125.042C69.4633 125.042 62.4795 132.026 62.4795 140.641C62.4795 149.256 69.4633 156.24 78.0783 156.24Z" fill="black"/>
<path d="M15.5988 187.521C24.2138 187.521 31.1976 180.537 31.1976 171.922C31.1976 163.307 24.2138 156.323 15.5988 156.323C6.98382 156.323 0 163.307 0 171.922C0 180.537 6.98382 187.521 15.5988 187.521Z" fill="black"/>
<path d="M46.88 187.521C55.495 187.521 62.4788 180.537 62.4788 171.922C62.4788 163.307 55.495 156.323 46.88 156.323C38.2651 156.323 31.2812 163.307 31.2812 171.922C31.2812 180.537 38.2651 187.521 46.88 187.521Z" fill="black"/>
<path d="M78.0783 187.521C86.6933 187.521 93.6771 180.537 93.6771 171.922C93.6771 163.307 86.6933 156.323 78.0783 156.323C69.4633 156.323 62.4795 163.307 62.4795 171.922C62.4795 180.537 69.4633 187.521 78.0783 187.521Z" fill="black"/>
<path d="M15.5988 218.718C24.2138 218.718 31.1976 211.734 31.1976 203.119C31.1976 194.504 24.2138 187.521 15.5988 187.521C6.98382 187.521 0 194.504 0 203.119C0 211.734 6.98382 218.718 15.5988 218.718Z" fill="black"/>
<path d="M46.88 218.718C55.495 218.718 62.4788 211.734 62.4788 203.119C62.4788 194.504 55.495 187.521 46.88 187.521C38.2651 187.521 31.2812 194.504 31.2812 203.119C31.2812 211.734 38.2651 218.718 46.88 218.718Z" fill="black"/>
<path d="M78.0783 218.718C86.6933 218.718 93.6771 211.734 93.6771 203.119C93.6771 194.504 86.6933 187.521 78.0783 187.521C69.4633 187.521 62.4795 194.504 62.4795 203.119C62.4795 211.734 69.4633 218.718 78.0783 218.718Z" fill="black"/>
<path d="M15.5988 250C24.2138 250 31.1976 243.017 31.1976 234.402C31.1976 225.787 24.2138 218.803 15.5988 218.803C6.98382 218.803 0 225.787 0 234.402C0 243.017 6.98382 250 15.5988 250Z" fill="black"/>
<path d="M46.88 250C55.495 250 62.4788 243.017 62.4788 234.402C62.4788 225.787 55.495 218.803 46.88 218.803C38.2651 218.803 31.2812 225.787 31.2812 234.402C31.2812 243.017 38.2651 250 46.88 250Z" fill="black"/>
<path d="M78.0783 250C86.6933 250 93.6771 243.017 93.6771 234.402C93.6771 225.787 86.6933 218.803 78.0783 218.803C69.4633 218.803 62.4795 225.787 62.4795 234.402C62.4795 243.017 69.4633 250 78.0783 250Z" fill="black"/>
<path d="M15.5988 281.281C24.2138 281.281 31.1976 274.298 31.1976 265.683C31.1976 257.068 24.2138 250.084 15.5988 250.084C6.98382 250.084 0 257.068 0 265.683C0 274.298 6.98382 281.281 15.5988 281.281Z" fill="black"/>
<path d="M46.88 281.281C55.495 281.281 62.4788 274.298 62.4788 265.683C62.4788 257.068 55.495 250.084 46.88 250.084C38.2651 250.084 31.2812 257.068 31.2812 265.683C31.2812 274.298 38.2651 281.281 46.88 281.281Z" fill="black"/>
<path d="M78.0783 281.281C86.6933 281.281 93.6771 274.298 93.6771 265.683C93.6771 257.068 86.6933 250.084 78.0783 250.084C69.4633 250.084 62.4795 257.068 62.4795 265.683C62.4795 274.298 69.4633 281.281 78.0783 281.281Z" fill="black"/>
<path d="M15.5988 312.479C24.2138 312.479 31.1976 305.495 31.1976 296.88C31.1976 288.265 24.2138 281.281 15.5988 281.281C6.98382 281.281 0 288.265 0 296.88C0 305.495 6.98382 312.479 15.5988 312.479Z" fill="black"/>
<path d="M46.88 312.479C55.495 312.479 62.4788 305.495 62.4788 296.88C62.4788 288.265 55.495 281.281 46.88 281.281C38.2651 281.281 31.2812 288.265 31.2812 296.88C31.2812 305.495 38.2651 312.479 46.88 312.479Z" fill="black"/>
<path d="M78.0783 312.479C86.6933 312.479 93.6771 305.495 93.6771 296.88C93.6771 288.265 86.6933 281.281 78.0783 281.281C69.4633 281.281 62.4795 288.265 62.4795 296.88C62.4795 305.495 69.4633 312.479 78.0783 312.479Z" fill="black"/>
<path d="M15.5988 343.76C24.2138 343.76 31.1976 336.776 31.1976 328.161C31.1976 319.546 24.2138 312.562 15.5988 312.562C6.98382 312.562 0 319.546 0 328.161C0 336.776 6.98382 343.76 15.5988 343.76Z" fill="black"/>
<path d="M46.88 343.76C55.495 343.76 62.4788 336.776 62.4788 328.161C62.4788 319.546 55.495 312.562 46.88 312.562C38.2651 312.562 31.2812 319.546 31.2812 328.161C31.2812 336.776 38.2651 343.76 46.88 343.76Z" fill="black"/>
<path d="M78.0783 343.76C86.6933 343.76 93.6771 336.776 93.6771 328.161C93.6771 319.546 86.6933 312.562 78.0783 312.562C69.4633 312.562 62.4795 319.546 62.4795 328.161C62.4795 336.776 69.4633 343.76 78.0783 343.76Z" fill="black"/>
<path d="M15.5988 375.042C24.2138 375.042 31.1976 368.059 31.1976 359.444C31.1976 350.829 24.2138 343.845 15.5988 343.845C6.98382 343.845 0 350.829 0 359.444C0 368.059 6.98382 375.042 15.5988 375.042Z" fill="black"/>
<path d="M46.88 375.042C55.495 375.042 62.4788 368.059 62.4788 359.444C62.4788 350.829 55.495 343.845 46.88 343.845C38.2651 343.845 31.2812 350.829 31.2812 359.444C31.2812 368.059 38.2651 375.042 46.88 375.042Z" fill="black"/>
<path d="M78.0783 375.042C86.6933 375.042 93.6771 368.059 93.6771 359.444C93.6771 350.829 86.6933 343.845 78.0783 343.845C69.4633 343.845 62.4795 350.829 62.4795 359.444C62.4795 368.059 69.4633 375.042 78.0783 375.042Z" fill="black"/>
<path d="M15.5988 406.24C24.2138 406.24 31.1976 399.256 31.1976 390.641C31.1976 382.026 24.2138 375.042 15.5988 375.042C6.98382 375.042 0 382.026 0 390.641C0 399.256 6.98382 406.24 15.5988 406.24Z" fill="black"/>
<path d="M46.88 406.24C55.495 406.24 62.4788 399.256 62.4788 390.641C62.4788 382.026 55.495 375.042 46.88 375.042C38.2651 375.042 31.2812 382.026 31.2812 390.641C31.2812 399.256 38.2651 406.24 46.88 406.24Z" fill="black"/>
<path d="M78.0783 406.24C86.6933 406.24 93.6771 399.256 93.6771 390.641C93.6771 382.026 86.6933 375.042 78.0783 375.042C69.4633 375.042 62.4795 382.026 62.4795 390.641C62.4795 399.256 69.4633 406.24 78.0783 406.24Z" fill="black"/>
<path d="M15.5988 437.521C24.2138 437.521 31.1976 430.537 31.1976 421.922C31.1976 413.307 24.2138 406.323 15.5988 406.323C6.98382 406.323 0 413.307 0 421.922C0 430.537 6.98382 437.521 15.5988 437.521Z" fill="black"/>
<path d="M46.88 437.521C55.495 437.521 62.4788 430.537 62.4788 421.922C62.4788 413.307 55.495 406.323 46.88 406.323C38.2651 406.323 31.2812 413.307 31.2812 421.922C31.2812 430.537 38.2651 437.521 46.88 437.521Z" fill="black"/>
<path d="M78.0783 437.521C86.6933 437.521 93.6771 430.537 93.6771 421.922C93.6771 413.307 86.6933 406.323 78.0783 406.323C69.4633 406.323 62.4795 413.307 62.4795 421.922C62.4795 430.537 69.4633 437.521 78.0783 437.521Z" fill="black"/>
<path d="M15.5988 468.802C24.2138 468.802 31.1976 461.818 31.1976 453.203C31.1976 444.588 24.2138 437.604 15.5988 437.604C6.98382 437.604 0 444.588 0 453.203C0 461.818 6.98382 468.802 15.5988 468.802Z" fill="black"/>
<path d="M46.88 468.802C55.495 468.802 62.4788 461.818 62.4788 453.203C62.4788 444.588 55.495 437.604 46.88 437.604C38.2651 437.604 31.2812 444.588 31.2812 453.203C31.2812 461.818 38.2651 468.802 46.88 468.802Z" fill="black"/>
<path d="M78.0783 468.802C86.6933 468.802 93.6771 461.818 93.6771 453.203C93.6771 444.588 86.6933 437.604 78.0783 437.604C69.4633 437.604 62.4795 444.588 62.4795 453.203C62.4795 461.818 69.4633 468.802 78.0783 468.802Z" fill="black"/>
<path d="M15.5988 500.084C24.2138 500.084 31.1976 493.1 31.1976 484.486C31.1976 475.871 24.2138 468.887 15.5988 468.887C6.98382 468.887 0 475.871 0 484.486C0 493.1 6.98382 500.084 15.5988 500.084Z" fill="black"/>
<path d="M46.88 500.084C55.495 500.084 62.4788 493.1 62.4788 484.486C62.4788 475.871 55.495 468.887 46.88 468.887C38.2651 468.887 31.2812 475.871 31.2812 484.486C31.2812 493.1 38.2651 500.084 46.88 500.084Z" fill="black"/>
<path d="M78.0783 500.084C86.6933 500.084 93.6771 493.1 93.6771 484.486C93.6771 475.871 86.6933 468.887 78.0783 468.887C69.4633 468.887 62.4795 475.871 62.4795 484.486C62.4795 493.1 69.4633 500.084 78.0783 500.084Z" fill="black"/>
<path d="M328.161 31.1976C336.776 31.1976 343.76 24.2138 343.76 15.5988C343.76 6.98382 336.776 0 328.161 0C319.546 0 312.562 6.98382 312.562 15.5988C312.562 24.2138 319.546 31.1976 328.161 31.1976Z" fill="black"/>
<path d="M359.359 31.1976C367.974 31.1976 374.957 24.2138 374.957 15.5988C374.957 6.98382 367.974 0 359.359 0C350.744 0 343.76 6.98382 343.76 15.5988C343.76 24.2138 350.744 31.1976 359.359 31.1976Z" fill="black"/>
<path d="M390.641 31.1976C399.256 31.1976 406.24 24.2138 406.24 15.5988C406.24 6.98382 399.256 0 390.641 0C382.026 0 375.042 6.98382 375.042 15.5988C375.042 24.2138 382.026 31.1976 390.641 31.1976Z" fill="black"/>
<path d="M328.161 62.4788C336.776 62.4788 343.76 55.495 343.76 46.88C343.76 38.265 336.776 31.2812 328.161 31.2812C319.546 31.2812 312.562 38.265 312.562 46.88C312.562 55.495 319.546 62.4788 328.161 62.4788Z" fill="black"/>
<path d="M359.359 62.4788C367.974 62.4788 374.957 55.495 374.957 46.88C374.957 38.265 367.974 31.2812 359.359 31.2812C350.744 31.2812 343.76 38.265 343.76 46.88C343.76 55.495 350.744 62.4788 359.359 62.4788Z" fill="black"/>
<path d="M390.641 62.4788C399.256 62.4788 406.24 55.495 406.24 46.88C406.24 38.265 399.256 31.2812 390.641 31.2812C382.026 31.2812 375.042 38.265 375.042 46.88C375.042 55.495 382.026 62.4788 390.641 62.4788Z" fill="black"/>
<path d="M328.161 93.76C336.776 93.76 343.76 86.7763 343.76 78.1613C343.76 69.5463 336.776 62.5625 328.161 62.5625C319.546 62.5625 312.562 69.5463 312.562 78.1613C312.562 86.7763 319.546 93.76 328.161 93.76Z" fill="black"/>
<path d="M359.359 93.76C367.974 93.76 374.957 86.7763 374.957 78.1613C374.957 69.5463 367.974 62.5625 359.359 62.5625C350.744 62.5625 343.76 69.5463 343.76 78.1613C343.76 86.7763 350.744 93.76 359.359 93.76Z" fill="black"/>
<path d="M390.641 93.76C399.256 93.76 406.24 86.7763 406.24 78.1613C406.24 69.5463 399.256 62.5625 390.641 62.5625C382.026 62.5625 375.042 69.5463 375.042 78.1613C375.042 86.7763 382.026 93.76 390.641 93.76Z" fill="black"/>
<path d="M328.161 124.958C336.776 124.958 343.76 117.975 343.76 109.36C343.76 100.745 336.776 93.7607 328.161 93.7607C319.546 93.7607 312.562 100.745 312.562 109.36C312.562 117.975 319.546 124.958 328.161 124.958Z" fill="black"/>
<path d="M359.359 124.958C367.974 124.958 374.957 117.975 374.957 109.36C374.957 100.745 367.974 93.7607 359.359 93.7607C350.744 93.7607 343.76 100.745 343.76 109.36C343.76 117.975 350.744 124.958 359.359 124.958Z" fill="black"/>
<path d="M390.641 124.958C399.256 124.958 406.24 117.975 406.24 109.36C406.24 100.745 399.256 93.7607 390.641 93.7607C382.026 93.7607 375.042 100.745 375.042 109.36C375.042 117.975 382.026 124.958 390.641 124.958Z" fill="black"/>
<path d="M328.161 156.24C336.776 156.24 343.76 149.256 343.76 140.641C343.76 132.026 336.776 125.042 328.161 125.042C319.546 125.042 312.562 132.026 312.562 140.641C312.562 149.256 319.546 156.24 328.161 156.24Z" fill="black"/>
<path d="M359.359 156.24C367.974 156.24 374.957 149.256 374.957 140.641C374.957 132.026 367.974 125.042 359.359 125.042C350.744 125.042 343.76 132.026 343.76 140.641C343.76 149.256 350.744 156.24 359.359 156.24Z" fill="black"/>
<path d="M390.641 156.24C399.256 156.24 406.24 149.256 406.24 140.641C406.24 132.026 399.256 125.042 390.641 125.042C382.026 125.042 375.042 132.026 375.042 140.641C375.042 149.256 382.026 156.24 390.641 156.24Z" fill="black"/>
<path d="M328.161 187.521C336.776 187.521 343.76 180.537 343.76 171.922C343.76 163.307 336.776 156.323 328.161 156.323C319.546 156.323 312.562 163.307 312.562 171.922C312.562 180.537 319.546 187.521 328.161 187.521Z" fill="black"/>
<path d="M359.359 187.521C367.974 187.521 374.957 180.537 374.957 171.922C374.957 163.307 367.974 156.323 359.359 156.323C350.744 156.323 343.76 163.307 343.76 171.922C343.76 180.537 350.744 187.521 359.359 187.521Z" fill="black"/>
<path d="M390.641 187.521C399.256 187.521 406.24 180.537 406.24 171.922C406.24 163.307 399.256 156.323 390.641 156.323C382.026 156.323 375.042 163.307 375.042 171.922C375.042 180.537 382.026 187.521 390.641 187.521Z" fill="black"/>
<path d="M328.161 218.718C336.776 218.718 343.76 211.734 343.76 203.119C343.76 194.504 336.776 187.521 328.161 187.521C319.546 187.521 312.562 194.504 312.562 203.119C312.562 211.734 319.546 218.718 328.161 218.718Z" fill="black"/>
<path d="M359.359 218.718C367.974 218.718 374.957 211.734 374.957 203.119C374.957 194.504 367.974 187.521 359.359 187.521C350.744 187.521 343.76 194.504 343.76 203.119C343.76 211.734 350.744 218.718 359.359 218.718Z" fill="black"/>
<path d="M390.641 218.718C399.256 218.718 406.24 211.734 406.24 203.119C406.24 194.504 399.256 187.521 390.641 187.521C382.026 187.521 375.042 194.504 375.042 203.119C375.042 211.734 382.026 218.718 390.641 218.718Z" fill="black"/>
<path d="M328.161 250C336.776 250 343.76 243.017 343.76 234.402C343.76 225.787 336.776 218.803 328.161 218.803C319.546 218.803 312.562 225.787 312.562 234.402C312.562 243.017 319.546 250 328.161 250Z" fill="black"/>
<path d="M359.359 250C367.974 250 374.957 243.017 374.957 234.402C374.957 225.787 367.974 218.803 359.359 218.803C350.744 218.803 343.76 225.787 343.76 234.402C343.76 243.017 350.744 250 359.359 250Z" fill="black"/>
<path d="M390.641 250C399.256 250 406.24 243.017 406.24 234.402C406.24 225.787 399.256 218.803 390.641 218.803C382.026 218.803 375.042 225.787 375.042 234.402C375.042 243.017 382.026 250 390.641 250Z" fill="black"/>
<path d="M328.161 281.281C336.776 281.281 343.76 274.298 343.76 265.683C343.76 257.068 336.776 250.084 328.161 250.084C319.546 250.084 312.562 257.068 312.562 265.683C312.562 274.298 319.546 281.281 328.161 281.281Z" fill="black"/>
<path d="M359.359 281.281C367.974 281.281 374.957 274.298 374.957 265.683C374.957 257.068 367.974 250.084 359.359 250.084C350.744 250.084 343.76 257.068 343.76 265.683C343.76 274.298 350.744 281.281 359.359 281.281Z" fill="black"/>
<path d="M390.641 281.281C399.256 281.281 406.24 274.298 406.24 265.683C406.24 257.068 399.256 250.084 390.641 250.084C382.026 250.084 375.042 257.068 375.042 265.683C375.042 274.298 382.026 281.281 390.641 281.281Z" fill="black"/>
<path d="M328.161 312.479C336.776 312.479 343.76 305.495 343.76 296.88C343.76 288.265 336.776 281.281 328.161 281.281C319.546 281.281 312.562 288.265 312.562 296.88C312.562 305.495 319.546 312.479 328.161 312.479Z" fill="black"/>
<path d="M359.359 312.479C367.974 312.479 374.957 305.495 374.957 296.88C374.957 288.265 367.974 281.281 359.359 281.281C350.744 281.281 343.76 288.265 343.76 296.88C343.76 305.495 350.744 312.479 359.359 312.479Z" fill="black"/>
<path d="M390.641 312.479C399.256 312.479 406.24 305.495 406.24 296.88C406.24 288.265 399.256 281.281 390.641 281.281C382.026 281.281 375.042 288.265 375.042 296.88C375.042 305.495 382.026 312.479 390.641 312.479Z" fill="black"/>
<path d="M328.161 343.76C336.776 343.76 343.76 336.776 343.76 328.161C343.76 319.546 336.776 312.562 328.161 312.562C319.546 312.562 312.562 319.546 312.562 328.161C312.562 336.776 319.546 343.76 328.161 343.76Z" fill="black"/>
<path d="M359.359 343.76C367.974 343.76 374.957 336.776 374.957 328.161C374.957 319.546 367.974 312.562 359.359 312.562C350.744 312.562 343.76 319.546 343.76 328.161C343.76 336.776 350.744 343.76 359.359 343.76Z" fill="black"/>
<path d="M390.641 343.76C399.256 343.76 406.24 336.776 406.24 328.161C406.24 319.546 399.256 312.562 390.641 312.562C382.026 312.562 375.042 319.546 375.042 328.161C375.042 336.776 382.026 343.76 390.641 343.76Z" fill="black"/>
<path d="M328.161 375.042C336.776 375.042 343.76 368.059 343.76 359.444C343.76 350.829 336.776 343.845 328.161 343.845C319.546 343.845 312.562 350.829 312.562 359.444C312.562 368.059 319.546 375.042 328.161 375.042Z" fill="black"/>
<path d="M359.359 375.042C367.974 375.042 374.957 368.059 374.957 359.444C374.957 350.829 367.974 343.845 359.359 343.845C350.744 343.845 343.76 350.829 343.76 359.444C343.76 368.059 350.744 375.042 359.359 375.042Z" fill="black"/>
<path d="M390.641 375.042C399.256 375.042 406.24 368.059 406.24 359.444C406.24 350.829 399.256 343.845 390.641 343.845C382.026 343.845 375.042 350.829 375.042 359.444C375.042 368.059 382.026 375.042 390.641 375.042Z" fill="black"/>
<path d="M328.161 406.24C336.776 406.24 343.76 399.256 343.76 390.641C343.76 382.026 336.776 375.042 328.161 375.042C319.546 375.042 312.562 382.026 312.562 390.641C312.562 399.256 319.546 406.24 328.161 406.24Z" fill="black"/>
<path d="M359.359 406.24C367.974 406.24 374.957 399.256 374.957 390.641C374.957 382.026 367.974 375.042 359.359 375.042C350.744 375.042 343.76 382.026 343.76 390.641C343.76 399.256 350.744 406.24 359.359 406.24Z" fill="black"/>
<path d="M390.641 406.24C399.256 406.24 406.24 399.256 406.24 390.641C406.24 382.026 399.256 375.042 390.641 375.042C382.026 375.042 375.042 382.026 375.042 390.641C375.042 399.256 382.026 406.24 390.641 406.24Z" fill="black"/>
<path d="M328.161 437.521C336.776 437.521 343.76 430.537 343.76 421.922C343.76 413.307 336.776 406.323 328.161 406.323C319.546 406.323 312.562 413.307 312.562 421.922C312.562 430.537 319.546 437.521 328.161 437.521Z" fill="black"/>
<path d="M359.359 437.521C367.974 437.521 374.957 430.537 374.957 421.922C374.957 413.307 367.974 406.323 359.359 406.323C350.744 406.323 343.76 413.307 343.76 421.922C343.76 430.537 350.744 437.521 359.359 437.521Z" fill="black"/>
<path d="M390.641 437.521C399.256 437.521 406.24 430.537 406.24 421.922C406.24 413.307 399.256 406.323 390.641 406.323C382.026 406.323 375.042 413.307 375.042 421.922C375.042 430.537 382.026 437.521 390.641 437.521Z" fill="black"/>
<path d="M328.161 468.802C336.776 468.802 343.76 461.818 343.76 453.203C343.76 444.588 336.776 437.604 328.161 437.604C319.546 437.604 312.562 444.588 312.562 453.203C312.562 461.818 319.546 468.802 328.161 468.802Z" fill="black"/>
<path d="M359.359 468.802C367.974 468.802 374.957 461.818 374.957 453.203C374.957 444.588 367.974 437.604 359.359 437.604C350.744 437.604 343.76 444.588 343.76 453.203C343.76 461.818 350.744 468.802 359.359 468.802Z" fill="black"/>
<path d="M390.641 468.802C399.256 468.802 406.24 461.818 406.24 453.203C406.24 444.588 399.256 437.604 390.641 437.604C382.026 437.604 375.042 444.588 375.042 453.203C375.042 461.818 382.026 468.802 390.641 468.802Z" fill="black"/>
<path d="M328.161 500.084C336.776 500.084 343.76 493.1 343.76 484.486C343.76 475.871 336.776 468.887 328.161 468.887C319.546 468.887 312.562 475.871 312.562 484.486C312.562 493.1 319.546 500.084 328.161 500.084Z" fill="black"/>
<path d="M359.359 500.084C367.974 500.084 374.957 493.1 374.957 484.486C374.957 475.871 367.974 468.887 359.359 468.887C350.744 468.887 343.76 475.871 343.76 484.486C343.76 493.1 350.744 500.084 359.359 500.084Z" fill="black"/>
<path d="M390.641 500.084C399.256 500.084 406.24 493.1 406.24 484.486C406.24 475.871 399.256 468.887 390.641 468.887C382.026 468.887 375.042 475.871 375.042 484.486C375.042 493.1 382.026 500.084 390.641 500.084Z" fill="black"/>
<path d="M109.36 62.4788C117.975 62.4788 124.958 55.495 124.958 46.88C124.958 38.265 117.975 31.2812 109.36 31.2812C100.745 31.2812 93.7607 38.265 93.7607 46.88C93.7607 55.495 100.745 62.4788 109.36 62.4788Z" fill="black"/>
<path d="M140.641 62.4788C149.256 62.4788 156.24 55.495 156.24 46.88C156.24 38.265 149.256 31.2812 140.641 31.2812C132.026 31.2812 125.042 38.265 125.042 46.88C125.042 55.495 132.026 62.4788 140.641 62.4788Z" fill="black"/>
<path d="M171.838 62.4788C180.453 62.4788 187.437 55.495 187.437 46.88C187.437 38.265 180.453 31.2812 171.838 31.2812C163.223 31.2812 156.239 38.265 156.239 46.88C156.239 55.495 163.223 62.4788 171.838 62.4788Z" fill="black"/>
<path d="M109.36 93.76C117.975 93.76 124.958 86.7763 124.958 78.1613C124.958 69.5463 117.975 62.5625 109.36 62.5625C100.745 62.5625 93.7607 69.5463 93.7607 78.1613C93.7607 86.7763 100.745 93.76 109.36 93.76Z" fill="black"/>
<path d="M140.641 93.76C149.256 93.76 156.24 86.7763 156.24 78.1613C156.24 69.5463 149.256 62.5625 140.641 62.5625C132.026 62.5625 125.042 69.5463 125.042 78.1613C125.042 86.7763 132.026 93.76 140.641 93.76Z" fill="black"/>
<path d="M171.838 93.76C180.453 93.76 187.437 86.7763 187.437 78.1613C187.437 69.5463 180.453 62.5625 171.838 62.5625C163.223 62.5625 156.239 69.5463 156.239 78.1613C156.239 86.7763 163.223 93.76 171.838 93.76Z" fill="black"/>
<path d="M140.641 124.958C149.256 124.958 156.24 117.975 156.24 109.36C156.24 100.745 149.256 93.7607 140.641 93.7607C132.026 93.7607 125.042 100.745 125.042 109.36C125.042 117.975 132.026 124.958 140.641 124.958Z" fill="black"/>
<path d="M171.838 124.958C180.453 124.958 187.437 117.975 187.437 109.36C187.437 100.745 180.453 93.7607 171.838 93.7607C163.223 93.7607 156.239 100.745 156.239 109.36C156.239 117.975 163.223 124.958 171.838 124.958Z" fill="black"/>
<path d="M203.119 124.958C211.734 124.958 218.718 117.975 218.718 109.36C218.718 100.745 211.734 93.7607 203.119 93.7607C194.504 93.7607 187.521 100.745 187.521 109.36C187.521 117.975 194.504 124.958 203.119 124.958Z" fill="black"/>
<path d="M140.641 156.24C149.256 156.24 156.24 149.256 156.24 140.641C156.24 132.026 149.256 125.042 140.641 125.042C132.026 125.042 125.042 132.026 125.042 140.641C125.042 149.256 132.026 156.24 140.641 156.24Z" fill="black"/>
<path d="M171.838 156.24C180.453 156.24 187.437 149.256 187.437 140.641C187.437 132.026 180.453 125.042 171.838 125.042C163.223 125.042 156.239 132.026 156.239 140.641C156.239 149.256 163.223 156.24 171.838 156.24Z" fill="black"/>
<path d="M203.119 156.24C211.734 156.24 218.718 149.256 218.718 140.641C218.718 132.026 211.734 125.042 203.119 125.042C194.504 125.042 187.521 132.026 187.521 140.641C187.521 149.256 194.504 156.24 203.119 156.24Z" fill="black"/>
<path d="M171.838 187.521C180.453 187.521 187.437 180.537 187.437 171.922C187.437 163.307 180.453 156.323 171.838 156.323C163.223 156.323 156.239 163.307 156.239 171.922C156.239 180.537 163.223 187.521 171.838 187.521Z" fill="black"/>
<path d="M203.119 187.521C211.734 187.521 218.718 180.537 218.718 171.922C218.718 163.307 211.734 156.323 203.119 156.323C194.504 156.323 187.521 163.307 187.521 171.922C187.521 180.537 194.504 187.521 203.119 187.521Z" fill="black"/>
<path d="M234.402 186.766C243.017 186.766 250 179.782 250 171.167C250 162.552 243.017 155.568 234.402 155.568C225.787 155.568 218.803 162.552 218.803 171.167C218.803 179.782 225.787 186.766 234.402 186.766Z" fill="black"/>
<path d="M171.838 218.718C180.453 218.718 187.437 211.734 187.437 203.119C187.437 194.504 180.453 187.521 171.838 187.521C163.223 187.521 156.239 194.504 156.239 203.119C156.239 211.734 163.223 218.718 171.838 218.718Z" fill="black"/>
<path d="M203.119 218.718C211.734 218.718 218.718 211.734 218.718 203.119C218.718 194.504 211.734 187.521 203.119 187.521C194.504 187.521 187.521 194.504 187.521 203.119C187.521 211.734 194.504 218.718 203.119 218.718Z" fill="black"/>
<path d="M234.402 218.047C243.017 218.047 250 211.063 250 202.448C250 193.833 243.017 186.85 234.402 186.85C225.787 186.85 218.803 193.833 218.803 202.448C218.803 211.063 225.787 218.047 234.402 218.047Z" fill="black"/>
<path d="M171.838 250C180.453 250 187.437 243.017 187.437 234.402C187.437 225.787 180.453 218.803 171.838 218.803C163.223 218.803 156.239 225.787 156.239 234.402C156.239 243.017 163.223 250 171.838 250Z" fill="black"/>
<path d="M203.119 250C211.734 250 218.718 243.017 218.718 234.402C218.718 225.787 211.734 218.803 203.119 218.803C194.504 218.803 187.521 225.787 187.521 234.402C187.521 243.017 194.504 250 203.119 250Z" fill="black"/>
<path d="M234.402 249.329C243.017 249.329 250 242.346 250 233.731C250 225.116 243.017 218.132 234.402 218.132C225.787 218.132 218.803 225.116 218.803 233.731C218.803 242.346 225.787 249.329 234.402 249.329Z" fill="black"/>
<path d="M203.119 281.281C211.734 281.281 218.718 274.298 218.718 265.683C218.718 257.068 211.734 250.084 203.119 250.084C194.504 250.084 187.521 257.068 187.521 265.683C187.521 274.298 194.504 281.281 203.119 281.281Z" fill="black"/>
<path d="M234.402 280.527C243.017 280.527 250 273.543 250 264.928C250 256.313 243.017 249.329 234.402 249.329C225.787 249.329 218.803 256.313 218.803 264.928C218.803 273.543 225.787 280.527 234.402 280.527Z" fill="black"/>
<path d="M203.119 312.479C211.734 312.479 218.718 305.495 218.718 296.88C218.718 288.265 211.734 281.281 203.119 281.281C194.504 281.281 187.521 288.265 187.521 296.88C187.521 305.495 194.504 312.479 203.119 312.479Z" fill="black"/>
<path d="M234.402 311.808C243.017 311.808 250 304.824 250 296.209C250 287.594 243.017 280.61 234.402 280.61C225.787 280.61 218.803 287.594 218.803 296.209C218.803 304.824 225.787 311.808 234.402 311.808Z" fill="black"/>
<path d="M265.599 311.808C274.214 311.808 281.198 304.824 281.198 296.209C281.198 287.594 274.214 280.61 265.599 280.61C256.984 280.61 250 287.594 250 296.209C250 304.824 256.984 311.808 265.599 311.808Z" fill="black"/>
<path d="M203.119 343.76C211.734 343.76 218.718 336.776 218.718 328.161C218.718 319.546 211.734 312.562 203.119 312.562C194.504 312.562 187.521 319.546 187.521 328.161C187.521 336.776 194.504 343.76 203.119 343.76Z" fill="black"/>
<path d="M234.402 343.089C243.017 343.089 250 336.105 250 327.49C250 318.875 243.017 311.892 234.402 311.892C225.787 311.892 218.803 318.875 218.803 327.49C218.803 336.105 225.787 343.089 234.402 343.089Z" fill="black"/>
<path d="M265.599 343.089C274.214 343.089 281.198 336.105 281.198 327.49C281.198 318.875 274.214 311.892 265.599 311.892C256.984 311.892 250 318.875 250 327.49C250 336.105 256.984 343.089 265.599 343.089Z" fill="black"/>
<path d="M234.402 374.287C243.017 374.287 250 367.304 250 358.689C250 350.074 243.017 343.09 234.402 343.09C225.787 343.09 218.803 350.074 218.803 358.689C218.803 367.304 225.787 374.287 234.402 374.287Z" fill="black"/>
<path d="M265.599 374.287C274.214 374.287 281.198 367.304 281.198 358.689C281.198 350.074 274.214 343.09 265.599 343.09C256.984 343.09 250 350.074 250 358.689C250 367.304 256.984 374.287 265.599 374.287Z" fill="black"/>
<path d="M234.402 405.569C243.017 405.569 250 398.585 250 389.97C250 381.355 243.017 374.371 234.402 374.371C225.787 374.371 218.803 381.355 218.803 389.97C218.803 398.585 225.787 405.569 234.402 405.569Z" fill="black"/>
<path d="M265.599 405.569C274.214 405.569 281.198 398.585 281.198 389.97C281.198 381.355 274.214 374.371 265.599 374.371C256.984 374.371 250 381.355 250 389.97C250 398.585 256.984 405.569 265.599 405.569Z" fill="black"/>
<path d="M265.599 436.85C274.214 436.85 281.198 429.866 281.198 421.251C281.198 412.636 274.214 405.652 265.599 405.652C256.984 405.652 250 412.636 250 421.251C250 429.866 256.984 436.85 265.599 436.85Z" fill="black"/>
<path d="M296.88 437.521C305.495 437.521 312.479 430.537 312.479 421.922C312.479 413.307 305.495 406.323 296.88 406.323C288.265 406.323 281.281 413.307 281.281 421.922C281.281 430.537 288.265 437.521 296.88 437.521Z" fill="black"/>
<path d="M296.88 468.802C305.495 468.802 312.479 461.818 312.479 453.203C312.479 444.588 305.495 437.604 296.88 437.604C288.265 437.604 281.281 444.588 281.281 453.203C281.281 461.818 288.265 468.802 296.88 468.802Z" fill="black"/>
<path d="M296.88 500.084C305.495 500.084 312.479 493.1 312.479 484.486C312.479 475.871 305.495 468.887 296.88 468.887C288.265 468.887 281.281 475.871 281.281 484.486C281.281 493.1 288.265 500.084 296.88 500.084Z" fill="black"/>
<path d="M296.88 406.24C305.495 406.24 312.479 399.256 312.479 390.641C312.479 382.026 305.495 375.042 296.88 375.042C288.265 375.042 281.281 382.026 281.281 390.641C281.281 399.256 288.265 406.24 296.88 406.24Z" fill="black"/>
<path d="M171.838 62.4788C180.453 62.4788 187.437 55.495 187.437 46.88C187.437 38.265 180.453 31.2812 171.838 31.2812C163.223 31.2812 156.239 38.265 156.239 46.88C156.239 55.495 163.223 62.4788 171.838 62.4788Z" fill="black"/>
<path d="M265.599 468.047C274.214 468.047 281.198 461.063 281.198 452.448C281.198 443.833 274.214 436.85 265.599 436.85C256.984 436.85 250 443.833 250 452.448C250 461.063 256.984 468.047 265.599 468.047Z" fill="black"/>
<path d="M203.119 93.76C211.734 93.76 218.718 86.7763 218.718 78.1613C218.718 69.5463 211.734 62.5625 203.119 62.5625C194.504 62.5625 187.521 69.5463 187.521 78.1613C187.521 86.7763 194.504 93.76 203.119 93.76Z" fill="black"/>
<path d="M234.402 436.85C243.017 436.85 250 429.866 250 421.251C250 412.636 243.017 405.652 234.402 405.652C225.787 405.652 218.803 412.636 218.803 421.251C218.803 429.866 225.787 436.85 234.402 436.85Z" fill="black"/>
</svg>
