<svg width="1065" height="506" viewBox="0 0 1065 506" fill="none" xmlns="http://www.w3.org/2000/svg">
<path d="M80.8221 503.001C89.3997 503.001 96.3531 496.047 96.3531 487.47C96.3531 478.892 89.3997 471.938 80.8221 471.938C72.2445 471.938 65.291 478.892 65.291 487.47C65.291 496.047 72.2445 503.001 80.8221 503.001Z" stroke="black" stroke-width="5" stroke-miterlimit="10"/>
<path d="M65.2913 20.7025C65.2913 29.303 58.2772 36.2335 49.6767 36.2335C41.0761 36.2335 34.1456 43.164 34.1456 51.7646C34.1456 60.3651 27.2151 67.3791 18.6145 67.3791C10.014 67.3791 3 60.3651 3 51.7646C3 43.164 10.014 36.2335 18.6145 36.2335C27.2151 36.2335 34.1456 29.303 34.1456 20.7025C34.1456 12.1019 41.0761 5.08789 49.6767 5.08789C58.2772 5.08789 65.2913 12.1019 65.2913 20.7025Z" stroke="black" stroke-width="5" stroke-miterlimit="10"/>
<path d="M127.499 20.7025C127.499 29.303 120.569 36.2335 111.968 36.2335C103.367 36.2335 96.3534 43.164 96.3534 51.7646C96.3534 60.3651 89.4229 67.3791 80.8224 67.3791C72.2218 67.3791 65.2913 74.3097 65.2913 82.9102C65.2913 91.5107 58.2772 98.4413 49.6767 98.4413C41.0761 98.4413 34.1456 105.455 34.1456 114.056C34.1456 122.656 27.2151 129.587 18.6145 129.587C10.014 129.587 3 122.656 3 114.056C3 105.455 10.014 98.4413 18.6145 98.4413C27.2151 98.4413 34.1456 91.5107 34.1456 82.9102C34.1456 74.3097 41.0761 67.3791 49.6767 67.3791C58.2772 67.3791 65.2913 60.3651 65.2913 51.7646C65.2913 43.164 72.2218 36.2335 80.8224 36.2335C89.4229 36.2335 96.3534 29.303 96.3534 20.7025C96.3534 12.1019 103.367 5.08789 111.968 5.08789C120.569 5.08789 127.499 12.1019 127.499 20.7025Z" stroke="black" stroke-width="5" stroke-miterlimit="10"/>
<path d="M96.3534 114.056C96.3534 122.657 89.4229 129.587 80.8224 129.587C72.2218 129.587 65.2913 136.601 65.2913 145.118C65.2913 153.635 58.2772 160.733 49.6767 160.733C41.0761 160.733 34.1456 167.663 34.1456 176.264C34.1456 184.864 27.2151 191.795 18.6145 191.795C10.014 191.795 3 184.864 3 176.264C3 167.663 10.014 160.733 18.6145 160.733C27.2151 160.733 34.1456 153.719 34.1456 145.118C34.1456 136.518 41.0761 129.587 49.6767 129.587C58.2772 129.587 65.2913 122.657 65.2913 114.056C65.2913 105.455 72.2218 98.4414 80.8224 98.4414C89.4229 98.4414 96.3534 105.455 96.3534 114.056Z" stroke="black" stroke-width="5" stroke-miterlimit="10"/>
<path d="M96.3534 176.263C96.3534 184.864 89.4229 191.795 80.8224 191.795C72.2218 191.795 65.2913 198.809 65.2913 207.409C65.2913 216.01 58.2772 222.94 49.6767 222.94C41.0761 222.94 34.1456 229.954 34.1456 238.471C34.1456 246.988 27.2151 254.086 18.6145 254.086C10.014 254.086 3 247.072 3 238.471C3 229.871 10.014 222.94 18.6145 222.94C27.2151 222.94 34.1456 216.01 34.1456 207.409C34.1456 198.809 41.0761 191.795 49.6767 191.795C58.2772 191.795 65.2913 184.864 65.2913 176.263C65.2913 167.663 72.2218 160.732 80.8224 160.732C89.4229 160.732 96.3534 167.663 96.3534 176.263Z" stroke="black" stroke-width="5" stroke-miterlimit="10"/>
<path d="M96.3534 238.471C96.3534 247.072 89.4229 254.086 80.8224 254.086C72.2218 254.086 65.2913 261.017 65.2913 269.617C65.2913 278.218 58.2772 285.232 49.6767 285.232C41.0761 285.232 34.1456 292.162 34.1456 300.763C34.1456 309.363 27.2151 316.294 18.6145 316.294C10.014 316.294 3 309.363 3 300.763C3 292.162 10.014 285.232 18.6145 285.232C27.2151 285.232 34.1456 278.218 34.1456 269.617C34.1456 261.017 41.0761 254.086 49.6767 254.086C58.2772 254.086 65.2913 247.072 65.2913 238.471C65.2913 229.871 72.2218 222.94 80.8224 222.94C89.4229 222.94 96.3534 229.954 96.3534 238.471Z" stroke="black" stroke-width="5" stroke-miterlimit="10"/>
<path d="M96.3534 300.763C96.3534 309.363 89.4229 316.294 80.8224 316.294C72.2218 316.294 65.2913 323.308 65.2913 331.908C65.2913 340.509 58.2772 347.439 49.6767 347.439C41.0761 347.439 34.1456 354.37 34.1456 362.97C34.1456 371.571 27.2151 378.585 18.6145 378.585C10.014 378.585 3 371.571 3 362.97C3 354.37 10.014 347.439 18.6145 347.439C27.2151 347.439 34.1456 340.425 34.1456 331.908C34.1456 323.391 41.0761 316.294 49.6767 316.294C58.2772 316.294 65.2913 309.363 65.2913 300.763C65.2913 292.162 72.2218 285.231 80.8224 285.231C89.4229 285.231 96.3534 292.162 96.3534 300.763Z" stroke="black" stroke-width="5" stroke-miterlimit="10"/>
<path d="M96.3534 362.971C96.3534 371.571 89.4229 378.585 80.8224 378.585C72.2218 378.585 65.2913 385.516 65.2913 394.116C65.2913 402.717 58.2772 409.647 49.6767 409.647C41.0761 409.647 34.1456 416.661 34.1456 425.262C34.1456 433.862 27.2151 440.793 18.6145 440.793C10.014 440.793 3 433.779 3 425.262C3 416.745 10.014 409.647 18.6145 409.647C27.2151 409.647 34.1456 402.717 34.1456 394.116C34.1456 385.516 41.0761 378.585 49.6767 378.585C58.2772 378.585 65.2913 371.571 65.2913 362.971C65.2913 354.37 72.2218 347.439 80.8224 347.439C89.4229 347.439 96.3534 354.37 96.3534 362.971Z" stroke="black" stroke-width="5" stroke-miterlimit="10"/>
<path d="M96.3534 425.262C96.3534 433.779 89.4229 440.793 80.8224 440.793C72.2218 440.793 65.2913 447.724 65.2913 456.324C65.2913 464.925 58.2772 471.939 49.6767 471.939C41.0761 471.939 34.1456 478.869 34.1456 487.47C34.1456 496.07 27.2151 503.001 18.6145 503.001C10.014 503.001 3 496.07 3 487.47C3 478.869 10.014 471.939 18.6145 471.939C27.2151 471.939 34.1456 464.925 34.1456 456.324C34.1456 447.724 41.0761 440.793 49.6767 440.793C58.2772 440.793 65.2913 433.779 65.2913 425.262C65.2913 416.745 72.2218 409.647 80.8224 409.647C89.4229 409.647 96.3534 416.661 96.3534 425.262Z" stroke="black" stroke-width="5" stroke-miterlimit="10"/>
<path d="M189.707 20.7025C189.707 29.303 182.776 36.2335 174.176 36.2335C165.575 36.2335 158.645 43.164 158.645 51.7646C158.645 60.3651 151.631 67.3791 143.03 67.3791C134.43 67.3791 127.499 74.3097 127.499 82.9102C127.499 91.5107 120.569 98.4413 111.968 98.4413C103.368 98.4413 96.3535 91.5107 96.3535 82.9102C96.3535 74.3097 103.368 67.3791 111.968 67.3791C120.569 67.3791 127.499 60.3651 127.499 51.7646C127.499 43.164 134.43 36.2335 143.03 36.2335C151.631 36.2335 158.645 29.303 158.645 20.7025C158.645 12.1019 165.575 5.08789 174.176 5.08789C182.776 5.08789 189.707 12.1019 189.707 20.7025Z" stroke="black" stroke-width="5" stroke-miterlimit="10"/>
<path d="M251.998 20.7025C251.998 29.303 244.984 36.2335 236.383 36.2335C227.783 36.2335 220.852 43.164 220.852 51.7646C220.852 60.3651 213.922 67.3791 205.321 67.3791C196.721 67.3791 189.707 74.3097 189.707 82.9102C189.707 91.5107 182.776 98.4413 174.176 98.4413C165.575 98.4413 158.645 91.5107 158.645 82.9102C158.645 74.3097 165.575 67.3791 174.176 67.3791C182.776 67.3791 189.707 60.3651 189.707 51.7646C189.707 43.164 196.721 36.2335 205.321 36.2335C213.922 36.2335 220.852 29.303 220.852 20.7025C220.852 12.1019 227.783 5.08789 236.383 5.08789C244.984 5.08789 251.998 12.1019 251.998 20.7025Z" stroke="black" stroke-width="5" stroke-miterlimit="10"/>
<path d="M283.06 51.7645C283.06 60.365 276.13 67.379 267.529 67.379C258.929 67.379 251.998 74.3095 251.998 82.9101C251.998 91.5106 244.984 98.4411 236.384 98.4411C227.783 98.4411 220.853 91.5106 220.853 82.9101C220.853 74.3095 227.783 67.379 236.384 67.379C244.984 67.379 251.998 60.365 251.998 51.7645C251.998 43.1639 258.929 36.2334 267.529 36.2334C276.13 36.2334 283.06 43.1639 283.06 51.7645Z" stroke="black" stroke-width="5" stroke-miterlimit="10"/>
<path d="M314.206 82.91C314.206 91.5105 307.275 98.441 298.675 98.441C290.074 98.441 283.06 105.455 283.06 114.056C283.06 122.656 276.13 129.587 267.529 129.587C258.929 129.587 251.998 122.656 251.998 114.056C251.998 105.455 258.929 98.441 267.529 98.441C276.13 98.441 283.06 91.5105 283.06 82.91C283.06 74.3094 290.074 67.3789 298.675 67.3789C307.275 67.3789 314.206 74.3094 314.206 82.91Z" stroke="black" stroke-width="5" stroke-miterlimit="10"/>
<path d="M345.351 114.056C345.351 122.657 338.337 129.587 329.737 129.587C321.136 129.587 314.206 136.601 314.206 145.118C314.206 153.635 307.275 160.733 298.675 160.733C290.074 160.733 283.06 167.663 283.06 176.264C283.06 184.864 276.13 191.795 267.529 191.795C258.929 191.795 251.998 184.864 251.998 176.264C251.998 167.663 258.929 160.733 267.529 160.733C276.13 160.733 283.06 153.719 283.06 145.118C283.06 136.518 290.074 129.587 298.675 129.587C307.275 129.587 314.206 122.657 314.206 114.056C314.206 105.455 321.22 98.4414 329.737 98.4414C338.254 98.4414 345.351 105.455 345.351 114.056Z" stroke="black" stroke-width="5" stroke-miterlimit="10"/>
<path d="M345.352 176.263C345.352 184.864 338.338 191.795 329.737 191.795C321.137 191.795 314.206 184.864 314.206 176.263C314.206 167.663 321.22 160.732 329.737 160.732C338.254 160.732 345.352 167.663 345.352 176.263Z" stroke="black" stroke-width="5" stroke-miterlimit="10"/>
<path d="M278.551 249.493C275.712 252.332 271.787 254.086 267.529 254.086C263.27 254.086 259.346 252.332 256.507 249.493C259.346 252.249 263.27 254.002 267.529 254.002C271.787 254.002 275.712 252.249 278.551 249.493Z" stroke="black" stroke-width="5" stroke-miterlimit="10"/>
<path d="M309.696 218.348C306.941 221.187 303.016 222.94 298.674 222.94H298.257C298.257 222.94 298.507 222.857 298.674 222.857C303.016 222.857 306.857 221.103 309.696 218.348Z" stroke="black" stroke-width="5" stroke-miterlimit="10"/>
<path d="M251.998 207.409C251.998 216.01 244.984 222.941 236.383 222.941C227.783 222.941 220.852 229.955 220.852 238.472C220.852 246.989 213.922 254.086 205.321 254.086C196.721 254.086 189.707 261.017 189.707 269.617C189.707 278.218 182.776 285.232 174.176 285.232C165.575 285.232 158.645 278.218 158.645 269.617C158.645 261.017 165.575 254.086 174.176 254.086C182.776 254.086 189.707 247.072 189.707 238.472C189.707 229.871 196.721 222.941 205.321 222.941C213.922 222.941 220.852 216.01 220.852 207.409C220.852 198.809 227.783 191.795 236.383 191.795C244.984 191.795 251.998 198.809 251.998 207.409Z" stroke="black" stroke-width="5" stroke-miterlimit="10"/>
<path d="M189.707 207.409C189.707 216.01 182.776 222.941 174.176 222.941C165.575 222.941 158.645 229.955 158.645 238.472C158.645 246.989 151.631 254.086 143.03 254.086C134.43 254.086 127.499 261.017 127.499 269.617C127.499 278.218 120.569 285.232 111.968 285.232C103.368 285.232 96.3535 278.218 96.3535 269.617C96.3535 261.017 103.368 254.086 111.968 254.086C120.569 254.086 127.499 247.072 127.499 238.472C127.499 229.871 134.43 222.941 143.03 222.941C151.631 222.941 158.645 216.01 158.645 207.409C158.645 198.809 165.575 191.795 174.176 191.795C182.776 191.795 189.707 198.809 189.707 207.409Z" stroke="black" stroke-width="5" stroke-miterlimit="10"/>
<path d="M283.06 300.763C283.06 309.363 276.13 316.294 267.529 316.294C258.929 316.294 251.998 323.308 251.998 331.908C251.998 340.509 244.984 347.439 236.384 347.439C227.783 347.439 220.853 340.425 220.853 331.908C220.853 323.391 227.783 316.294 236.384 316.294C244.984 316.294 251.998 309.363 251.998 300.763C251.998 292.162 258.929 285.231 267.529 285.231C276.13 285.231 283.06 292.162 283.06 300.763Z" stroke="black" stroke-width="5" stroke-miterlimit="10"/>
<path d="M251.998 269.617C251.998 278.218 244.984 285.232 236.384 285.232C227.783 285.232 220.853 292.162 220.853 300.763C220.853 309.363 213.922 316.294 205.322 316.294C196.721 316.294 189.707 309.363 189.707 300.763C189.707 292.162 196.721 285.232 205.322 285.232C213.922 285.232 220.853 278.218 220.853 269.617C220.853 261.016 227.783 254.086 236.384 254.086C244.984 254.086 251.998 261.016 251.998 269.617Z" stroke="black" stroke-width="5" stroke-miterlimit="10"/>
<path d="M314.206 331.909C314.206 340.426 307.275 347.44 298.675 347.44C290.074 347.44 283.06 354.37 283.06 362.971C283.06 371.571 276.13 378.585 267.529 378.585C258.929 378.585 251.998 371.571 251.998 362.971C251.998 354.37 258.929 347.44 267.529 347.44C276.13 347.44 283.06 340.426 283.06 331.909C283.06 323.391 290.074 316.294 298.675 316.294C307.275 316.294 314.206 323.308 314.206 331.909Z" stroke="black" stroke-width="5" stroke-miterlimit="10"/>
<path d="M314.206 394.116C314.206 402.717 307.275 409.647 298.675 409.647C290.074 409.647 283.06 416.661 283.06 425.262C283.06 433.862 276.13 440.793 267.529 440.793C258.929 440.793 251.998 433.779 251.998 425.262C251.998 416.745 258.929 409.647 267.529 409.647C276.13 409.647 283.06 402.717 283.06 394.116C283.06 385.515 290.074 378.585 298.675 378.585C307.275 378.585 314.206 385.515 314.206 394.116Z" stroke="black" stroke-width="5" stroke-miterlimit="10"/>
<path d="M345.352 425.262C345.352 433.779 338.338 440.793 329.737 440.793C321.137 440.793 314.206 447.724 314.206 456.324C314.206 464.925 307.276 471.939 298.675 471.939C290.075 471.939 283.061 464.925 283.061 456.324C283.061 447.724 290.075 440.793 298.675 440.793C307.276 440.793 314.206 433.779 314.206 425.262C314.206 416.745 321.22 409.647 329.737 409.647C338.254 409.647 345.352 416.661 345.352 425.262Z" stroke="black" stroke-width="5" stroke-miterlimit="10"/>
<path d="M376.414 456.324C376.414 464.925 369.483 471.939 360.883 471.939C352.282 471.939 345.352 478.869 345.352 487.47C345.352 496.07 338.338 503.001 329.737 503.001C321.137 503.001 314.206 496.07 314.206 487.47C314.206 478.869 321.22 471.939 329.737 471.939C338.254 471.939 345.352 464.925 345.352 456.324C345.352 447.724 352.282 440.793 360.883 440.793C369.483 440.793 376.414 447.724 376.414 456.324Z" stroke="black" stroke-width="5" stroke-miterlimit="10"/>
<path d="M314.206 207.326C314.206 211.585 312.452 215.509 309.697 218.348C306.858 221.104 303.017 222.857 298.675 222.857C298.508 222.857 298.424 222.857 298.257 222.941C289.824 223.108 283.06 230.038 283.06 238.472C283.06 242.814 281.307 246.655 278.551 249.494C275.712 252.249 271.788 254.003 267.529 254.003C263.271 254.003 259.346 252.249 256.507 249.494C253.751 246.655 251.998 242.814 251.998 238.472C251.998 234.13 253.668 230.372 256.507 227.533C259.263 224.611 263.187 222.857 267.529 222.857C276.13 222.857 282.977 216.01 283.06 207.409C283.06 203.067 284.814 199.226 287.653 196.387C288.321 195.636 289.156 195.051 289.991 194.467C292.412 192.797 295.418 191.795 298.675 191.795C301.931 191.795 304.854 192.797 307.359 194.467C308.194 195.051 308.945 195.636 309.697 196.387C312.536 199.226 314.206 203.067 314.206 207.326Z" stroke="black" stroke-width="5" stroke-miterlimit="10"/>
<path d="M411.066 34.0621C419.644 34.0621 426.597 27.1086 426.597 18.531C426.597 9.95347 419.644 3 411.066 3C402.489 3 395.535 9.95347 395.535 18.531C395.535 27.1086 402.489 34.0621 411.066 34.0621Z" fill="black"/>
<path d="M442.212 34.0621C450.789 34.0621 457.743 27.1086 457.743 18.531C457.743 9.95347 450.789 3 442.212 3C433.634 3 426.681 9.95347 426.681 18.531C426.681 27.1086 433.634 34.0621 442.212 34.0621Z" fill="black"/>
<path d="M473.357 34.0621C481.935 34.0621 488.888 27.1086 488.888 18.531C488.888 9.95347 481.935 3 473.357 3C464.78 3 457.826 9.95347 457.826 18.531C457.826 27.1086 464.78 34.0621 473.357 34.0621Z" fill="black"/>
<path d="M411.066 65.2076C419.644 65.2076 426.597 58.2541 426.597 49.6765C426.597 41.099 419.644 34.1455 411.066 34.1455C402.489 34.1455 395.535 41.099 395.535 49.6765C395.535 58.2541 402.489 65.2076 411.066 65.2076Z" fill="black"/>
<path d="M442.212 65.2076C450.789 65.2076 457.743 58.2541 457.743 49.6765C457.743 41.099 450.789 34.1455 442.212 34.1455C433.634 34.1455 426.681 41.099 426.681 49.6765C426.681 58.2541 433.634 65.2076 442.212 65.2076Z" fill="black"/>
<path d="M411.066 96.3532C419.644 96.3532 426.597 89.3997 426.597 80.8221C426.597 72.2445 419.644 65.291 411.066 65.291C402.489 65.291 395.535 72.2445 395.535 80.8221C395.535 89.3997 402.489 96.3532 411.066 96.3532Z" fill="black"/>
<path d="M411.066 438.621C419.644 438.621 426.597 431.667 426.597 423.09C426.597 414.512 419.644 407.559 411.066 407.559C402.489 407.559 395.535 414.512 395.535 423.09C395.535 431.667 402.489 438.621 411.066 438.621Z" fill="black"/>
<path d="M411.066 469.767C419.644 469.767 426.597 462.814 426.597 454.236C426.597 445.659 419.644 438.705 411.066 438.705C402.489 438.705 395.535 445.659 395.535 454.236C395.535 462.814 402.489 469.767 411.066 469.767Z" fill="black"/>
<path d="M442.212 469.767C450.789 469.767 457.743 462.814 457.743 454.236C457.743 445.659 450.789 438.705 442.212 438.705C433.634 438.705 426.681 445.659 426.681 454.236C426.681 462.814 433.634 469.767 442.212 469.767Z" fill="black"/>
<path d="M411.066 500.913C419.644 500.913 426.597 493.959 426.597 485.382C426.597 476.804 419.644 469.851 411.066 469.851C402.489 469.851 395.535 476.804 395.535 485.382C395.535 493.959 402.489 500.913 411.066 500.913Z" fill="black"/>
<path d="M442.212 500.913C450.789 500.913 457.743 493.959 457.743 485.382C457.743 476.804 450.789 469.851 442.212 469.851C433.634 469.851 426.681 476.804 426.681 485.382C426.681 493.959 433.634 500.913 442.212 500.913Z" fill="black"/>
<path d="M473.357 500.913C481.935 500.913 488.888 493.959 488.888 485.382C488.888 476.804 481.935 469.851 473.357 469.851C464.78 469.851 457.826 476.804 457.826 485.382C457.826 493.959 464.78 500.913 473.357 500.913Z" fill="black"/>
<path d="M535.565 129.587C544.143 129.587 551.096 122.633 551.096 114.055C551.096 105.478 544.143 98.5244 535.565 98.5244C526.988 98.5244 520.034 105.478 520.034 114.055C520.034 122.633 526.988 129.587 535.565 129.587Z" fill="black"/>
<path d="M566.711 129.587C575.288 129.587 582.242 122.633 582.242 114.055C582.242 105.478 575.288 98.5244 566.711 98.5244C558.133 98.5244 551.18 105.478 551.18 114.055C551.18 122.633 558.133 129.587 566.711 129.587Z" fill="black"/>
<path d="M535.565 191.795C544.143 191.795 551.096 184.841 551.096 176.263C551.096 167.686 544.143 160.732 535.565 160.732C526.988 160.732 520.034 167.686 520.034 176.263C520.034 184.841 526.988 191.795 535.565 191.795Z" fill="black"/>
<path d="M535.565 222.94C544.143 222.94 551.096 215.987 551.096 207.409C551.096 198.831 544.143 191.878 535.565 191.878C526.988 191.878 520.034 198.831 520.034 207.409C520.034 215.987 526.988 222.94 535.565 222.94Z" fill="black"/>
<path d="M535.565 254.002C544.143 254.002 551.096 247.048 551.096 238.471C551.096 229.893 544.143 222.939 535.565 222.939C526.988 222.939 520.034 229.893 520.034 238.471C520.034 247.048 526.988 254.002 535.565 254.002Z" fill="black"/>
<path d="M566.711 254.002C575.288 254.002 582.242 247.048 582.242 238.471C582.242 229.893 575.288 222.939 566.711 222.939C558.133 222.939 551.18 229.893 551.18 238.471C551.18 247.048 558.133 254.002 566.711 254.002Z" fill="black"/>
<path d="M597.773 254.002C606.351 254.002 613.304 247.048 613.304 238.471C613.304 229.893 606.351 222.939 597.773 222.939C589.196 222.939 582.242 229.893 582.242 238.471C582.242 247.048 589.196 254.002 597.773 254.002Z" fill="black"/>
<path d="M566.711 285.148C575.288 285.148 582.242 278.195 582.242 269.617C582.242 261.039 575.288 254.086 566.711 254.086C558.133 254.086 551.18 261.039 551.18 269.617C551.18 278.195 558.133 285.148 566.711 285.148Z" fill="black"/>
<path d="M597.773 285.148C606.351 285.148 613.304 278.195 613.304 269.617C613.304 261.039 606.351 254.086 597.773 254.086C589.196 254.086 582.242 261.039 582.242 269.617C582.242 278.195 589.196 285.148 597.773 285.148Z" fill="black"/>
<path d="M566.711 316.294C575.288 316.294 582.242 309.34 582.242 300.763C582.242 292.185 575.288 285.231 566.711 285.231C558.133 285.231 551.18 292.185 551.18 300.763C551.18 309.34 558.133 316.294 566.711 316.294Z" fill="black"/>
<path d="M597.773 316.294C606.351 316.294 613.304 309.34 613.304 300.763C613.304 292.185 606.351 285.231 597.773 285.231C589.196 285.231 582.242 292.185 582.242 300.763C582.242 309.34 589.196 316.294 597.773 316.294Z" fill="black"/>
<path d="M566.711 347.439C575.288 347.439 582.242 340.486 582.242 331.908C582.242 323.33 575.288 316.377 566.711 316.377C558.133 316.377 551.18 323.33 551.18 331.908C551.18 340.486 558.133 347.439 566.711 347.439Z" fill="black"/>
<path d="M597.773 347.439C606.351 347.439 613.304 340.486 613.304 331.908C613.304 323.33 606.351 316.377 597.773 316.377C589.196 316.377 582.242 323.33 582.242 331.908C582.242 340.486 589.196 347.439 597.773 347.439Z" fill="black"/>
<path d="M628.919 347.439C637.496 347.439 644.45 340.486 644.45 331.908C644.45 323.33 637.496 316.377 628.919 316.377C620.341 316.377 613.388 323.33 613.388 331.908C613.388 340.486 620.341 347.439 628.919 347.439Z" fill="black"/>
<path d="M597.773 378.501C606.351 378.501 613.304 371.547 613.304 362.97C613.304 354.392 606.351 347.438 597.773 347.438C589.196 347.438 582.242 354.392 582.242 362.97C582.242 371.547 589.196 378.501 597.773 378.501Z" fill="black"/>
<path d="M628.919 378.501C637.496 378.501 644.45 371.547 644.45 362.97C644.45 354.392 637.496 347.438 628.919 347.438C620.341 347.438 613.388 354.392 613.388 362.97C613.388 371.547 620.341 378.501 628.919 378.501Z" fill="black"/>
<path d="M629.67 503C638.247 503 645.201 496.046 645.201 487.469C645.201 478.891 638.247 471.938 629.67 471.938C621.092 471.938 614.139 478.891 614.139 487.469C614.139 496.046 621.092 503 629.67 503Z" fill="black"/>
<path d="M660.816 409.646C669.394 409.646 676.347 402.693 676.347 394.115C676.347 385.537 669.394 378.584 660.816 378.584C652.239 378.584 645.285 385.537 645.285 394.115C645.285 402.693 652.239 409.646 660.816 409.646Z" fill="black"/>
<path d="M660.816 440.793C669.394 440.793 676.347 433.839 676.347 425.262C676.347 416.684 669.394 409.73 660.816 409.73C652.239 409.73 645.285 416.684 645.285 425.262C645.285 433.839 652.239 440.793 660.816 440.793Z" fill="black"/>
<path d="M660.816 471.854C669.394 471.854 676.347 464.901 676.347 456.323C676.347 447.745 669.394 440.792 660.816 440.792C652.239 440.792 645.285 447.745 645.285 456.323C645.285 464.901 652.239 471.854 660.816 471.854Z" fill="black"/>
<path d="M660.816 503C669.394 503 676.347 496.046 676.347 487.469C676.347 478.891 669.394 471.938 660.816 471.938C652.239 471.938 645.285 478.891 645.285 487.469C645.285 496.046 652.239 503 660.816 503Z" fill="black"/>
<path d="M848.274 34.0621C856.852 34.0621 863.805 27.1086 863.805 18.531C863.805 9.95347 856.852 3 848.274 3C839.697 3 832.743 9.95347 832.743 18.531C832.743 27.1086 839.697 34.0621 848.274 34.0621Z" fill="black"/>
<path d="M848.274 65.2076C856.852 65.2076 863.805 58.2541 863.805 49.6765C863.805 41.099 856.852 34.1455 848.274 34.1455C839.697 34.1455 832.743 41.099 832.743 49.6765C832.743 58.2541 839.697 65.2076 848.274 65.2076Z" fill="black"/>
<path d="M910.481 158.561C919.059 158.561 926.012 151.608 926.012 143.03C926.012 134.453 919.059 127.499 910.481 127.499C901.904 127.499 894.95 134.453 894.95 143.03C894.95 151.608 901.904 158.561 910.481 158.561Z" fill="black"/>
<path d="M879.42 158.561C887.997 158.561 894.951 151.608 894.951 143.03C894.951 134.453 887.997 127.499 879.42 127.499C870.842 127.499 863.889 134.453 863.889 143.03C863.889 151.608 870.842 158.561 879.42 158.561Z" fill="black"/>
<path d="M910.481 189.707C919.059 189.707 926.012 182.753 926.012 174.176C926.012 165.598 919.059 158.645 910.481 158.645C901.904 158.645 894.95 165.598 894.95 174.176C894.95 182.753 901.904 189.707 910.481 189.707Z" fill="black"/>
<path d="M879.42 189.707C887.997 189.707 894.951 182.753 894.951 174.176C894.951 165.598 887.997 158.645 879.42 158.645C870.842 158.645 863.889 165.598 863.889 174.176C863.889 182.753 870.842 189.707 879.42 189.707Z" fill="black"/>
<path d="M910.481 220.769C919.059 220.769 926.012 213.816 926.012 205.238C926.012 196.661 919.059 189.707 910.481 189.707C901.904 189.707 894.95 196.661 894.95 205.238C894.95 213.816 901.904 220.769 910.481 220.769Z" fill="black"/>
<path d="M879.42 220.769C887.997 220.769 894.951 213.816 894.951 205.238C894.951 196.661 887.997 189.707 879.42 189.707C870.842 189.707 863.889 196.661 863.889 205.238C863.889 213.816 870.842 220.769 879.42 220.769Z" fill="black"/>
<path d="M848.274 220.769C856.852 220.769 863.805 213.816 863.805 205.238C863.805 196.661 856.852 189.707 848.274 189.707C839.697 189.707 832.743 196.661 832.743 205.238C832.743 213.816 839.697 220.769 848.274 220.769Z" fill="black"/>
<path d="M910.481 251.915C919.059 251.915 926.012 244.961 926.012 236.384C926.012 227.806 919.059 220.853 910.481 220.853C901.904 220.853 894.95 227.806 894.95 236.384C894.95 244.961 901.904 251.915 910.481 251.915Z" fill="black"/>
<path d="M879.42 251.915C887.997 251.915 894.951 244.961 894.951 236.384C894.951 227.806 887.997 220.853 879.42 220.853C870.842 220.853 863.889 227.806 863.889 236.384C863.889 244.961 870.842 251.915 879.42 251.915Z" fill="black"/>
<path d="M848.274 251.915C856.852 251.915 863.805 244.961 863.805 236.384C863.805 227.806 856.852 220.853 848.274 220.853C839.697 220.853 832.743 227.806 832.743 236.384C832.743 244.961 839.697 251.915 848.274 251.915Z" fill="black"/>
<path d="M910.481 345.268C919.059 345.268 926.012 338.315 926.012 329.737C926.012 321.16 919.059 314.206 910.481 314.206C901.904 314.206 894.95 321.16 894.95 329.737C894.95 338.315 901.904 345.268 910.481 345.268Z" fill="black"/>
<path d="M910.481 376.414C919.059 376.414 926.012 369.46 926.012 360.883C926.012 352.305 919.059 345.352 910.481 345.352C901.904 345.352 894.95 352.305 894.95 360.883C894.95 369.46 901.904 376.414 910.481 376.414Z" fill="black"/>
<path d="M910.481 407.559C919.059 407.559 926.012 400.606 926.012 392.028C926.012 383.451 919.059 376.497 910.481 376.497C901.904 376.497 894.95 383.451 894.95 392.028C894.95 400.606 901.904 407.559 910.481 407.559Z" fill="black"/>
<path d="M879.42 407.559C887.997 407.559 894.951 400.606 894.951 392.028C894.951 383.451 887.997 376.497 879.42 376.497C870.842 376.497 863.889 383.451 863.889 392.028C863.889 400.606 870.842 407.559 879.42 407.559Z" fill="black"/>
<path d="M848.274 407.559C856.852 407.559 863.805 400.606 863.805 392.028C863.805 383.451 856.852 376.497 848.274 376.497C839.697 376.497 832.743 383.451 832.743 392.028C832.743 400.606 839.697 407.559 848.274 407.559Z" fill="black"/>
<path d="M910.481 438.621C919.059 438.621 926.012 431.667 926.012 423.09C926.012 414.512 919.059 407.559 910.481 407.559C901.904 407.559 894.95 414.512 894.95 423.09C894.95 431.667 901.904 438.621 910.481 438.621Z" fill="black"/>
<path d="M879.42 438.621C887.997 438.621 894.951 431.667 894.951 423.09C894.951 414.512 887.997 407.559 879.42 407.559C870.842 407.559 863.889 414.512 863.889 423.09C863.889 431.667 870.842 438.621 879.42 438.621Z" fill="black"/>
<path d="M848.274 438.621C856.852 438.621 863.805 431.667 863.805 423.09C863.805 414.512 856.852 407.559 848.274 407.559C839.697 407.559 832.743 414.512 832.743 423.09C832.743 431.667 839.697 438.621 848.274 438.621Z" fill="black"/>
<path d="M910.481 469.767C919.059 469.767 926.012 462.814 926.012 454.236C926.012 445.659 919.059 438.705 910.481 438.705C901.904 438.705 894.95 445.659 894.95 454.236C894.95 462.814 901.904 469.767 910.481 469.767Z" fill="black"/>
<path d="M879.42 469.767C887.997 469.767 894.951 462.814 894.951 454.236C894.951 445.659 887.997 438.705 879.42 438.705C870.842 438.705 863.889 445.659 863.889 454.236C863.889 462.814 870.842 469.767 879.42 469.767Z" fill="black"/>
<path d="M848.274 469.767C856.852 469.767 863.805 462.814 863.805 454.236C863.805 445.659 856.852 438.705 848.274 438.705C839.697 438.705 832.743 445.659 832.743 454.236C832.743 462.814 839.697 469.767 848.274 469.767Z" fill="black"/>
<path d="M910.481 500.913C919.059 500.913 926.012 493.959 926.012 485.382C926.012 476.804 919.059 469.851 910.481 469.851C901.904 469.851 894.95 476.804 894.95 485.382C894.95 493.959 901.904 500.913 910.481 500.913Z" fill="black"/>
<path d="M879.42 500.913C887.997 500.913 894.951 493.959 894.951 485.382C894.951 476.804 887.997 469.851 879.42 469.851C870.842 469.851 863.889 476.804 863.889 485.382C863.889 493.959 870.842 500.913 879.42 500.913Z" fill="black"/>
<path d="M848.274 500.913C856.852 500.913 863.805 493.959 863.805 485.382C863.805 476.804 856.852 469.851 848.274 469.851C839.697 469.851 832.743 476.804 832.743 485.382C832.743 493.959 839.697 500.913 848.274 500.913Z" fill="black"/>
<path d="M817.129 36.233C825.706 36.233 832.66 29.2795 832.66 20.702C832.66 12.1244 825.706 5.1709 817.129 5.1709C808.551 5.1709 801.598 12.1244 801.598 20.702C801.598 29.2795 808.551 36.233 817.129 36.233Z" fill="black"/>
<path d="M786.066 36.233C794.644 36.233 801.597 29.2795 801.597 20.702C801.597 12.1244 794.644 5.1709 786.066 5.1709C777.489 5.1709 770.535 12.1244 770.535 20.702C770.535 29.2795 777.489 36.233 786.066 36.233Z" fill="black"/>
<path d="M817.129 67.2955C825.706 67.2955 832.66 60.342 832.66 51.7644C832.66 43.1869 825.706 36.2334 817.129 36.2334C808.551 36.2334 801.598 43.1869 801.598 51.7644C801.598 60.342 808.551 67.2955 817.129 67.2955Z" fill="black"/>
<path d="M786.066 67.2955C794.644 67.2955 801.597 60.342 801.597 51.7644C801.597 43.1869 794.644 36.2334 786.066 36.2334C777.489 36.2334 770.535 43.1869 770.535 51.7644C770.535 60.342 777.489 67.2955 786.066 67.2955Z" fill="black"/>
<path d="M754.921 67.2955C763.498 67.2955 770.452 60.342 770.452 51.7644C770.452 43.1869 763.498 36.2334 754.921 36.2334C746.343 36.2334 739.39 43.1869 739.39 51.7644C739.39 60.342 746.343 67.2955 754.921 67.2955Z" fill="black"/>
<path d="M786.066 98.441C794.644 98.441 801.597 91.4875 801.597 82.91C801.597 74.3324 794.644 67.3789 786.066 67.3789C777.489 67.3789 770.535 74.3324 770.535 82.91C770.535 91.4875 777.489 98.441 786.066 98.441Z" fill="black"/>
<path d="M754.921 98.441C763.498 98.441 770.452 91.4875 770.452 82.91C770.452 74.3324 763.498 67.3789 754.921 67.3789C746.343 67.3789 739.39 74.3324 739.39 82.91C739.39 91.4875 746.343 98.441 754.921 98.441Z" fill="black"/>
<path d="M754.921 67.2955C763.498 67.2955 770.452 60.342 770.452 51.7644C770.452 43.1869 763.498 36.2334 754.921 36.2334C746.343 36.2334 739.39 43.1869 739.39 51.7644C739.39 60.342 746.343 67.2955 754.921 67.2955Z" fill="black"/>
<path d="M786.066 129.587C794.644 129.587 801.597 122.633 801.597 114.055C801.597 105.478 794.644 98.5244 786.066 98.5244C777.489 98.5244 770.535 105.478 770.535 114.055C770.535 122.633 777.489 129.587 786.066 129.587Z" fill="black"/>
<path d="M754.921 129.587C763.498 129.587 770.452 122.633 770.452 114.055C770.452 105.478 763.498 98.5244 754.921 98.5244C746.343 98.5244 739.39 105.478 739.39 114.055C739.39 122.633 746.343 129.587 754.921 129.587Z" fill="black"/>
<path d="M723.775 129.587C732.353 129.587 739.306 122.633 739.306 114.055C739.306 105.478 732.353 98.5244 723.775 98.5244C715.198 98.5244 708.244 105.478 708.244 114.055C708.244 122.633 715.198 129.587 723.775 129.587Z" fill="black"/>
<path d="M786.066 160.649C794.644 160.649 801.597 153.696 801.597 145.118C801.597 136.54 794.644 129.587 786.066 129.587C777.489 129.587 770.535 136.54 770.535 145.118C770.535 153.696 777.489 160.649 786.066 160.649Z" fill="black"/>
<path d="M754.921 160.649C763.498 160.649 770.452 153.696 770.452 145.118C770.452 136.54 763.498 129.587 754.921 129.587C746.343 129.587 739.39 136.54 739.39 145.118C739.39 153.696 746.343 160.649 754.921 160.649Z" fill="black"/>
<path d="M723.775 160.649C732.353 160.649 739.306 153.696 739.306 145.118C739.306 136.54 732.353 129.587 723.775 129.587C715.198 129.587 708.244 136.54 708.244 145.118C708.244 153.696 715.198 160.649 723.775 160.649Z" fill="black"/>
<path d="M786.066 191.795C794.644 191.795 801.597 184.841 801.597 176.263C801.597 167.686 794.644 160.732 786.066 160.732C777.489 160.732 770.535 167.686 770.535 176.263C770.535 184.841 777.489 191.795 786.066 191.795Z" fill="black"/>
<path d="M754.921 191.795C763.498 191.795 770.452 184.841 770.452 176.263C770.452 167.686 763.498 160.732 754.921 160.732C746.343 160.732 739.39 167.686 739.39 176.263C739.39 184.841 746.343 191.795 754.921 191.795Z" fill="black"/>
<path d="M723.775 191.795C732.353 191.795 739.306 184.841 739.306 176.263C739.306 167.686 732.353 160.732 723.775 160.732C715.198 160.732 708.244 167.686 708.244 176.263C708.244 184.841 715.198 191.795 723.775 191.795Z" fill="black"/>
<path d="M786.066 222.94C794.644 222.94 801.597 215.987 801.597 207.409C801.597 198.831 794.644 191.878 786.066 191.878C777.489 191.878 770.535 198.831 770.535 207.409C770.535 215.987 777.489 222.94 786.066 222.94Z" fill="black"/>
<path d="M754.921 222.94C763.498 222.94 770.452 215.987 770.452 207.409C770.452 198.831 763.498 191.878 754.921 191.878C746.343 191.878 739.39 198.831 739.39 207.409C739.39 215.987 746.343 222.94 754.921 222.94Z" fill="black"/>
<path d="M723.775 222.94C732.353 222.94 739.306 215.987 739.306 207.409C739.306 198.831 732.353 191.878 723.775 191.878C715.198 191.878 708.244 198.831 708.244 207.409C708.244 215.987 715.198 222.94 723.775 222.94Z" fill="black"/>
<path d="M754.169 440.793C762.746 440.793 769.7 433.839 769.7 425.262C769.7 416.684 762.746 409.73 754.169 409.73C745.591 409.73 738.638 416.684 738.638 425.262C738.638 433.839 745.591 440.793 754.169 440.793Z" fill="black"/>
<path d="M723.023 440.793C731.601 440.793 738.554 433.839 738.554 425.262C738.554 416.684 731.601 409.73 723.023 409.73C714.446 409.73 707.492 416.684 707.492 425.262C707.492 433.839 714.446 440.793 723.023 440.793Z" fill="black"/>
<path d="M691.878 440.793C700.455 440.793 707.409 433.839 707.409 425.262C707.409 416.684 700.455 409.73 691.878 409.73C683.3 409.73 676.347 416.684 676.347 425.262C676.347 433.839 683.3 440.793 691.878 440.793Z" fill="black"/>
<path d="M723.023 471.854C731.601 471.854 738.554 464.901 738.554 456.323C738.554 447.745 731.601 440.792 723.023 440.792C714.446 440.792 707.492 447.745 707.492 456.323C707.492 464.901 714.446 471.854 723.023 471.854Z" fill="black"/>
<path d="M691.878 471.854C700.455 471.854 707.409 464.901 707.409 456.323C707.409 447.745 700.455 440.792 691.878 440.792C683.3 440.792 676.347 447.745 676.347 456.323C676.347 464.901 683.3 471.854 691.878 471.854Z" fill="black"/>
<path d="M691.878 503C700.455 503 707.409 496.046 707.409 487.469C707.409 478.891 700.455 471.938 691.878 471.938C683.3 471.938 676.347 478.891 676.347 487.469C676.347 496.046 683.3 503 691.878 503Z" fill="black"/>
<path d="M566.711 378.501C575.288 378.501 582.242 371.547 582.242 362.97C582.242 354.392 575.288 347.438 566.711 347.438C558.133 347.438 551.18 354.392 551.18 362.97C551.18 371.547 558.133 378.501 566.711 378.501Z" fill="black"/>
<path d="M454.069 8.26074H430.605V28.6348H454.069V8.26074Z" fill="black"/>
<path d="M422.757 8.26074H399.293V28.6348H422.757V8.26074Z" fill="black"/>
<path d="M485.048 8.26074H461.584V28.6348H485.048V8.26074Z" fill="black"/>
<path d="M454.069 39.5732H430.605V59.9473H454.069V39.5732Z" fill="black"/>
<path d="M422.757 39.5732H399.293V59.9473H422.757V39.5732Z" fill="black"/>
<path d="M485.048 39.5732H461.584V59.9473H485.048V39.5732Z" fill="black"/>
<path d="M454.069 70.6348H430.605V91.0089H454.069V70.6348Z" fill="black"/>
<path d="M422.757 70.6348H399.293V91.0089H422.757V70.6348Z" fill="black"/>
<path d="M485.048 70.6348H461.584V91.0089H485.048V70.6348Z" fill="black"/>
<path d="M454.069 101.948H430.605V122.322H454.069V101.948Z" fill="black"/>
<path d="M422.757 101.948H399.293V122.322H422.757V101.948Z" fill="black"/>
<path d="M485.048 101.948H461.584V122.322H485.048V101.948Z" fill="black"/>
<path d="M454.069 132.843H430.605V153.217H454.069V132.843Z" fill="black"/>
<path d="M422.757 132.843H399.293V153.217H422.757V132.843Z" fill="black"/>
<path d="M485.048 132.843H461.584V153.217H485.048V132.843Z" fill="black"/>
<path d="M454.069 164.072H430.605V184.446H454.069V164.072Z" fill="black"/>
<path d="M422.757 164.072H399.293V184.446H422.757V164.072Z" fill="black"/>
<path d="M485.048 164.072H461.584V184.446H485.048V164.072Z" fill="black"/>
<path d="M454.069 195.134H430.605V215.508H454.069V195.134Z" fill="black"/>
<path d="M422.757 195.134H399.293V215.508H422.757V195.134Z" fill="black"/>
<path d="M485.048 195.134H461.584V215.508H485.048V195.134Z" fill="black"/>
<path d="M454.069 226.447H430.605V246.821H454.069V226.447Z" fill="black"/>
<path d="M422.757 226.447H399.293V246.821H422.757V226.447Z" fill="black"/>
<path d="M485.048 226.447H461.584V246.821H485.048V226.447Z" fill="black"/>
<path d="M454.069 257.342H430.605V277.716H454.069V257.342Z" fill="black"/>
<path d="M454.069 257.342H430.605V277.716H454.069V257.342Z" fill="black"/>
<path d="M422.757 257.342H399.293V277.716H422.757V257.342Z" fill="black"/>
<path d="M485.048 257.342H461.584V277.716H485.048V257.342Z" fill="black"/>
<path d="M454.069 288.404H430.605V308.778H454.069V288.404Z" fill="black"/>
<path d="M422.757 288.404H399.293V308.778H422.757V288.404Z" fill="black"/>
<path d="M485.048 288.404H461.584V308.778H485.048V288.404Z" fill="black"/>
<path d="M454.069 319.717H430.605V340.091H454.069V319.717Z" fill="black"/>
<path d="M422.757 319.717H399.293V340.091H422.757V319.717Z" fill="black"/>
<path d="M485.048 319.717H461.584V340.091H485.048V319.717Z" fill="black"/>
<path d="M454.069 350.528H430.605V370.902H454.069V350.528Z" fill="black"/>
<path d="M422.757 350.528H399.293V370.902H422.757V350.528Z" fill="black"/>
<path d="M485.048 350.528H461.584V370.902H485.048V350.528Z" fill="black"/>
<path d="M454.069 381.841H430.605V402.215H454.069V381.841Z" fill="black"/>
<path d="M422.757 381.841H399.293V402.215H422.757V381.841Z" fill="black"/>
<path d="M485.048 381.841H461.584V402.215H485.048V381.841Z" fill="black"/>
<path d="M454.069 412.903H430.605V433.277H454.069V412.903Z" fill="black"/>
<path d="M422.757 412.903H399.293V433.277H422.757V412.903Z" fill="black"/>
<path d="M485.048 412.903H461.584V433.277H485.048V412.903Z" fill="black"/>
<path d="M454.069 444.132H430.605V464.506H454.069V444.132Z" fill="black"/>
<path d="M422.757 444.132H399.293V464.506H422.757V444.132Z" fill="black"/>
<path d="M485.048 444.132H461.584V464.506H485.048V444.132Z" fill="black"/>
<path d="M454.069 475.194H430.605V495.568H454.069V475.194Z" fill="black"/>
<path d="M422.757 475.194H399.293V495.568H422.757V475.194Z" fill="black"/>
<path d="M485.048 475.194H461.584V495.568H485.048V475.194Z" fill="black"/>
<path d="M516.193 8.26074H492.729V28.6348H516.193V8.26074Z" fill="black"/>
<path d="M516.193 39.5732H492.729V59.9473H516.193V39.5732Z" fill="black"/>
<path d="M516.193 70.6348H492.729V91.0089H516.193V70.6348Z" fill="black"/>
<path d="M547.256 8.26074H523.792V28.6348H547.256V8.26074Z" fill="black"/>
<path d="M547.256 39.5732H523.792V59.9473H547.256V39.5732Z" fill="black"/>
<path d="M547.256 70.6348H523.792V91.0089H547.256V70.6348Z" fill="black"/>
<path d="M547.256 101.948H523.792V122.322H547.256V101.948Z" fill="black"/>
<path d="M547.256 132.843H523.792V153.217H547.256V132.843Z" fill="black"/>
<path d="M547.256 164.072H523.792V184.446H547.256V164.072Z" fill="black"/>
<path d="M547.256 195.134H523.792V215.508H547.256V195.134Z" fill="black"/>
<path d="M547.256 226.447H523.792V246.821H547.256V226.447Z" fill="black"/>
<path d="M578.401 39.5732H554.938V59.9473H578.401V39.5732Z" fill="black"/>
<path d="M578.401 70.6348H554.938V91.0089H578.401V70.6348Z" fill="black"/>
<path d="M578.401 101.948H554.938V122.322H578.401V101.948Z" fill="black"/>
<path d="M578.401 132.843H554.938V153.217H578.401V132.843Z" fill="black"/>
<path d="M578.401 164.072H554.938V184.446H578.401V164.072Z" fill="black"/>
<path d="M578.401 195.134H554.938V215.508H578.401V195.134Z" fill="black"/>
<path d="M578.401 226.447H554.938V246.821H578.401V226.447Z" fill="black"/>
<path d="M578.401 257.342H554.938V277.716H578.401V257.342Z" fill="black"/>
<path d="M578.401 288.404H554.938V308.778H578.401V288.404Z" fill="black"/>
<path d="M578.401 319.717H554.938V340.091H578.401V319.717Z" fill="black"/>
<path d="M578.401 350.528H554.938V370.902H578.401V350.528Z" fill="black"/>
<path d="M578.401 381.841H554.938V402.215H578.401V381.841Z" fill="black"/>
<path d="M578.401 412.903H554.938V433.277H578.401V412.903Z" fill="black"/>
<path d="M609.547 101.948H586.083V122.322H609.547V101.948Z" fill="black"/>
<path d="M609.547 132.843H586.083V153.217H609.547V132.843Z" fill="black"/>
<path d="M609.547 164.072H586.083V184.446H609.547V164.072Z" fill="black"/>
<path d="M609.547 195.134H586.083V215.508H609.547V195.134Z" fill="black"/>
<path d="M609.547 226.447H586.083V246.821H609.547V226.447Z" fill="black"/>
<path d="M609.547 257.342H586.083V277.716H609.547V257.342Z" fill="black"/>
<path d="M609.547 288.404H586.083V308.778H609.547V288.404Z" fill="black"/>
<path d="M609.547 319.717H586.083V340.091H609.547V319.717Z" fill="black"/>
<path d="M609.547 350.528H586.083V370.902H609.547V350.528Z" fill="black"/>
<path d="M609.547 381.841H586.083V402.215H609.547V381.841Z" fill="black"/>
<path d="M609.547 412.903H586.083V433.277H609.547V412.903Z" fill="black"/>
<path d="M609.547 444.132H586.083V464.506H609.547V444.132Z" fill="black"/>
<path d="M640.609 319.717H617.146V340.091H640.609V319.717Z" fill="black"/>
<path d="M640.609 350.528H617.146V370.902H640.609V350.528Z" fill="black"/>
<path d="M640.609 381.841H617.146V402.215H640.609V381.841Z" fill="black"/>
<path d="M640.609 412.903H617.146V433.277H640.609V412.903Z" fill="black"/>
<path d="M640.609 444.132H617.146V464.506H640.609V444.132Z" fill="black"/>
<path d="M640.609 475.194H617.146V495.568H640.609V475.194Z" fill="black"/>
<path d="M672.506 381.841H649.042V402.215H672.506V381.841Z" fill="black"/>
<path d="M672.506 412.903H649.042V433.277H672.506V412.903Z" fill="black"/>
<path d="M672.506 444.132H649.042V464.506H672.506V444.132Z" fill="black"/>
<path d="M672.506 475.194H649.042V495.568H672.506V475.194Z" fill="black"/>
<path d="M867.563 28.6348L891.026 28.6348V8.26066L867.563 8.26066V28.6348Z" fill="black"/>
<path d="M898.791 28.6348L922.255 28.6348V8.26066L898.791 8.26066V28.6348Z" fill="black"/>
<path d="M836.584 28.6348L860.048 28.6348V8.26066L836.584 8.26066V28.6348Z" fill="black"/>
<path d="M867.563 59.9473H891.026V39.5732H867.563V59.9473Z" fill="black"/>
<path d="M898.791 59.9473H922.255V39.5732H898.791V59.9473Z" fill="black"/>
<path d="M836.584 59.9473H860.048V39.5732H836.584V59.9473Z" fill="black"/>
<path d="M867.563 91.0098H891.026V70.6357H867.563V91.0098Z" fill="black"/>
<path d="M898.791 91.0098H922.255V70.6357H898.791V91.0098Z" fill="black"/>
<path d="M836.584 91.0098H860.048V70.6357H836.584V91.0098Z" fill="black"/>
<path d="M867.563 122.322H891.026V101.948H867.563V122.322Z" fill="black"/>
<path d="M898.791 122.322H922.255V101.948H898.791V122.322Z" fill="black"/>
<path d="M836.584 122.322H860.048V101.948H836.584V122.322Z" fill="black"/>
<path d="M867.563 153.134H891.026V132.76H867.563V153.134Z" fill="black"/>
<path d="M898.791 153.134H922.255V132.76H898.791V153.134Z" fill="black"/>
<path d="M836.584 153.134H860.048V132.76H836.584V153.134Z" fill="black"/>
<path d="M867.563 184.446H891.026V164.072H867.563V184.446Z" fill="black"/>
<path d="M898.791 184.446H922.255V164.072H898.791V184.446Z" fill="black"/>
<path d="M836.584 184.446H860.048V164.072H836.584V184.446Z" fill="black"/>
<path d="M867.563 215.425H891.026V195.051H867.563V215.425Z" fill="black"/>
<path d="M898.791 215.425H922.255V195.051H898.791V215.425Z" fill="black"/>
<path d="M836.584 215.425H860.048V195.051H836.584V215.425Z" fill="black"/>
<path d="M867.563 246.737H891.026V226.363H867.563V246.737Z" fill="black"/>
<path d="M898.791 246.737H922.255V226.363H898.791V246.737Z" fill="black"/>
<path d="M836.584 246.737H860.048V226.363H836.584V246.737Z" fill="black"/>
<path d="M867.563 277.633H891.026V257.259H867.563V277.633Z" fill="black"/>
<path d="M867.563 277.633H891.026V257.259H867.563V277.633Z" fill="black"/>
<path d="M898.791 277.633H922.255V257.259H898.791V277.633Z" fill="black"/>
<path d="M836.584 277.633H860.048V257.259H836.584V277.633Z" fill="black"/>
<path d="M867.563 308.778H891.026V288.404H867.563V308.778Z" fill="black"/>
<path d="M898.791 308.778H922.255V288.404H898.791V308.778Z" fill="black"/>
<path d="M836.584 308.778H860.048V288.404H836.584V308.778Z" fill="black"/>
<path d="M867.563 340.008H891.026V319.634H867.563V340.008Z" fill="black"/>
<path d="M898.791 340.008H922.255V319.634H898.791V340.008Z" fill="black"/>
<path d="M836.584 340.008H860.048V319.634H836.584V340.008Z" fill="black"/>
<path d="M867.563 370.902H891.026V350.528H867.563V370.902Z" fill="black"/>
<path d="M898.791 370.902H922.255V350.528H898.791V370.902Z" fill="black"/>
<path d="M836.584 370.902H860.048V350.528H836.584V370.902Z" fill="black"/>
<path d="M867.563 402.215H891.026V381.841H867.563V402.215Z" fill="black"/>
<path d="M898.791 402.215H922.255V381.841H898.791V402.215Z" fill="black"/>
<path d="M836.584 402.215H860.048V381.841H836.584V402.215Z" fill="black"/>
<path d="M867.563 433.193H891.026V412.819H867.563V433.193Z" fill="black"/>
<path d="M898.791 433.193H922.255V412.819H898.791V433.193Z" fill="black"/>
<path d="M836.584 433.193H860.048V412.819H836.584V433.193Z" fill="black"/>
<path d="M867.563 464.506H891.026V444.132H867.563V464.506Z" fill="black"/>
<path d="M898.791 464.506H922.255V444.132H898.791V464.506Z" fill="black"/>
<path d="M836.584 464.506H860.048V444.132H836.584V464.506Z" fill="black"/>
<path d="M867.563 495.485H891.026V475.111H867.563V495.485Z" fill="black"/>
<path d="M898.791 495.485H922.255V475.111H898.791V495.485Z" fill="black"/>
<path d="M836.584 495.485H860.048V475.111H836.584V495.485Z" fill="black"/>
<path d="M805.439 28.6348L828.902 28.6348V8.26066L805.439 8.26066V28.6348Z" fill="black"/>
<path d="M805.439 59.9473H828.902V39.5732H805.439V59.9473Z" fill="black"/>
<path d="M805.439 91.0098H828.902V70.6357H805.439V91.0098Z" fill="black"/>
<path d="M774.293 28.6348L797.757 28.6348V8.26066L774.293 8.26066V28.6348Z" fill="black"/>
<path d="M774.293 59.9473H797.757V39.5732H774.293V59.9473Z" fill="black"/>
<path d="M774.293 91.0098H797.757V70.6357H774.293V91.0098Z" fill="black"/>
<path d="M774.293 122.322H797.757V101.948H774.293V122.322Z" fill="black"/>
<path d="M774.293 153.134H797.757V132.76H774.293V153.134Z" fill="black"/>
<path d="M774.293 184.446H797.757V164.072H774.293V184.446Z" fill="black"/>
<path d="M774.293 215.425H797.757V195.051H774.293V215.425Z" fill="black"/>
<path d="M774.293 246.737H797.757V226.363H774.293V246.737Z" fill="black"/>
<path d="M743.231 59.9473H766.694V39.5732H743.231V59.9473Z" fill="black"/>
<path d="M743.231 91.0098H766.694V70.6357H743.231V91.0098Z" fill="black"/>
<path d="M743.231 122.322H766.694V101.948H743.231V122.322Z" fill="black"/>
<path d="M743.231 153.134H766.694V132.76H743.231V153.134Z" fill="black"/>
<path d="M743.231 184.446H766.694V164.072H743.231V184.446Z" fill="black"/>
<path d="M743.231 215.425H766.694V195.051H743.231V215.425Z" fill="black"/>
<path d="M743.231 246.737H766.694V226.363H743.231V246.737Z" fill="black"/>
<path d="M743.231 277.633H766.694V257.259H743.231V277.633Z" fill="black"/>
<path d="M743.231 308.778H766.694V288.404H743.231V308.778Z" fill="black"/>
<path d="M743.231 340.008H766.694V319.634H743.231V340.008Z" fill="black"/>
<path d="M743.231 370.902H766.694V350.528H743.231V370.902Z" fill="black"/>
<path d="M743.231 402.215H766.694V381.841H743.231V402.215Z" fill="black"/>
<path d="M743.231 433.193H766.694V412.819H743.231V433.193Z" fill="black"/>
<path d="M712.085 122.322H735.549V101.948H712.085V122.322Z" fill="black"/>
<path d="M712.085 153.134H735.549V132.76H712.085V153.134Z" fill="black"/>
<path d="M712.085 184.446H735.549V164.072H712.085V184.446Z" fill="black"/>
<path d="M712.085 215.425H735.549V195.051H712.085V215.425Z" fill="black"/>
<path d="M712.085 246.737H735.549V226.363H712.085V246.737Z" fill="black"/>
<path d="M712.085 277.633H735.549V257.259H712.085V277.633Z" fill="black"/>
<path d="M712.085 308.778H735.549V288.404H712.085V308.778Z" fill="black"/>
<path d="M712.085 340.008H735.549V319.634H712.085V340.008Z" fill="black"/>
<path d="M712.085 370.902H735.549V350.528H712.085V370.902Z" fill="black"/>
<path d="M712.085 402.215H735.549V381.841H712.085V402.215Z" fill="black"/>
<path d="M712.085 433.193H735.549V412.819H712.085V433.193Z" fill="black"/>
<path d="M712.085 464.506H735.549V444.132H712.085V464.506Z" fill="black"/>
<path d="M680.94 340.008H704.403V319.634H680.94V340.008Z" fill="black"/>
<path d="M680.94 370.902H704.403V350.528H680.94V370.902Z" fill="black"/>
<path d="M680.94 402.215H704.403V381.841H680.94V402.215Z" fill="black"/>
<path d="M680.94 433.193H704.403V412.819H680.94V433.193Z" fill="black"/>
<path d="M680.94 464.506H704.403V444.132H680.94V464.506Z" fill="black"/>
<path d="M680.94 495.485H704.403V475.111H680.94V495.485Z" fill="black"/>
<path d="M1015.81 18.5311C1015.81 27.1316 1008.88 34.0621 1000.28 34.0621C991.68 34.0621 984.749 41.0762 984.749 49.6767C984.749 58.2772 977.735 65.2077 969.134 65.2077C960.534 65.2077 953.604 58.2772 953.604 49.6767C953.604 41.0762 960.534 34.0621 969.134 34.0621C977.735 34.0621 984.749 27.1316 984.749 18.5311C984.749 9.93053 991.68 3 1000.28 3C1008.88 3 1015.81 9.93053 1015.81 18.5311Z" stroke="black" stroke-width="5" stroke-miterlimit="10"/>
<path d="M1046.96 49.6771C1046.96 58.2776 1039.94 65.2081 1031.43 65.2081C1022.91 65.2081 1015.81 72.2222 1015.81 80.7392C1015.81 89.2562 1008.88 96.3537 1000.28 96.3537C991.68 96.3537 984.749 103.284 984.749 111.885C984.749 120.485 977.735 127.416 969.134 127.416C960.534 127.416 953.604 120.485 953.604 111.885C953.604 103.284 960.534 96.3537 969.134 96.3537C977.735 96.3537 984.749 89.3397 984.749 80.7392C984.749 72.1387 991.68 65.2081 1000.28 65.2081C1008.88 65.2081 1015.81 58.2776 1015.81 49.6771C1015.81 41.0765 1022.83 34.0625 1031.43 34.0625C1040.03 34.0625 1046.96 41.0765 1046.96 49.6771Z" stroke="black" stroke-width="5" stroke-miterlimit="10"/>
<path d="M1046.96 111.885C1046.96 120.485 1039.94 127.416 1031.43 127.416C1022.91 127.416 1015.81 134.43 1015.81 143.03C1015.81 151.631 1008.88 158.561 1000.28 158.561C991.68 158.561 984.749 165.575 984.749 174.176C984.749 182.776 977.735 189.707 969.134 189.707C960.534 189.707 953.604 182.693 953.604 174.176C953.604 165.659 960.534 158.561 969.134 158.561C977.735 158.561 984.749 151.631 984.749 143.03C984.749 134.43 991.68 127.416 1000.28 127.416C1008.88 127.416 1015.81 120.485 1015.81 111.885C1015.81 103.284 1022.83 96.3535 1031.43 96.3535C1040.03 96.3535 1046.96 103.284 1046.96 111.885Z" stroke="black" stroke-width="5" stroke-miterlimit="10"/>
<path d="M1046.96 174.176C1046.96 182.693 1039.94 189.707 1031.43 189.707C1022.91 189.707 1015.81 196.638 1015.81 205.238C1015.81 213.839 1008.88 220.853 1000.28 220.853C991.68 220.853 984.749 227.783 984.749 236.384C984.749 244.984 977.735 251.915 969.134 251.915C960.534 251.915 953.604 244.984 953.604 236.384C953.604 227.783 960.534 220.853 969.134 220.853C977.735 220.853 984.749 213.839 984.749 205.238C984.749 196.638 991.68 189.707 1000.28 189.707C1008.88 189.707 1015.81 182.693 1015.81 174.176C1015.81 165.659 1022.83 158.562 1031.43 158.562C1040.03 158.562 1046.96 165.576 1046.96 174.176Z" stroke="black" stroke-width="5" stroke-miterlimit="10"/>
<path d="M1046.96 236.384C1046.96 244.984 1039.94 251.915 1031.43 251.915C1022.91 251.915 1015.81 258.929 1015.81 267.529C1015.81 276.13 1008.88 283.06 1000.28 283.06C991.68 283.06 984.749 289.991 984.749 298.591C984.749 307.192 977.735 314.206 969.134 314.206C960.534 314.206 953.604 307.192 953.604 298.591C953.604 289.991 960.534 283.06 969.134 283.06C977.735 283.06 984.749 276.046 984.749 267.529C984.749 259.012 991.68 251.915 1000.28 251.915C1008.88 251.915 1015.81 244.984 1015.81 236.384C1015.81 227.783 1022.83 220.853 1031.43 220.853C1040.03 220.853 1046.96 227.783 1046.96 236.384Z" stroke="black" stroke-width="5" stroke-miterlimit="10"/>
<path d="M1046.96 298.592C1046.96 307.192 1039.94 314.206 1031.43 314.206C1022.91 314.206 1015.81 321.137 1015.81 329.737C1015.81 338.338 1008.88 345.268 1000.28 345.268C991.68 345.268 984.749 352.282 984.749 360.883C984.749 369.483 977.735 376.414 969.134 376.414C960.534 376.414 953.604 369.483 953.604 360.883C953.604 352.282 960.534 345.268 969.134 345.268C977.735 345.268 984.749 338.338 984.749 329.737C984.749 321.137 991.68 314.206 1000.28 314.206C1008.88 314.206 1015.81 307.192 1015.81 298.592C1015.81 289.991 1022.83 283.061 1031.43 283.061C1040.03 283.061 1046.96 289.991 1046.96 298.592Z" stroke="black" stroke-width="5" stroke-miterlimit="10"/>
<path d="M1046.96 360.882C1046.96 369.483 1039.94 376.413 1031.43 376.413C1022.91 376.413 1015.81 383.344 1015.81 391.944C1015.81 400.545 1008.88 407.559 1000.28 407.559C991.68 407.559 984.749 414.489 984.749 423.09C984.749 431.69 977.735 438.621 969.134 438.621C960.534 438.621 953.604 431.69 953.604 423.09C953.604 414.489 960.534 407.559 969.134 407.559C977.735 407.559 984.749 400.545 984.749 391.944C984.749 383.344 991.68 376.413 1000.28 376.413C1008.88 376.413 1015.81 369.483 1015.81 360.882C1015.81 352.282 1022.83 345.268 1031.43 345.268C1040.03 345.268 1046.96 352.282 1046.96 360.882Z" stroke="black" stroke-width="5" stroke-miterlimit="10"/>
<path d="M1046.96 423.091C1046.96 431.691 1039.94 438.622 1031.43 438.622C1022.91 438.622 1015.81 445.636 1015.81 454.236C1015.81 462.837 1008.88 469.767 1000.28 469.767C991.68 469.767 984.749 476.698 984.749 485.298C984.749 493.899 977.735 500.913 969.134 500.913C960.534 500.913 953.604 493.899 953.604 485.298C953.604 476.698 960.534 469.767 969.134 469.767C977.735 469.767 984.749 462.837 984.749 454.236C984.749 445.636 991.68 438.622 1000.28 438.622C1008.88 438.622 1015.81 431.691 1015.81 423.091C1015.81 414.49 1022.83 407.56 1031.43 407.56C1040.03 407.56 1046.96 414.49 1046.96 423.091Z" stroke="black" stroke-width="5" stroke-miterlimit="10"/>
<path d="M1031.43 500.829C1040 500.829 1046.96 493.875 1046.96 485.298C1046.96 476.72 1040 469.767 1031.43 469.767C1022.85 469.767 1015.89 476.72 1015.89 485.298C1015.89 493.875 1022.85 500.829 1031.43 500.829Z" stroke="black" stroke-width="5" stroke-miterlimit="10"/>
</svg>
