<svg width="1062" height="500" viewBox="0 0 1062 500" fill="none" xmlns="http://www.w3.org/2000/svg">
<path d="M54.7761 2.08789H31.3125V22.462H54.7761V2.08789Z" fill="black"/>
<path d="M23.4636 2.08789H0V22.462H23.4636V2.08789Z" fill="black"/>
<path d="M85.7546 2.08789H62.291V22.462H85.7546V2.08789Z" fill="black"/>
<path d="M54.7761 33.4004H31.3125V53.7745H54.7761V33.4004Z" fill="black"/>
<path d="M23.4636 33.4004H0V53.7745H23.4636V33.4004Z" fill="black"/>
<path d="M85.7546 33.4004H62.291V53.7745H85.7546V33.4004Z" fill="black"/>
<path d="M54.7761 64.4629H31.3125V84.8369H54.7761V64.4629Z" fill="black"/>
<path d="M23.4636 64.4629H0V84.8369H23.4636V64.4629Z" fill="black"/>
<path d="M85.7546 64.4629H62.291V84.8369H85.7546V64.4629Z" fill="black"/>
<path d="M54.7761 95.7754H31.3125V116.149H54.7761V95.7754Z" fill="black"/>
<path d="M23.4636 95.7754H0V116.149H23.4636V95.7754Z" fill="black"/>
<path d="M85.7546 95.7754H62.291V116.149H85.7546V95.7754Z" fill="black"/>
<path d="M54.7761 126.67H31.3125V147.044H54.7761V126.67Z" fill="black"/>
<path d="M23.4636 126.67H0V147.044H23.4636V126.67Z" fill="black"/>
<path d="M85.7546 126.67H62.291V147.044H85.7546V126.67Z" fill="black"/>
<path d="M54.7761 157.899H31.3125V178.274H54.7761V157.899Z" fill="black"/>
<path d="M23.4636 157.899H0V178.274H23.4636V157.899Z" fill="black"/>
<path d="M85.7546 157.899H62.291V178.274H85.7546V157.899Z" fill="black"/>
<path d="M54.7761 188.962H31.3125V209.336H54.7761V188.962Z" fill="black"/>
<path d="M23.4636 188.962H0V209.336H23.4636V188.962Z" fill="black"/>
<path d="M85.7546 188.962H62.291V209.336H85.7546V188.962Z" fill="black"/>
<path d="M54.7761 220.274H31.3125V240.649H54.7761V220.274Z" fill="black"/>
<path d="M23.4636 220.274H0V240.649H23.4636V220.274Z" fill="black"/>
<path d="M85.7546 220.274H62.291V240.649H85.7546V220.274Z" fill="black"/>
<path d="M54.7761 251.169H31.3125V271.543H54.7761V251.169Z" fill="black"/>
<path d="M54.7761 251.169H31.3125V271.543H54.7761V251.169Z" fill="black"/>
<path d="M23.4636 251.169H0V271.543H23.4636V251.169Z" fill="black"/>
<path d="M85.7546 251.169H62.291V271.543H85.7546V251.169Z" fill="black"/>
<path d="M54.7761 282.231H31.3125V302.605H54.7761V282.231Z" fill="black"/>
<path d="M23.4636 282.231H0V302.605H23.4636V282.231Z" fill="black"/>
<path d="M85.7546 282.231H62.291V302.605H85.7546V282.231Z" fill="black"/>
<path d="M54.7761 313.544H31.3125V333.918H54.7761V313.544Z" fill="black"/>
<path d="M23.4636 313.544H0V333.918H23.4636V313.544Z" fill="black"/>
<path d="M85.7546 313.544H62.291V333.918H85.7546V313.544Z" fill="black"/>
<path d="M54.7761 344.355H31.3125V364.73H54.7761V344.355Z" fill="black"/>
<path d="M23.4636 344.355H0V364.73H23.4636V344.355Z" fill="black"/>
<path d="M85.7546 344.355H62.291V364.73H85.7546V344.355Z" fill="black"/>
<path d="M54.7761 375.668H31.3125V396.042H54.7761V375.668Z" fill="black"/>
<path d="M23.4636 375.668H0V396.042H23.4636V375.668Z" fill="black"/>
<path d="M85.7546 375.668H62.291V396.042H85.7546V375.668Z" fill="black"/>
<path d="M54.7761 406.73H31.3125V427.105H54.7761V406.73Z" fill="black"/>
<path d="M23.4636 406.73H0V427.105H23.4636V406.73Z" fill="black"/>
<path d="M85.7546 406.73H62.291V427.105H85.7546V406.73Z" fill="black"/>
<path d="M54.7761 438.043H31.3125V458.417H54.7761V438.043Z" fill="black"/>
<path d="M23.4636 438.043H0V458.417H23.4636V438.043Z" fill="black"/>
<path d="M85.7546 438.043H62.291V458.417H85.7546V438.043Z" fill="black"/>
<path d="M54.7761 469.105H31.3125V489.48H54.7761V469.105Z" fill="black"/>
<path d="M23.4636 469.105H0V489.48H23.4636V469.105Z" fill="black"/>
<path d="M85.7546 469.105H62.291V489.48H85.7546V469.105Z" fill="black"/>
<path d="M148.13 2.25488H124.666V22.629H148.13V2.25488Z" fill="black"/>
<path d="M116.817 2.25488H93.3535V22.629H116.817V2.25488Z" fill="black"/>
<path d="M179.108 2.25488H155.645V22.629H179.108V2.25488Z" fill="black"/>
<path d="M148.13 33.5674H124.666V53.9415H148.13V33.5674Z" fill="black"/>
<path d="M116.817 33.5674H93.3535V53.9415H116.817V33.5674Z" fill="black"/>
<path d="M179.108 33.5674H155.645V53.9415H179.108V33.5674Z" fill="black"/>
<path d="M148.13 64.5459H124.666V84.92H148.13V64.5459Z" fill="black"/>
<path d="M116.817 64.5459H93.3535V84.92H116.817V64.5459Z" fill="black"/>
<path d="M179.108 64.5459H155.645V84.92H179.108V64.5459Z" fill="black"/>
<path d="M210.254 2.25488H186.79V22.629H210.254V2.25488Z" fill="black"/>
<path d="M210.254 33.5674H186.79V53.9415H210.254V33.5674Z" fill="black"/>
<path d="M210.254 64.5459H186.79V84.92H210.254V64.5459Z" fill="black"/>
<path d="M148.13 189.129H124.666V209.503H148.13V189.129Z" fill="black"/>
<path d="M116.817 189.129H93.3535V209.503H116.817V189.129Z" fill="black"/>
<path d="M179.108 189.129H155.645V209.503H179.108V189.129Z" fill="black"/>
<path d="M148.13 220.441H124.666V240.815H148.13V220.441Z" fill="black"/>
<path d="M116.817 220.441H93.3535V240.815H116.817V220.441Z" fill="black"/>
<path d="M179.108 220.441H155.645V240.815H179.108V220.441Z" fill="black"/>
<path d="M148.13 251.42H124.666V271.794H148.13V251.42Z" fill="black"/>
<path d="M116.817 251.42H93.3535V271.794H116.817V251.42Z" fill="black"/>
<path d="M179.108 251.42H155.645V271.794H179.108V251.42Z" fill="black"/>
<path d="M210.254 189.129H186.79V209.503H210.254V189.129Z" fill="black"/>
<path d="M210.254 220.441H186.79V240.815H210.254V220.441Z" fill="black"/>
<path d="M210.254 251.42H186.79V271.794H210.254V251.42Z" fill="black"/>
<path d="M241.316 2.25488H217.853V22.629H241.316V2.25488Z" fill="black"/>
<path d="M241.316 33.5674H217.853V53.9415H241.316V33.5674Z" fill="black"/>
<path d="M241.316 64.5459H217.853V84.92H241.316V64.5459Z" fill="black"/>
<path d="M241.316 189.129H217.853V209.503H241.316V189.129Z" fill="black"/>
<path d="M241.316 220.441H217.853V240.815H241.316V220.441Z" fill="black"/>
<path d="M241.316 251.42H217.853V271.794H241.316V251.42Z" fill="black"/>
<path d="M272.629 2.08789H249.165V22.462H272.629V2.08789Z" fill="black"/>
<path d="M272.629 33.4004H249.165V53.7745H272.629V33.4004Z" fill="black"/>
<path d="M272.629 64.4629H249.165V84.8369H272.629V64.4629Z" fill="black"/>
<path d="M272.629 95.7754H249.165V116.149H272.629V95.7754Z" fill="black"/>
<path d="M272.629 126.67H249.165V147.044H272.629V126.67Z" fill="black"/>
<path d="M272.629 157.899H249.165V178.274H272.629V157.899Z" fill="black"/>
<path d="M272.629 188.962H249.165V209.336H272.629V188.962Z" fill="black"/>
<path d="M272.629 220.274H249.165V240.649H272.629V220.274Z" fill="black"/>
<path d="M303.607 33.4004H280.144V53.7745H303.607V33.4004Z" fill="black"/>
<path d="M303.607 64.4629H280.144V84.8369H303.607V64.4629Z" fill="black"/>
<path d="M303.607 95.7754H280.144V116.149H303.607V95.7754Z" fill="black"/>
<path d="M303.607 126.67H280.144V147.044H303.607V126.67Z" fill="black"/>
<path d="M303.607 157.899H280.144V178.274H303.607V157.899Z" fill="black"/>
<path d="M303.607 188.962H280.144V209.336H303.607V188.962Z" fill="black"/>
<path d="M334.67 64.4629H311.206V84.8369H334.67V64.4629Z" fill="black"/>
<path d="M334.67 95.7754H311.206V116.149H334.67V95.7754Z" fill="black"/>
<path d="M334.67 126.67H311.206V147.044H334.67V126.67Z" fill="black"/>
<path d="M334.67 157.899H311.206V178.274H334.67V157.899Z" fill="black"/>
<path d="M210.171 282.315H186.707V302.69H210.171V282.315Z" fill="black"/>
<path d="M241.232 282.315H217.769V302.69H241.232V282.315Z" fill="black"/>
<path d="M272.545 282.148H249.081V302.522H272.545V282.148Z" fill="black"/>
<path d="M241.399 313.461H217.936V333.835H241.399V313.461Z" fill="black"/>
<path d="M272.545 313.461H249.081V333.835H272.545V313.461Z" fill="black"/>
<path d="M303.774 313.294H280.311V333.668H303.774V313.294Z" fill="black"/>
<path d="M241.149 344.773H217.686V365.147H241.149V344.773Z" fill="black"/>
<path d="M272.295 344.773H248.831V365.147H272.295V344.773Z" fill="black"/>
<path d="M303.607 344.606H280.144V364.981H303.607V344.606Z" fill="black"/>
<path d="M272.629 375.835H249.165V396.209H272.629V375.835Z" fill="black"/>
<path d="M303.691 375.835H280.228V396.209H303.691V375.835Z" fill="black"/>
<path d="M335.004 375.668H311.54V396.042H335.004V375.668Z" fill="black"/>
<path d="M272.629 406.814H249.165V427.189H272.629V406.814Z" fill="black"/>
<path d="M303.691 406.814H280.228V427.189H303.691V406.814Z" fill="black"/>
<path d="M335.004 406.646H311.54V427.021H335.004V406.646Z" fill="black"/>
<path d="M272.545 438.127H249.081V458.501H272.545V438.127Z" fill="black"/>
<path d="M303.691 438.127H280.228V458.501H303.691V438.127Z" fill="black"/>
<path d="M334.92 437.96H311.456V458.334H334.92V437.96Z" fill="black"/>
<path d="M303.524 469.188H280.061V489.562H303.524V469.188Z" fill="black"/>
<path d="M334.586 469.188H311.122V489.562H334.586V469.188Z" fill="black"/>
<path d="M365.898 469.021H342.435V489.396H365.898V469.021Z" fill="black"/>
<path d="M365.815 437.96H342.352V458.334H365.815V437.96Z" fill="black"/>
<path d="M408.066 31.0621C416.644 31.0621 423.597 24.1086 423.597 15.5311C423.597 6.9535 416.644 0 408.066 0C399.489 0 392.535 6.9535 392.535 15.5311C392.535 24.1086 399.489 31.0621 408.066 31.0621Z" fill="black"/>
<path d="M439.212 31.0621C447.789 31.0621 454.743 24.1086 454.743 15.5311C454.743 6.9535 447.789 0 439.212 0C430.634 0 423.681 6.9535 423.681 15.5311C423.681 24.1086 430.634 31.0621 439.212 31.0621Z" fill="black"/>
<path d="M470.357 31.0621C478.935 31.0621 485.888 24.1086 485.888 15.5311C485.888 6.9535 478.935 0 470.357 0C461.78 0 454.826 6.9535 454.826 15.5311C454.826 24.1086 461.78 31.0621 470.357 31.0621Z" fill="black"/>
<path d="M408.066 62.2076C416.644 62.2076 423.597 55.2541 423.597 46.6766C423.597 38.099 416.644 31.1455 408.066 31.1455C399.489 31.1455 392.535 38.099 392.535 46.6766C392.535 55.2541 399.489 62.2076 408.066 62.2076Z" fill="black"/>
<path d="M439.212 62.2076C447.789 62.2076 454.743 55.2541 454.743 46.6766C454.743 38.099 447.789 31.1455 439.212 31.1455C430.634 31.1455 423.681 38.099 423.681 46.6766C423.681 55.2541 430.634 62.2076 439.212 62.2076Z" fill="black"/>
<path d="M470.357 62.2076C478.935 62.2076 485.888 55.2541 485.888 46.6766C485.888 38.099 478.935 31.1455 470.357 31.1455C461.78 31.1455 454.826 38.099 454.826 46.6766C454.826 55.2541 461.78 62.2076 470.357 62.2076Z" fill="black"/>
<path d="M408.066 93.2701C416.644 93.2701 423.597 86.3166 423.597 77.7391C423.597 69.1615 416.644 62.208 408.066 62.208C399.489 62.208 392.535 69.1615 392.535 77.7391C392.535 86.3166 399.489 93.2701 408.066 93.2701Z" fill="black"/>
<path d="M439.212 93.2701C447.789 93.2701 454.743 86.3166 454.743 77.7391C454.743 69.1615 447.789 62.208 439.212 62.208C430.634 62.208 423.681 69.1615 423.681 77.7391C423.681 86.3166 430.634 93.2701 439.212 93.2701Z" fill="black"/>
<path d="M470.357 93.2701C478.935 93.2701 485.888 86.3166 485.888 77.7391C485.888 69.1615 478.935 62.208 470.357 62.208C461.78 62.208 454.826 69.1615 454.826 77.7391C454.826 86.3166 461.78 93.2701 470.357 93.2701Z" fill="black"/>
<path d="M408.066 124.416C416.644 124.416 423.597 117.462 423.597 108.885C423.597 100.307 416.644 93.3535 408.066 93.3535C399.489 93.3535 392.535 100.307 392.535 108.885C392.535 117.462 399.489 124.416 408.066 124.416Z" fill="black"/>
<path d="M439.212 124.416C447.789 124.416 454.743 117.462 454.743 108.885C454.743 100.307 447.789 93.3535 439.212 93.3535C430.634 93.3535 423.681 100.307 423.681 108.885C423.681 117.462 430.634 124.416 439.212 124.416Z" fill="black"/>
<path d="M470.357 124.416C478.935 124.416 485.888 117.462 485.888 108.885C485.888 100.307 478.935 93.3535 470.357 93.3535C461.78 93.3535 454.826 100.307 454.826 108.885C454.826 117.462 461.78 124.416 470.357 124.416Z" fill="black"/>
<path d="M408.066 155.561C416.644 155.561 423.597 148.608 423.597 140.03C423.597 131.453 416.644 124.499 408.066 124.499C399.489 124.499 392.535 131.453 392.535 140.03C392.535 148.608 399.489 155.561 408.066 155.561Z" fill="black"/>
<path d="M439.212 155.561C447.789 155.561 454.743 148.608 454.743 140.03C454.743 131.453 447.789 124.499 439.212 124.499C430.634 124.499 423.681 131.453 423.681 140.03C423.681 148.608 430.634 155.561 439.212 155.561Z" fill="black"/>
<path d="M470.357 155.561C478.935 155.561 485.888 148.608 485.888 140.03C485.888 131.453 478.935 124.499 470.357 124.499C461.78 124.499 454.826 131.453 454.826 140.03C454.826 148.608 461.78 155.561 470.357 155.561Z" fill="black"/>
<path d="M408.066 186.707C416.644 186.707 423.597 179.753 423.597 171.176C423.597 162.598 416.644 155.645 408.066 155.645C399.489 155.645 392.535 162.598 392.535 171.176C392.535 179.753 399.489 186.707 408.066 186.707Z" fill="black"/>
<path d="M439.212 186.707C447.789 186.707 454.743 179.753 454.743 171.176C454.743 162.598 447.789 155.645 439.212 155.645C430.634 155.645 423.681 162.598 423.681 171.176C423.681 179.753 430.634 186.707 439.212 186.707Z" fill="black"/>
<path d="M470.357 186.707C478.935 186.707 485.888 179.753 485.888 171.176C485.888 162.598 478.935 155.645 470.357 155.645C461.78 155.645 454.826 162.598 454.826 171.176C454.826 179.753 461.78 186.707 470.357 186.707Z" fill="black"/>
<path d="M408.066 217.769C416.644 217.769 423.597 210.816 423.597 202.238C423.597 193.661 416.644 186.707 408.066 186.707C399.489 186.707 392.535 193.661 392.535 202.238C392.535 210.816 399.489 217.769 408.066 217.769Z" fill="black"/>
<path d="M439.212 217.769C447.789 217.769 454.743 210.816 454.743 202.238C454.743 193.661 447.789 186.707 439.212 186.707C430.634 186.707 423.681 193.661 423.681 202.238C423.681 210.816 430.634 217.769 439.212 217.769Z" fill="black"/>
<path d="M470.357 217.769C478.935 217.769 485.888 210.816 485.888 202.238C485.888 193.661 478.935 186.707 470.357 186.707C461.78 186.707 454.826 193.661 454.826 202.238C454.826 210.816 461.78 217.769 470.357 217.769Z" fill="black"/>
<path d="M408.066 248.915C416.644 248.915 423.597 241.961 423.597 233.384C423.597 224.806 416.644 217.853 408.066 217.853C399.489 217.853 392.535 224.806 392.535 233.384C392.535 241.961 399.489 248.915 408.066 248.915Z" fill="black"/>
<path d="M439.212 248.915C447.789 248.915 454.743 241.961 454.743 233.384C454.743 224.806 447.789 217.853 439.212 217.853C430.634 217.853 423.681 224.806 423.681 233.384C423.681 241.961 430.634 248.915 439.212 248.915Z" fill="black"/>
<path d="M470.357 248.915C478.935 248.915 485.888 241.961 485.888 233.384C485.888 224.806 478.935 217.853 470.357 217.853C461.78 217.853 454.826 224.806 454.826 233.384C454.826 241.961 461.78 248.915 470.357 248.915Z" fill="black"/>
<path d="M408.066 280.06C416.644 280.06 423.597 273.107 423.597 264.529C423.597 255.952 416.644 248.998 408.066 248.998C399.489 248.998 392.535 255.952 392.535 264.529C392.535 273.107 399.489 280.06 408.066 280.06Z" fill="black"/>
<path d="M439.212 280.06C447.789 280.06 454.743 273.107 454.743 264.529C454.743 255.952 447.789 248.998 439.212 248.998C430.634 248.998 423.681 255.952 423.681 264.529C423.681 273.107 430.634 280.06 439.212 280.06Z" fill="black"/>
<path d="M470.357 280.06C478.935 280.06 485.888 273.107 485.888 264.529C485.888 255.952 478.935 248.998 470.357 248.998C461.78 248.998 454.826 255.952 454.826 264.529C454.826 273.107 461.78 280.06 470.357 280.06Z" fill="black"/>
<path d="M408.066 311.123C416.644 311.123 423.597 304.169 423.597 295.592C423.597 287.014 416.644 280.061 408.066 280.061C399.489 280.061 392.535 287.014 392.535 295.592C392.535 304.169 399.489 311.123 408.066 311.123Z" fill="black"/>
<path d="M439.212 311.123C447.789 311.123 454.743 304.169 454.743 295.592C454.743 287.014 447.789 280.061 439.212 280.061C430.634 280.061 423.681 287.014 423.681 295.592C423.681 304.169 430.634 311.123 439.212 311.123Z" fill="black"/>
<path d="M470.357 311.123C478.935 311.123 485.888 304.169 485.888 295.592C485.888 287.014 478.935 280.061 470.357 280.061C461.78 280.061 454.826 287.014 454.826 295.592C454.826 304.169 461.78 311.123 470.357 311.123Z" fill="black"/>
<path d="M408.066 342.268C416.644 342.268 423.597 335.315 423.597 326.737C423.597 318.16 416.644 311.206 408.066 311.206C399.489 311.206 392.535 318.16 392.535 326.737C392.535 335.315 399.489 342.268 408.066 342.268Z" fill="black"/>
<path d="M439.212 342.268C447.789 342.268 454.743 335.315 454.743 326.737C454.743 318.16 447.789 311.206 439.212 311.206C430.634 311.206 423.681 318.16 423.681 326.737C423.681 335.315 430.634 342.268 439.212 342.268Z" fill="black"/>
<path d="M470.357 342.268C478.935 342.268 485.888 335.315 485.888 326.737C485.888 318.16 478.935 311.206 470.357 311.206C461.78 311.206 454.826 318.16 454.826 326.737C454.826 335.315 461.78 342.268 470.357 342.268Z" fill="black"/>
<path d="M408.066 373.414C416.644 373.414 423.597 366.46 423.597 357.883C423.597 349.305 416.644 342.352 408.066 342.352C399.489 342.352 392.535 349.305 392.535 357.883C392.535 366.46 399.489 373.414 408.066 373.414Z" fill="black"/>
<path d="M439.212 373.414C447.789 373.414 454.743 366.46 454.743 357.883C454.743 349.305 447.789 342.352 439.212 342.352C430.634 342.352 423.681 349.305 423.681 357.883C423.681 366.46 430.634 373.414 439.212 373.414Z" fill="black"/>
<path d="M470.357 373.414C478.935 373.414 485.888 366.46 485.888 357.883C485.888 349.305 478.935 342.352 470.357 342.352C461.78 342.352 454.826 349.305 454.826 357.883C454.826 366.46 461.78 373.414 470.357 373.414Z" fill="black"/>
<path d="M408.066 404.475C416.644 404.475 423.597 397.522 423.597 388.944C423.597 380.367 416.644 373.413 408.066 373.413C399.489 373.413 392.535 380.367 392.535 388.944C392.535 397.522 399.489 404.475 408.066 404.475Z" fill="black"/>
<path d="M439.212 404.475C447.789 404.475 454.743 397.522 454.743 388.944C454.743 380.367 447.789 373.413 439.212 373.413C430.634 373.413 423.681 380.367 423.681 388.944C423.681 397.522 430.634 404.475 439.212 404.475Z" fill="black"/>
<path d="M470.357 404.475C478.935 404.475 485.888 397.522 485.888 388.944C485.888 380.367 478.935 373.413 470.357 373.413C461.78 373.413 454.826 380.367 454.826 388.944C454.826 397.522 461.78 404.475 470.357 404.475Z" fill="black"/>
<path d="M408.066 435.622C416.644 435.622 423.597 428.668 423.597 420.091C423.597 411.513 416.644 404.56 408.066 404.56C399.489 404.56 392.535 411.513 392.535 420.091C392.535 428.668 399.489 435.622 408.066 435.622Z" fill="black"/>
<path d="M439.212 435.622C447.789 435.622 454.743 428.668 454.743 420.091C454.743 411.513 447.789 404.56 439.212 404.56C430.634 404.56 423.681 411.513 423.681 420.091C423.681 428.668 430.634 435.622 439.212 435.622Z" fill="black"/>
<path d="M470.357 435.622C478.935 435.622 485.888 428.668 485.888 420.091C485.888 411.513 478.935 404.56 470.357 404.56C461.78 404.56 454.826 411.513 454.826 420.091C454.826 428.668 461.78 435.622 470.357 435.622Z" fill="black"/>
<path d="M408.066 466.767C416.644 466.767 423.597 459.814 423.597 451.236C423.597 442.659 416.644 435.705 408.066 435.705C399.489 435.705 392.535 442.659 392.535 451.236C392.535 459.814 399.489 466.767 408.066 466.767Z" fill="black"/>
<path d="M439.212 466.767C447.789 466.767 454.743 459.814 454.743 451.236C454.743 442.659 447.789 435.705 439.212 435.705C430.634 435.705 423.681 442.659 423.681 451.236C423.681 459.814 430.634 466.767 439.212 466.767Z" fill="black"/>
<path d="M470.357 466.767C478.935 466.767 485.888 459.814 485.888 451.236C485.888 442.659 478.935 435.705 470.357 435.705C461.78 435.705 454.826 442.659 454.826 451.236C454.826 459.814 461.78 466.767 470.357 466.767Z" fill="black"/>
<path d="M408.066 497.829C416.644 497.829 423.597 490.875 423.597 482.298C423.597 473.72 416.644 466.767 408.066 466.767C399.489 466.767 392.535 473.72 392.535 482.298C392.535 490.875 399.489 497.829 408.066 497.829Z" fill="black"/>
<path d="M439.212 497.829C447.789 497.829 454.743 490.875 454.743 482.298C454.743 473.72 447.789 466.767 439.212 466.767C430.634 466.767 423.681 473.72 423.681 482.298C423.681 490.875 430.634 497.829 439.212 497.829Z" fill="black"/>
<path d="M470.357 497.829C478.935 497.829 485.888 490.875 485.888 482.298C485.888 473.72 478.935 466.767 470.357 466.767C461.78 466.767 454.826 473.72 454.826 482.298C454.826 490.875 461.78 497.829 470.357 497.829Z" fill="black"/>
<path d="M501.42 33.15C509.997 33.15 516.951 26.1965 516.951 17.619C516.951 9.04139 509.997 2.08789 501.42 2.08789C492.842 2.08789 485.889 9.04139 485.889 17.619C485.889 26.1965 492.842 33.15 501.42 33.15Z" fill="black"/>
<path d="M532.565 33.15C541.143 33.15 548.096 26.1965 548.096 17.619C548.096 9.04139 541.143 2.08789 532.565 2.08789C523.988 2.08789 517.034 9.04139 517.034 17.619C517.034 26.1965 523.988 33.15 532.565 33.15Z" fill="black"/>
<path d="M501.42 64.2955C509.997 64.2955 516.951 57.342 516.951 48.7645C516.951 40.1869 509.997 33.2334 501.42 33.2334C492.842 33.2334 485.889 40.1869 485.889 48.7645C485.889 57.342 492.842 64.2955 501.42 64.2955Z" fill="black"/>
<path d="M532.565 64.2955C541.143 64.2955 548.096 57.342 548.096 48.7645C548.096 40.1869 541.143 33.2334 532.565 33.2334C523.988 33.2334 517.034 40.1869 517.034 48.7645C517.034 57.342 523.988 64.2955 532.565 64.2955Z" fill="black"/>
<path d="M563.711 64.2955C572.288 64.2955 579.242 57.342 579.242 48.7645C579.242 40.1869 572.288 33.2334 563.711 33.2334C555.133 33.2334 548.18 40.1869 548.18 48.7645C548.18 57.342 555.133 64.2955 563.711 64.2955Z" fill="black"/>
<path d="M501.42 95.441C509.997 95.441 516.951 88.4875 516.951 79.91C516.951 71.3324 509.997 64.3789 501.42 64.3789C492.842 64.3789 485.889 71.3324 485.889 79.91C485.889 88.4875 492.842 95.441 501.42 95.441Z" fill="black"/>
<path d="M532.565 95.441C541.143 95.441 548.096 88.4875 548.096 79.91C548.096 71.3324 541.143 64.3789 532.565 64.3789C523.988 64.3789 517.034 71.3324 517.034 79.91C517.034 88.4875 523.988 95.441 532.565 95.441Z" fill="black"/>
<path d="M563.711 95.441C572.288 95.441 579.242 88.4875 579.242 79.91C579.242 71.3324 572.288 64.3789 563.711 64.3789C555.133 64.3789 548.18 71.3324 548.18 79.91C548.18 88.4875 555.133 95.441 563.711 95.441Z" fill="black"/>
<path d="M563.711 64.2955C572.288 64.2955 579.242 57.342 579.242 48.7645C579.242 40.1869 572.288 33.2334 563.711 33.2334C555.133 33.2334 548.18 40.1869 548.18 48.7645C548.18 57.342 555.133 64.2955 563.711 64.2955Z" fill="black"/>
<path d="M532.565 126.503C541.143 126.503 548.096 119.549 548.096 110.971C548.096 102.394 541.143 95.4404 532.565 95.4404C523.988 95.4404 517.034 102.394 517.034 110.971C517.034 119.549 523.988 126.503 532.565 126.503Z" fill="black"/>
<path d="M563.711 126.503C572.288 126.503 579.242 119.549 579.242 110.971C579.242 102.394 572.288 95.4404 563.711 95.4404C555.133 95.4404 548.18 102.394 548.18 110.971C548.18 119.549 555.133 126.503 563.711 126.503Z" fill="black"/>
<path d="M594.773 126.503C603.351 126.503 610.304 119.549 610.304 110.971C610.304 102.394 603.351 95.4404 594.773 95.4404C586.196 95.4404 579.242 102.394 579.242 110.971C579.242 119.549 586.196 126.503 594.773 126.503Z" fill="black"/>
<path d="M532.565 157.649C541.143 157.649 548.096 150.696 548.096 142.118C548.096 133.54 541.143 126.587 532.565 126.587C523.988 126.587 517.034 133.54 517.034 142.118C517.034 150.696 523.988 157.649 532.565 157.649Z" fill="black"/>
<path d="M563.711 157.649C572.288 157.649 579.242 150.696 579.242 142.118C579.242 133.54 572.288 126.587 563.711 126.587C555.133 126.587 548.18 133.54 548.18 142.118C548.18 150.696 555.133 157.649 563.711 157.649Z" fill="black"/>
<path d="M594.773 157.649C603.351 157.649 610.304 150.696 610.304 142.118C610.304 133.54 603.351 126.587 594.773 126.587C586.196 126.587 579.242 133.54 579.242 142.118C579.242 150.696 586.196 157.649 594.773 157.649Z" fill="black"/>
<path d="M532.565 188.795C541.143 188.795 548.096 181.841 548.096 173.263C548.096 164.686 541.143 157.732 532.565 157.732C523.988 157.732 517.034 164.686 517.034 173.263C517.034 181.841 523.988 188.795 532.565 188.795Z" fill="black"/>
<path d="M563.711 188.795C572.288 188.795 579.242 181.841 579.242 173.263C579.242 164.686 572.288 157.732 563.711 157.732C555.133 157.732 548.18 164.686 548.18 173.263C548.18 181.841 555.133 188.795 563.711 188.795Z" fill="black"/>
<path d="M594.773 188.795C603.351 188.795 610.304 181.841 610.304 173.263C610.304 164.686 603.351 157.732 594.773 157.732C586.196 157.732 579.242 164.686 579.242 173.263C579.242 181.841 586.196 188.795 594.773 188.795Z" fill="black"/>
<path d="M532.565 219.94C541.143 219.94 548.096 212.987 548.096 204.409C548.096 195.831 541.143 188.878 532.565 188.878C523.988 188.878 517.034 195.831 517.034 204.409C517.034 212.987 523.988 219.94 532.565 219.94Z" fill="black"/>
<path d="M563.711 219.94C572.288 219.94 579.242 212.987 579.242 204.409C579.242 195.831 572.288 188.878 563.711 188.878C555.133 188.878 548.18 195.831 548.18 204.409C548.18 212.987 555.133 219.94 563.711 219.94Z" fill="black"/>
<path d="M594.773 219.94C603.351 219.94 610.304 212.987 610.304 204.409C610.304 195.831 603.351 188.878 594.773 188.878C586.196 188.878 579.242 195.831 579.242 204.409C579.242 212.987 586.196 219.94 594.773 219.94Z" fill="black"/>
<path d="M532.565 251.002C541.143 251.002 548.096 244.048 548.096 235.471C548.096 226.893 541.143 219.939 532.565 219.939C523.988 219.939 517.034 226.893 517.034 235.471C517.034 244.048 523.988 251.002 532.565 251.002Z" fill="black"/>
<path d="M563.711 251.002C572.288 251.002 579.242 244.048 579.242 235.471C579.242 226.893 572.288 219.939 563.711 219.939C555.133 219.939 548.18 226.893 548.18 235.471C548.18 244.048 555.133 251.002 563.711 251.002Z" fill="black"/>
<path d="M594.773 251.002C603.351 251.002 610.304 244.048 610.304 235.471C610.304 226.893 603.351 219.939 594.773 219.939C586.196 219.939 579.242 226.893 579.242 235.471C579.242 244.048 586.196 251.002 594.773 251.002Z" fill="black"/>
<path d="M563.711 282.148C572.288 282.148 579.242 275.195 579.242 266.617C579.242 258.039 572.288 251.086 563.711 251.086C555.133 251.086 548.18 258.039 548.18 266.617C548.18 275.195 555.133 282.148 563.711 282.148Z" fill="black"/>
<path d="M594.773 282.148C603.351 282.148 610.304 275.195 610.304 266.617C610.304 258.039 603.351 251.086 594.773 251.086C586.196 251.086 579.242 258.039 579.242 266.617C579.242 275.195 586.196 282.148 594.773 282.148Z" fill="black"/>
<path d="M563.711 313.294C572.288 313.294 579.242 306.34 579.242 297.763C579.242 289.185 572.288 282.231 563.711 282.231C555.133 282.231 548.18 289.185 548.18 297.763C548.18 306.34 555.133 313.294 563.711 313.294Z" fill="black"/>
<path d="M594.773 313.294C603.351 313.294 610.304 306.34 610.304 297.763C610.304 289.185 603.351 282.231 594.773 282.231C586.196 282.231 579.242 289.185 579.242 297.763C579.242 306.34 586.196 313.294 594.773 313.294Z" fill="black"/>
<path d="M563.711 344.355C572.288 344.355 579.242 337.402 579.242 328.824C579.242 320.246 572.288 313.293 563.711 313.293C555.133 313.293 548.18 320.246 548.18 328.824C548.18 337.402 555.133 344.355 563.711 344.355Z" fill="black"/>
<path d="M594.773 344.355C603.351 344.355 610.304 337.402 610.304 328.824C610.304 320.246 603.351 313.293 594.773 313.293C586.196 313.293 579.242 320.246 579.242 328.824C579.242 337.402 586.196 344.355 594.773 344.355Z" fill="black"/>
<path d="M625.919 344.355C634.496 344.355 641.45 337.402 641.45 328.824C641.45 320.246 634.496 313.293 625.919 313.293C617.341 313.293 610.388 320.246 610.388 328.824C610.388 337.402 617.341 344.355 625.919 344.355Z" fill="black"/>
<path d="M594.773 375.501C603.351 375.501 610.304 368.547 610.304 359.97C610.304 351.392 603.351 344.438 594.773 344.438C586.196 344.438 579.242 351.392 579.242 359.97C579.242 368.547 586.196 375.501 594.773 375.501Z" fill="black"/>
<path d="M625.919 375.501C634.496 375.501 641.45 368.547 641.45 359.97C641.45 351.392 634.496 344.438 625.919 344.438C617.341 344.438 610.388 351.392 610.388 359.97C610.388 368.547 617.341 375.501 625.919 375.501Z" fill="black"/>
<path d="M564.463 406.647C573.04 406.647 579.994 399.694 579.994 391.116C579.994 382.538 573.04 375.585 564.463 375.585C555.885 375.585 548.932 382.538 548.932 391.116C548.932 399.694 555.885 406.647 564.463 406.647Z" fill="black"/>
<path d="M595.524 406.647C604.102 406.647 611.055 399.694 611.055 391.116C611.055 382.538 604.102 375.585 595.524 375.585C586.947 375.585 579.993 382.538 579.993 391.116C579.993 399.694 586.947 406.647 595.524 406.647Z" fill="black"/>
<path d="M626.67 406.647C635.247 406.647 642.201 399.694 642.201 391.116C642.201 382.538 635.247 375.585 626.67 375.585C618.092 375.585 611.139 382.538 611.139 391.116C611.139 399.694 618.092 406.647 626.67 406.647Z" fill="black"/>
<path d="M564.463 437.709C573.04 437.709 579.994 430.755 579.994 422.178C579.994 413.6 573.04 406.646 564.463 406.646C555.885 406.646 548.932 413.6 548.932 422.178C548.932 430.755 555.885 437.709 564.463 437.709Z" fill="black"/>
<path d="M595.524 437.709C604.102 437.709 611.055 430.755 611.055 422.178C611.055 413.6 604.102 406.646 595.524 406.646C586.947 406.646 579.993 413.6 579.993 422.178C579.993 430.755 586.947 437.709 595.524 437.709Z" fill="black"/>
<path d="M626.67 437.709C635.247 437.709 642.201 430.755 642.201 422.178C642.201 413.6 635.247 406.646 626.67 406.646C618.092 406.646 611.139 413.6 611.139 422.178C611.139 430.755 618.092 437.709 626.67 437.709Z" fill="black"/>
<path d="M595.524 468.854C604.102 468.854 611.055 461.901 611.055 453.323C611.055 444.745 604.102 437.792 595.524 437.792C586.947 437.792 579.993 444.745 579.993 453.323C579.993 461.901 586.947 468.854 595.524 468.854Z" fill="black"/>
<path d="M626.67 468.854C635.247 468.854 642.201 461.901 642.201 453.323C642.201 444.745 635.247 437.792 626.67 437.792C618.092 437.792 611.139 444.745 611.139 453.323C611.139 461.901 618.092 468.854 626.67 468.854Z" fill="black"/>
<path d="M626.67 500C635.247 500 642.201 493.046 642.201 484.469C642.201 475.891 635.247 468.938 626.67 468.938C618.092 468.938 611.139 475.891 611.139 484.469C611.139 493.046 618.092 500 626.67 500Z" fill="black"/>
<path d="M657.815 406.647C666.393 406.647 673.346 399.694 673.346 391.116C673.346 382.538 666.393 375.585 657.815 375.585C649.238 375.585 642.284 382.538 642.284 391.116C642.284 399.694 649.238 406.647 657.815 406.647Z" fill="black"/>
<path d="M657.815 437.709C666.393 437.709 673.346 430.755 673.346 422.178C673.346 413.6 666.393 406.646 657.815 406.646C649.238 406.646 642.284 413.6 642.284 422.178C642.284 430.755 649.238 437.709 657.815 437.709Z" fill="black"/>
<path d="M657.815 468.854C666.393 468.854 673.346 461.901 673.346 453.323C673.346 444.745 666.393 437.792 657.815 437.792C649.238 437.792 642.284 444.745 642.284 453.323C642.284 461.901 649.238 468.854 657.815 468.854Z" fill="black"/>
<path d="M657.815 500C666.393 500 673.346 493.046 673.346 484.469C673.346 475.891 666.393 468.938 657.815 468.938C649.238 468.938 642.284 475.891 642.284 484.469C642.284 493.046 649.238 500 657.815 500Z" fill="black"/>
<path d="M907.482 31.0621C916.06 31.0621 923.013 24.1086 923.013 15.5311C923.013 6.9535 916.06 0 907.482 0C898.905 0 891.951 6.9535 891.951 15.5311C891.951 24.1086 898.905 31.0621 907.482 31.0621Z" fill="black"/>
<path d="M876.42 31.0621C884.997 31.0621 891.951 24.1086 891.951 15.5311C891.951 6.9535 884.997 0 876.42 0C867.842 0 860.889 6.9535 860.889 15.5311C860.889 24.1086 867.842 31.0621 876.42 31.0621Z" fill="black"/>
<path d="M845.274 31.0621C853.852 31.0621 860.805 24.1086 860.805 15.5311C860.805 6.9535 853.852 0 845.274 0C836.697 0 829.743 6.9535 829.743 15.5311C829.743 24.1086 836.697 31.0621 845.274 31.0621Z" fill="black"/>
<path d="M907.482 62.2076C916.06 62.2076 923.013 55.2541 923.013 46.6766C923.013 38.099 916.06 31.1455 907.482 31.1455C898.905 31.1455 891.951 38.099 891.951 46.6766C891.951 55.2541 898.905 62.2076 907.482 62.2076Z" fill="black"/>
<path d="M876.42 62.2076C884.997 62.2076 891.951 55.2541 891.951 46.6766C891.951 38.099 884.997 31.1455 876.42 31.1455C867.842 31.1455 860.889 38.099 860.889 46.6766C860.889 55.2541 867.842 62.2076 876.42 62.2076Z" fill="black"/>
<path d="M845.274 62.2076C853.852 62.2076 860.805 55.2541 860.805 46.6766C860.805 38.099 853.852 31.1455 845.274 31.1455C836.697 31.1455 829.743 38.099 829.743 46.6766C829.743 55.2541 836.697 62.2076 845.274 62.2076Z" fill="black"/>
<path d="M907.482 93.2701C916.06 93.2701 923.013 86.3166 923.013 77.7391C923.013 69.1615 916.06 62.208 907.482 62.208C898.905 62.208 891.951 69.1615 891.951 77.7391C891.951 86.3166 898.905 93.2701 907.482 93.2701Z" fill="black"/>
<path d="M876.42 93.2701C884.997 93.2701 891.951 86.3166 891.951 77.7391C891.951 69.1615 884.997 62.208 876.42 62.208C867.842 62.208 860.889 69.1615 860.889 77.7391C860.889 86.3166 867.842 93.2701 876.42 93.2701Z" fill="black"/>
<path d="M845.274 93.2701C853.852 93.2701 860.805 86.3166 860.805 77.7391C860.805 69.1615 853.852 62.208 845.274 62.208C836.697 62.208 829.743 69.1615 829.743 77.7391C829.743 86.3166 836.697 93.2701 845.274 93.2701Z" fill="black"/>
<path d="M907.482 124.416C916.06 124.416 923.013 117.462 923.013 108.885C923.013 100.307 916.06 93.3535 907.482 93.3535C898.905 93.3535 891.951 100.307 891.951 108.885C891.951 117.462 898.905 124.416 907.482 124.416Z" fill="black"/>
<path d="M876.42 124.416C884.997 124.416 891.951 117.462 891.951 108.885C891.951 100.307 884.997 93.3535 876.42 93.3535C867.842 93.3535 860.889 100.307 860.889 108.885C860.889 117.462 867.842 124.416 876.42 124.416Z" fill="black"/>
<path d="M845.274 124.416C853.852 124.416 860.805 117.462 860.805 108.885C860.805 100.307 853.852 93.3535 845.274 93.3535C836.697 93.3535 829.743 100.307 829.743 108.885C829.743 117.462 836.697 124.416 845.274 124.416Z" fill="black"/>
<path d="M907.482 155.561C916.06 155.561 923.013 148.608 923.013 140.03C923.013 131.453 916.06 124.499 907.482 124.499C898.905 124.499 891.951 131.453 891.951 140.03C891.951 148.608 898.905 155.561 907.482 155.561Z" fill="black"/>
<path d="M876.42 155.561C884.997 155.561 891.951 148.608 891.951 140.03C891.951 131.453 884.997 124.499 876.42 124.499C867.842 124.499 860.889 131.453 860.889 140.03C860.889 148.608 867.842 155.561 876.42 155.561Z" fill="black"/>
<path d="M845.274 155.561C853.852 155.561 860.805 148.608 860.805 140.03C860.805 131.453 853.852 124.499 845.274 124.499C836.697 124.499 829.743 131.453 829.743 140.03C829.743 148.608 836.697 155.561 845.274 155.561Z" fill="black"/>
<path d="M907.482 186.707C916.06 186.707 923.013 179.753 923.013 171.176C923.013 162.598 916.06 155.645 907.482 155.645C898.905 155.645 891.951 162.598 891.951 171.176C891.951 179.753 898.905 186.707 907.482 186.707Z" fill="black"/>
<path d="M876.42 186.707C884.997 186.707 891.951 179.753 891.951 171.176C891.951 162.598 884.997 155.645 876.42 155.645C867.842 155.645 860.889 162.598 860.889 171.176C860.889 179.753 867.842 186.707 876.42 186.707Z" fill="black"/>
<path d="M845.274 186.707C853.852 186.707 860.805 179.753 860.805 171.176C860.805 162.598 853.852 155.645 845.274 155.645C836.697 155.645 829.743 162.598 829.743 171.176C829.743 179.753 836.697 186.707 845.274 186.707Z" fill="black"/>
<path d="M907.482 217.769C916.06 217.769 923.013 210.816 923.013 202.238C923.013 193.661 916.06 186.707 907.482 186.707C898.905 186.707 891.951 193.661 891.951 202.238C891.951 210.816 898.905 217.769 907.482 217.769Z" fill="black"/>
<path d="M876.42 217.769C884.997 217.769 891.951 210.816 891.951 202.238C891.951 193.661 884.997 186.707 876.42 186.707C867.842 186.707 860.889 193.661 860.889 202.238C860.889 210.816 867.842 217.769 876.42 217.769Z" fill="black"/>
<path d="M845.274 217.769C853.852 217.769 860.805 210.816 860.805 202.238C860.805 193.661 853.852 186.707 845.274 186.707C836.697 186.707 829.743 193.661 829.743 202.238C829.743 210.816 836.697 217.769 845.274 217.769Z" fill="black"/>
<path d="M907.482 248.915C916.06 248.915 923.013 241.961 923.013 233.384C923.013 224.806 916.06 217.853 907.482 217.853C898.905 217.853 891.951 224.806 891.951 233.384C891.951 241.961 898.905 248.915 907.482 248.915Z" fill="black"/>
<path d="M876.42 248.915C884.997 248.915 891.951 241.961 891.951 233.384C891.951 224.806 884.997 217.853 876.42 217.853C867.842 217.853 860.889 224.806 860.889 233.384C860.889 241.961 867.842 248.915 876.42 248.915Z" fill="black"/>
<path d="M845.274 248.915C853.852 248.915 860.805 241.961 860.805 233.384C860.805 224.806 853.852 217.853 845.274 217.853C836.697 217.853 829.743 224.806 829.743 233.384C829.743 241.961 836.697 248.915 845.274 248.915Z" fill="black"/>
<path d="M907.482 280.06C916.06 280.06 923.013 273.107 923.013 264.529C923.013 255.952 916.06 248.998 907.482 248.998C898.905 248.998 891.951 255.952 891.951 264.529C891.951 273.107 898.905 280.06 907.482 280.06Z" fill="black"/>
<path d="M876.42 280.06C884.997 280.06 891.951 273.107 891.951 264.529C891.951 255.952 884.997 248.998 876.42 248.998C867.842 248.998 860.889 255.952 860.889 264.529C860.889 273.107 867.842 280.06 876.42 280.06Z" fill="black"/>
<path d="M845.274 280.06C853.852 280.06 860.805 273.107 860.805 264.529C860.805 255.952 853.852 248.998 845.274 248.998C836.697 248.998 829.743 255.952 829.743 264.529C829.743 273.107 836.697 280.06 845.274 280.06Z" fill="black"/>
<path d="M907.482 311.123C916.06 311.123 923.013 304.169 923.013 295.592C923.013 287.014 916.06 280.061 907.482 280.061C898.905 280.061 891.951 287.014 891.951 295.592C891.951 304.169 898.905 311.123 907.482 311.123Z" fill="black"/>
<path d="M876.42 311.123C884.997 311.123 891.951 304.169 891.951 295.592C891.951 287.014 884.997 280.061 876.42 280.061C867.842 280.061 860.889 287.014 860.889 295.592C860.889 304.169 867.842 311.123 876.42 311.123Z" fill="black"/>
<path d="M845.274 311.123C853.852 311.123 860.805 304.169 860.805 295.592C860.805 287.014 853.852 280.061 845.274 280.061C836.697 280.061 829.743 287.014 829.743 295.592C829.743 304.169 836.697 311.123 845.274 311.123Z" fill="black"/>
<path d="M907.482 342.268C916.06 342.268 923.013 335.315 923.013 326.737C923.013 318.16 916.06 311.206 907.482 311.206C898.905 311.206 891.951 318.16 891.951 326.737C891.951 335.315 898.905 342.268 907.482 342.268Z" fill="black"/>
<path d="M876.42 342.268C884.997 342.268 891.951 335.315 891.951 326.737C891.951 318.16 884.997 311.206 876.42 311.206C867.842 311.206 860.889 318.16 860.889 326.737C860.889 335.315 867.842 342.268 876.42 342.268Z" fill="black"/>
<path d="M845.274 342.268C853.852 342.268 860.805 335.315 860.805 326.737C860.805 318.16 853.852 311.206 845.274 311.206C836.697 311.206 829.743 318.16 829.743 326.737C829.743 335.315 836.697 342.268 845.274 342.268Z" fill="black"/>
<path d="M907.482 373.414C916.06 373.414 923.013 366.46 923.013 357.883C923.013 349.305 916.06 342.352 907.482 342.352C898.905 342.352 891.951 349.305 891.951 357.883C891.951 366.46 898.905 373.414 907.482 373.414Z" fill="black"/>
<path d="M876.42 373.414C884.997 373.414 891.951 366.46 891.951 357.883C891.951 349.305 884.997 342.352 876.42 342.352C867.842 342.352 860.889 349.305 860.889 357.883C860.889 366.46 867.842 373.414 876.42 373.414Z" fill="black"/>
<path d="M845.274 373.414C853.852 373.414 860.805 366.46 860.805 357.883C860.805 349.305 853.852 342.352 845.274 342.352C836.697 342.352 829.743 349.305 829.743 357.883C829.743 366.46 836.697 373.414 845.274 373.414Z" fill="black"/>
<path d="M907.482 404.475C916.06 404.475 923.013 397.522 923.013 388.944C923.013 380.367 916.06 373.413 907.482 373.413C898.905 373.413 891.951 380.367 891.951 388.944C891.951 397.522 898.905 404.475 907.482 404.475Z" fill="black"/>
<path d="M876.42 404.475C884.997 404.475 891.951 397.522 891.951 388.944C891.951 380.367 884.997 373.413 876.42 373.413C867.842 373.413 860.889 380.367 860.889 388.944C860.889 397.522 867.842 404.475 876.42 404.475Z" fill="black"/>
<path d="M845.274 404.475C853.852 404.475 860.805 397.522 860.805 388.944C860.805 380.367 853.852 373.413 845.274 373.413C836.697 373.413 829.743 380.367 829.743 388.944C829.743 397.522 836.697 404.475 845.274 404.475Z" fill="black"/>
<path d="M907.482 435.622C916.06 435.622 923.013 428.668 923.013 420.091C923.013 411.513 916.06 404.56 907.482 404.56C898.905 404.56 891.951 411.513 891.951 420.091C891.951 428.668 898.905 435.622 907.482 435.622Z" fill="black"/>
<path d="M876.42 435.622C884.997 435.622 891.951 428.668 891.951 420.091C891.951 411.513 884.997 404.56 876.42 404.56C867.842 404.56 860.889 411.513 860.889 420.091C860.889 428.668 867.842 435.622 876.42 435.622Z" fill="black"/>
<path d="M845.274 435.622C853.852 435.622 860.805 428.668 860.805 420.091C860.805 411.513 853.852 404.56 845.274 404.56C836.697 404.56 829.743 411.513 829.743 420.091C829.743 428.668 836.697 435.622 845.274 435.622Z" fill="black"/>
<path d="M907.482 466.767C916.06 466.767 923.013 459.814 923.013 451.236C923.013 442.659 916.06 435.705 907.482 435.705C898.905 435.705 891.951 442.659 891.951 451.236C891.951 459.814 898.905 466.767 907.482 466.767Z" fill="black"/>
<path d="M876.42 466.767C884.997 466.767 891.951 459.814 891.951 451.236C891.951 442.659 884.997 435.705 876.42 435.705C867.842 435.705 860.889 442.659 860.889 451.236C860.889 459.814 867.842 466.767 876.42 466.767Z" fill="black"/>
<path d="M845.274 466.767C853.852 466.767 860.805 459.814 860.805 451.236C860.805 442.659 853.852 435.705 845.274 435.705C836.697 435.705 829.743 442.659 829.743 451.236C829.743 459.814 836.697 466.767 845.274 466.767Z" fill="black"/>
<path d="M907.482 497.829C916.06 497.829 923.013 490.875 923.013 482.298C923.013 473.72 916.06 466.767 907.482 466.767C898.905 466.767 891.951 473.72 891.951 482.298C891.951 490.875 898.905 497.829 907.482 497.829Z" fill="black"/>
<path d="M876.42 497.829C884.997 497.829 891.951 490.875 891.951 482.298C891.951 473.72 884.997 466.767 876.42 466.767C867.842 466.767 860.889 473.72 860.889 482.298C860.889 490.875 867.842 497.829 876.42 497.829Z" fill="black"/>
<path d="M845.274 497.829C853.852 497.829 860.805 490.875 860.805 482.298C860.805 473.72 853.852 466.767 845.274 466.767C836.697 466.767 829.743 473.72 829.743 482.298C829.743 490.875 836.697 497.829 845.274 497.829Z" fill="black"/>
<path d="M814.129 33.15C822.706 33.15 829.66 26.1965 829.66 17.619C829.66 9.04139 822.706 2.08789 814.129 2.08789C805.551 2.08789 798.598 9.04139 798.598 17.619C798.598 26.1965 805.551 33.15 814.129 33.15Z" fill="black"/>
<path d="M783.066 33.15C791.644 33.15 798.597 26.1965 798.597 17.619C798.597 9.04139 791.644 2.08789 783.066 2.08789C774.489 2.08789 767.535 9.04139 767.535 17.619C767.535 26.1965 774.489 33.15 783.066 33.15Z" fill="black"/>
<path d="M814.129 64.2955C822.706 64.2955 829.66 57.342 829.66 48.7645C829.66 40.1869 822.706 33.2334 814.129 33.2334C805.551 33.2334 798.598 40.1869 798.598 48.7645C798.598 57.342 805.551 64.2955 814.129 64.2955Z" fill="black"/>
<path d="M783.066 64.2955C791.644 64.2955 798.597 57.342 798.597 48.7645C798.597 40.1869 791.644 33.2334 783.066 33.2334C774.489 33.2334 767.535 40.1869 767.535 48.7645C767.535 57.342 774.489 64.2955 783.066 64.2955Z" fill="black"/>
<path d="M751.921 64.2955C760.498 64.2955 767.452 57.342 767.452 48.7645C767.452 40.1869 760.498 33.2334 751.921 33.2334C743.343 33.2334 736.39 40.1869 736.39 48.7645C736.39 57.342 743.343 64.2955 751.921 64.2955Z" fill="black"/>
<path d="M814.129 95.441C822.706 95.441 829.66 88.4875 829.66 79.91C829.66 71.3324 822.706 64.3789 814.129 64.3789C805.551 64.3789 798.598 71.3324 798.598 79.91C798.598 88.4875 805.551 95.441 814.129 95.441Z" fill="black"/>
<path d="M783.066 95.441C791.644 95.441 798.597 88.4875 798.597 79.91C798.597 71.3324 791.644 64.3789 783.066 64.3789C774.489 64.3789 767.535 71.3324 767.535 79.91C767.535 88.4875 774.489 95.441 783.066 95.441Z" fill="black"/>
<path d="M751.921 95.441C760.498 95.441 767.452 88.4875 767.452 79.91C767.452 71.3324 760.498 64.3789 751.921 64.3789C743.343 64.3789 736.39 71.3324 736.39 79.91C736.39 88.4875 743.343 95.441 751.921 95.441Z" fill="black"/>
<path d="M751.921 64.2955C760.498 64.2955 767.452 57.342 767.452 48.7645C767.452 40.1869 760.498 33.2334 751.921 33.2334C743.343 33.2334 736.39 40.1869 736.39 48.7645C736.39 57.342 743.343 64.2955 751.921 64.2955Z" fill="black"/>
<path d="M783.066 126.503C791.644 126.503 798.597 119.549 798.597 110.971C798.597 102.394 791.644 95.4404 783.066 95.4404C774.489 95.4404 767.535 102.394 767.535 110.971C767.535 119.549 774.489 126.503 783.066 126.503Z" fill="black"/>
<path d="M751.921 126.503C760.498 126.503 767.452 119.549 767.452 110.971C767.452 102.394 760.498 95.4404 751.921 95.4404C743.343 95.4404 736.39 102.394 736.39 110.971C736.39 119.549 743.343 126.503 751.921 126.503Z" fill="black"/>
<path d="M720.775 126.503C729.353 126.503 736.306 119.549 736.306 110.971C736.306 102.394 729.353 95.4404 720.775 95.4404C712.198 95.4404 705.244 102.394 705.244 110.971C705.244 119.549 712.198 126.503 720.775 126.503Z" fill="black"/>
<path d="M783.066 157.649C791.644 157.649 798.597 150.696 798.597 142.118C798.597 133.54 791.644 126.587 783.066 126.587C774.489 126.587 767.535 133.54 767.535 142.118C767.535 150.696 774.489 157.649 783.066 157.649Z" fill="black"/>
<path d="M751.921 157.649C760.498 157.649 767.452 150.696 767.452 142.118C767.452 133.54 760.498 126.587 751.921 126.587C743.343 126.587 736.39 133.54 736.39 142.118C736.39 150.696 743.343 157.649 751.921 157.649Z" fill="black"/>
<path d="M720.775 157.649C729.353 157.649 736.306 150.696 736.306 142.118C736.306 133.54 729.353 126.587 720.775 126.587C712.198 126.587 705.244 133.54 705.244 142.118C705.244 150.696 712.198 157.649 720.775 157.649Z" fill="black"/>
<path d="M783.066 188.795C791.644 188.795 798.597 181.841 798.597 173.263C798.597 164.686 791.644 157.732 783.066 157.732C774.489 157.732 767.535 164.686 767.535 173.263C767.535 181.841 774.489 188.795 783.066 188.795Z" fill="black"/>
<path d="M751.921 188.795C760.498 188.795 767.452 181.841 767.452 173.263C767.452 164.686 760.498 157.732 751.921 157.732C743.343 157.732 736.39 164.686 736.39 173.263C736.39 181.841 743.343 188.795 751.921 188.795Z" fill="black"/>
<path d="M720.775 188.795C729.353 188.795 736.306 181.841 736.306 173.263C736.306 164.686 729.353 157.732 720.775 157.732C712.198 157.732 705.244 164.686 705.244 173.263C705.244 181.841 712.198 188.795 720.775 188.795Z" fill="black"/>
<path d="M783.066 219.94C791.644 219.94 798.597 212.987 798.597 204.409C798.597 195.831 791.644 188.878 783.066 188.878C774.489 188.878 767.535 195.831 767.535 204.409C767.535 212.987 774.489 219.94 783.066 219.94Z" fill="black"/>
<path d="M751.921 219.94C760.498 219.94 767.452 212.987 767.452 204.409C767.452 195.831 760.498 188.878 751.921 188.878C743.343 188.878 736.39 195.831 736.39 204.409C736.39 212.987 743.343 219.94 751.921 219.94Z" fill="black"/>
<path d="M720.775 219.94C729.353 219.94 736.306 212.987 736.306 204.409C736.306 195.831 729.353 188.878 720.775 188.878C712.198 188.878 705.244 195.831 705.244 204.409C705.244 212.987 712.198 219.94 720.775 219.94Z" fill="black"/>
<path d="M783.066 251.002C791.644 251.002 798.597 244.048 798.597 235.471C798.597 226.893 791.644 219.939 783.066 219.939C774.489 219.939 767.535 226.893 767.535 235.471C767.535 244.048 774.489 251.002 783.066 251.002Z" fill="black"/>
<path d="M751.921 251.002C760.498 251.002 767.452 244.048 767.452 235.471C767.452 226.893 760.498 219.939 751.921 219.939C743.343 219.939 736.39 226.893 736.39 235.471C736.39 244.048 743.343 251.002 751.921 251.002Z" fill="black"/>
<path d="M720.775 251.002C729.353 251.002 736.306 244.048 736.306 235.471C736.306 226.893 729.353 219.939 720.775 219.939C712.198 219.939 705.244 226.893 705.244 235.471C705.244 244.048 712.198 251.002 720.775 251.002Z" fill="black"/>
<path d="M751.921 282.148C760.498 282.148 767.452 275.195 767.452 266.617C767.452 258.039 760.498 251.086 751.921 251.086C743.343 251.086 736.39 258.039 736.39 266.617C736.39 275.195 743.343 282.148 751.921 282.148Z" fill="black"/>
<path d="M720.775 282.148C729.353 282.148 736.306 275.195 736.306 266.617C736.306 258.039 729.353 251.086 720.775 251.086C712.198 251.086 705.244 258.039 705.244 266.617C705.244 275.195 712.198 282.148 720.775 282.148Z" fill="black"/>
<path d="M751.921 313.294C760.498 313.294 767.452 306.34 767.452 297.763C767.452 289.185 760.498 282.231 751.921 282.231C743.343 282.231 736.39 289.185 736.39 297.763C736.39 306.34 743.343 313.294 751.921 313.294Z" fill="black"/>
<path d="M720.775 313.294C729.353 313.294 736.306 306.34 736.306 297.763C736.306 289.185 729.353 282.231 720.775 282.231C712.198 282.231 705.244 289.185 705.244 297.763C705.244 306.34 712.198 313.294 720.775 313.294Z" fill="black"/>
<path d="M751.921 344.355C760.498 344.355 767.452 337.402 767.452 328.824C767.452 320.246 760.498 313.293 751.921 313.293C743.343 313.293 736.39 320.246 736.39 328.824C736.39 337.402 743.343 344.355 751.921 344.355Z" fill="black"/>
<path d="M720.775 344.355C729.353 344.355 736.306 337.402 736.306 328.824C736.306 320.246 729.353 313.293 720.775 313.293C712.198 313.293 705.244 320.246 705.244 328.824C705.244 337.402 712.198 344.355 720.775 344.355Z" fill="black"/>
<path d="M689.713 344.355C698.29 344.355 705.244 337.402 705.244 328.824C705.244 320.246 698.29 313.293 689.713 313.293C681.135 313.293 674.182 320.246 674.182 328.824C674.182 337.402 681.135 344.355 689.713 344.355Z" fill="black"/>
<path d="M720.775 375.501C729.353 375.501 736.306 368.547 736.306 359.97C736.306 351.392 729.353 344.438 720.775 344.438C712.198 344.438 705.244 351.392 705.244 359.97C705.244 368.547 712.198 375.501 720.775 375.501Z" fill="black"/>
<path d="M689.713 375.501C698.29 375.501 705.244 368.547 705.244 359.97C705.244 351.392 698.29 344.438 689.713 344.438C681.135 344.438 674.182 351.392 674.182 359.97C674.182 368.547 681.135 375.501 689.713 375.501Z" fill="black"/>
<path d="M751.169 406.647C759.746 406.647 766.7 399.694 766.7 391.116C766.7 382.538 759.746 375.585 751.169 375.585C742.591 375.585 735.638 382.538 735.638 391.116C735.638 399.694 742.591 406.647 751.169 406.647Z" fill="black"/>
<path d="M720.023 406.647C728.601 406.647 735.554 399.694 735.554 391.116C735.554 382.538 728.601 375.585 720.023 375.585C711.446 375.585 704.492 382.538 704.492 391.116C704.492 399.694 711.446 406.647 720.023 406.647Z" fill="black"/>
<path d="M688.878 406.647C697.455 406.647 704.409 399.694 704.409 391.116C704.409 382.538 697.455 375.585 688.878 375.585C680.3 375.585 673.347 382.538 673.347 391.116C673.347 399.694 680.3 406.647 688.878 406.647Z" fill="black"/>
<path d="M751.169 437.709C759.746 437.709 766.7 430.755 766.7 422.178C766.7 413.6 759.746 406.646 751.169 406.646C742.591 406.646 735.638 413.6 735.638 422.178C735.638 430.755 742.591 437.709 751.169 437.709Z" fill="black"/>
<path d="M720.023 437.709C728.601 437.709 735.554 430.755 735.554 422.178C735.554 413.6 728.601 406.646 720.023 406.646C711.446 406.646 704.492 413.6 704.492 422.178C704.492 430.755 711.446 437.709 720.023 437.709Z" fill="black"/>
<path d="M688.878 437.709C697.455 437.709 704.409 430.755 704.409 422.178C704.409 413.6 697.455 406.646 688.878 406.646C680.3 406.646 673.347 413.6 673.347 422.178C673.347 430.755 680.3 437.709 688.878 437.709Z" fill="black"/>
<path d="M720.023 468.854C728.601 468.854 735.554 461.901 735.554 453.323C735.554 444.745 728.601 437.792 720.023 437.792C711.446 437.792 704.492 444.745 704.492 453.323C704.492 461.901 711.446 468.854 720.023 468.854Z" fill="black"/>
<path d="M688.878 468.854C697.455 468.854 704.409 461.901 704.409 453.323C704.409 444.745 697.455 437.792 688.878 437.792C680.3 437.792 673.347 444.745 673.347 453.323C673.347 461.901 680.3 468.854 688.878 468.854Z" fill="black"/>
<path d="M688.878 500C697.455 500 704.409 493.046 704.409 484.469C704.409 475.891 697.455 468.938 688.878 468.938C680.3 468.938 673.347 475.891 673.347 484.469C673.347 493.046 680.3 500 688.878 500Z" fill="black"/>
<path d="M563.711 375.501C572.288 375.501 579.242 368.547 579.242 359.97C579.242 351.392 572.288 344.438 563.711 344.438C555.133 344.438 548.18 351.392 548.18 359.97C548.18 368.547 555.133 375.501 563.711 375.501Z" fill="black"/>
<path d="M751.921 375.501C760.498 375.501 767.452 368.547 767.452 359.97C767.452 351.392 760.498 344.438 751.921 344.438C743.343 344.438 736.39 351.392 736.39 359.97C736.39 368.547 743.343 375.501 751.921 375.501Z" fill="black"/>
<path d="M966.135 31.0621C974.712 31.0621 981.666 24.1086 981.666 15.5311C981.666 6.9535 974.712 0 966.135 0C957.557 0 950.604 6.9535 950.604 15.5311C950.604 24.1086 957.557 31.0621 966.135 31.0621Z" fill="black"/>
<path d="M997.197 31.0621C1005.77 31.0621 1012.73 24.1086 1012.73 15.5311C1012.73 6.9535 1005.77 0 997.197 0C988.62 0 981.666 6.9535 981.666 15.5311C981.666 24.1086 988.62 31.0621 997.197 31.0621Z" fill="black"/>
<path d="M1028.34 31.0621C1036.92 31.0621 1043.87 24.1086 1043.87 15.5311C1043.87 6.9535 1036.92 0 1028.34 0C1019.76 0 1012.81 6.9535 1012.81 15.5311C1012.81 24.1086 1019.76 31.0621 1028.34 31.0621Z" fill="black"/>
<path d="M966.135 62.2076C974.712 62.2076 981.666 55.2541 981.666 46.6766C981.666 38.099 974.712 31.1455 966.135 31.1455C957.557 31.1455 950.604 38.099 950.604 46.6766C950.604 55.2541 957.557 62.2076 966.135 62.2076Z" fill="black"/>
<path d="M997.197 62.2076C1005.77 62.2076 1012.73 55.2541 1012.73 46.6766C1012.73 38.099 1005.77 31.1455 997.197 31.1455C988.62 31.1455 981.666 38.099 981.666 46.6766C981.666 55.2541 988.62 62.2076 997.197 62.2076Z" fill="black"/>
<path d="M1028.34 62.2076C1036.92 62.2076 1043.87 55.2541 1043.87 46.6766C1043.87 38.099 1036.92 31.1455 1028.34 31.1455C1019.76 31.1455 1012.81 38.099 1012.81 46.6766C1012.81 55.2541 1019.76 62.2076 1028.34 62.2076Z" fill="black"/>
<path d="M966.135 93.3532C974.712 93.3532 981.666 86.3997 981.666 77.8221C981.666 69.2445 974.712 62.291 966.135 62.291C957.557 62.291 950.604 69.2445 950.604 77.8221C950.604 86.3997 957.557 93.3532 966.135 93.3532Z" fill="black"/>
<path d="M997.197 93.3532C1005.77 93.3532 1012.73 86.3997 1012.73 77.8221C1012.73 69.2445 1005.77 62.291 997.197 62.291C988.62 62.291 981.666 69.2445 981.666 77.8221C981.666 86.3997 988.62 93.3532 997.197 93.3532Z" fill="black"/>
<path d="M1028.34 93.3532C1036.92 93.3532 1043.87 86.3997 1043.87 77.8221C1043.87 69.2445 1036.92 62.291 1028.34 62.291C1019.76 62.291 1012.81 69.2445 1012.81 77.8221C1012.81 86.3997 1019.76 93.3532 1028.34 93.3532Z" fill="black"/>
<path d="M966.135 124.416C974.712 124.416 981.666 117.462 981.666 108.885C981.666 100.307 974.712 93.3535 966.135 93.3535C957.557 93.3535 950.604 100.307 950.604 108.885C950.604 117.462 957.557 124.416 966.135 124.416Z" fill="black"/>
<path d="M997.197 124.416C1005.77 124.416 1012.73 117.462 1012.73 108.885C1012.73 100.307 1005.77 93.3535 997.197 93.3535C988.62 93.3535 981.666 100.307 981.666 108.885C981.666 117.462 988.62 124.416 997.197 124.416Z" fill="black"/>
<path d="M1028.34 124.416C1036.92 124.416 1043.87 117.462 1043.87 108.885C1043.87 100.307 1036.92 93.3535 1028.34 93.3535C1019.76 93.3535 1012.81 100.307 1012.81 108.885C1012.81 117.462 1019.76 124.416 1028.34 124.416Z" fill="black"/>
<path d="M966.135 155.561C974.712 155.561 981.666 148.608 981.666 140.03C981.666 131.453 974.712 124.499 966.135 124.499C957.557 124.499 950.604 131.453 950.604 140.03C950.604 148.608 957.557 155.561 966.135 155.561Z" fill="black"/>
<path d="M997.197 155.561C1005.77 155.561 1012.73 148.608 1012.73 140.03C1012.73 131.453 1005.77 124.499 997.197 124.499C988.62 124.499 981.666 131.453 981.666 140.03C981.666 148.608 988.62 155.561 997.197 155.561Z" fill="black"/>
<path d="M1028.34 155.561C1036.92 155.561 1043.87 148.608 1043.87 140.03C1043.87 131.453 1036.92 124.499 1028.34 124.499C1019.76 124.499 1012.81 131.453 1012.81 140.03C1012.81 148.608 1019.76 155.561 1028.34 155.561Z" fill="black"/>
<path d="M966.135 186.707C974.712 186.707 981.666 179.753 981.666 171.176C981.666 162.598 974.712 155.645 966.135 155.645C957.557 155.645 950.604 162.598 950.604 171.176C950.604 179.753 957.557 186.707 966.135 186.707Z" fill="black"/>
<path d="M997.197 186.707C1005.77 186.707 1012.73 179.753 1012.73 171.176C1012.73 162.598 1005.77 155.645 997.197 155.645C988.62 155.645 981.666 162.598 981.666 171.176C981.666 179.753 988.62 186.707 997.197 186.707Z" fill="black"/>
<path d="M1028.34 186.707C1036.92 186.707 1043.87 179.753 1043.87 171.176C1043.87 162.598 1036.92 155.645 1028.34 155.645C1019.76 155.645 1012.81 162.598 1012.81 171.176C1012.81 179.753 1019.76 186.707 1028.34 186.707Z" fill="black"/>
<path d="M966.135 217.852C974.712 217.852 981.666 210.899 981.666 202.321C981.666 193.744 974.712 186.79 966.135 186.79C957.557 186.79 950.604 193.744 950.604 202.321C950.604 210.899 957.557 217.852 966.135 217.852Z" fill="black"/>
<path d="M997.197 217.852C1005.77 217.852 1012.73 210.899 1012.73 202.321C1012.73 193.744 1005.77 186.79 997.197 186.79C988.62 186.79 981.666 193.744 981.666 202.321C981.666 210.899 988.62 217.852 997.197 217.852Z" fill="black"/>
<path d="M1028.34 217.852C1036.92 217.852 1043.87 210.899 1043.87 202.321C1043.87 193.744 1036.92 186.79 1028.34 186.79C1019.76 186.79 1012.81 193.744 1012.81 202.321C1012.81 210.899 1019.76 217.852 1028.34 217.852Z" fill="black"/>
<path d="M966.135 248.915C974.712 248.915 981.666 241.961 981.666 233.384C981.666 224.806 974.712 217.853 966.135 217.853C957.557 217.853 950.604 224.806 950.604 233.384C950.604 241.961 957.557 248.915 966.135 248.915Z" fill="black"/>
<path d="M997.197 248.915C1005.77 248.915 1012.73 241.961 1012.73 233.384C1012.73 224.806 1005.77 217.853 997.197 217.853C988.62 217.853 981.666 224.806 981.666 233.384C981.666 241.961 988.62 248.915 997.197 248.915Z" fill="black"/>
<path d="M1028.34 248.915C1036.92 248.915 1043.87 241.961 1043.87 233.384C1043.87 224.806 1036.92 217.853 1028.34 217.853C1019.76 217.853 1012.81 224.806 1012.81 233.384C1012.81 241.961 1019.76 248.915 1028.34 248.915Z" fill="black"/>
<path d="M966.135 280.06C974.712 280.06 981.666 273.107 981.666 264.529C981.666 255.952 974.712 248.998 966.135 248.998C957.557 248.998 950.604 255.952 950.604 264.529C950.604 273.107 957.557 280.06 966.135 280.06Z" fill="black"/>
<path d="M997.197 280.06C1005.77 280.06 1012.73 273.107 1012.73 264.529C1012.73 255.952 1005.77 248.998 997.197 248.998C988.62 248.998 981.666 255.952 981.666 264.529C981.666 273.107 988.62 280.06 997.197 280.06Z" fill="black"/>
<path d="M1028.34 280.06C1036.92 280.06 1043.87 273.107 1043.87 264.529C1043.87 255.952 1036.92 248.998 1028.34 248.998C1019.76 248.998 1012.81 255.952 1012.81 264.529C1012.81 273.107 1019.76 280.06 1028.34 280.06Z" fill="black"/>
<path d="M966.135 311.206C974.712 311.206 981.666 304.252 981.666 295.675C981.666 287.097 974.712 280.144 966.135 280.144C957.557 280.144 950.604 287.097 950.604 295.675C950.604 304.252 957.557 311.206 966.135 311.206Z" fill="black"/>
<path d="M997.197 311.206C1005.77 311.206 1012.73 304.252 1012.73 295.675C1012.73 287.097 1005.77 280.144 997.197 280.144C988.62 280.144 981.666 287.097 981.666 295.675C981.666 304.252 988.62 311.206 997.197 311.206Z" fill="black"/>
<path d="M1028.34 311.206C1036.92 311.206 1043.87 304.252 1043.87 295.675C1043.87 287.097 1036.92 280.144 1028.34 280.144C1019.76 280.144 1012.81 287.097 1012.81 295.675C1012.81 304.252 1019.76 311.206 1028.34 311.206Z" fill="black"/>
<path d="M966.135 342.268C974.712 342.268 981.666 335.315 981.666 326.737C981.666 318.16 974.712 311.206 966.135 311.206C957.557 311.206 950.604 318.16 950.604 326.737C950.604 335.315 957.557 342.268 966.135 342.268Z" fill="black"/>
<path d="M997.197 342.268C1005.77 342.268 1012.73 335.315 1012.73 326.737C1012.73 318.16 1005.77 311.206 997.197 311.206C988.62 311.206 981.666 318.16 981.666 326.737C981.666 335.315 988.62 342.268 997.197 342.268Z" fill="black"/>
<path d="M1028.34 342.268C1036.92 342.268 1043.87 335.315 1043.87 326.737C1043.87 318.16 1036.92 311.206 1028.34 311.206C1019.76 311.206 1012.81 318.16 1012.81 326.737C1012.81 335.315 1019.76 342.268 1028.34 342.268Z" fill="black"/>
<path d="M966.135 373.414C974.712 373.414 981.666 366.46 981.666 357.883C981.666 349.305 974.712 342.352 966.135 342.352C957.557 342.352 950.604 349.305 950.604 357.883C950.604 366.46 957.557 373.414 966.135 373.414Z" fill="black"/>
<path d="M997.197 373.414C1005.77 373.414 1012.73 366.46 1012.73 357.883C1012.73 349.305 1005.77 342.352 997.197 342.352C988.62 342.352 981.666 349.305 981.666 357.883C981.666 366.46 988.62 373.414 997.197 373.414Z" fill="black"/>
<path d="M1028.34 373.414C1036.92 373.414 1043.87 366.46 1043.87 357.883C1043.87 349.305 1036.92 342.352 1028.34 342.352C1019.76 342.352 1012.81 349.305 1012.81 357.883C1012.81 366.46 1019.76 373.414 1028.34 373.414Z" fill="black"/>
<path d="M966.135 404.559C974.712 404.559 981.666 397.606 981.666 389.028C981.666 380.451 974.712 373.497 966.135 373.497C957.557 373.497 950.604 380.451 950.604 389.028C950.604 397.606 957.557 404.559 966.135 404.559Z" fill="black"/>
<path d="M997.197 404.559C1005.77 404.559 1012.73 397.606 1012.73 389.028C1012.73 380.451 1005.77 373.497 997.197 373.497C988.62 373.497 981.666 380.451 981.666 389.028C981.666 397.606 988.62 404.559 997.197 404.559Z" fill="black"/>
<path d="M1028.34 404.559C1036.92 404.559 1043.87 397.606 1043.87 389.028C1043.87 380.451 1036.92 373.497 1028.34 373.497C1019.76 373.497 1012.81 380.451 1012.81 389.028C1012.81 397.606 1019.76 404.559 1028.34 404.559Z" fill="black"/>
<path d="M966.135 435.622C974.712 435.622 981.666 428.668 981.666 420.091C981.666 411.513 974.712 404.56 966.135 404.56C957.557 404.56 950.604 411.513 950.604 420.091C950.604 428.668 957.557 435.622 966.135 435.622Z" fill="black"/>
<path d="M997.197 435.622C1005.77 435.622 1012.73 428.668 1012.73 420.091C1012.73 411.513 1005.77 404.56 997.197 404.56C988.62 404.56 981.666 411.513 981.666 420.091C981.666 428.668 988.62 435.622 997.197 435.622Z" fill="black"/>
<path d="M1028.34 435.622C1036.92 435.622 1043.87 428.668 1043.87 420.091C1043.87 411.513 1036.92 404.56 1028.34 404.56C1019.76 404.56 1012.81 411.513 1012.81 420.091C1012.81 428.668 1019.76 435.622 1028.34 435.622Z" fill="black"/>
<path d="M966.135 466.767C974.712 466.767 981.666 459.814 981.666 451.236C981.666 442.659 974.712 435.705 966.135 435.705C957.557 435.705 950.604 442.659 950.604 451.236C950.604 459.814 957.557 466.767 966.135 466.767Z" fill="black"/>
<path d="M997.197 466.767C1005.77 466.767 1012.73 459.814 1012.73 451.236C1012.73 442.659 1005.77 435.705 997.197 435.705C988.62 435.705 981.666 442.659 981.666 451.236C981.666 459.814 988.62 466.767 997.197 466.767Z" fill="black"/>
<path d="M1028.34 466.767C1036.92 466.767 1043.87 459.814 1043.87 451.236C1043.87 442.659 1036.92 435.705 1028.34 435.705C1019.76 435.705 1012.81 442.659 1012.81 451.236C1012.81 459.814 1019.76 466.767 1028.34 466.767Z" fill="black"/>
<path d="M966.135 497.913C974.712 497.913 981.666 490.959 981.666 482.382C981.666 473.804 974.712 466.851 966.135 466.851C957.557 466.851 950.604 473.804 950.604 482.382C950.604 490.959 957.557 497.913 966.135 497.913Z" fill="black"/>
<path d="M997.197 497.913C1005.77 497.913 1012.73 490.959 1012.73 482.382C1012.73 473.804 1005.77 466.851 997.197 466.851C988.62 466.851 981.666 473.804 981.666 482.382C981.666 490.959 988.62 497.913 997.197 497.913Z" fill="black"/>
<path d="M1028.34 497.913C1036.92 497.913 1043.87 490.959 1043.87 482.382C1043.87 473.804 1036.92 466.851 1028.34 466.851C1019.76 466.851 1012.81 473.804 1012.81 482.382C1012.81 490.959 1019.76 497.913 1028.34 497.913Z" fill="black"/>
</svg>
