<svg width="1062" height="504" viewBox="0 0 1062 504" fill="none" xmlns="http://www.w3.org/2000/svg">
<path d="M15.5311 36.15C24.1086 36.15 31.0621 29.1965 31.0621 20.619C31.0621 12.0414 24.1086 5.08789 15.5311 5.08789C6.9535 5.08789 0 12.0414 0 20.619C0 29.1965 6.9535 36.15 15.5311 36.15Z" fill="black"/>
<path d="M77.7391 36.15C86.3166 36.15 93.2701 29.1965 93.2701 20.619C93.2701 12.0414 86.3166 5.08789 77.7391 5.08789C69.1615 5.08789 62.208 12.0414 62.208 20.619C62.208 29.1965 69.1615 36.15 77.7391 36.15Z" fill="black"/>
<path d="M15.5311 67.2955C24.1086 67.2955 31.0621 60.342 31.0621 51.7645C31.0621 43.1869 24.1086 36.2334 15.5311 36.2334C6.9535 36.2334 0 43.1869 0 51.7645C0 60.342 6.9535 67.2955 15.5311 67.2955Z" fill="black"/>
<path d="M77.7391 67.2955C86.3166 67.2955 93.2701 60.342 93.2701 51.7645C93.2701 43.1869 86.3166 36.2334 77.7391 36.2334C69.1615 36.2334 62.208 43.1869 62.208 51.7645C62.208 60.342 69.1615 67.2955 77.7391 67.2955Z" fill="black"/>
<path d="M15.5311 98.358C24.1086 98.358 31.0621 91.4045 31.0621 82.827C31.0621 74.2494 24.1086 67.2959 15.5311 67.2959C6.9535 67.2959 0 74.2494 0 82.827C0 91.4045 6.9535 98.358 15.5311 98.358Z" fill="black"/>
<path d="M77.7391 98.358C86.3166 98.358 93.2701 91.4045 93.2701 82.827C93.2701 74.2494 86.3166 67.2959 77.7391 67.2959C69.1615 67.2959 62.208 74.2494 62.208 82.827C62.208 91.4045 69.1615 98.358 77.7391 98.358Z" fill="black"/>
<path d="M15.5311 129.504C24.1086 129.504 31.0621 122.55 31.0621 113.972C31.0621 105.395 24.1086 98.4414 15.5311 98.4414C6.9535 98.4414 0 105.395 0 113.972C0 122.55 6.9535 129.504 15.5311 129.504Z" fill="black"/>
<path d="M77.7391 129.504C86.3166 129.504 93.2701 122.55 93.2701 113.972C93.2701 105.395 86.3166 98.4414 77.7391 98.4414C69.1615 98.4414 62.208 105.395 62.208 113.972C62.208 122.55 69.1615 129.504 77.7391 129.504Z" fill="black"/>
<path d="M15.5311 160.649C24.1086 160.649 31.0621 153.696 31.0621 145.118C31.0621 136.54 24.1086 129.587 15.5311 129.587C6.9535 129.587 0 136.54 0 145.118C0 153.696 6.9535 160.649 15.5311 160.649Z" fill="black"/>
<path d="M77.7391 160.649C86.3166 160.649 93.2701 153.696 93.2701 145.118C93.2701 136.54 86.3166 129.587 77.7391 129.587C69.1615 129.587 62.208 136.54 62.208 145.118C62.208 153.696 69.1615 160.649 77.7391 160.649Z" fill="black"/>
<path d="M15.5311 191.712C24.1086 191.712 31.0621 184.758 31.0621 176.18C31.0621 167.603 24.1086 160.649 15.5311 160.649C6.9535 160.649 0 167.603 0 176.18C0 184.758 6.9535 191.712 15.5311 191.712Z" fill="black"/>
<path d="M77.7391 191.712C86.3166 191.712 93.2701 184.758 93.2701 176.18C93.2701 167.603 86.3166 160.649 77.7391 160.649C69.1615 160.649 62.208 167.603 62.208 176.18C62.208 184.758 69.1615 191.712 77.7391 191.712Z" fill="black"/>
<path d="M15.5311 222.857C24.1086 222.857 31.0621 215.904 31.0621 207.326C31.0621 198.748 24.1086 191.795 15.5311 191.795C6.9535 191.795 0 198.748 0 207.326C0 215.904 6.9535 222.857 15.5311 222.857Z" fill="black"/>
<path d="M77.7391 222.857C86.3166 222.857 93.2701 215.904 93.2701 207.326C93.2701 198.748 86.3166 191.795 77.7391 191.795C69.1615 191.795 62.208 198.748 62.208 207.326C62.208 215.904 69.1615 222.857 77.7391 222.857Z" fill="black"/>
<path d="M15.5311 254.003C24.1086 254.003 31.0621 247.049 31.0621 238.471C31.0621 229.894 24.1086 222.94 15.5311 222.94C6.9535 222.94 0 229.894 0 238.471C0 247.049 6.9535 254.003 15.5311 254.003Z" fill="black"/>
<path d="M77.7391 254.003C86.3166 254.003 93.2701 247.049 93.2701 238.471C93.2701 229.894 86.3166 222.94 77.7391 222.94C69.1615 222.94 62.208 229.894 62.208 238.471C62.208 247.049 69.1615 254.003 77.7391 254.003Z" fill="black"/>
<path d="M15.5311 285.064C24.1086 285.064 31.0621 278.111 31.0621 269.533C31.0621 260.955 24.1086 254.002 15.5311 254.002C6.9535 254.002 0 260.955 0 269.533C0 278.111 6.9535 285.064 15.5311 285.064Z" fill="black"/>
<path d="M77.7391 285.064C86.3166 285.064 93.2701 278.111 93.2701 269.533C93.2701 260.955 86.3166 254.002 77.7391 254.002C69.1615 254.002 62.208 260.955 62.208 269.533C62.208 278.111 69.1615 285.064 77.7391 285.064Z" fill="black"/>
<path d="M15.5311 316.211C24.1086 316.211 31.0621 309.257 31.0621 300.68C31.0621 292.102 24.1086 285.148 15.5311 285.148C6.9535 285.148 0 292.102 0 300.68C0 309.257 6.9535 316.211 15.5311 316.211Z" fill="black"/>
<path d="M77.7391 316.211C86.3166 316.211 93.2701 309.257 93.2701 300.68C93.2701 292.102 86.3166 285.148 77.7391 285.148C69.1615 285.148 62.208 292.102 62.208 300.68C62.208 309.257 69.1615 316.211 77.7391 316.211Z" fill="black"/>
<path d="M15.5311 347.356C24.1086 347.356 31.0621 340.403 31.0621 331.825C31.0621 323.247 24.1086 316.294 15.5311 316.294C6.9535 316.294 0 323.247 0 331.825C0 340.403 6.9535 347.356 15.5311 347.356Z" fill="black"/>
<path d="M77.7391 347.356C86.3166 347.356 93.2701 340.403 93.2701 331.825C93.2701 323.247 86.3166 316.294 77.7391 316.294C69.1615 316.294 62.208 323.247 62.208 331.825C62.208 340.403 69.1615 347.356 77.7391 347.356Z" fill="black"/>
<path d="M15.5311 378.502C24.1086 378.502 31.0621 371.548 31.0621 362.971C31.0621 354.393 24.1086 347.439 15.5311 347.439C6.9535 347.439 0 354.393 0 362.971C0 371.548 6.9535 378.502 15.5311 378.502Z" fill="black"/>
<path d="M77.7391 378.502C86.3166 378.502 93.2701 371.548 93.2701 362.971C93.2701 354.393 86.3166 347.439 77.7391 347.439C69.1615 347.439 62.208 354.393 62.208 362.971C62.208 371.548 69.1615 378.502 77.7391 378.502Z" fill="black"/>
<path d="M15.5311 409.564C24.1086 409.564 31.0621 402.611 31.0621 394.033C31.0621 385.455 24.1086 378.502 15.5311 378.502C6.9535 378.502 0 385.455 0 394.033C0 402.611 6.9535 409.564 15.5311 409.564Z" fill="black"/>
<path d="M77.7391 409.564C86.3166 409.564 93.2701 402.611 93.2701 394.033C93.2701 385.455 86.3166 378.502 77.7391 378.502C69.1615 378.502 62.208 385.455 62.208 394.033C62.208 402.611 69.1615 409.564 77.7391 409.564Z" fill="black"/>
<path d="M15.5311 440.71C24.1086 440.71 31.0621 433.756 31.0621 425.179C31.0621 416.601 24.1086 409.647 15.5311 409.647C6.9535 409.647 0 416.601 0 425.179C0 433.756 6.9535 440.71 15.5311 440.71Z" fill="black"/>
<path d="M77.7391 440.71C86.3166 440.71 93.2701 433.756 93.2701 425.179C93.2701 416.601 86.3166 409.647 77.7391 409.647C69.1615 409.647 62.208 416.601 62.208 425.179C62.208 433.756 69.1615 440.71 77.7391 440.71Z" fill="black"/>
<path d="M15.5311 471.855C24.1086 471.855 31.0621 464.902 31.0621 456.324C31.0621 447.746 24.1086 440.793 15.5311 440.793C6.9535 440.793 0 447.746 0 456.324C0 464.902 6.9535 471.855 15.5311 471.855Z" fill="black"/>
<path d="M77.7391 471.855C86.3166 471.855 93.2701 464.902 93.2701 456.324C93.2701 447.746 86.3166 440.793 77.7391 440.793C69.1615 440.793 62.208 447.746 62.208 456.324C62.208 464.902 69.1615 471.855 77.7391 471.855Z" fill="black"/>
<path d="M15.5311 502.917C24.1086 502.917 31.0621 495.963 31.0621 487.386C31.0621 478.808 24.1086 471.854 15.5311 471.854C6.9535 471.854 0 478.808 0 487.386C0 495.963 6.9535 502.917 15.5311 502.917Z" fill="black"/>
<path d="M77.7391 502.917C86.3166 502.917 93.2701 495.963 93.2701 487.386C93.2701 478.808 86.3166 471.854 77.7391 471.854C69.1615 471.854 62.208 478.808 62.208 487.386C62.208 495.963 69.1615 502.917 77.7391 502.917Z" fill="black"/>
<path d="M139.947 36.15C148.525 36.15 155.478 29.1965 155.478 20.619C155.478 12.0414 148.525 5.08789 139.947 5.08789C131.37 5.08789 124.416 12.0414 124.416 20.619C124.416 29.1965 131.37 36.15 139.947 36.15Z" fill="black"/>
<path d="M139.947 67.2955C148.525 67.2955 155.478 60.342 155.478 51.7645C155.478 43.1869 148.525 36.2334 139.947 36.2334C131.37 36.2334 124.416 43.1869 124.416 51.7645C124.416 60.342 131.37 67.2955 139.947 67.2955Z" fill="black"/>
<path d="M139.947 98.358C148.525 98.358 155.478 91.4045 155.478 82.827C155.478 74.2494 148.525 67.2959 139.947 67.2959C131.37 67.2959 124.416 74.2494 124.416 82.827C124.416 91.4045 131.37 98.358 139.947 98.358Z" fill="black"/>
<path d="M202.238 36.15C210.816 36.15 217.769 29.1965 217.769 20.619C217.769 12.0414 210.816 5.08789 202.238 5.08789C193.661 5.08789 186.707 12.0414 186.707 20.619C186.707 29.1965 193.661 36.15 202.238 36.15Z" fill="black"/>
<path d="M264.445 36.15C273.023 36.15 279.976 29.1965 279.976 20.619C279.976 12.0414 273.023 5.08789 264.445 5.08789C255.868 5.08789 248.914 12.0414 248.914 20.619C248.914 29.1965 255.868 36.15 264.445 36.15Z" fill="black"/>
<path d="M202.238 67.2955C210.816 67.2955 217.769 60.342 217.769 51.7645C217.769 43.1869 210.816 36.2334 202.238 36.2334C193.661 36.2334 186.707 43.1869 186.707 51.7645C186.707 60.342 193.661 67.2955 202.238 67.2955Z" fill="black"/>
<path d="M264.445 67.2955C273.023 67.2955 279.976 60.342 279.976 51.7645C279.976 43.1869 273.023 36.2334 264.445 36.2334C255.868 36.2334 248.914 43.1869 248.914 51.7645C248.914 60.342 255.868 67.2955 264.445 67.2955Z" fill="black"/>
<path d="M202.238 98.358C210.816 98.358 217.769 91.4045 217.769 82.827C217.769 74.2494 210.816 67.2959 202.238 67.2959C193.661 67.2959 186.707 74.2494 186.707 82.827C186.707 91.4045 193.661 98.358 202.238 98.358Z" fill="black"/>
<path d="M264.445 98.358C273.023 98.358 279.976 91.4045 279.976 82.827C279.976 74.2494 273.023 67.2959 264.445 67.2959C255.868 67.2959 248.914 74.2494 248.914 82.827C248.914 91.4045 255.868 98.358 264.445 98.358Z" fill="black"/>
<path d="M326.653 98.358C335.231 98.358 342.184 91.4045 342.184 82.827C342.184 74.2494 335.231 67.2959 326.653 67.2959C318.076 67.2959 311.122 74.2494 311.122 82.827C311.122 91.4045 318.076 98.358 326.653 98.358Z" fill="black"/>
<path d="M326.653 129.504C335.231 129.504 342.184 122.55 342.184 113.972C342.184 105.395 335.231 98.4414 326.653 98.4414C318.076 98.4414 311.122 105.395 311.122 113.972C311.122 122.55 318.076 129.504 326.653 129.504Z" fill="black"/>
<path d="M264.445 129.504C273.023 129.504 279.976 122.55 279.976 113.972C279.976 105.395 273.023 98.4414 264.445 98.4414C255.868 98.4414 248.914 105.395 248.914 113.972C248.914 122.55 255.868 129.504 264.445 129.504Z" fill="black"/>
<path d="M264.445 160.649C273.023 160.649 279.976 153.696 279.976 145.118C279.976 136.54 273.023 129.587 264.445 129.587C255.868 129.587 248.914 136.54 248.914 145.118C248.914 153.696 255.868 160.649 264.445 160.649Z" fill="black"/>
<path d="M326.653 160.649C335.231 160.649 342.184 153.696 342.184 145.118C342.184 136.54 335.231 129.587 326.653 129.587C318.076 129.587 311.122 136.54 311.122 145.118C311.122 153.696 318.076 160.649 326.653 160.649Z" fill="black"/>
<path d="M326.653 191.712C335.231 191.712 342.184 184.758 342.184 176.18C342.184 167.603 335.231 160.649 326.653 160.649C318.076 160.649 311.122 167.603 311.122 176.18C311.122 184.758 318.076 191.712 326.653 191.712Z" fill="black"/>
<path d="M264.445 191.712C273.023 191.712 279.976 184.758 279.976 176.18C279.976 167.603 273.023 160.649 264.445 160.649C255.868 160.649 248.914 167.603 248.914 176.18C248.914 184.758 255.868 191.712 264.445 191.712Z" fill="black"/>
<path d="M264.445 160.649C273.023 160.649 279.976 153.696 279.976 145.118C279.976 136.54 273.023 129.587 264.445 129.587C255.868 129.587 248.914 136.54 248.914 145.118C248.914 153.696 255.868 160.649 264.445 160.649Z" fill="black"/>
<path d="M326.653 160.649C335.231 160.649 342.184 153.696 342.184 145.118C342.184 136.54 335.231 129.587 326.653 129.587C318.076 129.587 311.122 136.54 311.122 145.118C311.122 153.696 318.076 160.649 326.653 160.649Z" fill="black"/>
<path d="M326.653 191.712C335.231 191.712 342.184 184.758 342.184 176.18C342.184 167.603 335.231 160.649 326.653 160.649C318.076 160.649 311.122 167.603 311.122 176.18C311.122 184.758 318.076 191.712 326.653 191.712Z" fill="black"/>
<path d="M264.445 191.712C273.023 191.712 279.976 184.758 279.976 176.18C279.976 167.603 273.023 160.649 264.445 160.649C255.868 160.649 248.914 167.603 248.914 176.18C248.914 184.758 255.868 191.712 264.445 191.712Z" fill="black"/>
<path d="M264.445 222.857C273.023 222.857 279.976 215.904 279.976 207.326C279.976 198.748 273.023 191.795 264.445 191.795C255.868 191.795 248.914 198.748 248.914 207.326C248.914 215.904 255.868 222.857 264.445 222.857Z" fill="black"/>
<path d="M264.445 254.003C273.023 254.003 279.976 247.049 279.976 238.471C279.976 229.894 273.023 222.94 264.445 222.94C255.868 222.94 248.914 229.894 248.914 238.471C248.914 247.049 255.868 254.003 264.445 254.003Z" fill="black"/>
<path d="M264.445 222.857C273.023 222.857 279.976 215.904 279.976 207.326C279.976 198.748 273.023 191.795 264.445 191.795C255.868 191.795 248.914 198.748 248.914 207.326C248.914 215.904 255.868 222.857 264.445 222.857Z" fill="black"/>
<path d="M139.947 222.857C148.525 222.857 155.478 215.904 155.478 207.326C155.478 198.748 148.525 191.795 139.947 191.795C131.37 191.795 124.416 198.748 124.416 207.326C124.416 215.904 131.37 222.857 139.947 222.857Z" fill="black"/>
<path d="M139.947 254.003C148.525 254.003 155.478 247.049 155.478 238.471C155.478 229.894 148.525 222.94 139.947 222.94C131.37 222.94 124.416 229.894 124.416 238.471C124.416 247.049 131.37 254.003 139.947 254.003Z" fill="black"/>
<path d="M202.238 222.857C210.816 222.857 217.769 215.904 217.769 207.326C217.769 198.748 210.816 191.795 202.238 191.795C193.661 191.795 186.707 198.748 186.707 207.326C186.707 215.904 193.661 222.857 202.238 222.857Z" fill="black"/>
<path d="M202.238 254.003C210.816 254.003 217.769 247.049 217.769 238.471C217.769 229.894 210.816 222.94 202.238 222.94C193.661 222.94 186.707 229.894 186.707 238.471C186.707 247.049 193.661 254.003 202.238 254.003Z" fill="black"/>
<path d="M139.947 285.064C148.525 285.064 155.478 278.111 155.478 269.533C155.478 260.955 148.525 254.002 139.947 254.002C131.37 254.002 124.416 260.955 124.416 269.533C124.416 278.111 131.37 285.064 139.947 285.064Z" fill="black"/>
<path d="M202.238 285.064C210.816 285.064 217.769 278.111 217.769 269.533C217.769 260.955 210.816 254.002 202.238 254.002C193.661 254.002 186.707 260.955 186.707 269.533C186.707 278.111 193.661 285.064 202.238 285.064Z" fill="black"/>
<path d="M264.445 347.356C273.023 347.356 279.976 340.403 279.976 331.825C279.976 323.247 273.023 316.294 264.445 316.294C255.868 316.294 248.914 323.247 248.914 331.825C248.914 340.403 255.868 347.356 264.445 347.356Z" fill="black"/>
<path d="M264.445 316.211C273.023 316.211 279.976 309.257 279.976 300.68C279.976 292.102 273.023 285.148 264.445 285.148C255.868 285.148 248.914 292.102 248.914 300.68C248.914 309.257 255.868 316.211 264.445 316.211Z" fill="black"/>
<path d="M264.445 347.356C273.023 347.356 279.976 340.403 279.976 331.825C279.976 323.247 273.023 316.294 264.445 316.294C255.868 316.294 248.914 323.247 248.914 331.825C248.914 340.403 255.868 347.356 264.445 347.356Z" fill="black"/>
<path d="M202.238 316.211C210.816 316.211 217.769 309.257 217.769 300.68C217.769 292.102 210.816 285.148 202.238 285.148C193.661 285.148 186.707 292.102 186.707 300.68C186.707 309.257 193.661 316.211 202.238 316.211Z" fill="black"/>
<path d="M264.445 378.502C273.023 378.502 279.976 371.548 279.976 362.971C279.976 354.393 273.023 347.439 264.445 347.439C255.868 347.439 248.914 354.393 248.914 362.971C248.914 371.548 255.868 378.502 264.445 378.502Z" fill="black"/>
<path d="M264.445 378.502C273.023 378.502 279.976 371.548 279.976 362.971C279.976 354.393 273.023 347.439 264.445 347.439C255.868 347.439 248.914 354.393 248.914 362.971C248.914 371.548 255.868 378.502 264.445 378.502Z" fill="black"/>
<path d="M264.445 409.564C273.023 409.564 279.976 402.611 279.976 394.033C279.976 385.455 273.023 378.502 264.445 378.502C255.868 378.502 248.914 385.455 248.914 394.033C248.914 402.611 255.868 409.564 264.445 409.564Z" fill="black"/>
<path d="M264.445 409.564C273.023 409.564 279.976 402.611 279.976 394.033C279.976 385.455 273.023 378.502 264.445 378.502C255.868 378.502 248.914 385.455 248.914 394.033C248.914 402.611 255.868 409.564 264.445 409.564Z" fill="black"/>
<path d="M326.653 409.564C335.231 409.564 342.184 402.611 342.184 394.033C342.184 385.455 335.231 378.502 326.653 378.502C318.076 378.502 311.122 385.455 311.122 394.033C311.122 402.611 318.076 409.564 326.653 409.564Z" fill="black"/>
<path d="M326.653 440.71C335.231 440.71 342.184 433.756 342.184 425.179C342.184 416.601 335.231 409.647 326.653 409.647C318.076 409.647 311.122 416.601 311.122 425.179C311.122 433.756 318.076 440.71 326.653 440.71Z" fill="black"/>
<path d="M326.653 440.71C335.231 440.71 342.184 433.756 342.184 425.179C342.184 416.601 335.231 409.647 326.653 409.647C318.076 409.647 311.122 416.601 311.122 425.179C311.122 433.756 318.076 440.71 326.653 440.71Z" fill="black"/>
<path d="M264.445 440.71C273.023 440.71 279.976 433.756 279.976 425.179C279.976 416.601 273.023 409.647 264.445 409.647C255.868 409.647 248.914 416.601 248.914 425.179C248.914 433.756 255.868 440.71 264.445 440.71Z" fill="black"/>
<path d="M264.445 440.71C273.023 440.71 279.976 433.756 279.976 425.179C279.976 416.601 273.023 409.647 264.445 409.647C255.868 409.647 248.914 416.601 248.914 425.179C248.914 433.756 255.868 440.71 264.445 440.71Z" fill="black"/>
<path d="M326.653 471.855C335.231 471.855 342.184 464.902 342.184 456.324C342.184 447.746 335.231 440.793 326.653 440.793C318.076 440.793 311.122 447.746 311.122 456.324C311.122 464.902 318.076 471.855 326.653 471.855Z" fill="black"/>
<path d="M326.653 471.855C335.231 471.855 342.184 464.902 342.184 456.324C342.184 447.746 335.231 440.793 326.653 440.793C318.076 440.793 311.122 447.746 311.122 456.324C311.122 464.902 318.076 471.855 326.653 471.855Z" fill="black"/>
<path d="M326.653 502.917C335.231 502.917 342.184 495.963 342.184 487.386C342.184 478.808 335.231 471.854 326.653 471.854C318.076 471.854 311.122 478.808 311.122 487.386C311.122 495.963 318.076 502.917 326.653 502.917Z" fill="black"/>
<path d="M326.653 502.917C335.231 502.917 342.184 495.963 342.184 487.386C342.184 478.808 335.231 471.854 326.653 471.854C318.076 471.854 311.122 478.808 311.122 487.386C311.122 495.963 318.076 502.917 326.653 502.917Z" fill="black"/>
<path d="M264.445 471.855C273.023 471.855 279.976 464.902 279.976 456.324C279.976 447.746 273.023 440.793 264.445 440.793C255.868 440.793 248.914 447.746 248.914 456.324C248.914 464.902 255.868 471.855 264.445 471.855Z" fill="black"/>
<path d="M408.066 34.0621C416.644 34.0621 423.597 27.1086 423.597 18.5311C423.597 9.9535 416.644 3 408.066 3C399.489 3 392.535 9.9535 392.535 18.5311C392.535 27.1086 399.489 34.0621 408.066 34.0621Z" fill="black"/>
<path d="M470.357 34.0621C478.935 34.0621 485.888 27.1086 485.888 18.5311C485.888 9.9535 478.935 3 470.357 3C461.78 3 454.826 9.9535 454.826 18.5311C454.826 27.1086 461.78 34.0621 470.357 34.0621Z" fill="black"/>
<path d="M408.066 65.2076C416.644 65.2076 423.597 58.2541 423.597 49.6766C423.597 41.099 416.644 34.1455 408.066 34.1455C399.489 34.1455 392.535 41.099 392.535 49.6766C392.535 58.2541 399.489 65.2076 408.066 65.2076Z" fill="black"/>
<path d="M470.357 65.2076C478.935 65.2076 485.888 58.2541 485.888 49.6766C485.888 41.099 478.935 34.1455 470.357 34.1455C461.78 34.1455 454.826 41.099 454.826 49.6766C454.826 58.2541 461.78 65.2076 470.357 65.2076Z" fill="black"/>
<path d="M408.066 96.2701C416.644 96.2701 423.597 89.3166 423.597 80.7391C423.597 72.1615 416.644 65.208 408.066 65.208C399.489 65.208 392.535 72.1615 392.535 80.7391C392.535 89.3166 399.489 96.2701 408.066 96.2701Z" fill="black"/>
<path d="M470.357 96.2701C478.935 96.2701 485.888 89.3166 485.888 80.7391C485.888 72.1615 478.935 65.208 470.357 65.208C461.78 65.208 454.826 72.1615 454.826 80.7391C454.826 89.3166 461.78 96.2701 470.357 96.2701Z" fill="black"/>
<path d="M408.066 127.416C416.644 127.416 423.597 120.462 423.597 111.885C423.597 103.307 416.644 96.3535 408.066 96.3535C399.489 96.3535 392.535 103.307 392.535 111.885C392.535 120.462 399.489 127.416 408.066 127.416Z" fill="black"/>
<path d="M470.357 127.416C478.935 127.416 485.888 120.462 485.888 111.885C485.888 103.307 478.935 96.3535 470.357 96.3535C461.78 96.3535 454.826 103.307 454.826 111.885C454.826 120.462 461.78 127.416 470.357 127.416Z" fill="black"/>
<path d="M408.066 158.561C416.644 158.561 423.597 151.608 423.597 143.03C423.597 134.453 416.644 127.499 408.066 127.499C399.489 127.499 392.535 134.453 392.535 143.03C392.535 151.608 399.489 158.561 408.066 158.561Z" fill="black"/>
<path d="M470.357 158.561C478.935 158.561 485.888 151.608 485.888 143.03C485.888 134.453 478.935 127.499 470.357 127.499C461.78 127.499 454.826 134.453 454.826 143.03C454.826 151.608 461.78 158.561 470.357 158.561Z" fill="black"/>
<path d="M408.066 189.624C416.644 189.624 423.597 182.67 423.597 174.093C423.597 165.515 416.644 158.562 408.066 158.562C399.489 158.562 392.535 165.515 392.535 174.093C392.535 182.67 399.489 189.624 408.066 189.624Z" fill="black"/>
<path d="M470.357 189.624C478.935 189.624 485.888 182.67 485.888 174.093C485.888 165.515 478.935 158.562 470.357 158.562C461.78 158.562 454.826 165.515 454.826 174.093C454.826 182.67 461.78 189.624 470.357 189.624Z" fill="black"/>
<path d="M408.066 220.769C416.644 220.769 423.597 213.816 423.597 205.238C423.597 196.661 416.644 189.707 408.066 189.707C399.489 189.707 392.535 196.661 392.535 205.238C392.535 213.816 399.489 220.769 408.066 220.769Z" fill="black"/>
<path d="M470.357 220.769C478.935 220.769 485.888 213.816 485.888 205.238C485.888 196.661 478.935 189.707 470.357 189.707C461.78 189.707 454.826 196.661 454.826 205.238C454.826 213.816 461.78 220.769 470.357 220.769Z" fill="black"/>
<path d="M408.066 251.915C416.644 251.915 423.597 244.961 423.597 236.384C423.597 227.806 416.644 220.853 408.066 220.853C399.489 220.853 392.535 227.806 392.535 236.384C392.535 244.961 399.489 251.915 408.066 251.915Z" fill="black"/>
<path d="M470.357 251.915C478.935 251.915 485.888 244.961 485.888 236.384C485.888 227.806 478.935 220.853 470.357 220.853C461.78 220.853 454.826 227.806 454.826 236.384C454.826 244.961 461.78 251.915 470.357 251.915Z" fill="black"/>
<path d="M408.066 282.976C416.644 282.976 423.597 276.023 423.597 267.445C423.597 258.868 416.644 251.914 408.066 251.914C399.489 251.914 392.535 258.868 392.535 267.445C392.535 276.023 399.489 282.976 408.066 282.976Z" fill="black"/>
<path d="M470.357 282.976C478.935 282.976 485.888 276.023 485.888 267.445C485.888 258.868 478.935 251.914 470.357 251.914C461.78 251.914 454.826 258.868 454.826 267.445C454.826 276.023 461.78 282.976 470.357 282.976Z" fill="black"/>
<path d="M408.066 314.123C416.644 314.123 423.597 307.169 423.597 298.592C423.597 290.014 416.644 283.061 408.066 283.061C399.489 283.061 392.535 290.014 392.535 298.592C392.535 307.169 399.489 314.123 408.066 314.123Z" fill="black"/>
<path d="M470.357 314.123C478.935 314.123 485.888 307.169 485.888 298.592C485.888 290.014 478.935 283.061 470.357 283.061C461.78 283.061 454.826 290.014 454.826 298.592C454.826 307.169 461.78 314.123 470.357 314.123Z" fill="black"/>
<path d="M408.066 345.268C416.644 345.268 423.597 338.315 423.597 329.737C423.597 321.16 416.644 314.206 408.066 314.206C399.489 314.206 392.535 321.16 392.535 329.737C392.535 338.315 399.489 345.268 408.066 345.268Z" fill="black"/>
<path d="M470.357 345.268C478.935 345.268 485.888 338.315 485.888 329.737C485.888 321.16 478.935 314.206 470.357 314.206C461.78 314.206 454.826 321.16 454.826 329.737C454.826 338.315 461.78 345.268 470.357 345.268Z" fill="black"/>
<path d="M408.066 376.414C416.644 376.414 423.597 369.46 423.597 360.883C423.597 352.305 416.644 345.352 408.066 345.352C399.489 345.352 392.535 352.305 392.535 360.883C392.535 369.46 399.489 376.414 408.066 376.414Z" fill="black"/>
<path d="M470.357 376.414C478.935 376.414 485.888 369.46 485.888 360.883C485.888 352.305 478.935 345.352 470.357 345.352C461.78 345.352 454.826 352.305 454.826 360.883C454.826 369.46 461.78 376.414 470.357 376.414Z" fill="black"/>
<path d="M408.066 407.476C416.644 407.476 423.597 400.523 423.597 391.945C423.597 383.368 416.644 376.414 408.066 376.414C399.489 376.414 392.535 383.368 392.535 391.945C392.535 400.523 399.489 407.476 408.066 407.476Z" fill="black"/>
<path d="M470.357 407.476C478.935 407.476 485.888 400.523 485.888 391.945C485.888 383.368 478.935 376.414 470.357 376.414C461.78 376.414 454.826 383.368 454.826 391.945C454.826 400.523 461.78 407.476 470.357 407.476Z" fill="black"/>
<path d="M408.066 438.622C416.644 438.622 423.597 431.668 423.597 423.091C423.597 414.513 416.644 407.56 408.066 407.56C399.489 407.56 392.535 414.513 392.535 423.091C392.535 431.668 399.489 438.622 408.066 438.622Z" fill="black"/>
<path d="M470.357 438.622C478.935 438.622 485.888 431.668 485.888 423.091C485.888 414.513 478.935 407.56 470.357 407.56C461.78 407.56 454.826 414.513 454.826 423.091C454.826 431.668 461.78 438.622 470.357 438.622Z" fill="black"/>
<path d="M408.066 469.767C416.644 469.767 423.597 462.814 423.597 454.236C423.597 445.659 416.644 438.705 408.066 438.705C399.489 438.705 392.535 445.659 392.535 454.236C392.535 462.814 399.489 469.767 408.066 469.767Z" fill="black"/>
<path d="M470.357 469.767C478.935 469.767 485.888 462.814 485.888 454.236C485.888 445.659 478.935 438.705 470.357 438.705C461.78 438.705 454.826 445.659 454.826 454.236C454.826 462.814 461.78 469.767 470.357 469.767Z" fill="black"/>
<path d="M408.066 500.829C416.644 500.829 423.597 493.875 423.597 485.298C423.597 476.72 416.644 469.767 408.066 469.767C399.489 469.767 392.535 476.72 392.535 485.298C392.535 493.875 399.489 500.829 408.066 500.829Z" fill="black"/>
<path d="M470.357 500.829C478.935 500.829 485.888 493.875 485.888 485.298C485.888 476.72 478.935 469.767 470.357 469.767C461.78 469.767 454.826 476.72 454.826 485.298C454.826 493.875 461.78 500.829 470.357 500.829Z" fill="black"/>
<path d="M532.565 36.15C541.143 36.15 548.096 29.1965 548.096 20.619C548.096 12.0414 541.143 5.08789 532.565 5.08789C523.988 5.08789 517.034 12.0414 517.034 20.619C517.034 29.1965 523.988 36.15 532.565 36.15Z" fill="black"/>
<path d="M532.565 67.2955C541.143 67.2955 548.096 60.342 548.096 51.7645C548.096 43.1869 541.143 36.2334 532.565 36.2334C523.988 36.2334 517.034 43.1869 517.034 51.7645C517.034 60.342 523.988 67.2955 532.565 67.2955Z" fill="black"/>
<path d="M532.565 98.441C541.143 98.441 548.096 91.4875 548.096 82.9099C548.096 74.3323 541.143 67.3789 532.565 67.3789C523.988 67.3789 517.034 74.3323 517.034 82.9099C517.034 91.4875 523.988 98.441 532.565 98.441Z" fill="black"/>
<path d="M532.565 129.503C541.143 129.503 548.096 122.549 548.096 113.971C548.096 105.394 541.143 98.4404 532.565 98.4404C523.988 98.4404 517.034 105.394 517.034 113.971C517.034 122.549 523.988 129.503 532.565 129.503Z" fill="black"/>
<path d="M594.773 129.503C603.351 129.503 610.304 122.549 610.304 113.971C610.304 105.394 603.351 98.4404 594.773 98.4404C586.196 98.4404 579.242 105.394 579.242 113.971C579.242 122.549 586.196 129.503 594.773 129.503Z" fill="black"/>
<path d="M532.565 160.649C541.143 160.649 548.096 153.696 548.096 145.118C548.096 136.54 541.143 129.587 532.565 129.587C523.988 129.587 517.034 136.54 517.034 145.118C517.034 153.696 523.988 160.649 532.565 160.649Z" fill="black"/>
<path d="M594.773 160.649C603.351 160.649 610.304 153.696 610.304 145.118C610.304 136.54 603.351 129.587 594.773 129.587C586.196 129.587 579.242 136.54 579.242 145.118C579.242 153.696 586.196 160.649 594.773 160.649Z" fill="black"/>
<path d="M532.565 191.795C541.143 191.795 548.096 184.841 548.096 176.263C548.096 167.686 541.143 160.732 532.565 160.732C523.988 160.732 517.034 167.686 517.034 176.263C517.034 184.841 523.988 191.795 532.565 191.795Z" fill="black"/>
<path d="M594.773 191.795C603.351 191.795 610.304 184.841 610.304 176.263C610.304 167.686 603.351 160.732 594.773 160.732C586.196 160.732 579.242 167.686 579.242 176.263C579.242 184.841 586.196 191.795 594.773 191.795Z" fill="black"/>
<path d="M532.565 222.856C541.143 222.856 548.096 215.903 548.096 207.325C548.096 198.747 541.143 191.794 532.565 191.794C523.988 191.794 517.034 198.747 517.034 207.325C517.034 215.903 523.988 222.856 532.565 222.856Z" fill="black"/>
<path d="M594.773 222.856C603.351 222.856 610.304 215.903 610.304 207.325C610.304 198.747 603.351 191.794 594.773 191.794C586.196 191.794 579.242 198.747 579.242 207.325C579.242 215.903 586.196 222.856 594.773 222.856Z" fill="black"/>
<path d="M532.565 254.002C541.143 254.002 548.096 247.048 548.096 238.471C548.096 229.893 541.143 222.939 532.565 222.939C523.988 222.939 517.034 229.893 517.034 238.471C517.034 247.048 523.988 254.002 532.565 254.002Z" fill="black"/>
<path d="M594.773 254.002C603.351 254.002 610.304 247.048 610.304 238.471C610.304 229.893 603.351 222.939 594.773 222.939C586.196 222.939 579.242 229.893 579.242 238.471C579.242 247.048 586.196 254.002 594.773 254.002Z" fill="black"/>
<path d="M594.773 285.148C603.351 285.148 610.304 278.195 610.304 269.617C610.304 261.039 603.351 254.086 594.773 254.086C586.196 254.086 579.242 261.039 579.242 269.617C579.242 278.195 586.196 285.148 594.773 285.148Z" fill="black"/>
<path d="M594.773 316.293C603.351 316.293 610.304 309.34 610.304 300.762C610.304 292.185 603.351 285.231 594.773 285.231C586.196 285.231 579.242 292.185 579.242 300.762C579.242 309.34 586.196 316.293 594.773 316.293Z" fill="black"/>
<path d="M594.773 347.355C603.351 347.355 610.304 340.402 610.304 331.824C610.304 323.246 603.351 316.293 594.773 316.293C586.196 316.293 579.242 323.246 579.242 331.824C579.242 340.402 586.196 347.355 594.773 347.355Z" fill="black"/>
<path d="M594.773 378.501C603.351 378.501 610.304 371.547 610.304 362.97C610.304 354.392 603.351 347.438 594.773 347.438C586.196 347.438 579.242 354.392 579.242 362.97C579.242 371.547 586.196 378.501 594.773 378.501Z" fill="black"/>
<path d="M595.608 409.647C604.186 409.647 611.139 402.694 611.139 394.116C611.139 385.538 604.186 378.585 595.608 378.585C587.031 378.585 580.077 385.538 580.077 394.116C580.077 402.694 587.031 409.647 595.608 409.647Z" fill="black"/>
<path d="M595.608 440.709C604.186 440.709 611.139 433.755 611.139 425.178C611.139 416.6 604.186 409.646 595.608 409.646C587.031 409.646 580.077 416.6 580.077 425.178C580.077 433.755 587.031 440.709 595.608 440.709Z" fill="black"/>
<path d="M595.608 471.854C604.186 471.854 611.139 464.901 611.139 456.323C611.139 447.745 604.186 440.792 595.608 440.792C587.031 440.792 580.077 447.745 580.077 456.323C580.077 464.901 587.031 471.854 595.608 471.854Z" fill="black"/>
<path d="M657.816 409.647C666.394 409.647 673.347 402.694 673.347 394.116C673.347 385.538 666.394 378.585 657.816 378.585C649.239 378.585 642.285 385.538 642.285 394.116C642.285 402.694 649.239 409.647 657.816 409.647Z" fill="black"/>
<path d="M657.816 440.709C666.394 440.709 673.347 433.755 673.347 425.178C673.347 416.6 666.394 409.646 657.816 409.646C649.239 409.646 642.285 416.6 642.285 425.178C642.285 433.755 649.239 440.709 657.816 440.709Z" fill="black"/>
<path d="M657.816 471.854C666.394 471.854 673.347 464.901 673.347 456.323C673.347 447.745 666.394 440.792 657.816 440.792C649.239 440.792 642.285 447.745 642.285 456.323C642.285 464.901 649.239 471.854 657.816 471.854Z" fill="black"/>
<path d="M657.816 503C666.394 503 673.347 496.046 673.347 487.469C673.347 478.891 666.394 471.938 657.816 471.938C649.239 471.938 642.285 478.891 642.285 487.469C642.285 496.046 649.239 503 657.816 503Z" fill="black"/>
<path d="M907.481 34.0621C916.059 34.0621 923.012 27.1086 923.012 18.5311C923.012 9.9535 916.059 3 907.481 3C898.904 3 891.95 9.9535 891.95 18.5311C891.95 27.1086 898.904 34.0621 907.481 34.0621Z" fill="black"/>
<path d="M845.274 34.0621C853.852 34.0621 860.805 27.1086 860.805 18.5311C860.805 9.9535 853.852 3 845.274 3C836.697 3 829.743 9.9535 829.743 18.5311C829.743 27.1086 836.697 34.0621 845.274 34.0621Z" fill="black"/>
<path d="M907.481 65.2076C916.059 65.2076 923.012 58.2541 923.012 49.6766C923.012 41.099 916.059 34.1455 907.481 34.1455C898.904 34.1455 891.95 41.099 891.95 49.6766C891.95 58.2541 898.904 65.2076 907.481 65.2076Z" fill="black"/>
<path d="M845.274 65.2076C853.852 65.2076 860.805 58.2541 860.805 49.6766C860.805 41.099 853.852 34.1455 845.274 34.1455C836.697 34.1455 829.743 41.099 829.743 49.6766C829.743 58.2541 836.697 65.2076 845.274 65.2076Z" fill="black"/>
<path d="M907.481 96.2701C916.059 96.2701 923.012 89.3166 923.012 80.7391C923.012 72.1615 916.059 65.208 907.481 65.208C898.904 65.208 891.95 72.1615 891.95 80.7391C891.95 89.3166 898.904 96.2701 907.481 96.2701Z" fill="black"/>
<path d="M845.274 96.2701C853.852 96.2701 860.805 89.3166 860.805 80.7391C860.805 72.1615 853.852 65.208 845.274 65.208C836.697 65.208 829.743 72.1615 829.743 80.7391C829.743 89.3166 836.697 96.2701 845.274 96.2701Z" fill="black"/>
<path d="M907.481 127.416C916.059 127.416 923.012 120.462 923.012 111.885C923.012 103.307 916.059 96.3535 907.481 96.3535C898.904 96.3535 891.95 103.307 891.95 111.885C891.95 120.462 898.904 127.416 907.481 127.416Z" fill="black"/>
<path d="M845.274 127.416C853.852 127.416 860.805 120.462 860.805 111.885C860.805 103.307 853.852 96.3535 845.274 96.3535C836.697 96.3535 829.743 103.307 829.743 111.885C829.743 120.462 836.697 127.416 845.274 127.416Z" fill="black"/>
<path d="M907.481 158.561C916.059 158.561 923.012 151.608 923.012 143.03C923.012 134.453 916.059 127.499 907.481 127.499C898.904 127.499 891.95 134.453 891.95 143.03C891.95 151.608 898.904 158.561 907.481 158.561Z" fill="black"/>
<path d="M845.274 158.561C853.852 158.561 860.805 151.608 860.805 143.03C860.805 134.453 853.852 127.499 845.274 127.499C836.697 127.499 829.743 134.453 829.743 143.03C829.743 151.608 836.697 158.561 845.274 158.561Z" fill="black"/>
<path d="M907.481 189.624C916.059 189.624 923.012 182.67 923.012 174.093C923.012 165.515 916.059 158.562 907.481 158.562C898.904 158.562 891.95 165.515 891.95 174.093C891.95 182.67 898.904 189.624 907.481 189.624Z" fill="black"/>
<path d="M845.274 189.624C853.852 189.624 860.805 182.67 860.805 174.093C860.805 165.515 853.852 158.562 845.274 158.562C836.697 158.562 829.743 165.515 829.743 174.093C829.743 182.67 836.697 189.624 845.274 189.624Z" fill="black"/>
<path d="M907.481 220.769C916.059 220.769 923.012 213.816 923.012 205.238C923.012 196.661 916.059 189.707 907.481 189.707C898.904 189.707 891.95 196.661 891.95 205.238C891.95 213.816 898.904 220.769 907.481 220.769Z" fill="black"/>
<path d="M845.274 220.769C853.852 220.769 860.805 213.816 860.805 205.238C860.805 196.661 853.852 189.707 845.274 189.707C836.697 189.707 829.743 196.661 829.743 205.238C829.743 213.816 836.697 220.769 845.274 220.769Z" fill="black"/>
<path d="M907.481 251.915C916.059 251.915 923.012 244.961 923.012 236.384C923.012 227.806 916.059 220.853 907.481 220.853C898.904 220.853 891.95 227.806 891.95 236.384C891.95 244.961 898.904 251.915 907.481 251.915Z" fill="black"/>
<path d="M845.274 251.915C853.852 251.915 860.805 244.961 860.805 236.384C860.805 227.806 853.852 220.853 845.274 220.853C836.697 220.853 829.743 227.806 829.743 236.384C829.743 244.961 836.697 251.915 845.274 251.915Z" fill="black"/>
<path d="M907.481 282.976C916.059 282.976 923.012 276.023 923.012 267.445C923.012 258.868 916.059 251.914 907.481 251.914C898.904 251.914 891.95 258.868 891.95 267.445C891.95 276.023 898.904 282.976 907.481 282.976Z" fill="black"/>
<path d="M845.274 282.976C853.852 282.976 860.805 276.023 860.805 267.445C860.805 258.868 853.852 251.914 845.274 251.914C836.697 251.914 829.743 258.868 829.743 267.445C829.743 276.023 836.697 282.976 845.274 282.976Z" fill="black"/>
<path d="M907.481 314.123C916.059 314.123 923.012 307.169 923.012 298.592C923.012 290.014 916.059 283.061 907.481 283.061C898.904 283.061 891.95 290.014 891.95 298.592C891.95 307.169 898.904 314.123 907.481 314.123Z" fill="black"/>
<path d="M845.274 314.123C853.852 314.123 860.805 307.169 860.805 298.592C860.805 290.014 853.852 283.061 845.274 283.061C836.697 283.061 829.743 290.014 829.743 298.592C829.743 307.169 836.697 314.123 845.274 314.123Z" fill="black"/>
<path d="M907.481 345.268C916.059 345.268 923.012 338.315 923.012 329.737C923.012 321.16 916.059 314.206 907.481 314.206C898.904 314.206 891.95 321.16 891.95 329.737C891.95 338.315 898.904 345.268 907.481 345.268Z" fill="black"/>
<path d="M845.274 345.268C853.852 345.268 860.805 338.315 860.805 329.737C860.805 321.16 853.852 314.206 845.274 314.206C836.697 314.206 829.743 321.16 829.743 329.737C829.743 338.315 836.697 345.268 845.274 345.268Z" fill="black"/>
<path d="M907.481 376.414C916.059 376.414 923.012 369.46 923.012 360.883C923.012 352.305 916.059 345.352 907.481 345.352C898.904 345.352 891.95 352.305 891.95 360.883C891.95 369.46 898.904 376.414 907.481 376.414Z" fill="black"/>
<path d="M845.274 376.414C853.852 376.414 860.805 369.46 860.805 360.883C860.805 352.305 853.852 345.352 845.274 345.352C836.697 345.352 829.743 352.305 829.743 360.883C829.743 369.46 836.697 376.414 845.274 376.414Z" fill="black"/>
<path d="M907.481 407.476C916.059 407.476 923.012 400.523 923.012 391.945C923.012 383.368 916.059 376.414 907.481 376.414C898.904 376.414 891.95 383.368 891.95 391.945C891.95 400.523 898.904 407.476 907.481 407.476Z" fill="black"/>
<path d="M845.274 407.476C853.852 407.476 860.805 400.523 860.805 391.945C860.805 383.368 853.852 376.414 845.274 376.414C836.697 376.414 829.743 383.368 829.743 391.945C829.743 400.523 836.697 407.476 845.274 407.476Z" fill="black"/>
<path d="M907.481 438.622C916.059 438.622 923.012 431.668 923.012 423.091C923.012 414.513 916.059 407.56 907.481 407.56C898.904 407.56 891.95 414.513 891.95 423.091C891.95 431.668 898.904 438.622 907.481 438.622Z" fill="black"/>
<path d="M845.274 438.622C853.852 438.622 860.805 431.668 860.805 423.091C860.805 414.513 853.852 407.56 845.274 407.56C836.697 407.56 829.743 414.513 829.743 423.091C829.743 431.668 836.697 438.622 845.274 438.622Z" fill="black"/>
<path d="M907.481 469.767C916.059 469.767 923.012 462.814 923.012 454.236C923.012 445.659 916.059 438.705 907.481 438.705C898.904 438.705 891.95 445.659 891.95 454.236C891.95 462.814 898.904 469.767 907.481 469.767Z" fill="black"/>
<path d="M845.274 469.767C853.852 469.767 860.805 462.814 860.805 454.236C860.805 445.659 853.852 438.705 845.274 438.705C836.697 438.705 829.743 445.659 829.743 454.236C829.743 462.814 836.697 469.767 845.274 469.767Z" fill="black"/>
<path d="M907.481 500.829C916.059 500.829 923.012 493.875 923.012 485.298C923.012 476.72 916.059 469.767 907.481 469.767C898.904 469.767 891.95 476.72 891.95 485.298C891.95 493.875 898.904 500.829 907.481 500.829Z" fill="black"/>
<path d="M845.274 500.829C853.852 500.829 860.805 493.875 860.805 485.298C860.805 476.72 853.852 469.767 845.274 469.767C836.697 469.767 829.743 476.72 829.743 485.298C829.743 493.875 836.697 500.829 845.274 500.829Z" fill="black"/>
<path d="M783.066 36.15C791.644 36.15 798.597 29.1965 798.597 20.619C798.597 12.0414 791.644 5.08789 783.066 5.08789C774.489 5.08789 767.535 12.0414 767.535 20.619C767.535 29.1965 774.489 36.15 783.066 36.15Z" fill="black"/>
<path d="M783.066 67.2955C791.644 67.2955 798.597 60.342 798.597 51.7645C798.597 43.1869 791.644 36.2334 783.066 36.2334C774.489 36.2334 767.535 43.1869 767.535 51.7645C767.535 60.342 774.489 67.2955 783.066 67.2955Z" fill="black"/>
<path d="M783.066 98.441C791.644 98.441 798.597 91.4875 798.597 82.9099C798.597 74.3323 791.644 67.3789 783.066 67.3789C774.489 67.3789 767.535 74.3323 767.535 82.9099C767.535 91.4875 774.489 98.441 783.066 98.441Z" fill="black"/>
<path d="M783.066 129.503C791.644 129.503 798.597 122.549 798.597 113.971C798.597 105.394 791.644 98.4404 783.066 98.4404C774.489 98.4404 767.535 105.394 767.535 113.971C767.535 122.549 774.489 129.503 783.066 129.503Z" fill="black"/>
<path d="M720.775 129.503C729.353 129.503 736.306 122.549 736.306 113.971C736.306 105.394 729.353 98.4404 720.775 98.4404C712.198 98.4404 705.244 105.394 705.244 113.971C705.244 122.549 712.198 129.503 720.775 129.503Z" fill="black"/>
<path d="M783.066 160.649C791.644 160.649 798.597 153.696 798.597 145.118C798.597 136.54 791.644 129.587 783.066 129.587C774.489 129.587 767.535 136.54 767.535 145.118C767.535 153.696 774.489 160.649 783.066 160.649Z" fill="black"/>
<path d="M720.775 160.649C729.353 160.649 736.306 153.696 736.306 145.118C736.306 136.54 729.353 129.587 720.775 129.587C712.198 129.587 705.244 136.54 705.244 145.118C705.244 153.696 712.198 160.649 720.775 160.649Z" fill="black"/>
<path d="M783.066 191.795C791.644 191.795 798.597 184.841 798.597 176.263C798.597 167.686 791.644 160.732 783.066 160.732C774.489 160.732 767.535 167.686 767.535 176.263C767.535 184.841 774.489 191.795 783.066 191.795Z" fill="black"/>
<path d="M720.775 191.795C729.353 191.795 736.306 184.841 736.306 176.263C736.306 167.686 729.353 160.732 720.775 160.732C712.198 160.732 705.244 167.686 705.244 176.263C705.244 184.841 712.198 191.795 720.775 191.795Z" fill="black"/>
<path d="M783.066 222.856C791.644 222.856 798.597 215.903 798.597 207.325C798.597 198.747 791.644 191.794 783.066 191.794C774.489 191.794 767.535 198.747 767.535 207.325C767.535 215.903 774.489 222.856 783.066 222.856Z" fill="black"/>
<path d="M720.775 222.856C729.353 222.856 736.306 215.903 736.306 207.325C736.306 198.747 729.353 191.794 720.775 191.794C712.198 191.794 705.244 198.747 705.244 207.325C705.244 215.903 712.198 222.856 720.775 222.856Z" fill="black"/>
<path d="M783.066 254.002C791.644 254.002 798.597 247.048 798.597 238.471C798.597 229.893 791.644 222.939 783.066 222.939C774.489 222.939 767.535 229.893 767.535 238.471C767.535 247.048 774.489 254.002 783.066 254.002Z" fill="black"/>
<path d="M720.775 254.002C729.353 254.002 736.306 247.048 736.306 238.471C736.306 229.893 729.353 222.939 720.775 222.939C712.198 222.939 705.244 229.893 705.244 238.471C705.244 247.048 712.198 254.002 720.775 254.002Z" fill="black"/>
<path d="M720.775 285.148C729.353 285.148 736.306 278.195 736.306 269.617C736.306 261.039 729.353 254.086 720.775 254.086C712.198 254.086 705.244 261.039 705.244 269.617C705.244 278.195 712.198 285.148 720.775 285.148Z" fill="black"/>
<path d="M720.775 316.293C729.353 316.293 736.306 309.34 736.306 300.762C736.306 292.185 729.353 285.231 720.775 285.231C712.198 285.231 705.244 292.185 705.244 300.762C705.244 309.34 712.198 316.293 720.775 316.293Z" fill="black"/>
<path d="M720.775 347.355C729.353 347.355 736.306 340.402 736.306 331.824C736.306 323.246 729.353 316.293 720.775 316.293C712.198 316.293 705.244 323.246 705.244 331.824C705.244 340.402 712.198 347.355 720.775 347.355Z" fill="black"/>
<path d="M720.775 378.501C729.353 378.501 736.306 371.547 736.306 362.97C736.306 354.392 729.353 347.438 720.775 347.438C712.198 347.438 705.244 354.392 705.244 362.97C705.244 371.547 712.198 378.501 720.775 378.501Z" fill="black"/>
<path d="M720.023 409.647C728.601 409.647 735.554 402.694 735.554 394.116C735.554 385.538 728.601 378.585 720.023 378.585C711.446 378.585 704.492 385.538 704.492 394.116C704.492 402.694 711.446 409.647 720.023 409.647Z" fill="black"/>
<path d="M720.023 440.709C728.601 440.709 735.554 433.755 735.554 425.178C735.554 416.6 728.601 409.646 720.023 409.646C711.446 409.646 704.492 416.6 704.492 425.178C704.492 433.755 711.446 440.709 720.023 440.709Z" fill="black"/>
<path d="M720.023 471.854C728.601 471.854 735.554 464.901 735.554 456.323C735.554 447.745 728.601 440.792 720.023 440.792C711.446 440.792 704.492 447.745 704.492 456.323C704.492 464.901 711.446 471.854 720.023 471.854Z" fill="black"/>
<path d="M1017.81 18.5311C1017.81 27.1316 1010.88 34.0621 1002.28 34.0621C993.68 34.0621 986.749 41.0762 986.749 49.6767C986.749 58.2772 979.735 65.2077 971.134 65.2077C962.534 65.2077 955.604 58.2772 955.604 49.6767C955.604 41.0762 962.534 34.0621 971.134 34.0621C979.735 34.0621 986.749 27.1316 986.749 18.5311C986.749 9.93053 993.68 3 1002.28 3C1010.88 3 1017.81 9.93053 1017.81 18.5311Z" stroke="black" stroke-width="5" stroke-miterlimit="10"/>
<path d="M1048.96 49.6771C1048.96 58.2776 1041.94 65.2081 1033.43 65.2081C1024.91 65.2081 1017.81 72.2222 1017.81 80.7392C1017.81 89.2562 1010.88 96.3537 1002.28 96.3537C993.68 96.3537 986.749 103.284 986.749 111.885C986.749 120.485 979.735 127.416 971.134 127.416C962.534 127.416 955.604 120.485 955.604 111.885C955.604 103.284 962.534 96.3537 971.134 96.3537C979.735 96.3537 986.749 89.3397 986.749 80.7392C986.749 72.1387 993.68 65.2081 1002.28 65.2081C1010.88 65.2081 1017.81 58.2776 1017.81 49.6771C1017.81 41.0765 1024.83 34.0625 1033.43 34.0625C1042.03 34.0625 1048.96 41.0765 1048.96 49.6771Z" stroke="black" stroke-width="5" stroke-miterlimit="10"/>
<path d="M1048.96 111.885C1048.96 120.485 1041.94 127.416 1033.43 127.416C1024.91 127.416 1017.81 134.43 1017.81 143.03C1017.81 151.631 1010.88 158.561 1002.28 158.561C993.68 158.561 986.749 165.575 986.749 174.176C986.749 182.776 979.735 189.707 971.134 189.707C962.534 189.707 955.604 182.693 955.604 174.176C955.604 165.659 962.534 158.561 971.134 158.561C979.735 158.561 986.749 151.631 986.749 143.03C986.749 134.43 993.68 127.416 1002.28 127.416C1010.88 127.416 1017.81 120.485 1017.81 111.885C1017.81 103.284 1024.83 96.3535 1033.43 96.3535C1042.03 96.3535 1048.96 103.284 1048.96 111.885Z" stroke="black" stroke-width="5" stroke-miterlimit="10"/>
<path d="M1048.96 174.176C1048.96 182.693 1041.94 189.707 1033.43 189.707C1024.91 189.707 1017.81 196.638 1017.81 205.238C1017.81 213.839 1010.88 220.853 1002.28 220.853C993.68 220.853 986.749 227.783 986.749 236.384C986.749 244.984 979.735 251.915 971.134 251.915C962.534 251.915 955.604 244.984 955.604 236.384C955.604 227.783 962.534 220.853 971.134 220.853C979.735 220.853 986.749 213.839 986.749 205.238C986.749 196.638 993.68 189.707 1002.28 189.707C1010.88 189.707 1017.81 182.693 1017.81 174.176C1017.81 165.659 1024.83 158.562 1033.43 158.562C1042.03 158.562 1048.96 165.576 1048.96 174.176Z" stroke="black" stroke-width="5" stroke-miterlimit="10"/>
<path d="M1048.96 236.384C1048.96 244.984 1041.94 251.915 1033.43 251.915C1024.91 251.915 1017.81 258.929 1017.81 267.529C1017.81 276.13 1010.88 283.06 1002.28 283.06C993.68 283.06 986.749 289.991 986.749 298.591C986.749 307.192 979.735 314.206 971.134 314.206C962.534 314.206 955.604 307.192 955.604 298.591C955.604 289.991 962.534 283.06 971.134 283.06C979.735 283.06 986.749 276.046 986.749 267.529C986.749 259.012 993.68 251.915 1002.28 251.915C1010.88 251.915 1017.81 244.984 1017.81 236.384C1017.81 227.783 1024.83 220.853 1033.43 220.853C1042.03 220.853 1048.96 227.783 1048.96 236.384Z" stroke="black" stroke-width="5" stroke-miterlimit="10"/>
<path d="M1048.96 298.592C1048.96 307.192 1041.94 314.206 1033.43 314.206C1024.91 314.206 1017.81 321.137 1017.81 329.737C1017.81 338.338 1010.88 345.268 1002.28 345.268C993.68 345.268 986.749 352.282 986.749 360.883C986.749 369.483 979.735 376.414 971.134 376.414C962.534 376.414 955.604 369.483 955.604 360.883C955.604 352.282 962.534 345.268 971.134 345.268C979.735 345.268 986.749 338.338 986.749 329.737C986.749 321.137 993.68 314.206 1002.28 314.206C1010.88 314.206 1017.81 307.192 1017.81 298.592C1017.81 289.991 1024.83 283.061 1033.43 283.061C1042.03 283.061 1048.96 289.991 1048.96 298.592Z" stroke="black" stroke-width="5" stroke-miterlimit="10"/>
<path d="M1048.96 360.882C1048.96 369.483 1041.94 376.413 1033.43 376.413C1024.91 376.413 1017.81 383.344 1017.81 391.944C1017.81 400.545 1010.88 407.559 1002.28 407.559C993.68 407.559 986.749 414.489 986.749 423.09C986.749 431.69 979.735 438.621 971.134 438.621C962.534 438.621 955.604 431.69 955.604 423.09C955.604 414.489 962.534 407.559 971.134 407.559C979.735 407.559 986.749 400.545 986.749 391.944C986.749 383.344 993.68 376.413 1002.28 376.413C1010.88 376.413 1017.81 369.483 1017.81 360.882C1017.81 352.282 1024.83 345.268 1033.43 345.268C1042.03 345.268 1048.96 352.282 1048.96 360.882Z" stroke="black" stroke-width="5" stroke-miterlimit="10"/>
<path d="M1048.96 423.091C1048.96 431.691 1041.94 438.622 1033.43 438.622C1024.91 438.622 1017.81 445.636 1017.81 454.236C1017.81 462.837 1010.88 469.767 1002.28 469.767C993.68 469.767 986.749 476.698 986.749 485.298C986.749 493.899 979.735 500.913 971.134 500.913C962.534 500.913 955.604 493.899 955.604 485.298C955.604 476.698 962.534 469.767 971.134 469.767C979.735 469.767 986.749 462.837 986.749 454.236C986.749 445.636 993.68 438.622 1002.28 438.622C1010.88 438.622 1017.81 431.691 1017.81 423.091C1017.81 414.49 1024.83 407.56 1033.43 407.56C1042.03 407.56 1048.96 414.49 1048.96 423.091Z" stroke="black" stroke-width="5" stroke-miterlimit="10"/>
<path d="M1033.43 500.829C1042 500.829 1048.96 493.875 1048.96 485.298C1048.96 476.72 1042 469.767 1033.43 469.767C1024.85 469.767 1017.89 476.72 1017.89 485.298C1017.89 493.875 1024.85 500.829 1033.43 500.829Z" stroke="black" stroke-width="5" stroke-miterlimit="10"/>
</svg>
