<svg width="1073" height="504" viewBox="0 0 1073 504" fill="none" xmlns="http://www.w3.org/2000/svg">
<path d="M18.6358 34.1495C27.2712 34.1495 34.2716 27.196 34.2716 18.6185C34.2716 10.0409 27.2712 3.0874 18.6358 3.0874C10.0004 3.0874 3 10.0409 3 18.6185C3 27.196 10.0004 34.1495 18.6358 34.1495Z" stroke="black" stroke-width="5" stroke-miterlimit="10"/>
<path d="M49.9913 34.1495C58.6267 34.1495 65.627 27.196 65.627 18.6185C65.627 10.0409 58.6267 3.0874 49.9913 3.0874C41.3559 3.0874 34.3555 10.0409 34.3555 18.6185C34.3555 27.196 41.3559 34.1495 49.9913 34.1495Z" stroke="black" stroke-width="5" stroke-miterlimit="10"/>
<path d="M81.3472 34.1495C89.9826 34.1495 96.983 27.196 96.983 18.6185C96.983 10.0409 89.9826 3.0874 81.3472 3.0874C72.7118 3.0874 65.7114 10.0409 65.7114 18.6185C65.7114 27.196 72.7118 34.1495 81.3472 34.1495Z" stroke="black" stroke-width="5" stroke-miterlimit="10"/>
<path d="M18.6358 65.2115C27.2712 65.2115 34.2716 58.258 34.2716 49.6805C34.2716 41.1029 27.2712 34.1494 18.6358 34.1494C10.0004 34.1494 3 41.1029 3 49.6805C3 58.258 10.0004 65.2115 18.6358 65.2115Z" stroke="black" stroke-width="5" stroke-miterlimit="10"/>
<path d="M49.9913 65.2115C58.6267 65.2115 65.627 58.258 65.627 49.6805C65.627 41.1029 58.6267 34.1494 49.9913 34.1494C41.3559 34.1494 34.3555 41.1029 34.3555 49.6805C34.3555 58.258 41.3559 65.2115 49.9913 65.2115Z" stroke="black" stroke-width="5" stroke-miterlimit="10"/>
<path d="M81.3472 65.2115C89.9826 65.2115 96.983 58.258 96.983 49.6805C96.983 41.1029 89.9826 34.1494 81.3472 34.1494C72.7118 34.1494 65.7114 41.1029 65.7114 49.6805C65.7114 58.258 72.7118 65.2115 81.3472 65.2115Z" stroke="black" stroke-width="5" stroke-miterlimit="10"/>
<path d="M18.6358 96.3571C27.2712 96.3571 34.2716 89.4036 34.2716 80.826C34.2716 72.2484 27.2712 65.2949 18.6358 65.2949C10.0004 65.2949 3 72.2484 3 80.826C3 89.4036 10.0004 96.3571 18.6358 96.3571Z" stroke="black" stroke-width="5" stroke-miterlimit="10"/>
<path d="M49.9913 96.3571C58.6267 96.3571 65.627 89.4036 65.627 80.826C65.627 72.2484 58.6267 65.2949 49.9913 65.2949C41.3559 65.2949 34.3555 72.2484 34.3555 80.826C34.3555 89.4036 41.3559 96.3571 49.9913 96.3571Z" stroke="black" stroke-width="5" stroke-miterlimit="10"/>
<path d="M81.3472 96.3571C89.9826 96.3571 96.983 89.4036 96.983 80.826C96.983 72.2484 89.9826 65.2949 81.3472 65.2949C72.7118 65.2949 65.7114 72.2484 65.7114 80.826C65.7114 89.4036 72.7118 96.3571 81.3472 96.3571Z" stroke="black" stroke-width="5" stroke-miterlimit="10"/>
<path d="M18.6358 127.503C27.2712 127.503 34.2716 120.55 34.2716 111.972C34.2716 103.394 27.2712 96.4409 18.6358 96.4409C10.0004 96.4409 3 103.394 3 111.972C3 120.55 10.0004 127.503 18.6358 127.503Z" stroke="black" stroke-width="5" stroke-miterlimit="10"/>
<path d="M49.9913 127.503C58.6267 127.503 65.627 120.55 65.627 111.972C65.627 103.394 58.6267 96.4409 49.9913 96.4409C41.3559 96.4409 34.3555 103.394 34.3555 111.972C34.3555 120.55 41.3559 127.503 49.9913 127.503Z" stroke="black" stroke-width="5" stroke-miterlimit="10"/>
<path d="M81.3472 127.503C89.9826 127.503 96.983 120.55 96.983 111.972C96.983 103.394 89.9826 96.4409 81.3472 96.4409C72.7118 96.4409 65.7114 103.394 65.7114 111.972C65.7114 120.55 72.7118 127.503 81.3472 127.503Z" stroke="black" stroke-width="5" stroke-miterlimit="10"/>
<path d="M18.6358 158.565C27.2712 158.565 34.2716 151.612 34.2716 143.034C34.2716 134.456 27.2712 127.503 18.6358 127.503C10.0004 127.503 3 134.456 3 143.034C3 151.612 10.0004 158.565 18.6358 158.565Z" stroke="black" stroke-width="5" stroke-miterlimit="10"/>
<path d="M49.9913 158.565C58.6267 158.565 65.627 151.612 65.627 143.034C65.627 134.456 58.6267 127.503 49.9913 127.503C41.3559 127.503 34.3555 134.456 34.3555 143.034C34.3555 151.612 41.3559 158.565 49.9913 158.565Z" stroke="black" stroke-width="5" stroke-miterlimit="10"/>
<path d="M81.3472 158.565C89.9826 158.565 96.983 151.612 96.983 143.034C96.983 134.456 89.9826 127.503 81.3472 127.503C72.7118 127.503 65.7114 134.456 65.7114 143.034C65.7114 151.612 72.7118 158.565 81.3472 158.565Z" stroke="black" stroke-width="5" stroke-miterlimit="10"/>
<path d="M18.6358 189.711C27.2712 189.711 34.2716 182.757 34.2716 174.18C34.2716 165.602 27.2712 158.648 18.6358 158.648C10.0004 158.648 3 165.602 3 174.18C3 182.757 10.0004 189.711 18.6358 189.711Z" stroke="black" stroke-width="5" stroke-miterlimit="10"/>
<path d="M49.9913 189.711C58.6267 189.711 65.627 182.757 65.627 174.18C65.627 165.602 58.6267 158.648 49.9913 158.648C41.3559 158.648 34.3555 165.602 34.3555 174.18C34.3555 182.757 41.3559 189.711 49.9913 189.711Z" stroke="black" stroke-width="5" stroke-miterlimit="10"/>
<path d="M81.3472 189.711C89.9826 189.711 96.983 182.757 96.983 174.18C96.983 165.602 89.9826 158.648 81.3472 158.648C72.7118 158.648 65.7114 165.602 65.7114 174.18C65.7114 182.757 72.7118 189.711 81.3472 189.711Z" stroke="black" stroke-width="5" stroke-miterlimit="10"/>
<path d="M18.6358 220.856C27.2712 220.856 34.2716 213.903 34.2716 205.325C34.2716 196.747 27.2712 189.794 18.6358 189.794C10.0004 189.794 3 196.747 3 205.325C3 213.903 10.0004 220.856 18.6358 220.856Z" stroke="black" stroke-width="5" stroke-miterlimit="10"/>
<path d="M49.9913 220.856C58.6267 220.856 65.627 213.903 65.627 205.325C65.627 196.747 58.6267 189.794 49.9913 189.794C41.3559 189.794 34.3555 196.747 34.3555 205.325C34.3555 213.903 41.3559 220.856 49.9913 220.856Z" stroke="black" stroke-width="5" stroke-miterlimit="10"/>
<path d="M81.3472 220.856C89.9826 220.856 96.983 213.903 96.983 205.325C96.983 196.747 89.9826 189.794 81.3472 189.794C72.7118 189.794 65.7114 196.747 65.7114 205.325C65.7114 213.903 72.7118 220.856 81.3472 220.856Z" stroke="black" stroke-width="5" stroke-miterlimit="10"/>
<path d="M18.6358 251.919C27.2712 251.919 34.2716 244.965 34.2716 236.388C34.2716 227.81 27.2712 220.856 18.6358 220.856C10.0004 220.856 3 227.81 3 236.388C3 244.965 10.0004 251.919 18.6358 251.919Z" stroke="black" stroke-width="5" stroke-miterlimit="10"/>
<path d="M49.9913 251.919C58.6267 251.919 65.627 244.965 65.627 236.388C65.627 227.81 58.6267 220.856 49.9913 220.856C41.3559 220.856 34.3555 227.81 34.3555 236.388C34.3555 244.965 41.3559 251.919 49.9913 251.919Z" stroke="black" stroke-width="5" stroke-miterlimit="10"/>
<path d="M81.3472 251.919C89.9826 251.919 96.983 244.965 96.983 236.388C96.983 227.81 89.9826 220.856 81.3472 220.856C72.7118 220.856 65.7114 227.81 65.7114 236.388C65.7114 244.965 72.7118 251.919 81.3472 251.919Z" stroke="black" stroke-width="5" stroke-miterlimit="10"/>
<path d="M18.6358 283.064C27.2712 283.064 34.2716 276.111 34.2716 267.533C34.2716 258.955 27.2712 252.002 18.6358 252.002C10.0004 252.002 3 258.955 3 267.533C3 276.111 10.0004 283.064 18.6358 283.064Z" stroke="black" stroke-width="5" stroke-miterlimit="10"/>
<path d="M49.9913 283.064C58.6267 283.064 65.627 276.111 65.627 267.533C65.627 258.955 58.6267 252.002 49.9913 252.002C41.3559 252.002 34.3555 258.955 34.3555 267.533C34.3555 276.111 41.3559 283.064 49.9913 283.064Z" stroke="black" stroke-width="5" stroke-miterlimit="10"/>
<path d="M81.3472 283.064C89.9826 283.064 96.983 276.111 96.983 267.533C96.983 258.955 89.9826 252.002 81.3472 252.002C72.7118 252.002 65.7114 258.955 65.7114 267.533C65.7114 276.111 72.7118 283.064 81.3472 283.064Z" stroke="black" stroke-width="5" stroke-miterlimit="10"/>
<path d="M18.6358 314.21C27.2712 314.21 34.2716 307.256 34.2716 298.679C34.2716 290.101 27.2712 283.147 18.6358 283.147C10.0004 283.147 3 290.101 3 298.679C3 307.256 10.0004 314.21 18.6358 314.21Z" stroke="black" stroke-width="5" stroke-miterlimit="10"/>
<path d="M49.9913 314.21C58.6267 314.21 65.627 307.256 65.627 298.679C65.627 290.101 58.6267 283.147 49.9913 283.147C41.3559 283.147 34.3555 290.101 34.3555 298.679C34.3555 307.256 41.3559 314.21 49.9913 314.21Z" stroke="black" stroke-width="5" stroke-miterlimit="10"/>
<path d="M81.3472 314.21C89.9826 314.21 96.983 307.256 96.983 298.679C96.983 290.101 89.9826 283.147 81.3472 283.147C72.7118 283.147 65.7114 290.101 65.7114 298.679C65.7114 307.256 72.7118 314.21 81.3472 314.21Z" stroke="black" stroke-width="5" stroke-miterlimit="10"/>
<path d="M18.6358 345.355C27.2712 345.355 34.2716 338.402 34.2716 329.824C34.2716 321.246 27.2712 314.293 18.6358 314.293C10.0004 314.293 3 321.246 3 329.824C3 338.402 10.0004 345.355 18.6358 345.355Z" stroke="black" stroke-width="5" stroke-miterlimit="10"/>
<path d="M49.9913 345.355C58.6267 345.355 65.627 338.402 65.627 329.824C65.627 321.246 58.6267 314.293 49.9913 314.293C41.3559 314.293 34.3555 321.246 34.3555 329.824C34.3555 338.402 41.3559 345.355 49.9913 345.355Z" stroke="black" stroke-width="5" stroke-miterlimit="10"/>
<path d="M81.3472 345.355C89.9826 345.355 96.983 338.402 96.983 329.824C96.983 321.246 89.9826 314.293 81.3472 314.293C72.7118 314.293 65.7114 321.246 65.7114 329.824C65.7114 338.402 72.7118 345.355 81.3472 345.355Z" stroke="black" stroke-width="5" stroke-miterlimit="10"/>
<path d="M18.6358 376.418C27.2712 376.418 34.2716 369.464 34.2716 360.887C34.2716 352.309 27.2712 345.355 18.6358 345.355C10.0004 345.355 3 352.309 3 360.887C3 369.464 10.0004 376.418 18.6358 376.418Z" stroke="black" stroke-width="5" stroke-miterlimit="10"/>
<path d="M49.9913 376.418C58.6267 376.418 65.627 369.464 65.627 360.887C65.627 352.309 58.6267 345.355 49.9913 345.355C41.3559 345.355 34.3555 352.309 34.3555 360.887C34.3555 369.464 41.3559 376.418 49.9913 376.418Z" stroke="black" stroke-width="5" stroke-miterlimit="10"/>
<path d="M81.3472 376.418C89.9826 376.418 96.983 369.464 96.983 360.887C96.983 352.309 89.9826 345.355 81.3472 345.355C72.7118 345.355 65.7114 352.309 65.7114 360.887C65.7114 369.464 72.7118 376.418 81.3472 376.418Z" stroke="black" stroke-width="5" stroke-miterlimit="10"/>
<path d="M18.6358 407.563C27.2712 407.563 34.2716 400.61 34.2716 392.032C34.2716 383.454 27.2712 376.501 18.6358 376.501C10.0004 376.501 3 383.454 3 392.032C3 400.61 10.0004 407.563 18.6358 407.563Z" stroke="black" stroke-width="5" stroke-miterlimit="10"/>
<path d="M49.9913 407.563C58.6267 407.563 65.627 400.61 65.627 392.032C65.627 383.454 58.6267 376.501 49.9913 376.501C41.3559 376.501 34.3555 383.454 34.3555 392.032C34.3555 400.61 41.3559 407.563 49.9913 407.563Z" stroke="black" stroke-width="5" stroke-miterlimit="10"/>
<path d="M81.3472 407.563C89.9826 407.563 96.983 400.61 96.983 392.032C96.983 383.454 89.9826 376.501 81.3472 376.501C72.7118 376.501 65.7114 383.454 65.7114 392.032C65.7114 400.61 72.7118 407.563 81.3472 407.563Z" stroke="black" stroke-width="5" stroke-miterlimit="10"/>
<path d="M18.6358 438.709C27.2712 438.709 34.2716 431.755 34.2716 423.178C34.2716 414.6 27.2712 407.646 18.6358 407.646C10.0004 407.646 3 414.6 3 423.178C3 431.755 10.0004 438.709 18.6358 438.709Z" stroke="black" stroke-width="5" stroke-miterlimit="10"/>
<path d="M49.9913 438.709C58.6267 438.709 65.627 431.755 65.627 423.178C65.627 414.6 58.6267 407.646 49.9913 407.646C41.3559 407.646 34.3555 414.6 34.3555 423.178C34.3555 431.755 41.3559 438.709 49.9913 438.709Z" stroke="black" stroke-width="5" stroke-miterlimit="10"/>
<path d="M81.3472 438.709C89.9826 438.709 96.983 431.755 96.983 423.178C96.983 414.6 89.9826 407.646 81.3472 407.646C72.7118 407.646 65.7114 414.6 65.7114 423.178C65.7114 431.755 72.7118 438.709 81.3472 438.709Z" stroke="black" stroke-width="5" stroke-miterlimit="10"/>
<path d="M18.6358 469.771C27.2712 469.771 34.2716 462.817 34.2716 454.24C34.2716 445.662 27.2712 438.708 18.6358 438.708C10.0004 438.708 3 445.662 3 454.24C3 462.817 10.0004 469.771 18.6358 469.771Z" stroke="black" stroke-width="5" stroke-miterlimit="10"/>
<path d="M49.9913 469.771C58.6267 469.771 65.627 462.817 65.627 454.24C65.627 445.662 58.6267 438.708 49.9913 438.708C41.3559 438.708 34.3555 445.662 34.3555 454.24C34.3555 462.817 41.3559 469.771 49.9913 469.771Z" stroke="black" stroke-width="5" stroke-miterlimit="10"/>
<path d="M81.3472 469.771C89.9826 469.771 96.983 462.817 96.983 454.24C96.983 445.662 89.9826 438.708 81.3472 438.708C72.7118 438.708 65.7114 445.662 65.7114 454.24C65.7114 462.817 72.7118 469.771 81.3472 469.771Z" stroke="black" stroke-width="5" stroke-miterlimit="10"/>
<path d="M18.6358 500.917C27.2712 500.917 34.2716 493.963 34.2716 485.386C34.2716 476.808 27.2712 469.854 18.6358 469.854C10.0004 469.854 3 476.808 3 485.386C3 493.963 10.0004 500.917 18.6358 500.917Z" stroke="black" stroke-width="5" stroke-miterlimit="10"/>
<path d="M49.9913 500.917C58.6267 500.917 65.627 493.963 65.627 485.386C65.627 476.808 58.6267 469.854 49.9913 469.854C41.3559 469.854 34.3555 476.808 34.3555 485.386C34.3555 493.963 41.3559 500.917 49.9913 500.917Z" stroke="black" stroke-width="5" stroke-miterlimit="10"/>
<path d="M81.3472 500.917C89.9826 500.917 96.983 493.963 96.983 485.386C96.983 476.808 89.9826 469.854 81.3472 469.854C72.7118 469.854 65.7114 476.808 65.7114 485.386C65.7114 493.963 72.7118 500.917 81.3472 500.917Z" stroke="black" stroke-width="5" stroke-miterlimit="10"/>
<path d="M112.619 34.1495C121.254 34.1495 128.254 27.196 128.254 18.6185C128.254 10.0409 121.254 3.0874 112.619 3.0874C103.983 3.0874 96.9829 10.0409 96.9829 18.6185C96.9829 27.196 103.983 34.1495 112.619 34.1495Z" stroke="black" stroke-width="5" stroke-miterlimit="10"/>
<path d="M143.974 34.1495C152.61 34.1495 159.61 27.196 159.61 18.6185C159.61 10.0409 152.61 3.0874 143.974 3.0874C135.339 3.0874 128.338 10.0409 128.338 18.6185C128.338 27.196 135.339 34.1495 143.974 34.1495Z" stroke="black" stroke-width="5" stroke-miterlimit="10"/>
<path d="M175.33 34.1495C183.966 34.1495 190.966 27.196 190.966 18.6185C190.966 10.0409 183.966 3.0874 175.33 3.0874C166.695 3.0874 159.694 10.0409 159.694 18.6185C159.694 27.196 166.695 34.1495 175.33 34.1495Z" stroke="black" stroke-width="5" stroke-miterlimit="10"/>
<path d="M112.619 65.2115C121.254 65.2115 128.254 58.258 128.254 49.6805C128.254 41.1029 121.254 34.1494 112.619 34.1494C103.983 34.1494 96.9829 41.1029 96.9829 49.6805C96.9829 58.258 103.983 65.2115 112.619 65.2115Z" stroke="black" stroke-width="5" stroke-miterlimit="10"/>
<path d="M143.974 65.2115C152.61 65.2115 159.61 58.258 159.61 49.6805C159.61 41.1029 152.61 34.1494 143.974 34.1494C135.339 34.1494 128.338 41.1029 128.338 49.6805C128.338 58.258 135.339 65.2115 143.974 65.2115Z" stroke="black" stroke-width="5" stroke-miterlimit="10"/>
<path d="M175.33 65.2115C183.966 65.2115 190.966 58.258 190.966 49.6805C190.966 41.1029 183.966 34.1494 175.33 34.1494C166.695 34.1494 159.694 41.1029 159.694 49.6805C159.694 58.258 166.695 65.2115 175.33 65.2115Z" stroke="black" stroke-width="5" stroke-miterlimit="10"/>
<path d="M112.619 96.3571C121.254 96.3571 128.254 89.4036 128.254 80.826C128.254 72.2484 121.254 65.2949 112.619 65.2949C103.983 65.2949 96.9829 72.2484 96.9829 80.826C96.9829 89.4036 103.983 96.3571 112.619 96.3571Z" stroke="black" stroke-width="5" stroke-miterlimit="10"/>
<path d="M143.974 96.3571C152.61 96.3571 159.61 89.4036 159.61 80.826C159.61 72.2484 152.61 65.2949 143.974 65.2949C135.339 65.2949 128.338 72.2484 128.338 80.826C128.338 89.4036 135.339 96.3571 143.974 96.3571Z" stroke="black" stroke-width="5" stroke-miterlimit="10"/>
<path d="M175.33 96.3571C183.966 96.3571 190.966 89.4036 190.966 80.826C190.966 72.2484 183.966 65.2949 175.33 65.2949C166.695 65.2949 159.694 72.2484 159.694 80.826C159.694 89.4036 166.695 96.3571 175.33 96.3571Z" stroke="black" stroke-width="5" stroke-miterlimit="10"/>
<path d="M206.602 34.1495C215.237 34.1495 222.237 27.196 222.237 18.6185C222.237 10.0409 215.237 3.0874 206.602 3.0874C197.966 3.0874 190.966 10.0409 190.966 18.6185C190.966 27.196 197.966 34.1495 206.602 34.1495Z" stroke="black" stroke-width="5" stroke-miterlimit="10"/>
<path d="M237.957 34.1495C246.592 34.1495 253.593 27.196 253.593 18.6185C253.593 10.0409 246.592 3.0874 237.957 3.0874C229.322 3.0874 222.321 10.0409 222.321 18.6185C222.321 27.196 229.322 34.1495 237.957 34.1495Z" stroke="black" stroke-width="5" stroke-miterlimit="10"/>
<path d="M269.313 34.1495C277.948 34.1495 284.948 27.196 284.948 18.6185C284.948 10.0409 277.948 3.0874 269.313 3.0874C260.677 3.0874 253.677 10.0409 253.677 18.6185C253.677 27.196 260.677 34.1495 269.313 34.1495Z" stroke="black" stroke-width="5" stroke-miterlimit="10"/>
<path d="M206.602 65.2115C215.237 65.2115 222.237 58.258 222.237 49.6805C222.237 41.1029 215.237 34.1494 206.602 34.1494C197.966 34.1494 190.966 41.1029 190.966 49.6805C190.966 58.258 197.966 65.2115 206.602 65.2115Z" stroke="black" stroke-width="5" stroke-miterlimit="10"/>
<path d="M237.957 65.2115C246.592 65.2115 253.593 58.258 253.593 49.6805C253.593 41.1029 246.592 34.1494 237.957 34.1494C229.322 34.1494 222.321 41.1029 222.321 49.6805C222.321 58.258 229.322 65.2115 237.957 65.2115Z" stroke="black" stroke-width="5" stroke-miterlimit="10"/>
<path d="M269.313 65.2115C277.948 65.2115 284.948 58.258 284.948 49.6805C284.948 41.1029 277.948 34.1494 269.313 34.1494C260.677 34.1494 253.677 41.1029 253.677 49.6805C253.677 58.258 260.677 65.2115 269.313 65.2115Z" stroke="black" stroke-width="5" stroke-miterlimit="10"/>
<path d="M206.602 96.3571C215.237 96.3571 222.237 89.4036 222.237 80.826C222.237 72.2484 215.237 65.2949 206.602 65.2949C197.966 65.2949 190.966 72.2484 190.966 80.826C190.966 89.4036 197.966 96.3571 206.602 96.3571Z" stroke="black" stroke-width="5" stroke-miterlimit="10"/>
<path d="M237.957 96.3571C246.592 96.3571 253.593 89.4036 253.593 80.826C253.593 72.2484 246.592 65.2949 237.957 65.2949C229.322 65.2949 222.321 72.2484 222.321 80.826C222.321 89.4036 229.322 96.3571 237.957 96.3571Z" stroke="black" stroke-width="5" stroke-miterlimit="10"/>
<path d="M269.313 96.3571C277.948 96.3571 284.948 89.4036 284.948 80.826C284.948 72.2484 277.948 65.2949 269.313 65.2949C260.677 65.2949 253.677 72.2484 253.677 80.826C253.677 89.4036 260.677 96.3571 269.313 96.3571Z" stroke="black" stroke-width="5" stroke-miterlimit="10"/>
<path d="M300.669 65.2115C309.304 65.2115 316.304 58.258 316.304 49.6805C316.304 41.1029 309.304 34.1494 300.669 34.1494C292.033 34.1494 285.033 41.1029 285.033 49.6805C285.033 58.258 292.033 65.2115 300.669 65.2115Z" stroke="black" stroke-width="5" stroke-miterlimit="10"/>
<path d="M300.669 96.3571C309.304 96.3571 316.304 89.4036 316.304 80.826C316.304 72.2484 309.304 65.2949 300.669 65.2949C292.033 65.2949 285.033 72.2484 285.033 80.826C285.033 89.4036 292.033 96.3571 300.669 96.3571Z" stroke="black" stroke-width="5" stroke-miterlimit="10"/>
<path d="M331.94 96.3571C340.575 96.3571 347.576 89.4036 347.576 80.826C347.576 72.2484 340.575 65.2949 331.94 65.2949C323.305 65.2949 316.304 72.2484 316.304 80.826C316.304 89.4036 323.305 96.3571 331.94 96.3571Z" stroke="black" stroke-width="5" stroke-miterlimit="10"/>
<path d="M300.669 127.503C309.304 127.503 316.304 120.55 316.304 111.972C316.304 103.394 309.304 96.4409 300.669 96.4409C292.033 96.4409 285.033 103.394 285.033 111.972C285.033 120.55 292.033 127.503 300.669 127.503Z" stroke="black" stroke-width="5" stroke-miterlimit="10"/>
<path d="M331.94 127.503C340.575 127.503 347.576 120.55 347.576 111.972C347.576 103.394 340.575 96.4409 331.94 96.4409C323.305 96.4409 316.304 103.394 316.304 111.972C316.304 120.55 323.305 127.503 331.94 127.503Z" stroke="black" stroke-width="5" stroke-miterlimit="10"/>
<path d="M269.313 127.503C277.948 127.503 284.948 120.55 284.948 111.972C284.948 103.394 277.948 96.4409 269.313 96.4409C260.677 96.4409 253.677 103.394 253.677 111.972C253.677 120.55 260.677 127.503 269.313 127.503Z" stroke="black" stroke-width="5" stroke-miterlimit="10"/>
<path d="M269.313 158.565C277.948 158.565 284.948 151.612 284.948 143.034C284.948 134.456 277.948 127.503 269.313 127.503C260.677 127.503 253.677 134.456 253.677 143.034C253.677 151.612 260.677 158.565 269.313 158.565Z" stroke="black" stroke-width="5" stroke-miterlimit="10"/>
<path d="M300.669 158.565C309.304 158.565 316.304 151.612 316.304 143.034C316.304 134.456 309.304 127.503 300.669 127.503C292.033 127.503 285.033 134.456 285.033 143.034C285.033 151.612 292.033 158.565 300.669 158.565Z" stroke="black" stroke-width="5" stroke-miterlimit="10"/>
<path d="M331.94 158.565C340.575 158.565 347.576 151.612 347.576 143.034C347.576 134.456 340.575 127.503 331.94 127.503C323.305 127.503 316.304 134.456 316.304 143.034C316.304 151.612 323.305 158.565 331.94 158.565Z" stroke="black" stroke-width="5" stroke-miterlimit="10"/>
<path d="M300.669 189.711C309.304 189.711 316.304 182.757 316.304 174.18C316.304 165.602 309.304 158.648 300.669 158.648C292.033 158.648 285.033 165.602 285.033 174.18C285.033 182.757 292.033 189.711 300.669 189.711Z" stroke="black" stroke-width="5" stroke-miterlimit="10"/>
<path d="M331.94 189.711C340.575 189.711 347.576 182.757 347.576 174.18C347.576 165.602 340.575 158.648 331.94 158.648C323.305 158.648 316.304 165.602 316.304 174.18C316.304 182.757 323.305 189.711 331.94 189.711Z" stroke="black" stroke-width="5" stroke-miterlimit="10"/>
<path d="M269.313 189.711C277.948 189.711 284.948 182.757 284.948 174.18C284.948 165.602 277.948 158.648 269.313 158.648C260.677 158.648 253.677 165.602 253.677 174.18C253.677 182.757 260.677 189.711 269.313 189.711Z" stroke="black" stroke-width="5" stroke-miterlimit="10"/>
<path d="M269.313 158.565C277.948 158.565 284.948 151.612 284.948 143.034C284.948 134.456 277.948 127.503 269.313 127.503C260.677 127.503 253.677 134.456 253.677 143.034C253.677 151.612 260.677 158.565 269.313 158.565Z" stroke="black" stroke-width="5" stroke-miterlimit="10"/>
<path d="M300.669 158.565C309.304 158.565 316.304 151.612 316.304 143.034C316.304 134.456 309.304 127.503 300.669 127.503C292.033 127.503 285.033 134.456 285.033 143.034C285.033 151.612 292.033 158.565 300.669 158.565Z" stroke="black" stroke-width="5" stroke-miterlimit="10"/>
<path d="M331.94 158.565C340.575 158.565 347.576 151.612 347.576 143.034C347.576 134.456 340.575 127.503 331.94 127.503C323.305 127.503 316.304 134.456 316.304 143.034C316.304 151.612 323.305 158.565 331.94 158.565Z" stroke="black" stroke-width="5" stroke-miterlimit="10"/>
<path d="M300.669 189.711C309.304 189.711 316.304 182.757 316.304 174.18C316.304 165.602 309.304 158.648 300.669 158.648C292.033 158.648 285.033 165.602 285.033 174.18C285.033 182.757 292.033 189.711 300.669 189.711Z" stroke="black" stroke-width="5" stroke-miterlimit="10"/>
<path d="M331.94 189.711C340.575 189.711 347.576 182.757 347.576 174.18C347.576 165.602 340.575 158.648 331.94 158.648C323.305 158.648 316.304 165.602 316.304 174.18C316.304 182.757 323.305 189.711 331.94 189.711Z" stroke="black" stroke-width="5" stroke-miterlimit="10"/>
<path d="M269.313 189.711C277.948 189.711 284.948 182.757 284.948 174.18C284.948 165.602 277.948 158.648 269.313 158.648C260.677 158.648 253.677 165.602 253.677 174.18C253.677 182.757 260.677 189.711 269.313 189.711Z" stroke="black" stroke-width="5" stroke-miterlimit="10"/>
<path d="M237.957 220.856C246.592 220.856 253.593 213.903 253.593 205.325C253.593 196.747 246.592 189.794 237.957 189.794C229.322 189.794 222.321 196.747 222.321 205.325C222.321 213.903 229.322 220.856 237.957 220.856Z" stroke="black" stroke-width="5" stroke-miterlimit="10"/>
<path d="M269.313 220.856C277.948 220.856 284.948 213.903 284.948 205.325C284.948 196.747 277.948 189.794 269.313 189.794C260.677 189.794 253.677 196.747 253.677 205.325C253.677 213.903 260.677 220.856 269.313 220.856Z" stroke="black" stroke-width="5" stroke-miterlimit="10"/>
<path d="M300.669 220.856C309.304 220.856 316.304 213.903 316.304 205.325C316.304 196.747 309.304 189.794 300.669 189.794C292.033 189.794 285.033 196.747 285.033 205.325C285.033 213.903 292.033 220.856 300.669 220.856Z" stroke="black" stroke-width="5" stroke-miterlimit="10"/>
<path d="M269.313 251.919C277.948 251.919 284.948 244.965 284.948 236.388C284.948 227.81 277.948 220.856 269.313 220.856C260.677 220.856 253.677 227.81 253.677 236.388C253.677 244.965 260.677 251.919 269.313 251.919Z" stroke="black" stroke-width="5" stroke-miterlimit="10"/>
<path d="M237.957 251.919C246.592 251.919 253.593 244.965 253.593 236.388C253.593 227.81 246.592 220.856 237.957 220.856C229.322 220.856 222.321 227.81 222.321 236.388C222.321 244.965 229.322 251.919 237.957 251.919Z" stroke="black" stroke-width="5" stroke-miterlimit="10"/>
<path d="M269.313 220.856C277.948 220.856 284.948 213.903 284.948 205.325C284.948 196.747 277.948 189.794 269.313 189.794C260.677 189.794 253.677 196.747 253.677 205.325C253.677 213.903 260.677 220.856 269.313 220.856Z" stroke="black" stroke-width="5" stroke-miterlimit="10"/>
<path d="M300.669 220.856C309.304 220.856 316.304 213.903 316.304 205.325C316.304 196.747 309.304 189.794 300.669 189.794C292.033 189.794 285.033 196.747 285.033 205.325C285.033 213.903 292.033 220.856 300.669 220.856Z" stroke="black" stroke-width="5" stroke-miterlimit="10"/>
<path d="M112.619 220.856C121.254 220.856 128.254 213.903 128.254 205.325C128.254 196.747 121.254 189.794 112.619 189.794C103.983 189.794 96.9829 196.747 96.9829 205.325C96.9829 213.903 103.983 220.856 112.619 220.856Z" stroke="black" stroke-width="5" stroke-miterlimit="10"/>
<path d="M143.974 220.856C152.61 220.856 159.61 213.903 159.61 205.325C159.61 196.747 152.61 189.794 143.974 189.794C135.339 189.794 128.338 196.747 128.338 205.325C128.338 213.903 135.339 220.856 143.974 220.856Z" stroke="black" stroke-width="5" stroke-miterlimit="10"/>
<path d="M175.33 220.856C183.966 220.856 190.966 213.903 190.966 205.325C190.966 196.747 183.966 189.794 175.33 189.794C166.695 189.794 159.694 196.747 159.694 205.325C159.694 213.903 166.695 220.856 175.33 220.856Z" stroke="black" stroke-width="5" stroke-miterlimit="10"/>
<path d="M143.974 251.919C152.61 251.919 159.61 244.965 159.61 236.388C159.61 227.81 152.61 220.856 143.974 220.856C135.339 220.856 128.338 227.81 128.338 236.388C128.338 244.965 135.339 251.919 143.974 251.919Z" stroke="black" stroke-width="5" stroke-miterlimit="10"/>
<path d="M175.33 251.919C183.966 251.919 190.966 244.965 190.966 236.388C190.966 227.81 183.966 220.856 175.33 220.856C166.695 220.856 159.694 227.81 159.694 236.388C159.694 244.965 166.695 251.919 175.33 251.919Z" stroke="black" stroke-width="5" stroke-miterlimit="10"/>
<path d="M112.619 251.919C121.254 251.919 128.254 244.965 128.254 236.388C128.254 227.81 121.254 220.856 112.619 220.856C103.983 220.856 96.9829 227.81 96.9829 236.388C96.9829 244.965 103.983 251.919 112.619 251.919Z" stroke="black" stroke-width="5" stroke-miterlimit="10"/>
<path d="M206.602 220.856C215.237 220.856 222.237 213.903 222.237 205.325C222.237 196.747 215.237 189.794 206.602 189.794C197.966 189.794 190.966 196.747 190.966 205.325C190.966 213.903 197.966 220.856 206.602 220.856Z" stroke="black" stroke-width="5" stroke-miterlimit="10"/>
<path d="M206.602 251.919C215.237 251.919 222.237 244.965 222.237 236.388C222.237 227.81 215.237 220.856 206.602 220.856C197.966 220.856 190.966 227.81 190.966 236.388C190.966 244.965 197.966 251.919 206.602 251.919Z" stroke="black" stroke-width="5" stroke-miterlimit="10"/>
<path d="M237.957 283.064C246.592 283.064 253.593 276.111 253.593 267.533C253.593 258.955 246.592 252.002 237.957 252.002C229.322 252.002 222.321 258.955 222.321 267.533C222.321 276.111 229.322 283.064 237.957 283.064Z" stroke="black" stroke-width="5" stroke-miterlimit="10"/>
<path d="M143.974 283.064C152.61 283.064 159.61 276.111 159.61 267.533C159.61 258.955 152.61 252.002 143.974 252.002C135.339 252.002 128.338 258.955 128.338 267.533C128.338 276.111 135.339 283.064 143.974 283.064Z" stroke="black" stroke-width="5" stroke-miterlimit="10"/>
<path d="M175.33 283.064C183.966 283.064 190.966 276.111 190.966 267.533C190.966 258.955 183.966 252.002 175.33 252.002C166.695 252.002 159.694 258.955 159.694 267.533C159.694 276.111 166.695 283.064 175.33 283.064Z" stroke="black" stroke-width="5" stroke-miterlimit="10"/>
<path d="M112.619 283.064C121.254 283.064 128.254 276.111 128.254 267.533C128.254 258.955 121.254 252.002 112.619 252.002C103.983 252.002 96.9829 258.955 96.9829 267.533C96.9829 276.111 103.983 283.064 112.619 283.064Z" stroke="black" stroke-width="5" stroke-miterlimit="10"/>
<path d="M206.602 283.064C215.237 283.064 222.237 276.111 222.237 267.533C222.237 258.955 215.237 252.002 206.602 252.002C197.966 252.002 190.966 258.955 190.966 267.533C190.966 276.111 197.966 283.064 206.602 283.064Z" stroke="black" stroke-width="5" stroke-miterlimit="10"/>
<path d="M269.313 345.355C277.948 345.355 284.948 338.402 284.948 329.824C284.948 321.246 277.948 314.293 269.313 314.293C260.677 314.293 253.677 321.246 253.677 329.824C253.677 338.402 260.677 345.355 269.313 345.355Z" stroke="black" stroke-width="5" stroke-miterlimit="10"/>
<path d="M237.957 345.355C246.592 345.355 253.593 338.402 253.593 329.824C253.593 321.246 246.592 314.293 237.957 314.293C229.322 314.293 222.321 321.246 222.321 329.824C222.321 338.402 229.322 345.355 237.957 345.355Z" stroke="black" stroke-width="5" stroke-miterlimit="10"/>
<path d="M237.957 314.21C246.592 314.21 253.593 307.256 253.593 298.679C253.593 290.101 246.592 283.147 237.957 283.147C229.322 283.147 222.321 290.101 222.321 298.679C222.321 307.256 229.322 314.21 237.957 314.21Z" stroke="black" stroke-width="5" stroke-miterlimit="10"/>
<path d="M269.313 314.21C277.948 314.21 284.948 307.256 284.948 298.679C284.948 290.101 277.948 283.147 269.313 283.147C260.677 283.147 253.677 290.101 253.677 298.679C253.677 307.256 260.677 314.21 269.313 314.21Z" stroke="black" stroke-width="5" stroke-miterlimit="10"/>
<path d="M269.313 345.355C277.948 345.355 284.948 338.402 284.948 329.824C284.948 321.246 277.948 314.293 269.313 314.293C260.677 314.293 253.677 321.246 253.677 329.824C253.677 338.402 260.677 345.355 269.313 345.355Z" stroke="black" stroke-width="5" stroke-miterlimit="10"/>
<path d="M237.957 345.355C246.592 345.355 253.593 338.402 253.593 329.824C253.593 321.246 246.592 314.293 237.957 314.293C229.322 314.293 222.321 321.246 222.321 329.824C222.321 338.402 229.322 345.355 237.957 345.355Z" stroke="black" stroke-width="5" stroke-miterlimit="10"/>
<path d="M206.602 314.21C215.237 314.21 222.237 307.256 222.237 298.679C222.237 290.101 215.237 283.147 206.602 283.147C197.966 283.147 190.966 290.101 190.966 298.679C190.966 307.256 197.966 314.21 206.602 314.21Z" stroke="black" stroke-width="5" stroke-miterlimit="10"/>
<path d="M300.669 345.355C309.304 345.355 316.304 338.402 316.304 329.824C316.304 321.246 309.304 314.293 300.669 314.293C292.033 314.293 285.033 321.246 285.033 329.824C285.033 338.402 292.033 345.355 300.669 345.355Z" stroke="black" stroke-width="5" stroke-miterlimit="10"/>
<path d="M300.669 376.418C309.304 376.418 316.304 369.464 316.304 360.887C316.304 352.309 309.304 345.355 300.669 345.355C292.033 345.355 285.033 352.309 285.033 360.887C285.033 369.464 292.033 376.418 300.669 376.418Z" stroke="black" stroke-width="5" stroke-miterlimit="10"/>
<path d="M269.313 376.418C277.948 376.418 284.948 369.464 284.948 360.887C284.948 352.309 277.948 345.355 269.313 345.355C260.677 345.355 253.677 352.309 253.677 360.887C253.677 369.464 260.677 376.418 269.313 376.418Z" stroke="black" stroke-width="5" stroke-miterlimit="10"/>
<path d="M300.669 376.418C309.304 376.418 316.304 369.464 316.304 360.887C316.304 352.309 309.304 345.355 300.669 345.355C292.033 345.355 285.033 352.309 285.033 360.887C285.033 369.464 292.033 376.418 300.669 376.418Z" stroke="black" stroke-width="5" stroke-miterlimit="10"/>
<path d="M269.313 376.418C277.948 376.418 284.948 369.464 284.948 360.887C284.948 352.309 277.948 345.355 269.313 345.355C260.677 345.355 253.677 352.309 253.677 360.887C253.677 369.464 260.677 376.418 269.313 376.418Z" stroke="black" stroke-width="5" stroke-miterlimit="10"/>
<path d="M237.957 376.418C246.592 376.418 253.593 369.464 253.593 360.887C253.593 352.309 246.592 345.355 237.957 345.355C229.322 345.355 222.321 352.309 222.321 360.887C222.321 369.464 229.322 376.418 237.957 376.418Z" stroke="black" stroke-width="5" stroke-miterlimit="10"/>
<path d="M237.957 376.418C246.592 376.418 253.593 369.464 253.593 360.887C253.593 352.309 246.592 345.355 237.957 345.355C229.322 345.355 222.321 352.309 222.321 360.887C222.321 369.464 229.322 376.418 237.957 376.418Z" stroke="black" stroke-width="5" stroke-miterlimit="10"/>
<path d="M300.669 407.563C309.304 407.563 316.304 400.61 316.304 392.032C316.304 383.454 309.304 376.501 300.669 376.501C292.033 376.501 285.033 383.454 285.033 392.032C285.033 400.61 292.033 407.563 300.669 407.563Z" stroke="black" stroke-width="5" stroke-miterlimit="10"/>
<path d="M269.313 407.563C277.948 407.563 284.948 400.61 284.948 392.032C284.948 383.454 277.948 376.501 269.313 376.501C260.677 376.501 253.677 383.454 253.677 392.032C253.677 400.61 260.677 407.563 269.313 407.563Z" stroke="black" stroke-width="5" stroke-miterlimit="10"/>
<path d="M300.669 407.563C309.304 407.563 316.304 400.61 316.304 392.032C316.304 383.454 309.304 376.501 300.669 376.501C292.033 376.501 285.033 383.454 285.033 392.032C285.033 400.61 292.033 407.563 300.669 407.563Z" stroke="black" stroke-width="5" stroke-miterlimit="10"/>
<path d="M269.313 407.563C277.948 407.563 284.948 400.61 284.948 392.032C284.948 383.454 277.948 376.501 269.313 376.501C260.677 376.501 253.677 383.454 253.677 392.032C253.677 400.61 260.677 407.563 269.313 407.563Z" stroke="black" stroke-width="5" stroke-miterlimit="10"/>
<path d="M331.94 407.563C340.575 407.563 347.576 400.61 347.576 392.032C347.576 383.454 340.575 376.501 331.94 376.501C323.305 376.501 316.304 383.454 316.304 392.032C316.304 400.61 323.305 407.563 331.94 407.563Z" stroke="black" stroke-width="5" stroke-miterlimit="10"/>
<path d="M331.94 438.709C340.575 438.709 347.576 431.755 347.576 423.178C347.576 414.6 340.575 407.646 331.94 407.646C323.305 407.646 316.304 414.6 316.304 423.178C316.304 431.755 323.305 438.709 331.94 438.709Z" stroke="black" stroke-width="5" stroke-miterlimit="10"/>
<path d="M300.669 438.709C309.304 438.709 316.304 431.755 316.304 423.178C316.304 414.6 309.304 407.646 300.669 407.646C292.033 407.646 285.033 414.6 285.033 423.178C285.033 431.755 292.033 438.709 300.669 438.709Z" stroke="black" stroke-width="5" stroke-miterlimit="10"/>
<path d="M331.94 438.709C340.575 438.709 347.576 431.755 347.576 423.178C347.576 414.6 340.575 407.646 331.94 407.646C323.305 407.646 316.304 414.6 316.304 423.178C316.304 431.755 323.305 438.709 331.94 438.709Z" stroke="black" stroke-width="5" stroke-miterlimit="10"/>
<path d="M300.669 438.709C309.304 438.709 316.304 431.755 316.304 423.178C316.304 414.6 309.304 407.646 300.669 407.646C292.033 407.646 285.033 414.6 285.033 423.178C285.033 431.755 292.033 438.709 300.669 438.709Z" stroke="black" stroke-width="5" stroke-miterlimit="10"/>
<path d="M269.313 438.709C277.948 438.709 284.948 431.755 284.948 423.178C284.948 414.6 277.948 407.646 269.313 407.646C260.677 407.646 253.677 414.6 253.677 423.178C253.677 431.755 260.677 438.709 269.313 438.709Z" stroke="black" stroke-width="5" stroke-miterlimit="10"/>
<path d="M269.313 438.709C277.948 438.709 284.948 431.755 284.948 423.178C284.948 414.6 277.948 407.646 269.313 407.646C260.677 407.646 253.677 414.6 253.677 423.178C253.677 431.755 260.677 438.709 269.313 438.709Z" stroke="black" stroke-width="5" stroke-miterlimit="10"/>
<path d="M331.94 469.771C340.575 469.771 347.576 462.817 347.576 454.24C347.576 445.662 340.575 438.708 331.94 438.708C323.305 438.708 316.304 445.662 316.304 454.24C316.304 462.817 323.305 469.771 331.94 469.771Z" stroke="black" stroke-width="5" stroke-miterlimit="10"/>
<path d="M300.669 469.771C309.304 469.771 316.304 462.817 316.304 454.24C316.304 445.662 309.304 438.708 300.669 438.708C292.033 438.708 285.033 445.662 285.033 454.24C285.033 462.817 292.033 469.771 300.669 469.771Z" stroke="black" stroke-width="5" stroke-miterlimit="10"/>
<path d="M331.94 469.771C340.575 469.771 347.576 462.817 347.576 454.24C347.576 445.662 340.575 438.708 331.94 438.708C323.305 438.708 316.304 445.662 316.304 454.24C316.304 462.817 323.305 469.771 331.94 469.771Z" stroke="black" stroke-width="5" stroke-miterlimit="10"/>
<path d="M300.669 469.771C309.304 469.771 316.304 462.817 316.304 454.24C316.304 445.662 309.304 438.708 300.669 438.708C292.033 438.708 285.033 445.662 285.033 454.24C285.033 462.817 292.033 469.771 300.669 469.771Z" stroke="black" stroke-width="5" stroke-miterlimit="10"/>
<path d="M363.295 469.771C371.931 469.771 378.931 462.817 378.931 454.24C378.931 445.662 371.931 438.708 363.295 438.708C354.66 438.708 347.66 445.662 347.66 454.24C347.66 462.817 354.66 469.771 363.295 469.771Z" stroke="black" stroke-width="5" stroke-miterlimit="10"/>
<path d="M363.295 500.917C371.931 500.917 378.931 493.963 378.931 485.386C378.931 476.808 371.931 469.854 363.295 469.854C354.66 469.854 347.66 476.808 347.66 485.386C347.66 493.963 354.66 500.917 363.295 500.917Z" stroke="black" stroke-width="5" stroke-miterlimit="10"/>
<path d="M331.94 500.917C340.575 500.917 347.576 493.963 347.576 485.386C347.576 476.808 340.575 469.854 331.94 469.854C323.305 469.854 316.304 476.808 316.304 485.386C316.304 493.963 323.305 500.917 331.94 500.917Z" stroke="black" stroke-width="5" stroke-miterlimit="10"/>
<path d="M363.295 500.917C371.931 500.917 378.931 493.963 378.931 485.386C378.931 476.808 371.931 469.854 363.295 469.854C354.66 469.854 347.66 476.808 347.66 485.386C347.66 493.963 354.66 500.917 363.295 500.917Z" stroke="black" stroke-width="5" stroke-miterlimit="10"/>
<path d="M331.94 500.917C340.575 500.917 347.576 493.963 347.576 485.386C347.576 476.808 340.575 469.854 331.94 469.854C323.305 469.854 316.304 476.808 316.304 485.386C316.304 493.963 323.305 500.917 331.94 500.917Z" stroke="black" stroke-width="5" stroke-miterlimit="10"/>
<path d="M300.669 500.917C309.304 500.917 316.304 493.963 316.304 485.386C316.304 476.808 309.304 469.854 300.669 469.854C292.033 469.854 285.033 476.808 285.033 485.386C285.033 493.963 292.033 500.917 300.669 500.917Z" stroke="black" stroke-width="5" stroke-miterlimit="10"/>
<path d="M300.669 500.917C309.304 500.917 316.304 493.963 316.304 485.386C316.304 476.808 309.304 469.854 300.669 469.854C292.033 469.854 285.033 476.808 285.033 485.386C285.033 493.963 292.033 500.917 300.669 500.917Z" stroke="black" stroke-width="5" stroke-miterlimit="10"/>
<path d="M269.313 469.771C277.948 469.771 284.948 462.817 284.948 454.24C284.948 445.662 277.948 438.708 269.313 438.708C260.677 438.708 253.677 445.662 253.677 454.24C253.677 462.817 260.677 469.771 269.313 469.771Z" stroke="black" stroke-width="5" stroke-miterlimit="10"/>
<path d="M529.742 16.8651C529.742 25.3821 522.764 32.3961 514.106 32.3961C505.447 32.3961 498.386 39.3266 498.386 47.9272C498.386 56.5277 491.408 63.5417 482.75 63.5417C474.091 63.5417 467.114 56.5277 467.114 47.9272C467.114 39.3266 474.091 32.3961 482.75 32.3961C491.408 32.3961 498.386 25.3821 498.386 16.8651C498.386 8.34802 505.447 1.25049 514.106 1.25049C522.764 1.25049 529.742 8.26452 529.742 16.8651Z" fill="black"/>
<path d="M561.097 47.9271C561.097 56.5276 554.036 63.5416 545.377 63.5416C536.719 63.5416 529.741 70.4722 529.741 79.0727C529.741 87.6732 522.764 94.6038 514.106 94.6038C505.447 94.6038 498.386 87.6732 498.386 79.0727C498.386 70.4722 505.447 63.5416 514.106 63.5416C522.764 63.5416 529.741 56.5276 529.741 47.9271C529.741 39.3265 536.719 32.396 545.377 32.396C554.036 32.396 561.097 39.3265 561.097 47.9271Z" fill="black"/>
<path d="M561.097 110.219C561.097 118.819 554.036 125.75 545.377 125.75C536.719 125.75 529.741 132.68 529.741 141.281C529.741 149.881 522.764 156.895 514.106 156.895C505.447 156.895 498.386 149.881 498.386 141.281C498.386 132.68 505.447 125.75 514.106 125.75C522.764 125.75 529.741 118.819 529.741 110.219C529.741 101.618 536.719 94.604 545.377 94.604C554.036 94.604 561.097 101.618 561.097 110.219Z" fill="black"/>
<path d="M592.369 141.281C592.369 149.881 585.391 156.895 576.733 156.895C568.074 156.895 561.097 163.826 561.097 172.426C561.097 181.027 554.036 187.957 545.377 187.957C536.719 187.957 529.741 194.971 529.741 203.572C529.741 212.172 522.764 219.103 514.106 219.103C505.447 219.103 498.386 212.172 498.386 203.572C498.386 194.971 505.447 187.957 514.106 187.957C522.764 187.957 529.741 181.027 529.741 172.426C529.741 163.826 536.719 156.895 545.377 156.895C554.036 156.895 561.097 149.881 561.097 141.281C561.097 132.68 568.074 125.75 576.733 125.75C585.391 125.75 592.369 132.68 592.369 141.281Z" fill="black"/>
<path d="M592.369 203.572C592.369 212.172 585.392 219.103 576.733 219.103C568.075 219.103 561.097 226.033 561.097 234.634C561.097 243.234 554.036 250.248 545.377 250.248C536.719 250.248 529.742 243.234 529.742 234.634C529.742 226.033 536.719 219.103 545.377 219.103C554.036 219.103 561.097 212.172 561.097 203.572C561.097 194.971 568.075 187.957 576.733 187.957C585.392 187.957 592.369 194.971 592.369 203.572Z" fill="black"/>
<path d="M592.369 265.78C592.369 274.38 585.392 281.311 576.733 281.311C568.075 281.311 561.097 288.325 561.097 296.925C561.097 305.526 554.036 312.456 545.377 312.456C536.719 312.456 529.742 305.526 529.742 296.925C529.742 288.325 536.719 281.311 545.377 281.311C554.036 281.311 561.097 274.38 561.097 265.78C561.097 257.179 568.075 250.249 576.733 250.249C585.392 250.249 592.369 257.179 592.369 265.78Z" fill="black"/>
<path d="M623.724 359.133C623.724 367.734 616.747 374.664 608.088 374.664C599.43 374.664 592.369 367.734 592.369 359.133C592.369 350.533 599.43 343.602 608.088 343.602C616.747 343.602 623.724 350.533 623.724 359.133Z" fill="black"/>
<path d="M593.209 390.279C593.209 398.879 586.148 405.81 577.489 405.81C568.831 405.81 561.854 412.74 561.854 421.341C561.854 429.941 554.792 436.955 546.218 436.955C537.643 436.955 530.498 429.941 530.498 421.341C530.498 412.74 537.559 405.81 546.218 405.81C554.876 405.81 561.854 398.879 561.854 390.279C561.854 381.678 568.831 374.664 577.489 374.664C586.148 374.664 593.209 381.678 593.209 390.279Z" fill="black"/>
<path d="M624.481 421.341C624.481 429.941 617.503 436.955 608.845 436.955C600.186 436.955 593.209 443.886 593.209 452.486C593.209 461.087 586.148 468.017 577.489 468.017C568.831 468.017 561.854 461.087 561.854 452.486C561.854 443.886 568.831 436.955 577.489 436.955C586.148 436.955 593.209 429.941 593.209 421.341C593.209 412.74 600.186 405.81 608.845 405.81C617.503 405.81 624.481 412.74 624.481 421.341Z" fill="black"/>
<path d="M624.481 483.632C624.481 492.233 617.503 499.163 608.845 499.163C600.186 499.163 593.209 492.233 593.209 483.632C593.209 475.032 600.186 468.018 608.845 468.018C617.503 468.018 624.481 475.032 624.481 483.632Z" fill="black"/>
<path d="M640.117 405.81C648.752 405.81 655.753 398.856 655.753 390.279C655.753 381.701 648.752 374.748 640.117 374.748C631.481 374.748 624.481 381.701 624.481 390.279C624.481 398.856 631.481 405.81 640.117 405.81Z" fill="black"/>
<path d="M640.117 468.101C648.752 468.101 655.753 461.147 655.753 452.57C655.753 443.992 648.752 437.039 640.117 437.039C631.481 437.039 624.481 443.992 624.481 452.57C624.481 461.147 631.481 468.101 640.117 468.101Z" fill="black"/>
<path d="M640.117 499.163C648.752 499.163 655.753 492.21 655.753 483.632C655.753 475.055 648.752 468.101 640.117 468.101C631.481 468.101 624.481 475.055 624.481 483.632C624.481 492.21 631.481 499.163 640.117 499.163Z" fill="black"/>
<path d="M813.203 47.9272C813.203 56.5277 806.226 63.5417 797.567 63.5417C788.909 63.5417 781.931 56.5277 781.931 47.9272C781.931 39.3266 774.87 32.3961 766.211 32.3961C757.553 32.3961 750.576 25.3821 750.576 16.8651C750.576 8.34802 757.637 1.25049 766.211 1.25049C774.786 1.25049 781.931 8.26452 781.931 16.8651C781.931 25.4656 788.909 32.3961 797.567 32.3961C806.226 32.3961 813.203 39.3266 813.203 47.9272Z" fill="black"/>
<path d="M781.932 79.0727C781.932 87.6732 774.87 94.6038 766.212 94.6038C757.553 94.6038 750.576 87.6732 750.576 79.0727C750.576 70.4722 743.599 63.5416 734.94 63.5416C726.281 63.5416 719.22 56.5276 719.22 47.9271C719.22 39.3265 726.281 32.396 734.94 32.396C743.599 32.396 750.576 39.3265 750.576 47.9271C750.576 56.5276 757.637 63.5416 766.212 63.5416C774.786 63.5416 781.932 70.4722 781.932 79.0727Z" fill="black"/>
<path d="M781.932 141.281C781.932 149.881 774.87 156.895 766.212 156.895C757.553 156.895 750.576 149.881 750.576 141.281C750.576 132.68 743.599 125.75 734.94 125.75C726.281 125.75 719.22 118.819 719.22 110.219C719.22 101.618 726.281 94.604 734.94 94.604C743.599 94.604 750.576 101.618 750.576 110.219C750.576 118.819 757.637 125.75 766.212 125.75C774.786 125.75 781.932 132.68 781.932 141.281Z" fill="black"/>
<path d="M781.931 203.572C781.931 212.172 774.87 219.103 766.211 219.103C757.553 219.103 750.576 212.172 750.576 203.572C750.576 194.971 743.598 187.957 734.94 187.957C726.281 187.957 719.22 181.027 719.22 172.426C719.22 163.826 712.243 156.895 703.584 156.895C694.926 156.895 687.948 149.881 687.948 141.281C687.948 132.68 694.926 125.75 703.584 125.75C712.243 125.75 719.22 132.68 719.22 141.281C719.22 149.881 726.281 156.895 734.94 156.895C743.598 156.895 750.576 163.826 750.576 172.426C750.576 181.027 757.637 187.957 766.211 187.957C774.786 187.957 781.931 194.971 781.931 203.572Z" fill="black"/>
<path d="M750.576 234.634C750.576 243.234 743.598 250.248 734.94 250.248C726.281 250.248 719.22 243.234 719.22 234.634C719.22 226.033 712.243 219.103 703.584 219.103C694.926 219.103 687.948 212.172 687.948 203.572C687.948 194.971 694.926 187.957 703.584 187.957C712.243 187.957 719.22 194.971 719.22 203.572C719.22 212.172 726.281 219.103 734.94 219.103C743.598 219.103 750.576 226.033 750.576 234.634Z" fill="black"/>
<path d="M750.576 296.925C750.576 305.526 743.598 312.456 734.94 312.456C726.281 312.456 719.22 305.526 719.22 296.925C719.22 288.325 712.243 281.311 703.584 281.311C694.926 281.311 687.948 274.38 687.948 265.78C687.948 257.179 694.926 250.249 703.584 250.249C712.243 250.249 719.22 257.179 719.22 265.78C719.22 274.38 726.281 281.311 734.94 281.311C743.598 281.311 750.576 288.325 750.576 296.925Z" fill="black"/>
<path d="M749.819 421.341C749.819 429.941 742.842 436.955 734.183 436.955C725.525 436.955 718.463 429.941 718.463 421.341C718.463 412.74 711.486 405.81 702.828 405.81C694.169 405.81 687.192 398.879 687.192 390.279C687.192 381.678 694.169 374.664 702.828 374.664C711.486 374.664 718.463 381.678 718.463 390.279C718.463 398.879 725.525 405.81 734.183 405.81C742.842 405.81 749.819 412.74 749.819 421.341Z" fill="black"/>
<path d="M687.949 359.133C687.949 367.734 680.887 374.664 672.229 374.664C663.57 374.664 656.593 367.734 656.593 359.133C656.593 350.533 663.57 343.602 672.229 343.602C680.887 343.602 687.949 350.533 687.949 359.133Z" fill="black"/>
<path d="M718.463 452.486C718.463 461.087 711.486 468.017 702.828 468.017C694.169 468.017 687.192 461.087 687.192 452.486C687.192 443.886 680.131 436.955 671.472 436.955C662.814 436.955 655.836 429.941 655.836 421.341C655.836 412.74 662.814 405.81 671.472 405.81C680.131 405.81 687.192 412.74 687.192 421.341C687.192 429.941 694.169 436.955 702.828 436.955C711.486 436.955 718.463 443.886 718.463 452.486Z" fill="black"/>
<path d="M671.472 499.163C680.107 499.163 687.108 492.21 687.108 483.632C687.108 475.055 680.107 468.101 671.472 468.101C662.837 468.101 655.836 475.055 655.836 483.632C655.836 492.21 662.837 499.163 671.472 499.163Z" fill="black"/>
<path d="M592.369 327.987C592.369 336.588 585.392 343.602 576.733 343.602C568.075 343.602 561.097 350.532 561.097 359.133C561.097 367.733 554.036 374.664 545.377 374.664C536.719 374.664 529.742 367.733 529.742 359.133C529.742 350.532 536.719 343.602 545.377 343.602C554.036 343.602 561.097 336.588 561.097 327.987C561.097 319.387 568.075 312.456 576.733 312.456C585.392 312.456 592.369 319.387 592.369 327.987Z" fill="black"/>
<path d="M750.576 359.133C750.576 367.733 743.598 374.664 734.94 374.664C726.281 374.664 719.22 367.733 719.22 359.133C719.22 350.532 712.243 343.602 703.584 343.602C694.926 343.602 687.948 336.588 687.948 327.987C687.948 319.387 694.926 312.456 703.584 312.456C712.243 312.456 719.22 319.387 719.22 327.987C719.22 336.588 726.281 343.602 734.94 343.602C743.598 343.602 750.576 350.532 750.576 359.133Z" fill="black"/>
<path d="M460.809 16.5311C460.809 25.1316 453.832 32.0621 445.174 32.0621C436.515 32.0621 429.538 39.0762 429.538 47.6767C429.538 56.2772 422.477 63.2077 413.818 63.2077C405.16 63.2077 398.182 56.2772 398.182 47.6767C398.182 39.0762 405.16 32.0621 413.818 32.0621C422.477 32.0621 429.538 25.1316 429.538 16.5311C429.538 7.93053 436.515 1 445.174 1C453.832 1 460.809 7.93053 460.809 16.5311Z" fill="black"/>
<path d="M492.165 47.6766C492.165 56.2771 485.104 63.2076 476.529 63.2076C467.955 63.2076 460.809 70.2217 460.809 78.7387C460.809 87.2557 453.832 94.3533 445.174 94.3533C436.515 94.3533 429.538 101.284 429.538 109.884C429.538 118.485 422.477 125.415 413.818 125.415C405.16 125.415 398.182 118.485 398.182 109.884C398.182 101.284 405.16 94.3533 413.818 94.3533C422.477 94.3533 429.538 87.3392 429.538 78.7387C429.538 70.1382 436.515 63.2076 445.174 63.2076C453.832 63.2076 460.809 56.2771 460.809 47.6766C460.809 39.076 467.871 32.062 476.529 32.062C485.188 32.062 492.165 39.076 492.165 47.6766Z" fill="black"/>
<path d="M492.165 109.885C492.165 118.485 485.104 125.416 476.529 125.416C467.955 125.416 460.809 132.43 460.809 141.03C460.809 149.631 453.832 156.561 445.174 156.561C436.515 156.561 429.538 163.575 429.538 172.176C429.538 180.776 422.477 187.707 413.818 187.707C405.16 187.707 398.182 180.693 398.182 172.176C398.182 163.659 405.16 156.561 413.818 156.561C422.477 156.561 429.538 149.631 429.538 141.03C429.538 132.43 436.515 125.416 445.174 125.416C453.832 125.416 460.809 118.485 460.809 109.885C460.809 101.284 467.871 94.3535 476.529 94.3535C485.188 94.3535 492.165 101.284 492.165 109.885Z" fill="black"/>
<path d="M492.165 172.176C492.165 180.693 485.104 187.707 476.529 187.707C467.955 187.707 460.809 194.637 460.809 203.238C460.809 211.838 453.832 218.852 445.174 218.852C436.515 218.852 429.538 225.783 429.538 234.383C429.538 242.984 422.477 249.914 413.818 249.914C405.16 249.914 398.182 242.984 398.182 234.383C398.182 225.783 405.16 218.852 413.818 218.852C422.477 218.852 429.538 211.838 429.538 203.238C429.538 194.637 436.515 187.707 445.174 187.707C453.832 187.707 460.809 180.693 460.809 172.176C460.809 163.659 467.871 156.561 476.529 156.561C485.188 156.561 492.165 163.575 492.165 172.176Z" fill="black"/>
<path d="M492.165 234.384C492.165 242.984 485.104 249.915 476.529 249.915C467.955 249.915 460.809 256.929 460.809 265.529C460.809 274.13 453.832 281.06 445.174 281.06C436.515 281.06 429.538 287.991 429.538 296.591C429.538 305.192 422.477 312.206 413.818 312.206C405.16 312.206 398.182 305.192 398.182 296.591C398.182 287.991 405.16 281.06 413.818 281.06C422.477 281.06 429.538 274.046 429.538 265.529C429.538 257.012 436.515 249.915 445.174 249.915C453.832 249.915 460.809 242.984 460.809 234.384C460.809 225.783 467.871 218.853 476.529 218.853C485.188 218.853 492.165 225.783 492.165 234.384Z" fill="black"/>
<path d="M492.165 296.591C492.165 305.192 485.104 312.206 476.529 312.206C467.955 312.206 460.809 319.136 460.809 327.737C460.809 336.337 453.832 343.268 445.174 343.268C436.515 343.268 429.538 350.282 429.538 358.882C429.538 367.483 422.477 374.413 413.818 374.413C405.16 374.413 398.182 367.483 398.182 358.882C398.182 350.282 405.16 343.268 413.818 343.268C422.477 343.268 429.538 336.337 429.538 327.737C429.538 319.136 436.515 312.206 445.174 312.206C453.832 312.206 460.809 305.192 460.809 296.591C460.809 287.991 467.871 281.06 476.529 281.06C485.188 281.06 492.165 287.991 492.165 296.591Z" fill="black"/>
<path d="M492.165 358.883C492.165 367.483 485.104 374.414 476.529 374.414C467.955 374.414 460.809 381.344 460.809 389.945C460.809 398.545 453.832 405.559 445.174 405.559C436.515 405.559 429.538 412.49 429.538 421.09C429.538 429.691 422.477 436.621 413.818 436.621C405.16 436.621 398.182 429.691 398.182 421.09C398.182 412.49 405.16 405.559 413.818 405.559C422.477 405.559 429.538 398.545 429.538 389.945C429.538 381.344 436.515 374.414 445.174 374.414C453.832 374.414 460.809 367.483 460.809 358.883C460.809 350.282 467.871 343.268 476.529 343.268C485.188 343.268 492.165 350.282 492.165 358.883Z" fill="black"/>
<path d="M492.165 421.09C492.165 429.691 485.104 436.621 476.529 436.621C467.955 436.621 460.809 443.635 460.809 452.236C460.809 460.836 453.832 467.767 445.174 467.767C436.515 467.767 429.538 474.697 429.538 483.298C429.538 491.898 422.477 498.912 413.818 498.912C405.16 498.912 398.182 491.898 398.182 483.298C398.182 474.697 405.16 467.767 413.818 467.767C422.477 467.767 429.538 460.836 429.538 452.236C429.538 443.635 436.515 436.621 445.174 436.621C453.832 436.621 460.809 429.691 460.809 421.09C460.809 412.49 467.871 405.559 476.529 405.559C485.188 405.559 492.165 412.49 492.165 421.09Z" fill="black"/>
<path d="M476.529 498.829C485.165 498.829 492.165 491.876 492.165 483.298C492.165 474.721 485.165 467.767 476.529 467.767C467.894 467.767 460.894 474.721 460.894 483.298C460.894 491.876 467.894 498.829 476.529 498.829Z" fill="black"/>
<path d="M844.559 16.5311C844.559 25.1316 837.582 32.0621 828.923 32.0621C820.265 32.0621 813.287 39.0762 813.287 47.6767C813.287 56.2772 806.226 63.2077 797.567 63.2077C788.909 63.2077 781.932 56.2772 781.932 47.6767C781.932 39.0762 788.909 32.0621 797.567 32.0621C806.226 32.0621 813.287 25.1316 813.287 16.5311C813.287 7.93053 820.265 1 828.923 1C837.582 1 844.559 7.93053 844.559 16.5311Z" fill="black"/>
<path d="M875.914 47.6766C875.914 56.2771 868.853 63.2076 860.278 63.2076C851.704 63.2076 844.559 70.2217 844.559 78.7387C844.559 87.2557 837.582 94.3533 828.923 94.3533C820.264 94.3533 813.287 101.284 813.287 109.884C813.287 118.485 806.226 125.415 797.567 125.415C788.909 125.415 781.932 118.485 781.932 109.884C781.932 101.284 788.909 94.3533 797.567 94.3533C806.226 94.3533 813.287 87.3392 813.287 78.7387C813.287 70.1382 820.264 63.2076 828.923 63.2076C837.582 63.2076 844.559 56.2771 844.559 47.6766C844.559 39.076 851.62 32.062 860.278 32.062C868.937 32.062 875.914 39.076 875.914 47.6766Z" fill="black"/>
<path d="M875.914 109.885C875.914 118.485 868.853 125.416 860.278 125.416C851.704 125.416 844.559 132.43 844.559 141.03C844.559 149.631 837.582 156.561 828.923 156.561C820.264 156.561 813.287 163.575 813.287 172.176C813.287 180.776 806.226 187.707 797.567 187.707C788.909 187.707 781.932 180.693 781.932 172.176C781.932 163.659 788.909 156.561 797.567 156.561C806.226 156.561 813.287 149.631 813.287 141.03C813.287 132.43 820.264 125.416 828.923 125.416C837.582 125.416 844.559 118.485 844.559 109.885C844.559 101.284 851.62 94.3535 860.278 94.3535C868.937 94.3535 875.914 101.284 875.914 109.885Z" fill="black"/>
<path d="M875.914 172.176C875.914 180.693 868.853 187.707 860.278 187.707C851.704 187.707 844.559 194.637 844.559 203.238C844.559 211.838 837.582 218.852 828.923 218.852C820.264 218.852 813.287 225.783 813.287 234.383C813.287 242.984 806.226 249.914 797.567 249.914C788.909 249.914 781.932 242.984 781.932 234.383C781.932 225.783 788.909 218.852 797.567 218.852C806.226 218.852 813.287 211.838 813.287 203.238C813.287 194.637 820.264 187.707 828.923 187.707C837.582 187.707 844.559 180.693 844.559 172.176C844.559 163.659 851.62 156.561 860.278 156.561C868.937 156.561 875.914 163.575 875.914 172.176Z" fill="black"/>
<path d="M875.914 234.384C875.914 242.984 868.853 249.915 860.278 249.915C851.704 249.915 844.559 256.929 844.559 265.529C844.559 274.13 837.582 281.06 828.923 281.06C820.264 281.06 813.287 287.991 813.287 296.591C813.287 305.192 806.226 312.206 797.567 312.206C788.909 312.206 781.932 305.192 781.932 296.591C781.932 287.991 788.909 281.06 797.567 281.06C806.226 281.06 813.287 274.046 813.287 265.529C813.287 257.012 820.264 249.915 828.923 249.915C837.582 249.915 844.559 242.984 844.559 234.384C844.559 225.783 851.62 218.853 860.278 218.853C868.937 218.853 875.914 225.783 875.914 234.384Z" fill="black"/>
<path d="M875.914 296.591C875.914 305.192 868.853 312.206 860.278 312.206C851.704 312.206 844.559 319.136 844.559 327.737C844.559 336.337 837.582 343.268 828.923 343.268C820.264 343.268 813.287 350.282 813.287 358.882C813.287 367.483 806.226 374.413 797.567 374.413C788.909 374.413 781.932 367.483 781.932 358.882C781.932 350.282 788.909 343.268 797.567 343.268C806.226 343.268 813.287 336.337 813.287 327.737C813.287 319.136 820.264 312.206 828.923 312.206C837.582 312.206 844.559 305.192 844.559 296.591C844.559 287.991 851.62 281.06 860.278 281.06C868.937 281.06 875.914 287.991 875.914 296.591Z" fill="black"/>
<path d="M875.914 358.883C875.914 367.483 868.853 374.414 860.278 374.414C851.704 374.414 844.559 381.344 844.559 389.945C844.559 398.545 837.582 405.559 828.923 405.559C820.264 405.559 813.287 412.49 813.287 421.09C813.287 429.691 806.226 436.621 797.567 436.621C788.909 436.621 781.932 429.691 781.932 421.09C781.932 412.49 788.909 405.559 797.567 405.559C806.226 405.559 813.287 398.545 813.287 389.945C813.287 381.344 820.264 374.414 828.923 374.414C837.582 374.414 844.559 367.483 844.559 358.883C844.559 350.282 851.62 343.268 860.278 343.268C868.937 343.268 875.914 350.282 875.914 358.883Z" fill="black"/>
<path d="M875.914 421.09C875.914 429.691 868.853 436.621 860.278 436.621C851.704 436.621 844.559 443.635 844.559 452.236C844.559 460.836 837.582 467.767 828.923 467.767C820.264 467.767 813.287 474.697 813.287 483.298C813.287 491.898 806.226 498.912 797.567 498.912C788.909 498.912 781.932 491.898 781.932 483.298C781.932 474.697 788.909 467.767 797.567 467.767C806.226 467.767 813.287 460.836 813.287 452.236C813.287 443.635 820.264 436.621 828.923 436.621C837.582 436.621 844.559 429.691 844.559 421.09C844.559 412.49 851.62 405.559 860.278 405.559C868.937 405.559 875.914 412.49 875.914 421.09Z" fill="black"/>
<path d="M860.195 498.829C868.83 498.829 875.83 491.876 875.83 483.298C875.83 474.721 868.83 467.767 860.195 467.767C851.559 467.767 844.559 474.721 844.559 483.298C844.559 491.876 851.559 498.829 860.195 498.829Z" fill="black"/>
<path d="M955.752 16.5311C955.752 25.1316 948.775 32.0621 940.116 32.0621C931.458 32.0621 924.48 39.0762 924.48 47.6767C924.48 56.2772 917.419 63.2077 908.761 63.2077C900.102 63.2077 893.125 56.2772 893.125 47.6767C893.125 39.0762 900.102 32.0621 908.761 32.0621C917.419 32.0621 924.48 25.1316 924.48 16.5311C924.48 7.93053 931.458 1 940.116 1C948.775 1 955.752 7.93053 955.752 16.5311Z" fill="black"/>
<path d="M987.108 47.6766C987.108 56.2771 980.046 63.2076 971.472 63.2076C962.897 63.2076 955.752 70.2217 955.752 78.7387C955.752 87.2557 948.775 94.3533 940.116 94.3533C931.458 94.3533 924.48 101.284 924.48 109.884C924.48 118.485 917.419 125.415 908.761 125.415C900.102 125.415 893.125 118.485 893.125 109.884C893.125 101.284 900.102 94.3533 908.761 94.3533C917.419 94.3533 924.48 87.3392 924.48 78.7387C924.48 70.1382 931.458 63.2076 940.116 63.2076C948.775 63.2076 955.752 56.2771 955.752 47.6766C955.752 39.076 962.813 32.062 971.472 32.062C980.13 32.062 987.108 39.076 987.108 47.6766Z" fill="black"/>
<path d="M987.108 109.885C987.108 118.485 980.046 125.416 971.472 125.416C962.897 125.416 955.752 132.43 955.752 141.03C955.752 149.631 948.775 156.561 940.116 156.561C931.458 156.561 924.48 163.575 924.48 172.176C924.48 180.776 917.419 187.707 908.761 187.707C900.102 187.707 893.125 180.693 893.125 172.176C893.125 163.659 900.102 156.561 908.761 156.561C917.419 156.561 924.48 149.631 924.48 141.03C924.48 132.43 931.458 125.416 940.116 125.416C948.775 125.416 955.752 118.485 955.752 109.885C955.752 101.284 962.813 94.3535 971.472 94.3535C980.13 94.3535 987.108 101.284 987.108 109.885Z" fill="black"/>
<path d="M987.108 172.176C987.108 180.693 980.046 187.707 971.472 187.707C962.897 187.707 955.752 194.637 955.752 203.238C955.752 211.838 948.775 218.852 940.116 218.852C931.458 218.852 924.48 225.783 924.48 234.383C924.48 242.984 917.419 249.914 908.761 249.914C900.102 249.914 893.125 242.984 893.125 234.383C893.125 225.783 900.102 218.852 908.761 218.852C917.419 218.852 924.48 211.838 924.48 203.238C924.48 194.637 931.458 187.707 940.116 187.707C948.775 187.707 955.752 180.693 955.752 172.176C955.752 163.659 962.813 156.561 971.472 156.561C980.13 156.561 987.108 163.575 987.108 172.176Z" fill="black"/>
<path d="M987.108 234.384C987.108 242.984 980.046 249.915 971.472 249.915C962.897 249.915 955.752 256.929 955.752 265.529C955.752 274.13 948.775 281.06 940.116 281.06C931.458 281.06 924.48 287.991 924.48 296.591C924.48 305.192 917.419 312.206 908.761 312.206C900.102 312.206 893.125 305.192 893.125 296.591C893.125 287.991 900.102 281.06 908.761 281.06C917.419 281.06 924.48 274.046 924.48 265.529C924.48 257.012 931.458 249.915 940.116 249.915C948.775 249.915 955.752 242.984 955.752 234.384C955.752 225.783 962.813 218.853 971.472 218.853C980.13 218.853 987.108 225.783 987.108 234.384Z" fill="black"/>
<path d="M987.108 296.591C987.108 305.192 980.046 312.206 971.472 312.206C962.897 312.206 955.752 319.136 955.752 327.737C955.752 336.337 948.775 343.268 940.116 343.268C931.458 343.268 924.48 350.282 924.48 358.882C924.48 367.483 917.419 374.413 908.761 374.413C900.102 374.413 893.125 367.483 893.125 358.882C893.125 350.282 900.102 343.268 908.761 343.268C917.419 343.268 924.48 336.337 924.48 327.737C924.48 319.136 931.458 312.206 940.116 312.206C948.775 312.206 955.752 305.192 955.752 296.591C955.752 287.991 962.813 281.06 971.472 281.06C980.13 281.06 987.108 287.991 987.108 296.591Z" fill="black"/>
<path d="M987.108 358.883C987.108 367.483 980.046 374.414 971.472 374.414C962.897 374.414 955.752 381.344 955.752 389.945C955.752 398.545 948.775 405.559 940.116 405.559C931.458 405.559 924.48 412.49 924.48 421.09C924.48 429.691 917.419 436.621 908.761 436.621C900.102 436.621 893.125 429.691 893.125 421.09C893.125 412.49 900.102 405.559 908.761 405.559C917.419 405.559 924.48 398.545 924.48 389.945C924.48 381.344 931.458 374.414 940.116 374.414C948.775 374.414 955.752 367.483 955.752 358.883C955.752 350.282 962.813 343.268 971.472 343.268C980.13 343.268 987.108 350.282 987.108 358.883Z" fill="black"/>
<path d="M987.108 421.09C987.108 429.691 980.046 436.621 971.472 436.621C962.897 436.621 955.752 443.635 955.752 452.236C955.752 460.836 948.775 467.767 940.116 467.767C931.458 467.767 924.48 474.697 924.48 483.298C924.48 491.898 917.419 498.912 908.761 498.912C900.102 498.912 893.125 491.898 893.125 483.298C893.125 474.697 900.102 467.767 908.761 467.767C917.419 467.767 924.48 460.836 924.48 452.236C924.48 443.635 931.458 436.621 940.116 436.621C948.775 436.621 955.752 429.691 955.752 421.09C955.752 412.49 962.813 405.559 971.472 405.559C980.13 405.559 987.108 412.49 987.108 421.09Z" fill="black"/>
<path d="M971.388 498.829C980.023 498.829 987.024 491.875 987.024 483.298C987.024 474.72 980.023 467.767 971.388 467.767C962.752 467.767 955.752 474.72 955.752 483.298C955.752 491.875 962.752 498.829 971.388 498.829Z" fill="black"/>
</svg>
