<svg width="1062" height="500" viewBox="0 0 1062 500" fill="none" xmlns="http://www.w3.org/2000/svg">
<path d="M15.5311 33.15C24.1086 33.15 31.0621 26.1965 31.0621 17.619C31.0621 9.04139 24.1086 2.08789 15.5311 2.08789C6.9535 2.08789 0 9.04139 0 17.619C0 26.1965 6.9535 33.15 15.5311 33.15Z" fill="black"/>
<path d="M46.6766 33.15C55.2541 33.15 62.2076 26.1965 62.2076 17.619C62.2076 9.04139 55.2541 2.08789 46.6766 2.08789C38.099 2.08789 31.1455 9.04139 31.1455 17.619C31.1455 26.1965 38.099 33.15 46.6766 33.15Z" fill="black"/>
<path d="M77.8221 33.15C86.3996 33.15 93.3531 26.1965 93.3531 17.619C93.3531 9.04139 86.3996 2.08789 77.8221 2.08789C69.2445 2.08789 62.291 9.04139 62.291 17.619C62.291 26.1965 69.2445 33.15 77.8221 33.15Z" fill="black"/>
<path d="M15.5311 64.2955C24.1086 64.2955 31.0621 57.342 31.0621 48.7645C31.0621 40.1869 24.1086 33.2334 15.5311 33.2334C6.9535 33.2334 0 40.1869 0 48.7645C0 57.342 6.9535 64.2955 15.5311 64.2955Z" fill="black"/>
<path d="M46.6766 64.2955C55.2541 64.2955 62.2076 57.342 62.2076 48.7645C62.2076 40.1869 55.2541 33.2334 46.6766 33.2334C38.099 33.2334 31.1455 40.1869 31.1455 48.7645C31.1455 57.342 38.099 64.2955 46.6766 64.2955Z" fill="black"/>
<path d="M77.8221 64.2955C86.3996 64.2955 93.3531 57.342 93.3531 48.7645C93.3531 40.1869 86.3996 33.2334 77.8221 33.2334C69.2445 33.2334 62.291 40.1869 62.291 48.7645C62.291 57.342 69.2445 64.2955 77.8221 64.2955Z" fill="black"/>
<path d="M15.5311 95.441C24.1086 95.441 31.0621 88.4875 31.0621 79.91C31.0621 71.3324 24.1086 64.3789 15.5311 64.3789C6.9535 64.3789 0 71.3324 0 79.91C0 88.4875 6.9535 95.441 15.5311 95.441Z" fill="black"/>
<path d="M46.6766 95.441C55.2541 95.441 62.2076 88.4875 62.2076 79.91C62.2076 71.3324 55.2541 64.3789 46.6766 64.3789C38.099 64.3789 31.1455 71.3324 31.1455 79.91C31.1455 88.4875 38.099 95.441 46.6766 95.441Z" fill="black"/>
<path d="M77.8221 95.441C86.3996 95.441 93.3531 88.4875 93.3531 79.91C93.3531 71.3324 86.3996 64.3789 77.8221 64.3789C69.2445 64.3789 62.291 71.3324 62.291 79.91C62.291 88.4875 69.2445 95.441 77.8221 95.441Z" fill="black"/>
<path d="M15.5311 126.504C24.1086 126.504 31.0621 119.55 31.0621 110.972C31.0621 102.395 24.1086 95.4414 15.5311 95.4414C6.9535 95.4414 0 102.395 0 110.972C0 119.55 6.9535 126.504 15.5311 126.504Z" fill="black"/>
<path d="M46.6766 126.504C55.2541 126.504 62.2076 119.55 62.2076 110.972C62.2076 102.395 55.2541 95.4414 46.6766 95.4414C38.099 95.4414 31.1455 102.395 31.1455 110.972C31.1455 119.55 38.099 126.504 46.6766 126.504Z" fill="black"/>
<path d="M77.8221 126.504C86.3996 126.504 93.3531 119.55 93.3531 110.972C93.3531 102.395 86.3996 95.4414 77.8221 95.4414C69.2445 95.4414 62.291 102.395 62.291 110.972C62.291 119.55 69.2445 126.504 77.8221 126.504Z" fill="black"/>
<path d="M15.5311 157.649C24.1086 157.649 31.0621 150.696 31.0621 142.118C31.0621 133.54 24.1086 126.587 15.5311 126.587C6.9535 126.587 0 133.54 0 142.118C0 150.696 6.9535 157.649 15.5311 157.649Z" fill="black"/>
<path d="M46.6766 157.649C55.2541 157.649 62.2076 150.696 62.2076 142.118C62.2076 133.54 55.2541 126.587 46.6766 126.587C38.099 126.587 31.1455 133.54 31.1455 142.118C31.1455 150.696 38.099 157.649 46.6766 157.649Z" fill="black"/>
<path d="M77.8221 157.649C86.3996 157.649 93.3531 150.696 93.3531 142.118C93.3531 133.54 86.3996 126.587 77.8221 126.587C69.2445 126.587 62.291 133.54 62.291 142.118C62.291 150.696 69.2445 157.649 77.8221 157.649Z" fill="black"/>
<path d="M15.5311 188.795C24.1086 188.795 31.0621 181.841 31.0621 173.263C31.0621 164.686 24.1086 157.732 15.5311 157.732C6.9535 157.732 0 164.686 0 173.263C0 181.841 6.9535 188.795 15.5311 188.795Z" fill="black"/>
<path d="M46.6766 188.795C55.2541 188.795 62.2076 181.841 62.2076 173.263C62.2076 164.686 55.2541 157.732 46.6766 157.732C38.099 157.732 31.1455 164.686 31.1455 173.263C31.1455 181.841 38.099 188.795 46.6766 188.795Z" fill="black"/>
<path d="M77.8221 188.795C86.3996 188.795 93.3531 181.841 93.3531 173.263C93.3531 164.686 86.3996 157.732 77.8221 157.732C69.2445 157.732 62.291 164.686 62.291 173.263C62.291 181.841 69.2445 188.795 77.8221 188.795Z" fill="black"/>
<path d="M15.5311 219.94C24.1086 219.94 31.0621 212.987 31.0621 204.409C31.0621 195.831 24.1086 188.878 15.5311 188.878C6.9535 188.878 0 195.831 0 204.409C0 212.987 6.9535 219.94 15.5311 219.94Z" fill="black"/>
<path d="M46.6766 219.94C55.2541 219.94 62.2076 212.987 62.2076 204.409C62.2076 195.831 55.2541 188.878 46.6766 188.878C38.099 188.878 31.1455 195.831 31.1455 204.409C31.1455 212.987 38.099 219.94 46.6766 219.94Z" fill="black"/>
<path d="M77.8221 219.94C86.3996 219.94 93.3531 212.987 93.3531 204.409C93.3531 195.831 86.3996 188.878 77.8221 188.878C69.2445 188.878 62.291 195.831 62.291 204.409C62.291 212.987 69.2445 219.94 77.8221 219.94Z" fill="black"/>
<path d="M15.5311 251.003C24.1086 251.003 31.0621 244.049 31.0621 235.471C31.0621 226.894 24.1086 219.94 15.5311 219.94C6.9535 219.94 0 226.894 0 235.471C0 244.049 6.9535 251.003 15.5311 251.003Z" fill="black"/>
<path d="M46.6766 251.003C55.2541 251.003 62.2076 244.049 62.2076 235.471C62.2076 226.894 55.2541 219.94 46.6766 219.94C38.099 219.94 31.1455 226.894 31.1455 235.471C31.1455 244.049 38.099 251.003 46.6766 251.003Z" fill="black"/>
<path d="M77.8221 251.003C86.3996 251.003 93.3531 244.049 93.3531 235.471C93.3531 226.894 86.3996 219.94 77.8221 219.94C69.2445 219.94 62.291 226.894 62.291 235.471C62.291 244.049 69.2445 251.003 77.8221 251.003Z" fill="black"/>
<path d="M15.5311 282.148C24.1086 282.148 31.0621 275.195 31.0621 266.617C31.0621 258.039 24.1086 251.086 15.5311 251.086C6.9535 251.086 0 258.039 0 266.617C0 275.195 6.9535 282.148 15.5311 282.148Z" fill="black"/>
<path d="M46.6766 282.148C55.2541 282.148 62.2076 275.195 62.2076 266.617C62.2076 258.039 55.2541 251.086 46.6766 251.086C38.099 251.086 31.1455 258.039 31.1455 266.617C31.1455 275.195 38.099 282.148 46.6766 282.148Z" fill="black"/>
<path d="M77.8221 282.148C86.3996 282.148 93.3531 275.195 93.3531 266.617C93.3531 258.039 86.3996 251.086 77.8221 251.086C69.2445 251.086 62.291 258.039 62.291 266.617C62.291 275.195 69.2445 282.148 77.8221 282.148Z" fill="black"/>
<path d="M15.5311 313.294C24.1086 313.294 31.0621 306.34 31.0621 297.763C31.0621 289.185 24.1086 282.231 15.5311 282.231C6.9535 282.231 0 289.185 0 297.763C0 306.34 6.9535 313.294 15.5311 313.294Z" fill="black"/>
<path d="M46.6766 313.294C55.2541 313.294 62.2076 306.34 62.2076 297.763C62.2076 289.185 55.2541 282.231 46.6766 282.231C38.099 282.231 31.1455 289.185 31.1455 297.763C31.1455 306.34 38.099 313.294 46.6766 313.294Z" fill="black"/>
<path d="M77.8221 313.294C86.3996 313.294 93.3531 306.34 93.3531 297.763C93.3531 289.185 86.3996 282.231 77.8221 282.231C69.2445 282.231 62.291 289.185 62.291 297.763C62.291 306.34 69.2445 313.294 77.8221 313.294Z" fill="black"/>
<path d="M15.5311 344.356C24.1086 344.356 31.0621 337.403 31.0621 328.825C31.0621 320.247 24.1086 313.294 15.5311 313.294C6.9535 313.294 0 320.247 0 328.825C0 337.403 6.9535 344.356 15.5311 344.356Z" fill="black"/>
<path d="M46.6766 344.356C55.2541 344.356 62.2076 337.403 62.2076 328.825C62.2076 320.247 55.2541 313.294 46.6766 313.294C38.099 313.294 31.1455 320.247 31.1455 328.825C31.1455 337.403 38.099 344.356 46.6766 344.356Z" fill="black"/>
<path d="M77.8221 344.356C86.3996 344.356 93.3531 337.403 93.3531 328.825C93.3531 320.247 86.3996 313.294 77.8221 313.294C69.2445 313.294 62.291 320.247 62.291 328.825C62.291 337.403 69.2445 344.356 77.8221 344.356Z" fill="black"/>
<path d="M15.5311 375.502C24.1086 375.502 31.0621 368.548 31.0621 359.971C31.0621 351.393 24.1086 344.439 15.5311 344.439C6.9535 344.439 0 351.393 0 359.971C0 368.548 6.9535 375.502 15.5311 375.502Z" fill="black"/>
<path d="M46.6766 375.502C55.2541 375.502 62.2076 368.548 62.2076 359.971C62.2076 351.393 55.2541 344.439 46.6766 344.439C38.099 344.439 31.1455 351.393 31.1455 359.971C31.1455 368.548 38.099 375.502 46.6766 375.502Z" fill="black"/>
<path d="M77.8221 375.502C86.3996 375.502 93.3531 368.548 93.3531 359.971C93.3531 351.393 86.3996 344.439 77.8221 344.439C69.2445 344.439 62.291 351.393 62.291 359.971C62.291 368.548 69.2445 375.502 77.8221 375.502Z" fill="black"/>
<path d="M15.5311 406.647C24.1086 406.647 31.0621 399.694 31.0621 391.116C31.0621 382.538 24.1086 375.585 15.5311 375.585C6.9535 375.585 0 382.538 0 391.116C0 399.694 6.9535 406.647 15.5311 406.647Z" fill="black"/>
<path d="M46.6766 406.647C55.2541 406.647 62.2076 399.694 62.2076 391.116C62.2076 382.538 55.2541 375.585 46.6766 375.585C38.099 375.585 31.1455 382.538 31.1455 391.116C31.1455 399.694 38.099 406.647 46.6766 406.647Z" fill="black"/>
<path d="M77.8221 406.647C86.3996 406.647 93.3531 399.694 93.3531 391.116C93.3531 382.538 86.3996 375.585 77.8221 375.585C69.2445 375.585 62.291 382.538 62.291 391.116C62.291 399.694 69.2445 406.647 77.8221 406.647Z" fill="black"/>
<path d="M15.5311 437.71C24.1086 437.71 31.0621 430.756 31.0621 422.179C31.0621 413.601 24.1086 406.647 15.5311 406.647C6.9535 406.647 0 413.601 0 422.179C0 430.756 6.9535 437.71 15.5311 437.71Z" fill="black"/>
<path d="M46.6766 437.71C55.2541 437.71 62.2076 430.756 62.2076 422.179C62.2076 413.601 55.2541 406.647 46.6766 406.647C38.099 406.647 31.1455 413.601 31.1455 422.179C31.1455 430.756 38.099 437.71 46.6766 437.71Z" fill="black"/>
<path d="M77.8221 437.71C86.3996 437.71 93.3531 430.756 93.3531 422.179C93.3531 413.601 86.3996 406.647 77.8221 406.647C69.2445 406.647 62.291 413.601 62.291 422.179C62.291 430.756 69.2445 437.71 77.8221 437.71Z" fill="black"/>
<path d="M15.5311 468.855C24.1086 468.855 31.0621 461.902 31.0621 453.324C31.0621 444.746 24.1086 437.793 15.5311 437.793C6.9535 437.793 0 444.746 0 453.324C0 461.902 6.9535 468.855 15.5311 468.855Z" fill="black"/>
<path d="M46.6766 468.855C55.2541 468.855 62.2076 461.902 62.2076 453.324C62.2076 444.746 55.2541 437.793 46.6766 437.793C38.099 437.793 31.1455 444.746 31.1455 453.324C31.1455 461.902 38.099 468.855 46.6766 468.855Z" fill="black"/>
<path d="M77.8221 468.855C86.3996 468.855 93.3531 461.902 93.3531 453.324C93.3531 444.746 86.3996 437.793 77.8221 437.793C69.2445 437.793 62.291 444.746 62.291 453.324C62.291 461.902 69.2445 468.855 77.8221 468.855Z" fill="black"/>
<path d="M15.5311 500.001C24.1086 500.001 31.0621 493.047 31.0621 484.47C31.0621 475.892 24.1086 468.938 15.5311 468.938C6.9535 468.938 0 475.892 0 484.47C0 493.047 6.9535 500.001 15.5311 500.001Z" fill="black"/>
<path d="M46.6766 500.001C55.2541 500.001 62.2076 493.047 62.2076 484.47C62.2076 475.892 55.2541 468.938 46.6766 468.938C38.099 468.938 31.1455 475.892 31.1455 484.47C31.1455 493.047 38.099 500.001 46.6766 500.001Z" fill="black"/>
<path d="M77.8221 500.001C86.3996 500.001 93.3531 493.047 93.3531 484.47C93.3531 475.892 86.3996 468.938 77.8221 468.938C69.2445 468.938 62.291 475.892 62.291 484.47C62.291 493.047 69.2445 500.001 77.8221 500.001Z" fill="black"/>
<path d="M108.885 33.15C117.462 33.15 124.416 26.1965 124.416 17.619C124.416 9.04139 117.462 2.08789 108.885 2.08789C100.307 2.08789 93.3535 9.04139 93.3535 17.619C93.3535 26.1965 100.307 33.15 108.885 33.15Z" fill="black"/>
<path d="M140.03 33.15C148.608 33.15 155.561 26.1965 155.561 17.619C155.561 9.04139 148.608 2.08789 140.03 2.08789C131.453 2.08789 124.499 9.04139 124.499 17.619C124.499 26.1965 131.453 33.15 140.03 33.15Z" fill="black"/>
<path d="M171.176 33.15C179.753 33.15 186.707 26.1965 186.707 17.619C186.707 9.04139 179.753 2.08789 171.176 2.08789C162.598 2.08789 155.645 9.04139 155.645 17.619C155.645 26.1965 162.598 33.15 171.176 33.15Z" fill="black"/>
<path d="M108.885 64.2955C117.462 64.2955 124.416 57.342 124.416 48.7645C124.416 40.1869 117.462 33.2334 108.885 33.2334C100.307 33.2334 93.3535 40.1869 93.3535 48.7645C93.3535 57.342 100.307 64.2955 108.885 64.2955Z" fill="black"/>
<path d="M140.03 64.2955C148.608 64.2955 155.561 57.342 155.561 48.7645C155.561 40.1869 148.608 33.2334 140.03 33.2334C131.453 33.2334 124.499 40.1869 124.499 48.7645C124.499 57.342 131.453 64.2955 140.03 64.2955Z" fill="black"/>
<path d="M171.176 64.2955C179.753 64.2955 186.707 57.342 186.707 48.7645C186.707 40.1869 179.753 33.2334 171.176 33.2334C162.598 33.2334 155.645 40.1869 155.645 48.7645C155.645 57.342 162.598 64.2955 171.176 64.2955Z" fill="black"/>
<path d="M108.885 95.441C117.462 95.441 124.416 88.4875 124.416 79.91C124.416 71.3324 117.462 64.3789 108.885 64.3789C100.307 64.3789 93.3535 71.3324 93.3535 79.91C93.3535 88.4875 100.307 95.441 108.885 95.441Z" fill="black"/>
<path d="M140.03 95.441C148.608 95.441 155.561 88.4875 155.561 79.91C155.561 71.3324 148.608 64.3789 140.03 64.3789C131.453 64.3789 124.499 71.3324 124.499 79.91C124.499 88.4875 131.453 95.441 140.03 95.441Z" fill="black"/>
<path d="M171.176 95.441C179.753 95.441 186.707 88.4875 186.707 79.91C186.707 71.3324 179.753 64.3789 171.176 64.3789C162.598 64.3789 155.645 71.3324 155.645 79.91C155.645 88.4875 162.598 95.441 171.176 95.441Z" fill="black"/>
<path d="M202.321 33.15C210.899 33.15 217.852 26.1965 217.852 17.619C217.852 9.04139 210.899 2.08789 202.321 2.08789C193.744 2.08789 186.79 9.04139 186.79 17.619C186.79 26.1965 193.744 33.15 202.321 33.15Z" fill="black"/>
<path d="M233.384 33.15C241.961 33.15 248.915 26.1965 248.915 17.619C248.915 9.04139 241.961 2.08789 233.384 2.08789C224.806 2.08789 217.853 9.04139 217.853 17.619C217.853 26.1965 224.806 33.15 233.384 33.15Z" fill="black"/>
<path d="M264.529 33.15C273.107 33.15 280.06 26.1965 280.06 17.619C280.06 9.04139 273.107 2.08789 264.529 2.08789C255.952 2.08789 248.998 9.04139 248.998 17.619C248.998 26.1965 255.952 33.15 264.529 33.15Z" fill="black"/>
<path d="M202.321 64.2955C210.899 64.2955 217.852 57.342 217.852 48.7645C217.852 40.1869 210.899 33.2334 202.321 33.2334C193.744 33.2334 186.79 40.1869 186.79 48.7645C186.79 57.342 193.744 64.2955 202.321 64.2955Z" fill="black"/>
<path d="M233.384 64.2955C241.961 64.2955 248.915 57.342 248.915 48.7645C248.915 40.1869 241.961 33.2334 233.384 33.2334C224.806 33.2334 217.853 40.1869 217.853 48.7645C217.853 57.342 224.806 64.2955 233.384 64.2955Z" fill="black"/>
<path d="M264.529 64.2955C273.107 64.2955 280.06 57.342 280.06 48.7645C280.06 40.1869 273.107 33.2334 264.529 33.2334C255.952 33.2334 248.998 40.1869 248.998 48.7645C248.998 57.342 255.952 64.2955 264.529 64.2955Z" fill="black"/>
<path d="M202.321 95.441C210.899 95.441 217.852 88.4875 217.852 79.91C217.852 71.3324 210.899 64.3789 202.321 64.3789C193.744 64.3789 186.79 71.3324 186.79 79.91C186.79 88.4875 193.744 95.441 202.321 95.441Z" fill="black"/>
<path d="M233.384 95.441C241.961 95.441 248.915 88.4875 248.915 79.91C248.915 71.3324 241.961 64.3789 233.384 64.3789C224.806 64.3789 217.853 71.3324 217.853 79.91C217.853 88.4875 224.806 95.441 233.384 95.441Z" fill="black"/>
<path d="M264.529 95.441C273.107 95.441 280.06 88.4875 280.06 79.91C280.06 71.3324 273.107 64.3789 264.529 64.3789C255.952 64.3789 248.998 71.3324 248.998 79.91C248.998 88.4875 255.952 95.441 264.529 95.441Z" fill="black"/>
<path d="M295.675 64.2955C304.252 64.2955 311.206 57.342 311.206 48.7645C311.206 40.1869 304.252 33.2334 295.675 33.2334C287.097 33.2334 280.144 40.1869 280.144 48.7645C280.144 57.342 287.097 64.2955 295.675 64.2955Z" fill="black"/>
<path d="M295.675 95.441C304.252 95.441 311.206 88.4875 311.206 79.91C311.206 71.3324 304.252 64.3789 295.675 64.3789C287.097 64.3789 280.144 71.3324 280.144 79.91C280.144 88.4875 287.097 95.441 295.675 95.441Z" fill="black"/>
<path d="M326.737 95.441C335.315 95.441 342.268 88.4875 342.268 79.91C342.268 71.3324 335.315 64.3789 326.737 64.3789C318.16 64.3789 311.206 71.3324 311.206 79.91C311.206 88.4875 318.16 95.441 326.737 95.441Z" fill="black"/>
<path d="M295.675 126.504C304.252 126.504 311.206 119.55 311.206 110.972C311.206 102.395 304.252 95.4414 295.675 95.4414C287.097 95.4414 280.144 102.395 280.144 110.972C280.144 119.55 287.097 126.504 295.675 126.504Z" fill="black"/>
<path d="M326.737 126.504C335.315 126.504 342.268 119.55 342.268 110.972C342.268 102.395 335.315 95.4414 326.737 95.4414C318.16 95.4414 311.206 102.395 311.206 110.972C311.206 119.55 318.16 126.504 326.737 126.504Z" fill="black"/>
<path d="M264.529 126.504C273.107 126.504 280.06 119.55 280.06 110.972C280.06 102.395 273.107 95.4414 264.529 95.4414C255.952 95.4414 248.998 102.395 248.998 110.972C248.998 119.55 255.952 126.504 264.529 126.504Z" fill="black"/>
<path d="M264.529 157.649C273.107 157.649 280.06 150.696 280.06 142.118C280.06 133.54 273.107 126.587 264.529 126.587C255.952 126.587 248.998 133.54 248.998 142.118C248.998 150.696 255.952 157.649 264.529 157.649Z" fill="black"/>
<path d="M295.675 157.649C304.252 157.649 311.206 150.696 311.206 142.118C311.206 133.54 304.252 126.587 295.675 126.587C287.097 126.587 280.144 133.54 280.144 142.118C280.144 150.696 287.097 157.649 295.675 157.649Z" fill="black"/>
<path d="M326.737 157.649C335.315 157.649 342.268 150.696 342.268 142.118C342.268 133.54 335.315 126.587 326.737 126.587C318.16 126.587 311.206 133.54 311.206 142.118C311.206 150.696 318.16 157.649 326.737 157.649Z" fill="black"/>
<path d="M295.675 188.795C304.252 188.795 311.206 181.841 311.206 173.263C311.206 164.686 304.252 157.732 295.675 157.732C287.097 157.732 280.144 164.686 280.144 173.263C280.144 181.841 287.097 188.795 295.675 188.795Z" fill="black"/>
<path d="M326.737 188.795C335.315 188.795 342.268 181.841 342.268 173.263C342.268 164.686 335.315 157.732 326.737 157.732C318.16 157.732 311.206 164.686 311.206 173.263C311.206 181.841 318.16 188.795 326.737 188.795Z" fill="black"/>
<path d="M264.529 188.795C273.107 188.795 280.06 181.841 280.06 173.263C280.06 164.686 273.107 157.732 264.529 157.732C255.952 157.732 248.998 164.686 248.998 173.263C248.998 181.841 255.952 188.795 264.529 188.795Z" fill="black"/>
<path d="M264.529 157.649C273.107 157.649 280.06 150.696 280.06 142.118C280.06 133.54 273.107 126.587 264.529 126.587C255.952 126.587 248.998 133.54 248.998 142.118C248.998 150.696 255.952 157.649 264.529 157.649Z" fill="black"/>
<path d="M295.675 157.649C304.252 157.649 311.206 150.696 311.206 142.118C311.206 133.54 304.252 126.587 295.675 126.587C287.097 126.587 280.144 133.54 280.144 142.118C280.144 150.696 287.097 157.649 295.675 157.649Z" fill="black"/>
<path d="M326.737 157.649C335.315 157.649 342.268 150.696 342.268 142.118C342.268 133.54 335.315 126.587 326.737 126.587C318.16 126.587 311.206 133.54 311.206 142.118C311.206 150.696 318.16 157.649 326.737 157.649Z" fill="black"/>
<path d="M295.675 188.795C304.252 188.795 311.206 181.841 311.206 173.263C311.206 164.686 304.252 157.732 295.675 157.732C287.097 157.732 280.144 164.686 280.144 173.263C280.144 181.841 287.097 188.795 295.675 188.795Z" fill="black"/>
<path d="M326.737 188.795C335.315 188.795 342.268 181.841 342.268 173.263C342.268 164.686 335.315 157.732 326.737 157.732C318.16 157.732 311.206 164.686 311.206 173.263C311.206 181.841 318.16 188.795 326.737 188.795Z" fill="black"/>
<path d="M264.529 188.795C273.107 188.795 280.06 181.841 280.06 173.263C280.06 164.686 273.107 157.732 264.529 157.732C255.952 157.732 248.998 164.686 248.998 173.263C248.998 181.841 255.952 188.795 264.529 188.795Z" fill="black"/>
<path d="M233.384 219.94C241.961 219.94 248.915 212.987 248.915 204.409C248.915 195.831 241.961 188.878 233.384 188.878C224.806 188.878 217.853 195.831 217.853 204.409C217.853 212.987 224.806 219.94 233.384 219.94Z" fill="black"/>
<path d="M264.529 219.94C273.107 219.94 280.06 212.987 280.06 204.409C280.06 195.831 273.107 188.878 264.529 188.878C255.952 188.878 248.998 195.831 248.998 204.409C248.998 212.987 255.952 219.94 264.529 219.94Z" fill="black"/>
<path d="M295.675 219.94C304.252 219.94 311.206 212.987 311.206 204.409C311.206 195.831 304.252 188.878 295.675 188.878C287.097 188.878 280.144 195.831 280.144 204.409C280.144 212.987 287.097 219.94 295.675 219.94Z" fill="black"/>
<path d="M264.529 251.003C273.107 251.003 280.06 244.049 280.06 235.471C280.06 226.894 273.107 219.94 264.529 219.94C255.952 219.94 248.998 226.894 248.998 235.471C248.998 244.049 255.952 251.003 264.529 251.003Z" fill="black"/>
<path d="M233.384 251.003C241.961 251.003 248.915 244.049 248.915 235.471C248.915 226.894 241.961 219.94 233.384 219.94C224.806 219.94 217.853 226.894 217.853 235.471C217.853 244.049 224.806 251.003 233.384 251.003Z" fill="black"/>
<path d="M264.529 219.94C273.107 219.94 280.06 212.987 280.06 204.409C280.06 195.831 273.107 188.878 264.529 188.878C255.952 188.878 248.998 195.831 248.998 204.409C248.998 212.987 255.952 219.94 264.529 219.94Z" fill="black"/>
<path d="M295.675 219.94C304.252 219.94 311.206 212.987 311.206 204.409C311.206 195.831 304.252 188.878 295.675 188.878C287.097 188.878 280.144 195.831 280.144 204.409C280.144 212.987 287.097 219.94 295.675 219.94Z" fill="black"/>
<path d="M108.885 219.94C117.462 219.94 124.416 212.987 124.416 204.409C124.416 195.831 117.462 188.878 108.885 188.878C100.307 188.878 93.3535 195.831 93.3535 204.409C93.3535 212.987 100.307 219.94 108.885 219.94Z" fill="black"/>
<path d="M140.03 219.94C148.608 219.94 155.561 212.987 155.561 204.409C155.561 195.831 148.608 188.878 140.03 188.878C131.453 188.878 124.499 195.831 124.499 204.409C124.499 212.987 131.453 219.94 140.03 219.94Z" fill="black"/>
<path d="M171.176 219.94C179.753 219.94 186.707 212.987 186.707 204.409C186.707 195.831 179.753 188.878 171.176 188.878C162.598 188.878 155.645 195.831 155.645 204.409C155.645 212.987 162.598 219.94 171.176 219.94Z" fill="black"/>
<path d="M140.03 251.003C148.608 251.003 155.561 244.049 155.561 235.471C155.561 226.894 148.608 219.94 140.03 219.94C131.453 219.94 124.499 226.894 124.499 235.471C124.499 244.049 131.453 251.003 140.03 251.003Z" fill="black"/>
<path d="M171.176 251.003C179.753 251.003 186.707 244.049 186.707 235.471C186.707 226.894 179.753 219.94 171.176 219.94C162.598 219.94 155.645 226.894 155.645 235.471C155.645 244.049 162.598 251.003 171.176 251.003Z" fill="black"/>
<path d="M108.885 251.003C117.462 251.003 124.416 244.049 124.416 235.471C124.416 226.894 117.462 219.94 108.885 219.94C100.307 219.94 93.3535 226.894 93.3535 235.471C93.3535 244.049 100.307 251.003 108.885 251.003Z" fill="black"/>
<path d="M202.321 219.94C210.899 219.94 217.852 212.987 217.852 204.409C217.852 195.831 210.899 188.878 202.321 188.878C193.744 188.878 186.79 195.831 186.79 204.409C186.79 212.987 193.744 219.94 202.321 219.94Z" fill="black"/>
<path d="M202.321 251.003C210.899 251.003 217.852 244.049 217.852 235.471C217.852 226.894 210.899 219.94 202.321 219.94C193.744 219.94 186.79 226.894 186.79 235.471C186.79 244.049 193.744 251.003 202.321 251.003Z" fill="black"/>
<path d="M233.384 282.148C241.961 282.148 248.915 275.195 248.915 266.617C248.915 258.039 241.961 251.086 233.384 251.086C224.806 251.086 217.853 258.039 217.853 266.617C217.853 275.195 224.806 282.148 233.384 282.148Z" fill="black"/>
<path d="M140.03 282.148C148.608 282.148 155.561 275.195 155.561 266.617C155.561 258.039 148.608 251.086 140.03 251.086C131.453 251.086 124.499 258.039 124.499 266.617C124.499 275.195 131.453 282.148 140.03 282.148Z" fill="black"/>
<path d="M171.176 282.148C179.753 282.148 186.707 275.195 186.707 266.617C186.707 258.039 179.753 251.086 171.176 251.086C162.598 251.086 155.645 258.039 155.645 266.617C155.645 275.195 162.598 282.148 171.176 282.148Z" fill="black"/>
<path d="M108.885 282.148C117.462 282.148 124.416 275.195 124.416 266.617C124.416 258.039 117.462 251.086 108.885 251.086C100.307 251.086 93.3535 258.039 93.3535 266.617C93.3535 275.195 100.307 282.148 108.885 282.148Z" fill="black"/>
<path d="M202.321 282.148C210.899 282.148 217.852 275.195 217.852 266.617C217.852 258.039 210.899 251.086 202.321 251.086C193.744 251.086 186.79 258.039 186.79 266.617C186.79 275.195 193.744 282.148 202.321 282.148Z" fill="black"/>
<path d="M264.529 344.356C273.107 344.356 280.06 337.403 280.06 328.825C280.06 320.247 273.107 313.294 264.529 313.294C255.952 313.294 248.998 320.247 248.998 328.825C248.998 337.403 255.952 344.356 264.529 344.356Z" fill="black"/>
<path d="M233.384 344.356C241.961 344.356 248.915 337.403 248.915 328.825C248.915 320.247 241.961 313.294 233.384 313.294C224.806 313.294 217.853 320.247 217.853 328.825C217.853 337.403 224.806 344.356 233.384 344.356Z" fill="black"/>
<path d="M233.384 313.294C241.961 313.294 248.915 306.34 248.915 297.763C248.915 289.185 241.961 282.231 233.384 282.231C224.806 282.231 217.853 289.185 217.853 297.763C217.853 306.34 224.806 313.294 233.384 313.294Z" fill="black"/>
<path d="M264.529 313.294C273.107 313.294 280.06 306.34 280.06 297.763C280.06 289.185 273.107 282.231 264.529 282.231C255.952 282.231 248.998 289.185 248.998 297.763C248.998 306.34 255.952 313.294 264.529 313.294Z" fill="black"/>
<path d="M264.529 344.356C273.107 344.356 280.06 337.403 280.06 328.825C280.06 320.247 273.107 313.294 264.529 313.294C255.952 313.294 248.998 320.247 248.998 328.825C248.998 337.403 255.952 344.356 264.529 344.356Z" fill="black"/>
<path d="M233.384 344.356C241.961 344.356 248.915 337.403 248.915 328.825C248.915 320.247 241.961 313.294 233.384 313.294C224.806 313.294 217.853 320.247 217.853 328.825C217.853 337.403 224.806 344.356 233.384 344.356Z" fill="black"/>
<path d="M202.321 313.294C210.899 313.294 217.852 306.34 217.852 297.763C217.852 289.185 210.899 282.231 202.321 282.231C193.744 282.231 186.79 289.185 186.79 297.763C186.79 306.34 193.744 313.294 202.321 313.294Z" fill="black"/>
<path d="M295.675 344.356C304.252 344.356 311.206 337.403 311.206 328.825C311.206 320.247 304.252 313.294 295.675 313.294C287.097 313.294 280.144 320.247 280.144 328.825C280.144 337.403 287.097 344.356 295.675 344.356Z" fill="black"/>
<path d="M295.675 375.502C304.252 375.502 311.206 368.548 311.206 359.971C311.206 351.393 304.252 344.439 295.675 344.439C287.097 344.439 280.144 351.393 280.144 359.971C280.144 368.548 287.097 375.502 295.675 375.502Z" fill="black"/>
<path d="M264.529 375.502C273.107 375.502 280.06 368.548 280.06 359.971C280.06 351.393 273.107 344.439 264.529 344.439C255.952 344.439 248.998 351.393 248.998 359.971C248.998 368.548 255.952 375.502 264.529 375.502Z" fill="black"/>
<path d="M295.675 375.502C304.252 375.502 311.206 368.548 311.206 359.971C311.206 351.393 304.252 344.439 295.675 344.439C287.097 344.439 280.144 351.393 280.144 359.971C280.144 368.548 287.097 375.502 295.675 375.502Z" fill="black"/>
<path d="M264.529 375.502C273.107 375.502 280.06 368.548 280.06 359.971C280.06 351.393 273.107 344.439 264.529 344.439C255.952 344.439 248.998 351.393 248.998 359.971C248.998 368.548 255.952 375.502 264.529 375.502Z" fill="black"/>
<path d="M233.384 375.502C241.961 375.502 248.915 368.548 248.915 359.971C248.915 351.393 241.961 344.439 233.384 344.439C224.806 344.439 217.853 351.393 217.853 359.971C217.853 368.548 224.806 375.502 233.384 375.502Z" fill="black"/>
<path d="M233.384 375.502C241.961 375.502 248.915 368.548 248.915 359.971C248.915 351.393 241.961 344.439 233.384 344.439C224.806 344.439 217.853 351.393 217.853 359.971C217.853 368.548 224.806 375.502 233.384 375.502Z" fill="black"/>
<path d="M295.675 406.647C304.252 406.647 311.206 399.694 311.206 391.116C311.206 382.538 304.252 375.585 295.675 375.585C287.097 375.585 280.144 382.538 280.144 391.116C280.144 399.694 287.097 406.647 295.675 406.647Z" fill="black"/>
<path d="M264.529 406.647C273.107 406.647 280.06 399.694 280.06 391.116C280.06 382.538 273.107 375.585 264.529 375.585C255.952 375.585 248.998 382.538 248.998 391.116C248.998 399.694 255.952 406.647 264.529 406.647Z" fill="black"/>
<path d="M295.675 406.647C304.252 406.647 311.206 399.694 311.206 391.116C311.206 382.538 304.252 375.585 295.675 375.585C287.097 375.585 280.144 382.538 280.144 391.116C280.144 399.694 287.097 406.647 295.675 406.647Z" fill="black"/>
<path d="M264.529 406.647C273.107 406.647 280.06 399.694 280.06 391.116C280.06 382.538 273.107 375.585 264.529 375.585C255.952 375.585 248.998 382.538 248.998 391.116C248.998 399.694 255.952 406.647 264.529 406.647Z" fill="black"/>
<path d="M326.737 406.647C335.315 406.647 342.268 399.694 342.268 391.116C342.268 382.538 335.315 375.585 326.737 375.585C318.16 375.585 311.206 382.538 311.206 391.116C311.206 399.694 318.16 406.647 326.737 406.647Z" fill="black"/>
<path d="M326.737 437.71C335.315 437.71 342.268 430.756 342.268 422.179C342.268 413.601 335.315 406.647 326.737 406.647C318.16 406.647 311.206 413.601 311.206 422.179C311.206 430.756 318.16 437.71 326.737 437.71Z" fill="black"/>
<path d="M295.675 437.71C304.252 437.71 311.206 430.756 311.206 422.179C311.206 413.601 304.252 406.647 295.675 406.647C287.097 406.647 280.144 413.601 280.144 422.179C280.144 430.756 287.097 437.71 295.675 437.71Z" fill="black"/>
<path d="M326.737 437.71C335.315 437.71 342.268 430.756 342.268 422.179C342.268 413.601 335.315 406.647 326.737 406.647C318.16 406.647 311.206 413.601 311.206 422.179C311.206 430.756 318.16 437.71 326.737 437.71Z" fill="black"/>
<path d="M295.675 437.71C304.252 437.71 311.206 430.756 311.206 422.179C311.206 413.601 304.252 406.647 295.675 406.647C287.097 406.647 280.144 413.601 280.144 422.179C280.144 430.756 287.097 437.71 295.675 437.71Z" fill="black"/>
<path d="M264.529 437.71C273.107 437.71 280.06 430.756 280.06 422.179C280.06 413.601 273.107 406.647 264.529 406.647C255.952 406.647 248.998 413.601 248.998 422.179C248.998 430.756 255.952 437.71 264.529 437.71Z" fill="black"/>
<path d="M264.529 437.71C273.107 437.71 280.06 430.756 280.06 422.179C280.06 413.601 273.107 406.647 264.529 406.647C255.952 406.647 248.998 413.601 248.998 422.179C248.998 430.756 255.952 437.71 264.529 437.71Z" fill="black"/>
<path d="M326.737 468.855C335.315 468.855 342.268 461.902 342.268 453.324C342.268 444.746 335.315 437.793 326.737 437.793C318.16 437.793 311.206 444.746 311.206 453.324C311.206 461.902 318.16 468.855 326.737 468.855Z" fill="black"/>
<path d="M295.675 468.855C304.252 468.855 311.206 461.902 311.206 453.324C311.206 444.746 304.252 437.793 295.675 437.793C287.097 437.793 280.144 444.746 280.144 453.324C280.144 461.902 287.097 468.855 295.675 468.855Z" fill="black"/>
<path d="M326.737 468.855C335.315 468.855 342.268 461.902 342.268 453.324C342.268 444.746 335.315 437.793 326.737 437.793C318.16 437.793 311.206 444.746 311.206 453.324C311.206 461.902 318.16 468.855 326.737 468.855Z" fill="black"/>
<path d="M295.675 468.855C304.252 468.855 311.206 461.902 311.206 453.324C311.206 444.746 304.252 437.793 295.675 437.793C287.097 437.793 280.144 444.746 280.144 453.324C280.144 461.902 287.097 468.855 295.675 468.855Z" fill="black"/>
<path d="M357.883 468.855C366.46 468.855 373.414 461.902 373.414 453.324C373.414 444.746 366.46 437.793 357.883 437.793C349.305 437.793 342.352 444.746 342.352 453.324C342.352 461.902 349.305 468.855 357.883 468.855Z" fill="black"/>
<path d="M357.883 500.001C366.46 500.001 373.414 493.047 373.414 484.47C373.414 475.892 366.46 468.938 357.883 468.938C349.305 468.938 342.352 475.892 342.352 484.47C342.352 493.047 349.305 500.001 357.883 500.001Z" fill="black"/>
<path d="M326.737 500.001C335.315 500.001 342.268 493.047 342.268 484.47C342.268 475.892 335.315 468.938 326.737 468.938C318.16 468.938 311.206 475.892 311.206 484.47C311.206 493.047 318.16 500.001 326.737 500.001Z" fill="black"/>
<path d="M357.883 500.001C366.46 500.001 373.414 493.047 373.414 484.47C373.414 475.892 366.46 468.938 357.883 468.938C349.305 468.938 342.352 475.892 342.352 484.47C342.352 493.047 349.305 500.001 357.883 500.001Z" fill="black"/>
<path d="M326.737 500.001C335.315 500.001 342.268 493.047 342.268 484.47C342.268 475.892 335.315 468.938 326.737 468.938C318.16 468.938 311.206 475.892 311.206 484.47C311.206 493.047 318.16 500.001 326.737 500.001Z" fill="black"/>
<path d="M295.675 500.001C304.252 500.001 311.206 493.047 311.206 484.47C311.206 475.892 304.252 468.938 295.675 468.938C287.097 468.938 280.144 475.892 280.144 484.47C280.144 493.047 287.097 500.001 295.675 500.001Z" fill="black"/>
<path d="M295.675 500.001C304.252 500.001 311.206 493.047 311.206 484.47C311.206 475.892 304.252 468.938 295.675 468.938C287.097 468.938 280.144 475.892 280.144 484.47C280.144 493.047 287.097 500.001 295.675 500.001Z" fill="black"/>
<path d="M264.529 468.855C273.107 468.855 280.06 461.902 280.06 453.324C280.06 444.746 273.107 437.793 264.529 437.793C255.952 437.793 248.998 444.746 248.998 453.324C248.998 461.902 255.952 468.855 264.529 468.855Z" fill="black"/>
<path d="M408.066 31.0621C416.644 31.0621 423.597 24.1086 423.597 15.5311C423.597 6.9535 416.644 0 408.066 0C399.489 0 392.535 6.9535 392.535 15.5311C392.535 24.1086 399.489 31.0621 408.066 31.0621Z" fill="black"/>
<path d="M470.357 31.0621C478.935 31.0621 485.888 24.1086 485.888 15.5311C485.888 6.9535 478.935 0 470.357 0C461.78 0 454.826 6.9535 454.826 15.5311C454.826 24.1086 461.78 31.0621 470.357 31.0621Z" fill="black"/>
<path d="M408.066 62.2076C416.644 62.2076 423.597 55.2541 423.597 46.6766C423.597 38.099 416.644 31.1455 408.066 31.1455C399.489 31.1455 392.535 38.099 392.535 46.6766C392.535 55.2541 399.489 62.2076 408.066 62.2076Z" fill="black"/>
<path d="M470.357 62.2076C478.935 62.2076 485.888 55.2541 485.888 46.6766C485.888 38.099 478.935 31.1455 470.357 31.1455C461.78 31.1455 454.826 38.099 454.826 46.6766C454.826 55.2541 461.78 62.2076 470.357 62.2076Z" fill="black"/>
<path d="M408.066 93.2701C416.644 93.2701 423.597 86.3166 423.597 77.7391C423.597 69.1615 416.644 62.208 408.066 62.208C399.489 62.208 392.535 69.1615 392.535 77.7391C392.535 86.3166 399.489 93.2701 408.066 93.2701Z" fill="black"/>
<path d="M470.357 93.2701C478.935 93.2701 485.888 86.3166 485.888 77.7391C485.888 69.1615 478.935 62.208 470.357 62.208C461.78 62.208 454.826 69.1615 454.826 77.7391C454.826 86.3166 461.78 93.2701 470.357 93.2701Z" fill="black"/>
<path d="M408.066 124.416C416.644 124.416 423.597 117.462 423.597 108.885C423.597 100.307 416.644 93.3535 408.066 93.3535C399.489 93.3535 392.535 100.307 392.535 108.885C392.535 117.462 399.489 124.416 408.066 124.416Z" fill="black"/>
<path d="M470.357 124.416C478.935 124.416 485.888 117.462 485.888 108.885C485.888 100.307 478.935 93.3535 470.357 93.3535C461.78 93.3535 454.826 100.307 454.826 108.885C454.826 117.462 461.78 124.416 470.357 124.416Z" fill="black"/>
<path d="M408.066 155.561C416.644 155.561 423.597 148.608 423.597 140.03C423.597 131.453 416.644 124.499 408.066 124.499C399.489 124.499 392.535 131.453 392.535 140.03C392.535 148.608 399.489 155.561 408.066 155.561Z" fill="black"/>
<path d="M470.357 155.561C478.935 155.561 485.888 148.608 485.888 140.03C485.888 131.453 478.935 124.499 470.357 124.499C461.78 124.499 454.826 131.453 454.826 140.03C454.826 148.608 461.78 155.561 470.357 155.561Z" fill="black"/>
<path d="M408.066 186.624C416.644 186.624 423.597 179.67 423.597 171.093C423.597 162.515 416.644 155.562 408.066 155.562C399.489 155.562 392.535 162.515 392.535 171.093C392.535 179.67 399.489 186.624 408.066 186.624Z" fill="black"/>
<path d="M470.357 186.624C478.935 186.624 485.888 179.67 485.888 171.093C485.888 162.515 478.935 155.562 470.357 155.562C461.78 155.562 454.826 162.515 454.826 171.093C454.826 179.67 461.78 186.624 470.357 186.624Z" fill="black"/>
<path d="M408.066 217.769C416.644 217.769 423.597 210.816 423.597 202.238C423.597 193.661 416.644 186.707 408.066 186.707C399.489 186.707 392.535 193.661 392.535 202.238C392.535 210.816 399.489 217.769 408.066 217.769Z" fill="black"/>
<path d="M470.357 217.769C478.935 217.769 485.888 210.816 485.888 202.238C485.888 193.661 478.935 186.707 470.357 186.707C461.78 186.707 454.826 193.661 454.826 202.238C454.826 210.816 461.78 217.769 470.357 217.769Z" fill="black"/>
<path d="M408.066 248.915C416.644 248.915 423.597 241.961 423.597 233.384C423.597 224.806 416.644 217.853 408.066 217.853C399.489 217.853 392.535 224.806 392.535 233.384C392.535 241.961 399.489 248.915 408.066 248.915Z" fill="black"/>
<path d="M470.357 248.915C478.935 248.915 485.888 241.961 485.888 233.384C485.888 224.806 478.935 217.853 470.357 217.853C461.78 217.853 454.826 224.806 454.826 233.384C454.826 241.961 461.78 248.915 470.357 248.915Z" fill="black"/>
<path d="M408.066 279.976C416.644 279.976 423.597 273.023 423.597 264.445C423.597 255.868 416.644 248.914 408.066 248.914C399.489 248.914 392.535 255.868 392.535 264.445C392.535 273.023 399.489 279.976 408.066 279.976Z" fill="black"/>
<path d="M470.357 279.976C478.935 279.976 485.888 273.023 485.888 264.445C485.888 255.868 478.935 248.914 470.357 248.914C461.78 248.914 454.826 255.868 454.826 264.445C454.826 273.023 461.78 279.976 470.357 279.976Z" fill="black"/>
<path d="M408.066 311.123C416.644 311.123 423.597 304.169 423.597 295.592C423.597 287.014 416.644 280.061 408.066 280.061C399.489 280.061 392.535 287.014 392.535 295.592C392.535 304.169 399.489 311.123 408.066 311.123Z" fill="black"/>
<path d="M470.357 311.123C478.935 311.123 485.888 304.169 485.888 295.592C485.888 287.014 478.935 280.061 470.357 280.061C461.78 280.061 454.826 287.014 454.826 295.592C454.826 304.169 461.78 311.123 470.357 311.123Z" fill="black"/>
<path d="M408.066 342.268C416.644 342.268 423.597 335.315 423.597 326.737C423.597 318.16 416.644 311.206 408.066 311.206C399.489 311.206 392.535 318.16 392.535 326.737C392.535 335.315 399.489 342.268 408.066 342.268Z" fill="black"/>
<path d="M470.357 342.268C478.935 342.268 485.888 335.315 485.888 326.737C485.888 318.16 478.935 311.206 470.357 311.206C461.78 311.206 454.826 318.16 454.826 326.737C454.826 335.315 461.78 342.268 470.357 342.268Z" fill="black"/>
<path d="M408.066 373.414C416.644 373.414 423.597 366.46 423.597 357.883C423.597 349.305 416.644 342.352 408.066 342.352C399.489 342.352 392.535 349.305 392.535 357.883C392.535 366.46 399.489 373.414 408.066 373.414Z" fill="black"/>
<path d="M470.357 373.414C478.935 373.414 485.888 366.46 485.888 357.883C485.888 349.305 478.935 342.352 470.357 342.352C461.78 342.352 454.826 349.305 454.826 357.883C454.826 366.46 461.78 373.414 470.357 373.414Z" fill="black"/>
<path d="M408.066 404.476C416.644 404.476 423.597 397.523 423.597 388.945C423.597 380.368 416.644 373.414 408.066 373.414C399.489 373.414 392.535 380.368 392.535 388.945C392.535 397.523 399.489 404.476 408.066 404.476Z" fill="black"/>
<path d="M470.357 404.476C478.935 404.476 485.888 397.523 485.888 388.945C485.888 380.368 478.935 373.414 470.357 373.414C461.78 373.414 454.826 380.368 454.826 388.945C454.826 397.523 461.78 404.476 470.357 404.476Z" fill="black"/>
<path d="M408.066 435.622C416.644 435.622 423.597 428.668 423.597 420.091C423.597 411.513 416.644 404.56 408.066 404.56C399.489 404.56 392.535 411.513 392.535 420.091C392.535 428.668 399.489 435.622 408.066 435.622Z" fill="black"/>
<path d="M470.357 435.622C478.935 435.622 485.888 428.668 485.888 420.091C485.888 411.513 478.935 404.56 470.357 404.56C461.78 404.56 454.826 411.513 454.826 420.091C454.826 428.668 461.78 435.622 470.357 435.622Z" fill="black"/>
<path d="M408.066 466.767C416.644 466.767 423.597 459.814 423.597 451.236C423.597 442.659 416.644 435.705 408.066 435.705C399.489 435.705 392.535 442.659 392.535 451.236C392.535 459.814 399.489 466.767 408.066 466.767Z" fill="black"/>
<path d="M470.357 466.767C478.935 466.767 485.888 459.814 485.888 451.236C485.888 442.659 478.935 435.705 470.357 435.705C461.78 435.705 454.826 442.659 454.826 451.236C454.826 459.814 461.78 466.767 470.357 466.767Z" fill="black"/>
<path d="M408.066 497.829C416.644 497.829 423.597 490.875 423.597 482.298C423.597 473.72 416.644 466.767 408.066 466.767C399.489 466.767 392.535 473.72 392.535 482.298C392.535 490.875 399.489 497.829 408.066 497.829Z" fill="black"/>
<path d="M470.357 497.829C478.935 497.829 485.888 490.875 485.888 482.298C485.888 473.72 478.935 466.767 470.357 466.767C461.78 466.767 454.826 473.72 454.826 482.298C454.826 490.875 461.78 497.829 470.357 497.829Z" fill="black"/>
<path d="M532.565 33.15C541.143 33.15 548.096 26.1965 548.096 17.619C548.096 9.04139 541.143 2.08789 532.565 2.08789C523.988 2.08789 517.034 9.04139 517.034 17.619C517.034 26.1965 523.988 33.15 532.565 33.15Z" fill="black"/>
<path d="M532.565 64.2955C541.143 64.2955 548.096 57.342 548.096 48.7645C548.096 40.1869 541.143 33.2334 532.565 33.2334C523.988 33.2334 517.034 40.1869 517.034 48.7645C517.034 57.342 523.988 64.2955 532.565 64.2955Z" fill="black"/>
<path d="M532.565 95.441C541.143 95.441 548.096 88.4875 548.096 79.9099C548.096 71.3323 541.143 64.3789 532.565 64.3789C523.988 64.3789 517.034 71.3323 517.034 79.9099C517.034 88.4875 523.988 95.441 532.565 95.441Z" fill="black"/>
<path d="M532.565 126.503C541.143 126.503 548.096 119.549 548.096 110.971C548.096 102.394 541.143 95.4404 532.565 95.4404C523.988 95.4404 517.034 102.394 517.034 110.971C517.034 119.549 523.988 126.503 532.565 126.503Z" fill="black"/>
<path d="M594.773 126.503C603.351 126.503 610.304 119.549 610.304 110.971C610.304 102.394 603.351 95.4404 594.773 95.4404C586.196 95.4404 579.242 102.394 579.242 110.971C579.242 119.549 586.196 126.503 594.773 126.503Z" fill="black"/>
<path d="M532.565 157.649C541.143 157.649 548.096 150.696 548.096 142.118C548.096 133.54 541.143 126.587 532.565 126.587C523.988 126.587 517.034 133.54 517.034 142.118C517.034 150.696 523.988 157.649 532.565 157.649Z" fill="black"/>
<path d="M594.773 157.649C603.351 157.649 610.304 150.696 610.304 142.118C610.304 133.54 603.351 126.587 594.773 126.587C586.196 126.587 579.242 133.54 579.242 142.118C579.242 150.696 586.196 157.649 594.773 157.649Z" fill="black"/>
<path d="M532.565 188.795C541.143 188.795 548.096 181.841 548.096 173.263C548.096 164.686 541.143 157.732 532.565 157.732C523.988 157.732 517.034 164.686 517.034 173.263C517.034 181.841 523.988 188.795 532.565 188.795Z" fill="black"/>
<path d="M594.773 188.795C603.351 188.795 610.304 181.841 610.304 173.263C610.304 164.686 603.351 157.732 594.773 157.732C586.196 157.732 579.242 164.686 579.242 173.263C579.242 181.841 586.196 188.795 594.773 188.795Z" fill="black"/>
<path d="M532.565 219.856C541.143 219.856 548.096 212.903 548.096 204.325C548.096 195.747 541.143 188.794 532.565 188.794C523.988 188.794 517.034 195.747 517.034 204.325C517.034 212.903 523.988 219.856 532.565 219.856Z" fill="black"/>
<path d="M594.773 219.856C603.351 219.856 610.304 212.903 610.304 204.325C610.304 195.747 603.351 188.794 594.773 188.794C586.196 188.794 579.242 195.747 579.242 204.325C579.242 212.903 586.196 219.856 594.773 219.856Z" fill="black"/>
<path d="M532.565 251.002C541.143 251.002 548.096 244.048 548.096 235.471C548.096 226.893 541.143 219.939 532.565 219.939C523.988 219.939 517.034 226.893 517.034 235.471C517.034 244.048 523.988 251.002 532.565 251.002Z" fill="black"/>
<path d="M594.773 251.002C603.351 251.002 610.304 244.048 610.304 235.471C610.304 226.893 603.351 219.939 594.773 219.939C586.196 219.939 579.242 226.893 579.242 235.471C579.242 244.048 586.196 251.002 594.773 251.002Z" fill="black"/>
<path d="M594.773 282.148C603.351 282.148 610.304 275.195 610.304 266.617C610.304 258.039 603.351 251.086 594.773 251.086C586.196 251.086 579.242 258.039 579.242 266.617C579.242 275.195 586.196 282.148 594.773 282.148Z" fill="black"/>
<path d="M594.773 313.293C603.351 313.293 610.304 306.34 610.304 297.762C610.304 289.185 603.351 282.231 594.773 282.231C586.196 282.231 579.242 289.185 579.242 297.762C579.242 306.34 586.196 313.293 594.773 313.293Z" fill="black"/>
<path d="M594.773 344.355C603.351 344.355 610.304 337.402 610.304 328.824C610.304 320.246 603.351 313.293 594.773 313.293C586.196 313.293 579.242 320.246 579.242 328.824C579.242 337.402 586.196 344.355 594.773 344.355Z" fill="black"/>
<path d="M594.773 375.501C603.351 375.501 610.304 368.547 610.304 359.97C610.304 351.392 603.351 344.438 594.773 344.438C586.196 344.438 579.242 351.392 579.242 359.97C579.242 368.547 586.196 375.501 594.773 375.501Z" fill="black"/>
<path d="M595.608 406.647C604.186 406.647 611.139 399.694 611.139 391.116C611.139 382.538 604.186 375.585 595.608 375.585C587.031 375.585 580.077 382.538 580.077 391.116C580.077 399.694 587.031 406.647 595.608 406.647Z" fill="black"/>
<path d="M595.608 437.709C604.186 437.709 611.139 430.755 611.139 422.178C611.139 413.6 604.186 406.646 595.608 406.646C587.031 406.646 580.077 413.6 580.077 422.178C580.077 430.755 587.031 437.709 595.608 437.709Z" fill="black"/>
<path d="M595.608 468.854C604.186 468.854 611.139 461.901 611.139 453.323C611.139 444.745 604.186 437.792 595.608 437.792C587.031 437.792 580.077 444.745 580.077 453.323C580.077 461.901 587.031 468.854 595.608 468.854Z" fill="black"/>
<path d="M657.815 406.647C666.393 406.647 673.346 399.694 673.346 391.116C673.346 382.538 666.393 375.585 657.815 375.585C649.238 375.585 642.284 382.538 642.284 391.116C642.284 399.694 649.238 406.647 657.815 406.647Z" fill="black"/>
<path d="M657.815 437.709C666.393 437.709 673.346 430.755 673.346 422.178C673.346 413.6 666.393 406.646 657.815 406.646C649.238 406.646 642.284 413.6 642.284 422.178C642.284 430.755 649.238 437.709 657.815 437.709Z" fill="black"/>
<path d="M657.815 468.854C666.393 468.854 673.346 461.901 673.346 453.323C673.346 444.745 666.393 437.792 657.815 437.792C649.238 437.792 642.284 444.745 642.284 453.323C642.284 461.901 649.238 468.854 657.815 468.854Z" fill="black"/>
<path d="M657.815 500C666.393 500 673.346 493.046 673.346 484.469C673.346 475.891 666.393 468.938 657.815 468.938C649.238 468.938 642.284 475.891 642.284 484.469C642.284 493.046 649.238 500 657.815 500Z" fill="black"/>
<path d="M907.481 31.0621C916.059 31.0621 923.012 24.1086 923.012 15.5311C923.012 6.9535 916.059 0 907.481 0C898.904 0 891.95 6.9535 891.95 15.5311C891.95 24.1086 898.904 31.0621 907.481 31.0621Z" fill="black"/>
<path d="M845.274 31.0621C853.852 31.0621 860.805 24.1086 860.805 15.5311C860.805 6.9535 853.852 0 845.274 0C836.697 0 829.743 6.9535 829.743 15.5311C829.743 24.1086 836.697 31.0621 845.274 31.0621Z" fill="black"/>
<path d="M907.481 62.2076C916.059 62.2076 923.012 55.2541 923.012 46.6766C923.012 38.099 916.059 31.1455 907.481 31.1455C898.904 31.1455 891.95 38.099 891.95 46.6766C891.95 55.2541 898.904 62.2076 907.481 62.2076Z" fill="black"/>
<path d="M845.274 62.2076C853.852 62.2076 860.805 55.2541 860.805 46.6766C860.805 38.099 853.852 31.1455 845.274 31.1455C836.697 31.1455 829.743 38.099 829.743 46.6766C829.743 55.2541 836.697 62.2076 845.274 62.2076Z" fill="black"/>
<path d="M907.481 93.2701C916.059 93.2701 923.012 86.3166 923.012 77.7391C923.012 69.1615 916.059 62.208 907.481 62.208C898.904 62.208 891.95 69.1615 891.95 77.7391C891.95 86.3166 898.904 93.2701 907.481 93.2701Z" fill="black"/>
<path d="M845.274 93.2701C853.852 93.2701 860.805 86.3166 860.805 77.7391C860.805 69.1615 853.852 62.208 845.274 62.208C836.697 62.208 829.743 69.1615 829.743 77.7391C829.743 86.3166 836.697 93.2701 845.274 93.2701Z" fill="black"/>
<path d="M907.481 124.416C916.059 124.416 923.012 117.462 923.012 108.885C923.012 100.307 916.059 93.3535 907.481 93.3535C898.904 93.3535 891.95 100.307 891.95 108.885C891.95 117.462 898.904 124.416 907.481 124.416Z" fill="black"/>
<path d="M845.274 124.416C853.852 124.416 860.805 117.462 860.805 108.885C860.805 100.307 853.852 93.3535 845.274 93.3535C836.697 93.3535 829.743 100.307 829.743 108.885C829.743 117.462 836.697 124.416 845.274 124.416Z" fill="black"/>
<path d="M907.481 155.561C916.059 155.561 923.012 148.608 923.012 140.03C923.012 131.453 916.059 124.499 907.481 124.499C898.904 124.499 891.95 131.453 891.95 140.03C891.95 148.608 898.904 155.561 907.481 155.561Z" fill="black"/>
<path d="M845.274 155.561C853.852 155.561 860.805 148.608 860.805 140.03C860.805 131.453 853.852 124.499 845.274 124.499C836.697 124.499 829.743 131.453 829.743 140.03C829.743 148.608 836.697 155.561 845.274 155.561Z" fill="black"/>
<path d="M907.481 186.624C916.059 186.624 923.012 179.67 923.012 171.093C923.012 162.515 916.059 155.562 907.481 155.562C898.904 155.562 891.95 162.515 891.95 171.093C891.95 179.67 898.904 186.624 907.481 186.624Z" fill="black"/>
<path d="M845.274 186.624C853.852 186.624 860.805 179.67 860.805 171.093C860.805 162.515 853.852 155.562 845.274 155.562C836.697 155.562 829.743 162.515 829.743 171.093C829.743 179.67 836.697 186.624 845.274 186.624Z" fill="black"/>
<path d="M907.481 217.769C916.059 217.769 923.012 210.816 923.012 202.238C923.012 193.661 916.059 186.707 907.481 186.707C898.904 186.707 891.95 193.661 891.95 202.238C891.95 210.816 898.904 217.769 907.481 217.769Z" fill="black"/>
<path d="M845.274 217.769C853.852 217.769 860.805 210.816 860.805 202.238C860.805 193.661 853.852 186.707 845.274 186.707C836.697 186.707 829.743 193.661 829.743 202.238C829.743 210.816 836.697 217.769 845.274 217.769Z" fill="black"/>
<path d="M907.481 248.915C916.059 248.915 923.012 241.961 923.012 233.384C923.012 224.806 916.059 217.853 907.481 217.853C898.904 217.853 891.95 224.806 891.95 233.384C891.95 241.961 898.904 248.915 907.481 248.915Z" fill="black"/>
<path d="M845.274 248.915C853.852 248.915 860.805 241.961 860.805 233.384C860.805 224.806 853.852 217.853 845.274 217.853C836.697 217.853 829.743 224.806 829.743 233.384C829.743 241.961 836.697 248.915 845.274 248.915Z" fill="black"/>
<path d="M907.481 279.976C916.059 279.976 923.012 273.023 923.012 264.445C923.012 255.868 916.059 248.914 907.481 248.914C898.904 248.914 891.95 255.868 891.95 264.445C891.95 273.023 898.904 279.976 907.481 279.976Z" fill="black"/>
<path d="M845.274 279.976C853.852 279.976 860.805 273.023 860.805 264.445C860.805 255.868 853.852 248.914 845.274 248.914C836.697 248.914 829.743 255.868 829.743 264.445C829.743 273.023 836.697 279.976 845.274 279.976Z" fill="black"/>
<path d="M907.481 311.123C916.059 311.123 923.012 304.169 923.012 295.592C923.012 287.014 916.059 280.061 907.481 280.061C898.904 280.061 891.95 287.014 891.95 295.592C891.95 304.169 898.904 311.123 907.481 311.123Z" fill="black"/>
<path d="M845.274 311.123C853.852 311.123 860.805 304.169 860.805 295.592C860.805 287.014 853.852 280.061 845.274 280.061C836.697 280.061 829.743 287.014 829.743 295.592C829.743 304.169 836.697 311.123 845.274 311.123Z" fill="black"/>
<path d="M907.481 342.268C916.059 342.268 923.012 335.315 923.012 326.737C923.012 318.16 916.059 311.206 907.481 311.206C898.904 311.206 891.95 318.16 891.95 326.737C891.95 335.315 898.904 342.268 907.481 342.268Z" fill="black"/>
<path d="M845.274 342.268C853.852 342.268 860.805 335.315 860.805 326.737C860.805 318.16 853.852 311.206 845.274 311.206C836.697 311.206 829.743 318.16 829.743 326.737C829.743 335.315 836.697 342.268 845.274 342.268Z" fill="black"/>
<path d="M907.481 373.414C916.059 373.414 923.012 366.46 923.012 357.883C923.012 349.305 916.059 342.352 907.481 342.352C898.904 342.352 891.95 349.305 891.95 357.883C891.95 366.46 898.904 373.414 907.481 373.414Z" fill="black"/>
<path d="M845.274 373.414C853.852 373.414 860.805 366.46 860.805 357.883C860.805 349.305 853.852 342.352 845.274 342.352C836.697 342.352 829.743 349.305 829.743 357.883C829.743 366.46 836.697 373.414 845.274 373.414Z" fill="black"/>
<path d="M907.481 404.476C916.059 404.476 923.012 397.523 923.012 388.945C923.012 380.368 916.059 373.414 907.481 373.414C898.904 373.414 891.95 380.368 891.95 388.945C891.95 397.523 898.904 404.476 907.481 404.476Z" fill="black"/>
<path d="M845.274 404.476C853.852 404.476 860.805 397.523 860.805 388.945C860.805 380.368 853.852 373.414 845.274 373.414C836.697 373.414 829.743 380.368 829.743 388.945C829.743 397.523 836.697 404.476 845.274 404.476Z" fill="black"/>
<path d="M907.481 435.622C916.059 435.622 923.012 428.668 923.012 420.091C923.012 411.513 916.059 404.56 907.481 404.56C898.904 404.56 891.95 411.513 891.95 420.091C891.95 428.668 898.904 435.622 907.481 435.622Z" fill="black"/>
<path d="M845.274 435.622C853.852 435.622 860.805 428.668 860.805 420.091C860.805 411.513 853.852 404.56 845.274 404.56C836.697 404.56 829.743 411.513 829.743 420.091C829.743 428.668 836.697 435.622 845.274 435.622Z" fill="black"/>
<path d="M907.481 466.767C916.059 466.767 923.012 459.814 923.012 451.236C923.012 442.659 916.059 435.705 907.481 435.705C898.904 435.705 891.95 442.659 891.95 451.236C891.95 459.814 898.904 466.767 907.481 466.767Z" fill="black"/>
<path d="M845.274 466.767C853.852 466.767 860.805 459.814 860.805 451.236C860.805 442.659 853.852 435.705 845.274 435.705C836.697 435.705 829.743 442.659 829.743 451.236C829.743 459.814 836.697 466.767 845.274 466.767Z" fill="black"/>
<path d="M907.481 497.829C916.059 497.829 923.012 490.875 923.012 482.298C923.012 473.72 916.059 466.767 907.481 466.767C898.904 466.767 891.95 473.72 891.95 482.298C891.95 490.875 898.904 497.829 907.481 497.829Z" fill="black"/>
<path d="M845.274 497.829C853.852 497.829 860.805 490.875 860.805 482.298C860.805 473.72 853.852 466.767 845.274 466.767C836.697 466.767 829.743 473.72 829.743 482.298C829.743 490.875 836.697 497.829 845.274 497.829Z" fill="black"/>
<path d="M783.066 33.15C791.644 33.15 798.597 26.1965 798.597 17.619C798.597 9.04139 791.644 2.08789 783.066 2.08789C774.489 2.08789 767.535 9.04139 767.535 17.619C767.535 26.1965 774.489 33.15 783.066 33.15Z" fill="black"/>
<path d="M783.066 64.2955C791.644 64.2955 798.597 57.342 798.597 48.7645C798.597 40.1869 791.644 33.2334 783.066 33.2334C774.489 33.2334 767.535 40.1869 767.535 48.7645C767.535 57.342 774.489 64.2955 783.066 64.2955Z" fill="black"/>
<path d="M783.066 95.441C791.644 95.441 798.597 88.4875 798.597 79.9099C798.597 71.3323 791.644 64.3789 783.066 64.3789C774.489 64.3789 767.535 71.3323 767.535 79.9099C767.535 88.4875 774.489 95.441 783.066 95.441Z" fill="black"/>
<path d="M783.066 126.503C791.644 126.503 798.597 119.549 798.597 110.971C798.597 102.394 791.644 95.4404 783.066 95.4404C774.489 95.4404 767.535 102.394 767.535 110.971C767.535 119.549 774.489 126.503 783.066 126.503Z" fill="black"/>
<path d="M720.775 126.503C729.353 126.503 736.306 119.549 736.306 110.971C736.306 102.394 729.353 95.4404 720.775 95.4404C712.198 95.4404 705.244 102.394 705.244 110.971C705.244 119.549 712.198 126.503 720.775 126.503Z" fill="black"/>
<path d="M783.066 157.649C791.644 157.649 798.597 150.696 798.597 142.118C798.597 133.54 791.644 126.587 783.066 126.587C774.489 126.587 767.535 133.54 767.535 142.118C767.535 150.696 774.489 157.649 783.066 157.649Z" fill="black"/>
<path d="M720.775 157.649C729.353 157.649 736.306 150.696 736.306 142.118C736.306 133.54 729.353 126.587 720.775 126.587C712.198 126.587 705.244 133.54 705.244 142.118C705.244 150.696 712.198 157.649 720.775 157.649Z" fill="black"/>
<path d="M783.066 188.795C791.644 188.795 798.597 181.841 798.597 173.263C798.597 164.686 791.644 157.732 783.066 157.732C774.489 157.732 767.535 164.686 767.535 173.263C767.535 181.841 774.489 188.795 783.066 188.795Z" fill="black"/>
<path d="M720.775 188.795C729.353 188.795 736.306 181.841 736.306 173.263C736.306 164.686 729.353 157.732 720.775 157.732C712.198 157.732 705.244 164.686 705.244 173.263C705.244 181.841 712.198 188.795 720.775 188.795Z" fill="black"/>
<path d="M783.066 219.856C791.644 219.856 798.597 212.903 798.597 204.325C798.597 195.747 791.644 188.794 783.066 188.794C774.489 188.794 767.535 195.747 767.535 204.325C767.535 212.903 774.489 219.856 783.066 219.856Z" fill="black"/>
<path d="M720.775 219.856C729.353 219.856 736.306 212.903 736.306 204.325C736.306 195.747 729.353 188.794 720.775 188.794C712.198 188.794 705.244 195.747 705.244 204.325C705.244 212.903 712.198 219.856 720.775 219.856Z" fill="black"/>
<path d="M783.066 251.002C791.644 251.002 798.597 244.048 798.597 235.471C798.597 226.893 791.644 219.939 783.066 219.939C774.489 219.939 767.535 226.893 767.535 235.471C767.535 244.048 774.489 251.002 783.066 251.002Z" fill="black"/>
<path d="M720.775 251.002C729.353 251.002 736.306 244.048 736.306 235.471C736.306 226.893 729.353 219.939 720.775 219.939C712.198 219.939 705.244 226.893 705.244 235.471C705.244 244.048 712.198 251.002 720.775 251.002Z" fill="black"/>
<path d="M720.775 282.148C729.353 282.148 736.306 275.195 736.306 266.617C736.306 258.039 729.353 251.086 720.775 251.086C712.198 251.086 705.244 258.039 705.244 266.617C705.244 275.195 712.198 282.148 720.775 282.148Z" fill="black"/>
<path d="M720.775 313.293C729.353 313.293 736.306 306.34 736.306 297.762C736.306 289.185 729.353 282.231 720.775 282.231C712.198 282.231 705.244 289.185 705.244 297.762C705.244 306.34 712.198 313.293 720.775 313.293Z" fill="black"/>
<path d="M720.775 344.355C729.353 344.355 736.306 337.402 736.306 328.824C736.306 320.246 729.353 313.293 720.775 313.293C712.198 313.293 705.244 320.246 705.244 328.824C705.244 337.402 712.198 344.355 720.775 344.355Z" fill="black"/>
<path d="M720.775 375.501C729.353 375.501 736.306 368.547 736.306 359.97C736.306 351.392 729.353 344.438 720.775 344.438C712.198 344.438 705.244 351.392 705.244 359.97C705.244 368.547 712.198 375.501 720.775 375.501Z" fill="black"/>
<path d="M720.023 406.647C728.601 406.647 735.554 399.694 735.554 391.116C735.554 382.538 728.601 375.585 720.023 375.585C711.446 375.585 704.492 382.538 704.492 391.116C704.492 399.694 711.446 406.647 720.023 406.647Z" fill="black"/>
<path d="M720.023 437.709C728.601 437.709 735.554 430.755 735.554 422.178C735.554 413.6 728.601 406.646 720.023 406.646C711.446 406.646 704.492 413.6 704.492 422.178C704.492 430.755 711.446 437.709 720.023 437.709Z" fill="black"/>
<path d="M720.023 468.854C728.601 468.854 735.554 461.901 735.554 453.323C735.554 444.745 728.601 437.792 720.023 437.792C711.446 437.792 704.492 444.745 704.492 453.323C704.492 461.901 711.446 468.854 720.023 468.854Z" fill="black"/>
<path d="M1030.81 15.5311C1030.81 24.1316 1023.88 31.0621 1015.28 31.0621C1006.68 31.0621 999.749 38.0762 999.749 46.6767C999.749 55.2772 992.735 62.2077 984.134 62.2077C975.534 62.2077 968.604 55.2772 968.604 46.6767C968.604 38.0762 975.534 31.0621 984.134 31.0621C992.735 31.0621 999.749 24.1316 999.749 15.5311C999.749 6.93053 1006.68 0 1015.28 0C1023.88 0 1030.81 6.93053 1030.81 15.5311Z" fill="black"/>
<path d="M1061.96 46.6771C1061.96 55.2776 1054.94 62.2081 1046.43 62.2081C1037.91 62.2081 1030.81 69.2222 1030.81 77.7392C1030.81 86.2562 1023.88 93.3537 1015.28 93.3537C1006.68 93.3537 999.749 100.284 999.749 108.885C999.749 117.485 992.735 124.416 984.134 124.416C975.534 124.416 968.604 117.485 968.604 108.885C968.604 100.284 975.534 93.3537 984.134 93.3537C992.735 93.3537 999.749 86.3397 999.749 77.7392C999.749 69.1387 1006.68 62.2081 1015.28 62.2081C1023.88 62.2081 1030.81 55.2776 1030.81 46.6771C1030.81 38.0765 1037.83 31.0625 1046.43 31.0625C1055.03 31.0625 1061.96 38.0765 1061.96 46.6771Z" fill="black"/>
<path d="M1061.96 108.885C1061.96 117.485 1054.94 124.416 1046.43 124.416C1037.91 124.416 1030.81 131.43 1030.81 140.03C1030.81 148.631 1023.88 155.561 1015.28 155.561C1006.68 155.561 999.749 162.575 999.749 171.176C999.749 179.776 992.735 186.707 984.134 186.707C975.534 186.707 968.604 179.693 968.604 171.176C968.604 162.659 975.534 155.561 984.134 155.561C992.735 155.561 999.749 148.631 999.749 140.03C999.749 131.43 1006.68 124.416 1015.28 124.416C1023.88 124.416 1030.81 117.485 1030.81 108.885C1030.81 100.284 1037.83 93.3535 1046.43 93.3535C1055.03 93.3535 1061.96 100.284 1061.96 108.885Z" fill="black"/>
<path d="M1061.96 171.176C1061.96 179.693 1054.94 186.707 1046.43 186.707C1037.91 186.707 1030.81 193.638 1030.81 202.238C1030.81 210.839 1023.88 217.853 1015.28 217.853C1006.68 217.853 999.749 224.783 999.749 233.384C999.749 241.984 992.735 248.915 984.134 248.915C975.534 248.915 968.604 241.984 968.604 233.384C968.604 224.783 975.534 217.853 984.134 217.853C992.735 217.853 999.749 210.839 999.749 202.238C999.749 193.638 1006.68 186.707 1015.28 186.707C1023.88 186.707 1030.81 179.693 1030.81 171.176C1030.81 162.659 1037.83 155.562 1046.43 155.562C1055.03 155.562 1061.96 162.576 1061.96 171.176Z" fill="black"/>
<path d="M1061.96 233.384C1061.96 241.984 1054.94 248.915 1046.43 248.915C1037.91 248.915 1030.81 255.929 1030.81 264.529C1030.81 273.13 1023.88 280.06 1015.28 280.06C1006.68 280.06 999.749 286.991 999.749 295.591C999.749 304.192 992.735 311.206 984.134 311.206C975.534 311.206 968.604 304.192 968.604 295.591C968.604 286.991 975.534 280.06 984.134 280.06C992.735 280.06 999.749 273.046 999.749 264.529C999.749 256.012 1006.68 248.915 1015.28 248.915C1023.88 248.915 1030.81 241.984 1030.81 233.384C1030.81 224.783 1037.83 217.853 1046.43 217.853C1055.03 217.853 1061.96 224.783 1061.96 233.384Z" fill="black"/>
<path d="M1061.96 295.592C1061.96 304.192 1054.94 311.206 1046.43 311.206C1037.91 311.206 1030.81 318.137 1030.81 326.737C1030.81 335.338 1023.88 342.268 1015.28 342.268C1006.68 342.268 999.749 349.282 999.749 357.883C999.749 366.483 992.735 373.414 984.134 373.414C975.534 373.414 968.604 366.483 968.604 357.883C968.604 349.282 975.534 342.268 984.134 342.268C992.735 342.268 999.749 335.338 999.749 326.737C999.749 318.137 1006.68 311.206 1015.28 311.206C1023.88 311.206 1030.81 304.192 1030.81 295.592C1030.81 286.991 1037.83 280.061 1046.43 280.061C1055.03 280.061 1061.96 286.991 1061.96 295.592Z" fill="black"/>
<path d="M1061.96 357.882C1061.96 366.483 1054.94 373.413 1046.43 373.413C1037.91 373.413 1030.81 380.344 1030.81 388.944C1030.81 397.545 1023.88 404.559 1015.28 404.559C1006.68 404.559 999.749 411.489 999.749 420.09C999.749 428.69 992.735 435.621 984.134 435.621C975.534 435.621 968.604 428.69 968.604 420.09C968.604 411.489 975.534 404.559 984.134 404.559C992.735 404.559 999.749 397.545 999.749 388.944C999.749 380.344 1006.68 373.413 1015.28 373.413C1023.88 373.413 1030.81 366.483 1030.81 357.882C1030.81 349.282 1037.83 342.268 1046.43 342.268C1055.03 342.268 1061.96 349.282 1061.96 357.882Z" fill="black"/>
<path d="M1061.96 420.091C1061.96 428.691 1054.94 435.622 1046.43 435.622C1037.91 435.622 1030.81 442.636 1030.81 451.236C1030.81 459.837 1023.88 466.767 1015.28 466.767C1006.68 466.767 999.749 473.698 999.749 482.298C999.749 490.899 992.735 497.913 984.134 497.913C975.534 497.913 968.604 490.899 968.604 482.298C968.604 473.698 975.534 466.767 984.134 466.767C992.735 466.767 999.749 459.837 999.749 451.236C999.749 442.636 1006.68 435.622 1015.28 435.622C1023.88 435.622 1030.81 428.691 1030.81 420.091C1030.81 411.49 1037.83 404.56 1046.43 404.56C1055.03 404.56 1061.96 411.49 1061.96 420.091Z" fill="black"/>
<path d="M1046.34 497.829C1054.92 497.829 1061.87 490.875 1061.87 482.298C1061.87 473.72 1054.92 466.767 1046.34 466.767C1037.77 466.767 1030.81 473.72 1030.81 482.298C1030.81 490.875 1037.77 497.829 1046.34 497.829Z" fill="black"/>
</svg>
