<svg width="1065" height="506" viewBox="0 0 1065 506" fill="none" xmlns="http://www.w3.org/2000/svg">
<path d="M18.5311 36.15C27.1086 36.15 34.0621 29.1965 34.0621 20.619C34.0621 12.0414 27.1086 5.08789 18.5311 5.08789C9.9535 5.08789 3 12.0414 3 20.619C3 29.1965 9.9535 36.15 18.5311 36.15Z" stroke="black" stroke-width="5" stroke-miterlimit="10"/>
<path d="M49.6766 36.15C58.2541 36.15 65.2076 29.1965 65.2076 20.619C65.2076 12.0414 58.2541 5.08789 49.6766 5.08789C41.099 5.08789 34.1455 12.0414 34.1455 20.619C34.1455 29.1965 41.099 36.15 49.6766 36.15Z" stroke="black" stroke-width="5" stroke-miterlimit="10"/>
<path d="M80.8221 36.15C89.3997 36.15 96.3531 29.1965 96.3531 20.619C96.3531 12.0414 89.3997 5.08789 80.8221 5.08789C72.2445 5.08789 65.291 12.0414 65.291 20.619C65.291 29.1965 72.2445 36.15 80.8221 36.15Z" stroke="black" stroke-width="5" stroke-miterlimit="10"/>
<path d="M18.5311 67.2125C27.1086 67.2125 34.0621 60.259 34.0621 51.6815C34.0621 43.1039 27.1086 36.1504 18.5311 36.1504C9.9535 36.1504 3 43.1039 3 51.6815C3 60.259 9.9535 67.2125 18.5311 67.2125Z" stroke="black" stroke-width="5" stroke-miterlimit="10"/>
<path d="M49.6766 67.2125C58.2541 67.2125 65.2076 60.259 65.2076 51.6815C65.2076 43.1039 58.2541 36.1504 49.6766 36.1504C41.099 36.1504 34.1455 43.1039 34.1455 51.6815C34.1455 60.259 41.099 67.2125 49.6766 67.2125Z" stroke="black" stroke-width="5" stroke-miterlimit="10"/>
<path d="M80.8221 67.2125C89.3997 67.2125 96.3531 60.259 96.3531 51.6815C96.3531 43.1039 89.3997 36.1504 80.8221 36.1504C72.2445 36.1504 65.291 43.1039 65.291 51.6815C65.291 60.259 72.2445 67.2125 80.8221 67.2125Z" stroke="black" stroke-width="5" stroke-miterlimit="10"/>
<path d="M18.5311 98.358C27.1086 98.358 34.0621 91.4045 34.0621 82.827C34.0621 74.2494 27.1086 67.2959 18.5311 67.2959C9.9535 67.2959 3 74.2494 3 82.827C3 91.4045 9.9535 98.358 18.5311 98.358Z" stroke="black" stroke-width="5" stroke-miterlimit="10"/>
<path d="M49.6766 98.358C58.2541 98.358 65.2076 91.4045 65.2076 82.827C65.2076 74.2494 58.2541 67.2959 49.6766 67.2959C41.099 67.2959 34.1455 74.2494 34.1455 82.827C34.1455 91.4045 41.099 98.358 49.6766 98.358Z" stroke="black" stroke-width="5" stroke-miterlimit="10"/>
<path d="M80.8221 98.358C89.3997 98.358 96.3531 91.4045 96.3531 82.827C96.3531 74.2494 89.3997 67.2959 80.8221 67.2959C72.2445 67.2959 65.291 74.2494 65.291 82.827C65.291 91.4045 72.2445 98.358 80.8221 98.358Z" stroke="black" stroke-width="5" stroke-miterlimit="10"/>
<path d="M18.5311 129.504C27.1086 129.504 34.0621 122.55 34.0621 113.972C34.0621 105.395 27.1086 98.4414 18.5311 98.4414C9.9535 98.4414 3 105.395 3 113.972C3 122.55 9.9535 129.504 18.5311 129.504Z" stroke="black" stroke-width="5" stroke-miterlimit="10"/>
<path d="M49.6766 129.504C58.2541 129.504 65.2076 122.55 65.2076 113.972C65.2076 105.395 58.2541 98.4414 49.6766 98.4414C41.099 98.4414 34.1455 105.395 34.1455 113.972C34.1455 122.55 41.099 129.504 49.6766 129.504Z" stroke="black" stroke-width="5" stroke-miterlimit="10"/>
<path d="M80.8221 129.504C89.3997 129.504 96.3531 122.55 96.3531 113.972C96.3531 105.395 89.3997 98.4414 80.8221 98.4414C72.2445 98.4414 65.291 105.395 65.291 113.972C65.291 122.55 72.2445 129.504 80.8221 129.504Z" stroke="black" stroke-width="5" stroke-miterlimit="10"/>
<path d="M18.5311 160.565C27.1086 160.565 34.0621 153.612 34.0621 145.034C34.0621 136.456 27.1086 129.503 18.5311 129.503C9.9535 129.503 3 136.456 3 145.034C3 153.612 9.9535 160.565 18.5311 160.565Z" stroke="black" stroke-width="5" stroke-miterlimit="10"/>
<path d="M49.6766 160.565C58.2541 160.565 65.2076 153.612 65.2076 145.034C65.2076 136.456 58.2541 129.503 49.6766 129.503C41.099 129.503 34.1455 136.456 34.1455 145.034C34.1455 153.612 41.099 160.565 49.6766 160.565Z" stroke="black" stroke-width="5" stroke-miterlimit="10"/>
<path d="M80.8221 160.565C89.3997 160.565 96.3531 153.612 96.3531 145.034C96.3531 136.456 89.3997 129.503 80.8221 129.503C72.2445 129.503 65.291 136.456 65.291 145.034C65.291 153.612 72.2445 160.565 80.8221 160.565Z" stroke="black" stroke-width="5" stroke-miterlimit="10"/>
<path d="M18.5311 191.712C27.1086 191.712 34.0621 184.758 34.0621 176.18C34.0621 167.603 27.1086 160.649 18.5311 160.649C9.9535 160.649 3 167.603 3 176.18C3 184.758 9.9535 191.712 18.5311 191.712Z" stroke="black" stroke-width="5" stroke-miterlimit="10"/>
<path d="M49.6766 191.712C58.2541 191.712 65.2076 184.758 65.2076 176.18C65.2076 167.603 58.2541 160.649 49.6766 160.649C41.099 160.649 34.1455 167.603 34.1455 176.18C34.1455 184.758 41.099 191.712 49.6766 191.712Z" stroke="black" stroke-width="5" stroke-miterlimit="10"/>
<path d="M80.8221 191.712C89.3997 191.712 96.3531 184.758 96.3531 176.18C96.3531 167.603 89.3997 160.649 80.8221 160.649C72.2445 160.649 65.291 167.603 65.291 176.18C65.291 184.758 72.2445 191.712 80.8221 191.712Z" stroke="black" stroke-width="5" stroke-miterlimit="10"/>
<path d="M18.5311 222.857C27.1086 222.857 34.0621 215.904 34.0621 207.326C34.0621 198.748 27.1086 191.795 18.5311 191.795C9.9535 191.795 3 198.748 3 207.326C3 215.904 9.9535 222.857 18.5311 222.857Z" stroke="black" stroke-width="5" stroke-miterlimit="10"/>
<path d="M49.6766 222.857C58.2541 222.857 65.2076 215.904 65.2076 207.326C65.2076 198.748 58.2541 191.795 49.6766 191.795C41.099 191.795 34.1455 198.748 34.1455 207.326C34.1455 215.904 41.099 222.857 49.6766 222.857Z" stroke="black" stroke-width="5" stroke-miterlimit="10"/>
<path d="M80.8221 222.857C89.3997 222.857 96.3531 215.904 96.3531 207.326C96.3531 198.748 89.3997 191.795 80.8221 191.795C72.2445 191.795 65.291 198.748 65.291 207.326C65.291 215.904 72.2445 222.857 80.8221 222.857Z" stroke="black" stroke-width="5" stroke-miterlimit="10"/>
<path d="M18.5311 253.919C27.1086 253.919 34.0621 246.965 34.0621 238.388C34.0621 229.81 27.1086 222.856 18.5311 222.856C9.9535 222.856 3 229.81 3 238.388C3 246.965 9.9535 253.919 18.5311 253.919Z" stroke="black" stroke-width="5" stroke-miterlimit="10"/>
<path d="M49.6766 253.919C58.2541 253.919 65.2076 246.965 65.2076 238.388C65.2076 229.81 58.2541 222.856 49.6766 222.856C41.099 222.856 34.1455 229.81 34.1455 238.388C34.1455 246.965 41.099 253.919 49.6766 253.919Z" stroke="black" stroke-width="5" stroke-miterlimit="10"/>
<path d="M80.8221 253.919C89.3997 253.919 96.3531 246.965 96.3531 238.388C96.3531 229.81 89.3997 222.856 80.8221 222.856C72.2445 222.856 65.291 229.81 65.291 238.388C65.291 246.965 72.2445 253.919 80.8221 253.919Z" stroke="black" stroke-width="5" stroke-miterlimit="10"/>
<path d="M18.5311 285.064C27.1086 285.064 34.0621 278.111 34.0621 269.533C34.0621 260.955 27.1086 254.002 18.5311 254.002C9.9535 254.002 3 260.955 3 269.533C3 278.111 9.9535 285.064 18.5311 285.064Z" stroke="black" stroke-width="5" stroke-miterlimit="10"/>
<path d="M49.6766 285.064C58.2541 285.064 65.2076 278.111 65.2076 269.533C65.2076 260.955 58.2541 254.002 49.6766 254.002C41.099 254.002 34.1455 260.955 34.1455 269.533C34.1455 278.111 41.099 285.064 49.6766 285.064Z" stroke="black" stroke-width="5" stroke-miterlimit="10"/>
<path d="M80.8221 285.064C89.3997 285.064 96.3531 278.111 96.3531 269.533C96.3531 260.955 89.3997 254.002 80.8221 254.002C72.2445 254.002 65.291 260.955 65.291 269.533C65.291 278.111 72.2445 285.064 80.8221 285.064Z" stroke="black" stroke-width="5" stroke-miterlimit="10"/>
<path d="M18.5311 316.211C27.1086 316.211 34.0621 309.257 34.0621 300.68C34.0621 292.102 27.1086 285.148 18.5311 285.148C9.9535 285.148 3 292.102 3 300.68C3 309.257 9.9535 316.211 18.5311 316.211Z" stroke="black" stroke-width="5" stroke-miterlimit="10"/>
<path d="M49.6766 316.211C58.2541 316.211 65.2076 309.257 65.2076 300.68C65.2076 292.102 58.2541 285.148 49.6766 285.148C41.099 285.148 34.1455 292.102 34.1455 300.68C34.1455 309.257 41.099 316.211 49.6766 316.211Z" stroke="black" stroke-width="5" stroke-miterlimit="10"/>
<path d="M80.8221 316.211C89.3997 316.211 96.3531 309.257 96.3531 300.68C96.3531 292.102 89.3997 285.148 80.8221 285.148C72.2445 285.148 65.291 292.102 65.291 300.68C65.291 309.257 72.2445 316.211 80.8221 316.211Z" stroke="black" stroke-width="5" stroke-miterlimit="10"/>
<path d="M18.5311 347.356C27.1086 347.356 34.0621 340.403 34.0621 331.825C34.0621 323.247 27.1086 316.294 18.5311 316.294C9.9535 316.294 3 323.247 3 331.825C3 340.403 9.9535 347.356 18.5311 347.356Z" stroke="black" stroke-width="5" stroke-miterlimit="10"/>
<path d="M49.6766 347.356C58.2541 347.356 65.2076 340.403 65.2076 331.825C65.2076 323.247 58.2541 316.294 49.6766 316.294C41.099 316.294 34.1455 323.247 34.1455 331.825C34.1455 340.403 41.099 347.356 49.6766 347.356Z" stroke="black" stroke-width="5" stroke-miterlimit="10"/>
<path d="M80.8221 347.356C89.3997 347.356 96.3531 340.403 96.3531 331.825C96.3531 323.247 89.3997 316.294 80.8221 316.294C72.2445 316.294 65.291 323.247 65.291 331.825C65.291 340.403 72.2445 347.356 80.8221 347.356Z" stroke="black" stroke-width="5" stroke-miterlimit="10"/>
<path d="M18.5311 378.418C27.1086 378.418 34.0621 371.464 34.0621 362.887C34.0621 354.309 27.1086 347.355 18.5311 347.355C9.9535 347.355 3 354.309 3 362.887C3 371.464 9.9535 378.418 18.5311 378.418Z" stroke="black" stroke-width="5" stroke-miterlimit="10"/>
<path d="M49.6766 378.418C58.2541 378.418 65.2076 371.464 65.2076 362.887C65.2076 354.309 58.2541 347.355 49.6766 347.355C41.099 347.355 34.1455 354.309 34.1455 362.887C34.1455 371.464 41.099 378.418 49.6766 378.418Z" stroke="black" stroke-width="5" stroke-miterlimit="10"/>
<path d="M80.8221 378.418C89.3997 378.418 96.3531 371.464 96.3531 362.887C96.3531 354.309 89.3997 347.355 80.8221 347.355C72.2445 347.355 65.291 354.309 65.291 362.887C65.291 371.464 72.2445 378.418 80.8221 378.418Z" stroke="black" stroke-width="5" stroke-miterlimit="10"/>
<path d="M18.5311 409.563C27.1086 409.563 34.0621 402.61 34.0621 394.032C34.0621 385.454 27.1086 378.501 18.5311 378.501C9.9535 378.501 3 385.454 3 394.032C3 402.61 9.9535 409.563 18.5311 409.563Z" stroke="black" stroke-width="5" stroke-miterlimit="10"/>
<path d="M49.6766 409.563C58.2541 409.563 65.2076 402.61 65.2076 394.032C65.2076 385.454 58.2541 378.501 49.6766 378.501C41.099 378.501 34.1455 385.454 34.1455 394.032C34.1455 402.61 41.099 409.563 49.6766 409.563Z" stroke="black" stroke-width="5" stroke-miterlimit="10"/>
<path d="M80.8221 409.563C89.3997 409.563 96.3531 402.61 96.3531 394.032C96.3531 385.454 89.3997 378.501 80.8221 378.501C72.2445 378.501 65.291 385.454 65.291 394.032C65.291 402.61 72.2445 409.563 80.8221 409.563Z" stroke="black" stroke-width="5" stroke-miterlimit="10"/>
<path d="M18.5311 440.71C27.1086 440.71 34.0621 433.756 34.0621 425.179C34.0621 416.601 27.1086 409.647 18.5311 409.647C9.9535 409.647 3 416.601 3 425.179C3 433.756 9.9535 440.71 18.5311 440.71Z" stroke="black" stroke-width="5" stroke-miterlimit="10"/>
<path d="M49.6766 440.71C58.2541 440.71 65.2076 433.756 65.2076 425.179C65.2076 416.601 58.2541 409.647 49.6766 409.647C41.099 409.647 34.1455 416.601 34.1455 425.179C34.1455 433.756 41.099 440.71 49.6766 440.71Z" stroke="black" stroke-width="5" stroke-miterlimit="10"/>
<path d="M80.8221 440.71C89.3997 440.71 96.3531 433.756 96.3531 425.179C96.3531 416.601 89.3997 409.647 80.8221 409.647C72.2445 409.647 65.291 416.601 65.291 425.179C65.291 433.756 72.2445 440.71 80.8221 440.71Z" stroke="black" stroke-width="5" stroke-miterlimit="10"/>
<path d="M18.5311 471.771C27.1086 471.771 34.0621 464.818 34.0621 456.24C34.0621 447.662 27.1086 440.709 18.5311 440.709C9.9535 440.709 3 447.662 3 456.24C3 464.818 9.9535 471.771 18.5311 471.771Z" stroke="black" stroke-width="5" stroke-miterlimit="10"/>
<path d="M49.6766 471.771C58.2541 471.771 65.2076 464.818 65.2076 456.24C65.2076 447.662 58.2541 440.709 49.6766 440.709C41.099 440.709 34.1455 447.662 34.1455 456.24C34.1455 464.818 41.099 471.771 49.6766 471.771Z" stroke="black" stroke-width="5" stroke-miterlimit="10"/>
<path d="M80.8221 471.771C89.3997 471.771 96.3531 464.818 96.3531 456.24C96.3531 447.662 89.3997 440.709 80.8221 440.709C72.2445 440.709 65.291 447.662 65.291 456.24C65.291 464.818 72.2445 471.771 80.8221 471.771Z" stroke="black" stroke-width="5" stroke-miterlimit="10"/>
<path d="M18.5311 502.917C27.1086 502.917 34.0621 495.963 34.0621 487.386C34.0621 478.808 27.1086 471.854 18.5311 471.854C9.9535 471.854 3 478.808 3 487.386C3 495.963 9.9535 502.917 18.5311 502.917Z" stroke="black" stroke-width="5" stroke-miterlimit="10"/>
<path d="M49.6766 502.917C58.2541 502.917 65.2076 495.963 65.2076 487.386C65.2076 478.808 58.2541 471.854 49.6766 471.854C41.099 471.854 34.1455 478.808 34.1455 487.386C34.1455 495.963 41.099 502.917 49.6766 502.917Z" stroke="black" stroke-width="5" stroke-miterlimit="10"/>
<path d="M80.8221 502.917C89.3997 502.917 96.3531 495.963 96.3531 487.386C96.3531 478.808 89.3997 471.854 80.8221 471.854C72.2445 471.854 65.291 478.808 65.291 487.386C65.291 495.963 72.2445 502.917 80.8221 502.917Z" stroke="black" stroke-width="5" stroke-miterlimit="10"/>
<path d="M111.885 36.15C120.462 36.15 127.416 29.1965 127.416 20.619C127.416 12.0414 120.462 5.08789 111.885 5.08789C103.307 5.08789 96.3535 12.0414 96.3535 20.619C96.3535 29.1965 103.307 36.15 111.885 36.15Z" stroke="black" stroke-width="5" stroke-miterlimit="10"/>
<path d="M143.03 36.15C151.608 36.15 158.561 29.1965 158.561 20.619C158.561 12.0414 151.608 5.08789 143.03 5.08789C134.453 5.08789 127.499 12.0414 127.499 20.619C127.499 29.1965 134.453 36.15 143.03 36.15Z" stroke="black" stroke-width="5" stroke-miterlimit="10"/>
<path d="M174.176 36.15C182.753 36.15 189.707 29.1965 189.707 20.619C189.707 12.0414 182.753 5.08789 174.176 5.08789C165.598 5.08789 158.645 12.0414 158.645 20.619C158.645 29.1965 165.598 36.15 174.176 36.15Z" stroke="black" stroke-width="5" stroke-miterlimit="10"/>
<path d="M111.885 67.2125C120.462 67.2125 127.416 60.259 127.416 51.6815C127.416 43.1039 120.462 36.1504 111.885 36.1504C103.307 36.1504 96.3535 43.1039 96.3535 51.6815C96.3535 60.259 103.307 67.2125 111.885 67.2125Z" stroke="black" stroke-width="5" stroke-miterlimit="10"/>
<path d="M143.03 67.2125C151.608 67.2125 158.561 60.259 158.561 51.6815C158.561 43.1039 151.608 36.1504 143.03 36.1504C134.453 36.1504 127.499 43.1039 127.499 51.6815C127.499 60.259 134.453 67.2125 143.03 67.2125Z" stroke="black" stroke-width="5" stroke-miterlimit="10"/>
<path d="M174.176 67.2125C182.753 67.2125 189.707 60.259 189.707 51.6815C189.707 43.1039 182.753 36.1504 174.176 36.1504C165.598 36.1504 158.645 43.1039 158.645 51.6815C158.645 60.259 165.598 67.2125 174.176 67.2125Z" stroke="black" stroke-width="5" stroke-miterlimit="10"/>
<path d="M111.885 98.358C120.462 98.358 127.416 91.4045 127.416 82.827C127.416 74.2494 120.462 67.2959 111.885 67.2959C103.307 67.2959 96.3535 74.2494 96.3535 82.827C96.3535 91.4045 103.307 98.358 111.885 98.358Z" stroke="black" stroke-width="5" stroke-miterlimit="10"/>
<path d="M143.03 98.358C151.608 98.358 158.561 91.4045 158.561 82.827C158.561 74.2494 151.608 67.2959 143.03 67.2959C134.453 67.2959 127.499 74.2494 127.499 82.827C127.499 91.4045 134.453 98.358 143.03 98.358Z" stroke="black" stroke-width="5" stroke-miterlimit="10"/>
<path d="M174.176 98.358C182.753 98.358 189.707 91.4045 189.707 82.827C189.707 74.2494 182.753 67.2959 174.176 67.2959C165.598 67.2959 158.645 74.2494 158.645 82.827C158.645 91.4045 165.598 98.358 174.176 98.358Z" stroke="black" stroke-width="5" stroke-miterlimit="10"/>
<path d="M205.238 36.15C213.816 36.15 220.769 29.1965 220.769 20.619C220.769 12.0414 213.816 5.08789 205.238 5.08789C196.661 5.08789 189.707 12.0414 189.707 20.619C189.707 29.1965 196.661 36.15 205.238 36.15Z" stroke="black" stroke-width="5" stroke-miterlimit="10"/>
<path d="M236.384 36.15C244.961 36.15 251.915 29.1965 251.915 20.619C251.915 12.0414 244.961 5.08789 236.384 5.08789C227.806 5.08789 220.853 12.0414 220.853 20.619C220.853 29.1965 227.806 36.15 236.384 36.15Z" stroke="black" stroke-width="5" stroke-miterlimit="10"/>
<path d="M267.529 36.15C276.107 36.15 283.06 29.1965 283.06 20.619C283.06 12.0414 276.107 5.08789 267.529 5.08789C258.952 5.08789 251.998 12.0414 251.998 20.619C251.998 29.1965 258.952 36.15 267.529 36.15Z" stroke="black" stroke-width="5" stroke-miterlimit="10"/>
<path d="M205.238 67.2125C213.816 67.2125 220.769 60.259 220.769 51.6815C220.769 43.1039 213.816 36.1504 205.238 36.1504C196.661 36.1504 189.707 43.1039 189.707 51.6815C189.707 60.259 196.661 67.2125 205.238 67.2125Z" stroke="black" stroke-width="5" stroke-miterlimit="10"/>
<path d="M236.384 67.2125C244.961 67.2125 251.915 60.259 251.915 51.6815C251.915 43.1039 244.961 36.1504 236.384 36.1504C227.806 36.1504 220.853 43.1039 220.853 51.6815C220.853 60.259 227.806 67.2125 236.384 67.2125Z" stroke="black" stroke-width="5" stroke-miterlimit="10"/>
<path d="M267.529 67.2125C276.107 67.2125 283.06 60.259 283.06 51.6815C283.06 43.1039 276.107 36.1504 267.529 36.1504C258.952 36.1504 251.998 43.1039 251.998 51.6815C251.998 60.259 258.952 67.2125 267.529 67.2125Z" stroke="black" stroke-width="5" stroke-miterlimit="10"/>
<path d="M205.238 98.358C213.816 98.358 220.769 91.4045 220.769 82.827C220.769 74.2494 213.816 67.2959 205.238 67.2959C196.661 67.2959 189.707 74.2494 189.707 82.827C189.707 91.4045 196.661 98.358 205.238 98.358Z" stroke="black" stroke-width="5" stroke-miterlimit="10"/>
<path d="M236.384 98.358C244.961 98.358 251.915 91.4045 251.915 82.827C251.915 74.2494 244.961 67.2959 236.384 67.2959C227.806 67.2959 220.853 74.2494 220.853 82.827C220.853 91.4045 227.806 98.358 236.384 98.358Z" stroke="black" stroke-width="5" stroke-miterlimit="10"/>
<path d="M267.529 98.358C276.107 98.358 283.06 91.4045 283.06 82.827C283.06 74.2494 276.107 67.2959 267.529 67.2959C258.952 67.2959 251.998 74.2494 251.998 82.827C251.998 91.4045 258.952 98.358 267.529 98.358Z" stroke="black" stroke-width="5" stroke-miterlimit="10"/>
<path d="M298.675 67.2125C307.252 67.2125 314.206 60.259 314.206 51.6815C314.206 43.1039 307.252 36.1504 298.675 36.1504C290.097 36.1504 283.144 43.1039 283.144 51.6815C283.144 60.259 290.097 67.2125 298.675 67.2125Z" stroke="black" stroke-width="5" stroke-miterlimit="10"/>
<path d="M298.675 98.358C307.252 98.358 314.206 91.4045 314.206 82.827C314.206 74.2494 307.252 67.2959 298.675 67.2959C290.097 67.2959 283.144 74.2494 283.144 82.827C283.144 91.4045 290.097 98.358 298.675 98.358Z" stroke="black" stroke-width="5" stroke-miterlimit="10"/>
<path d="M329.737 98.358C338.315 98.358 345.268 91.4045 345.268 82.827C345.268 74.2494 338.315 67.2959 329.737 67.2959C321.16 67.2959 314.206 74.2494 314.206 82.827C314.206 91.4045 321.16 98.358 329.737 98.358Z" stroke="black" stroke-width="5" stroke-miterlimit="10"/>
<path d="M298.675 129.504C307.252 129.504 314.206 122.55 314.206 113.972C314.206 105.395 307.252 98.4414 298.675 98.4414C290.097 98.4414 283.144 105.395 283.144 113.972C283.144 122.55 290.097 129.504 298.675 129.504Z" stroke="black" stroke-width="5" stroke-miterlimit="10"/>
<path d="M329.737 129.504C338.315 129.504 345.268 122.55 345.268 113.972C345.268 105.395 338.315 98.4414 329.737 98.4414C321.16 98.4414 314.206 105.395 314.206 113.972C314.206 122.55 321.16 129.504 329.737 129.504Z" stroke="black" stroke-width="5" stroke-miterlimit="10"/>
<path d="M267.529 129.504C276.107 129.504 283.06 122.55 283.06 113.972C283.06 105.395 276.107 98.4414 267.529 98.4414C258.952 98.4414 251.998 105.395 251.998 113.972C251.998 122.55 258.952 129.504 267.529 129.504Z" stroke="black" stroke-width="5" stroke-miterlimit="10"/>
<path d="M267.529 160.565C276.107 160.565 283.06 153.612 283.06 145.034C283.06 136.456 276.107 129.503 267.529 129.503C258.952 129.503 251.998 136.456 251.998 145.034C251.998 153.612 258.952 160.565 267.529 160.565Z" stroke="black" stroke-width="5" stroke-miterlimit="10"/>
<path d="M298.675 160.565C307.252 160.565 314.206 153.612 314.206 145.034C314.206 136.456 307.252 129.503 298.675 129.503C290.097 129.503 283.144 136.456 283.144 145.034C283.144 153.612 290.097 160.565 298.675 160.565Z" stroke="black" stroke-width="5" stroke-miterlimit="10"/>
<path d="M329.737 160.565C338.315 160.565 345.268 153.612 345.268 145.034C345.268 136.456 338.315 129.503 329.737 129.503C321.16 129.503 314.206 136.456 314.206 145.034C314.206 153.612 321.16 160.565 329.737 160.565Z" stroke="black" stroke-width="5" stroke-miterlimit="10"/>
<path d="M298.675 191.712C307.252 191.712 314.206 184.758 314.206 176.18C314.206 167.603 307.252 160.649 298.675 160.649C290.097 160.649 283.144 167.603 283.144 176.18C283.144 184.758 290.097 191.712 298.675 191.712Z" stroke="black" stroke-width="5" stroke-miterlimit="10"/>
<path d="M329.737 191.712C338.315 191.712 345.268 184.758 345.268 176.18C345.268 167.603 338.315 160.649 329.737 160.649C321.16 160.649 314.206 167.603 314.206 176.18C314.206 184.758 321.16 191.712 329.737 191.712Z" stroke="black" stroke-width="5" stroke-miterlimit="10"/>
<path d="M267.529 191.712C276.107 191.712 283.06 184.758 283.06 176.18C283.06 167.603 276.107 160.649 267.529 160.649C258.952 160.649 251.998 167.603 251.998 176.18C251.998 184.758 258.952 191.712 267.529 191.712Z" stroke="black" stroke-width="5" stroke-miterlimit="10"/>
<path d="M267.529 160.565C276.107 160.565 283.06 153.612 283.06 145.034C283.06 136.456 276.107 129.503 267.529 129.503C258.952 129.503 251.998 136.456 251.998 145.034C251.998 153.612 258.952 160.565 267.529 160.565Z" stroke="black" stroke-width="5" stroke-miterlimit="10"/>
<path d="M298.675 160.565C307.252 160.565 314.206 153.612 314.206 145.034C314.206 136.456 307.252 129.503 298.675 129.503C290.097 129.503 283.144 136.456 283.144 145.034C283.144 153.612 290.097 160.565 298.675 160.565Z" stroke="black" stroke-width="5" stroke-miterlimit="10"/>
<path d="M329.737 160.565C338.315 160.565 345.268 153.612 345.268 145.034C345.268 136.456 338.315 129.503 329.737 129.503C321.16 129.503 314.206 136.456 314.206 145.034C314.206 153.612 321.16 160.565 329.737 160.565Z" stroke="black" stroke-width="5" stroke-miterlimit="10"/>
<path d="M298.675 191.712C307.252 191.712 314.206 184.758 314.206 176.18C314.206 167.603 307.252 160.649 298.675 160.649C290.097 160.649 283.144 167.603 283.144 176.18C283.144 184.758 290.097 191.712 298.675 191.712Z" stroke="black" stroke-width="5" stroke-miterlimit="10"/>
<path d="M329.737 191.712C338.315 191.712 345.268 184.758 345.268 176.18C345.268 167.603 338.315 160.649 329.737 160.649C321.16 160.649 314.206 167.603 314.206 176.18C314.206 184.758 321.16 191.712 329.737 191.712Z" stroke="black" stroke-width="5" stroke-miterlimit="10"/>
<path d="M267.529 191.712C276.107 191.712 283.06 184.758 283.06 176.18C283.06 167.603 276.107 160.649 267.529 160.649C258.952 160.649 251.998 167.603 251.998 176.18C251.998 184.758 258.952 191.712 267.529 191.712Z" stroke="black" stroke-width="5" stroke-miterlimit="10"/>
<path d="M236.384 222.857C244.961 222.857 251.915 215.904 251.915 207.326C251.915 198.748 244.961 191.795 236.384 191.795C227.806 191.795 220.853 198.748 220.853 207.326C220.853 215.904 227.806 222.857 236.384 222.857Z" stroke="black" stroke-width="5" stroke-miterlimit="10"/>
<path d="M267.529 222.857C276.107 222.857 283.06 215.904 283.06 207.326C283.06 198.748 276.107 191.795 267.529 191.795C258.952 191.795 251.998 198.748 251.998 207.326C251.998 215.904 258.952 222.857 267.529 222.857Z" stroke="black" stroke-width="5" stroke-miterlimit="10"/>
<path d="M298.675 222.857C307.252 222.857 314.206 215.904 314.206 207.326C314.206 198.748 307.252 191.795 298.675 191.795C290.097 191.795 283.144 198.748 283.144 207.326C283.144 215.904 290.097 222.857 298.675 222.857Z" stroke="black" stroke-width="5" stroke-miterlimit="10"/>
<path d="M267.529 253.919C276.107 253.919 283.06 246.965 283.06 238.388C283.06 229.81 276.107 222.856 267.529 222.856C258.952 222.856 251.998 229.81 251.998 238.388C251.998 246.965 258.952 253.919 267.529 253.919Z" stroke="black" stroke-width="5" stroke-miterlimit="10"/>
<path d="M236.384 253.919C244.961 253.919 251.915 246.965 251.915 238.388C251.915 229.81 244.961 222.856 236.384 222.856C227.806 222.856 220.853 229.81 220.853 238.388C220.853 246.965 227.806 253.919 236.384 253.919Z" stroke="black" stroke-width="5" stroke-miterlimit="10"/>
<path d="M267.529 222.857C276.107 222.857 283.06 215.904 283.06 207.326C283.06 198.748 276.107 191.795 267.529 191.795C258.952 191.795 251.998 198.748 251.998 207.326C251.998 215.904 258.952 222.857 267.529 222.857Z" stroke="black" stroke-width="5" stroke-miterlimit="10"/>
<path d="M298.675 222.857C307.252 222.857 314.206 215.904 314.206 207.326C314.206 198.748 307.252 191.795 298.675 191.795C290.097 191.795 283.144 198.748 283.144 207.326C283.144 215.904 290.097 222.857 298.675 222.857Z" stroke="black" stroke-width="5" stroke-miterlimit="10"/>
<path d="M111.885 222.857C120.462 222.857 127.416 215.904 127.416 207.326C127.416 198.748 120.462 191.795 111.885 191.795C103.307 191.795 96.3535 198.748 96.3535 207.326C96.3535 215.904 103.307 222.857 111.885 222.857Z" stroke="black" stroke-width="5" stroke-miterlimit="10"/>
<path d="M143.03 222.857C151.608 222.857 158.561 215.904 158.561 207.326C158.561 198.748 151.608 191.795 143.03 191.795C134.453 191.795 127.499 198.748 127.499 207.326C127.499 215.904 134.453 222.857 143.03 222.857Z" stroke="black" stroke-width="5" stroke-miterlimit="10"/>
<path d="M174.176 222.857C182.753 222.857 189.707 215.904 189.707 207.326C189.707 198.748 182.753 191.795 174.176 191.795C165.598 191.795 158.645 198.748 158.645 207.326C158.645 215.904 165.598 222.857 174.176 222.857Z" stroke="black" stroke-width="5" stroke-miterlimit="10"/>
<path d="M143.03 253.919C151.608 253.919 158.561 246.965 158.561 238.388C158.561 229.81 151.608 222.856 143.03 222.856C134.453 222.856 127.499 229.81 127.499 238.388C127.499 246.965 134.453 253.919 143.03 253.919Z" stroke="black" stroke-width="5" stroke-miterlimit="10"/>
<path d="M174.176 253.919C182.753 253.919 189.707 246.965 189.707 238.388C189.707 229.81 182.753 222.856 174.176 222.856C165.598 222.856 158.645 229.81 158.645 238.388C158.645 246.965 165.598 253.919 174.176 253.919Z" stroke="black" stroke-width="5" stroke-miterlimit="10"/>
<path d="M111.885 253.919C120.462 253.919 127.416 246.965 127.416 238.388C127.416 229.81 120.462 222.856 111.885 222.856C103.307 222.856 96.3535 229.81 96.3535 238.388C96.3535 246.965 103.307 253.919 111.885 253.919Z" stroke="black" stroke-width="5" stroke-miterlimit="10"/>
<path d="M205.238 222.857C213.816 222.857 220.769 215.904 220.769 207.326C220.769 198.748 213.816 191.795 205.238 191.795C196.661 191.795 189.707 198.748 189.707 207.326C189.707 215.904 196.661 222.857 205.238 222.857Z" stroke="black" stroke-width="5" stroke-miterlimit="10"/>
<path d="M205.238 253.919C213.816 253.919 220.769 246.965 220.769 238.388C220.769 229.81 213.816 222.856 205.238 222.856C196.661 222.856 189.707 229.81 189.707 238.388C189.707 246.965 196.661 253.919 205.238 253.919Z" stroke="black" stroke-width="5" stroke-miterlimit="10"/>
<path d="M236.384 285.064C244.961 285.064 251.915 278.111 251.915 269.533C251.915 260.955 244.961 254.002 236.384 254.002C227.806 254.002 220.853 260.955 220.853 269.533C220.853 278.111 227.806 285.064 236.384 285.064Z" stroke="black" stroke-width="5" stroke-miterlimit="10"/>
<path d="M143.03 285.064C151.608 285.064 158.561 278.111 158.561 269.533C158.561 260.955 151.608 254.002 143.03 254.002C134.453 254.002 127.499 260.955 127.499 269.533C127.499 278.111 134.453 285.064 143.03 285.064Z" stroke="black" stroke-width="5" stroke-miterlimit="10"/>
<path d="M174.176 285.064C182.753 285.064 189.707 278.111 189.707 269.533C189.707 260.955 182.753 254.002 174.176 254.002C165.598 254.002 158.645 260.955 158.645 269.533C158.645 278.111 165.598 285.064 174.176 285.064Z" stroke="black" stroke-width="5" stroke-miterlimit="10"/>
<path d="M111.885 285.064C120.462 285.064 127.416 278.111 127.416 269.533C127.416 260.955 120.462 254.002 111.885 254.002C103.307 254.002 96.3535 260.955 96.3535 269.533C96.3535 278.111 103.307 285.064 111.885 285.064Z" stroke="black" stroke-width="5" stroke-miterlimit="10"/>
<path d="M205.238 285.064C213.816 285.064 220.769 278.111 220.769 269.533C220.769 260.955 213.816 254.002 205.238 254.002C196.661 254.002 189.707 260.955 189.707 269.533C189.707 278.111 196.661 285.064 205.238 285.064Z" stroke="black" stroke-width="5" stroke-miterlimit="10"/>
<path d="M267.529 347.356C276.107 347.356 283.06 340.403 283.06 331.825C283.06 323.247 276.107 316.294 267.529 316.294C258.952 316.294 251.998 323.247 251.998 331.825C251.998 340.403 258.952 347.356 267.529 347.356Z" stroke="black" stroke-width="5" stroke-miterlimit="10"/>
<path d="M236.384 347.356C244.961 347.356 251.915 340.403 251.915 331.825C251.915 323.247 244.961 316.294 236.384 316.294C227.806 316.294 220.853 323.247 220.853 331.825C220.853 340.403 227.806 347.356 236.384 347.356Z" stroke="black" stroke-width="5" stroke-miterlimit="10"/>
<path d="M236.384 316.211C244.961 316.211 251.915 309.257 251.915 300.68C251.915 292.102 244.961 285.148 236.384 285.148C227.806 285.148 220.853 292.102 220.853 300.68C220.853 309.257 227.806 316.211 236.384 316.211Z" stroke="black" stroke-width="5" stroke-miterlimit="10"/>
<path d="M267.529 316.211C276.107 316.211 283.06 309.257 283.06 300.68C283.06 292.102 276.107 285.148 267.529 285.148C258.952 285.148 251.998 292.102 251.998 300.68C251.998 309.257 258.952 316.211 267.529 316.211Z" stroke="black" stroke-width="5" stroke-miterlimit="10"/>
<path d="M267.529 347.356C276.107 347.356 283.06 340.403 283.06 331.825C283.06 323.247 276.107 316.294 267.529 316.294C258.952 316.294 251.998 323.247 251.998 331.825C251.998 340.403 258.952 347.356 267.529 347.356Z" stroke="black" stroke-width="5" stroke-miterlimit="10"/>
<path d="M236.384 347.356C244.961 347.356 251.915 340.403 251.915 331.825C251.915 323.247 244.961 316.294 236.384 316.294C227.806 316.294 220.853 323.247 220.853 331.825C220.853 340.403 227.806 347.356 236.384 347.356Z" stroke="black" stroke-width="5" stroke-miterlimit="10"/>
<path d="M205.238 316.211C213.816 316.211 220.769 309.257 220.769 300.68C220.769 292.102 213.816 285.148 205.238 285.148C196.661 285.148 189.707 292.102 189.707 300.68C189.707 309.257 196.661 316.211 205.238 316.211Z" stroke="black" stroke-width="5" stroke-miterlimit="10"/>
<path d="M298.675 347.356C307.252 347.356 314.206 340.403 314.206 331.825C314.206 323.247 307.252 316.294 298.675 316.294C290.097 316.294 283.144 323.247 283.144 331.825C283.144 340.403 290.097 347.356 298.675 347.356Z" stroke="black" stroke-width="5" stroke-miterlimit="10"/>
<path d="M298.675 378.418C307.252 378.418 314.206 371.464 314.206 362.887C314.206 354.309 307.252 347.355 298.675 347.355C290.097 347.355 283.144 354.309 283.144 362.887C283.144 371.464 290.097 378.418 298.675 378.418Z" stroke="black" stroke-width="5" stroke-miterlimit="10"/>
<path d="M267.529 378.418C276.107 378.418 283.06 371.464 283.06 362.887C283.06 354.309 276.107 347.355 267.529 347.355C258.952 347.355 251.998 354.309 251.998 362.887C251.998 371.464 258.952 378.418 267.529 378.418Z" stroke="black" stroke-width="5" stroke-miterlimit="10"/>
<path d="M298.675 378.418C307.252 378.418 314.206 371.464 314.206 362.887C314.206 354.309 307.252 347.355 298.675 347.355C290.097 347.355 283.144 354.309 283.144 362.887C283.144 371.464 290.097 378.418 298.675 378.418Z" stroke="black" stroke-width="5" stroke-miterlimit="10"/>
<path d="M267.529 378.418C276.107 378.418 283.06 371.464 283.06 362.887C283.06 354.309 276.107 347.355 267.529 347.355C258.952 347.355 251.998 354.309 251.998 362.887C251.998 371.464 258.952 378.418 267.529 378.418Z" stroke="black" stroke-width="5" stroke-miterlimit="10"/>
<path d="M236.384 378.418C244.961 378.418 251.915 371.464 251.915 362.887C251.915 354.309 244.961 347.355 236.384 347.355C227.806 347.355 220.853 354.309 220.853 362.887C220.853 371.464 227.806 378.418 236.384 378.418Z" stroke="black" stroke-width="5" stroke-miterlimit="10"/>
<path d="M236.384 378.418C244.961 378.418 251.915 371.464 251.915 362.887C251.915 354.309 244.961 347.355 236.384 347.355C227.806 347.355 220.853 354.309 220.853 362.887C220.853 371.464 227.806 378.418 236.384 378.418Z" stroke="black" stroke-width="5" stroke-miterlimit="10"/>
<path d="M298.675 409.563C307.252 409.563 314.206 402.61 314.206 394.032C314.206 385.454 307.252 378.501 298.675 378.501C290.097 378.501 283.144 385.454 283.144 394.032C283.144 402.61 290.097 409.563 298.675 409.563Z" stroke="black" stroke-width="5" stroke-miterlimit="10"/>
<path d="M267.529 409.563C276.107 409.563 283.06 402.61 283.06 394.032C283.06 385.454 276.107 378.501 267.529 378.501C258.952 378.501 251.998 385.454 251.998 394.032C251.998 402.61 258.952 409.563 267.529 409.563Z" stroke="black" stroke-width="5" stroke-miterlimit="10"/>
<path d="M298.675 409.563C307.252 409.563 314.206 402.61 314.206 394.032C314.206 385.454 307.252 378.501 298.675 378.501C290.097 378.501 283.144 385.454 283.144 394.032C283.144 402.61 290.097 409.563 298.675 409.563Z" stroke="black" stroke-width="5" stroke-miterlimit="10"/>
<path d="M267.529 409.563C276.107 409.563 283.06 402.61 283.06 394.032C283.06 385.454 276.107 378.501 267.529 378.501C258.952 378.501 251.998 385.454 251.998 394.032C251.998 402.61 258.952 409.563 267.529 409.563Z" stroke="black" stroke-width="5" stroke-miterlimit="10"/>
<path d="M329.737 409.563C338.315 409.563 345.268 402.61 345.268 394.032C345.268 385.454 338.315 378.501 329.737 378.501C321.16 378.501 314.206 385.454 314.206 394.032C314.206 402.61 321.16 409.563 329.737 409.563Z" stroke="black" stroke-width="5" stroke-miterlimit="10"/>
<path d="M329.737 440.71C338.315 440.71 345.268 433.756 345.268 425.179C345.268 416.601 338.315 409.647 329.737 409.647C321.16 409.647 314.206 416.601 314.206 425.179C314.206 433.756 321.16 440.71 329.737 440.71Z" stroke="black" stroke-width="5" stroke-miterlimit="10"/>
<path d="M298.675 440.71C307.252 440.71 314.206 433.756 314.206 425.179C314.206 416.601 307.252 409.647 298.675 409.647C290.097 409.647 283.144 416.601 283.144 425.179C283.144 433.756 290.097 440.71 298.675 440.71Z" stroke="black" stroke-width="5" stroke-miterlimit="10"/>
<path d="M329.737 440.71C338.315 440.71 345.268 433.756 345.268 425.179C345.268 416.601 338.315 409.647 329.737 409.647C321.16 409.647 314.206 416.601 314.206 425.179C314.206 433.756 321.16 440.71 329.737 440.71Z" stroke="black" stroke-width="5" stroke-miterlimit="10"/>
<path d="M298.675 440.71C307.252 440.71 314.206 433.756 314.206 425.179C314.206 416.601 307.252 409.647 298.675 409.647C290.097 409.647 283.144 416.601 283.144 425.179C283.144 433.756 290.097 440.71 298.675 440.71Z" stroke="black" stroke-width="5" stroke-miterlimit="10"/>
<path d="M267.529 440.71C276.107 440.71 283.06 433.756 283.06 425.179C283.06 416.601 276.107 409.647 267.529 409.647C258.952 409.647 251.998 416.601 251.998 425.179C251.998 433.756 258.952 440.71 267.529 440.71Z" stroke="black" stroke-width="5" stroke-miterlimit="10"/>
<path d="M267.529 440.71C276.107 440.71 283.06 433.756 283.06 425.179C283.06 416.601 276.107 409.647 267.529 409.647C258.952 409.647 251.998 416.601 251.998 425.179C251.998 433.756 258.952 440.71 267.529 440.71Z" stroke="black" stroke-width="5" stroke-miterlimit="10"/>
<path d="M329.737 471.771C338.315 471.771 345.268 464.818 345.268 456.24C345.268 447.662 338.315 440.709 329.737 440.709C321.16 440.709 314.206 447.662 314.206 456.24C314.206 464.818 321.16 471.771 329.737 471.771Z" stroke="black" stroke-width="5" stroke-miterlimit="10"/>
<path d="M298.675 471.771C307.252 471.771 314.206 464.818 314.206 456.24C314.206 447.662 307.252 440.709 298.675 440.709C290.097 440.709 283.144 447.662 283.144 456.24C283.144 464.818 290.097 471.771 298.675 471.771Z" stroke="black" stroke-width="5" stroke-miterlimit="10"/>
<path d="M329.737 471.771C338.315 471.771 345.268 464.818 345.268 456.24C345.268 447.662 338.315 440.709 329.737 440.709C321.16 440.709 314.206 447.662 314.206 456.24C314.206 464.818 321.16 471.771 329.737 471.771Z" stroke="black" stroke-width="5" stroke-miterlimit="10"/>
<path d="M298.675 471.771C307.252 471.771 314.206 464.818 314.206 456.24C314.206 447.662 307.252 440.709 298.675 440.709C290.097 440.709 283.144 447.662 283.144 456.24C283.144 464.818 290.097 471.771 298.675 471.771Z" stroke="black" stroke-width="5" stroke-miterlimit="10"/>
<path d="M360.883 471.771C369.46 471.771 376.414 464.818 376.414 456.24C376.414 447.662 369.46 440.709 360.883 440.709C352.305 440.709 345.352 447.662 345.352 456.24C345.352 464.818 352.305 471.771 360.883 471.771Z" stroke="black" stroke-width="5" stroke-miterlimit="10"/>
<path d="M360.883 502.917C369.46 502.917 376.414 495.963 376.414 487.386C376.414 478.808 369.46 471.854 360.883 471.854C352.305 471.854 345.352 478.808 345.352 487.386C345.352 495.963 352.305 502.917 360.883 502.917Z" stroke="black" stroke-width="5" stroke-miterlimit="10"/>
<path d="M329.737 502.917C338.315 502.917 345.268 495.963 345.268 487.386C345.268 478.808 338.315 471.854 329.737 471.854C321.16 471.854 314.206 478.808 314.206 487.386C314.206 495.963 321.16 502.917 329.737 502.917Z" stroke="black" stroke-width="5" stroke-miterlimit="10"/>
<path d="M360.883 502.917C369.46 502.917 376.414 495.963 376.414 487.386C376.414 478.808 369.46 471.854 360.883 471.854C352.305 471.854 345.352 478.808 345.352 487.386C345.352 495.963 352.305 502.917 360.883 502.917Z" stroke="black" stroke-width="5" stroke-miterlimit="10"/>
<path d="M329.737 502.917C338.315 502.917 345.268 495.963 345.268 487.386C345.268 478.808 338.315 471.854 329.737 471.854C321.16 471.854 314.206 478.808 314.206 487.386C314.206 495.963 321.16 502.917 329.737 502.917Z" stroke="black" stroke-width="5" stroke-miterlimit="10"/>
<path d="M298.675 502.917C307.252 502.917 314.206 495.963 314.206 487.386C314.206 478.808 307.252 471.854 298.675 471.854C290.097 471.854 283.144 478.808 283.144 487.386C283.144 495.963 290.097 502.917 298.675 502.917Z" stroke="black" stroke-width="5" stroke-miterlimit="10"/>
<path d="M298.675 502.917C307.252 502.917 314.206 495.963 314.206 487.386C314.206 478.808 307.252 471.854 298.675 471.854C290.097 471.854 283.144 478.808 283.144 487.386C283.144 495.963 290.097 502.917 298.675 502.917Z" stroke="black" stroke-width="5" stroke-miterlimit="10"/>
<path d="M267.529 471.771C276.107 471.771 283.06 464.818 283.06 456.24C283.06 447.662 276.107 440.709 267.529 440.709C258.952 440.709 251.998 447.662 251.998 456.24C251.998 464.818 258.952 471.771 267.529 471.771Z" stroke="black" stroke-width="5" stroke-miterlimit="10"/>
<path d="M411.066 34.0621C419.644 34.0621 426.597 27.1086 426.597 18.531C426.597 9.95347 419.644 3 411.066 3C402.489 3 395.535 9.95347 395.535 18.531C395.535 27.1086 402.489 34.0621 411.066 34.0621Z" stroke="black" stroke-width="5" stroke-miterlimit="10"/>
<path d="M442.212 34.0621C450.789 34.0621 457.743 27.1086 457.743 18.531C457.743 9.95347 450.789 3 442.212 3C433.634 3 426.681 9.95347 426.681 18.531C426.681 27.1086 433.634 34.0621 442.212 34.0621Z" stroke="black" stroke-width="5" stroke-miterlimit="10"/>
<path d="M473.357 34.0621C481.935 34.0621 488.888 27.1086 488.888 18.531C488.888 9.95347 481.935 3 473.357 3C464.78 3 457.826 9.95347 457.826 18.531C457.826 27.1086 464.78 34.0621 473.357 34.0621Z" stroke="black" stroke-width="5" stroke-miterlimit="10"/>
<path d="M411.066 65.2076C419.644 65.2076 426.597 58.2541 426.597 49.6766C426.597 41.099 419.644 34.1455 411.066 34.1455C402.489 34.1455 395.535 41.099 395.535 49.6766C395.535 58.2541 402.489 65.2076 411.066 65.2076Z" stroke="black" stroke-width="5" stroke-miterlimit="10"/>
<path d="M442.212 65.2076C450.789 65.2076 457.743 58.2541 457.743 49.6766C457.743 41.099 450.789 34.1455 442.212 34.1455C433.634 34.1455 426.681 41.099 426.681 49.6766C426.681 58.2541 433.634 65.2076 442.212 65.2076Z" stroke="black" stroke-width="5" stroke-miterlimit="10"/>
<path d="M473.357 65.2076C481.935 65.2076 488.888 58.2541 488.888 49.6766C488.888 41.099 481.935 34.1455 473.357 34.1455C464.78 34.1455 457.826 41.099 457.826 49.6766C457.826 58.2541 464.78 65.2076 473.357 65.2076Z" stroke="black" stroke-width="5" stroke-miterlimit="10"/>
<path d="M411.066 96.3532C419.644 96.3532 426.597 89.3997 426.597 80.8221C426.597 72.2445 419.644 65.291 411.066 65.291C402.489 65.291 395.535 72.2445 395.535 80.8221C395.535 89.3997 402.489 96.3532 411.066 96.3532Z" stroke="black" stroke-width="5" stroke-miterlimit="10"/>
<path d="M442.212 96.3532C450.789 96.3532 457.743 89.3997 457.743 80.8221C457.743 72.2445 450.789 65.291 442.212 65.291C433.634 65.291 426.681 72.2445 426.681 80.8221C426.681 89.3997 433.634 96.3532 442.212 96.3532Z" stroke="black" stroke-width="5" stroke-miterlimit="10"/>
<path d="M473.357 96.3532C481.935 96.3532 488.888 89.3997 488.888 80.8221C488.888 72.2445 481.935 65.291 473.357 65.291C464.78 65.291 457.826 72.2445 457.826 80.8221C457.826 89.3997 464.78 96.3532 473.357 96.3532Z" stroke="black" stroke-width="5" stroke-miterlimit="10"/>
<path d="M411.066 127.416C419.644 127.416 426.597 120.462 426.597 111.885C426.597 103.307 419.644 96.3535 411.066 96.3535C402.489 96.3535 395.535 103.307 395.535 111.885C395.535 120.462 402.489 127.416 411.066 127.416Z" stroke="black" stroke-width="5" stroke-miterlimit="10"/>
<path d="M442.212 127.416C450.789 127.416 457.743 120.462 457.743 111.885C457.743 103.307 450.789 96.3535 442.212 96.3535C433.634 96.3535 426.681 103.307 426.681 111.885C426.681 120.462 433.634 127.416 442.212 127.416Z" stroke="black" stroke-width="5" stroke-miterlimit="10"/>
<path d="M473.357 127.416C481.935 127.416 488.888 120.462 488.888 111.885C488.888 103.307 481.935 96.3535 473.357 96.3535C464.78 96.3535 457.826 103.307 457.826 111.885C457.826 120.462 464.78 127.416 473.357 127.416Z" stroke="black" stroke-width="5" stroke-miterlimit="10"/>
<path d="M411.066 158.561C419.644 158.561 426.597 151.608 426.597 143.03C426.597 134.453 419.644 127.499 411.066 127.499C402.489 127.499 395.535 134.453 395.535 143.03C395.535 151.608 402.489 158.561 411.066 158.561Z" stroke="black" stroke-width="5" stroke-miterlimit="10"/>
<path d="M442.212 158.561C450.789 158.561 457.743 151.608 457.743 143.03C457.743 134.453 450.789 127.499 442.212 127.499C433.634 127.499 426.681 134.453 426.681 143.03C426.681 151.608 433.634 158.561 442.212 158.561Z" stroke="black" stroke-width="5" stroke-miterlimit="10"/>
<path d="M473.357 158.561C481.935 158.561 488.888 151.608 488.888 143.03C488.888 134.453 481.935 127.499 473.357 127.499C464.78 127.499 457.826 134.453 457.826 143.03C457.826 151.608 464.78 158.561 473.357 158.561Z" stroke="black" stroke-width="5" stroke-miterlimit="10"/>
<path d="M411.066 189.707C419.644 189.707 426.597 182.753 426.597 174.176C426.597 165.598 419.644 158.645 411.066 158.645C402.489 158.645 395.535 165.598 395.535 174.176C395.535 182.753 402.489 189.707 411.066 189.707Z" stroke="black" stroke-width="5" stroke-miterlimit="10"/>
<path d="M442.212 189.707C450.789 189.707 457.743 182.753 457.743 174.176C457.743 165.598 450.789 158.645 442.212 158.645C433.634 158.645 426.681 165.598 426.681 174.176C426.681 182.753 433.634 189.707 442.212 189.707Z" stroke="black" stroke-width="5" stroke-miterlimit="10"/>
<path d="M473.357 189.707C481.935 189.707 488.888 182.753 488.888 174.176C488.888 165.598 481.935 158.645 473.357 158.645C464.78 158.645 457.826 165.598 457.826 174.176C457.826 182.753 464.78 189.707 473.357 189.707Z" stroke="black" stroke-width="5" stroke-miterlimit="10"/>
<path d="M411.066 220.769C419.644 220.769 426.597 213.816 426.597 205.238C426.597 196.661 419.644 189.707 411.066 189.707C402.489 189.707 395.535 196.661 395.535 205.238C395.535 213.816 402.489 220.769 411.066 220.769Z" stroke="black" stroke-width="5" stroke-miterlimit="10"/>
<path d="M442.212 220.769C450.789 220.769 457.743 213.816 457.743 205.238C457.743 196.661 450.789 189.707 442.212 189.707C433.634 189.707 426.681 196.661 426.681 205.238C426.681 213.816 433.634 220.769 442.212 220.769Z" stroke="black" stroke-width="5" stroke-miterlimit="10"/>
<path d="M473.357 220.769C481.935 220.769 488.888 213.816 488.888 205.238C488.888 196.661 481.935 189.707 473.357 189.707C464.78 189.707 457.826 196.661 457.826 205.238C457.826 213.816 464.78 220.769 473.357 220.769Z" stroke="black" stroke-width="5" stroke-miterlimit="10"/>
<path d="M411.066 251.915C419.644 251.915 426.597 244.961 426.597 236.384C426.597 227.806 419.644 220.853 411.066 220.853C402.489 220.853 395.535 227.806 395.535 236.384C395.535 244.961 402.489 251.915 411.066 251.915Z" stroke="black" stroke-width="5" stroke-miterlimit="10"/>
<path d="M442.212 251.915C450.789 251.915 457.743 244.961 457.743 236.384C457.743 227.806 450.789 220.853 442.212 220.853C433.634 220.853 426.681 227.806 426.681 236.384C426.681 244.961 433.634 251.915 442.212 251.915Z" stroke="black" stroke-width="5" stroke-miterlimit="10"/>
<path d="M473.357 251.915C481.935 251.915 488.888 244.961 488.888 236.384C488.888 227.806 481.935 220.853 473.357 220.853C464.78 220.853 457.826 227.806 457.826 236.384C457.826 244.961 464.78 251.915 473.357 251.915Z" stroke="black" stroke-width="5" stroke-miterlimit="10"/>
<path d="M411.066 283.06C419.644 283.06 426.597 276.107 426.597 267.529C426.597 258.952 419.644 251.998 411.066 251.998C402.489 251.998 395.535 258.952 395.535 267.529C395.535 276.107 402.489 283.06 411.066 283.06Z" stroke="black" stroke-width="5" stroke-miterlimit="10"/>
<path d="M442.212 283.06C450.789 283.06 457.743 276.107 457.743 267.529C457.743 258.952 450.789 251.998 442.212 251.998C433.634 251.998 426.681 258.952 426.681 267.529C426.681 276.107 433.634 283.06 442.212 283.06Z" stroke="black" stroke-width="5" stroke-miterlimit="10"/>
<path d="M473.357 283.06C481.935 283.06 488.888 276.107 488.888 267.529C488.888 258.952 481.935 251.998 473.357 251.998C464.78 251.998 457.826 258.952 457.826 267.529C457.826 276.107 464.78 283.06 473.357 283.06Z" stroke="black" stroke-width="5" stroke-miterlimit="10"/>
<path d="M411.066 314.206C419.644 314.206 426.597 307.252 426.597 298.675C426.597 290.097 419.644 283.144 411.066 283.144C402.489 283.144 395.535 290.097 395.535 298.675C395.535 307.252 402.489 314.206 411.066 314.206Z" stroke="black" stroke-width="5" stroke-miterlimit="10"/>
<path d="M442.212 314.206C450.789 314.206 457.743 307.252 457.743 298.675C457.743 290.097 450.789 283.144 442.212 283.144C433.634 283.144 426.681 290.097 426.681 298.675C426.681 307.252 433.634 314.206 442.212 314.206Z" stroke="black" stroke-width="5" stroke-miterlimit="10"/>
<path d="M473.357 314.206C481.935 314.206 488.888 307.252 488.888 298.675C488.888 290.097 481.935 283.144 473.357 283.144C464.78 283.144 457.826 290.097 457.826 298.675C457.826 307.252 464.78 314.206 473.357 314.206Z" stroke="black" stroke-width="5" stroke-miterlimit="10"/>
<path d="M411.066 345.268C419.644 345.268 426.597 338.315 426.597 329.737C426.597 321.16 419.644 314.206 411.066 314.206C402.489 314.206 395.535 321.16 395.535 329.737C395.535 338.315 402.489 345.268 411.066 345.268Z" stroke="black" stroke-width="5" stroke-miterlimit="10"/>
<path d="M442.212 345.268C450.789 345.268 457.743 338.315 457.743 329.737C457.743 321.16 450.789 314.206 442.212 314.206C433.634 314.206 426.681 321.16 426.681 329.737C426.681 338.315 433.634 345.268 442.212 345.268Z" stroke="black" stroke-width="5" stroke-miterlimit="10"/>
<path d="M473.357 345.268C481.935 345.268 488.888 338.315 488.888 329.737C488.888 321.16 481.935 314.206 473.357 314.206C464.78 314.206 457.826 321.16 457.826 329.737C457.826 338.315 464.78 345.268 473.357 345.268Z" stroke="black" stroke-width="5" stroke-miterlimit="10"/>
<path d="M411.066 376.414C419.644 376.414 426.597 369.46 426.597 360.883C426.597 352.305 419.644 345.352 411.066 345.352C402.489 345.352 395.535 352.305 395.535 360.883C395.535 369.46 402.489 376.414 411.066 376.414Z" stroke="black" stroke-width="5" stroke-miterlimit="10"/>
<path d="M442.212 376.414C450.789 376.414 457.743 369.46 457.743 360.883C457.743 352.305 450.789 345.352 442.212 345.352C433.634 345.352 426.681 352.305 426.681 360.883C426.681 369.46 433.634 376.414 442.212 376.414Z" stroke="black" stroke-width="5" stroke-miterlimit="10"/>
<path d="M473.357 376.414C481.935 376.414 488.888 369.46 488.888 360.883C488.888 352.305 481.935 345.352 473.357 345.352C464.78 345.352 457.826 352.305 457.826 360.883C457.826 369.46 464.78 376.414 473.357 376.414Z" stroke="black" stroke-width="5" stroke-miterlimit="10"/>
<path d="M411.066 407.559C419.644 407.559 426.597 400.606 426.597 392.028C426.597 383.451 419.644 376.497 411.066 376.497C402.489 376.497 395.535 383.451 395.535 392.028C395.535 400.606 402.489 407.559 411.066 407.559Z" stroke="black" stroke-width="5" stroke-miterlimit="10"/>
<path d="M442.212 407.559C450.789 407.559 457.743 400.606 457.743 392.028C457.743 383.451 450.789 376.497 442.212 376.497C433.634 376.497 426.681 383.451 426.681 392.028C426.681 400.606 433.634 407.559 442.212 407.559Z" stroke="black" stroke-width="5" stroke-miterlimit="10"/>
<path d="M473.357 407.559C481.935 407.559 488.888 400.606 488.888 392.028C488.888 383.451 481.935 376.497 473.357 376.497C464.78 376.497 457.826 383.451 457.826 392.028C457.826 400.606 464.78 407.559 473.357 407.559Z" stroke="black" stroke-width="5" stroke-miterlimit="10"/>
<path d="M411.066 438.621C419.644 438.621 426.597 431.667 426.597 423.09C426.597 414.512 419.644 407.559 411.066 407.559C402.489 407.559 395.535 414.512 395.535 423.09C395.535 431.667 402.489 438.621 411.066 438.621Z" stroke="black" stroke-width="5" stroke-miterlimit="10"/>
<path d="M442.212 438.621C450.789 438.621 457.743 431.667 457.743 423.09C457.743 414.512 450.789 407.559 442.212 407.559C433.634 407.559 426.681 414.512 426.681 423.09C426.681 431.667 433.634 438.621 442.212 438.621Z" stroke="black" stroke-width="5" stroke-miterlimit="10"/>
<path d="M473.357 438.621C481.935 438.621 488.888 431.667 488.888 423.09C488.888 414.512 481.935 407.559 473.357 407.559C464.78 407.559 457.826 414.512 457.826 423.09C457.826 431.667 464.78 438.621 473.357 438.621Z" stroke="black" stroke-width="5" stroke-miterlimit="10"/>
<path d="M411.066 469.767C419.644 469.767 426.597 462.814 426.597 454.236C426.597 445.659 419.644 438.705 411.066 438.705C402.489 438.705 395.535 445.659 395.535 454.236C395.535 462.814 402.489 469.767 411.066 469.767Z" stroke="black" stroke-width="5" stroke-miterlimit="10"/>
<path d="M442.212 469.767C450.789 469.767 457.743 462.814 457.743 454.236C457.743 445.659 450.789 438.705 442.212 438.705C433.634 438.705 426.681 445.659 426.681 454.236C426.681 462.814 433.634 469.767 442.212 469.767Z" stroke="black" stroke-width="5" stroke-miterlimit="10"/>
<path d="M473.357 469.767C481.935 469.767 488.888 462.814 488.888 454.236C488.888 445.659 481.935 438.705 473.357 438.705C464.78 438.705 457.826 445.659 457.826 454.236C457.826 462.814 464.78 469.767 473.357 469.767Z" stroke="black" stroke-width="5" stroke-miterlimit="10"/>
<path d="M411.066 500.913C419.644 500.913 426.597 493.959 426.597 485.382C426.597 476.804 419.644 469.851 411.066 469.851C402.489 469.851 395.535 476.804 395.535 485.382C395.535 493.959 402.489 500.913 411.066 500.913Z" stroke="black" stroke-width="5" stroke-miterlimit="10"/>
<path d="M442.212 500.913C450.789 500.913 457.743 493.959 457.743 485.382C457.743 476.804 450.789 469.851 442.212 469.851C433.634 469.851 426.681 476.804 426.681 485.382C426.681 493.959 433.634 500.913 442.212 500.913Z" stroke="black" stroke-width="5" stroke-miterlimit="10"/>
<path d="M473.357 500.913C481.935 500.913 488.888 493.959 488.888 485.382C488.888 476.804 481.935 469.851 473.357 469.851C464.78 469.851 457.826 476.804 457.826 485.382C457.826 493.959 464.78 500.913 473.357 500.913Z" stroke="black" stroke-width="5" stroke-miterlimit="10"/>
<path d="M504.42 36.233C512.997 36.233 519.951 29.2795 519.951 20.702C519.951 12.1244 512.997 5.1709 504.42 5.1709C495.842 5.1709 488.889 12.1244 488.889 20.702C488.889 29.2795 495.842 36.233 504.42 36.233Z" stroke="black" stroke-width="5" stroke-miterlimit="10"/>
<path d="M535.565 36.233C544.143 36.233 551.096 29.2795 551.096 20.702C551.096 12.1244 544.143 5.1709 535.565 5.1709C526.988 5.1709 520.034 12.1244 520.034 20.702C520.034 29.2795 526.988 36.233 535.565 36.233Z" stroke="black" stroke-width="5" stroke-miterlimit="10"/>
<path d="M504.42 67.2955C512.997 67.2955 519.951 60.342 519.951 51.7645C519.951 43.1869 512.997 36.2334 504.42 36.2334C495.842 36.2334 488.889 43.1869 488.889 51.7645C488.889 60.342 495.842 67.2955 504.42 67.2955Z" stroke="black" stroke-width="5" stroke-miterlimit="10"/>
<path d="M535.565 67.2955C544.143 67.2955 551.096 60.342 551.096 51.7645C551.096 43.1869 544.143 36.2334 535.565 36.2334C526.988 36.2334 520.034 43.1869 520.034 51.7645C520.034 60.342 526.988 67.2955 535.565 67.2955Z" stroke="black" stroke-width="5" stroke-miterlimit="10"/>
<path d="M566.711 67.2955C575.288 67.2955 582.242 60.342 582.242 51.7645C582.242 43.1869 575.288 36.2334 566.711 36.2334C558.133 36.2334 551.18 43.1869 551.18 51.7645C551.18 60.342 558.133 67.2955 566.711 67.2955Z" stroke="black" stroke-width="5" stroke-miterlimit="10"/>
<path d="M504.42 98.441C512.997 98.441 519.951 91.4875 519.951 82.91C519.951 74.3324 512.997 67.3789 504.42 67.3789C495.842 67.3789 488.889 74.3324 488.889 82.91C488.889 91.4875 495.842 98.441 504.42 98.441Z" stroke="black" stroke-width="5" stroke-miterlimit="10"/>
<path d="M535.565 98.441C544.143 98.441 551.096 91.4875 551.096 82.91C551.096 74.3324 544.143 67.3789 535.565 67.3789C526.988 67.3789 520.034 74.3324 520.034 82.91C520.034 91.4875 526.988 98.441 535.565 98.441Z" stroke="black" stroke-width="5" stroke-miterlimit="10"/>
<path d="M566.711 98.441C575.288 98.441 582.242 91.4875 582.242 82.91C582.242 74.3324 575.288 67.3789 566.711 67.3789C558.133 67.3789 551.18 74.3324 551.18 82.91C551.18 91.4875 558.133 98.441 566.711 98.441Z" stroke="black" stroke-width="5" stroke-miterlimit="10"/>
<path d="M566.711 67.2955C575.288 67.2955 582.242 60.342 582.242 51.7645C582.242 43.1869 575.288 36.2334 566.711 36.2334C558.133 36.2334 551.18 43.1869 551.18 51.7645C551.18 60.342 558.133 67.2955 566.711 67.2955Z" stroke="black" stroke-width="5" stroke-miterlimit="10"/>
<path d="M535.565 129.587C544.143 129.587 551.096 122.633 551.096 114.055C551.096 105.478 544.143 98.5244 535.565 98.5244C526.988 98.5244 520.034 105.478 520.034 114.055C520.034 122.633 526.988 129.587 535.565 129.587Z" stroke="black" stroke-width="5" stroke-miterlimit="10"/>
<path d="M566.711 129.587C575.288 129.587 582.242 122.633 582.242 114.055C582.242 105.478 575.288 98.5244 566.711 98.5244C558.133 98.5244 551.18 105.478 551.18 114.055C551.18 122.633 558.133 129.587 566.711 129.587Z" stroke="black" stroke-width="5" stroke-miterlimit="10"/>
<path d="M597.773 129.587C606.351 129.587 613.304 122.633 613.304 114.055C613.304 105.478 606.351 98.5244 597.773 98.5244C589.196 98.5244 582.242 105.478 582.242 114.055C582.242 122.633 589.196 129.587 597.773 129.587Z" stroke="black" stroke-width="5" stroke-miterlimit="10"/>
<path d="M535.565 160.649C544.143 160.649 551.096 153.696 551.096 145.118C551.096 136.54 544.143 129.587 535.565 129.587C526.988 129.587 520.034 136.54 520.034 145.118C520.034 153.696 526.988 160.649 535.565 160.649Z" stroke="black" stroke-width="5" stroke-miterlimit="10"/>
<path d="M566.711 160.649C575.288 160.649 582.242 153.696 582.242 145.118C582.242 136.54 575.288 129.587 566.711 129.587C558.133 129.587 551.18 136.54 551.18 145.118C551.18 153.696 558.133 160.649 566.711 160.649Z" stroke="black" stroke-width="5" stroke-miterlimit="10"/>
<path d="M597.773 160.649C606.351 160.649 613.304 153.696 613.304 145.118C613.304 136.54 606.351 129.587 597.773 129.587C589.196 129.587 582.242 136.54 582.242 145.118C582.242 153.696 589.196 160.649 597.773 160.649Z" stroke="black" stroke-width="5" stroke-miterlimit="10"/>
<path d="M535.565 191.795C544.143 191.795 551.096 184.841 551.096 176.263C551.096 167.686 544.143 160.732 535.565 160.732C526.988 160.732 520.034 167.686 520.034 176.263C520.034 184.841 526.988 191.795 535.565 191.795Z" stroke="black" stroke-width="5" stroke-miterlimit="10"/>
<path d="M566.711 191.795C575.288 191.795 582.242 184.841 582.242 176.263C582.242 167.686 575.288 160.732 566.711 160.732C558.133 160.732 551.18 167.686 551.18 176.263C551.18 184.841 558.133 191.795 566.711 191.795Z" stroke="black" stroke-width="5" stroke-miterlimit="10"/>
<path d="M597.773 191.795C606.351 191.795 613.304 184.841 613.304 176.263C613.304 167.686 606.351 160.732 597.773 160.732C589.196 160.732 582.242 167.686 582.242 176.263C582.242 184.841 589.196 191.795 597.773 191.795Z" stroke="black" stroke-width="5" stroke-miterlimit="10"/>
<path d="M535.565 222.94C544.143 222.94 551.096 215.987 551.096 207.409C551.096 198.831 544.143 191.878 535.565 191.878C526.988 191.878 520.034 198.831 520.034 207.409C520.034 215.987 526.988 222.94 535.565 222.94Z" stroke="black" stroke-width="5" stroke-miterlimit="10"/>
<path d="M566.711 222.94C575.288 222.94 582.242 215.987 582.242 207.409C582.242 198.831 575.288 191.878 566.711 191.878C558.133 191.878 551.18 198.831 551.18 207.409C551.18 215.987 558.133 222.94 566.711 222.94Z" stroke="black" stroke-width="5" stroke-miterlimit="10"/>
<path d="M597.773 222.94C606.351 222.94 613.304 215.987 613.304 207.409C613.304 198.831 606.351 191.878 597.773 191.878C589.196 191.878 582.242 198.831 582.242 207.409C582.242 215.987 589.196 222.94 597.773 222.94Z" stroke="black" stroke-width="5" stroke-miterlimit="10"/>
<path d="M535.565 254.002C544.143 254.002 551.096 247.048 551.096 238.471C551.096 229.893 544.143 222.939 535.565 222.939C526.988 222.939 520.034 229.893 520.034 238.471C520.034 247.048 526.988 254.002 535.565 254.002Z" stroke="black" stroke-width="5" stroke-miterlimit="10"/>
<path d="M566.711 254.002C575.288 254.002 582.242 247.048 582.242 238.471C582.242 229.893 575.288 222.939 566.711 222.939C558.133 222.939 551.18 229.893 551.18 238.471C551.18 247.048 558.133 254.002 566.711 254.002Z" stroke="black" stroke-width="5" stroke-miterlimit="10"/>
<path d="M597.773 254.002C606.351 254.002 613.304 247.048 613.304 238.471C613.304 229.893 606.351 222.939 597.773 222.939C589.196 222.939 582.242 229.893 582.242 238.471C582.242 247.048 589.196 254.002 597.773 254.002Z" stroke="black" stroke-width="5" stroke-miterlimit="10"/>
<path d="M566.711 285.148C575.288 285.148 582.242 278.195 582.242 269.617C582.242 261.039 575.288 254.086 566.711 254.086C558.133 254.086 551.18 261.039 551.18 269.617C551.18 278.195 558.133 285.148 566.711 285.148Z" stroke="black" stroke-width="5" stroke-miterlimit="10"/>
<path d="M597.773 285.148C606.351 285.148 613.304 278.195 613.304 269.617C613.304 261.039 606.351 254.086 597.773 254.086C589.196 254.086 582.242 261.039 582.242 269.617C582.242 278.195 589.196 285.148 597.773 285.148Z" stroke="black" stroke-width="5" stroke-miterlimit="10"/>
<path d="M566.711 316.294C575.288 316.294 582.242 309.34 582.242 300.763C582.242 292.185 575.288 285.231 566.711 285.231C558.133 285.231 551.18 292.185 551.18 300.763C551.18 309.34 558.133 316.294 566.711 316.294Z" stroke="black" stroke-width="5" stroke-miterlimit="10"/>
<path d="M597.773 316.294C606.351 316.294 613.304 309.34 613.304 300.763C613.304 292.185 606.351 285.231 597.773 285.231C589.196 285.231 582.242 292.185 582.242 300.763C582.242 309.34 589.196 316.294 597.773 316.294Z" stroke="black" stroke-width="5" stroke-miterlimit="10"/>
<path d="M566.711 347.439C575.288 347.439 582.242 340.486 582.242 331.908C582.242 323.33 575.288 316.377 566.711 316.377C558.133 316.377 551.18 323.33 551.18 331.908C551.18 340.486 558.133 347.439 566.711 347.439Z" stroke="black" stroke-width="5" stroke-miterlimit="10"/>
<path d="M597.773 347.439C606.351 347.439 613.304 340.486 613.304 331.908C613.304 323.33 606.351 316.377 597.773 316.377C589.196 316.377 582.242 323.33 582.242 331.908C582.242 340.486 589.196 347.439 597.773 347.439Z" stroke="black" stroke-width="5" stroke-miterlimit="10"/>
<path d="M628.919 347.439C637.496 347.439 644.45 340.486 644.45 331.908C644.45 323.33 637.496 316.377 628.919 316.377C620.341 316.377 613.388 323.33 613.388 331.908C613.388 340.486 620.341 347.439 628.919 347.439Z" stroke="black" stroke-width="5" stroke-miterlimit="10"/>
<path d="M597.773 378.501C606.351 378.501 613.304 371.547 613.304 362.97C613.304 354.392 606.351 347.438 597.773 347.438C589.196 347.438 582.242 354.392 582.242 362.97C582.242 371.547 589.196 378.501 597.773 378.501Z" stroke="black" stroke-width="5" stroke-miterlimit="10"/>
<path d="M628.919 378.501C637.496 378.501 644.45 371.547 644.45 362.97C644.45 354.392 637.496 347.438 628.919 347.438C620.341 347.438 613.388 354.392 613.388 362.97C613.388 371.547 620.341 378.501 628.919 378.501Z" stroke="black" stroke-width="5" stroke-miterlimit="10"/>
<path d="M567.463 409.646C576.04 409.646 582.994 402.693 582.994 394.115C582.994 385.537 576.04 378.584 567.463 378.584C558.885 378.584 551.932 385.537 551.932 394.115C551.932 402.693 558.885 409.646 567.463 409.646Z" stroke="black" stroke-width="5" stroke-miterlimit="10"/>
<path d="M598.524 409.646C607.102 409.646 614.055 402.693 614.055 394.115C614.055 385.537 607.102 378.584 598.524 378.584C589.947 378.584 582.993 385.537 582.993 394.115C582.993 402.693 589.947 409.646 598.524 409.646Z" stroke="black" stroke-width="5" stroke-miterlimit="10"/>
<path d="M629.67 409.646C638.247 409.646 645.201 402.693 645.201 394.115C645.201 385.537 638.247 378.584 629.67 378.584C621.092 378.584 614.139 385.537 614.139 394.115C614.139 402.693 621.092 409.646 629.67 409.646Z" stroke="black" stroke-width="5" stroke-miterlimit="10"/>
<path d="M567.463 440.793C576.04 440.793 582.994 433.839 582.994 425.262C582.994 416.684 576.04 409.73 567.463 409.73C558.885 409.73 551.932 416.684 551.932 425.262C551.932 433.839 558.885 440.793 567.463 440.793Z" stroke="black" stroke-width="5" stroke-miterlimit="10"/>
<path d="M598.524 440.793C607.102 440.793 614.055 433.839 614.055 425.262C614.055 416.684 607.102 409.73 598.524 409.73C589.947 409.73 582.993 416.684 582.993 425.262C582.993 433.839 589.947 440.793 598.524 440.793Z" stroke="black" stroke-width="5" stroke-miterlimit="10"/>
<path d="M629.67 440.793C638.247 440.793 645.201 433.839 645.201 425.262C645.201 416.684 638.247 409.73 629.67 409.73C621.092 409.73 614.139 416.684 614.139 425.262C614.139 433.839 621.092 440.793 629.67 440.793Z" stroke="black" stroke-width="5" stroke-miterlimit="10"/>
<path d="M598.524 471.854C607.102 471.854 614.055 464.901 614.055 456.323C614.055 447.745 607.102 440.792 598.524 440.792C589.947 440.792 582.993 447.745 582.993 456.323C582.993 464.901 589.947 471.854 598.524 471.854Z" stroke="black" stroke-width="5" stroke-miterlimit="10"/>
<path d="M629.67 471.854C638.247 471.854 645.201 464.901 645.201 456.323C645.201 447.745 638.247 440.792 629.67 440.792C621.092 440.792 614.139 447.745 614.139 456.323C614.139 464.901 621.092 471.854 629.67 471.854Z" stroke="black" stroke-width="5" stroke-miterlimit="10"/>
<path d="M629.67 503C638.247 503 645.201 496.046 645.201 487.469C645.201 478.891 638.247 471.938 629.67 471.938C621.092 471.938 614.139 478.891 614.139 487.469C614.139 496.046 621.092 503 629.67 503Z" stroke="black" stroke-width="5" stroke-miterlimit="10"/>
<path d="M660.816 409.646C669.394 409.646 676.347 402.693 676.347 394.115C676.347 385.537 669.394 378.584 660.816 378.584C652.239 378.584 645.285 385.537 645.285 394.115C645.285 402.693 652.239 409.646 660.816 409.646Z" stroke="black" stroke-width="5" stroke-miterlimit="10"/>
<path d="M660.816 440.793C669.394 440.793 676.347 433.839 676.347 425.262C676.347 416.684 669.394 409.73 660.816 409.73C652.239 409.73 645.285 416.684 645.285 425.262C645.285 433.839 652.239 440.793 660.816 440.793Z" stroke="black" stroke-width="5" stroke-miterlimit="10"/>
<path d="M660.816 471.854C669.394 471.854 676.347 464.901 676.347 456.323C676.347 447.745 669.394 440.792 660.816 440.792C652.239 440.792 645.285 447.745 645.285 456.323C645.285 464.901 652.239 471.854 660.816 471.854Z" stroke="black" stroke-width="5" stroke-miterlimit="10"/>
<path d="M660.816 503C669.394 503 676.347 496.046 676.347 487.469C676.347 478.891 669.394 471.938 660.816 471.938C652.239 471.938 645.285 478.891 645.285 487.469C645.285 496.046 652.239 503 660.816 503Z" stroke="black" stroke-width="5" stroke-miterlimit="10"/>
<path d="M910.482 34.0621C919.06 34.0621 926.013 27.1086 926.013 18.531C926.013 9.95347 919.06 3 910.482 3C901.905 3 894.951 9.95347 894.951 18.531C894.951 27.1086 901.905 34.0621 910.482 34.0621Z" stroke="black" stroke-width="5" stroke-miterlimit="10"/>
<path d="M879.42 34.0621C887.997 34.0621 894.951 27.1086 894.951 18.531C894.951 9.95347 887.997 3 879.42 3C870.842 3 863.889 9.95347 863.889 18.531C863.889 27.1086 870.842 34.0621 879.42 34.0621Z" stroke="black" stroke-width="5" stroke-miterlimit="10"/>
<path d="M848.274 34.0621C856.852 34.0621 863.805 27.1086 863.805 18.531C863.805 9.95347 856.852 3 848.274 3C839.697 3 832.743 9.95347 832.743 18.531C832.743 27.1086 839.697 34.0621 848.274 34.0621Z" stroke="black" stroke-width="5" stroke-miterlimit="10"/>
<path d="M910.482 65.2076C919.06 65.2076 926.013 58.2541 926.013 49.6766C926.013 41.099 919.06 34.1455 910.482 34.1455C901.905 34.1455 894.951 41.099 894.951 49.6766C894.951 58.2541 901.905 65.2076 910.482 65.2076Z" stroke="black" stroke-width="5" stroke-miterlimit="10"/>
<path d="M879.42 65.2076C887.997 65.2076 894.951 58.2541 894.951 49.6766C894.951 41.099 887.997 34.1455 879.42 34.1455C870.842 34.1455 863.889 41.099 863.889 49.6766C863.889 58.2541 870.842 65.2076 879.42 65.2076Z" stroke="black" stroke-width="5" stroke-miterlimit="10"/>
<path d="M848.274 65.2076C856.852 65.2076 863.805 58.2541 863.805 49.6766C863.805 41.099 856.852 34.1455 848.274 34.1455C839.697 34.1455 832.743 41.099 832.743 49.6766C832.743 58.2541 839.697 65.2076 848.274 65.2076Z" stroke="black" stroke-width="5" stroke-miterlimit="10"/>
<path d="M910.482 96.3532C919.06 96.3532 926.013 89.3997 926.013 80.8221C926.013 72.2445 919.06 65.291 910.482 65.291C901.905 65.291 894.951 72.2445 894.951 80.8221C894.951 89.3997 901.905 96.3532 910.482 96.3532Z" stroke="black" stroke-width="5" stroke-miterlimit="10"/>
<path d="M879.42 96.3532C887.997 96.3532 894.951 89.3997 894.951 80.8221C894.951 72.2445 887.997 65.291 879.42 65.291C870.842 65.291 863.889 72.2445 863.889 80.8221C863.889 89.3997 870.842 96.3532 879.42 96.3532Z" stroke="black" stroke-width="5" stroke-miterlimit="10"/>
<path d="M848.274 96.3532C856.852 96.3532 863.805 89.3997 863.805 80.8221C863.805 72.2445 856.852 65.291 848.274 65.291C839.697 65.291 832.743 72.2445 832.743 80.8221C832.743 89.3997 839.697 96.3532 848.274 96.3532Z" stroke="black" stroke-width="5" stroke-miterlimit="10"/>
<path d="M910.482 127.416C919.06 127.416 926.013 120.462 926.013 111.885C926.013 103.307 919.06 96.3535 910.482 96.3535C901.905 96.3535 894.951 103.307 894.951 111.885C894.951 120.462 901.905 127.416 910.482 127.416Z" stroke="black" stroke-width="5" stroke-miterlimit="10"/>
<path d="M879.42 127.416C887.997 127.416 894.951 120.462 894.951 111.885C894.951 103.307 887.997 96.3535 879.42 96.3535C870.842 96.3535 863.889 103.307 863.889 111.885C863.889 120.462 870.842 127.416 879.42 127.416Z" stroke="black" stroke-width="5" stroke-miterlimit="10"/>
<path d="M848.274 127.416C856.852 127.416 863.805 120.462 863.805 111.885C863.805 103.307 856.852 96.3535 848.274 96.3535C839.697 96.3535 832.743 103.307 832.743 111.885C832.743 120.462 839.697 127.416 848.274 127.416Z" stroke="black" stroke-width="5" stroke-miterlimit="10"/>
<path d="M910.482 158.561C919.06 158.561 926.013 151.608 926.013 143.03C926.013 134.453 919.06 127.499 910.482 127.499C901.905 127.499 894.951 134.453 894.951 143.03C894.951 151.608 901.905 158.561 910.482 158.561Z" stroke="black" stroke-width="5" stroke-miterlimit="10"/>
<path d="M879.42 158.561C887.997 158.561 894.951 151.608 894.951 143.03C894.951 134.453 887.997 127.499 879.42 127.499C870.842 127.499 863.889 134.453 863.889 143.03C863.889 151.608 870.842 158.561 879.42 158.561Z" stroke="black" stroke-width="5" stroke-miterlimit="10"/>
<path d="M848.274 158.561C856.852 158.561 863.805 151.608 863.805 143.03C863.805 134.453 856.852 127.499 848.274 127.499C839.697 127.499 832.743 134.453 832.743 143.03C832.743 151.608 839.697 158.561 848.274 158.561Z" stroke="black" stroke-width="5" stroke-miterlimit="10"/>
<path d="M910.482 189.707C919.06 189.707 926.013 182.753 926.013 174.176C926.013 165.598 919.06 158.645 910.482 158.645C901.905 158.645 894.951 165.598 894.951 174.176C894.951 182.753 901.905 189.707 910.482 189.707Z" stroke="black" stroke-width="5" stroke-miterlimit="10"/>
<path d="M879.42 189.707C887.997 189.707 894.951 182.753 894.951 174.176C894.951 165.598 887.997 158.645 879.42 158.645C870.842 158.645 863.889 165.598 863.889 174.176C863.889 182.753 870.842 189.707 879.42 189.707Z" stroke="black" stroke-width="5" stroke-miterlimit="10"/>
<path d="M848.274 189.707C856.852 189.707 863.805 182.753 863.805 174.176C863.805 165.598 856.852 158.645 848.274 158.645C839.697 158.645 832.743 165.598 832.743 174.176C832.743 182.753 839.697 189.707 848.274 189.707Z" stroke="black" stroke-width="5" stroke-miterlimit="10"/>
<path d="M910.482 220.769C919.06 220.769 926.013 213.816 926.013 205.238C926.013 196.661 919.06 189.707 910.482 189.707C901.905 189.707 894.951 196.661 894.951 205.238C894.951 213.816 901.905 220.769 910.482 220.769Z" stroke="black" stroke-width="5" stroke-miterlimit="10"/>
<path d="M879.42 220.769C887.997 220.769 894.951 213.816 894.951 205.238C894.951 196.661 887.997 189.707 879.42 189.707C870.842 189.707 863.889 196.661 863.889 205.238C863.889 213.816 870.842 220.769 879.42 220.769Z" stroke="black" stroke-width="5" stroke-miterlimit="10"/>
<path d="M848.274 220.769C856.852 220.769 863.805 213.816 863.805 205.238C863.805 196.661 856.852 189.707 848.274 189.707C839.697 189.707 832.743 196.661 832.743 205.238C832.743 213.816 839.697 220.769 848.274 220.769Z" stroke="black" stroke-width="5" stroke-miterlimit="10"/>
<path d="M910.482 251.915C919.06 251.915 926.013 244.961 926.013 236.384C926.013 227.806 919.06 220.853 910.482 220.853C901.905 220.853 894.951 227.806 894.951 236.384C894.951 244.961 901.905 251.915 910.482 251.915Z" stroke="black" stroke-width="5" stroke-miterlimit="10"/>
<path d="M879.42 251.915C887.997 251.915 894.951 244.961 894.951 236.384C894.951 227.806 887.997 220.853 879.42 220.853C870.842 220.853 863.889 227.806 863.889 236.384C863.889 244.961 870.842 251.915 879.42 251.915Z" stroke="black" stroke-width="5" stroke-miterlimit="10"/>
<path d="M848.274 251.915C856.852 251.915 863.805 244.961 863.805 236.384C863.805 227.806 856.852 220.853 848.274 220.853C839.697 220.853 832.743 227.806 832.743 236.384C832.743 244.961 839.697 251.915 848.274 251.915Z" stroke="black" stroke-width="5" stroke-miterlimit="10"/>
<path d="M910.482 283.06C919.06 283.06 926.013 276.107 926.013 267.529C926.013 258.952 919.06 251.998 910.482 251.998C901.905 251.998 894.951 258.952 894.951 267.529C894.951 276.107 901.905 283.06 910.482 283.06Z" stroke="black" stroke-width="5" stroke-miterlimit="10"/>
<path d="M879.42 283.06C887.997 283.06 894.951 276.107 894.951 267.529C894.951 258.952 887.997 251.998 879.42 251.998C870.842 251.998 863.889 258.952 863.889 267.529C863.889 276.107 870.842 283.06 879.42 283.06Z" stroke="black" stroke-width="5" stroke-miterlimit="10"/>
<path d="M848.274 283.06C856.852 283.06 863.805 276.107 863.805 267.529C863.805 258.952 856.852 251.998 848.274 251.998C839.697 251.998 832.743 258.952 832.743 267.529C832.743 276.107 839.697 283.06 848.274 283.06Z" stroke="black" stroke-width="5" stroke-miterlimit="10"/>
<path d="M910.482 314.206C919.06 314.206 926.013 307.252 926.013 298.675C926.013 290.097 919.06 283.144 910.482 283.144C901.905 283.144 894.951 290.097 894.951 298.675C894.951 307.252 901.905 314.206 910.482 314.206Z" stroke="black" stroke-width="5" stroke-miterlimit="10"/>
<path d="M879.42 314.206C887.997 314.206 894.951 307.252 894.951 298.675C894.951 290.097 887.997 283.144 879.42 283.144C870.842 283.144 863.889 290.097 863.889 298.675C863.889 307.252 870.842 314.206 879.42 314.206Z" stroke="black" stroke-width="5" stroke-miterlimit="10"/>
<path d="M848.274 314.206C856.852 314.206 863.805 307.252 863.805 298.675C863.805 290.097 856.852 283.144 848.274 283.144C839.697 283.144 832.743 290.097 832.743 298.675C832.743 307.252 839.697 314.206 848.274 314.206Z" stroke="black" stroke-width="5" stroke-miterlimit="10"/>
<path d="M910.482 345.268C919.06 345.268 926.013 338.315 926.013 329.737C926.013 321.16 919.06 314.206 910.482 314.206C901.905 314.206 894.951 321.16 894.951 329.737C894.951 338.315 901.905 345.268 910.482 345.268Z" stroke="black" stroke-width="5" stroke-miterlimit="10"/>
<path d="M879.42 345.268C887.997 345.268 894.951 338.315 894.951 329.737C894.951 321.16 887.997 314.206 879.42 314.206C870.842 314.206 863.889 321.16 863.889 329.737C863.889 338.315 870.842 345.268 879.42 345.268Z" stroke="black" stroke-width="5" stroke-miterlimit="10"/>
<path d="M848.274 345.268C856.852 345.268 863.805 338.315 863.805 329.737C863.805 321.16 856.852 314.206 848.274 314.206C839.697 314.206 832.743 321.16 832.743 329.737C832.743 338.315 839.697 345.268 848.274 345.268Z" stroke="black" stroke-width="5" stroke-miterlimit="10"/>
<path d="M910.482 376.414C919.06 376.414 926.013 369.46 926.013 360.883C926.013 352.305 919.06 345.352 910.482 345.352C901.905 345.352 894.951 352.305 894.951 360.883C894.951 369.46 901.905 376.414 910.482 376.414Z" stroke="black" stroke-width="5" stroke-miterlimit="10"/>
<path d="M879.42 376.414C887.997 376.414 894.951 369.46 894.951 360.883C894.951 352.305 887.997 345.352 879.42 345.352C870.842 345.352 863.889 352.305 863.889 360.883C863.889 369.46 870.842 376.414 879.42 376.414Z" stroke="black" stroke-width="5" stroke-miterlimit="10"/>
<path d="M848.274 376.414C856.852 376.414 863.805 369.46 863.805 360.883C863.805 352.305 856.852 345.352 848.274 345.352C839.697 345.352 832.743 352.305 832.743 360.883C832.743 369.46 839.697 376.414 848.274 376.414Z" stroke="black" stroke-width="5" stroke-miterlimit="10"/>
<path d="M910.482 407.559C919.06 407.559 926.013 400.606 926.013 392.028C926.013 383.451 919.06 376.497 910.482 376.497C901.905 376.497 894.951 383.451 894.951 392.028C894.951 400.606 901.905 407.559 910.482 407.559Z" stroke="black" stroke-width="5" stroke-miterlimit="10"/>
<path d="M879.42 407.559C887.997 407.559 894.951 400.606 894.951 392.028C894.951 383.451 887.997 376.497 879.42 376.497C870.842 376.497 863.889 383.451 863.889 392.028C863.889 400.606 870.842 407.559 879.42 407.559Z" stroke="black" stroke-width="5" stroke-miterlimit="10"/>
<path d="M848.274 407.559C856.852 407.559 863.805 400.606 863.805 392.028C863.805 383.451 856.852 376.497 848.274 376.497C839.697 376.497 832.743 383.451 832.743 392.028C832.743 400.606 839.697 407.559 848.274 407.559Z" stroke="black" stroke-width="5" stroke-miterlimit="10"/>
<path d="M910.482 438.621C919.06 438.621 926.013 431.667 926.013 423.09C926.013 414.512 919.06 407.559 910.482 407.559C901.905 407.559 894.951 414.512 894.951 423.09C894.951 431.667 901.905 438.621 910.482 438.621Z" stroke="black" stroke-width="5" stroke-miterlimit="10"/>
<path d="M879.42 438.621C887.997 438.621 894.951 431.667 894.951 423.09C894.951 414.512 887.997 407.559 879.42 407.559C870.842 407.559 863.889 414.512 863.889 423.09C863.889 431.667 870.842 438.621 879.42 438.621Z" stroke="black" stroke-width="5" stroke-miterlimit="10"/>
<path d="M848.274 438.621C856.852 438.621 863.805 431.667 863.805 423.09C863.805 414.512 856.852 407.559 848.274 407.559C839.697 407.559 832.743 414.512 832.743 423.09C832.743 431.667 839.697 438.621 848.274 438.621Z" stroke="black" stroke-width="5" stroke-miterlimit="10"/>
<path d="M910.482 469.767C919.06 469.767 926.013 462.814 926.013 454.236C926.013 445.659 919.06 438.705 910.482 438.705C901.905 438.705 894.951 445.659 894.951 454.236C894.951 462.814 901.905 469.767 910.482 469.767Z" stroke="black" stroke-width="5" stroke-miterlimit="10"/>
<path d="M879.42 469.767C887.997 469.767 894.951 462.814 894.951 454.236C894.951 445.659 887.997 438.705 879.42 438.705C870.842 438.705 863.889 445.659 863.889 454.236C863.889 462.814 870.842 469.767 879.42 469.767Z" stroke="black" stroke-width="5" stroke-miterlimit="10"/>
<path d="M848.274 469.767C856.852 469.767 863.805 462.814 863.805 454.236C863.805 445.659 856.852 438.705 848.274 438.705C839.697 438.705 832.743 445.659 832.743 454.236C832.743 462.814 839.697 469.767 848.274 469.767Z" stroke="black" stroke-width="5" stroke-miterlimit="10"/>
<path d="M910.482 500.913C919.06 500.913 926.013 493.959 926.013 485.382C926.013 476.804 919.06 469.851 910.482 469.851C901.905 469.851 894.951 476.804 894.951 485.382C894.951 493.959 901.905 500.913 910.482 500.913Z" stroke="black" stroke-width="5" stroke-miterlimit="10"/>
<path d="M879.42 500.913C887.997 500.913 894.951 493.959 894.951 485.382C894.951 476.804 887.997 469.851 879.42 469.851C870.842 469.851 863.889 476.804 863.889 485.382C863.889 493.959 870.842 500.913 879.42 500.913Z" stroke="black" stroke-width="5" stroke-miterlimit="10"/>
<path d="M848.274 500.913C856.852 500.913 863.805 493.959 863.805 485.382C863.805 476.804 856.852 469.851 848.274 469.851C839.697 469.851 832.743 476.804 832.743 485.382C832.743 493.959 839.697 500.913 848.274 500.913Z" stroke="black" stroke-width="5" stroke-miterlimit="10"/>
<path d="M817.129 36.233C825.706 36.233 832.66 29.2795 832.66 20.702C832.66 12.1244 825.706 5.1709 817.129 5.1709C808.551 5.1709 801.598 12.1244 801.598 20.702C801.598 29.2795 808.551 36.233 817.129 36.233Z" stroke="black" stroke-width="5" stroke-miterlimit="10"/>
<path d="M786.066 36.233C794.644 36.233 801.597 29.2795 801.597 20.702C801.597 12.1244 794.644 5.1709 786.066 5.1709C777.489 5.1709 770.535 12.1244 770.535 20.702C770.535 29.2795 777.489 36.233 786.066 36.233Z" stroke="black" stroke-width="5" stroke-miterlimit="10"/>
<path d="M817.129 67.2955C825.706 67.2955 832.66 60.342 832.66 51.7645C832.66 43.1869 825.706 36.2334 817.129 36.2334C808.551 36.2334 801.598 43.1869 801.598 51.7645C801.598 60.342 808.551 67.2955 817.129 67.2955Z" stroke="black" stroke-width="5" stroke-miterlimit="10"/>
<path d="M786.066 67.2955C794.644 67.2955 801.597 60.342 801.597 51.7645C801.597 43.1869 794.644 36.2334 786.066 36.2334C777.489 36.2334 770.535 43.1869 770.535 51.7645C770.535 60.342 777.489 67.2955 786.066 67.2955Z" stroke="black" stroke-width="5" stroke-miterlimit="10"/>
<path d="M754.921 67.2955C763.498 67.2955 770.452 60.342 770.452 51.7645C770.452 43.1869 763.498 36.2334 754.921 36.2334C746.343 36.2334 739.39 43.1869 739.39 51.7645C739.39 60.342 746.343 67.2955 754.921 67.2955Z" stroke="black" stroke-width="5" stroke-miterlimit="10"/>
<path d="M817.129 98.441C825.706 98.441 832.66 91.4875 832.66 82.91C832.66 74.3324 825.706 67.3789 817.129 67.3789C808.551 67.3789 801.598 74.3324 801.598 82.91C801.598 91.4875 808.551 98.441 817.129 98.441Z" stroke="black" stroke-width="5" stroke-miterlimit="10"/>
<path d="M786.066 98.441C794.644 98.441 801.597 91.4875 801.597 82.91C801.597 74.3324 794.644 67.3789 786.066 67.3789C777.489 67.3789 770.535 74.3324 770.535 82.91C770.535 91.4875 777.489 98.441 786.066 98.441Z" stroke="black" stroke-width="5" stroke-miterlimit="10"/>
<path d="M754.921 98.441C763.498 98.441 770.452 91.4875 770.452 82.91C770.452 74.3324 763.498 67.3789 754.921 67.3789C746.343 67.3789 739.39 74.3324 739.39 82.91C739.39 91.4875 746.343 98.441 754.921 98.441Z" stroke="black" stroke-width="5" stroke-miterlimit="10"/>
<path d="M754.921 67.2955C763.498 67.2955 770.452 60.342 770.452 51.7645C770.452 43.1869 763.498 36.2334 754.921 36.2334C746.343 36.2334 739.39 43.1869 739.39 51.7645C739.39 60.342 746.343 67.2955 754.921 67.2955Z" stroke="black" stroke-width="5" stroke-miterlimit="10"/>
<path d="M786.066 129.587C794.644 129.587 801.597 122.633 801.597 114.055C801.597 105.478 794.644 98.5244 786.066 98.5244C777.489 98.5244 770.535 105.478 770.535 114.055C770.535 122.633 777.489 129.587 786.066 129.587Z" stroke="black" stroke-width="5" stroke-miterlimit="10"/>
<path d="M754.921 129.587C763.498 129.587 770.452 122.633 770.452 114.055C770.452 105.478 763.498 98.5244 754.921 98.5244C746.343 98.5244 739.39 105.478 739.39 114.055C739.39 122.633 746.343 129.587 754.921 129.587Z" stroke="black" stroke-width="5" stroke-miterlimit="10"/>
<path d="M723.775 129.587C732.353 129.587 739.306 122.633 739.306 114.055C739.306 105.478 732.353 98.5244 723.775 98.5244C715.198 98.5244 708.244 105.478 708.244 114.055C708.244 122.633 715.198 129.587 723.775 129.587Z" stroke="black" stroke-width="5" stroke-miterlimit="10"/>
<path d="M786.066 160.649C794.644 160.649 801.597 153.696 801.597 145.118C801.597 136.54 794.644 129.587 786.066 129.587C777.489 129.587 770.535 136.54 770.535 145.118C770.535 153.696 777.489 160.649 786.066 160.649Z" stroke="black" stroke-width="5" stroke-miterlimit="10"/>
<path d="M754.921 160.649C763.498 160.649 770.452 153.696 770.452 145.118C770.452 136.54 763.498 129.587 754.921 129.587C746.343 129.587 739.39 136.54 739.39 145.118C739.39 153.696 746.343 160.649 754.921 160.649Z" stroke="black" stroke-width="5" stroke-miterlimit="10"/>
<path d="M723.775 160.649C732.353 160.649 739.306 153.696 739.306 145.118C739.306 136.54 732.353 129.587 723.775 129.587C715.198 129.587 708.244 136.54 708.244 145.118C708.244 153.696 715.198 160.649 723.775 160.649Z" stroke="black" stroke-width="5" stroke-miterlimit="10"/>
<path d="M786.066 191.795C794.644 191.795 801.597 184.841 801.597 176.263C801.597 167.686 794.644 160.732 786.066 160.732C777.489 160.732 770.535 167.686 770.535 176.263C770.535 184.841 777.489 191.795 786.066 191.795Z" stroke="black" stroke-width="5" stroke-miterlimit="10"/>
<path d="M754.921 191.795C763.498 191.795 770.452 184.841 770.452 176.263C770.452 167.686 763.498 160.732 754.921 160.732C746.343 160.732 739.39 167.686 739.39 176.263C739.39 184.841 746.343 191.795 754.921 191.795Z" stroke="black" stroke-width="5" stroke-miterlimit="10"/>
<path d="M723.775 191.795C732.353 191.795 739.306 184.841 739.306 176.263C739.306 167.686 732.353 160.732 723.775 160.732C715.198 160.732 708.244 167.686 708.244 176.263C708.244 184.841 715.198 191.795 723.775 191.795Z" stroke="black" stroke-width="5" stroke-miterlimit="10"/>
<path d="M786.066 222.94C794.644 222.94 801.597 215.987 801.597 207.409C801.597 198.831 794.644 191.878 786.066 191.878C777.489 191.878 770.535 198.831 770.535 207.409C770.535 215.987 777.489 222.94 786.066 222.94Z" stroke="black" stroke-width="5" stroke-miterlimit="10"/>
<path d="M754.921 222.94C763.498 222.94 770.452 215.987 770.452 207.409C770.452 198.831 763.498 191.878 754.921 191.878C746.343 191.878 739.39 198.831 739.39 207.409C739.39 215.987 746.343 222.94 754.921 222.94Z" stroke="black" stroke-width="5" stroke-miterlimit="10"/>
<path d="M723.775 222.94C732.353 222.94 739.306 215.987 739.306 207.409C739.306 198.831 732.353 191.878 723.775 191.878C715.198 191.878 708.244 198.831 708.244 207.409C708.244 215.987 715.198 222.94 723.775 222.94Z" stroke="black" stroke-width="5" stroke-miterlimit="10"/>
<path d="M786.066 254.002C794.644 254.002 801.597 247.048 801.597 238.471C801.597 229.893 794.644 222.939 786.066 222.939C777.489 222.939 770.535 229.893 770.535 238.471C770.535 247.048 777.489 254.002 786.066 254.002Z" stroke="black" stroke-width="5" stroke-miterlimit="10"/>
<path d="M754.921 254.002C763.498 254.002 770.452 247.048 770.452 238.471C770.452 229.893 763.498 222.939 754.921 222.939C746.343 222.939 739.39 229.893 739.39 238.471C739.39 247.048 746.343 254.002 754.921 254.002Z" stroke="black" stroke-width="5" stroke-miterlimit="10"/>
<path d="M723.775 254.002C732.353 254.002 739.306 247.048 739.306 238.471C739.306 229.893 732.353 222.939 723.775 222.939C715.198 222.939 708.244 229.893 708.244 238.471C708.244 247.048 715.198 254.002 723.775 254.002Z" stroke="black" stroke-width="5" stroke-miterlimit="10"/>
<path d="M754.921 285.148C763.498 285.148 770.452 278.195 770.452 269.617C770.452 261.039 763.498 254.086 754.921 254.086C746.343 254.086 739.39 261.039 739.39 269.617C739.39 278.195 746.343 285.148 754.921 285.148Z" stroke="black" stroke-width="5" stroke-miterlimit="10"/>
<path d="M723.775 285.148C732.353 285.148 739.306 278.195 739.306 269.617C739.306 261.039 732.353 254.086 723.775 254.086C715.198 254.086 708.244 261.039 708.244 269.617C708.244 278.195 715.198 285.148 723.775 285.148Z" stroke="black" stroke-width="5" stroke-miterlimit="10"/>
<path d="M754.921 316.294C763.498 316.294 770.452 309.34 770.452 300.763C770.452 292.185 763.498 285.231 754.921 285.231C746.343 285.231 739.39 292.185 739.39 300.763C739.39 309.34 746.343 316.294 754.921 316.294Z" stroke="black" stroke-width="5" stroke-miterlimit="10"/>
<path d="M723.775 316.294C732.353 316.294 739.306 309.34 739.306 300.763C739.306 292.185 732.353 285.231 723.775 285.231C715.198 285.231 708.244 292.185 708.244 300.763C708.244 309.34 715.198 316.294 723.775 316.294Z" stroke="black" stroke-width="5" stroke-miterlimit="10"/>
<path d="M754.921 347.439C763.498 347.439 770.452 340.486 770.452 331.908C770.452 323.33 763.498 316.377 754.921 316.377C746.343 316.377 739.39 323.33 739.39 331.908C739.39 340.486 746.343 347.439 754.921 347.439Z" stroke="black" stroke-width="5" stroke-miterlimit="10"/>
<path d="M723.775 347.439C732.353 347.439 739.306 340.486 739.306 331.908C739.306 323.33 732.353 316.377 723.775 316.377C715.198 316.377 708.244 323.33 708.244 331.908C708.244 340.486 715.198 347.439 723.775 347.439Z" stroke="black" stroke-width="5" stroke-miterlimit="10"/>
<path d="M692.713 347.439C701.29 347.439 708.244 340.486 708.244 331.908C708.244 323.33 701.29 316.377 692.713 316.377C684.135 316.377 677.182 323.33 677.182 331.908C677.182 340.486 684.135 347.439 692.713 347.439Z" stroke="black" stroke-width="5" stroke-miterlimit="10"/>
<path d="M723.775 378.501C732.353 378.501 739.306 371.547 739.306 362.97C739.306 354.392 732.353 347.438 723.775 347.438C715.198 347.438 708.244 354.392 708.244 362.97C708.244 371.547 715.198 378.501 723.775 378.501Z" stroke="black" stroke-width="5" stroke-miterlimit="10"/>
<path d="M692.713 378.501C701.29 378.501 708.244 371.547 708.244 362.97C708.244 354.392 701.29 347.438 692.713 347.438C684.135 347.438 677.182 354.392 677.182 362.97C677.182 371.547 684.135 378.501 692.713 378.501Z" stroke="black" stroke-width="5" stroke-miterlimit="10"/>
<path d="M754.169 409.646C762.746 409.646 769.7 402.693 769.7 394.115C769.7 385.537 762.746 378.584 754.169 378.584C745.591 378.584 738.638 385.537 738.638 394.115C738.638 402.693 745.591 409.646 754.169 409.646Z" stroke="black" stroke-width="5" stroke-miterlimit="10"/>
<path d="M723.023 409.646C731.601 409.646 738.554 402.693 738.554 394.115C738.554 385.537 731.601 378.584 723.023 378.584C714.446 378.584 707.492 385.537 707.492 394.115C707.492 402.693 714.446 409.646 723.023 409.646Z" stroke="black" stroke-width="5" stroke-miterlimit="10"/>
<path d="M691.878 409.646C700.455 409.646 707.409 402.693 707.409 394.115C707.409 385.537 700.455 378.584 691.878 378.584C683.3 378.584 676.347 385.537 676.347 394.115C676.347 402.693 683.3 409.646 691.878 409.646Z" stroke="black" stroke-width="5" stroke-miterlimit="10"/>
<path d="M754.169 440.793C762.746 440.793 769.7 433.839 769.7 425.262C769.7 416.684 762.746 409.73 754.169 409.73C745.591 409.73 738.638 416.684 738.638 425.262C738.638 433.839 745.591 440.793 754.169 440.793Z" stroke="black" stroke-width="5" stroke-miterlimit="10"/>
<path d="M723.023 440.793C731.601 440.793 738.554 433.839 738.554 425.262C738.554 416.684 731.601 409.73 723.023 409.73C714.446 409.73 707.492 416.684 707.492 425.262C707.492 433.839 714.446 440.793 723.023 440.793Z" stroke="black" stroke-width="5" stroke-miterlimit="10"/>
<path d="M691.878 440.793C700.455 440.793 707.409 433.839 707.409 425.262C707.409 416.684 700.455 409.73 691.878 409.73C683.3 409.73 676.347 416.684 676.347 425.262C676.347 433.839 683.3 440.793 691.878 440.793Z" stroke="black" stroke-width="5" stroke-miterlimit="10"/>
<path d="M723.023 471.854C731.601 471.854 738.554 464.901 738.554 456.323C738.554 447.745 731.601 440.792 723.023 440.792C714.446 440.792 707.492 447.745 707.492 456.323C707.492 464.901 714.446 471.854 723.023 471.854Z" stroke="black" stroke-width="5" stroke-miterlimit="10"/>
<path d="M691.878 471.854C700.455 471.854 707.409 464.901 707.409 456.323C707.409 447.745 700.455 440.792 691.878 440.792C683.3 440.792 676.347 447.745 676.347 456.323C676.347 464.901 683.3 471.854 691.878 471.854Z" stroke="black" stroke-width="5" stroke-miterlimit="10"/>
<path d="M691.878 503C700.455 503 707.409 496.046 707.409 487.469C707.409 478.891 700.455 471.938 691.878 471.938C683.3 471.938 676.347 478.891 676.347 487.469C676.347 496.046 683.3 503 691.878 503Z" stroke="black" stroke-width="5" stroke-miterlimit="10"/>
<path d="M566.711 378.501C575.288 378.501 582.242 371.547 582.242 362.97C582.242 354.392 575.288 347.438 566.711 347.438C558.133 347.438 551.18 354.392 551.18 362.97C551.18 371.547 558.133 378.501 566.711 378.501Z" stroke="black" stroke-width="5" stroke-miterlimit="10"/>
<path d="M754.921 378.501C763.498 378.501 770.452 371.547 770.452 362.97C770.452 354.392 763.498 347.438 754.921 347.438C746.343 347.438 739.39 354.392 739.39 362.97C739.39 371.547 746.343 378.501 754.921 378.501Z" stroke="black" stroke-width="5" stroke-miterlimit="10"/>
<path d="M1007.21 18.5311C1007.21 27.1316 1000.28 34.0621 991.677 34.0621C983.076 34.0621 976.145 41.0762 976.145 49.6767C976.145 58.2772 969.131 65.2077 960.531 65.2077C951.93 65.2077 945 58.2772 945 49.6767C945 41.0762 951.93 34.0621 960.531 34.0621C969.131 34.0621 976.145 27.1316 976.145 18.5311C976.145 9.93053 983.076 3 991.677 3C1000.28 3 1007.21 9.93053 1007.21 18.5311Z" fill="black"/>
<path d="M1038.35 49.6771C1038.35 58.2776 1031.34 65.2081 1022.82 65.2081C1014.31 65.2081 1007.21 72.2222 1007.21 80.7392C1007.21 89.2562 1000.28 96.3537 991.677 96.3537C983.076 96.3537 976.145 103.284 976.145 111.885C976.145 120.485 969.131 127.416 960.531 127.416C951.93 127.416 945 120.485 945 111.885C945 103.284 951.93 96.3537 960.531 96.3537C969.131 96.3537 976.145 89.3397 976.145 80.7392C976.145 72.1387 983.076 65.2081 991.677 65.2081C1000.28 65.2081 1007.21 58.2776 1007.21 49.6771C1007.21 41.0765 1014.22 34.0625 1022.82 34.0625C1031.42 34.0625 1038.35 41.0765 1038.35 49.6771Z" fill="black"/>
<path d="M1038.35 111.885C1038.35 120.485 1031.34 127.416 1022.82 127.416C1014.31 127.416 1007.21 134.43 1007.21 143.03C1007.21 151.631 1000.28 158.561 991.677 158.561C983.076 158.561 976.145 165.575 976.145 174.176C976.145 182.776 969.131 189.707 960.531 189.707C951.93 189.707 945 182.693 945 174.176C945 165.659 951.93 158.561 960.531 158.561C969.131 158.561 976.145 151.631 976.145 143.03C976.145 134.43 983.076 127.416 991.677 127.416C1000.28 127.416 1007.21 120.485 1007.21 111.885C1007.21 103.284 1014.22 96.3535 1022.82 96.3535C1031.42 96.3535 1038.35 103.284 1038.35 111.885Z" fill="black"/>
<path d="M1038.35 174.176C1038.35 182.693 1031.34 189.707 1022.82 189.707C1014.31 189.707 1007.21 196.638 1007.21 205.238C1007.21 213.839 1000.28 220.853 991.677 220.853C983.076 220.853 976.145 227.783 976.145 236.384C976.145 244.984 969.131 251.915 960.531 251.915C951.93 251.915 945 244.984 945 236.384C945 227.783 951.93 220.853 960.531 220.853C969.131 220.853 976.145 213.839 976.145 205.238C976.145 196.638 983.076 189.707 991.677 189.707C1000.28 189.707 1007.21 182.693 1007.21 174.176C1007.21 165.659 1014.22 158.562 1022.82 158.562C1031.42 158.562 1038.35 165.576 1038.35 174.176Z" fill="black"/>
<path d="M1038.35 236.384C1038.35 244.984 1031.34 251.915 1022.82 251.915C1014.31 251.915 1007.21 258.929 1007.21 267.529C1007.21 276.13 1000.28 283.06 991.677 283.06C983.076 283.06 976.145 289.991 976.145 298.591C976.145 307.192 969.131 314.206 960.531 314.206C951.93 314.206 945 307.192 945 298.591C945 289.991 951.93 283.06 960.531 283.06C969.131 283.06 976.145 276.046 976.145 267.529C976.145 259.012 983.076 251.915 991.677 251.915C1000.28 251.915 1007.21 244.984 1007.21 236.384C1007.21 227.783 1014.22 220.853 1022.82 220.853C1031.42 220.853 1038.35 227.783 1038.35 236.384Z" fill="black"/>
<path d="M1038.35 298.592C1038.35 307.192 1031.34 314.206 1022.82 314.206C1014.31 314.206 1007.21 321.137 1007.21 329.737C1007.21 338.338 1000.28 345.268 991.677 345.268C983.076 345.268 976.145 352.282 976.145 360.883C976.145 369.483 969.131 376.414 960.531 376.414C951.93 376.414 945 369.483 945 360.883C945 352.282 951.93 345.268 960.531 345.268C969.131 345.268 976.145 338.338 976.145 329.737C976.145 321.137 983.076 314.206 991.677 314.206C1000.28 314.206 1007.21 307.192 1007.21 298.592C1007.21 289.991 1014.22 283.061 1022.82 283.061C1031.42 283.061 1038.35 289.991 1038.35 298.592Z" fill="black"/>
<path d="M1038.35 360.882C1038.35 369.483 1031.34 376.413 1022.82 376.413C1014.31 376.413 1007.21 383.344 1007.21 391.944C1007.21 400.545 1000.28 407.559 991.677 407.559C983.076 407.559 976.145 414.489 976.145 423.09C976.145 431.69 969.131 438.621 960.531 438.621C951.93 438.621 945 431.69 945 423.09C945 414.489 951.93 407.559 960.531 407.559C969.131 407.559 976.145 400.545 976.145 391.944C976.145 383.344 983.076 376.413 991.677 376.413C1000.28 376.413 1007.21 369.483 1007.21 360.882C1007.21 352.282 1014.22 345.268 1022.82 345.268C1031.42 345.268 1038.35 352.282 1038.35 360.882Z" fill="black"/>
<path d="M1038.35 423.091C1038.35 431.691 1031.34 438.622 1022.82 438.622C1014.31 438.622 1007.21 445.636 1007.21 454.236C1007.21 462.837 1000.28 469.767 991.677 469.767C983.076 469.767 976.145 476.698 976.145 485.298C976.145 493.899 969.131 500.913 960.531 500.913C951.93 500.913 945 493.899 945 485.298C945 476.698 951.93 469.767 960.531 469.767C969.131 469.767 976.145 462.837 976.145 454.236C976.145 445.636 983.076 438.622 991.677 438.622C1000.28 438.622 1007.21 431.691 1007.21 423.091C1007.21 414.49 1014.22 407.56 1022.82 407.56C1031.42 407.56 1038.35 414.49 1038.35 423.091Z" fill="black"/>
<path d="M1022.74 500.829C1031.32 500.829 1038.27 493.875 1038.27 485.298C1038.27 476.72 1031.32 469.767 1022.74 469.767C1014.16 469.767 1007.21 476.72 1007.21 485.298C1007.21 493.875 1014.16 500.829 1022.74 500.829Z" fill="black"/>
</svg>
