<svg width="679" height="506" viewBox="0 0 679 506" fill="none" xmlns="http://www.w3.org/2000/svg">
<path d="M140.617 34.1924C149.23 34.1924 156.213 27.2097 156.213 18.5962C156.213 9.98265 149.23 3 140.617 3C132.003 3 125.021 9.98265 125.021 18.5962C125.021 27.2097 132.003 34.1924 140.617 34.1924Z" fill="black"/>
<path d="M203.085 34.1924C211.699 34.1924 218.682 27.2097 218.682 18.5962C218.682 9.98265 211.699 3 203.085 3C194.472 3 187.489 9.98265 187.489 18.5962C187.489 27.2097 194.472 34.1924 203.085 34.1924Z" fill="black"/>
<path d="M140.617 65.4687C149.23 65.4687 156.213 58.4861 156.213 49.8725C156.213 41.259 149.23 34.2764 140.617 34.2764C132.003 34.2764 125.021 41.259 125.021 49.8725C125.021 58.4861 132.003 65.4687 140.617 65.4687Z" fill="black"/>
<path d="M203.085 65.4687C211.699 65.4687 218.682 58.4861 218.682 49.8725C218.682 41.259 211.699 34.2764 203.085 34.2764C194.472 34.2764 187.489 41.259 187.489 49.8725C187.489 58.4861 194.472 65.4687 203.085 65.4687Z" fill="black"/>
<path d="M140.617 96.6611C149.23 96.6611 156.213 89.6785 156.213 81.0649C156.213 72.4514 149.23 65.4688 140.617 65.4688C132.003 65.4688 125.021 72.4514 125.021 81.0649C125.021 89.6785 132.003 96.6611 140.617 96.6611Z" fill="black"/>
<path d="M203.085 96.6611C211.699 96.6611 218.682 89.6785 218.682 81.0649C218.682 72.4514 211.699 65.4688 203.085 65.4688C194.472 65.4688 187.489 72.4514 187.489 81.0649C187.489 89.6785 194.472 96.6611 203.085 96.6611Z" fill="black"/>
<path d="M140.617 127.937C149.23 127.937 156.213 120.955 156.213 112.341C156.213 103.728 149.23 96.7451 140.617 96.7451C132.003 96.7451 125.021 103.728 125.021 112.341C125.021 120.955 132.003 127.937 140.617 127.937Z" fill="black"/>
<path d="M203.085 127.937C211.699 127.937 218.682 120.955 218.682 112.341C218.682 103.728 211.699 96.7451 203.085 96.7451C194.472 96.7451 187.489 103.728 187.489 112.341C187.489 120.955 194.472 127.937 203.085 127.937Z" fill="black"/>
<path d="M140.617 159.213C149.23 159.213 156.213 152.23 156.213 143.617C156.213 135.003 149.23 128.021 140.617 128.021C132.003 128.021 125.021 135.003 125.021 143.617C125.021 152.23 132.003 159.213 140.617 159.213Z" fill="black"/>
<path d="M203.085 159.213C211.699 159.213 218.682 152.23 218.682 143.617C218.682 135.003 211.699 128.021 203.085 128.021C194.472 128.021 187.489 135.003 187.489 143.617C187.489 152.23 194.472 159.213 203.085 159.213Z" fill="black"/>
<path d="M140.617 190.405C149.23 190.405 156.213 183.423 156.213 174.809C156.213 166.196 149.23 159.213 140.617 159.213C132.003 159.213 125.021 166.196 125.021 174.809C125.021 183.423 132.003 190.405 140.617 190.405Z" fill="black"/>
<path d="M203.085 190.405C211.699 190.405 218.682 183.423 218.682 174.809C218.682 166.196 211.699 159.213 203.085 159.213C194.472 159.213 187.489 166.196 187.489 174.809C187.489 183.423 194.472 190.405 203.085 190.405Z" fill="black"/>
<path d="M140.617 221.682C149.23 221.682 156.213 214.699 156.213 206.085C156.213 197.472 149.23 190.489 140.617 190.489C132.003 190.489 125.021 197.472 125.021 206.085C125.021 214.699 132.003 221.682 140.617 221.682Z" fill="black"/>
<path d="M203.085 221.682C211.699 221.682 218.682 214.699 218.682 206.085C218.682 197.472 211.699 190.489 203.085 190.489C194.472 190.489 187.489 197.472 187.489 206.085C187.489 214.699 194.472 221.682 203.085 221.682Z" fill="black"/>
<path d="M140.617 252.958C149.23 252.958 156.213 245.975 156.213 237.362C156.213 228.748 149.23 221.766 140.617 221.766C132.003 221.766 125.021 228.748 125.021 237.362C125.021 245.975 132.003 252.958 140.617 252.958Z" fill="black"/>
<path d="M203.085 252.958C211.699 252.958 218.682 245.975 218.682 237.362C218.682 228.748 211.699 221.766 203.085 221.766C194.472 221.766 187.489 228.748 187.489 237.362C187.489 245.975 194.472 252.958 203.085 252.958Z" fill="black"/>
<path d="M140.617 284.15C149.23 284.15 156.213 277.168 156.213 268.554C156.213 259.941 149.23 252.958 140.617 252.958C132.003 252.958 125.021 259.941 125.021 268.554C125.021 277.168 132.003 284.15 140.617 284.15Z" fill="black"/>
<path d="M203.085 284.15C211.699 284.15 218.682 277.168 218.682 268.554C218.682 259.941 211.699 252.958 203.085 252.958C194.472 252.958 187.489 259.941 187.489 268.554C187.489 277.168 194.472 284.15 203.085 284.15Z" fill="black"/>
<path d="M140.617 315.427C149.23 315.427 156.213 308.444 156.213 299.831C156.213 291.217 149.23 284.234 140.617 284.234C132.003 284.234 125.021 291.217 125.021 299.831C125.021 308.444 132.003 315.427 140.617 315.427Z" fill="black"/>
<path d="M203.085 315.427C211.699 315.427 218.682 308.444 218.682 299.831C218.682 291.217 211.699 284.234 203.085 284.234C194.472 284.234 187.489 291.217 187.489 299.831C187.489 308.444 194.472 315.427 203.085 315.427Z" fill="black"/>
<path d="M140.617 346.703C149.23 346.703 156.213 339.72 156.213 331.107C156.213 322.493 149.23 315.511 140.617 315.511C132.003 315.511 125.021 322.493 125.021 331.107C125.021 339.72 132.003 346.703 140.617 346.703Z" fill="black"/>
<path d="M203.085 346.703C211.699 346.703 218.682 339.72 218.682 331.107C218.682 322.493 211.699 315.511 203.085 315.511C194.472 315.511 187.489 322.493 187.489 331.107C187.489 339.72 194.472 346.703 203.085 346.703Z" fill="black"/>
<path d="M140.617 377.979C149.23 377.979 156.213 370.997 156.213 362.383C156.213 353.77 149.23 346.787 140.617 346.787C132.003 346.787 125.021 353.77 125.021 362.383C125.021 370.997 132.003 377.979 140.617 377.979Z" fill="black"/>
<path d="M203.085 377.979C211.699 377.979 218.682 370.997 218.682 362.383C218.682 353.77 211.699 346.787 203.085 346.787C194.472 346.787 187.489 353.77 187.489 362.383C187.489 370.997 194.472 377.979 203.085 377.979Z" fill="black"/>
<path d="M140.617 409.172C149.23 409.172 156.213 402.189 156.213 393.576C156.213 384.962 149.23 377.979 140.617 377.979C132.003 377.979 125.021 384.962 125.021 393.576C125.021 402.189 132.003 409.172 140.617 409.172Z" fill="black"/>
<path d="M203.085 409.172C211.699 409.172 218.682 402.189 218.682 393.576C218.682 384.962 211.699 377.979 203.085 377.979C194.472 377.979 187.489 384.962 187.489 393.576C187.489 402.189 194.472 409.172 203.085 409.172Z" fill="black"/>
<path d="M140.617 440.447C149.23 440.447 156.213 433.465 156.213 424.851C156.213 416.238 149.23 409.255 140.617 409.255C132.003 409.255 125.021 416.238 125.021 424.851C125.021 433.465 132.003 440.447 140.617 440.447Z" fill="black"/>
<path d="M203.085 440.447C211.699 440.447 218.682 433.465 218.682 424.851C218.682 416.238 211.699 409.255 203.085 409.255C194.472 409.255 187.489 416.238 187.489 424.851C187.489 433.465 194.472 440.447 203.085 440.447Z" fill="black"/>
<path d="M140.617 471.724C149.23 471.724 156.213 464.741 156.213 456.127C156.213 447.514 149.23 440.531 140.617 440.531C132.003 440.531 125.021 447.514 125.021 456.127C125.021 464.741 132.003 471.724 140.617 471.724Z" fill="black"/>
<path d="M203.085 471.724C211.699 471.724 218.682 464.741 218.682 456.127C218.682 447.514 211.699 440.531 203.085 440.531C194.472 440.531 187.489 447.514 187.489 456.127C187.489 464.741 194.472 471.724 203.085 471.724Z" fill="black"/>
<path d="M140.617 502.916C149.23 502.916 156.213 495.933 156.213 487.32C156.213 478.706 149.23 471.724 140.617 471.724C132.003 471.724 125.021 478.706 125.021 487.32C125.021 495.933 132.003 502.916 140.617 502.916Z" fill="black"/>
<path d="M203.085 502.916C211.699 502.916 218.682 495.933 218.682 487.32C218.682 478.706 211.699 471.724 203.085 471.724C194.472 471.724 187.489 478.706 187.489 487.32C187.489 495.933 194.472 502.916 203.085 502.916Z" fill="black"/>
<path d="M328.107 34.1924C336.72 34.1924 343.703 27.2097 343.703 18.5962C343.703 9.98265 336.72 3 328.107 3C319.493 3 312.511 9.98265 312.511 18.5962C312.511 27.2097 319.493 34.1924 328.107 34.1924Z" fill="black"/>
<path d="M328.107 65.4687C336.72 65.4687 343.703 58.4861 343.703 49.8725C343.703 41.259 336.72 34.2764 328.107 34.2764C319.493 34.2764 312.511 41.259 312.511 49.8725C312.511 58.4861 319.493 65.4687 328.107 65.4687Z" fill="black"/>
<path d="M328.107 96.6611C336.72 96.6611 343.703 89.6785 343.703 81.0649C343.703 72.4514 336.72 65.4688 328.107 65.4688C319.493 65.4688 312.511 72.4514 312.511 81.0649C312.511 89.6785 319.493 96.6611 328.107 96.6611Z" fill="black"/>
<path d="M265.638 34.1924C274.252 34.1924 281.234 27.2097 281.234 18.5962C281.234 9.98265 274.252 3 265.638 3C257.025 3 250.042 9.98265 250.042 18.5962C250.042 27.2097 257.025 34.1924 265.638 34.1924Z" fill="black"/>
<path d="M265.638 65.4687C274.252 65.4687 281.234 58.4861 281.234 49.8725C281.234 41.259 274.252 34.2764 265.638 34.2764C257.025 34.2764 250.042 41.259 250.042 49.8725C250.042 58.4861 257.025 65.4687 265.638 65.4687Z" fill="black"/>
<path d="M265.638 96.6611C274.252 96.6611 281.234 89.6785 281.234 81.0649C281.234 72.4514 274.252 65.4688 265.638 65.4688C257.025 65.4688 250.042 72.4514 250.042 81.0649C250.042 89.6785 257.025 96.6611 265.638 96.6611Z" fill="black"/>
<path d="M78.1489 34.1924C86.7624 34.1924 93.7451 27.2097 93.7451 18.5962C93.7451 9.98265 86.7624 3 78.1489 3C69.5354 3 62.5527 9.98265 62.5527 18.5962C62.5527 27.2097 69.5354 34.1924 78.1489 34.1924Z" fill="black"/>
<path d="M78.1489 65.4687C86.7624 65.4687 93.7451 58.4861 93.7451 49.8725C93.7451 41.259 86.7624 34.2764 78.1489 34.2764C69.5354 34.2764 62.5527 41.259 62.5527 49.8725C62.5527 58.4861 69.5354 65.4687 78.1489 65.4687Z" fill="black"/>
<path d="M78.1489 96.6611C86.7624 96.6611 93.7451 89.6785 93.7451 81.0649C93.7451 72.4514 86.7624 65.4688 78.1489 65.4688C69.5354 65.4688 62.5527 72.4514 62.5527 81.0649C62.5527 89.6785 69.5354 96.6611 78.1489 96.6611Z" fill="black"/>
<path d="M15.5962 34.1924C24.2097 34.1924 31.1924 27.2097 31.1924 18.5962C31.1924 9.98265 24.2097 3 15.5962 3C6.98265 3 0 9.98265 0 18.5962C0 27.2097 6.98265 34.1924 15.5962 34.1924Z" fill="black"/>
<path d="M15.5962 65.4687C24.2097 65.4687 31.1924 58.4861 31.1924 49.8725C31.1924 41.259 24.2097 34.2764 15.5962 34.2764C6.98265 34.2764 0 41.259 0 49.8725C0 58.4861 6.98265 65.4687 15.5962 65.4687Z" fill="black"/>
<path d="M15.5962 96.6611C24.2097 96.6611 31.1924 89.6785 31.1924 81.0649C31.1924 72.4514 24.2097 65.4688 15.5962 65.4688C6.98265 65.4688 0 72.4514 0 81.0649C0 89.6785 6.98265 96.6611 15.5962 96.6611Z" fill="black"/>
<path d="M379.592 34.1924C388.206 34.1924 395.188 27.2097 395.188 18.5962C395.188 9.98264 388.206 3 379.592 3C370.979 3 363.996 9.98264 363.996 18.5962C363.996 27.2097 370.979 34.1924 379.592 34.1924Z" stroke="black" stroke-width="5" stroke-miterlimit="10"/>
<path d="M410.869 34.1924C419.482 34.1924 426.465 27.2097 426.465 18.5962C426.465 9.98264 419.482 3 410.869 3C402.255 3 395.272 9.98264 395.272 18.5962C395.272 27.2097 402.255 34.1924 410.869 34.1924Z" stroke="black" stroke-width="5" stroke-miterlimit="10"/>
<path d="M442.145 34.1924C450.759 34.1924 457.741 27.2097 457.741 18.5962C457.741 9.98264 450.759 3 442.145 3C433.531 3 426.549 9.98264 426.549 18.5962C426.549 27.2097 433.531 34.1924 442.145 34.1924Z" stroke="black" stroke-width="5" stroke-miterlimit="10"/>
<path d="M379.592 65.4687C388.206 65.4687 395.188 58.4861 395.188 49.8725C395.188 41.259 388.206 34.2764 379.592 34.2764C370.979 34.2764 363.996 41.259 363.996 49.8725C363.996 58.4861 370.979 65.4687 379.592 65.4687Z" stroke="black" stroke-width="5" stroke-miterlimit="10"/>
<path d="M410.869 65.4687C419.482 65.4687 426.465 58.4861 426.465 49.8725C426.465 41.259 419.482 34.2764 410.869 34.2764C402.255 34.2764 395.272 41.259 395.272 49.8725C395.272 58.4861 402.255 65.4687 410.869 65.4687Z" stroke="black" stroke-width="5" stroke-miterlimit="10"/>
<path d="M442.145 65.4687C450.759 65.4687 457.741 58.4861 457.741 49.8725C457.741 41.259 450.759 34.2764 442.145 34.2764C433.531 34.2764 426.549 41.259 426.549 49.8725C426.549 58.4861 433.531 65.4687 442.145 65.4687Z" stroke="black" stroke-width="5" stroke-miterlimit="10"/>
<path d="M379.592 96.7451C388.206 96.7451 395.188 89.7624 395.188 81.1489C395.188 72.5354 388.206 65.5527 379.592 65.5527C370.979 65.5527 363.996 72.5354 363.996 81.1489C363.996 89.7624 370.979 96.7451 379.592 96.7451Z" stroke="black" stroke-width="5" stroke-miterlimit="10"/>
<path d="M410.869 96.7451C419.482 96.7451 426.465 89.7624 426.465 81.1489C426.465 72.5354 419.482 65.5527 410.869 65.5527C402.255 65.5527 395.272 72.5354 395.272 81.1489C395.272 89.7624 402.255 96.7451 410.869 96.7451Z" stroke="black" stroke-width="5" stroke-miterlimit="10"/>
<path d="M442.145 96.7451C450.759 96.7451 457.741 89.7624 457.741 81.1489C457.741 72.5354 450.759 65.5527 442.145 65.5527C433.531 65.5527 426.549 72.5354 426.549 81.1489C426.549 89.7624 433.531 96.7451 442.145 96.7451Z" stroke="black" stroke-width="5" stroke-miterlimit="10"/>
<path d="M379.592 127.937C388.206 127.937 395.188 120.955 395.188 112.341C395.188 103.728 388.206 96.7451 379.592 96.7451C370.979 96.7451 363.996 103.728 363.996 112.341C363.996 120.955 370.979 127.937 379.592 127.937Z" stroke="black" stroke-width="5" stroke-miterlimit="10"/>
<path d="M410.869 127.937C419.482 127.937 426.465 120.955 426.465 112.341C426.465 103.728 419.482 96.7451 410.869 96.7451C402.255 96.7451 395.272 103.728 395.272 112.341C395.272 120.955 402.255 127.937 410.869 127.937Z" stroke="black" stroke-width="5" stroke-miterlimit="10"/>
<path d="M442.145 127.937C450.759 127.937 457.741 120.955 457.741 112.341C457.741 103.728 450.759 96.7451 442.145 96.7451C433.531 96.7451 426.549 103.728 426.549 112.341C426.549 120.955 433.531 127.937 442.145 127.937Z" stroke="black" stroke-width="5" stroke-miterlimit="10"/>
<path d="M379.592 159.213C388.206 159.213 395.188 152.23 395.188 143.617C395.188 135.003 388.206 128.021 379.592 128.021C370.979 128.021 363.996 135.003 363.996 143.617C363.996 152.23 370.979 159.213 379.592 159.213Z" stroke="black" stroke-width="5" stroke-miterlimit="10"/>
<path d="M410.869 159.213C419.482 159.213 426.465 152.23 426.465 143.617C426.465 135.003 419.482 128.021 410.869 128.021C402.255 128.021 395.272 135.003 395.272 143.617C395.272 152.23 402.255 159.213 410.869 159.213Z" stroke="black" stroke-width="5" stroke-miterlimit="10"/>
<path d="M442.145 159.213C450.759 159.213 457.741 152.23 457.741 143.617C457.741 135.003 450.759 128.021 442.145 128.021C433.531 128.021 426.549 135.003 426.549 143.617C426.549 152.23 433.531 159.213 442.145 159.213Z" stroke="black" stroke-width="5" stroke-miterlimit="10"/>
<path d="M379.592 190.489C388.206 190.489 395.188 183.507 395.188 174.893C395.188 166.28 388.206 159.297 379.592 159.297C370.979 159.297 363.996 166.28 363.996 174.893C363.996 183.507 370.979 190.489 379.592 190.489Z" stroke="black" stroke-width="5" stroke-miterlimit="10"/>
<path d="M410.869 190.489C419.482 190.489 426.465 183.507 426.465 174.893C426.465 166.28 419.482 159.297 410.869 159.297C402.255 159.297 395.272 166.28 395.272 174.893C395.272 183.507 402.255 190.489 410.869 190.489Z" stroke="black" stroke-width="5" stroke-miterlimit="10"/>
<path d="M442.145 190.489C450.759 190.489 457.741 183.507 457.741 174.893C457.741 166.28 450.759 159.297 442.145 159.297C433.531 159.297 426.549 166.28 426.549 174.893C426.549 183.507 433.531 190.489 442.145 190.489Z" stroke="black" stroke-width="5" stroke-miterlimit="10"/>
<path d="M379.592 221.682C388.206 221.682 395.188 214.699 395.188 206.085C395.188 197.472 388.206 190.489 379.592 190.489C370.979 190.489 363.996 197.472 363.996 206.085C363.996 214.699 370.979 221.682 379.592 221.682Z" stroke="black" stroke-width="5" stroke-miterlimit="10"/>
<path d="M410.869 221.682C419.482 221.682 426.465 214.699 426.465 206.085C426.465 197.472 419.482 190.489 410.869 190.489C402.255 190.489 395.272 197.472 395.272 206.085C395.272 214.699 402.255 221.682 410.869 221.682Z" stroke="black" stroke-width="5" stroke-miterlimit="10"/>
<path d="M442.145 221.682C450.759 221.682 457.741 214.699 457.741 206.085C457.741 197.472 450.759 190.489 442.145 190.489C433.531 190.489 426.549 197.472 426.549 206.085C426.549 214.699 433.531 221.682 442.145 221.682Z" stroke="black" stroke-width="5" stroke-miterlimit="10"/>
<path d="M379.592 252.958C388.206 252.958 395.188 245.975 395.188 237.362C395.188 228.748 388.206 221.766 379.592 221.766C370.979 221.766 363.996 228.748 363.996 237.362C363.996 245.975 370.979 252.958 379.592 252.958Z" stroke="black" stroke-width="5" stroke-miterlimit="10"/>
<path d="M410.869 252.958C419.482 252.958 426.465 245.975 426.465 237.362C426.465 228.748 419.482 221.766 410.869 221.766C402.255 221.766 395.272 228.748 395.272 237.362C395.272 245.975 402.255 252.958 410.869 252.958Z" stroke="black" stroke-width="5" stroke-miterlimit="10"/>
<path d="M442.145 252.958C450.759 252.958 457.741 245.975 457.741 237.362C457.741 228.748 450.759 221.766 442.145 221.766C433.531 221.766 426.549 228.748 426.549 237.362C426.549 245.975 433.531 252.958 442.145 252.958Z" stroke="black" stroke-width="5" stroke-miterlimit="10"/>
<path d="M379.592 284.234C388.206 284.234 395.188 277.252 395.188 268.638C395.188 260.025 388.206 253.042 379.592 253.042C370.979 253.042 363.996 260.025 363.996 268.638C363.996 277.252 370.979 284.234 379.592 284.234Z" stroke="black" stroke-width="5" stroke-miterlimit="10"/>
<path d="M410.869 284.234C419.482 284.234 426.465 277.252 426.465 268.638C426.465 260.025 419.482 253.042 410.869 253.042C402.255 253.042 395.272 260.025 395.272 268.638C395.272 277.252 402.255 284.234 410.869 284.234Z" stroke="black" stroke-width="5" stroke-miterlimit="10"/>
<path d="M442.145 284.234C450.759 284.234 457.741 277.252 457.741 268.638C457.741 260.025 450.759 253.042 442.145 253.042C433.531 253.042 426.549 260.025 426.549 268.638C426.549 277.252 433.531 284.234 442.145 284.234Z" stroke="black" stroke-width="5" stroke-miterlimit="10"/>
<path d="M379.592 315.427C388.206 315.427 395.188 308.444 395.188 299.831C395.188 291.217 388.206 284.234 379.592 284.234C370.979 284.234 363.996 291.217 363.996 299.831C363.996 308.444 370.979 315.427 379.592 315.427Z" stroke="black" stroke-width="5" stroke-miterlimit="10"/>
<path d="M410.869 315.427C419.482 315.427 426.465 308.444 426.465 299.831C426.465 291.217 419.482 284.234 410.869 284.234C402.255 284.234 395.272 291.217 395.272 299.831C395.272 308.444 402.255 315.427 410.869 315.427Z" stroke="black" stroke-width="5" stroke-miterlimit="10"/>
<path d="M442.145 315.427C450.759 315.427 457.741 308.444 457.741 299.831C457.741 291.217 450.759 284.234 442.145 284.234C433.531 284.234 426.549 291.217 426.549 299.831C426.549 308.444 433.531 315.427 442.145 315.427Z" stroke="black" stroke-width="5" stroke-miterlimit="10"/>
<path d="M379.592 346.703C388.206 346.703 395.188 339.72 395.188 331.107C395.188 322.493 388.206 315.511 379.592 315.511C370.979 315.511 363.996 322.493 363.996 331.107C363.996 339.72 370.979 346.703 379.592 346.703Z" stroke="black" stroke-width="5" stroke-miterlimit="10"/>
<path d="M410.869 346.703C419.482 346.703 426.465 339.72 426.465 331.107C426.465 322.493 419.482 315.511 410.869 315.511C402.255 315.511 395.272 322.493 395.272 331.107C395.272 339.72 402.255 346.703 410.869 346.703Z" stroke="black" stroke-width="5" stroke-miterlimit="10"/>
<path d="M442.145 346.703C450.759 346.703 457.741 339.72 457.741 331.107C457.741 322.493 450.759 315.511 442.145 315.511C433.531 315.511 426.549 322.493 426.549 331.107C426.549 339.72 433.531 346.703 442.145 346.703Z" stroke="black" stroke-width="5" stroke-miterlimit="10"/>
<path d="M379.592 377.979C388.206 377.979 395.188 370.997 395.188 362.383C395.188 353.77 388.206 346.787 379.592 346.787C370.979 346.787 363.996 353.77 363.996 362.383C363.996 370.997 370.979 377.979 379.592 377.979Z" stroke="black" stroke-width="5" stroke-miterlimit="10"/>
<path d="M410.869 377.979C419.482 377.979 426.465 370.997 426.465 362.383C426.465 353.77 419.482 346.787 410.869 346.787C402.255 346.787 395.272 353.77 395.272 362.383C395.272 370.997 402.255 377.979 410.869 377.979Z" stroke="black" stroke-width="5" stroke-miterlimit="10"/>
<path d="M442.145 377.979C450.759 377.979 457.741 370.997 457.741 362.383C457.741 353.77 450.759 346.787 442.145 346.787C433.531 346.787 426.549 353.77 426.549 362.383C426.549 370.997 433.531 377.979 442.145 377.979Z" stroke="black" stroke-width="5" stroke-miterlimit="10"/>
<path d="M379.592 409.255C388.206 409.255 395.188 402.272 395.188 393.659C395.188 385.045 388.206 378.062 379.592 378.062C370.979 378.062 363.996 385.045 363.996 393.659C363.996 402.272 370.979 409.255 379.592 409.255Z" stroke="black" stroke-width="5" stroke-miterlimit="10"/>
<path d="M410.869 409.255C419.482 409.255 426.465 402.272 426.465 393.659C426.465 385.045 419.482 378.062 410.869 378.062C402.255 378.062 395.272 385.045 395.272 393.659C395.272 402.272 402.255 409.255 410.869 409.255Z" stroke="black" stroke-width="5" stroke-miterlimit="10"/>
<path d="M442.145 409.255C450.759 409.255 457.741 402.272 457.741 393.659C457.741 385.045 450.759 378.062 442.145 378.062C433.531 378.062 426.549 385.045 426.549 393.659C426.549 402.272 433.531 409.255 442.145 409.255Z" stroke="black" stroke-width="5" stroke-miterlimit="10"/>
<path d="M379.592 440.447C388.206 440.447 395.188 433.465 395.188 424.851C395.188 416.238 388.206 409.255 379.592 409.255C370.979 409.255 363.996 416.238 363.996 424.851C363.996 433.465 370.979 440.447 379.592 440.447Z" stroke="black" stroke-width="5" stroke-miterlimit="10"/>
<path d="M410.869 440.447C419.482 440.447 426.465 433.465 426.465 424.851C426.465 416.238 419.482 409.255 410.869 409.255C402.255 409.255 395.272 416.238 395.272 424.851C395.272 433.465 402.255 440.447 410.869 440.447Z" stroke="black" stroke-width="5" stroke-miterlimit="10"/>
<path d="M442.145 440.447C450.759 440.447 457.741 433.465 457.741 424.851C457.741 416.238 450.759 409.255 442.145 409.255C433.531 409.255 426.549 416.238 426.549 424.851C426.549 433.465 433.531 440.447 442.145 440.447Z" stroke="black" stroke-width="5" stroke-miterlimit="10"/>
<path d="M379.592 471.724C388.206 471.724 395.188 464.741 395.188 456.127C395.188 447.514 388.206 440.531 379.592 440.531C370.979 440.531 363.996 447.514 363.996 456.127C363.996 464.741 370.979 471.724 379.592 471.724Z" stroke="black" stroke-width="5" stroke-miterlimit="10"/>
<path d="M410.869 471.724C419.482 471.724 426.465 464.741 426.465 456.127C426.465 447.514 419.482 440.531 410.869 440.531C402.255 440.531 395.272 447.514 395.272 456.127C395.272 464.741 402.255 471.724 410.869 471.724Z" stroke="black" stroke-width="5" stroke-miterlimit="10"/>
<path d="M442.145 471.724C450.759 471.724 457.741 464.741 457.741 456.127C457.741 447.514 450.759 440.531 442.145 440.531C433.531 440.531 426.549 447.514 426.549 456.127C426.549 464.741 433.531 471.724 442.145 471.724Z" stroke="black" stroke-width="5" stroke-miterlimit="10"/>
<path d="M379.592 503C388.206 503 395.188 496.017 395.188 487.404C395.188 478.79 388.206 471.808 379.592 471.808C370.979 471.808 363.996 478.79 363.996 487.404C363.996 496.017 370.979 503 379.592 503Z" stroke="black" stroke-width="5" stroke-miterlimit="10"/>
<path d="M410.869 503C419.482 503 426.465 496.017 426.465 487.404C426.465 478.79 419.482 471.808 410.869 471.808C402.255 471.808 395.272 478.79 395.272 487.404C395.272 496.017 402.255 503 410.869 503Z" stroke="black" stroke-width="5" stroke-miterlimit="10"/>
<path d="M442.145 503C450.759 503 457.741 496.017 457.741 487.404C457.741 478.79 450.759 471.808 442.145 471.808C433.531 471.808 426.549 478.79 426.549 487.404C426.549 496.017 433.531 503 442.145 503Z" stroke="black" stroke-width="5" stroke-miterlimit="10"/>
<path d="M567.082 34.1924C575.695 34.1924 582.678 27.2097 582.678 18.5962C582.678 9.98264 575.695 3 567.082 3C558.468 3 551.485 9.98264 551.485 18.5962C551.485 27.2097 558.468 34.1924 567.082 34.1924Z" stroke="black" stroke-width="5" stroke-miterlimit="10"/>
<path d="M567.082 65.4687C575.695 65.4687 582.678 58.4861 582.678 49.8725C582.678 41.259 575.695 34.2764 567.082 34.2764C558.468 34.2764 551.485 41.259 551.485 49.8725C551.485 58.4861 558.468 65.4687 567.082 65.4687Z" stroke="black" stroke-width="5" stroke-miterlimit="10"/>
<path d="M567.082 96.7451C575.695 96.7451 582.678 89.7624 582.678 81.1489C582.678 72.5354 575.695 65.5527 567.082 65.5527C558.468 65.5527 551.485 72.5354 551.485 81.1489C551.485 89.7624 558.468 96.7451 567.082 96.7451Z" stroke="black" stroke-width="5" stroke-miterlimit="10"/>
<path d="M535.889 34.1924C544.503 34.1924 551.485 27.2097 551.485 18.5962C551.485 9.98264 544.503 3 535.889 3C527.276 3 520.293 9.98264 520.293 18.5962C520.293 27.2097 527.276 34.1924 535.889 34.1924Z" stroke="black" stroke-width="5" stroke-miterlimit="10"/>
<path d="M535.889 65.4687C544.503 65.4687 551.485 58.4861 551.485 49.8725C551.485 41.259 544.503 34.2764 535.889 34.2764C527.276 34.2764 520.293 41.259 520.293 49.8725C520.293 58.4861 527.276 65.4687 535.889 65.4687Z" stroke="black" stroke-width="5" stroke-miterlimit="10"/>
<path d="M535.889 96.7451C544.503 96.7451 551.485 89.7624 551.485 81.1489C551.485 72.5354 544.503 65.5527 535.889 65.5527C527.276 65.5527 520.293 72.5354 520.293 81.1489C520.293 89.7624 527.276 96.7451 535.889 96.7451Z" stroke="black" stroke-width="5" stroke-miterlimit="10"/>
<path d="M504.614 34.1924C513.227 34.1924 520.21 27.2097 520.21 18.5962C520.21 9.98264 513.227 3 504.614 3C496 3 489.018 9.98264 489.018 18.5962C489.018 27.2097 496 34.1924 504.614 34.1924Z" stroke="black" stroke-width="5" stroke-miterlimit="10"/>
<path d="M504.614 65.4687C513.227 65.4687 520.21 58.4861 520.21 49.8725C520.21 41.259 513.227 34.2764 504.614 34.2764C496 34.2764 489.018 41.259 489.018 49.8725C489.018 58.4861 496 65.4687 504.614 65.4687Z" stroke="black" stroke-width="5" stroke-miterlimit="10"/>
<path d="M504.614 96.7451C513.227 96.7451 520.21 89.7624 520.21 81.1489C520.21 72.5354 513.227 65.5527 504.614 65.5527C496 65.5527 489.018 72.5354 489.018 81.1489C489.018 89.7624 496 96.7451 504.614 96.7451Z" stroke="black" stroke-width="5" stroke-miterlimit="10"/>
<path d="M473.337 34.1924C481.951 34.1924 488.934 27.2097 488.934 18.5962C488.934 9.98264 481.951 3 473.337 3C464.724 3 457.741 9.98264 457.741 18.5962C457.741 27.2097 464.724 34.1924 473.337 34.1924Z" stroke="black" stroke-width="5" stroke-miterlimit="10"/>
<path d="M473.337 65.4687C481.951 65.4687 488.934 58.4861 488.934 49.8725C488.934 41.259 481.951 34.2764 473.337 34.2764C464.724 34.2764 457.741 41.259 457.741 49.8725C457.741 58.4861 464.724 65.4687 473.337 65.4687Z" stroke="black" stroke-width="5" stroke-miterlimit="10"/>
<path d="M473.337 96.7451C481.951 96.7451 488.934 89.7624 488.934 81.1489C488.934 72.5354 481.951 65.5527 473.337 65.5527C464.724 65.5527 457.741 72.5354 457.741 81.1489C457.741 89.7624 464.724 96.7451 473.337 96.7451Z" stroke="black" stroke-width="5" stroke-miterlimit="10"/>
<path d="M660.911 34.1924C669.524 34.1924 676.507 27.2097 676.507 18.5962C676.507 9.98264 669.524 3 660.911 3C652.297 3 645.314 9.98264 645.314 18.5962C645.314 27.2097 652.297 34.1924 660.911 34.1924Z" stroke="black" stroke-width="5" stroke-miterlimit="10"/>
<path d="M660.911 65.4687C669.524 65.4687 676.507 58.4861 676.507 49.8725C676.507 41.259 669.524 34.2764 660.911 34.2764C652.297 34.2764 645.314 41.259 645.314 49.8725C645.314 58.4861 652.297 65.4687 660.911 65.4687Z" stroke="black" stroke-width="5" stroke-miterlimit="10"/>
<path d="M660.911 96.7451C669.524 96.7451 676.507 89.7624 676.507 81.1489C676.507 72.5354 669.524 65.5527 660.911 65.5527C652.297 65.5527 645.314 72.5354 645.314 81.1489C645.314 89.7624 652.297 96.7451 660.911 96.7451Z" stroke="black" stroke-width="5" stroke-miterlimit="10"/>
<path d="M629.634 34.1924C638.248 34.1924 645.23 27.2097 645.23 18.5962C645.23 9.98264 638.248 3 629.634 3C621.021 3 614.038 9.98264 614.038 18.5962C614.038 27.2097 621.021 34.1924 629.634 34.1924Z" stroke="black" stroke-width="5" stroke-miterlimit="10"/>
<path d="M629.634 65.4687C638.248 65.4687 645.23 58.4861 645.23 49.8725C645.23 41.259 638.248 34.2764 629.634 34.2764C621.021 34.2764 614.038 41.259 614.038 49.8725C614.038 58.4861 621.021 65.4687 629.634 65.4687Z" stroke="black" stroke-width="5" stroke-miterlimit="10"/>
<path d="M629.634 96.7451C638.248 96.7451 645.23 89.7624 645.23 81.1489C645.23 72.5354 638.248 65.5527 629.634 65.5527C621.021 65.5527 614.038 72.5354 614.038 81.1489C614.038 89.7624 621.021 96.7451 629.634 96.7451Z" stroke="black" stroke-width="5" stroke-miterlimit="10"/>
<path d="M598.358 34.1924C606.971 34.1924 613.954 27.2097 613.954 18.5962C613.954 9.98264 606.971 3 598.358 3C589.744 3 582.762 9.98264 582.762 18.5962C582.762 27.2097 589.744 34.1924 598.358 34.1924Z" stroke="black" stroke-width="5" stroke-miterlimit="10"/>
<path d="M598.358 65.4687C606.971 65.4687 613.954 58.4861 613.954 49.8725C613.954 41.259 606.971 34.2764 598.358 34.2764C589.744 34.2764 582.762 41.259 582.762 49.8725C582.762 58.4861 589.744 65.4687 598.358 65.4687Z" stroke="black" stroke-width="5" stroke-miterlimit="10"/>
<path d="M598.358 96.7451C606.971 96.7451 613.954 89.7624 613.954 81.1489C613.954 72.5354 606.971 65.5527 598.358 65.5527C589.744 65.5527 582.762 72.5354 582.762 81.1489C582.762 89.7624 589.744 96.7451 598.358 96.7451Z" stroke="black" stroke-width="5" stroke-miterlimit="10"/>
<path d="M567.082 219.753C575.695 219.753 582.678 212.77 582.678 204.157C582.678 195.543 575.695 188.561 567.082 188.561C558.468 188.561 551.485 195.543 551.485 204.157C551.485 212.77 558.468 219.753 567.082 219.753Z" stroke="black" stroke-width="5" stroke-miterlimit="10"/>
<path d="M567.082 250.945C575.695 250.945 582.678 243.963 582.678 235.349C582.678 226.736 575.695 219.753 567.082 219.753C558.468 219.753 551.485 226.736 551.485 235.349C551.485 243.963 558.468 250.945 567.082 250.945Z" stroke="black" stroke-width="5" stroke-miterlimit="10"/>
<path d="M567.082 282.222C575.695 282.222 582.678 275.239 582.678 266.625C582.678 258.012 575.695 251.029 567.082 251.029C558.468 251.029 551.485 258.012 551.485 266.625C551.485 275.239 558.468 282.222 567.082 282.222Z" stroke="black" stroke-width="5" stroke-miterlimit="10"/>
<path d="M535.889 219.753C544.503 219.753 551.485 212.77 551.485 204.157C551.485 195.543 544.503 188.561 535.889 188.561C527.276 188.561 520.293 195.543 520.293 204.157C520.293 212.77 527.276 219.753 535.889 219.753Z" stroke="black" stroke-width="5" stroke-miterlimit="10"/>
<path d="M535.889 250.945C544.503 250.945 551.485 243.963 551.485 235.349C551.485 226.736 544.503 219.753 535.889 219.753C527.276 219.753 520.293 226.736 520.293 235.349C520.293 243.963 527.276 250.945 535.889 250.945Z" stroke="black" stroke-width="5" stroke-miterlimit="10"/>
<path d="M535.889 282.222C544.503 282.222 551.485 275.239 551.485 266.625C551.485 258.012 544.503 251.029 535.889 251.029C527.276 251.029 520.293 258.012 520.293 266.625C520.293 275.239 527.276 282.222 535.889 282.222Z" stroke="black" stroke-width="5" stroke-miterlimit="10"/>
<path d="M504.614 219.753C513.227 219.753 520.21 212.77 520.21 204.157C520.21 195.543 513.227 188.561 504.614 188.561C496 188.561 489.018 195.543 489.018 204.157C489.018 212.77 496 219.753 504.614 219.753Z" stroke="black" stroke-width="5" stroke-miterlimit="10"/>
<path d="M504.614 250.945C513.227 250.945 520.21 243.963 520.21 235.349C520.21 226.736 513.227 219.753 504.614 219.753C496 219.753 489.018 226.736 489.018 235.349C489.018 243.963 496 250.945 504.614 250.945Z" stroke="black" stroke-width="5" stroke-miterlimit="10"/>
<path d="M504.614 282.222C513.227 282.222 520.21 275.239 520.21 266.625C520.21 258.012 513.227 251.029 504.614 251.029C496 251.029 489.018 258.012 489.018 266.625C489.018 275.239 496 282.222 504.614 282.222Z" stroke="black" stroke-width="5" stroke-miterlimit="10"/>
<path d="M473.337 219.753C481.951 219.753 488.934 212.77 488.934 204.157C488.934 195.543 481.951 188.561 473.337 188.561C464.724 188.561 457.741 195.543 457.741 204.157C457.741 212.77 464.724 219.753 473.337 219.753Z" stroke="black" stroke-width="5" stroke-miterlimit="10"/>
<path d="M473.337 250.945C481.951 250.945 488.934 243.963 488.934 235.349C488.934 226.736 481.951 219.753 473.337 219.753C464.724 219.753 457.741 226.736 457.741 235.349C457.741 243.963 464.724 250.945 473.337 250.945Z" stroke="black" stroke-width="5" stroke-miterlimit="10"/>
<path d="M473.337 282.222C481.951 282.222 488.934 275.239 488.934 266.625C488.934 258.012 481.951 251.029 473.337 251.029C464.724 251.029 457.741 258.012 457.741 266.625C457.741 275.239 464.724 282.222 473.337 282.222Z" stroke="black" stroke-width="5" stroke-miterlimit="10"/>
<path d="M660.911 219.753C669.524 219.753 676.507 212.77 676.507 204.157C676.507 195.543 669.524 188.561 660.911 188.561C652.297 188.561 645.314 195.543 645.314 204.157C645.314 212.77 652.297 219.753 660.911 219.753Z" stroke="black" stroke-width="5" stroke-miterlimit="10"/>
<path d="M660.911 250.945C669.524 250.945 676.507 243.963 676.507 235.349C676.507 226.736 669.524 219.753 660.911 219.753C652.297 219.753 645.314 226.736 645.314 235.349C645.314 243.963 652.297 250.945 660.911 250.945Z" stroke="black" stroke-width="5" stroke-miterlimit="10"/>
<path d="M660.911 282.222C669.524 282.222 676.507 275.239 676.507 266.625C676.507 258.012 669.524 251.029 660.911 251.029C652.297 251.029 645.314 258.012 645.314 266.625C645.314 275.239 652.297 282.222 660.911 282.222Z" stroke="black" stroke-width="5" stroke-miterlimit="10"/>
<path d="M629.634 219.753C638.248 219.753 645.23 212.77 645.23 204.157C645.23 195.543 638.248 188.561 629.634 188.561C621.021 188.561 614.038 195.543 614.038 204.157C614.038 212.77 621.021 219.753 629.634 219.753Z" stroke="black" stroke-width="5" stroke-miterlimit="10"/>
<path d="M629.634 250.945C638.248 250.945 645.23 243.963 645.23 235.349C645.23 226.736 638.248 219.753 629.634 219.753C621.021 219.753 614.038 226.736 614.038 235.349C614.038 243.963 621.021 250.945 629.634 250.945Z" stroke="black" stroke-width="5" stroke-miterlimit="10"/>
<path d="M629.634 282.222C638.248 282.222 645.23 275.239 645.23 266.625C645.23 258.012 638.248 251.029 629.634 251.029C621.021 251.029 614.038 258.012 614.038 266.625C614.038 275.239 621.021 282.222 629.634 282.222Z" stroke="black" stroke-width="5" stroke-miterlimit="10"/>
<path d="M598.358 219.753C606.971 219.753 613.954 212.77 613.954 204.157C613.954 195.543 606.971 188.561 598.358 188.561C589.744 188.561 582.762 195.543 582.762 204.157C582.762 212.77 589.744 219.753 598.358 219.753Z" stroke="black" stroke-width="5" stroke-miterlimit="10"/>
<path d="M598.358 250.945C606.971 250.945 613.954 243.963 613.954 235.349C613.954 226.736 606.971 219.753 598.358 219.753C589.744 219.753 582.762 226.736 582.762 235.349C582.762 243.963 589.744 250.945 598.358 250.945Z" stroke="black" stroke-width="5" stroke-miterlimit="10"/>
<path d="M598.358 282.222C606.971 282.222 613.954 275.239 613.954 266.625C613.954 258.012 606.971 251.029 598.358 251.029C589.744 251.029 582.762 258.012 582.762 266.625C582.762 275.239 589.744 282.222 598.358 282.222Z" stroke="black" stroke-width="5" stroke-miterlimit="10"/>
<path d="M567.082 440.447C575.695 440.447 582.678 433.465 582.678 424.851C582.678 416.238 575.695 409.255 567.082 409.255C558.468 409.255 551.485 416.238 551.485 424.851C551.485 433.465 558.468 440.447 567.082 440.447Z" stroke="black" stroke-width="5" stroke-miterlimit="10"/>
<path d="M567.082 471.724C575.695 471.724 582.678 464.741 582.678 456.127C582.678 447.514 575.695 440.531 567.082 440.531C558.468 440.531 551.485 447.514 551.485 456.127C551.485 464.741 558.468 471.724 567.082 471.724Z" stroke="black" stroke-width="5" stroke-miterlimit="10"/>
<path d="M567.082 503C575.695 503 582.678 496.017 582.678 487.404C582.678 478.79 575.695 471.808 567.082 471.808C558.468 471.808 551.485 478.79 551.485 487.404C551.485 496.017 558.468 503 567.082 503Z" stroke="black" stroke-width="5" stroke-miterlimit="10"/>
<path d="M535.889 440.447C544.503 440.447 551.485 433.465 551.485 424.851C551.485 416.238 544.503 409.255 535.889 409.255C527.276 409.255 520.293 416.238 520.293 424.851C520.293 433.465 527.276 440.447 535.889 440.447Z" stroke="black" stroke-width="5" stroke-miterlimit="10"/>
<path d="M535.889 471.724C544.503 471.724 551.485 464.741 551.485 456.127C551.485 447.514 544.503 440.531 535.889 440.531C527.276 440.531 520.293 447.514 520.293 456.127C520.293 464.741 527.276 471.724 535.889 471.724Z" stroke="black" stroke-width="5" stroke-miterlimit="10"/>
<path d="M535.889 503C544.503 503 551.485 496.017 551.485 487.404C551.485 478.79 544.503 471.808 535.889 471.808C527.276 471.808 520.293 478.79 520.293 487.404C520.293 496.017 527.276 503 535.889 503Z" stroke="black" stroke-width="5" stroke-miterlimit="10"/>
<path d="M504.614 440.447C513.227 440.447 520.21 433.465 520.21 424.851C520.21 416.238 513.227 409.255 504.614 409.255C496 409.255 489.018 416.238 489.018 424.851C489.018 433.465 496 440.447 504.614 440.447Z" stroke="black" stroke-width="5" stroke-miterlimit="10"/>
<path d="M504.614 471.724C513.227 471.724 520.21 464.741 520.21 456.127C520.21 447.514 513.227 440.531 504.614 440.531C496 440.531 489.018 447.514 489.018 456.127C489.018 464.741 496 471.724 504.614 471.724Z" stroke="black" stroke-width="5" stroke-miterlimit="10"/>
<path d="M504.614 503C513.227 503 520.21 496.017 520.21 487.404C520.21 478.79 513.227 471.808 504.614 471.808C496 471.808 489.018 478.79 489.018 487.404C489.018 496.017 496 503 504.614 503Z" stroke="black" stroke-width="5" stroke-miterlimit="10"/>
<path d="M473.337 440.447C481.951 440.447 488.934 433.465 488.934 424.851C488.934 416.238 481.951 409.255 473.337 409.255C464.724 409.255 457.741 416.238 457.741 424.851C457.741 433.465 464.724 440.447 473.337 440.447Z" stroke="black" stroke-width="5" stroke-miterlimit="10"/>
<path d="M473.337 471.724C481.951 471.724 488.934 464.741 488.934 456.127C488.934 447.514 481.951 440.531 473.337 440.531C464.724 440.531 457.741 447.514 457.741 456.127C457.741 464.741 464.724 471.724 473.337 471.724Z" stroke="black" stroke-width="5" stroke-miterlimit="10"/>
<path d="M473.337 503C481.951 503 488.934 496.017 488.934 487.404C488.934 478.79 481.951 471.808 473.337 471.808C464.724 471.808 457.741 478.79 457.741 487.404C457.741 496.017 464.724 503 473.337 503Z" stroke="black" stroke-width="5" stroke-miterlimit="10"/>
<path d="M660.911 440.447C669.524 440.447 676.507 433.465 676.507 424.851C676.507 416.238 669.524 409.255 660.911 409.255C652.297 409.255 645.314 416.238 645.314 424.851C645.314 433.465 652.297 440.447 660.911 440.447Z" stroke="black" stroke-width="5" stroke-miterlimit="10"/>
<path d="M660.911 471.724C669.524 471.724 676.507 464.741 676.507 456.127C676.507 447.514 669.524 440.531 660.911 440.531C652.297 440.531 645.314 447.514 645.314 456.127C645.314 464.741 652.297 471.724 660.911 471.724Z" stroke="black" stroke-width="5" stroke-miterlimit="10"/>
<path d="M660.911 503C669.524 503 676.507 496.017 676.507 487.404C676.507 478.79 669.524 471.808 660.911 471.808C652.297 471.808 645.314 478.79 645.314 487.404C645.314 496.017 652.297 503 660.911 503Z" stroke="black" stroke-width="5" stroke-miterlimit="10"/>
<path d="M629.634 440.447C638.248 440.447 645.23 433.465 645.23 424.851C645.23 416.238 638.248 409.255 629.634 409.255C621.021 409.255 614.038 416.238 614.038 424.851C614.038 433.465 621.021 440.447 629.634 440.447Z" stroke="black" stroke-width="5" stroke-miterlimit="10"/>
<path d="M629.634 471.724C638.248 471.724 645.23 464.741 645.23 456.127C645.23 447.514 638.248 440.531 629.634 440.531C621.021 440.531 614.038 447.514 614.038 456.127C614.038 464.741 621.021 471.724 629.634 471.724Z" stroke="black" stroke-width="5" stroke-miterlimit="10"/>
<path d="M629.634 503C638.248 503 645.23 496.017 645.23 487.404C645.23 478.79 638.248 471.808 629.634 471.808C621.021 471.808 614.038 478.79 614.038 487.404C614.038 496.017 621.021 503 629.634 503Z" stroke="black" stroke-width="5" stroke-miterlimit="10"/>
<path d="M598.358 440.447C606.971 440.447 613.954 433.465 613.954 424.851C613.954 416.238 606.971 409.255 598.358 409.255C589.744 409.255 582.762 416.238 582.762 424.851C582.762 433.465 589.744 440.447 598.358 440.447Z" stroke="black" stroke-width="5" stroke-miterlimit="10"/>
<path d="M598.358 471.724C606.971 471.724 613.954 464.741 613.954 456.127C613.954 447.514 606.971 440.531 598.358 440.531C589.744 440.531 582.762 447.514 582.762 456.127C582.762 464.741 589.744 471.724 598.358 471.724Z" stroke="black" stroke-width="5" stroke-miterlimit="10"/>
<path d="M598.358 503C606.971 503 613.954 496.017 613.954 487.404C613.954 478.79 606.971 471.808 598.358 471.808C589.744 471.808 582.762 478.79 582.762 487.404C582.762 496.017 589.744 503 598.358 503Z" stroke="black" stroke-width="5" stroke-miterlimit="10"/>
</svg>
