<svg width="682" height="506" viewBox="0 0 682 506" fill="none" xmlns="http://www.w3.org/2000/svg">
<path d="M143.618 34.1924C152.231 34.1924 159.214 27.2097 159.214 18.5962C159.214 9.98264 152.231 3 143.618 3C135.004 3 128.021 9.98264 128.021 18.5962C128.021 27.2097 135.004 34.1924 143.618 34.1924Z" stroke="black" stroke-width="5" stroke-miterlimit="10"/>
<path d="M174.894 34.1924C183.508 34.1924 190.49 27.2097 190.49 18.5962C190.49 9.98264 183.508 3 174.894 3C166.28 3 159.298 9.98264 159.298 18.5962C159.298 27.2097 166.28 34.1924 174.894 34.1924Z" stroke="black" stroke-width="5" stroke-miterlimit="10"/>
<path d="M206.086 34.1924C214.7 34.1924 221.683 27.2097 221.683 18.5962C221.683 9.98264 214.7 3 206.086 3C197.473 3 190.49 9.98264 190.49 18.5962C190.49 27.2097 197.473 34.1924 206.086 34.1924Z" stroke="black" stroke-width="5" stroke-miterlimit="10"/>
<path d="M143.618 65.4687C152.231 65.4687 159.214 58.4861 159.214 49.8725C159.214 41.259 152.231 34.2764 143.618 34.2764C135.004 34.2764 128.021 41.259 128.021 49.8725C128.021 58.4861 135.004 65.4687 143.618 65.4687Z" stroke="black" stroke-width="5" stroke-miterlimit="10"/>
<path d="M174.894 65.4687C183.508 65.4687 190.49 58.4861 190.49 49.8725C190.49 41.259 183.508 34.2764 174.894 34.2764C166.28 34.2764 159.298 41.259 159.298 49.8725C159.298 58.4861 166.28 65.4687 174.894 65.4687Z" stroke="black" stroke-width="5" stroke-miterlimit="10"/>
<path d="M206.086 65.4687C214.7 65.4687 221.683 58.4861 221.683 49.8725C221.683 41.259 214.7 34.2764 206.086 34.2764C197.473 34.2764 190.49 41.259 190.49 49.8725C190.49 58.4861 197.473 65.4687 206.086 65.4687Z" stroke="black" stroke-width="5" stroke-miterlimit="10"/>
<path d="M143.618 96.7451C152.231 96.7451 159.214 89.7624 159.214 81.1489C159.214 72.5354 152.231 65.5527 143.618 65.5527C135.004 65.5527 128.021 72.5354 128.021 81.1489C128.021 89.7624 135.004 96.7451 143.618 96.7451Z" stroke="black" stroke-width="5" stroke-miterlimit="10"/>
<path d="M174.894 96.7451C183.508 96.7451 190.49 89.7624 190.49 81.1489C190.49 72.5354 183.508 65.5527 174.894 65.5527C166.28 65.5527 159.298 72.5354 159.298 81.1489C159.298 89.7624 166.28 96.7451 174.894 96.7451Z" stroke="black" stroke-width="5" stroke-miterlimit="10"/>
<path d="M206.086 96.7451C214.7 96.7451 221.683 89.7624 221.683 81.1489C221.683 72.5354 214.7 65.5527 206.086 65.5527C197.473 65.5527 190.49 72.5354 190.49 81.1489C190.49 89.7624 197.473 96.7451 206.086 96.7451Z" stroke="black" stroke-width="5" stroke-miterlimit="10"/>
<path d="M143.618 127.937C152.231 127.937 159.214 120.955 159.214 112.341C159.214 103.728 152.231 96.7451 143.618 96.7451C135.004 96.7451 128.021 103.728 128.021 112.341C128.021 120.955 135.004 127.937 143.618 127.937Z" stroke="black" stroke-width="5" stroke-miterlimit="10"/>
<path d="M174.894 127.937C183.508 127.937 190.49 120.955 190.49 112.341C190.49 103.728 183.508 96.7451 174.894 96.7451C166.28 96.7451 159.298 103.728 159.298 112.341C159.298 120.955 166.28 127.937 174.894 127.937Z" stroke="black" stroke-width="5" stroke-miterlimit="10"/>
<path d="M206.086 127.937C214.7 127.937 221.683 120.955 221.683 112.341C221.683 103.728 214.7 96.7451 206.086 96.7451C197.473 96.7451 190.49 103.728 190.49 112.341C190.49 120.955 197.473 127.937 206.086 127.937Z" stroke="black" stroke-width="5" stroke-miterlimit="10"/>
<path d="M143.618 159.213C152.231 159.213 159.214 152.23 159.214 143.617C159.214 135.003 152.231 128.021 143.618 128.021C135.004 128.021 128.021 135.003 128.021 143.617C128.021 152.23 135.004 159.213 143.618 159.213Z" stroke="black" stroke-width="5" stroke-miterlimit="10"/>
<path d="M174.894 159.213C183.508 159.213 190.49 152.23 190.49 143.617C190.49 135.003 183.508 128.021 174.894 128.021C166.28 128.021 159.298 135.003 159.298 143.617C159.298 152.23 166.28 159.213 174.894 159.213Z" stroke="black" stroke-width="5" stroke-miterlimit="10"/>
<path d="M206.086 159.213C214.7 159.213 221.683 152.23 221.683 143.617C221.683 135.003 214.7 128.021 206.086 128.021C197.473 128.021 190.49 135.003 190.49 143.617C190.49 152.23 197.473 159.213 206.086 159.213Z" stroke="black" stroke-width="5" stroke-miterlimit="10"/>
<path d="M143.618 190.489C152.231 190.489 159.214 183.507 159.214 174.893C159.214 166.28 152.231 159.297 143.618 159.297C135.004 159.297 128.021 166.28 128.021 174.893C128.021 183.507 135.004 190.489 143.618 190.489Z" stroke="black" stroke-width="5" stroke-miterlimit="10"/>
<path d="M174.894 190.489C183.508 190.489 190.49 183.507 190.49 174.893C190.49 166.28 183.508 159.297 174.894 159.297C166.28 159.297 159.298 166.28 159.298 174.893C159.298 183.507 166.28 190.489 174.894 190.489Z" stroke="black" stroke-width="5" stroke-miterlimit="10"/>
<path d="M206.086 190.489C214.7 190.489 221.683 183.507 221.683 174.893C221.683 166.28 214.7 159.297 206.086 159.297C197.473 159.297 190.49 166.28 190.49 174.893C190.49 183.507 197.473 190.489 206.086 190.489Z" stroke="black" stroke-width="5" stroke-miterlimit="10"/>
<path d="M143.618 221.682C152.231 221.682 159.214 214.699 159.214 206.085C159.214 197.472 152.231 190.489 143.618 190.489C135.004 190.489 128.021 197.472 128.021 206.085C128.021 214.699 135.004 221.682 143.618 221.682Z" stroke="black" stroke-width="5" stroke-miterlimit="10"/>
<path d="M174.894 221.682C183.508 221.682 190.49 214.699 190.49 206.085C190.49 197.472 183.508 190.489 174.894 190.489C166.28 190.489 159.298 197.472 159.298 206.085C159.298 214.699 166.28 221.682 174.894 221.682Z" stroke="black" stroke-width="5" stroke-miterlimit="10"/>
<path d="M206.086 221.682C214.7 221.682 221.683 214.699 221.683 206.085C221.683 197.472 214.7 190.489 206.086 190.489C197.473 190.489 190.49 197.472 190.49 206.085C190.49 214.699 197.473 221.682 206.086 221.682Z" stroke="black" stroke-width="5" stroke-miterlimit="10"/>
<path d="M143.618 252.958C152.231 252.958 159.214 245.975 159.214 237.362C159.214 228.748 152.231 221.766 143.618 221.766C135.004 221.766 128.021 228.748 128.021 237.362C128.021 245.975 135.004 252.958 143.618 252.958Z" stroke="black" stroke-width="5" stroke-miterlimit="10"/>
<path d="M174.894 252.958C183.508 252.958 190.49 245.975 190.49 237.362C190.49 228.748 183.508 221.766 174.894 221.766C166.28 221.766 159.298 228.748 159.298 237.362C159.298 245.975 166.28 252.958 174.894 252.958Z" stroke="black" stroke-width="5" stroke-miterlimit="10"/>
<path d="M206.086 252.958C214.7 252.958 221.683 245.975 221.683 237.362C221.683 228.748 214.7 221.766 206.086 221.766C197.473 221.766 190.49 228.748 190.49 237.362C190.49 245.975 197.473 252.958 206.086 252.958Z" stroke="black" stroke-width="5" stroke-miterlimit="10"/>
<path d="M143.618 284.234C152.231 284.234 159.214 277.252 159.214 268.638C159.214 260.025 152.231 253.042 143.618 253.042C135.004 253.042 128.021 260.025 128.021 268.638C128.021 277.252 135.004 284.234 143.618 284.234Z" stroke="black" stroke-width="5" stroke-miterlimit="10"/>
<path d="M174.894 284.234C183.508 284.234 190.49 277.252 190.49 268.638C190.49 260.025 183.508 253.042 174.894 253.042C166.28 253.042 159.298 260.025 159.298 268.638C159.298 277.252 166.28 284.234 174.894 284.234Z" stroke="black" stroke-width="5" stroke-miterlimit="10"/>
<path d="M206.086 284.234C214.7 284.234 221.683 277.252 221.683 268.638C221.683 260.025 214.7 253.042 206.086 253.042C197.473 253.042 190.49 260.025 190.49 268.638C190.49 277.252 197.473 284.234 206.086 284.234Z" stroke="black" stroke-width="5" stroke-miterlimit="10"/>
<path d="M143.618 315.427C152.231 315.427 159.214 308.444 159.214 299.831C159.214 291.217 152.231 284.234 143.618 284.234C135.004 284.234 128.021 291.217 128.021 299.831C128.021 308.444 135.004 315.427 143.618 315.427Z" stroke="black" stroke-width="5" stroke-miterlimit="10"/>
<path d="M174.894 315.427C183.508 315.427 190.49 308.444 190.49 299.831C190.49 291.217 183.508 284.234 174.894 284.234C166.28 284.234 159.298 291.217 159.298 299.831C159.298 308.444 166.28 315.427 174.894 315.427Z" stroke="black" stroke-width="5" stroke-miterlimit="10"/>
<path d="M206.086 315.427C214.7 315.427 221.683 308.444 221.683 299.831C221.683 291.217 214.7 284.234 206.086 284.234C197.473 284.234 190.49 291.217 190.49 299.831C190.49 308.444 197.473 315.427 206.086 315.427Z" stroke="black" stroke-width="5" stroke-miterlimit="10"/>
<path d="M143.618 346.703C152.231 346.703 159.214 339.72 159.214 331.107C159.214 322.493 152.231 315.511 143.618 315.511C135.004 315.511 128.021 322.493 128.021 331.107C128.021 339.72 135.004 346.703 143.618 346.703Z" stroke="black" stroke-width="5" stroke-miterlimit="10"/>
<path d="M174.894 346.703C183.508 346.703 190.49 339.72 190.49 331.107C190.49 322.493 183.508 315.511 174.894 315.511C166.28 315.511 159.298 322.493 159.298 331.107C159.298 339.72 166.28 346.703 174.894 346.703Z" stroke="black" stroke-width="5" stroke-miterlimit="10"/>
<path d="M206.086 346.703C214.7 346.703 221.683 339.72 221.683 331.107C221.683 322.493 214.7 315.511 206.086 315.511C197.473 315.511 190.49 322.493 190.49 331.107C190.49 339.72 197.473 346.703 206.086 346.703Z" stroke="black" stroke-width="5" stroke-miterlimit="10"/>
<path d="M143.618 377.979C152.231 377.979 159.214 370.997 159.214 362.383C159.214 353.77 152.231 346.787 143.618 346.787C135.004 346.787 128.021 353.77 128.021 362.383C128.021 370.997 135.004 377.979 143.618 377.979Z" stroke="black" stroke-width="5" stroke-miterlimit="10"/>
<path d="M174.894 377.979C183.508 377.979 190.49 370.997 190.49 362.383C190.49 353.77 183.508 346.787 174.894 346.787C166.28 346.787 159.298 353.77 159.298 362.383C159.298 370.997 166.28 377.979 174.894 377.979Z" stroke="black" stroke-width="5" stroke-miterlimit="10"/>
<path d="M206.086 377.979C214.7 377.979 221.683 370.997 221.683 362.383C221.683 353.77 214.7 346.787 206.086 346.787C197.473 346.787 190.49 353.77 190.49 362.383C190.49 370.997 197.473 377.979 206.086 377.979Z" stroke="black" stroke-width="5" stroke-miterlimit="10"/>
<path d="M143.618 409.255C152.231 409.255 159.214 402.272 159.214 393.659C159.214 385.045 152.231 378.062 143.618 378.062C135.004 378.062 128.021 385.045 128.021 393.659C128.021 402.272 135.004 409.255 143.618 409.255Z" stroke="black" stroke-width="5" stroke-miterlimit="10"/>
<path d="M174.894 409.255C183.508 409.255 190.49 402.272 190.49 393.659C190.49 385.045 183.508 378.062 174.894 378.062C166.28 378.062 159.298 385.045 159.298 393.659C159.298 402.272 166.28 409.255 174.894 409.255Z" stroke="black" stroke-width="5" stroke-miterlimit="10"/>
<path d="M206.086 409.255C214.7 409.255 221.683 402.272 221.683 393.659C221.683 385.045 214.7 378.062 206.086 378.062C197.473 378.062 190.49 385.045 190.49 393.659C190.49 402.272 197.473 409.255 206.086 409.255Z" stroke="black" stroke-width="5" stroke-miterlimit="10"/>
<path d="M143.618 440.447C152.231 440.447 159.214 433.465 159.214 424.851C159.214 416.238 152.231 409.255 143.618 409.255C135.004 409.255 128.021 416.238 128.021 424.851C128.021 433.465 135.004 440.447 143.618 440.447Z" stroke="black" stroke-width="5" stroke-miterlimit="10"/>
<path d="M174.894 440.447C183.508 440.447 190.49 433.465 190.49 424.851C190.49 416.238 183.508 409.255 174.894 409.255C166.28 409.255 159.298 416.238 159.298 424.851C159.298 433.465 166.28 440.447 174.894 440.447Z" stroke="black" stroke-width="5" stroke-miterlimit="10"/>
<path d="M206.086 440.447C214.7 440.447 221.683 433.465 221.683 424.851C221.683 416.238 214.7 409.255 206.086 409.255C197.473 409.255 190.49 416.238 190.49 424.851C190.49 433.465 197.473 440.447 206.086 440.447Z" stroke="black" stroke-width="5" stroke-miterlimit="10"/>
<path d="M143.618 471.724C152.231 471.724 159.214 464.741 159.214 456.127C159.214 447.514 152.231 440.531 143.618 440.531C135.004 440.531 128.021 447.514 128.021 456.127C128.021 464.741 135.004 471.724 143.618 471.724Z" stroke="black" stroke-width="5" stroke-miterlimit="10"/>
<path d="M174.894 471.724C183.508 471.724 190.49 464.741 190.49 456.127C190.49 447.514 183.508 440.531 174.894 440.531C166.28 440.531 159.298 447.514 159.298 456.127C159.298 464.741 166.28 471.724 174.894 471.724Z" stroke="black" stroke-width="5" stroke-miterlimit="10"/>
<path d="M206.086 471.724C214.7 471.724 221.683 464.741 221.683 456.127C221.683 447.514 214.7 440.531 206.086 440.531C197.473 440.531 190.49 447.514 190.49 456.127C190.49 464.741 197.473 471.724 206.086 471.724Z" stroke="black" stroke-width="5" stroke-miterlimit="10"/>
<path d="M143.618 503C152.231 503 159.214 496.017 159.214 487.404C159.214 478.79 152.231 471.808 143.618 471.808C135.004 471.808 128.021 478.79 128.021 487.404C128.021 496.017 135.004 503 143.618 503Z" stroke="black" stroke-width="5" stroke-miterlimit="10"/>
<path d="M174.894 503C183.508 503 190.49 496.017 190.49 487.404C190.49 478.79 183.508 471.808 174.894 471.808C166.28 471.808 159.298 478.79 159.298 487.404C159.298 496.017 166.28 503 174.894 503Z" stroke="black" stroke-width="5" stroke-miterlimit="10"/>
<path d="M206.086 503C214.7 503 221.683 496.017 221.683 487.404C221.683 478.79 214.7 471.808 206.086 471.808C197.473 471.808 190.49 478.79 190.49 487.404C190.49 496.017 197.473 503 206.086 503Z" stroke="black" stroke-width="5" stroke-miterlimit="10"/>
<path d="M331.107 34.1924C339.72 34.1924 346.703 27.2097 346.703 18.5962C346.703 9.98264 339.72 3 331.107 3C322.493 3 315.511 9.98264 315.511 18.5962C315.511 27.2097 322.493 34.1924 331.107 34.1924Z" stroke="black" stroke-width="5" stroke-miterlimit="10"/>
<path d="M331.107 65.4687C339.72 65.4687 346.703 58.4861 346.703 49.8725C346.703 41.259 339.72 34.2764 331.107 34.2764C322.493 34.2764 315.511 41.259 315.511 49.8725C315.511 58.4861 322.493 65.4687 331.107 65.4687Z" stroke="black" stroke-width="5" stroke-miterlimit="10"/>
<path d="M331.107 96.7451C339.72 96.7451 346.703 89.7624 346.703 81.1489C346.703 72.5354 339.72 65.5527 331.107 65.5527C322.493 65.5527 315.511 72.5354 315.511 81.1489C315.511 89.7624 322.493 96.7451 331.107 96.7451Z" stroke="black" stroke-width="5" stroke-miterlimit="10"/>
<path d="M299.831 34.1924C308.444 34.1924 315.427 27.2097 315.427 18.5962C315.427 9.98264 308.444 3 299.831 3C291.217 3 284.234 9.98264 284.234 18.5962C284.234 27.2097 291.217 34.1924 299.831 34.1924Z" stroke="black" stroke-width="5" stroke-miterlimit="10"/>
<path d="M299.831 65.4687C308.444 65.4687 315.427 58.4861 315.427 49.8725C315.427 41.259 308.444 34.2764 299.831 34.2764C291.217 34.2764 284.234 41.259 284.234 49.8725C284.234 58.4861 291.217 65.4687 299.831 65.4687Z" stroke="black" stroke-width="5" stroke-miterlimit="10"/>
<path d="M299.831 96.7451C308.444 96.7451 315.427 89.7624 315.427 81.1489C315.427 72.5354 308.444 65.5527 299.831 65.5527C291.217 65.5527 284.234 72.5354 284.234 81.1489C284.234 89.7624 291.217 96.7451 299.831 96.7451Z" stroke="black" stroke-width="5" stroke-miterlimit="10"/>
<path d="M268.638 34.1924C277.252 34.1924 284.234 27.2097 284.234 18.5962C284.234 9.98264 277.252 3 268.638 3C260.025 3 253.042 9.98264 253.042 18.5962C253.042 27.2097 260.025 34.1924 268.638 34.1924Z" stroke="black" stroke-width="5" stroke-miterlimit="10"/>
<path d="M268.638 65.4687C277.252 65.4687 284.234 58.4861 284.234 49.8725C284.234 41.259 277.252 34.2764 268.638 34.2764C260.025 34.2764 253.042 41.259 253.042 49.8725C253.042 58.4861 260.025 65.4687 268.638 65.4687Z" stroke="black" stroke-width="5" stroke-miterlimit="10"/>
<path d="M268.638 96.7451C277.252 96.7451 284.234 89.7624 284.234 81.1489C284.234 72.5354 277.252 65.5527 268.638 65.5527C260.025 65.5527 253.042 72.5354 253.042 81.1489C253.042 89.7624 260.025 96.7451 268.638 96.7451Z" stroke="black" stroke-width="5" stroke-miterlimit="10"/>
<path d="M237.362 34.1924C245.975 34.1924 252.958 27.2097 252.958 18.5962C252.958 9.98264 245.975 3 237.362 3C228.748 3 221.766 9.98264 221.766 18.5962C221.766 27.2097 228.748 34.1924 237.362 34.1924Z" stroke="black" stroke-width="5" stroke-miterlimit="10"/>
<path d="M237.362 65.4687C245.975 65.4687 252.958 58.4861 252.958 49.8725C252.958 41.259 245.975 34.2764 237.362 34.2764C228.748 34.2764 221.766 41.259 221.766 49.8725C221.766 58.4861 228.748 65.4687 237.362 65.4687Z" stroke="black" stroke-width="5" stroke-miterlimit="10"/>
<path d="M237.362 96.7451C245.975 96.7451 252.958 89.7624 252.958 81.1489C252.958 72.5354 245.975 65.5527 237.362 65.5527C228.748 65.5527 221.766 72.5354 221.766 81.1489C221.766 89.7624 228.748 96.7451 237.362 96.7451Z" stroke="black" stroke-width="5" stroke-miterlimit="10"/>
<path d="M112.341 34.1924C120.955 34.1924 127.937 27.2097 127.937 18.5962C127.937 9.98264 120.955 3 112.341 3C103.728 3 96.7451 9.98264 96.7451 18.5962C96.7451 27.2097 103.728 34.1924 112.341 34.1924Z" stroke="black" stroke-width="5" stroke-miterlimit="10"/>
<path d="M112.341 65.4687C120.955 65.4687 127.937 58.4861 127.937 49.8725C127.937 41.259 120.955 34.2764 112.341 34.2764C103.728 34.2764 96.7451 41.259 96.7451 49.8725C96.7451 58.4861 103.728 65.4687 112.341 65.4687Z" stroke="black" stroke-width="5" stroke-miterlimit="10"/>
<path d="M112.341 96.7451C120.955 96.7451 127.937 89.7624 127.937 81.1489C127.937 72.5354 120.955 65.5527 112.341 65.5527C103.728 65.5527 96.7451 72.5354 96.7451 81.1489C96.7451 89.7624 103.728 96.7451 112.341 96.7451Z" stroke="black" stroke-width="5" stroke-miterlimit="10"/>
<path d="M81.1489 34.1924C89.7624 34.1924 96.7451 27.2097 96.7451 18.5962C96.7451 9.98264 89.7624 3 81.1489 3C72.5354 3 65.5527 9.98264 65.5527 18.5962C65.5527 27.2097 72.5354 34.1924 81.1489 34.1924Z" stroke="black" stroke-width="5" stroke-miterlimit="10"/>
<path d="M81.1489 65.4687C89.7624 65.4687 96.7451 58.4861 96.7451 49.8725C96.7451 41.259 89.7624 34.2764 81.1489 34.2764C72.5354 34.2764 65.5527 41.259 65.5527 49.8725C65.5527 58.4861 72.5354 65.4687 81.1489 65.4687Z" stroke="black" stroke-width="5" stroke-miterlimit="10"/>
<path d="M81.1489 96.7451C89.7624 96.7451 96.7451 89.7624 96.7451 81.1489C96.7451 72.5354 89.7624 65.5527 81.1489 65.5527C72.5354 65.5527 65.5527 72.5354 65.5527 81.1489C65.5527 89.7624 72.5354 96.7451 81.1489 96.7451Z" stroke="black" stroke-width="5" stroke-miterlimit="10"/>
<path d="M49.8724 34.1924C58.486 34.1924 65.4686 27.2097 65.4686 18.5962C65.4686 9.98264 58.486 3 49.8724 3C41.2589 3 34.2764 9.98264 34.2764 18.5962C34.2764 27.2097 41.2589 34.1924 49.8724 34.1924Z" stroke="black" stroke-width="5" stroke-miterlimit="10"/>
<path d="M49.8724 65.4687C58.486 65.4687 65.4686 58.4861 65.4686 49.8725C65.4686 41.259 58.486 34.2764 49.8724 34.2764C41.2589 34.2764 34.2764 41.259 34.2764 49.8725C34.2764 58.4861 41.2589 65.4687 49.8724 65.4687Z" stroke="black" stroke-width="5" stroke-miterlimit="10"/>
<path d="M49.8724 96.7451C58.486 96.7451 65.4686 89.7624 65.4686 81.1489C65.4686 72.5354 58.486 65.5527 49.8724 65.5527C41.2589 65.5527 34.2764 72.5354 34.2764 81.1489C34.2764 89.7624 41.2589 96.7451 49.8724 96.7451Z" stroke="black" stroke-width="5" stroke-miterlimit="10"/>
<path d="M18.5962 34.1924C27.2097 34.1924 34.1924 27.2097 34.1924 18.5962C34.1924 9.98264 27.2097 3 18.5962 3C9.98265 3 3 9.98264 3 18.5962C3 27.2097 9.98265 34.1924 18.5962 34.1924Z" stroke="black" stroke-width="5" stroke-miterlimit="10"/>
<path d="M18.5962 65.4687C27.2097 65.4687 34.1924 58.4861 34.1924 49.8725C34.1924 41.259 27.2097 34.2764 18.5962 34.2764C9.98265 34.2764 3 41.259 3 49.8725C3 58.4861 9.98265 65.4687 18.5962 65.4687Z" stroke="black" stroke-width="5" stroke-miterlimit="10"/>
<path d="M18.5962 96.7451C27.2097 96.7451 34.1924 89.7624 34.1924 81.1489C34.1924 72.5354 27.2097 65.5527 18.5962 65.5527C9.98265 65.5527 3 72.5354 3 81.1489C3 89.7624 9.98265 96.7451 18.5962 96.7451Z" stroke="black" stroke-width="5" stroke-miterlimit="10"/>
<path d="M382.592 34.1924C391.206 34.1924 398.188 27.2097 398.188 18.5962C398.188 9.98264 391.206 3 382.592 3C373.979 3 366.996 9.98264 366.996 18.5962C366.996 27.2097 373.979 34.1924 382.592 34.1924Z" stroke="black" stroke-width="5" stroke-miterlimit="10"/>
<path d="M413.869 34.1924C422.482 34.1924 429.465 27.2097 429.465 18.5962C429.465 9.98264 422.482 3 413.869 3C405.255 3 398.272 9.98264 398.272 18.5962C398.272 27.2097 405.255 34.1924 413.869 34.1924Z" stroke="black" stroke-width="5" stroke-miterlimit="10"/>
<path d="M445.145 34.1924C453.759 34.1924 460.741 27.2097 460.741 18.5962C460.741 9.98264 453.759 3 445.145 3C436.531 3 429.549 9.98264 429.549 18.5962C429.549 27.2097 436.531 34.1924 445.145 34.1924Z" stroke="black" stroke-width="5" stroke-miterlimit="10"/>
<path d="M382.592 65.4687C391.206 65.4687 398.188 58.4861 398.188 49.8725C398.188 41.259 391.206 34.2764 382.592 34.2764C373.979 34.2764 366.996 41.259 366.996 49.8725C366.996 58.4861 373.979 65.4687 382.592 65.4687Z" stroke="black" stroke-width="5" stroke-miterlimit="10"/>
<path d="M413.869 65.4687C422.482 65.4687 429.465 58.4861 429.465 49.8725C429.465 41.259 422.482 34.2764 413.869 34.2764C405.255 34.2764 398.272 41.259 398.272 49.8725C398.272 58.4861 405.255 65.4687 413.869 65.4687Z" stroke="black" stroke-width="5" stroke-miterlimit="10"/>
<path d="M445.145 65.4687C453.759 65.4687 460.741 58.4861 460.741 49.8725C460.741 41.259 453.759 34.2764 445.145 34.2764C436.531 34.2764 429.549 41.259 429.549 49.8725C429.549 58.4861 436.531 65.4687 445.145 65.4687Z" stroke="black" stroke-width="5" stroke-miterlimit="10"/>
<path d="M382.592 96.7451C391.206 96.7451 398.188 89.7624 398.188 81.1489C398.188 72.5354 391.206 65.5527 382.592 65.5527C373.979 65.5527 366.996 72.5354 366.996 81.1489C366.996 89.7624 373.979 96.7451 382.592 96.7451Z" stroke="black" stroke-width="5" stroke-miterlimit="10"/>
<path d="M413.869 96.7451C422.482 96.7451 429.465 89.7624 429.465 81.1489C429.465 72.5354 422.482 65.5527 413.869 65.5527C405.255 65.5527 398.272 72.5354 398.272 81.1489C398.272 89.7624 405.255 96.7451 413.869 96.7451Z" stroke="black" stroke-width="5" stroke-miterlimit="10"/>
<path d="M445.145 96.7451C453.759 96.7451 460.741 89.7624 460.741 81.1489C460.741 72.5354 453.759 65.5527 445.145 65.5527C436.531 65.5527 429.549 72.5354 429.549 81.1489C429.549 89.7624 436.531 96.7451 445.145 96.7451Z" stroke="black" stroke-width="5" stroke-miterlimit="10"/>
<path d="M382.592 127.937C391.206 127.937 398.188 120.955 398.188 112.341C398.188 103.728 391.206 96.7451 382.592 96.7451C373.979 96.7451 366.996 103.728 366.996 112.341C366.996 120.955 373.979 127.937 382.592 127.937Z" stroke="black" stroke-width="5" stroke-miterlimit="10"/>
<path d="M413.869 127.937C422.482 127.937 429.465 120.955 429.465 112.341C429.465 103.728 422.482 96.7451 413.869 96.7451C405.255 96.7451 398.272 103.728 398.272 112.341C398.272 120.955 405.255 127.937 413.869 127.937Z" stroke="black" stroke-width="5" stroke-miterlimit="10"/>
<path d="M445.145 127.937C453.759 127.937 460.741 120.955 460.741 112.341C460.741 103.728 453.759 96.7451 445.145 96.7451C436.531 96.7451 429.549 103.728 429.549 112.341C429.549 120.955 436.531 127.937 445.145 127.937Z" stroke="black" stroke-width="5" stroke-miterlimit="10"/>
<path d="M382.592 159.213C391.206 159.213 398.188 152.23 398.188 143.617C398.188 135.003 391.206 128.021 382.592 128.021C373.979 128.021 366.996 135.003 366.996 143.617C366.996 152.23 373.979 159.213 382.592 159.213Z" stroke="black" stroke-width="5" stroke-miterlimit="10"/>
<path d="M413.869 159.213C422.482 159.213 429.465 152.23 429.465 143.617C429.465 135.003 422.482 128.021 413.869 128.021C405.255 128.021 398.272 135.003 398.272 143.617C398.272 152.23 405.255 159.213 413.869 159.213Z" stroke="black" stroke-width="5" stroke-miterlimit="10"/>
<path d="M445.145 159.213C453.759 159.213 460.741 152.23 460.741 143.617C460.741 135.003 453.759 128.021 445.145 128.021C436.531 128.021 429.549 135.003 429.549 143.617C429.549 152.23 436.531 159.213 445.145 159.213Z" stroke="black" stroke-width="5" stroke-miterlimit="10"/>
<path d="M382.592 190.489C391.206 190.489 398.188 183.507 398.188 174.893C398.188 166.28 391.206 159.297 382.592 159.297C373.979 159.297 366.996 166.28 366.996 174.893C366.996 183.507 373.979 190.489 382.592 190.489Z" stroke="black" stroke-width="5" stroke-miterlimit="10"/>
<path d="M413.869 190.489C422.482 190.489 429.465 183.507 429.465 174.893C429.465 166.28 422.482 159.297 413.869 159.297C405.255 159.297 398.272 166.28 398.272 174.893C398.272 183.507 405.255 190.489 413.869 190.489Z" stroke="black" stroke-width="5" stroke-miterlimit="10"/>
<path d="M445.145 190.489C453.759 190.489 460.741 183.507 460.741 174.893C460.741 166.28 453.759 159.297 445.145 159.297C436.531 159.297 429.549 166.28 429.549 174.893C429.549 183.507 436.531 190.489 445.145 190.489Z" stroke="black" stroke-width="5" stroke-miterlimit="10"/>
<path d="M382.592 221.682C391.206 221.682 398.188 214.699 398.188 206.085C398.188 197.472 391.206 190.489 382.592 190.489C373.979 190.489 366.996 197.472 366.996 206.085C366.996 214.699 373.979 221.682 382.592 221.682Z" stroke="black" stroke-width="5" stroke-miterlimit="10"/>
<path d="M413.869 221.682C422.482 221.682 429.465 214.699 429.465 206.085C429.465 197.472 422.482 190.489 413.869 190.489C405.255 190.489 398.272 197.472 398.272 206.085C398.272 214.699 405.255 221.682 413.869 221.682Z" stroke="black" stroke-width="5" stroke-miterlimit="10"/>
<path d="M445.145 221.682C453.759 221.682 460.741 214.699 460.741 206.085C460.741 197.472 453.759 190.489 445.145 190.489C436.531 190.489 429.549 197.472 429.549 206.085C429.549 214.699 436.531 221.682 445.145 221.682Z" stroke="black" stroke-width="5" stroke-miterlimit="10"/>
<path d="M382.592 252.958C391.206 252.958 398.188 245.975 398.188 237.362C398.188 228.748 391.206 221.766 382.592 221.766C373.979 221.766 366.996 228.748 366.996 237.362C366.996 245.975 373.979 252.958 382.592 252.958Z" stroke="black" stroke-width="5" stroke-miterlimit="10"/>
<path d="M413.869 252.958C422.482 252.958 429.465 245.975 429.465 237.362C429.465 228.748 422.482 221.766 413.869 221.766C405.255 221.766 398.272 228.748 398.272 237.362C398.272 245.975 405.255 252.958 413.869 252.958Z" stroke="black" stroke-width="5" stroke-miterlimit="10"/>
<path d="M445.145 252.958C453.759 252.958 460.741 245.975 460.741 237.362C460.741 228.748 453.759 221.766 445.145 221.766C436.531 221.766 429.549 228.748 429.549 237.362C429.549 245.975 436.531 252.958 445.145 252.958Z" stroke="black" stroke-width="5" stroke-miterlimit="10"/>
<path d="M382.592 284.234C391.206 284.234 398.188 277.252 398.188 268.638C398.188 260.025 391.206 253.042 382.592 253.042C373.979 253.042 366.996 260.025 366.996 268.638C366.996 277.252 373.979 284.234 382.592 284.234Z" stroke="black" stroke-width="5" stroke-miterlimit="10"/>
<path d="M413.869 284.234C422.482 284.234 429.465 277.252 429.465 268.638C429.465 260.025 422.482 253.042 413.869 253.042C405.255 253.042 398.272 260.025 398.272 268.638C398.272 277.252 405.255 284.234 413.869 284.234Z" stroke="black" stroke-width="5" stroke-miterlimit="10"/>
<path d="M445.145 284.234C453.759 284.234 460.741 277.252 460.741 268.638C460.741 260.025 453.759 253.042 445.145 253.042C436.531 253.042 429.549 260.025 429.549 268.638C429.549 277.252 436.531 284.234 445.145 284.234Z" stroke="black" stroke-width="5" stroke-miterlimit="10"/>
<path d="M382.592 315.427C391.206 315.427 398.188 308.444 398.188 299.831C398.188 291.217 391.206 284.234 382.592 284.234C373.979 284.234 366.996 291.217 366.996 299.831C366.996 308.444 373.979 315.427 382.592 315.427Z" stroke="black" stroke-width="5" stroke-miterlimit="10"/>
<path d="M413.869 315.427C422.482 315.427 429.465 308.444 429.465 299.831C429.465 291.217 422.482 284.234 413.869 284.234C405.255 284.234 398.272 291.217 398.272 299.831C398.272 308.444 405.255 315.427 413.869 315.427Z" stroke="black" stroke-width="5" stroke-miterlimit="10"/>
<path d="M445.145 315.427C453.759 315.427 460.741 308.444 460.741 299.831C460.741 291.217 453.759 284.234 445.145 284.234C436.531 284.234 429.549 291.217 429.549 299.831C429.549 308.444 436.531 315.427 445.145 315.427Z" stroke="black" stroke-width="5" stroke-miterlimit="10"/>
<path d="M382.592 346.703C391.206 346.703 398.188 339.72 398.188 331.107C398.188 322.493 391.206 315.511 382.592 315.511C373.979 315.511 366.996 322.493 366.996 331.107C366.996 339.72 373.979 346.703 382.592 346.703Z" stroke="black" stroke-width="5" stroke-miterlimit="10"/>
<path d="M413.869 346.703C422.482 346.703 429.465 339.72 429.465 331.107C429.465 322.493 422.482 315.511 413.869 315.511C405.255 315.511 398.272 322.493 398.272 331.107C398.272 339.72 405.255 346.703 413.869 346.703Z" stroke="black" stroke-width="5" stroke-miterlimit="10"/>
<path d="M445.145 346.703C453.759 346.703 460.741 339.72 460.741 331.107C460.741 322.493 453.759 315.511 445.145 315.511C436.531 315.511 429.549 322.493 429.549 331.107C429.549 339.72 436.531 346.703 445.145 346.703Z" stroke="black" stroke-width="5" stroke-miterlimit="10"/>
<path d="M382.592 377.979C391.206 377.979 398.188 370.997 398.188 362.383C398.188 353.77 391.206 346.787 382.592 346.787C373.979 346.787 366.996 353.77 366.996 362.383C366.996 370.997 373.979 377.979 382.592 377.979Z" stroke="black" stroke-width="5" stroke-miterlimit="10"/>
<path d="M413.869 377.979C422.482 377.979 429.465 370.997 429.465 362.383C429.465 353.77 422.482 346.787 413.869 346.787C405.255 346.787 398.272 353.77 398.272 362.383C398.272 370.997 405.255 377.979 413.869 377.979Z" stroke="black" stroke-width="5" stroke-miterlimit="10"/>
<path d="M445.145 377.979C453.759 377.979 460.741 370.997 460.741 362.383C460.741 353.77 453.759 346.787 445.145 346.787C436.531 346.787 429.549 353.77 429.549 362.383C429.549 370.997 436.531 377.979 445.145 377.979Z" stroke="black" stroke-width="5" stroke-miterlimit="10"/>
<path d="M382.592 409.255C391.206 409.255 398.188 402.272 398.188 393.659C398.188 385.045 391.206 378.062 382.592 378.062C373.979 378.062 366.996 385.045 366.996 393.659C366.996 402.272 373.979 409.255 382.592 409.255Z" stroke="black" stroke-width="5" stroke-miterlimit="10"/>
<path d="M413.869 409.255C422.482 409.255 429.465 402.272 429.465 393.659C429.465 385.045 422.482 378.062 413.869 378.062C405.255 378.062 398.272 385.045 398.272 393.659C398.272 402.272 405.255 409.255 413.869 409.255Z" stroke="black" stroke-width="5" stroke-miterlimit="10"/>
<path d="M445.145 409.255C453.759 409.255 460.741 402.272 460.741 393.659C460.741 385.045 453.759 378.062 445.145 378.062C436.531 378.062 429.549 385.045 429.549 393.659C429.549 402.272 436.531 409.255 445.145 409.255Z" stroke="black" stroke-width="5" stroke-miterlimit="10"/>
<path d="M382.592 440.447C391.206 440.447 398.188 433.465 398.188 424.851C398.188 416.238 391.206 409.255 382.592 409.255C373.979 409.255 366.996 416.238 366.996 424.851C366.996 433.465 373.979 440.447 382.592 440.447Z" stroke="black" stroke-width="5" stroke-miterlimit="10"/>
<path d="M413.869 440.447C422.482 440.447 429.465 433.465 429.465 424.851C429.465 416.238 422.482 409.255 413.869 409.255C405.255 409.255 398.272 416.238 398.272 424.851C398.272 433.465 405.255 440.447 413.869 440.447Z" stroke="black" stroke-width="5" stroke-miterlimit="10"/>
<path d="M445.145 440.447C453.759 440.447 460.741 433.465 460.741 424.851C460.741 416.238 453.759 409.255 445.145 409.255C436.531 409.255 429.549 416.238 429.549 424.851C429.549 433.465 436.531 440.447 445.145 440.447Z" stroke="black" stroke-width="5" stroke-miterlimit="10"/>
<path d="M382.592 471.724C391.206 471.724 398.188 464.741 398.188 456.127C398.188 447.514 391.206 440.531 382.592 440.531C373.979 440.531 366.996 447.514 366.996 456.127C366.996 464.741 373.979 471.724 382.592 471.724Z" stroke="black" stroke-width="5" stroke-miterlimit="10"/>
<path d="M413.869 471.724C422.482 471.724 429.465 464.741 429.465 456.127C429.465 447.514 422.482 440.531 413.869 440.531C405.255 440.531 398.272 447.514 398.272 456.127C398.272 464.741 405.255 471.724 413.869 471.724Z" stroke="black" stroke-width="5" stroke-miterlimit="10"/>
<path d="M445.145 471.724C453.759 471.724 460.741 464.741 460.741 456.127C460.741 447.514 453.759 440.531 445.145 440.531C436.531 440.531 429.549 447.514 429.549 456.127C429.549 464.741 436.531 471.724 445.145 471.724Z" stroke="black" stroke-width="5" stroke-miterlimit="10"/>
<path d="M382.592 503C391.206 503 398.188 496.017 398.188 487.404C398.188 478.79 391.206 471.808 382.592 471.808C373.979 471.808 366.996 478.79 366.996 487.404C366.996 496.017 373.979 503 382.592 503Z" stroke="black" stroke-width="5" stroke-miterlimit="10"/>
<path d="M413.869 503C422.482 503 429.465 496.017 429.465 487.404C429.465 478.79 422.482 471.808 413.869 471.808C405.255 471.808 398.272 478.79 398.272 487.404C398.272 496.017 405.255 503 413.869 503Z" stroke="black" stroke-width="5" stroke-miterlimit="10"/>
<path d="M445.145 503C453.759 503 460.741 496.017 460.741 487.404C460.741 478.79 453.759 471.808 445.145 471.808C436.531 471.808 429.549 478.79 429.549 487.404C429.549 496.017 436.531 503 445.145 503Z" stroke="black" stroke-width="5" stroke-miterlimit="10"/>
<path d="M570.082 34.1924C578.695 34.1924 585.678 27.2097 585.678 18.5962C585.678 9.98264 578.695 3 570.082 3C561.468 3 554.485 9.98264 554.485 18.5962C554.485 27.2097 561.468 34.1924 570.082 34.1924Z" stroke="black" stroke-width="5" stroke-miterlimit="10"/>
<path d="M570.082 65.4687C578.695 65.4687 585.678 58.4861 585.678 49.8725C585.678 41.259 578.695 34.2764 570.082 34.2764C561.468 34.2764 554.485 41.259 554.485 49.8725C554.485 58.4861 561.468 65.4687 570.082 65.4687Z" stroke="black" stroke-width="5" stroke-miterlimit="10"/>
<path d="M570.082 96.7451C578.695 96.7451 585.678 89.7624 585.678 81.1489C585.678 72.5354 578.695 65.5527 570.082 65.5527C561.468 65.5527 554.485 72.5354 554.485 81.1489C554.485 89.7624 561.468 96.7451 570.082 96.7451Z" stroke="black" stroke-width="5" stroke-miterlimit="10"/>
<path d="M538.889 34.1924C547.503 34.1924 554.485 27.2097 554.485 18.5962C554.485 9.98264 547.503 3 538.889 3C530.276 3 523.293 9.98264 523.293 18.5962C523.293 27.2097 530.276 34.1924 538.889 34.1924Z" stroke="black" stroke-width="5" stroke-miterlimit="10"/>
<path d="M538.889 65.4687C547.503 65.4687 554.485 58.4861 554.485 49.8725C554.485 41.259 547.503 34.2764 538.889 34.2764C530.276 34.2764 523.293 41.259 523.293 49.8725C523.293 58.4861 530.276 65.4687 538.889 65.4687Z" stroke="black" stroke-width="5" stroke-miterlimit="10"/>
<path d="M538.889 96.7451C547.503 96.7451 554.485 89.7624 554.485 81.1489C554.485 72.5354 547.503 65.5527 538.889 65.5527C530.276 65.5527 523.293 72.5354 523.293 81.1489C523.293 89.7624 530.276 96.7451 538.889 96.7451Z" stroke="black" stroke-width="5" stroke-miterlimit="10"/>
<path d="M507.613 34.1924C516.226 34.1924 523.209 27.2097 523.209 18.5962C523.209 9.98264 516.226 3 507.613 3C498.999 3 492.017 9.98264 492.017 18.5962C492.017 27.2097 498.999 34.1924 507.613 34.1924Z" stroke="black" stroke-width="5" stroke-miterlimit="10"/>
<path d="M507.613 65.4687C516.226 65.4687 523.209 58.4861 523.209 49.8725C523.209 41.259 516.226 34.2764 507.613 34.2764C498.999 34.2764 492.017 41.259 492.017 49.8725C492.017 58.4861 498.999 65.4687 507.613 65.4687Z" stroke="black" stroke-width="5" stroke-miterlimit="10"/>
<path d="M507.613 96.7451C516.226 96.7451 523.209 89.7624 523.209 81.1489C523.209 72.5354 516.226 65.5527 507.613 65.5527C498.999 65.5527 492.017 72.5354 492.017 81.1489C492.017 89.7624 498.999 96.7451 507.613 96.7451Z" stroke="black" stroke-width="5" stroke-miterlimit="10"/>
<path d="M476.337 34.1924C484.951 34.1924 491.934 27.2097 491.934 18.5962C491.934 9.98264 484.951 3 476.337 3C467.724 3 460.741 9.98264 460.741 18.5962C460.741 27.2097 467.724 34.1924 476.337 34.1924Z" stroke="black" stroke-width="5" stroke-miterlimit="10"/>
<path d="M476.337 65.4687C484.951 65.4687 491.934 58.4861 491.934 49.8725C491.934 41.259 484.951 34.2764 476.337 34.2764C467.724 34.2764 460.741 41.259 460.741 49.8725C460.741 58.4861 467.724 65.4687 476.337 65.4687Z" stroke="black" stroke-width="5" stroke-miterlimit="10"/>
<path d="M476.337 96.7451C484.951 96.7451 491.934 89.7624 491.934 81.1489C491.934 72.5354 484.951 65.5527 476.337 65.5527C467.724 65.5527 460.741 72.5354 460.741 81.1489C460.741 89.7624 467.724 96.7451 476.337 96.7451Z" stroke="black" stroke-width="5" stroke-miterlimit="10"/>
<path d="M663.911 34.1924C672.524 34.1924 679.507 27.2097 679.507 18.5962C679.507 9.98264 672.524 3 663.911 3C655.297 3 648.314 9.98264 648.314 18.5962C648.314 27.2097 655.297 34.1924 663.911 34.1924Z" stroke="black" stroke-width="5" stroke-miterlimit="10"/>
<path d="M663.911 65.4687C672.524 65.4687 679.507 58.4861 679.507 49.8725C679.507 41.259 672.524 34.2764 663.911 34.2764C655.297 34.2764 648.314 41.259 648.314 49.8725C648.314 58.4861 655.297 65.4687 663.911 65.4687Z" stroke="black" stroke-width="5" stroke-miterlimit="10"/>
<path d="M663.911 96.7451C672.524 96.7451 679.507 89.7624 679.507 81.1489C679.507 72.5354 672.524 65.5527 663.911 65.5527C655.297 65.5527 648.314 72.5354 648.314 81.1489C648.314 89.7624 655.297 96.7451 663.911 96.7451Z" stroke="black" stroke-width="5" stroke-miterlimit="10"/>
<path d="M632.634 34.1924C641.248 34.1924 648.23 27.2097 648.23 18.5962C648.23 9.98264 641.248 3 632.634 3C624.021 3 617.038 9.98264 617.038 18.5962C617.038 27.2097 624.021 34.1924 632.634 34.1924Z" stroke="black" stroke-width="5" stroke-miterlimit="10"/>
<path d="M632.634 65.4687C641.248 65.4687 648.23 58.4861 648.23 49.8725C648.23 41.259 641.248 34.2764 632.634 34.2764C624.021 34.2764 617.038 41.259 617.038 49.8725C617.038 58.4861 624.021 65.4687 632.634 65.4687Z" stroke="black" stroke-width="5" stroke-miterlimit="10"/>
<path d="M632.634 96.7451C641.248 96.7451 648.23 89.7624 648.23 81.1489C648.23 72.5354 641.248 65.5527 632.634 65.5527C624.021 65.5527 617.038 72.5354 617.038 81.1489C617.038 89.7624 624.021 96.7451 632.634 96.7451Z" stroke="black" stroke-width="5" stroke-miterlimit="10"/>
<path d="M601.358 34.1924C609.971 34.1924 616.954 27.2097 616.954 18.5962C616.954 9.98264 609.971 3 601.358 3C592.744 3 585.762 9.98264 585.762 18.5962C585.762 27.2097 592.744 34.1924 601.358 34.1924Z" stroke="black" stroke-width="5" stroke-miterlimit="10"/>
<path d="M601.358 65.4687C609.971 65.4687 616.954 58.4861 616.954 49.8725C616.954 41.259 609.971 34.2764 601.358 34.2764C592.744 34.2764 585.762 41.259 585.762 49.8725C585.762 58.4861 592.744 65.4687 601.358 65.4687Z" stroke="black" stroke-width="5" stroke-miterlimit="10"/>
<path d="M601.358 96.7451C609.971 96.7451 616.954 89.7624 616.954 81.1489C616.954 72.5354 609.971 65.5527 601.358 65.5527C592.744 65.5527 585.762 72.5354 585.762 81.1489C585.762 89.7624 592.744 96.7451 601.358 96.7451Z" stroke="black" stroke-width="5" stroke-miterlimit="10"/>
<path d="M570.082 219.753C578.695 219.753 585.678 212.77 585.678 204.157C585.678 195.543 578.695 188.561 570.082 188.561C561.468 188.561 554.485 195.543 554.485 204.157C554.485 212.77 561.468 219.753 570.082 219.753Z" stroke="black" stroke-width="5" stroke-miterlimit="10"/>
<path d="M570.082 250.945C578.695 250.945 585.678 243.963 585.678 235.349C585.678 226.736 578.695 219.753 570.082 219.753C561.468 219.753 554.485 226.736 554.485 235.349C554.485 243.963 561.468 250.945 570.082 250.945Z" stroke="black" stroke-width="5" stroke-miterlimit="10"/>
<path d="M570.082 282.222C578.695 282.222 585.678 275.239 585.678 266.625C585.678 258.012 578.695 251.029 570.082 251.029C561.468 251.029 554.485 258.012 554.485 266.625C554.485 275.239 561.468 282.222 570.082 282.222Z" stroke="black" stroke-width="5" stroke-miterlimit="10"/>
<path d="M538.889 219.753C547.503 219.753 554.485 212.77 554.485 204.157C554.485 195.543 547.503 188.561 538.889 188.561C530.276 188.561 523.293 195.543 523.293 204.157C523.293 212.77 530.276 219.753 538.889 219.753Z" stroke="black" stroke-width="5" stroke-miterlimit="10"/>
<path d="M538.889 250.945C547.503 250.945 554.485 243.963 554.485 235.349C554.485 226.736 547.503 219.753 538.889 219.753C530.276 219.753 523.293 226.736 523.293 235.349C523.293 243.963 530.276 250.945 538.889 250.945Z" stroke="black" stroke-width="5" stroke-miterlimit="10"/>
<path d="M538.889 282.222C547.503 282.222 554.485 275.239 554.485 266.625C554.485 258.012 547.503 251.029 538.889 251.029C530.276 251.029 523.293 258.012 523.293 266.625C523.293 275.239 530.276 282.222 538.889 282.222Z" stroke="black" stroke-width="5" stroke-miterlimit="10"/>
<path d="M507.613 219.753C516.226 219.753 523.209 212.77 523.209 204.157C523.209 195.543 516.226 188.561 507.613 188.561C498.999 188.561 492.017 195.543 492.017 204.157C492.017 212.77 498.999 219.753 507.613 219.753Z" stroke="black" stroke-width="5" stroke-miterlimit="10"/>
<path d="M507.613 250.945C516.226 250.945 523.209 243.963 523.209 235.349C523.209 226.736 516.226 219.753 507.613 219.753C498.999 219.753 492.017 226.736 492.017 235.349C492.017 243.963 498.999 250.945 507.613 250.945Z" stroke="black" stroke-width="5" stroke-miterlimit="10"/>
<path d="M507.613 282.222C516.226 282.222 523.209 275.239 523.209 266.625C523.209 258.012 516.226 251.029 507.613 251.029C498.999 251.029 492.017 258.012 492.017 266.625C492.017 275.239 498.999 282.222 507.613 282.222Z" stroke="black" stroke-width="5" stroke-miterlimit="10"/>
<path d="M476.337 219.753C484.951 219.753 491.934 212.77 491.934 204.157C491.934 195.543 484.951 188.561 476.337 188.561C467.724 188.561 460.741 195.543 460.741 204.157C460.741 212.77 467.724 219.753 476.337 219.753Z" stroke="black" stroke-width="5" stroke-miterlimit="10"/>
<path d="M476.337 250.945C484.951 250.945 491.934 243.963 491.934 235.349C491.934 226.736 484.951 219.753 476.337 219.753C467.724 219.753 460.741 226.736 460.741 235.349C460.741 243.963 467.724 250.945 476.337 250.945Z" stroke="black" stroke-width="5" stroke-miterlimit="10"/>
<path d="M476.337 282.222C484.951 282.222 491.934 275.239 491.934 266.625C491.934 258.012 484.951 251.029 476.337 251.029C467.724 251.029 460.741 258.012 460.741 266.625C460.741 275.239 467.724 282.222 476.337 282.222Z" stroke="black" stroke-width="5" stroke-miterlimit="10"/>
<path d="M663.911 219.753C672.524 219.753 679.507 212.77 679.507 204.157C679.507 195.543 672.524 188.561 663.911 188.561C655.297 188.561 648.314 195.543 648.314 204.157C648.314 212.77 655.297 219.753 663.911 219.753Z" stroke="black" stroke-width="5" stroke-miterlimit="10"/>
<path d="M663.911 250.945C672.524 250.945 679.507 243.963 679.507 235.349C679.507 226.736 672.524 219.753 663.911 219.753C655.297 219.753 648.314 226.736 648.314 235.349C648.314 243.963 655.297 250.945 663.911 250.945Z" stroke="black" stroke-width="5" stroke-miterlimit="10"/>
<path d="M663.911 282.222C672.524 282.222 679.507 275.239 679.507 266.625C679.507 258.012 672.524 251.029 663.911 251.029C655.297 251.029 648.314 258.012 648.314 266.625C648.314 275.239 655.297 282.222 663.911 282.222Z" stroke="black" stroke-width="5" stroke-miterlimit="10"/>
<path d="M632.634 219.753C641.248 219.753 648.23 212.77 648.23 204.157C648.23 195.543 641.248 188.561 632.634 188.561C624.021 188.561 617.038 195.543 617.038 204.157C617.038 212.77 624.021 219.753 632.634 219.753Z" stroke="black" stroke-width="5" stroke-miterlimit="10"/>
<path d="M632.634 250.945C641.248 250.945 648.23 243.963 648.23 235.349C648.23 226.736 641.248 219.753 632.634 219.753C624.021 219.753 617.038 226.736 617.038 235.349C617.038 243.963 624.021 250.945 632.634 250.945Z" stroke="black" stroke-width="5" stroke-miterlimit="10"/>
<path d="M632.634 282.222C641.248 282.222 648.23 275.239 648.23 266.625C648.23 258.012 641.248 251.029 632.634 251.029C624.021 251.029 617.038 258.012 617.038 266.625C617.038 275.239 624.021 282.222 632.634 282.222Z" stroke="black" stroke-width="5" stroke-miterlimit="10"/>
<path d="M601.358 219.753C609.971 219.753 616.954 212.77 616.954 204.157C616.954 195.543 609.971 188.561 601.358 188.561C592.744 188.561 585.762 195.543 585.762 204.157C585.762 212.77 592.744 219.753 601.358 219.753Z" stroke="black" stroke-width="5" stroke-miterlimit="10"/>
<path d="M601.358 250.945C609.971 250.945 616.954 243.963 616.954 235.349C616.954 226.736 609.971 219.753 601.358 219.753C592.744 219.753 585.762 226.736 585.762 235.349C585.762 243.963 592.744 250.945 601.358 250.945Z" stroke="black" stroke-width="5" stroke-miterlimit="10"/>
<path d="M601.358 282.222C609.971 282.222 616.954 275.239 616.954 266.625C616.954 258.012 609.971 251.029 601.358 251.029C592.744 251.029 585.762 258.012 585.762 266.625C585.762 275.239 592.744 282.222 601.358 282.222Z" stroke="black" stroke-width="5" stroke-miterlimit="10"/>
<path d="M570.082 440.447C578.695 440.447 585.678 433.465 585.678 424.851C585.678 416.238 578.695 409.255 570.082 409.255C561.468 409.255 554.485 416.238 554.485 424.851C554.485 433.465 561.468 440.447 570.082 440.447Z" stroke="black" stroke-width="5" stroke-miterlimit="10"/>
<path d="M570.082 471.724C578.695 471.724 585.678 464.741 585.678 456.127C585.678 447.514 578.695 440.531 570.082 440.531C561.468 440.531 554.485 447.514 554.485 456.127C554.485 464.741 561.468 471.724 570.082 471.724Z" stroke="black" stroke-width="5" stroke-miterlimit="10"/>
<path d="M570.082 503C578.695 503 585.678 496.017 585.678 487.404C585.678 478.79 578.695 471.808 570.082 471.808C561.468 471.808 554.485 478.79 554.485 487.404C554.485 496.017 561.468 503 570.082 503Z" stroke="black" stroke-width="5" stroke-miterlimit="10"/>
<path d="M538.889 440.447C547.503 440.447 554.485 433.465 554.485 424.851C554.485 416.238 547.503 409.255 538.889 409.255C530.276 409.255 523.293 416.238 523.293 424.851C523.293 433.465 530.276 440.447 538.889 440.447Z" stroke="black" stroke-width="5" stroke-miterlimit="10"/>
<path d="M538.889 471.724C547.503 471.724 554.485 464.741 554.485 456.127C554.485 447.514 547.503 440.531 538.889 440.531C530.276 440.531 523.293 447.514 523.293 456.127C523.293 464.741 530.276 471.724 538.889 471.724Z" stroke="black" stroke-width="5" stroke-miterlimit="10"/>
<path d="M538.889 503C547.503 503 554.485 496.017 554.485 487.404C554.485 478.79 547.503 471.808 538.889 471.808C530.276 471.808 523.293 478.79 523.293 487.404C523.293 496.017 530.276 503 538.889 503Z" stroke="black" stroke-width="5" stroke-miterlimit="10"/>
<path d="M507.613 440.447C516.226 440.447 523.209 433.465 523.209 424.851C523.209 416.238 516.226 409.255 507.613 409.255C498.999 409.255 492.017 416.238 492.017 424.851C492.017 433.465 498.999 440.447 507.613 440.447Z" stroke="black" stroke-width="5" stroke-miterlimit="10"/>
<path d="M507.613 471.724C516.226 471.724 523.209 464.741 523.209 456.127C523.209 447.514 516.226 440.531 507.613 440.531C498.999 440.531 492.017 447.514 492.017 456.127C492.017 464.741 498.999 471.724 507.613 471.724Z" stroke="black" stroke-width="5" stroke-miterlimit="10"/>
<path d="M507.613 503C516.226 503 523.209 496.017 523.209 487.404C523.209 478.79 516.226 471.808 507.613 471.808C498.999 471.808 492.017 478.79 492.017 487.404C492.017 496.017 498.999 503 507.613 503Z" stroke="black" stroke-width="5" stroke-miterlimit="10"/>
<path d="M476.337 440.447C484.951 440.447 491.934 433.465 491.934 424.851C491.934 416.238 484.951 409.255 476.337 409.255C467.724 409.255 460.741 416.238 460.741 424.851C460.741 433.465 467.724 440.447 476.337 440.447Z" stroke="black" stroke-width="5" stroke-miterlimit="10"/>
<path d="M476.337 471.724C484.951 471.724 491.934 464.741 491.934 456.127C491.934 447.514 484.951 440.531 476.337 440.531C467.724 440.531 460.741 447.514 460.741 456.127C460.741 464.741 467.724 471.724 476.337 471.724Z" stroke="black" stroke-width="5" stroke-miterlimit="10"/>
<path d="M476.337 503C484.951 503 491.934 496.017 491.934 487.404C491.934 478.79 484.951 471.808 476.337 471.808C467.724 471.808 460.741 478.79 460.741 487.404C460.741 496.017 467.724 503 476.337 503Z" stroke="black" stroke-width="5" stroke-miterlimit="10"/>
<path d="M663.911 440.447C672.524 440.447 679.507 433.465 679.507 424.851C679.507 416.238 672.524 409.255 663.911 409.255C655.297 409.255 648.314 416.238 648.314 424.851C648.314 433.465 655.297 440.447 663.911 440.447Z" stroke="black" stroke-width="5" stroke-miterlimit="10"/>
<path d="M663.911 471.724C672.524 471.724 679.507 464.741 679.507 456.127C679.507 447.514 672.524 440.531 663.911 440.531C655.297 440.531 648.314 447.514 648.314 456.127C648.314 464.741 655.297 471.724 663.911 471.724Z" stroke="black" stroke-width="5" stroke-miterlimit="10"/>
<path d="M663.911 503C672.524 503 679.507 496.017 679.507 487.404C679.507 478.79 672.524 471.808 663.911 471.808C655.297 471.808 648.314 478.79 648.314 487.404C648.314 496.017 655.297 503 663.911 503Z" stroke="black" stroke-width="5" stroke-miterlimit="10"/>
<path d="M632.634 440.447C641.248 440.447 648.23 433.465 648.23 424.851C648.23 416.238 641.248 409.255 632.634 409.255C624.021 409.255 617.038 416.238 617.038 424.851C617.038 433.465 624.021 440.447 632.634 440.447Z" stroke="black" stroke-width="5" stroke-miterlimit="10"/>
<path d="M632.634 471.724C641.248 471.724 648.23 464.741 648.23 456.127C648.23 447.514 641.248 440.531 632.634 440.531C624.021 440.531 617.038 447.514 617.038 456.127C617.038 464.741 624.021 471.724 632.634 471.724Z" stroke="black" stroke-width="5" stroke-miterlimit="10"/>
<path d="M632.634 503C641.248 503 648.23 496.017 648.23 487.404C648.23 478.79 641.248 471.808 632.634 471.808C624.021 471.808 617.038 478.79 617.038 487.404C617.038 496.017 624.021 503 632.634 503Z" stroke="black" stroke-width="5" stroke-miterlimit="10"/>
<path d="M601.358 440.447C609.971 440.447 616.954 433.465 616.954 424.851C616.954 416.238 609.971 409.255 601.358 409.255C592.744 409.255 585.762 416.238 585.762 424.851C585.762 433.465 592.744 440.447 601.358 440.447Z" stroke="black" stroke-width="5" stroke-miterlimit="10"/>
<path d="M601.358 471.724C609.971 471.724 616.954 464.741 616.954 456.127C616.954 447.514 609.971 440.531 601.358 440.531C592.744 440.531 585.762 447.514 585.762 456.127C585.762 464.741 592.744 471.724 601.358 471.724Z" stroke="black" stroke-width="5" stroke-miterlimit="10"/>
<path d="M601.358 503C609.971 503 616.954 496.017 616.954 487.404C616.954 478.79 609.971 471.808 601.358 471.808C592.744 471.808 585.762 478.79 585.762 487.404C585.762 496.017 592.744 503 601.358 503Z" stroke="black" stroke-width="5" stroke-miterlimit="10"/>
</svg>
