<svg width="680" height="506" viewBox="0 0 680 506" fill="none" xmlns="http://www.w3.org/2000/svg">
<path d="M143.617 34.1924C152.231 34.1924 159.213 27.2097 159.213 18.5962C159.213 9.98264 152.231 3 143.617 3C135.004 3 128.021 9.98264 128.021 18.5962C128.021 27.2097 135.004 34.1924 143.617 34.1924Z" stroke="black" stroke-width="5" stroke-miterlimit="10"/>
<path d="M174.894 34.1924C183.507 34.1924 190.49 27.2097 190.49 18.5962C190.49 9.98264 183.507 3 174.894 3C166.28 3 159.297 9.98264 159.297 18.5962C159.297 27.2097 166.28 34.1924 174.894 34.1924Z" stroke="black" stroke-width="5" stroke-miterlimit="10"/>
<path d="M206.086 34.1924C214.699 34.1924 221.682 27.2097 221.682 18.5962C221.682 9.98264 214.699 3 206.086 3C197.472 3 190.49 9.98264 190.49 18.5962C190.49 27.2097 197.472 34.1924 206.086 34.1924Z" stroke="black" stroke-width="5" stroke-miterlimit="10"/>
<path d="M143.617 65.4687C152.231 65.4687 159.213 58.4861 159.213 49.8725C159.213 41.259 152.231 34.2764 143.617 34.2764C135.004 34.2764 128.021 41.259 128.021 49.8725C128.021 58.4861 135.004 65.4687 143.617 65.4687Z" stroke="black" stroke-width="5" stroke-miterlimit="10"/>
<path d="M174.894 65.4687C183.507 65.4687 190.49 58.4861 190.49 49.8725C190.49 41.259 183.507 34.2764 174.894 34.2764C166.28 34.2764 159.297 41.259 159.297 49.8725C159.297 58.4861 166.28 65.4687 174.894 65.4687Z" stroke="black" stroke-width="5" stroke-miterlimit="10"/>
<path d="M206.086 65.4687C214.699 65.4687 221.682 58.4861 221.682 49.8725C221.682 41.259 214.699 34.2764 206.086 34.2764C197.472 34.2764 190.49 41.259 190.49 49.8725C190.49 58.4861 197.472 65.4687 206.086 65.4687Z" stroke="black" stroke-width="5" stroke-miterlimit="10"/>
<path d="M143.617 96.7446C152.231 96.7446 159.213 89.7619 159.213 81.1484C159.213 72.5349 152.231 65.5522 143.617 65.5522C135.004 65.5522 128.021 72.5349 128.021 81.1484C128.021 89.7619 135.004 96.7446 143.617 96.7446Z" stroke="black" stroke-width="5" stroke-miterlimit="10"/>
<path d="M174.894 96.7446C183.507 96.7446 190.49 89.7619 190.49 81.1484C190.49 72.5349 183.507 65.5522 174.894 65.5522C166.28 65.5522 159.297 72.5349 159.297 81.1484C159.297 89.7619 166.28 96.7446 174.894 96.7446Z" stroke="black" stroke-width="5" stroke-miterlimit="10"/>
<path d="M206.086 96.7446C214.699 96.7446 221.682 89.7619 221.682 81.1484C221.682 72.5349 214.699 65.5522 206.086 65.5522C197.472 65.5522 190.49 72.5349 190.49 81.1484C190.49 89.7619 197.472 96.7446 206.086 96.7446Z" stroke="black" stroke-width="5" stroke-miterlimit="10"/>
<path d="M143.617 127.937C152.231 127.937 159.213 120.954 159.213 112.341C159.213 103.727 152.231 96.7446 143.617 96.7446C135.004 96.7446 128.021 103.727 128.021 112.341C128.021 120.954 135.004 127.937 143.617 127.937Z" stroke="black" stroke-width="5" stroke-miterlimit="10"/>
<path d="M174.894 127.937C183.507 127.937 190.49 120.954 190.49 112.341C190.49 103.727 183.507 96.7446 174.894 96.7446C166.28 96.7446 159.297 103.727 159.297 112.341C159.297 120.954 166.28 127.937 174.894 127.937Z" stroke="black" stroke-width="5" stroke-miterlimit="10"/>
<path d="M206.086 127.937C214.699 127.937 221.682 120.954 221.682 112.341C221.682 103.727 214.699 96.7446 206.086 96.7446C197.472 96.7446 190.49 103.727 190.49 112.341C190.49 120.954 197.472 127.937 206.086 127.937Z" stroke="black" stroke-width="5" stroke-miterlimit="10"/>
<path d="M143.617 159.213C152.231 159.213 159.213 152.231 159.213 143.617C159.213 135.004 152.231 128.021 143.617 128.021C135.004 128.021 128.021 135.004 128.021 143.617C128.021 152.231 135.004 159.213 143.617 159.213Z" stroke="black" stroke-width="5" stroke-miterlimit="10"/>
<path d="M174.894 159.213C183.507 159.213 190.49 152.231 190.49 143.617C190.49 135.004 183.507 128.021 174.894 128.021C166.28 128.021 159.297 135.004 159.297 143.617C159.297 152.231 166.28 159.213 174.894 159.213Z" stroke="black" stroke-width="5" stroke-miterlimit="10"/>
<path d="M206.086 159.213C214.699 159.213 221.682 152.231 221.682 143.617C221.682 135.004 214.699 128.021 206.086 128.021C197.472 128.021 190.49 135.004 190.49 143.617C190.49 152.231 197.472 159.213 206.086 159.213Z" stroke="black" stroke-width="5" stroke-miterlimit="10"/>
<path d="M143.617 190.49C152.231 190.49 159.213 183.507 159.213 174.894C159.213 166.28 152.231 159.297 143.617 159.297C135.004 159.297 128.021 166.28 128.021 174.894C128.021 183.507 135.004 190.49 143.617 190.49Z" stroke="black" stroke-width="5" stroke-miterlimit="10"/>
<path d="M174.894 190.49C183.507 190.49 190.49 183.507 190.49 174.894C190.49 166.28 183.507 159.297 174.894 159.297C166.28 159.297 159.297 166.28 159.297 174.894C159.297 183.507 166.28 190.49 174.894 190.49Z" stroke="black" stroke-width="5" stroke-miterlimit="10"/>
<path d="M206.086 190.49C214.699 190.49 221.682 183.507 221.682 174.894C221.682 166.28 214.699 159.297 206.086 159.297C197.472 159.297 190.49 166.28 190.49 174.894C190.49 183.507 197.472 190.49 206.086 190.49Z" stroke="black" stroke-width="5" stroke-miterlimit="10"/>
<path d="M143.617 221.682C152.231 221.682 159.213 214.699 159.213 206.086C159.213 197.472 152.231 190.49 143.617 190.49C135.004 190.49 128.021 197.472 128.021 206.086C128.021 214.699 135.004 221.682 143.617 221.682Z" stroke="black" stroke-width="5" stroke-miterlimit="10"/>
<path d="M174.894 221.682C183.507 221.682 190.49 214.699 190.49 206.086C190.49 197.472 183.507 190.49 174.894 190.49C166.28 190.49 159.297 197.472 159.297 206.086C159.297 214.699 166.28 221.682 174.894 221.682Z" stroke="black" stroke-width="5" stroke-miterlimit="10"/>
<path d="M206.086 221.682C214.699 221.682 221.682 214.699 221.682 206.086C221.682 197.472 214.699 190.49 206.086 190.49C197.472 190.49 190.49 197.472 190.49 206.086C190.49 214.699 197.472 221.682 206.086 221.682Z" stroke="black" stroke-width="5" stroke-miterlimit="10"/>
<path d="M143.617 252.958C152.231 252.958 159.213 245.975 159.213 237.362C159.213 228.748 152.231 221.766 143.617 221.766C135.004 221.766 128.021 228.748 128.021 237.362C128.021 245.975 135.004 252.958 143.617 252.958Z" stroke="black" stroke-width="5" stroke-miterlimit="10"/>
<path d="M174.894 252.958C183.507 252.958 190.49 245.975 190.49 237.362C190.49 228.748 183.507 221.766 174.894 221.766C166.28 221.766 159.297 228.748 159.297 237.362C159.297 245.975 166.28 252.958 174.894 252.958Z" stroke="black" stroke-width="5" stroke-miterlimit="10"/>
<path d="M206.086 252.958C214.699 252.958 221.682 245.975 221.682 237.362C221.682 228.748 214.699 221.766 206.086 221.766C197.472 221.766 190.49 228.748 190.49 237.362C190.49 245.975 197.472 252.958 206.086 252.958Z" stroke="black" stroke-width="5" stroke-miterlimit="10"/>
<path d="M143.617 284.234C152.231 284.234 159.213 277.252 159.213 268.638C159.213 260.025 152.231 253.042 143.617 253.042C135.004 253.042 128.021 260.025 128.021 268.638C128.021 277.252 135.004 284.234 143.617 284.234Z" stroke="black" stroke-width="5" stroke-miterlimit="10"/>
<path d="M174.894 284.234C183.507 284.234 190.49 277.252 190.49 268.638C190.49 260.025 183.507 253.042 174.894 253.042C166.28 253.042 159.297 260.025 159.297 268.638C159.297 277.252 166.28 284.234 174.894 284.234Z" stroke="black" stroke-width="5" stroke-miterlimit="10"/>
<path d="M206.086 284.234C214.699 284.234 221.682 277.252 221.682 268.638C221.682 260.025 214.699 253.042 206.086 253.042C197.472 253.042 190.49 260.025 190.49 268.638C190.49 277.252 197.472 284.234 206.086 284.234Z" stroke="black" stroke-width="5" stroke-miterlimit="10"/>
<path d="M143.617 315.427C152.231 315.427 159.213 308.444 159.213 299.831C159.213 291.217 152.231 284.234 143.617 284.234C135.004 284.234 128.021 291.217 128.021 299.831C128.021 308.444 135.004 315.427 143.617 315.427Z" stroke="black" stroke-width="5" stroke-miterlimit="10"/>
<path d="M174.894 315.427C183.507 315.427 190.49 308.444 190.49 299.831C190.49 291.217 183.507 284.234 174.894 284.234C166.28 284.234 159.297 291.217 159.297 299.831C159.297 308.444 166.28 315.427 174.894 315.427Z" stroke="black" stroke-width="5" stroke-miterlimit="10"/>
<path d="M206.086 315.427C214.699 315.427 221.682 308.444 221.682 299.831C221.682 291.217 214.699 284.234 206.086 284.234C197.472 284.234 190.49 291.217 190.49 299.831C190.49 308.444 197.472 315.427 206.086 315.427Z" stroke="black" stroke-width="5" stroke-miterlimit="10"/>
<path d="M143.617 346.703C152.231 346.703 159.213 339.72 159.213 331.106C159.213 322.493 152.231 315.51 143.617 315.51C135.004 315.51 128.021 322.493 128.021 331.106C128.021 339.72 135.004 346.703 143.617 346.703Z" stroke="black" stroke-width="5" stroke-miterlimit="10"/>
<path d="M174.894 346.703C183.507 346.703 190.49 339.72 190.49 331.106C190.49 322.493 183.507 315.51 174.894 315.51C166.28 315.51 159.297 322.493 159.297 331.106C159.297 339.72 166.28 346.703 174.894 346.703Z" stroke="black" stroke-width="5" stroke-miterlimit="10"/>
<path d="M206.086 346.703C214.699 346.703 221.682 339.72 221.682 331.106C221.682 322.493 214.699 315.51 206.086 315.51C197.472 315.51 190.49 322.493 190.49 331.106C190.49 339.72 197.472 346.703 206.086 346.703Z" stroke="black" stroke-width="5" stroke-miterlimit="10"/>
<path d="M143.617 377.979C152.231 377.979 159.213 370.996 159.213 362.383C159.213 353.769 152.231 346.787 143.617 346.787C135.004 346.787 128.021 353.769 128.021 362.383C128.021 370.996 135.004 377.979 143.617 377.979Z" stroke="black" stroke-width="5" stroke-miterlimit="10"/>
<path d="M174.894 377.979C183.507 377.979 190.49 370.996 190.49 362.383C190.49 353.769 183.507 346.787 174.894 346.787C166.28 346.787 159.297 353.769 159.297 362.383C159.297 370.996 166.28 377.979 174.894 377.979Z" stroke="black" stroke-width="5" stroke-miterlimit="10"/>
<path d="M206.086 377.979C214.699 377.979 221.682 370.996 221.682 362.383C221.682 353.769 214.699 346.787 206.086 346.787C197.472 346.787 190.49 353.769 190.49 362.383C190.49 370.996 197.472 377.979 206.086 377.979Z" stroke="black" stroke-width="5" stroke-miterlimit="10"/>
<path d="M143.617 409.255C152.231 409.255 159.213 402.273 159.213 393.659C159.213 385.046 152.231 378.063 143.617 378.063C135.004 378.063 128.021 385.046 128.021 393.659C128.021 402.273 135.004 409.255 143.617 409.255Z" stroke="black" stroke-width="5" stroke-miterlimit="10"/>
<path d="M174.894 409.255C183.507 409.255 190.49 402.273 190.49 393.659C190.49 385.046 183.507 378.063 174.894 378.063C166.28 378.063 159.297 385.046 159.297 393.659C159.297 402.273 166.28 409.255 174.894 409.255Z" stroke="black" stroke-width="5" stroke-miterlimit="10"/>
<path d="M206.086 409.255C214.699 409.255 221.682 402.273 221.682 393.659C221.682 385.046 214.699 378.063 206.086 378.063C197.472 378.063 190.49 385.046 190.49 393.659C190.49 402.273 197.472 409.255 206.086 409.255Z" stroke="black" stroke-width="5" stroke-miterlimit="10"/>
<path d="M143.617 440.448C152.231 440.448 159.213 433.465 159.213 424.852C159.213 416.238 152.231 409.255 143.617 409.255C135.004 409.255 128.021 416.238 128.021 424.852C128.021 433.465 135.004 440.448 143.617 440.448Z" stroke="black" stroke-width="5" stroke-miterlimit="10"/>
<path d="M174.894 440.448C183.507 440.448 190.49 433.465 190.49 424.852C190.49 416.238 183.507 409.255 174.894 409.255C166.28 409.255 159.297 416.238 159.297 424.852C159.297 433.465 166.28 440.448 174.894 440.448Z" stroke="black" stroke-width="5" stroke-miterlimit="10"/>
<path d="M206.086 440.448C214.699 440.448 221.682 433.465 221.682 424.852C221.682 416.238 214.699 409.255 206.086 409.255C197.472 409.255 190.49 416.238 190.49 424.852C190.49 433.465 197.472 440.448 206.086 440.448Z" stroke="black" stroke-width="5" stroke-miterlimit="10"/>
<path d="M143.617 471.724C152.231 471.724 159.213 464.741 159.213 456.127C159.213 447.514 152.231 440.531 143.617 440.531C135.004 440.531 128.021 447.514 128.021 456.127C128.021 464.741 135.004 471.724 143.617 471.724Z" stroke="black" stroke-width="5" stroke-miterlimit="10"/>
<path d="M174.894 471.724C183.507 471.724 190.49 464.741 190.49 456.127C190.49 447.514 183.507 440.531 174.894 440.531C166.28 440.531 159.297 447.514 159.297 456.127C159.297 464.741 166.28 471.724 174.894 471.724Z" stroke="black" stroke-width="5" stroke-miterlimit="10"/>
<path d="M206.086 471.724C214.699 471.724 221.682 464.741 221.682 456.127C221.682 447.514 214.699 440.531 206.086 440.531C197.472 440.531 190.49 447.514 190.49 456.127C190.49 464.741 197.472 471.724 206.086 471.724Z" stroke="black" stroke-width="5" stroke-miterlimit="10"/>
<path d="M143.617 503C152.231 503 159.213 496.017 159.213 487.404C159.213 478.79 152.231 471.808 143.617 471.808C135.004 471.808 128.021 478.79 128.021 487.404C128.021 496.017 135.004 503 143.617 503Z" stroke="black" stroke-width="5" stroke-miterlimit="10"/>
<path d="M174.894 503C183.507 503 190.49 496.017 190.49 487.404C190.49 478.79 183.507 471.808 174.894 471.808C166.28 471.808 159.297 478.79 159.297 487.404C159.297 496.017 166.28 503 174.894 503Z" stroke="black" stroke-width="5" stroke-miterlimit="10"/>
<path d="M206.086 503C214.699 503 221.682 496.017 221.682 487.404C221.682 478.79 214.699 471.808 206.086 471.808C197.472 471.808 190.49 478.79 190.49 487.404C190.49 496.017 197.472 503 206.086 503Z" stroke="black" stroke-width="5" stroke-miterlimit="10"/>
<path d="M331.107 34.1924C339.72 34.1924 346.703 27.2097 346.703 18.5962C346.703 9.98264 339.72 3 331.107 3C322.493 3 315.511 9.98264 315.511 18.5962C315.511 27.2097 322.493 34.1924 331.107 34.1924Z" stroke="black" stroke-width="5" stroke-miterlimit="10"/>
<path d="M331.107 65.4687C339.72 65.4687 346.703 58.4861 346.703 49.8725C346.703 41.259 339.72 34.2764 331.107 34.2764C322.493 34.2764 315.511 41.259 315.511 49.8725C315.511 58.4861 322.493 65.4687 331.107 65.4687Z" stroke="black" stroke-width="5" stroke-miterlimit="10"/>
<path d="M331.107 96.7446C339.72 96.7446 346.703 89.7619 346.703 81.1484C346.703 72.5349 339.72 65.5522 331.107 65.5522C322.493 65.5522 315.511 72.5349 315.511 81.1484C315.511 89.7619 322.493 96.7446 331.107 96.7446Z" stroke="black" stroke-width="5" stroke-miterlimit="10"/>
<path d="M299.831 34.1924C308.444 34.1924 315.427 27.2097 315.427 18.5962C315.427 9.98264 308.444 3 299.831 3C291.217 3 284.234 9.98264 284.234 18.5962C284.234 27.2097 291.217 34.1924 299.831 34.1924Z" stroke="black" stroke-width="5" stroke-miterlimit="10"/>
<path d="M299.831 65.4687C308.444 65.4687 315.427 58.4861 315.427 49.8725C315.427 41.259 308.444 34.2764 299.831 34.2764C291.217 34.2764 284.234 41.259 284.234 49.8725C284.234 58.4861 291.217 65.4687 299.831 65.4687Z" stroke="black" stroke-width="5" stroke-miterlimit="10"/>
<path d="M299.831 96.7446C308.444 96.7446 315.427 89.7619 315.427 81.1484C315.427 72.5349 308.444 65.5522 299.831 65.5522C291.217 65.5522 284.234 72.5349 284.234 81.1484C284.234 89.7619 291.217 96.7446 299.831 96.7446Z" stroke="black" stroke-width="5" stroke-miterlimit="10"/>
<path d="M268.638 34.1924C277.252 34.1924 284.234 27.2097 284.234 18.5962C284.234 9.98264 277.252 3 268.638 3C260.025 3 253.042 9.98264 253.042 18.5962C253.042 27.2097 260.025 34.1924 268.638 34.1924Z" stroke="black" stroke-width="5" stroke-miterlimit="10"/>
<path d="M268.638 65.4687C277.252 65.4687 284.234 58.4861 284.234 49.8725C284.234 41.259 277.252 34.2764 268.638 34.2764C260.025 34.2764 253.042 41.259 253.042 49.8725C253.042 58.4861 260.025 65.4687 268.638 65.4687Z" stroke="black" stroke-width="5" stroke-miterlimit="10"/>
<path d="M268.638 96.7446C277.252 96.7446 284.234 89.7619 284.234 81.1484C284.234 72.5349 277.252 65.5522 268.638 65.5522C260.025 65.5522 253.042 72.5349 253.042 81.1484C253.042 89.7619 260.025 96.7446 268.638 96.7446Z" stroke="black" stroke-width="5" stroke-miterlimit="10"/>
<path d="M237.362 34.1924C245.975 34.1924 252.958 27.2097 252.958 18.5962C252.958 9.98264 245.975 3 237.362 3C228.748 3 221.766 9.98264 221.766 18.5962C221.766 27.2097 228.748 34.1924 237.362 34.1924Z" stroke="black" stroke-width="5" stroke-miterlimit="10"/>
<path d="M237.362 65.4687C245.975 65.4687 252.958 58.4861 252.958 49.8725C252.958 41.259 245.975 34.2764 237.362 34.2764C228.748 34.2764 221.766 41.259 221.766 49.8725C221.766 58.4861 228.748 65.4687 237.362 65.4687Z" stroke="black" stroke-width="5" stroke-miterlimit="10"/>
<path d="M237.362 96.7446C245.975 96.7446 252.958 89.7619 252.958 81.1484C252.958 72.5349 245.975 65.5522 237.362 65.5522C228.748 65.5522 221.766 72.5349 221.766 81.1484C221.766 89.7619 228.748 96.7446 237.362 96.7446Z" stroke="black" stroke-width="5" stroke-miterlimit="10"/>
<path d="M112.341 34.1924C120.954 34.1924 127.937 27.2097 127.937 18.5962C127.937 9.98264 120.954 3 112.341 3C103.727 3 96.7446 9.98264 96.7446 18.5962C96.7446 27.2097 103.727 34.1924 112.341 34.1924Z" stroke="black" stroke-width="5" stroke-miterlimit="10"/>
<path d="M112.341 65.4687C120.954 65.4687 127.937 58.4861 127.937 49.8725C127.937 41.259 120.954 34.2764 112.341 34.2764C103.727 34.2764 96.7446 41.259 96.7446 49.8725C96.7446 58.4861 103.727 65.4687 112.341 65.4687Z" stroke="black" stroke-width="5" stroke-miterlimit="10"/>
<path d="M112.341 96.7446C120.954 96.7446 127.937 89.7619 127.937 81.1484C127.937 72.5349 120.954 65.5522 112.341 65.5522C103.727 65.5522 96.7446 72.5349 96.7446 81.1484C96.7446 89.7619 103.727 96.7446 112.341 96.7446Z" stroke="black" stroke-width="5" stroke-miterlimit="10"/>
<path d="M81.1484 34.1924C89.762 34.1924 96.7446 27.2097 96.7446 18.5962C96.7446 9.98264 89.762 3 81.1484 3C72.5349 3 65.5522 9.98264 65.5522 18.5962C65.5522 27.2097 72.5349 34.1924 81.1484 34.1924Z" stroke="black" stroke-width="5" stroke-miterlimit="10"/>
<path d="M81.1484 65.4687C89.762 65.4687 96.7446 58.4861 96.7446 49.8725C96.7446 41.259 89.762 34.2764 81.1484 34.2764C72.5349 34.2764 65.5522 41.259 65.5522 49.8725C65.5522 58.4861 72.5349 65.4687 81.1484 65.4687Z" stroke="black" stroke-width="5" stroke-miterlimit="10"/>
<path d="M81.1484 96.7446C89.762 96.7446 96.7446 89.7619 96.7446 81.1484C96.7446 72.5349 89.762 65.5522 81.1484 65.5522C72.5349 65.5522 65.5522 72.5349 65.5522 81.1484C65.5522 89.7619 72.5349 96.7446 81.1484 96.7446Z" stroke="black" stroke-width="5" stroke-miterlimit="10"/>
<path d="M49.8724 34.1924C58.486 34.1924 65.4686 27.2097 65.4686 18.5962C65.4686 9.98264 58.486 3 49.8724 3C41.2589 3 34.2764 9.98264 34.2764 18.5962C34.2764 27.2097 41.2589 34.1924 49.8724 34.1924Z" stroke="black" stroke-width="5" stroke-miterlimit="10"/>
<path d="M49.8724 65.4687C58.486 65.4687 65.4686 58.4861 65.4686 49.8725C65.4686 41.259 58.486 34.2764 49.8724 34.2764C41.2589 34.2764 34.2764 41.259 34.2764 49.8725C34.2764 58.4861 41.2589 65.4687 49.8724 65.4687Z" stroke="black" stroke-width="5" stroke-miterlimit="10"/>
<path d="M49.8724 96.7446C58.486 96.7446 65.4686 89.7619 65.4686 81.1484C65.4686 72.5349 58.486 65.5522 49.8724 65.5522C41.2589 65.5522 34.2764 72.5349 34.2764 81.1484C34.2764 89.7619 41.2589 96.7446 49.8724 96.7446Z" stroke="black" stroke-width="5" stroke-miterlimit="10"/>
<path d="M18.5962 34.1924C27.2097 34.1924 34.1924 27.2097 34.1924 18.5962C34.1924 9.98264 27.2097 3 18.5962 3C9.98265 3 3 9.98264 3 18.5962C3 27.2097 9.98265 34.1924 18.5962 34.1924Z" stroke="black" stroke-width="5" stroke-miterlimit="10"/>
<path d="M18.5962 65.4687C27.2097 65.4687 34.1924 58.4861 34.1924 49.8725C34.1924 41.259 27.2097 34.2764 18.5962 34.2764C9.98265 34.2764 3 41.259 3 49.8725C3 58.4861 9.98265 65.4687 18.5962 65.4687Z" stroke="black" stroke-width="5" stroke-miterlimit="10"/>
<path d="M18.5962 96.7446C27.2097 96.7446 34.1924 89.7619 34.1924 81.1484C34.1924 72.5349 27.2097 65.5522 18.5962 65.5522C9.98265 65.5522 3 72.5349 3 81.1484C3 89.7619 9.98265 96.7446 18.5962 96.7446Z" stroke="black" stroke-width="5" stroke-miterlimit="10"/>
<path d="M382.591 34.1924C391.205 34.1924 398.187 27.2097 398.187 18.5962C398.187 9.98265 391.205 3 382.591 3C373.978 3 366.995 9.98265 366.995 18.5962C366.995 27.2097 373.978 34.1924 382.591 34.1924Z" fill="black"/>
<path d="M413.868 34.1924C422.481 34.1924 429.464 27.2097 429.464 18.5962C429.464 9.98265 422.481 3 413.868 3C405.254 3 398.271 9.98265 398.271 18.5962C398.271 27.2097 405.254 34.1924 413.868 34.1924Z" fill="black"/>
<path d="M445.144 34.1924C453.757 34.1924 460.74 27.2097 460.74 18.5962C460.74 9.98265 453.757 3 445.144 3C436.53 3 429.547 9.98265 429.547 18.5962C429.547 27.2097 436.53 34.1924 445.144 34.1924Z" fill="black"/>
<path d="M413.868 65.4687C422.481 65.4687 429.464 58.4861 429.464 49.8725C429.464 41.259 422.481 34.2764 413.868 34.2764C405.254 34.2764 398.271 41.259 398.271 49.8725C398.271 58.4861 405.254 65.4687 413.868 65.4687Z" fill="black"/>
<path d="M445.144 65.4687C453.757 65.4687 460.74 58.4861 460.74 49.8725C460.74 41.259 453.757 34.2764 445.144 34.2764C436.53 34.2764 429.547 41.259 429.547 49.8725C429.547 58.4861 436.53 65.4687 445.144 65.4687Z" fill="black"/>
<path d="M445.144 96.7446C453.757 96.7446 460.74 89.7619 460.74 81.1484C460.74 72.5349 453.757 65.5522 445.144 65.5522C436.53 65.5522 429.547 72.5349 429.547 81.1484C429.547 89.7619 436.53 96.7446 445.144 96.7446Z" fill="black"/>
<path d="M382.591 221.682C391.205 221.682 398.187 214.699 398.187 206.086C398.187 197.472 391.205 190.49 382.591 190.49C373.978 190.49 366.995 197.472 366.995 206.086C366.995 214.699 373.978 221.682 382.591 221.682Z" fill="black"/>
<path d="M413.868 221.682C422.481 221.682 429.464 214.699 429.464 206.086C429.464 197.472 422.481 190.49 413.868 190.49C405.254 190.49 398.271 197.472 398.271 206.086C398.271 214.699 405.254 221.682 413.868 221.682Z" fill="black"/>
<path d="M445.144 221.682C453.757 221.682 460.74 214.699 460.74 206.086C460.74 197.472 453.757 190.49 445.144 190.49C436.53 190.49 429.547 197.472 429.547 206.086C429.547 214.699 436.53 221.682 445.144 221.682Z" fill="black"/>
<path d="M382.591 252.958C391.205 252.958 398.187 245.975 398.187 237.362C398.187 228.748 391.205 221.766 382.591 221.766C373.978 221.766 366.995 228.748 366.995 237.362C366.995 245.975 373.978 252.958 382.591 252.958Z" fill="black"/>
<path d="M413.868 252.958C422.481 252.958 429.464 245.975 429.464 237.362C429.464 228.748 422.481 221.766 413.868 221.766C405.254 221.766 398.271 228.748 398.271 237.362C398.271 245.975 405.254 252.958 413.868 252.958Z" fill="black"/>
<path d="M445.144 252.958C453.757 252.958 460.74 245.975 460.74 237.362C460.74 228.748 453.757 221.766 445.144 221.766C436.53 221.766 429.547 228.748 429.547 237.362C429.547 245.975 436.53 252.958 445.144 252.958Z" fill="black"/>
<path d="M382.591 284.234C391.205 284.234 398.187 277.252 398.187 268.638C398.187 260.025 391.205 253.042 382.591 253.042C373.978 253.042 366.995 260.025 366.995 268.638C366.995 277.252 373.978 284.234 382.591 284.234Z" fill="black"/>
<path d="M413.868 284.234C422.481 284.234 429.464 277.252 429.464 268.638C429.464 260.025 422.481 253.042 413.868 253.042C405.254 253.042 398.271 260.025 398.271 268.638C398.271 277.252 405.254 284.234 413.868 284.234Z" fill="black"/>
<path d="M382.591 315.427C391.205 315.427 398.187 308.444 398.187 299.831C398.187 291.217 391.205 284.234 382.591 284.234C373.978 284.234 366.995 291.217 366.995 299.831C366.995 308.444 373.978 315.427 382.591 315.427Z" fill="black"/>
<path d="M413.868 315.427C422.481 315.427 429.464 308.444 429.464 299.831C429.464 291.217 422.481 284.234 413.868 284.234C405.254 284.234 398.271 291.217 398.271 299.831C398.271 308.444 405.254 315.427 413.868 315.427Z" fill="black"/>
<path d="M382.591 346.703C391.205 346.703 398.187 339.72 398.187 331.106C398.187 322.493 391.205 315.51 382.591 315.51C373.978 315.51 366.995 322.493 366.995 331.106C366.995 339.72 373.978 346.703 382.591 346.703Z" fill="black"/>
<path d="M413.868 346.703C422.481 346.703 429.464 339.72 429.464 331.106C429.464 322.493 422.481 315.51 413.868 315.51C405.254 315.51 398.271 322.493 398.271 331.106C398.271 339.72 405.254 346.703 413.868 346.703Z" fill="black"/>
<path d="M382.591 471.724C391.205 471.724 398.187 464.741 398.187 456.127C398.187 447.514 391.205 440.531 382.591 440.531C373.978 440.531 366.995 447.514 366.995 456.127C366.995 464.741 373.978 471.724 382.591 471.724Z" fill="black"/>
<path d="M413.868 471.724C422.481 471.724 429.464 464.741 429.464 456.127C429.464 447.514 422.481 440.531 413.868 440.531C405.254 440.531 398.271 447.514 398.271 456.127C398.271 464.741 405.254 471.724 413.868 471.724Z" fill="black"/>
<path d="M382.591 503C391.205 503 398.187 496.017 398.187 487.404C398.187 478.79 391.205 471.808 382.591 471.808C373.978 471.808 366.995 478.79 366.995 487.404C366.995 496.017 373.978 503 382.591 503Z" fill="black"/>
<path d="M413.868 503C422.481 503 429.464 496.017 429.464 487.404C429.464 478.79 422.481 471.808 413.868 471.808C405.254 471.808 398.271 478.79 398.271 487.404C398.271 496.017 405.254 503 413.868 503Z" fill="black"/>
<path d="M538.889 96.7446C547.502 96.7446 554.485 89.7619 554.485 81.1484C554.485 72.5349 547.502 65.5522 538.889 65.5522C530.275 65.5522 523.292 72.5349 523.292 81.1484C523.292 89.7619 530.275 96.7446 538.889 96.7446Z" fill="black"/>
<path d="M507.612 34.1924C516.226 34.1924 523.208 27.2097 523.208 18.5962C523.208 9.98265 516.226 3 507.612 3C498.999 3 492.016 9.98265 492.016 18.5962C492.016 27.2097 498.999 34.1924 507.612 34.1924Z" fill="black"/>
<path d="M507.612 65.4687C516.226 65.4687 523.208 58.4861 523.208 49.8725C523.208 41.259 516.226 34.2764 507.612 34.2764C498.999 34.2764 492.016 41.259 492.016 49.8725C492.016 58.4861 498.999 65.4687 507.612 65.4687Z" fill="black"/>
<path d="M507.612 96.7446C516.226 96.7446 523.208 89.7619 523.208 81.1484C523.208 72.5349 516.226 65.5522 507.612 65.5522C498.999 65.5522 492.016 72.5349 492.016 81.1484C492.016 89.7619 498.999 96.7446 507.612 96.7446Z" fill="black"/>
<path d="M476.336 34.1924C484.949 34.1924 491.932 27.2097 491.932 18.5962C491.932 9.98265 484.949 3 476.336 3C467.722 3 460.74 9.98265 460.74 18.5962C460.74 27.2097 467.722 34.1924 476.336 34.1924Z" fill="black"/>
<path d="M476.336 65.4687C484.949 65.4687 491.932 58.4861 491.932 49.8725C491.932 41.259 484.949 34.2764 476.336 34.2764C467.722 34.2764 460.74 41.259 460.74 49.8725C460.74 58.4861 467.722 65.4687 476.336 65.4687Z" fill="black"/>
<path d="M476.336 96.7446C484.949 96.7446 491.932 89.7619 491.932 81.1484C491.932 72.5349 484.949 65.5522 476.336 65.5522C467.722 65.5522 460.74 72.5349 460.74 81.1484C460.74 89.7619 467.722 96.7446 476.336 96.7446Z" fill="black"/>
<path d="M663.91 34.1924C672.523 34.1924 679.506 27.2097 679.506 18.5962C679.506 9.98265 672.523 3 663.91 3C655.296 3 648.313 9.98265 648.313 18.5962C648.313 27.2097 655.296 34.1924 663.91 34.1924Z" fill="black"/>
<path d="M663.91 65.4687C672.523 65.4687 679.506 58.4861 679.506 49.8725C679.506 41.259 672.523 34.2764 663.91 34.2764C655.296 34.2764 648.313 41.259 648.313 49.8725C648.313 58.4861 655.296 65.4687 663.91 65.4687Z" fill="black"/>
<path d="M663.91 96.7446C672.523 96.7446 679.506 89.7619 679.506 81.1484C679.506 72.5349 672.523 65.5522 663.91 65.5522C655.296 65.5522 648.313 72.5349 648.313 81.1484C648.313 89.7619 655.296 96.7446 663.91 96.7446Z" fill="black"/>
<path d="M632.633 96.7446C641.247 96.7446 648.229 89.7619 648.229 81.1484C648.229 72.5349 641.247 65.5522 632.633 65.5522C624.02 65.5522 617.037 72.5349 617.037 81.1484C617.037 89.7619 624.02 96.7446 632.633 96.7446Z" fill="black"/>
<path d="M570.081 250.946C578.695 250.946 585.677 243.963 585.677 235.35C585.677 226.736 578.695 219.753 570.081 219.753C561.468 219.753 554.485 226.736 554.485 235.35C554.485 243.963 561.468 250.946 570.081 250.946Z" fill="black"/>
<path d="M570.081 282.222C578.695 282.222 585.677 275.239 585.677 266.625C585.677 258.012 578.695 251.029 570.081 251.029C561.468 251.029 554.485 258.012 554.485 266.625C554.485 275.239 561.468 282.222 570.081 282.222Z" fill="black"/>
<path d="M538.889 250.946C547.502 250.946 554.485 243.963 554.485 235.35C554.485 226.736 547.502 219.753 538.889 219.753C530.275 219.753 523.292 226.736 523.292 235.35C523.292 243.963 530.275 250.946 538.889 250.946Z" fill="black"/>
<path d="M507.612 250.946C516.226 250.946 523.208 243.963 523.208 235.35C523.208 226.736 516.226 219.753 507.612 219.753C498.999 219.753 492.016 226.736 492.016 235.35C492.016 243.963 498.999 250.946 507.612 250.946Z" fill="black"/>
<path d="M476.336 219.753C484.949 219.753 491.932 212.771 491.932 204.157C491.932 195.544 484.949 188.561 476.336 188.561C467.722 188.561 460.74 195.544 460.74 204.157C460.74 212.771 467.722 219.753 476.336 219.753Z" fill="black"/>
<path d="M476.336 250.946C484.949 250.946 491.932 243.963 491.932 235.35C491.932 226.736 484.949 219.753 476.336 219.753C467.722 219.753 460.74 226.736 460.74 235.35C460.74 243.963 467.722 250.946 476.336 250.946Z" fill="black"/>
<path d="M663.91 219.753C672.523 219.753 679.506 212.771 679.506 204.157C679.506 195.544 672.523 188.561 663.91 188.561C655.296 188.561 648.313 195.544 648.313 204.157C648.313 212.771 655.296 219.753 663.91 219.753Z" fill="black"/>
<path d="M632.633 219.753C641.247 219.753 648.229 212.771 648.229 204.157C648.229 195.544 641.247 188.561 632.633 188.561C624.02 188.561 617.037 195.544 617.037 204.157C617.037 212.771 624.02 219.753 632.633 219.753Z" fill="black"/>
<path d="M632.633 250.946C641.247 250.946 648.229 243.963 648.229 235.35C648.229 226.736 641.247 219.753 632.633 219.753C624.02 219.753 617.037 226.736 617.037 235.35C617.037 243.963 624.02 250.946 632.633 250.946Z" fill="black"/>
<path d="M632.633 282.222C641.247 282.222 648.229 275.239 648.229 266.625C648.229 258.012 641.247 251.029 632.633 251.029C624.02 251.029 617.037 258.012 617.037 266.625C617.037 275.239 624.02 282.222 632.633 282.222Z" fill="black"/>
<path d="M601.357 250.946C609.97 250.946 616.953 243.963 616.953 235.35C616.953 226.736 609.97 219.753 601.357 219.753C592.743 219.753 585.761 226.736 585.761 235.35C585.761 243.963 592.743 250.946 601.357 250.946Z" fill="black"/>
<path d="M601.357 282.222C609.97 282.222 616.953 275.239 616.953 266.625C616.953 258.012 609.97 251.029 601.357 251.029C592.743 251.029 585.761 258.012 585.761 266.625C585.761 275.239 592.743 282.222 601.357 282.222Z" fill="black"/>
<path d="M570.081 440.448C578.695 440.448 585.677 433.465 585.677 424.852C585.677 416.238 578.695 409.255 570.081 409.255C561.468 409.255 554.485 416.238 554.485 424.852C554.485 433.465 561.468 440.448 570.081 440.448Z" fill="black"/>
<path d="M538.889 440.448C547.502 440.448 554.485 433.465 554.485 424.852C554.485 416.238 547.502 409.255 538.889 409.255C530.275 409.255 523.292 416.238 523.292 424.852C523.292 433.465 530.275 440.448 538.889 440.448Z" fill="black"/>
<path d="M507.612 440.448C516.226 440.448 523.208 433.465 523.208 424.852C523.208 416.238 516.226 409.255 507.612 409.255C498.999 409.255 492.016 416.238 492.016 424.852C492.016 433.465 498.999 440.448 507.612 440.448Z" fill="black"/>
<path d="M476.336 440.448C484.949 440.448 491.932 433.465 491.932 424.852C491.932 416.238 484.949 409.255 476.336 409.255C467.722 409.255 460.74 416.238 460.74 424.852C460.74 433.465 467.722 440.448 476.336 440.448Z" fill="black"/>
<path d="M663.91 440.448C672.523 440.448 679.506 433.465 679.506 424.852C679.506 416.238 672.523 409.255 663.91 409.255C655.296 409.255 648.313 416.238 648.313 424.852C648.313 433.465 655.296 440.448 663.91 440.448Z" fill="black"/>
<path d="M632.633 440.448C641.247 440.448 648.229 433.465 648.229 424.852C648.229 416.238 641.247 409.255 632.633 409.255C624.02 409.255 617.037 416.238 617.037 424.852C617.037 433.465 624.02 440.448 632.633 440.448Z" fill="black"/>
<path d="M601.357 440.448C609.97 440.448 616.953 433.465 616.953 424.852C616.953 416.238 609.97 409.255 601.357 409.255C592.743 409.255 585.761 416.238 585.761 424.852C585.761 433.465 592.743 440.448 601.357 440.448Z" fill="black"/>
<path d="M425.774 8.19873H402.212V28.6582H425.774V8.19873Z" fill="black"/>
<path d="M394.414 8.19873H370.852V28.6582H394.414V8.19873Z" fill="black"/>
<path d="M456.883 8.19873H433.321V28.6582H456.883V8.19873Z" fill="black"/>
<path d="M425.774 39.6426H402.212V60.1021H425.774V39.6426Z" fill="black"/>
<path d="M394.414 39.6426H370.852V60.1021H394.414V39.6426Z" fill="black"/>
<path d="M456.883 39.6426H433.321V60.1021H456.883V39.6426Z" fill="black"/>
<path d="M425.774 70.835H402.212V91.2945H425.774V70.835Z" fill="black"/>
<path d="M394.414 70.835H370.852V91.2945H394.414V70.835Z" fill="black"/>
<path d="M456.883 70.835H433.321V91.2945H456.883V70.835Z" fill="black"/>
<path d="M425.774 102.279H402.212V122.738H425.774V102.279Z" fill="black"/>
<path d="M394.414 102.279H370.852V122.738H394.414V102.279Z" fill="black"/>
<path d="M456.883 102.279H433.321V122.738H456.883V102.279Z" fill="black"/>
<path d="M425.774 133.304H402.212V153.763H425.774V133.304Z" fill="black"/>
<path d="M394.414 133.304H370.852V153.763H394.414V133.304Z" fill="black"/>
<path d="M456.883 133.304H433.321V153.763H456.883V133.304Z" fill="black"/>
<path d="M425.774 164.748H402.212V185.207H425.774V164.748Z" fill="black"/>
<path d="M394.414 164.748H370.852V185.207H394.414V164.748Z" fill="black"/>
<path d="M456.883 164.748H433.321V185.207H456.883V164.748Z" fill="black"/>
<path d="M425.774 195.856H402.212V216.315H425.774V195.856Z" fill="black"/>
<path d="M394.414 195.856H370.852V216.315H394.414V195.856Z" fill="black"/>
<path d="M456.883 195.856H433.321V216.315H456.883V195.856Z" fill="black"/>
<path d="M425.774 227.3H402.212V247.759H425.774V227.3Z" fill="black"/>
<path d="M394.414 227.3H370.852V247.759H394.414V227.3Z" fill="black"/>
<path d="M456.883 227.3H433.321V247.759H456.883V227.3Z" fill="black"/>
<path d="M425.774 258.325H402.212V278.784H425.774V258.325Z" fill="black"/>
<path d="M425.774 258.325H402.212V278.784H425.774V258.325Z" fill="black"/>
<path d="M394.414 258.325H370.852V278.784H394.414V258.325Z" fill="black"/>
<path d="M456.883 258.325H433.321V278.784H456.883V258.325Z" fill="black"/>
<path d="M425.774 289.517H402.212V309.976H425.774V289.517Z" fill="black"/>
<path d="M394.414 289.517H370.852V309.976H394.414V289.517Z" fill="black"/>
<path d="M456.883 289.517H433.321V309.976H456.883V289.517Z" fill="black"/>
<path d="M425.774 320.961H402.212V341.42H425.774V320.961Z" fill="black"/>
<path d="M394.414 320.961H370.852V341.42H394.414V320.961Z" fill="black"/>
<path d="M456.883 320.961H433.321V341.42H456.883V320.961Z" fill="black"/>
<path d="M425.774 351.985H402.212V372.445H425.774V351.985Z" fill="black"/>
<path d="M394.414 351.985H370.852V372.445H394.414V351.985Z" fill="black"/>
<path d="M456.883 351.985H433.321V372.445H456.883V351.985Z" fill="black"/>
<path d="M425.774 383.429H402.212V403.889H425.774V383.429Z" fill="black"/>
<path d="M394.414 383.429H370.852V403.889H394.414V383.429Z" fill="black"/>
<path d="M456.883 383.429H433.321V403.889H456.883V383.429Z" fill="black"/>
<path d="M425.774 414.538H402.212V434.997H425.774V414.538Z" fill="black"/>
<path d="M394.414 414.538H370.852V434.997H394.414V414.538Z" fill="black"/>
<path d="M456.883 414.538H433.321V434.997H456.883V414.538Z" fill="black"/>
<path d="M425.774 445.982H402.212V466.441H425.774V445.982Z" fill="black"/>
<path d="M394.414 445.982H370.852V466.441H394.414V445.982Z" fill="black"/>
<path d="M456.883 445.982H433.321V466.441H456.883V445.982Z" fill="black"/>
<path d="M425.774 477.174H402.212V497.633H425.774V477.174Z" fill="black"/>
<path d="M394.414 477.174H370.852V497.633H394.414V477.174Z" fill="black"/>
<path d="M456.883 477.174H433.321V497.633H456.883V477.174Z" fill="black"/>
<path d="M519.352 8.19873H495.79V28.6582H519.352V8.19873Z" fill="black"/>
<path d="M487.991 8.19873H464.429V28.6582H487.991V8.19873Z" fill="black"/>
<path d="M550.46 8.19873H526.898V28.6582H550.46V8.19873Z" fill="black"/>
<path d="M519.352 39.6426H495.79V60.1021H519.352V39.6426Z" fill="black"/>
<path d="M487.991 39.6426H464.429V60.1021H487.991V39.6426Z" fill="black"/>
<path d="M550.46 39.6426H526.898V60.1021H550.46V39.6426Z" fill="black"/>
<path d="M519.352 70.835H495.79V91.2945H519.352V70.835Z" fill="black"/>
<path d="M487.991 70.835H464.429V91.2945H487.991V70.835Z" fill="black"/>
<path d="M550.46 70.835H526.898V91.2945H550.46V70.835Z" fill="black"/>
<path d="M644.54 8.4502H620.978V28.9097H644.54V8.4502Z" fill="black"/>
<path d="M613.18 8.4502H589.618V28.9097H613.18V8.4502Z" fill="black"/>
<path d="M675.648 8.4502H652.086V28.9097H675.648V8.4502Z" fill="black"/>
<path d="M644.54 39.4751H620.978V59.9346H644.54V39.4751Z" fill="black"/>
<path d="M613.18 39.4751H589.618V59.9346H613.18V39.4751Z" fill="black"/>
<path d="M675.648 39.4751H652.086V59.9346H675.648V39.4751Z" fill="black"/>
<path d="M644.54 70.9189H620.978V91.3784H644.54V70.9189Z" fill="black"/>
<path d="M613.18 70.9189H589.618V91.3784H613.18V70.9189Z" fill="black"/>
<path d="M675.648 70.9189H652.086V91.3784H675.648V70.9189Z" fill="black"/>
<path d="M581.82 8.19873H558.258V28.6582H581.82V8.19873Z" fill="black"/>
<path d="M581.82 39.6426H558.258V60.1021H581.82V39.6426Z" fill="black"/>
<path d="M581.82 70.835H558.258V91.2945H581.82V70.835Z" fill="black"/>
<path d="M519.352 193.927H495.79V214.387H519.352V193.927Z" fill="black"/>
<path d="M487.991 193.927H464.429V214.387H487.991V193.927Z" fill="black"/>
<path d="M550.46 193.927H526.898V214.387H550.46V193.927Z" fill="black"/>
<path d="M519.352 225.371H495.79V245.831H519.352V225.371Z" fill="black"/>
<path d="M487.991 225.371H464.429V245.831H487.991V225.371Z" fill="black"/>
<path d="M550.46 225.371H526.898V245.831H550.46V225.371Z" fill="black"/>
<path d="M519.352 256.48H495.79V276.939H519.352V256.48Z" fill="black"/>
<path d="M487.991 256.48H464.429V276.939H487.991V256.48Z" fill="black"/>
<path d="M550.46 256.48H526.898V276.939H550.46V256.48Z" fill="black"/>
<path d="M644.54 194.179H620.978V214.638H644.54V194.179Z" fill="black"/>
<path d="M613.18 194.179H589.618V214.638H613.18V194.179Z" fill="black"/>
<path d="M675.648 194.179H652.086V214.638H675.648V194.179Z" fill="black"/>
<path d="M644.54 225.12H620.978V245.579H644.54V225.12Z" fill="black"/>
<path d="M613.18 225.12H589.618V245.579H613.18V225.12Z" fill="black"/>
<path d="M675.648 225.12H652.086V245.579H675.648V225.12Z" fill="black"/>
<path d="M644.54 256.563H620.978V277.023H644.54V256.563Z" fill="black"/>
<path d="M613.18 256.563H589.618V277.023H613.18V256.563Z" fill="black"/>
<path d="M675.648 256.563H652.086V277.023H675.648V256.563Z" fill="black"/>
<path d="M581.82 193.927H558.258V214.387H581.82V193.927Z" fill="black"/>
<path d="M581.82 225.371H558.258V245.831H581.82V225.371Z" fill="black"/>
<path d="M581.82 256.48H558.258V276.939H581.82V256.48Z" fill="black"/>
<path d="M519.352 414.622H495.79V435.081H519.352V414.622Z" fill="black"/>
<path d="M487.991 414.622H464.429V435.081H487.991V414.622Z" fill="black"/>
<path d="M550.46 414.622H526.898V435.081H550.46V414.622Z" fill="black"/>
<path d="M519.352 446.065H495.79V466.525H519.352V446.065Z" fill="black"/>
<path d="M487.991 446.065H464.429V466.525H487.991V446.065Z" fill="black"/>
<path d="M550.46 446.065H526.898V466.525H550.46V446.065Z" fill="black"/>
<path d="M519.352 477.258H495.79V497.717H519.352V477.258Z" fill="black"/>
<path d="M487.991 477.258H464.429V497.717H487.991V477.258Z" fill="black"/>
<path d="M550.46 477.258H526.898V497.717H550.46V477.258Z" fill="black"/>
<path d="M644.54 414.873H620.978V435.333H644.54V414.873Z" fill="black"/>
<path d="M613.18 414.873H589.618V435.333H613.18V414.873Z" fill="black"/>
<path d="M675.648 414.873H652.086V435.333H675.648V414.873Z" fill="black"/>
<path d="M644.54 445.898H620.978V466.357H644.54V445.898Z" fill="black"/>
<path d="M613.18 445.898H589.618V466.357H613.18V445.898Z" fill="black"/>
<path d="M675.648 445.898H652.086V466.357H675.648V445.898Z" fill="black"/>
<path d="M644.54 477.342H620.978V497.801H644.54V477.342Z" fill="black"/>
<path d="M613.18 477.342H589.618V497.801H613.18V477.342Z" fill="black"/>
<path d="M675.648 477.342H652.086V497.801H675.648V477.342Z" fill="black"/>
<path d="M581.82 414.622H558.258V435.081H581.82V414.622Z" fill="black"/>
<path d="M581.82 446.065H558.258V466.525H581.82V446.065Z" fill="black"/>
<path d="M581.82 477.258H558.258V497.717H581.82V477.258Z" fill="black"/>
</svg>
