<svg width="646" height="500" viewBox="0 0 646 500" fill="none" xmlns="http://www.w3.org/2000/svg">
<path d="M250.042 15.5962C250.042 24.2328 242.998 31.2762 234.361 31.2762C225.725 31.2762 218.765 38.2358 218.765 46.8724C218.765 55.509 211.722 62.4686 203.169 62.4686C194.616 62.4686 187.489 69.512 187.489 78.1486C187.489 86.7852 180.529 93.7448 171.893 93.7448C163.256 93.7448 156.213 86.7852 156.213 78.1486C156.213 69.512 163.256 62.4686 171.893 62.4686C180.529 62.4686 187.489 55.509 187.489 46.8724C187.489 38.2358 194.533 31.2762 203.169 31.2762C211.806 31.2762 218.765 24.2328 218.765 15.5962C218.765 6.95958 225.725 0 234.361 0C242.998 0 250.042 6.95958 250.042 15.5962Z" fill="black"/>
<path d="M187.49 109.341C187.49 117.978 180.53 125.021 171.894 125.021C163.257 125.021 156.214 131.981 156.214 140.617C156.214 149.254 149.254 156.214 140.618 156.214C131.981 156.214 125.021 149.254 125.021 140.617C125.021 131.981 131.981 125.021 140.618 125.021C149.254 125.021 156.214 117.978 156.214 109.341C156.214 100.705 163.257 93.7451 171.894 93.7451C180.53 93.7451 187.49 100.705 187.49 109.341Z" fill="black"/>
<path d="M218.766 140.617C218.766 149.253 211.723 156.213 203.17 156.213C194.617 156.213 187.49 163.256 187.49 171.893C187.49 180.529 180.53 187.489 171.894 187.489C163.257 187.489 156.214 194.449 156.214 203.085C156.214 211.722 149.254 218.765 140.618 218.765C131.981 218.765 125.021 211.722 125.021 203.085C125.021 194.449 131.981 187.489 140.618 187.489C149.254 187.489 156.214 180.529 156.214 171.893C156.214 163.256 163.257 156.213 171.894 156.213C180.53 156.213 187.49 149.253 187.49 140.617C187.49 131.98 194.533 125.021 203.17 125.021C211.807 125.021 218.766 131.98 218.766 140.617Z" fill="black"/>
<path d="M218.766 203.085C218.766 211.722 211.723 218.765 203.17 218.765C194.617 218.765 187.49 225.725 187.49 234.362C187.49 242.998 180.53 249.958 171.894 249.958C163.257 249.958 156.214 257.001 156.214 265.638C156.214 274.274 149.254 281.234 140.618 281.234C131.981 281.234 125.021 274.274 125.021 265.638C125.021 257.001 131.981 249.958 140.618 249.958C149.254 249.958 156.214 242.998 156.214 234.362C156.214 225.725 163.257 218.765 171.894 218.765C180.53 218.765 187.49 211.722 187.49 203.085C187.49 194.449 194.533 187.489 203.17 187.489C211.807 187.489 218.766 194.449 218.766 203.085Z" fill="black"/>
<path d="M218.766 265.638C218.766 274.275 211.723 281.234 203.17 281.234C194.617 281.234 187.49 288.194 187.49 296.83C187.49 305.467 180.53 312.51 171.894 312.51C163.257 312.51 156.214 319.47 156.214 328.107C156.214 336.743 149.254 343.703 140.618 343.703C131.981 343.703 125.021 336.743 125.021 328.107C125.021 319.47 131.981 312.51 140.618 312.51C149.254 312.51 156.214 305.467 156.214 296.83C156.214 288.194 163.257 281.234 171.894 281.234C180.53 281.234 187.49 274.275 187.49 265.638C187.49 257.001 194.533 249.958 203.17 249.958C211.807 249.958 218.766 257.001 218.766 265.638Z" fill="black"/>
<path d="M218.766 328.107C218.766 336.743 211.723 343.703 203.17 343.703C194.617 343.703 187.49 350.747 187.49 359.383C187.49 368.02 180.53 374.979 171.894 374.979C163.257 374.979 156.214 382.023 156.214 390.575C156.214 399.128 149.254 406.256 140.618 406.256C131.981 406.256 125.021 399.212 125.021 390.575C125.021 381.939 131.981 374.979 140.618 374.979C149.254 374.979 156.214 368.02 156.214 359.383C156.214 350.747 163.257 343.703 171.894 343.703C180.53 343.703 187.49 336.743 187.49 328.107C187.49 319.47 194.533 312.511 203.17 312.511C211.807 312.511 218.766 319.47 218.766 328.107Z" fill="black"/>
<path d="M218.766 390.575C218.766 399.211 211.723 406.255 203.17 406.255C194.617 406.255 187.49 413.214 187.49 421.851C187.49 430.488 180.53 437.447 171.894 437.447C163.257 437.447 156.214 444.491 156.214 453.127C156.214 461.764 149.254 468.723 140.618 468.723C131.981 468.723 125.021 461.764 125.021 453.127C125.021 444.491 131.981 437.447 140.618 437.447C149.254 437.447 156.214 430.488 156.214 421.851C156.214 413.214 163.257 406.255 171.894 406.255C180.53 406.255 187.49 399.211 187.49 390.575C187.49 381.938 194.533 374.979 203.17 374.979C211.807 374.979 218.766 382.022 218.766 390.575Z" fill="black"/>
<path d="M218.765 453.127C218.765 461.764 211.722 468.723 203.169 468.723C194.616 468.723 187.489 475.767 187.489 484.32C187.489 492.872 180.529 500 171.893 500C163.256 500 156.213 492.956 156.213 484.32C156.213 475.683 163.256 468.723 171.893 468.723C180.529 468.723 187.489 461.764 187.489 453.127C187.489 444.491 194.533 437.447 203.169 437.447C211.806 437.447 218.765 444.491 218.765 453.127Z" fill="black"/>
<path d="M343.787 46.8725C343.787 55.5091 336.743 62.4687 328.107 62.4687C319.47 62.4687 312.511 69.5121 312.511 78.1487C312.511 86.7853 305.467 93.7449 296.914 93.7449C288.362 93.7449 281.234 86.7853 281.234 78.1487C281.234 69.5121 288.278 62.4687 296.914 62.4687C305.551 62.4687 312.511 55.5091 312.511 46.8725C312.511 38.236 319.47 31.2764 328.107 31.2764C336.743 31.2764 343.787 38.236 343.787 46.8725Z" fill="black"/>
<path d="M312.51 15.5962C312.51 24.2328 305.467 31.2762 296.914 31.2762C288.361 31.2762 281.234 38.2358 281.234 46.8724C281.234 55.509 274.275 62.4686 265.638 62.4686C257.001 62.4686 250.042 69.512 250.042 78.1486C250.042 86.7852 242.998 93.7448 234.362 93.7448C225.725 93.7448 218.766 86.7852 218.766 78.1486C218.766 69.512 225.725 62.4686 234.362 62.4686C242.998 62.4686 250.042 55.509 250.042 46.8724C250.042 38.2358 257.001 31.2762 265.638 31.2762C274.275 31.2762 281.234 24.2328 281.234 15.5962C281.234 6.95958 288.278 0 296.914 0C305.551 0 312.51 6.95958 312.51 15.5962Z" fill="black"/>
<path d="M187.49 15.5962C187.49 24.2328 180.53 31.2762 171.894 31.2762C163.257 31.2762 156.214 38.2358 156.214 46.8724C156.214 55.509 149.254 62.4686 140.618 62.4686C131.981 62.4686 125.021 69.512 125.021 78.1486C125.021 86.7852 117.978 93.7448 109.341 93.7448C100.705 93.7448 93.7451 86.7852 93.7451 78.1486C93.7451 69.512 100.789 62.4686 109.341 62.4686C117.894 62.4686 125.021 55.509 125.021 46.8724C125.021 38.2358 131.981 31.2762 140.618 31.2762C149.254 31.2762 156.214 24.2328 156.214 15.5962C156.214 6.95958 163.257 0 171.894 0C180.53 0 187.49 6.95958 187.49 15.5962Z" fill="black"/>
<path d="M125.021 15.5962C125.021 24.2328 117.978 31.2762 109.341 31.2762C100.704 31.2762 93.7449 38.2358 93.7449 46.8724C93.7449 55.509 86.7854 62.4686 78.1488 62.4686C69.5122 62.4686 62.4687 69.512 62.4687 78.1486C62.4687 86.7852 55.5091 93.7448 46.8725 93.7448C38.236 93.7448 31.2764 86.7852 31.2764 78.1486C31.2764 69.512 38.236 62.4686 46.8725 62.4686C55.5091 62.4686 62.4687 55.509 62.4687 46.8724C62.4687 38.2358 69.5122 31.2762 78.1488 31.2762C86.7854 31.2762 93.7449 24.2328 93.7449 15.5962C93.7449 6.95958 100.788 0 109.341 0C117.894 0 125.021 6.95958 125.021 15.5962Z" fill="black"/>
<path d="M62.4686 15.5962C62.4686 24.2328 55.509 31.2762 46.8724 31.2762C38.2358 31.2762 31.2762 38.2358 31.2762 46.8724C31.2762 55.509 24.2328 62.4686 15.5962 62.4686C6.95959 62.4686 0 55.509 0 46.8724C0 38.2358 7.04344 31.2762 15.5962 31.2762C24.1489 31.2762 31.2762 24.2328 31.2762 15.5962C31.2762 6.95958 38.2358 0 46.8724 0C55.509 0 62.4686 6.95958 62.4686 15.5962Z" fill="black"/>
<path d="M379.592 31.1924C388.206 31.1924 395.188 24.2097 395.188 15.5962C395.188 6.98265 388.206 0 379.592 0C370.979 0 363.996 6.98265 363.996 15.5962C363.996 24.2097 370.979 31.1924 379.592 31.1924Z" fill="black"/>
<path d="M442.061 31.1924C450.675 31.1924 457.657 24.2097 457.657 15.5962C457.657 6.98265 450.675 0 442.061 0C433.447 0 426.465 6.98265 426.465 15.5962C426.465 24.2097 433.447 31.1924 442.061 31.1924Z" fill="black"/>
<path d="M379.592 62.4687C388.206 62.4687 395.188 55.4861 395.188 46.8725C395.188 38.259 388.206 31.2764 379.592 31.2764C370.979 31.2764 363.996 38.259 363.996 46.8725C363.996 55.4861 370.979 62.4687 379.592 62.4687Z" fill="black"/>
<path d="M442.061 62.4687C450.675 62.4687 457.657 55.4861 457.657 46.8725C457.657 38.259 450.675 31.2764 442.061 31.2764C433.447 31.2764 426.465 38.259 426.465 46.8725C426.465 55.4861 433.447 62.4687 442.061 62.4687Z" fill="black"/>
<path d="M379.592 93.6611C388.206 93.6611 395.188 86.6785 395.188 78.0649C395.188 69.4514 388.206 62.4688 379.592 62.4688C370.979 62.4688 363.996 69.4514 363.996 78.0649C363.996 86.6785 370.979 93.6611 379.592 93.6611Z" fill="black"/>
<path d="M442.061 93.6611C450.675 93.6611 457.657 86.6785 457.657 78.0649C457.657 69.4514 450.675 62.4688 442.061 62.4688C433.447 62.4688 426.465 69.4514 426.465 78.0649C426.465 86.6785 433.447 93.6611 442.061 93.6611Z" fill="black"/>
<path d="M379.592 124.937C388.206 124.937 395.188 117.955 395.188 109.341C395.188 100.728 388.206 93.7451 379.592 93.7451C370.979 93.7451 363.996 100.728 363.996 109.341C363.996 117.955 370.979 124.937 379.592 124.937Z" fill="black"/>
<path d="M442.061 124.937C450.675 124.937 457.657 117.955 457.657 109.341C457.657 100.728 450.675 93.7451 442.061 93.7451C433.447 93.7451 426.465 100.728 426.465 109.341C426.465 117.955 433.447 124.937 442.061 124.937Z" fill="black"/>
<path d="M379.592 156.213C388.206 156.213 395.188 149.23 395.188 140.617C395.188 132.003 388.206 125.021 379.592 125.021C370.979 125.021 363.996 132.003 363.996 140.617C363.996 149.23 370.979 156.213 379.592 156.213Z" fill="black"/>
<path d="M442.061 156.213C450.675 156.213 457.657 149.23 457.657 140.617C457.657 132.003 450.675 125.021 442.061 125.021C433.447 125.021 426.465 132.003 426.465 140.617C426.465 149.23 433.447 156.213 442.061 156.213Z" fill="black"/>
<path d="M379.592 187.405C388.206 187.405 395.188 180.423 395.188 171.809C395.188 163.196 388.206 156.213 379.592 156.213C370.979 156.213 363.996 163.196 363.996 171.809C363.996 180.423 370.979 187.405 379.592 187.405Z" fill="black"/>
<path d="M442.061 187.405C450.675 187.405 457.657 180.423 457.657 171.809C457.657 163.196 450.675 156.213 442.061 156.213C433.447 156.213 426.465 163.196 426.465 171.809C426.465 180.423 433.447 187.405 442.061 187.405Z" fill="black"/>
<path d="M379.592 218.682C388.206 218.682 395.188 211.699 395.188 203.085C395.188 194.472 388.206 187.489 379.592 187.489C370.979 187.489 363.996 194.472 363.996 203.085C363.996 211.699 370.979 218.682 379.592 218.682Z" fill="black"/>
<path d="M442.061 218.682C450.675 218.682 457.657 211.699 457.657 203.085C457.657 194.472 450.675 187.489 442.061 187.489C433.447 187.489 426.465 194.472 426.465 203.085C426.465 211.699 433.447 218.682 442.061 218.682Z" fill="black"/>
<path d="M379.592 249.958C388.206 249.958 395.188 242.975 395.188 234.362C395.188 225.748 388.206 218.766 379.592 218.766C370.979 218.766 363.996 225.748 363.996 234.362C363.996 242.975 370.979 249.958 379.592 249.958Z" fill="black"/>
<path d="M442.061 249.958C450.675 249.958 457.657 242.975 457.657 234.362C457.657 225.748 450.675 218.766 442.061 218.766C433.447 218.766 426.465 225.748 426.465 234.362C426.465 242.975 433.447 249.958 442.061 249.958Z" fill="black"/>
<path d="M379.592 281.15C388.206 281.15 395.188 274.168 395.188 265.554C395.188 256.941 388.206 249.958 379.592 249.958C370.979 249.958 363.996 256.941 363.996 265.554C363.996 274.168 370.979 281.15 379.592 281.15Z" fill="black"/>
<path d="M442.061 281.15C450.675 281.15 457.657 274.168 457.657 265.554C457.657 256.941 450.675 249.958 442.061 249.958C433.447 249.958 426.465 256.941 426.465 265.554C426.465 274.168 433.447 281.15 442.061 281.15Z" fill="black"/>
<path d="M379.592 312.427C388.206 312.427 395.188 305.444 395.188 296.831C395.188 288.217 388.206 281.234 379.592 281.234C370.979 281.234 363.996 288.217 363.996 296.831C363.996 305.444 370.979 312.427 379.592 312.427Z" fill="black"/>
<path d="M442.061 312.427C450.675 312.427 457.657 305.444 457.657 296.831C457.657 288.217 450.675 281.234 442.061 281.234C433.447 281.234 426.465 288.217 426.465 296.831C426.465 305.444 433.447 312.427 442.061 312.427Z" fill="black"/>
<path d="M379.592 343.703C388.206 343.703 395.188 336.72 395.188 328.107C395.188 319.493 388.206 312.511 379.592 312.511C370.979 312.511 363.996 319.493 363.996 328.107C363.996 336.72 370.979 343.703 379.592 343.703Z" fill="black"/>
<path d="M442.061 343.703C450.675 343.703 457.657 336.72 457.657 328.107C457.657 319.493 450.675 312.511 442.061 312.511C433.447 312.511 426.465 319.493 426.465 328.107C426.465 336.72 433.447 343.703 442.061 343.703Z" fill="black"/>
<path d="M379.592 374.979C388.206 374.979 395.188 367.997 395.188 359.383C395.188 350.77 388.206 343.787 379.592 343.787C370.979 343.787 363.996 350.77 363.996 359.383C363.996 367.997 370.979 374.979 379.592 374.979Z" fill="black"/>
<path d="M442.061 374.979C450.675 374.979 457.657 367.997 457.657 359.383C457.657 350.77 450.675 343.787 442.061 343.787C433.447 343.787 426.465 350.77 426.465 359.383C426.465 367.997 433.447 374.979 442.061 374.979Z" fill="black"/>
<path d="M379.592 406.172C388.206 406.172 395.188 399.189 395.188 390.576C395.188 381.962 388.206 374.979 379.592 374.979C370.979 374.979 363.996 381.962 363.996 390.576C363.996 399.189 370.979 406.172 379.592 406.172Z" fill="black"/>
<path d="M442.061 406.172C450.675 406.172 457.657 399.189 457.657 390.576C457.657 381.962 450.675 374.979 442.061 374.979C433.447 374.979 426.465 381.962 426.465 390.576C426.465 399.189 433.447 406.172 442.061 406.172Z" fill="black"/>
<path d="M379.592 437.447C388.206 437.447 395.188 430.465 395.188 421.851C395.188 413.238 388.206 406.255 379.592 406.255C370.979 406.255 363.996 413.238 363.996 421.851C363.996 430.465 370.979 437.447 379.592 437.447Z" fill="black"/>
<path d="M442.061 437.447C450.675 437.447 457.657 430.465 457.657 421.851C457.657 413.238 450.675 406.255 442.061 406.255C433.447 406.255 426.465 413.238 426.465 421.851C426.465 430.465 433.447 437.447 442.061 437.447Z" fill="black"/>
<path d="M379.592 468.724C388.206 468.724 395.188 461.741 395.188 453.127C395.188 444.514 388.206 437.531 379.592 437.531C370.979 437.531 363.996 444.514 363.996 453.127C363.996 461.741 370.979 468.724 379.592 468.724Z" fill="black"/>
<path d="M442.061 468.724C450.675 468.724 457.657 461.741 457.657 453.127C457.657 444.514 450.675 437.531 442.061 437.531C433.447 437.531 426.465 444.514 426.465 453.127C426.465 461.741 433.447 468.724 442.061 468.724Z" fill="black"/>
<path d="M379.592 499.916C388.206 499.916 395.188 492.933 395.188 484.32C395.188 475.706 388.206 468.724 379.592 468.724C370.979 468.724 363.996 475.706 363.996 484.32C363.996 492.933 370.979 499.916 379.592 499.916Z" fill="black"/>
<path d="M442.061 499.916C450.675 499.916 457.657 492.933 457.657 484.32C457.657 475.706 450.675 468.724 442.061 468.724C433.447 468.724 426.465 475.706 426.465 484.32C426.465 492.933 433.447 499.916 442.061 499.916Z" fill="black"/>
<path d="M567.082 31.1924C575.695 31.1924 582.678 24.2097 582.678 15.5962C582.678 6.98265 575.695 0 567.082 0C558.468 0 551.485 6.98265 551.485 15.5962C551.485 24.2097 558.468 31.1924 567.082 31.1924Z" fill="black"/>
<path d="M567.082 62.4687C575.695 62.4687 582.678 55.4861 582.678 46.8725C582.678 38.259 575.695 31.2764 567.082 31.2764C558.468 31.2764 551.485 38.259 551.485 46.8725C551.485 55.4861 558.468 62.4687 567.082 62.4687Z" fill="black"/>
<path d="M567.082 93.6611C575.695 93.6611 582.678 86.6785 582.678 78.0649C582.678 69.4514 575.695 62.4688 567.082 62.4688C558.468 62.4688 551.485 69.4514 551.485 78.0649C551.485 86.6785 558.468 93.6611 567.082 93.6611Z" fill="black"/>
<path d="M504.53 31.1924C513.143 31.1924 520.126 24.2097 520.126 15.5962C520.126 6.98265 513.143 0 504.53 0C495.916 0 488.934 6.98265 488.934 15.5962C488.934 24.2097 495.916 31.1924 504.53 31.1924Z" fill="black"/>
<path d="M504.53 62.4687C513.143 62.4687 520.126 55.4861 520.126 46.8725C520.126 38.259 513.143 31.2764 504.53 31.2764C495.916 31.2764 488.934 38.259 488.934 46.8725C488.934 55.4861 495.916 62.4687 504.53 62.4687Z" fill="black"/>
<path d="M504.53 93.6611C513.143 93.6611 520.126 86.6785 520.126 78.0649C520.126 69.4514 513.143 62.4688 504.53 62.4688C495.916 62.4688 488.934 69.4514 488.934 78.0649C488.934 86.6785 495.916 93.6611 504.53 93.6611Z" fill="black"/>
<path d="M629.55 31.1924C638.164 31.1924 645.146 24.2097 645.146 15.5962C645.146 6.98265 638.164 0 629.55 0C620.937 0 613.954 6.98265 613.954 15.5962C613.954 24.2097 620.937 31.1924 629.55 31.1924Z" fill="black"/>
<path d="M629.55 62.4687C638.164 62.4687 645.146 55.4861 645.146 46.8725C645.146 38.259 638.164 31.2764 629.55 31.2764C620.937 31.2764 613.954 38.259 613.954 46.8725C613.954 55.4861 620.937 62.4687 629.55 62.4687Z" fill="black"/>
<path d="M629.55 93.6611C638.164 93.6611 645.146 86.6785 645.146 78.0649C645.146 69.4514 638.164 62.4688 629.55 62.4688C620.937 62.4688 613.954 69.4514 613.954 78.0649C613.954 86.6785 620.937 93.6611 629.55 93.6611Z" fill="black"/>
<path d="M567.082 216.67C575.695 216.67 582.678 209.687 582.678 201.074C582.678 192.46 575.695 185.478 567.082 185.478C558.468 185.478 551.485 192.46 551.485 201.074C551.485 209.687 558.468 216.67 567.082 216.67Z" fill="black"/>
<path d="M567.082 247.945C575.695 247.945 582.678 240.963 582.678 232.349C582.678 223.736 575.695 216.753 567.082 216.753C558.468 216.753 551.485 223.736 551.485 232.349C551.485 240.963 558.468 247.945 567.082 247.945Z" fill="black"/>
<path d="M567.082 279.222C575.695 279.222 582.678 272.239 582.678 263.625C582.678 255.012 575.695 248.029 567.082 248.029C558.468 248.029 551.485 255.012 551.485 263.625C551.485 272.239 558.468 279.222 567.082 279.222Z" fill="black"/>
<path d="M504.53 216.67C513.143 216.67 520.126 209.687 520.126 201.074C520.126 192.46 513.143 185.478 504.53 185.478C495.916 185.478 488.934 192.46 488.934 201.074C488.934 209.687 495.916 216.67 504.53 216.67Z" fill="black"/>
<path d="M504.53 247.945C513.143 247.945 520.126 240.963 520.126 232.349C520.126 223.736 513.143 216.753 504.53 216.753C495.916 216.753 488.934 223.736 488.934 232.349C488.934 240.963 495.916 247.945 504.53 247.945Z" fill="black"/>
<path d="M504.53 279.222C513.143 279.222 520.126 272.239 520.126 263.625C520.126 255.012 513.143 248.029 504.53 248.029C495.916 248.029 488.934 255.012 488.934 263.625C488.934 272.239 495.916 279.222 504.53 279.222Z" fill="black"/>
<path d="M629.55 216.67C638.164 216.67 645.146 209.687 645.146 201.074C645.146 192.46 638.164 185.478 629.55 185.478C620.937 185.478 613.954 192.46 613.954 201.074C613.954 209.687 620.937 216.67 629.55 216.67Z" fill="black"/>
<path d="M629.55 247.945C638.164 247.945 645.146 240.963 645.146 232.349C645.146 223.736 638.164 216.753 629.55 216.753C620.937 216.753 613.954 223.736 613.954 232.349C613.954 240.963 620.937 247.945 629.55 247.945Z" fill="black"/>
<path d="M629.55 279.222C638.164 279.222 645.146 272.239 645.146 263.625C645.146 255.012 638.164 248.029 629.55 248.029C620.937 248.029 613.954 255.012 613.954 263.625C613.954 272.239 620.937 279.222 629.55 279.222Z" fill="black"/>
<path d="M567.082 437.447C575.695 437.447 582.678 430.465 582.678 421.851C582.678 413.238 575.695 406.255 567.082 406.255C558.468 406.255 551.485 413.238 551.485 421.851C551.485 430.465 558.468 437.447 567.082 437.447Z" fill="black"/>
<path d="M567.082 468.724C575.695 468.724 582.678 461.741 582.678 453.127C582.678 444.514 575.695 437.531 567.082 437.531C558.468 437.531 551.485 444.514 551.485 453.127C551.485 461.741 558.468 468.724 567.082 468.724Z" fill="black"/>
<path d="M567.082 499.916C575.695 499.916 582.678 492.933 582.678 484.32C582.678 475.706 575.695 468.724 567.082 468.724C558.468 468.724 551.485 475.706 551.485 484.32C551.485 492.933 558.468 499.916 567.082 499.916Z" fill="black"/>
<path d="M504.53 437.447C513.143 437.447 520.126 430.465 520.126 421.851C520.126 413.238 513.143 406.255 504.53 406.255C495.916 406.255 488.934 413.238 488.934 421.851C488.934 430.465 495.916 437.447 504.53 437.447Z" fill="black"/>
<path d="M504.53 468.724C513.143 468.724 520.126 461.741 520.126 453.127C520.126 444.514 513.143 437.531 504.53 437.531C495.916 437.531 488.934 444.514 488.934 453.127C488.934 461.741 495.916 468.724 504.53 468.724Z" fill="black"/>
<path d="M504.53 499.916C513.143 499.916 520.126 492.933 520.126 484.32C520.126 475.706 513.143 468.724 504.53 468.724C495.916 468.724 488.934 475.706 488.934 484.32C488.934 492.933 495.916 499.916 504.53 499.916Z" fill="black"/>
<path d="M629.55 437.447C638.164 437.447 645.146 430.465 645.146 421.851C645.146 413.238 638.164 406.255 629.55 406.255C620.937 406.255 613.954 413.238 613.954 421.851C613.954 430.465 620.937 437.447 629.55 437.447Z" fill="black"/>
<path d="M629.55 468.724C638.164 468.724 645.146 461.741 645.146 453.127C645.146 444.514 638.164 437.531 629.55 437.531C620.937 437.531 613.954 444.514 613.954 453.127C613.954 461.741 620.937 468.724 629.55 468.724Z" fill="black"/>
<path d="M629.55 499.916C638.164 499.916 645.146 492.933 645.146 484.32C645.146 475.706 638.164 468.724 629.55 468.724C620.937 468.724 613.954 475.706 613.954 484.32C613.954 492.933 620.937 499.916 629.55 499.916Z" fill="black"/>
</svg>
