<svg width="669" height="500" viewBox="0 0 669 500" fill="none" xmlns="http://www.w3.org/2000/svg">
<path d="M180.027 0H156.465V20.4595H180.027V0Z" fill="black"/>
<path d="M148.583 0H125.021V20.4595H148.583V0Z" fill="black"/>
<path d="M211.051 0H187.489V20.4595H211.051V0Z" fill="black"/>
<path d="M180.027 31.4443H156.465V51.9038H180.027V31.4443Z" fill="black"/>
<path d="M148.583 31.4443H125.021V51.9038H148.583V31.4443Z" fill="black"/>
<path d="M211.051 31.4443H187.489V51.9038H211.051V31.4443Z" fill="black"/>
<path d="M180.027 62.5527H156.465V83.0122H180.027V62.5527Z" fill="black"/>
<path d="M148.583 62.5527H125.021V83.0122H148.583V62.5527Z" fill="black"/>
<path d="M211.051 62.5527H187.489V83.0122H211.051V62.5527Z" fill="black"/>
<path d="M180.027 93.9961H156.465V114.456H180.027V93.9961Z" fill="black"/>
<path d="M148.583 93.9961H125.021V114.456H148.583V93.9961Z" fill="black"/>
<path d="M211.051 93.9961H187.489V114.456H211.051V93.9961Z" fill="black"/>
<path d="M180.027 125.021H156.465V145.48H180.027V125.021Z" fill="black"/>
<path d="M148.583 125.021H125.021V145.48H148.583V125.021Z" fill="black"/>
<path d="M211.051 125.021H187.489V145.48H211.051V125.021Z" fill="black"/>
<path d="M180.027 156.465H156.465V176.924H180.027V156.465Z" fill="black"/>
<path d="M148.583 156.465H125.021V176.924H148.583V156.465Z" fill="black"/>
<path d="M211.051 156.465H187.489V176.924H211.051V156.465Z" fill="black"/>
<path d="M180.027 187.657H156.465V208.117H180.027V187.657Z" fill="black"/>
<path d="M148.583 187.657H125.021V208.117H148.583V187.657Z" fill="black"/>
<path d="M211.051 187.657H187.489V208.117H211.051V187.657Z" fill="black"/>
<path d="M180.027 219.102H156.465V239.561H180.027V219.102Z" fill="black"/>
<path d="M148.583 219.102H125.021V239.561H148.583V219.102Z" fill="black"/>
<path d="M211.051 219.102H187.489V239.561H211.051V219.102Z" fill="black"/>
<path d="M180.027 250.126H156.465V270.585H180.027V250.126Z" fill="black"/>
<path d="M180.027 250.126H156.465V270.585H180.027V250.126Z" fill="black"/>
<path d="M148.583 250.126H125.021V270.585H148.583V250.126Z" fill="black"/>
<path d="M211.051 250.126H187.489V270.585H211.051V250.126Z" fill="black"/>
<path d="M180.027 281.234H156.465V301.694H180.027V281.234Z" fill="black"/>
<path d="M148.583 281.234H125.021V301.694H148.583V281.234Z" fill="black"/>
<path d="M211.051 281.234H187.489V301.694H211.051V281.234Z" fill="black"/>
<path d="M180.027 312.678H156.465V333.137H180.027V312.678Z" fill="black"/>
<path d="M148.583 312.678H125.021V333.137H148.583V312.678Z" fill="black"/>
<path d="M211.051 312.678H187.489V333.137H211.051V312.678Z" fill="black"/>
<path d="M180.027 343.703H156.465V364.163H180.027V343.703Z" fill="black"/>
<path d="M148.583 343.703H125.021V364.163H148.583V343.703Z" fill="black"/>
<path d="M211.051 343.703H187.489V364.163H211.051V343.703Z" fill="black"/>
<path d="M180.027 375.146H156.465V395.606H180.027V375.146Z" fill="black"/>
<path d="M148.583 375.146H125.021V395.606H148.583V375.146Z" fill="black"/>
<path d="M211.051 375.146H187.489V395.606H211.051V375.146Z" fill="black"/>
<path d="M180.027 406.339H156.465V426.798H180.027V406.339Z" fill="black"/>
<path d="M148.583 406.339H125.021V426.798H148.583V406.339Z" fill="black"/>
<path d="M211.051 406.339H187.489V426.798H211.051V406.339Z" fill="black"/>
<path d="M180.027 437.783H156.465V458.243H180.027V437.783Z" fill="black"/>
<path d="M148.583 437.783H125.021V458.243H148.583V437.783Z" fill="black"/>
<path d="M211.051 437.783H187.489V458.243H211.051V437.783Z" fill="black"/>
<path d="M180.027 468.892H156.465V489.351H180.027V468.892Z" fill="black"/>
<path d="M148.583 468.892H125.021V489.351H148.583V468.892Z" fill="black"/>
<path d="M211.051 468.892H187.489V489.351H211.051V468.892Z" fill="black"/>
<path d="M86.1987 0H62.6367V20.4595H86.1987V0Z" fill="black"/>
<path d="M54.8383 0H31.2764V20.4595H54.8383V0Z" fill="black"/>
<path d="M117.307 0H93.7451V20.4595H117.307V0Z" fill="black"/>
<path d="M86.1987 31.4443H62.6367V51.9038H86.1987V31.4443Z" fill="black"/>
<path d="M54.8383 31.4443H31.2764V51.9038H54.8383V31.4443Z" fill="black"/>
<path d="M117.307 31.4443H93.7451V51.9038H117.307V31.4443Z" fill="black"/>
<path d="M86.1987 62.5527H62.6367V83.0122H86.1987V62.5527Z" fill="black"/>
<path d="M54.8383 62.5527H31.2764V83.0122H54.8383V62.5527Z" fill="black"/>
<path d="M117.307 62.5527H93.7451V83.0122H117.307V62.5527Z" fill="black"/>
<path d="M273.772 0H250.21V20.4595H273.772V0Z" fill="black"/>
<path d="M242.328 0H218.766V20.4595H242.328V0Z" fill="black"/>
<path d="M304.796 0H281.234V20.4595H304.796V0Z" fill="black"/>
<path d="M273.772 31.4443H250.21V51.9038H273.772V31.4443Z" fill="black"/>
<path d="M242.328 31.4443H218.766V51.9038H242.328V31.4443Z" fill="black"/>
<path d="M304.796 31.4443H281.234V51.9038H304.796V31.4443Z" fill="black"/>
<path d="M273.772 62.5527H250.21V83.0122H273.772V62.5527Z" fill="black"/>
<path d="M242.328 62.5527H218.766V83.0122H242.328V62.5527Z" fill="black"/>
<path d="M304.796 62.5527H281.234V83.0122H304.796V62.5527Z" fill="black"/>
<path d="M23.5619 0H0V20.4595H23.5619V0Z" fill="black"/>
<path d="M23.5619 31.4443H0V51.9038H23.5619V31.4443Z" fill="black"/>
<path d="M23.5619 62.5527H0V83.0122H23.5619V62.5527Z" fill="black"/>
<path d="M336.073 0H312.511V20.4595H336.073V0Z" fill="black"/>
<path d="M336.073 31.4443H312.511V51.9038H336.073V31.4443Z" fill="black"/>
<path d="M336.073 62.5527H312.511V83.0122H336.073V62.5527Z" fill="black"/>
<path d="M419.002 0H395.44V20.4595H419.002V0Z" fill="black"/>
<path d="M387.558 0H363.996V20.4595H387.558V0Z" fill="black"/>
<path d="M450.111 0H426.549V20.4595H450.111V0Z" fill="black"/>
<path d="M419.002 31.4443H395.44V51.9038H419.002V31.4443Z" fill="black"/>
<path d="M387.558 31.4443H363.996V51.9038H387.558V31.4443Z" fill="black"/>
<path d="M450.111 31.4443H426.549V51.9038H450.111V31.4443Z" fill="black"/>
<path d="M419.002 62.6367H395.44V83.0962H419.002V62.6367Z" fill="black"/>
<path d="M387.558 62.6367H363.996V83.0962H387.558V62.6367Z" fill="black"/>
<path d="M450.111 62.6367H426.549V83.0962H450.111V62.6367Z" fill="black"/>
<path d="M419.002 94.0801H395.44V114.54H419.002V94.0801Z" fill="black"/>
<path d="M387.558 94.0801H363.996V114.54H387.558V94.0801Z" fill="black"/>
<path d="M450.111 94.0801H426.549V114.54H450.111V94.0801Z" fill="black"/>
<path d="M419.002 125.104H395.44V145.564H419.002V125.104Z" fill="black"/>
<path d="M387.558 125.104H363.996V145.564H387.558V125.104Z" fill="black"/>
<path d="M450.111 125.104H426.549V145.564H450.111V125.104Z" fill="black"/>
<path d="M419.002 156.549H395.44V177.008H419.002V156.549Z" fill="black"/>
<path d="M387.558 156.549H363.996V177.008H387.558V156.549Z" fill="black"/>
<path d="M450.111 156.549H426.549V177.008H450.111V156.549Z" fill="black"/>
<path d="M419.002 187.657H395.44V208.117H419.002V187.657Z" fill="black"/>
<path d="M387.558 187.657H363.996V208.117H387.558V187.657Z" fill="black"/>
<path d="M450.111 187.657H426.549V208.117H450.111V187.657Z" fill="black"/>
<path d="M419.002 219.102H395.44V239.561H419.002V219.102Z" fill="black"/>
<path d="M387.558 219.102H363.996V239.561H387.558V219.102Z" fill="black"/>
<path d="M450.111 219.102H426.549V239.561H450.111V219.102Z" fill="black"/>
<path d="M419.002 250.126H395.44V270.585H419.002V250.126Z" fill="black"/>
<path d="M419.002 250.126H395.44V270.585H419.002V250.126Z" fill="black"/>
<path d="M387.558 250.126H363.996V270.585H387.558V250.126Z" fill="black"/>
<path d="M450.111 250.126H426.549V270.585H450.111V250.126Z" fill="black"/>
<path d="M419.002 281.318H395.44V301.778H419.002V281.318Z" fill="black"/>
<path d="M387.558 281.318H363.996V301.778H387.558V281.318Z" fill="black"/>
<path d="M450.111 281.318H426.549V301.778H450.111V281.318Z" fill="black"/>
<path d="M419.002 312.762H395.44V333.221H419.002V312.762Z" fill="black"/>
<path d="M387.558 312.762H363.996V333.221H387.558V312.762Z" fill="black"/>
<path d="M450.111 312.762H426.549V333.221H450.111V312.762Z" fill="black"/>
<path d="M419.002 343.787H395.44V364.247H419.002V343.787Z" fill="black"/>
<path d="M387.558 343.787H363.996V364.247H387.558V343.787Z" fill="black"/>
<path d="M450.111 343.787H426.549V364.247H450.111V343.787Z" fill="black"/>
<path d="M419.002 375.146H395.44V395.606H419.002V375.146Z" fill="black"/>
<path d="M387.558 375.146H363.996V395.606H387.558V375.146Z" fill="black"/>
<path d="M450.111 375.146H426.549V395.606H450.111V375.146Z" fill="black"/>
<path d="M419.002 406.339H395.44V426.798H419.002V406.339Z" fill="black"/>
<path d="M387.558 406.339H363.996V426.798H387.558V406.339Z" fill="black"/>
<path d="M450.111 406.339H426.549V426.798H450.111V406.339Z" fill="black"/>
<path d="M419.002 437.783H395.44V458.243H419.002V437.783Z" fill="black"/>
<path d="M387.558 437.783H363.996V458.243H387.558V437.783Z" fill="black"/>
<path d="M450.111 437.783H426.549V458.243H450.111V437.783Z" fill="black"/>
<path d="M419.002 468.976H395.44V489.435H419.002V468.976Z" fill="black"/>
<path d="M387.558 468.976H363.996V489.435H387.558V468.976Z" fill="black"/>
<path d="M450.111 468.976H426.549V489.435H450.111V468.976Z" fill="black"/>
<path d="M512.579 0H489.017V20.4595H512.579V0Z" fill="black"/>
<path d="M481.219 0H457.657V20.4595H481.219V0Z" fill="black"/>
<path d="M543.688 0H520.126V20.4595H543.688V0Z" fill="black"/>
<path d="M512.579 31.4443H489.017V51.9038H512.579V31.4443Z" fill="black"/>
<path d="M481.219 31.4443H457.657V51.9038H481.219V31.4443Z" fill="black"/>
<path d="M543.688 31.4443H520.126V51.9038H543.688V31.4443Z" fill="black"/>
<path d="M512.579 62.6367H489.017V83.0962H512.579V62.6367Z" fill="black"/>
<path d="M481.219 62.6367H457.657V83.0962H481.219V62.6367Z" fill="black"/>
<path d="M543.688 62.6367H520.126V83.0962H543.688V62.6367Z" fill="black"/>
<path d="M637.768 0.251953H614.206V20.7115H637.768V0.251953Z" fill="black"/>
<path d="M606.324 0.251953H582.762V20.7115H606.324V0.251953Z" fill="black"/>
<path d="M668.876 0.251953H645.314V20.7115H668.876V0.251953Z" fill="black"/>
<path d="M637.768 31.2764H614.206V51.7359H637.768V31.2764Z" fill="black"/>
<path d="M606.324 31.2764H582.762V51.7359H606.324V31.2764Z" fill="black"/>
<path d="M668.876 31.2764H645.314V51.7359H668.876V31.2764Z" fill="black"/>
<path d="M637.768 62.7197H614.206V83.1792H637.768V62.7197Z" fill="black"/>
<path d="M606.324 62.7197H582.762V83.1792H606.324V62.7197Z" fill="black"/>
<path d="M668.876 62.7197H645.314V83.1792H668.876V62.7197Z" fill="black"/>
<path d="M575.047 0H551.485V20.4595H575.047V0Z" fill="black"/>
<path d="M575.047 31.4443H551.485V51.9038H575.047V31.4443Z" fill="black"/>
<path d="M575.047 62.6367H551.485V83.0962H575.047V62.6367Z" fill="black"/>
<path d="M512.579 185.729H489.017V206.188H512.579V185.729Z" fill="black"/>
<path d="M481.219 185.729H457.657V206.188H481.219V185.729Z" fill="black"/>
<path d="M543.688 185.729H520.126V206.188H543.688V185.729Z" fill="black"/>
<path d="M512.579 217.173H489.017V237.632H512.579V217.173Z" fill="black"/>
<path d="M481.219 217.173H457.657V237.632H481.219V217.173Z" fill="black"/>
<path d="M543.688 217.173H520.126V237.632H543.688V217.173Z" fill="black"/>
<path d="M512.579 248.281H489.017V268.741H512.579V248.281Z" fill="black"/>
<path d="M481.219 248.281H457.657V268.741H481.219V248.281Z" fill="black"/>
<path d="M543.688 248.281H520.126V268.741H543.688V248.281Z" fill="black"/>
<path d="M637.768 185.896H614.206V206.356H637.768V185.896Z" fill="black"/>
<path d="M606.324 185.896H582.762V206.356H606.324V185.896Z" fill="black"/>
<path d="M668.876 185.896H645.314V206.356H668.876V185.896Z" fill="black"/>
<path d="M637.768 216.921H614.206V237.38H637.768V216.921Z" fill="black"/>
<path d="M606.324 216.921H582.762V237.38H606.324V216.921Z" fill="black"/>
<path d="M668.876 216.921H645.314V237.38H668.876V216.921Z" fill="black"/>
<path d="M637.768 248.365H614.206V268.825H637.768V248.365Z" fill="black"/>
<path d="M606.324 248.365H582.762V268.825H606.324V248.365Z" fill="black"/>
<path d="M668.876 248.365H645.314V268.825H668.876V248.365Z" fill="black"/>
<path d="M575.047 185.729H551.485V206.188H575.047V185.729Z" fill="black"/>
<path d="M575.047 217.173H551.485V237.632H575.047V217.173Z" fill="black"/>
<path d="M575.047 248.281H551.485V268.741H575.047V248.281Z" fill="black"/>
<path d="M512.579 406.423H489.017V426.882H512.579V406.423Z" fill="black"/>
<path d="M481.219 406.423H457.657V426.882H481.219V406.423Z" fill="black"/>
<path d="M543.688 406.423H520.126V426.882H543.688V406.423Z" fill="black"/>
<path d="M512.579 437.867H489.017V458.327H512.579V437.867Z" fill="black"/>
<path d="M481.219 437.867H457.657V458.327H481.219V437.867Z" fill="black"/>
<path d="M543.688 437.867H520.126V458.327H543.688V437.867Z" fill="black"/>
<path d="M512.579 469.06H489.017V489.519H512.579V469.06Z" fill="black"/>
<path d="M481.219 469.06H457.657V489.519H481.219V469.06Z" fill="black"/>
<path d="M543.688 469.06H520.126V489.519H543.688V469.06Z" fill="black"/>
<path d="M637.768 406.675H614.206V427.134H637.768V406.675Z" fill="black"/>
<path d="M606.324 406.675H582.762V427.134H606.324V406.675Z" fill="black"/>
<path d="M668.876 406.675H645.314V427.134H668.876V406.675Z" fill="black"/>
<path d="M637.768 437.699H614.206V458.159H637.768V437.699Z" fill="black"/>
<path d="M606.324 437.699H582.762V458.159H606.324V437.699Z" fill="black"/>
<path d="M668.876 437.699H645.314V458.159H668.876V437.699Z" fill="black"/>
<path d="M637.768 469.143H614.206V489.602H637.768V469.143Z" fill="black"/>
<path d="M606.324 469.143H582.762V489.602H606.324V469.143Z" fill="black"/>
<path d="M668.876 469.143H645.314V489.602H668.876V469.143Z" fill="black"/>
<path d="M575.047 406.423H551.485V426.882H575.047V406.423Z" fill="black"/>
<path d="M575.047 437.867H551.485V458.327H575.047V437.867Z" fill="black"/>
<path d="M575.047 469.06H551.485V489.519H575.047V469.06Z" fill="black"/>
</svg>
